solid OpenSCAD_Model
  facet normal -1 0 0
    outer loop
      vertex 5 2 3
      vertex 5 7 15.5
      vertex 5 7 3
    endloop
  endfacet
  facet normal -1 -0 0
    outer loop
      vertex 5 7 15.5
      vertex 5 2 3
      vertex 5 2 15.5
    endloop
  endfacet
  facet normal -0 0 1
    outer loop
      vertex 5 7 15.5
      vertex 10.3 2 15.5
      vertex 10.3 7 15.5
    endloop
  endfacet
  facet normal 0 0 1
    outer loop
      vertex 10.3 2 15.5
      vertex 5 7 15.5
      vertex 5 2 15.5
    endloop
  endfacet
  facet normal 1 -0 0
    outer loop
      vertex 10.3 2 15.5
      vertex 10.3 7 3
      vertex 10.3 7 15.5
    endloop
  endfacet
  facet normal 1 0 0
    outer loop
      vertex 10.3 7 3
      vertex 10.3 2 15.5
      vertex 10.3 2 3
    endloop
  endfacet
  facet normal 0 1 0
    outer loop
      vertex 10.3 7 15.5
      vertex 7.65 7 10.75
      vertex 5 7 15.5
    endloop
  endfacet
  facet normal 0 1 0
    outer loop
      vertex 10.3 7 15.5
      vertex 8.22402 7 10.6358
      vertex 7.65 7 10.75
    endloop
  endfacet
  facet normal 0 1 0
    outer loop
      vertex 10.3 7 15.5
      vertex 8.71066 7 10.3107
      vertex 8.22402 7 10.6358
    endloop
  endfacet
  facet normal 0 1 0
    outer loop
      vertex 10.3 7 15.5
      vertex 9.03582 7 9.82402
      vertex 8.71066 7 10.3107
    endloop
  endfacet
  facet normal 0 1 0
    outer loop
      vertex 10.3 7 15.5
      vertex 9.15 7 9.25
      vertex 9.03582 7 9.82402
    endloop
  endfacet
  facet normal 0 1 0
    outer loop
      vertex 8.22402 7 7.86418
      vertex 10.3 7 3
      vertex 7.65 7 7.75
    endloop
  endfacet
  facet normal 0 1 0
    outer loop
      vertex 8.71066 7 8.18934
      vertex 10.3 7 3
      vertex 8.22402 7 7.86418
    endloop
  endfacet
  facet normal 0 1 0
    outer loop
      vertex 9.03582 7 8.67597
      vertex 10.3 7 3
      vertex 8.71066 7 8.18934
    endloop
  endfacet
  facet normal 0 1 0
    outer loop
      vertex 9.15 7 9.25
      vertex 10.3 7 3
      vertex 9.03582 7 8.67597
    endloop
  endfacet
  facet normal 0 1 -0
    outer loop
      vertex 10.3 7 3
      vertex 9.15 7 9.25
      vertex 10.3 7 15.5
    endloop
  endfacet
  facet normal 0 1 -0
    outer loop
      vertex 7.07597 7 10.6358
      vertex 5 7 15.5
      vertex 7.65 7 10.75
    endloop
  endfacet
  facet normal 0 1 -0
    outer loop
      vertex 6.58934 7 10.3107
      vertex 5 7 15.5
      vertex 7.07597 7 10.6358
    endloop
  endfacet
  facet normal 0 1 -0
    outer loop
      vertex 6.26418 7 9.82402
      vertex 5 7 15.5
      vertex 6.58934 7 10.3107
    endloop
  endfacet
  facet normal 0 1 -0
    outer loop
      vertex 6.15 7 9.25
      vertex 5 7 15.5
      vertex 6.26418 7 9.82402
    endloop
  endfacet
  facet normal 0 1 0
    outer loop
      vertex 5 7 3
      vertex 7.65 7 7.75
      vertex 10.3 7 3
    endloop
  endfacet
  facet normal 0 1 0
    outer loop
      vertex 7.65 7 7.75
      vertex 5 7 3
      vertex 7.07597 7 7.86418
    endloop
  endfacet
  facet normal 0 1 0
    outer loop
      vertex 6.15 7 9.25
      vertex 5 7 3
      vertex 5 7 15.5
    endloop
  endfacet
  facet normal 0 1 0
    outer loop
      vertex 6.26418 7 8.67597
      vertex 5 7 3
      vertex 6.15 7 9.25
    endloop
  endfacet
  facet normal 0 1 0
    outer loop
      vertex 6.58934 7 8.18934
      vertex 5 7 3
      vertex 6.26418 7 8.67597
    endloop
  endfacet
  facet normal 0 1 0
    outer loop
      vertex 7.07597 7 7.86418
      vertex 5 7 3
      vertex 6.58934 7 8.18934
    endloop
  endfacet
  facet normal 0 0 -1
    outer loop
      vertex 0 0 0
      vertex 40 15 0
      vertex 40 0 0
    endloop
  endfacet
  facet normal -0 0 -1
    outer loop
      vertex 40 15 0
      vertex 0 0 0
      vertex 0 15 0
    endloop
  endfacet
  facet normal 0 -1 0
    outer loop
      vertex 5 2 15.5
      vertex 7.65 2 10.75
      vertex 10.3 2 15.5
    endloop
  endfacet
  facet normal 0 -1 0
    outer loop
      vertex 5 2 15.5
      vertex 7.07597 2 10.6358
      vertex 7.65 2 10.75
    endloop
  endfacet
  facet normal 0 -1 0
    outer loop
      vertex 5 2 15.5
      vertex 6.58934 2 10.3107
      vertex 7.07597 2 10.6358
    endloop
  endfacet
  facet normal 0 -1 0
    outer loop
      vertex 5 2 15.5
      vertex 6.26418 2 9.82402
      vertex 6.58934 2 10.3107
    endloop
  endfacet
  facet normal 0 -1 0
    outer loop
      vertex 5 2 15.5
      vertex 6.15 2 9.25
      vertex 6.26418 2 9.82402
    endloop
  endfacet
  facet normal 0 -1 -0
    outer loop
      vertex 7.07597 2 7.86418
      vertex 5 2 3
      vertex 7.65 2 7.75
    endloop
  endfacet
  facet normal 0 -1 -0
    outer loop
      vertex 6.58934 2 8.18934
      vertex 5 2 3
      vertex 7.07597 2 7.86418
    endloop
  endfacet
  facet normal 0 -1 -0
    outer loop
      vertex 6.26418 2 8.67597
      vertex 5 2 3
      vertex 6.58934 2 8.18934
    endloop
  endfacet
  facet normal 0 -1 -0
    outer loop
      vertex 6.15 2 9.25
      vertex 5 2 3
      vertex 6.26418 2 8.67597
    endloop
  endfacet
  facet normal 0 -1 0
    outer loop
      vertex 5 2 3
      vertex 6.15 2 9.25
      vertex 5 2 15.5
    endloop
  endfacet
  facet normal 0 -1 0
    outer loop
      vertex 8.22402 2 10.6358
      vertex 10.3 2 15.5
      vertex 7.65 2 10.75
    endloop
  endfacet
  facet normal 0 -1 0
    outer loop
      vertex 8.71066 2 10.3107
      vertex 10.3 2 15.5
      vertex 8.22402 2 10.6358
    endloop
  endfacet
  facet normal 0 -1 0
    outer loop
      vertex 9.03582 2 9.82402
      vertex 10.3 2 15.5
      vertex 8.71066 2 10.3107
    endloop
  endfacet
  facet normal 0 -1 0
    outer loop
      vertex 9.15 2 9.25
      vertex 10.3 2 15.5
      vertex 9.03582 2 9.82402
    endloop
  endfacet
  facet normal 0 -1 0
    outer loop
      vertex 10.3 2 3
      vertex 7.65 2 7.75
      vertex 5 2 3
    endloop
  endfacet
  facet normal 0 -1 0
    outer loop
      vertex 7.65 2 7.75
      vertex 10.3 2 3
      vertex 8.22402 2 7.86418
    endloop
  endfacet
  facet normal 0 -1 0
    outer loop
      vertex 9.15 2 9.25
      vertex 10.3 2 3
      vertex 10.3 2 15.5
    endloop
  endfacet
  facet normal 0 -1 0
    outer loop
      vertex 9.03582 2 8.67597
      vertex 10.3 2 3
      vertex 9.15 2 9.25
    endloop
  endfacet
  facet normal 0 -1 0
    outer loop
      vertex 8.71066 2 8.18934
      vertex 10.3 2 3
      vertex 9.03582 2 8.67597
    endloop
  endfacet
  facet normal 0 -1 0
    outer loop
      vertex 8.22402 2 7.86418
      vertex 10.3 2 3
      vertex 8.71066 2 8.18934
    endloop
  endfacet
  facet normal -0.980786 0 0.195088
    outer loop
      vertex 9.03582 2 8.67597
      vertex 9.15 7 9.25
      vertex 9.03582 7 8.67597
    endloop
  endfacet
  facet normal -0.980786 0 0.195088
    outer loop
      vertex 9.15 7 9.25
      vertex 9.03582 2 8.67597
      vertex 9.15 2 9.25
    endloop
  endfacet
  facet normal 0.980786 -0 0.195088
    outer loop
      vertex 6.15 2 9.25
      vertex 6.26418 7 8.67597
      vertex 6.15 7 9.25
    endloop
  endfacet
  facet normal 0.980786 0 0.195088
    outer loop
      vertex 6.26418 7 8.67597
      vertex 6.15 2 9.25
      vertex 6.26418 2 8.67597
    endloop
  endfacet
  facet normal 0.195088 0 0.980786
    outer loop
      vertex 7.07597 7 7.86418
      vertex 7.65 2 7.75
      vertex 7.65 7 7.75
    endloop
  endfacet
  facet normal 0.195088 0 0.980786
    outer loop
      vertex 7.65 2 7.75
      vertex 7.07597 7 7.86418
      vertex 7.07597 2 7.86418
    endloop
  endfacet
  facet normal 0.555575 0 0.831466
    outer loop
      vertex 6.58934 7 8.18934
      vertex 7.07597 2 7.86418
      vertex 7.07597 7 7.86418
    endloop
  endfacet
  facet normal 0.555575 0 0.831466
    outer loop
      vertex 7.07597 2 7.86418
      vertex 6.58934 7 8.18934
      vertex 6.58934 2 8.18934
    endloop
  endfacet
  facet normal -0.195124 0 -0.980779
    outer loop
      vertex 7.65 2 10.75
      vertex 8.22402 7 10.6358
      vertex 8.22402 2 10.6358
    endloop
  endfacet
  facet normal -0.195124 0 -0.980779
    outer loop
      vertex 8.22402 7 10.6358
      vertex 7.65 2 10.75
      vertex 7.65 7 10.75
    endloop
  endfacet
  facet normal -0.555567 0 0.831472
    outer loop
      vertex 8.22402 7 7.86418
      vertex 8.71066 2 8.18934
      vertex 8.71066 7 8.18934
    endloop
  endfacet
  facet normal -0.555567 0 0.831472
    outer loop
      vertex 8.71066 2 8.18934
      vertex 8.22402 7 7.86418
      vertex 8.22402 2 7.86418
    endloop
  endfacet
  facet normal -0.831466 0 0.555575
    outer loop
      vertex 8.71066 2 8.18934
      vertex 9.03582 7 8.67597
      vertex 8.71066 7 8.18934
    endloop
  endfacet
  facet normal -0.831466 0 0.555575
    outer loop
      vertex 9.03582 7 8.67597
      vertex 8.71066 2 8.18934
      vertex 9.03582 2 8.67597
    endloop
  endfacet
  facet normal -0.195091 0 0.980785
    outer loop
      vertex 7.65 7 7.75
      vertex 8.22402 2 7.86418
      vertex 8.22402 7 7.86418
    endloop
  endfacet
  facet normal -0.195091 0 0.980785
    outer loop
      vertex 8.22402 2 7.86418
      vertex 7.65 7 7.75
      vertex 7.65 2 7.75
    endloop
  endfacet
  facet normal 0.831466 -0 0.555575
    outer loop
      vertex 6.26418 2 8.67597
      vertex 6.58934 7 8.18934
      vertex 6.26418 7 8.67597
    endloop
  endfacet
  facet normal 0.831466 0 0.555575
    outer loop
      vertex 6.58934 7 8.18934
      vertex 6.26418 2 8.67597
      vertex 6.58934 2 8.18934
    endloop
  endfacet
  facet normal 0.555504 0 -0.831514
    outer loop
      vertex 6.58934 2 10.3107
      vertex 7.07597 7 10.6358
      vertex 7.07597 2 10.6358
    endloop
  endfacet
  facet normal 0.555504 0 -0.831514
    outer loop
      vertex 7.07597 7 10.6358
      vertex 6.58934 2 10.3107
      vertex 6.58934 7 10.3107
    endloop
  endfacet
  facet normal 0.980785 0 -0.195091
    outer loop
      vertex 6.26418 2 9.82402
      vertex 6.15 7 9.25
      vertex 6.26418 7 9.82402
    endloop
  endfacet
  facet normal 0.980785 0 -0.195091
    outer loop
      vertex 6.15 7 9.25
      vertex 6.26418 2 9.82402
      vertex 6.15 2 9.25
    endloop
  endfacet
  facet normal -0.980785 0 -0.195091
    outer loop
      vertex 9.15 2 9.25
      vertex 9.03582 7 9.82402
      vertex 9.15 7 9.25
    endloop
  endfacet
  facet normal -0.980785 -0 -0.195091
    outer loop
      vertex 9.03582 7 9.82402
      vertex 9.15 2 9.25
      vertex 9.03582 2 9.82402
    endloop
  endfacet
  facet normal -0.555496 0 -0.831519
    outer loop
      vertex 8.22402 2 10.6358
      vertex 8.71066 7 10.3107
      vertex 8.71066 2 10.3107
    endloop
  endfacet
  facet normal -0.555496 0 -0.831519
    outer loop
      vertex 8.71066 7 10.3107
      vertex 8.22402 2 10.6358
      vertex 8.22402 7 10.6358
    endloop
  endfacet
  facet normal -0.831493 0 -0.555536
    outer loop
      vertex 9.03582 2 9.82402
      vertex 8.71066 7 10.3107
      vertex 9.03582 7 9.82402
    endloop
  endfacet
  facet normal -0.831493 -0 -0.555536
    outer loop
      vertex 8.71066 7 10.3107
      vertex 9.03582 2 9.82402
      vertex 8.71066 2 10.3107
    endloop
  endfacet
  facet normal 0.19512 0 -0.980779
    outer loop
      vertex 7.07597 2 10.6358
      vertex 7.65 7 10.75
      vertex 7.65 2 10.75
    endloop
  endfacet
  facet normal 0.19512 0 -0.980779
    outer loop
      vertex 7.65 7 10.75
      vertex 7.07597 2 10.6358
      vertex 7.07597 7 10.6358
    endloop
  endfacet
  facet normal 0.831493 0 -0.555536
    outer loop
      vertex 6.58934 2 10.3107
      vertex 6.26418 7 9.82402
      vertex 6.58934 7 10.3107
    endloop
  endfacet
  facet normal 0.831493 0 -0.555536
    outer loop
      vertex 6.26418 7 9.82402
      vertex 6.58934 2 10.3107
      vertex 6.26418 2 9.82402
    endloop
  endfacet
  facet normal -1 0 0
    outer loop
      vertex 33.8 2 3
      vertex 33.8 7 15.5
      vertex 33.8 7 3
    endloop
  endfacet
  facet normal -1 -0 0
    outer loop
      vertex 33.8 7 15.5
      vertex 33.8 2 3
      vertex 33.8 2 15.5
    endloop
  endfacet
  facet normal -0 0 1
    outer loop
      vertex 33.8 7 15.5
      vertex 39.1 2 15.5
      vertex 39.1 7 15.5
    endloop
  endfacet
  facet normal 0 0 1
    outer loop
      vertex 39.1 2 15.5
      vertex 33.8 7 15.5
      vertex 33.8 2 15.5
    endloop
  endfacet
  facet normal 1 -0 0
    outer loop
      vertex 39.1 2 15.5
      vertex 39.1 7 3
      vertex 39.1 7 15.5
    endloop
  endfacet
  facet normal 1 0 0
    outer loop
      vertex 39.1 7 3
      vertex 39.1 2 15.5
      vertex 39.1 2 3
    endloop
  endfacet
  facet normal 0 1 0
    outer loop
      vertex 39.1 7 15.5
      vertex 36.45 7 10.75
      vertex 33.8 7 15.5
    endloop
  endfacet
  facet normal 0 1 0
    outer loop
      vertex 39.1 7 15.5
      vertex 37.024 7 10.6358
      vertex 36.45 7 10.75
    endloop
  endfacet
  facet normal 0 1 0
    outer loop
      vertex 39.1 7 15.5
      vertex 37.5107 7 10.3107
      vertex 37.024 7 10.6358
    endloop
  endfacet
  facet normal 0 1 0
    outer loop
      vertex 39.1 7 15.5
      vertex 37.8358 7 9.82402
      vertex 37.5107 7 10.3107
    endloop
  endfacet
  facet normal 0 1 0
    outer loop
      vertex 39.1 7 15.5
      vertex 37.95 7 9.25
      vertex 37.8358 7 9.82402
    endloop
  endfacet
  facet normal 0 1 0
    outer loop
      vertex 37.024 7 7.86418
      vertex 39.1 7 3
      vertex 36.45 7 7.75
    endloop
  endfacet
  facet normal 0 1 0
    outer loop
      vertex 37.5107 7 8.18934
      vertex 39.1 7 3
      vertex 37.024 7 7.86418
    endloop
  endfacet
  facet normal 0 1 0
    outer loop
      vertex 37.8358 7 8.67597
      vertex 39.1 7 3
      vertex 37.5107 7 8.18934
    endloop
  endfacet
  facet normal 0 1 0
    outer loop
      vertex 37.95 7 9.25
      vertex 39.1 7 3
      vertex 37.8358 7 8.67597
    endloop
  endfacet
  facet normal 0 1 -0
    outer loop
      vertex 39.1 7 3
      vertex 37.95 7 9.25
      vertex 39.1 7 15.5
    endloop
  endfacet
  facet normal 0 1 -0
    outer loop
      vertex 35.876 7 10.6358
      vertex 33.8 7 15.5
      vertex 36.45 7 10.75
    endloop
  endfacet
  facet normal 0 1 -0
    outer loop
      vertex 35.3893 7 10.3107
      vertex 33.8 7 15.5
      vertex 35.876 7 10.6358
    endloop
  endfacet
  facet normal 0 1 -0
    outer loop
      vertex 35.0642 7 9.82402
      vertex 33.8 7 15.5
      vertex 35.3893 7 10.3107
    endloop
  endfacet
  facet normal 0 1 -0
    outer loop
      vertex 34.95 7 9.25
      vertex 33.8 7 15.5
      vertex 35.0642 7 9.82402
    endloop
  endfacet
  facet normal 0 1 0
    outer loop
      vertex 33.8 7 3
      vertex 36.45 7 7.75
      vertex 39.1 7 3
    endloop
  endfacet
  facet normal 0 1 0
    outer loop
      vertex 36.45 7 7.75
      vertex 33.8 7 3
      vertex 35.876 7 7.86418
    endloop
  endfacet
  facet normal 0 1 0
    outer loop
      vertex 34.95 7 9.25
      vertex 33.8 7 3
      vertex 33.8 7 15.5
    endloop
  endfacet
  facet normal 0 1 0
    outer loop
      vertex 35.0642 7 8.67597
      vertex 33.8 7 3
      vertex 34.95 7 9.25
    endloop
  endfacet
  facet normal 0 1 0
    outer loop
      vertex 35.3893 7 8.18934
      vertex 33.8 7 3
      vertex 35.0642 7 8.67597
    endloop
  endfacet
  facet normal 0 1 0
    outer loop
      vertex 35.876 7 7.86418
      vertex 33.8 7 3
      vertex 35.3893 7 8.18934
    endloop
  endfacet
  facet normal 0 -1 0
    outer loop
      vertex 33.8 2 15.5
      vertex 36.45 2 10.75
      vertex 39.1 2 15.5
    endloop
  endfacet
  facet normal 0 -1 0
    outer loop
      vertex 33.8 2 15.5
      vertex 35.876 2 10.6358
      vertex 36.45 2 10.75
    endloop
  endfacet
  facet normal 0 -1 0
    outer loop
      vertex 33.8 2 15.5
      vertex 35.3893 2 10.3107
      vertex 35.876 2 10.6358
    endloop
  endfacet
  facet normal 0 -1 0
    outer loop
      vertex 33.8 2 15.5
      vertex 35.0642 2 9.82402
      vertex 35.3893 2 10.3107
    endloop
  endfacet
  facet normal 0 -1 0
    outer loop
      vertex 33.8 2 15.5
      vertex 34.95 2 9.25
      vertex 35.0642 2 9.82402
    endloop
  endfacet
  facet normal 0 -1 -0
    outer loop
      vertex 35.876 2 7.86418
      vertex 33.8 2 3
      vertex 36.45 2 7.75
    endloop
  endfacet
  facet normal 0 -1 -0
    outer loop
      vertex 35.3893 2 8.18934
      vertex 33.8 2 3
      vertex 35.876 2 7.86418
    endloop
  endfacet
  facet normal 0 -1 -0
    outer loop
      vertex 35.0642 2 8.67597
      vertex 33.8 2 3
      vertex 35.3893 2 8.18934
    endloop
  endfacet
  facet normal 0 -1 -0
    outer loop
      vertex 34.95 2 9.25
      vertex 33.8 2 3
      vertex 35.0642 2 8.67597
    endloop
  endfacet
  facet normal 0 -1 0
    outer loop
      vertex 33.8 2 3
      vertex 34.95 2 9.25
      vertex 33.8 2 15.5
    endloop
  endfacet
  facet normal 0 -1 0
    outer loop
      vertex 37.024 2 10.6358
      vertex 39.1 2 15.5
      vertex 36.45 2 10.75
    endloop
  endfacet
  facet normal 0 -1 0
    outer loop
      vertex 37.5107 2 10.3107
      vertex 39.1 2 15.5
      vertex 37.024 2 10.6358
    endloop
  endfacet
  facet normal 0 -1 0
    outer loop
      vertex 37.8358 2 9.82402
      vertex 39.1 2 15.5
      vertex 37.5107 2 10.3107
    endloop
  endfacet
  facet normal 0 -1 0
    outer loop
      vertex 37.95 2 9.25
      vertex 39.1 2 15.5
      vertex 37.8358 2 9.82402
    endloop
  endfacet
  facet normal 0 -1 0
    outer loop
      vertex 39.1 2 3
      vertex 36.45 2 7.75
      vertex 33.8 2 3
    endloop
  endfacet
  facet normal 0 -1 0
    outer loop
      vertex 36.45 2 7.75
      vertex 39.1 2 3
      vertex 37.024 2 7.86418
    endloop
  endfacet
  facet normal 0 -1 0
    outer loop
      vertex 37.95 2 9.25
      vertex 39.1 2 3
      vertex 39.1 2 15.5
    endloop
  endfacet
  facet normal 0 -1 0
    outer loop
      vertex 37.8358 2 8.67597
      vertex 39.1 2 3
      vertex 37.95 2 9.25
    endloop
  endfacet
  facet normal 0 -1 0
    outer loop
      vertex 37.5107 2 8.18934
      vertex 39.1 2 3
      vertex 37.8358 2 8.67597
    endloop
  endfacet
  facet normal 0 -1 0
    outer loop
      vertex 37.024 2 7.86418
      vertex 39.1 2 3
      vertex 37.5107 2 8.18934
    endloop
  endfacet
  facet normal -0.980779 0 0.19512
    outer loop
      vertex 37.8358 2 8.67597
      vertex 37.95 7 9.25
      vertex 37.8358 7 8.67597
    endloop
  endfacet
  facet normal -0.980779 0 0.19512
    outer loop
      vertex 37.95 7 9.25
      vertex 37.8358 2 8.67597
      vertex 37.95 2 9.25
    endloop
  endfacet
  facet normal 0.980779 -0 0.19512
    outer loop
      vertex 34.95 2 9.25
      vertex 35.0642 7 8.67597
      vertex 34.95 7 9.25
    endloop
  endfacet
  facet normal 0.980779 0 0.19512
    outer loop
      vertex 35.0642 7 8.67597
      vertex 34.95 2 9.25
      vertex 35.0642 2 8.67597
    endloop
  endfacet
  facet normal 0.195097 0 0.980784
    outer loop
      vertex 35.876 7 7.86418
      vertex 36.45 2 7.75
      vertex 36.45 7 7.75
    endloop
  endfacet
  facet normal 0.195097 0 0.980784
    outer loop
      vertex 36.45 2 7.75
      vertex 35.876 7 7.86418
      vertex 35.876 2 7.86418
    endloop
  endfacet
  facet normal 0.55552 0 0.831503
    outer loop
      vertex 35.3893 7 8.18934
      vertex 35.876 2 7.86418
      vertex 35.876 7 7.86418
    endloop
  endfacet
  facet normal 0.55552 0 0.831503
    outer loop
      vertex 35.876 2 7.86418
      vertex 35.3893 7 8.18934
      vertex 35.3893 2 8.18934
    endloop
  endfacet
  facet normal -0.55552 0 0.831503
    outer loop
      vertex 37.024 7 7.86418
      vertex 37.5107 2 8.18934
      vertex 37.5107 7 8.18934
    endloop
  endfacet
  facet normal -0.55552 0 0.831503
    outer loop
      vertex 37.5107 2 8.18934
      vertex 37.024 7 7.86418
      vertex 37.024 2 7.86418
    endloop
  endfacet
  facet normal -0.831514 0 0.555504
    outer loop
      vertex 37.5107 2 8.18934
      vertex 37.8358 7 8.67597
      vertex 37.5107 7 8.18934
    endloop
  endfacet
  facet normal -0.831514 0 0.555504
    outer loop
      vertex 37.8358 7 8.67597
      vertex 37.5107 2 8.18934
      vertex 37.8358 2 8.67597
    endloop
  endfacet
  facet normal -0.195097 0 0.980784
    outer loop
      vertex 36.45 7 7.75
      vertex 37.024 2 7.86418
      vertex 37.024 7 7.86418
    endloop
  endfacet
  facet normal -0.195097 0 0.980784
    outer loop
      vertex 37.024 2 7.86418
      vertex 36.45 7 7.75
      vertex 36.45 2 7.75
    endloop
  endfacet
  facet normal 0.831514 -0 0.555504
    outer loop
      vertex 35.0642 2 8.67597
      vertex 35.3893 7 8.18934
      vertex 35.0642 7 8.67597
    endloop
  endfacet
  facet normal 0.831514 0 0.555504
    outer loop
      vertex 35.3893 7 8.18934
      vertex 35.0642 2 8.67597
      vertex 35.3893 2 8.18934
    endloop
  endfacet
  facet normal 0.555449 0 -0.831551
    outer loop
      vertex 35.3893 2 10.3107
      vertex 35.876 7 10.6358
      vertex 35.876 2 10.6358
    endloop
  endfacet
  facet normal 0.555449 0 -0.831551
    outer loop
      vertex 35.876 7 10.6358
      vertex 35.3893 2 10.3107
      vertex 35.3893 7 10.3107
    endloop
  endfacet
  facet normal 0.980779 0 -0.195124
    outer loop
      vertex 35.0642 2 9.82402
      vertex 34.95 7 9.25
      vertex 35.0642 7 9.82402
    endloop
  endfacet
  facet normal 0.980779 0 -0.195124
    outer loop
      vertex 34.95 7 9.25
      vertex 35.0642 2 9.82402
      vertex 34.95 2 9.25
    endloop
  endfacet
  facet normal -0.980779 0 -0.195124
    outer loop
      vertex 37.95 2 9.25
      vertex 37.8358 7 9.82402
      vertex 37.95 7 9.25
    endloop
  endfacet
  facet normal -0.980779 -0 -0.195124
    outer loop
      vertex 37.8358 7 9.82402
      vertex 37.95 2 9.25
      vertex 37.8358 2 9.82402
    endloop
  endfacet
  facet normal -0.555449 0 -0.831551
    outer loop
      vertex 37.024 2 10.6358
      vertex 37.5107 7 10.3107
      vertex 37.5107 2 10.3107
    endloop
  endfacet
  facet normal -0.555449 0 -0.831551
    outer loop
      vertex 37.5107 7 10.3107
      vertex 37.024 2 10.6358
      vertex 37.024 7 10.6358
    endloop
  endfacet
  facet normal -0.19513 0 -0.980777
    outer loop
      vertex 36.45 2 10.75
      vertex 37.024 7 10.6358
      vertex 37.024 2 10.6358
    endloop
  endfacet
  facet normal -0.19513 0 -0.980777
    outer loop
      vertex 37.024 7 10.6358
      vertex 36.45 2 10.75
      vertex 36.45 7 10.75
    endloop
  endfacet
  facet normal -0.83154 0 -0.555465
    outer loop
      vertex 37.8358 2 9.82402
      vertex 37.5107 7 10.3107
      vertex 37.8358 7 9.82402
    endloop
  endfacet
  facet normal -0.83154 -0 -0.555465
    outer loop
      vertex 37.5107 7 10.3107
      vertex 37.8358 2 9.82402
      vertex 37.5107 2 10.3107
    endloop
  endfacet
  facet normal 0.19513 0 -0.980777
    outer loop
      vertex 35.876 2 10.6358
      vertex 36.45 7 10.75
      vertex 36.45 2 10.75
    endloop
  endfacet
  facet normal 0.19513 0 -0.980777
    outer loop
      vertex 36.45 7 10.75
      vertex 35.876 2 10.6358
      vertex 35.876 7 10.6358
    endloop
  endfacet
  facet normal 0.83154 0 -0.555465
    outer loop
      vertex 35.3893 2 10.3107
      vertex 35.0642 7 9.82402
      vertex 35.3893 7 10.3107
    endloop
  endfacet
  facet normal 0.83154 0 -0.555465
    outer loop
      vertex 35.0642 7 9.82402
      vertex 35.3893 2 10.3107
      vertex 35.0642 2 9.82402
    endloop
  endfacet
  facet normal -1 0 0
    outer loop
      vertex 0 0 0
      vertex 0 15 3
      vertex 0 15 0
    endloop
  endfacet
  facet normal -1 -0 0
    outer loop
      vertex 0 15 3
      vertex 0 0 0
      vertex 0 0 3
    endloop
  endfacet
  facet normal 0 0 1
    outer loop
      vertex 40 15 3
      vertex 39.1 7 3
      vertex 40 0 3
    endloop
  endfacet
  facet normal 0 0 1
    outer loop
      vertex 40 15 3
      vertex 33.8 7 3
      vertex 39.1 7 3
    endloop
  endfacet
  facet normal 0 0 1
    outer loop
      vertex 33.8 7 3
      vertex 10.3 7 3
      vertex 33.8 2 3
    endloop
  endfacet
  facet normal 0 0 1
    outer loop
      vertex 40 15 3
      vertex 10.3 7 3
      vertex 33.8 7 3
    endloop
  endfacet
  facet normal -0 0 1
    outer loop
      vertex 0 15 3
      vertex 10.3 7 3
      vertex 40 15 3
    endloop
  endfacet
  facet normal 0 0 1
    outer loop
      vertex 0 0 3
      vertex 5 7 3
      vertex 0 15 3
    endloop
  endfacet
  facet normal 0 0 1
    outer loop
      vertex 10.3 7 3
      vertex 0 15 3
      vertex 5 7 3
    endloop
  endfacet
  facet normal -0 0 1
    outer loop
      vertex 39.1 2 3
      vertex 40 0 3
      vertex 39.1 7 3
    endloop
  endfacet
  facet normal -0 0 1
    outer loop
      vertex 33.8 2 3
      vertex 40 0 3
      vertex 39.1 2 3
    endloop
  endfacet
  facet normal 0 0 1
    outer loop
      vertex 10.3 2 3
      vertex 33.8 2 3
      vertex 10.3 7 3
    endloop
  endfacet
  facet normal 0 0 1
    outer loop
      vertex 33.8 2 3
      vertex 10.3 2 3
      vertex 40 0 3
    endloop
  endfacet
  facet normal 0 0 1
    outer loop
      vertex 0 0 3
      vertex 10.3 2 3
      vertex 5 2 3
    endloop
  endfacet
  facet normal 0 0 1
    outer loop
      vertex 10.3 2 3
      vertex 0 0 3
      vertex 40 0 3
    endloop
  endfacet
  facet normal 0 0 1
    outer loop
      vertex 5 7 3
      vertex 0 0 3
      vertex 5 2 3
    endloop
  endfacet
  facet normal 1 -0 0
    outer loop
      vertex 40 0 3
      vertex 40 15 0
      vertex 40 15 3
    endloop
  endfacet
  facet normal 1 0 0
    outer loop
      vertex 40 15 0
      vertex 40 0 3
      vertex 40 0 0
    endloop
  endfacet
  facet normal 0 -1 0
    outer loop
      vertex 0 0 0
      vertex 40 0 3
      vertex 0 0 3
    endloop
  endfacet
  facet normal 0 -1 -0
    outer loop
      vertex 40 0 3
      vertex 0 0 0
      vertex 40 0 0
    endloop
  endfacet
  facet normal 0 1 -0
    outer loop
      vertex 40 15 0
      vertex 0 15 3
      vertex 40 15 3
    endloop
  endfacet
  facet normal 0 1 0
    outer loop
      vertex 0 15 3
      vertex 40 15 0
      vertex 0 15 0
    endloop
  endfacet
endsolid OpenSCAD_Model
