solid OpenSCAD_Model
  facet normal -1 0 0
    outer loop
      vertex 0 0 0
      vertex 0 80 25.4
      vertex 0 80 0
    endloop
  endfacet
  facet normal -1 -0 0
    outer loop
      vertex 0 80 25.4
      vertex 0 0 0
      vertex 0 0 25.4
    endloop
  endfacet
  facet normal 0 0 1
    outer loop
      vertex 2 80 25.4
      vertex 0 80 25.4
      vertex 2 2 25.4
    endloop
  endfacet
  facet normal 0 0 1
    outer loop
      vertex 78 2 25.4
      vertex 80 80 25.4
      vertex 78 80 25.4
    endloop
  endfacet
  facet normal 0 0 1
    outer loop
      vertex 80 80 25.4
      vertex 78 2 25.4
      vertex 80 0 25.4
    endloop
  endfacet
  facet normal -0 0 1
    outer loop
      vertex 2 2 25.4
      vertex 80 0 25.4
      vertex 78 2 25.4
    endloop
  endfacet
  facet normal 0 0 1
    outer loop
      vertex 2 2 25.4
      vertex 0 0 25.4
      vertex 80 0 25.4
    endloop
  endfacet
  facet normal 0 0 1
    outer loop
      vertex 0 0 25.4
      vertex 2 2 25.4
      vertex 0 80 25.4
    endloop
  endfacet
  facet normal 1 -0 0
    outer loop
      vertex 80 0 25.4
      vertex 80 80 0
      vertex 80 80 25.4
    endloop
  endfacet
  facet normal 1 0 0
    outer loop
      vertex 80 80 0
      vertex 80 0 25.4
      vertex 80 0 0
    endloop
  endfacet
  facet normal 0 1 -0
    outer loop
      vertex 80 80 0
      vertex 78 80 25.4
      vertex 80 80 25.4
    endloop
  endfacet
  facet normal 0 1 0
    outer loop
      vertex 78 80 25.4
      vertex 80 80 0
      vertex 78 80 0
    endloop
  endfacet
  facet normal 0 1 -0
    outer loop
      vertex 2 80 0
      vertex 0 80 25.4
      vertex 2 80 25.4
    endloop
  endfacet
  facet normal 0 1 0
    outer loop
      vertex 0 80 25.4
      vertex 2 80 0
      vertex 0 80 0
    endloop
  endfacet
  facet normal 0 0 -1
    outer loop
      vertex 80 0 0
      vertex 78 2 0
      vertex 80 80 0
    endloop
  endfacet
  facet normal 0 0 -1
    outer loop
      vertex 80 0 0
      vertex 2 2 0
      vertex 78 2 0
    endloop
  endfacet
  facet normal 0 0 -1
    outer loop
      vertex 0 0 0
      vertex 2 2 0
      vertex 80 0 0
    endloop
  endfacet
  facet normal 0 0 -1
    outer loop
      vertex 0 80 0
      vertex 2 2 0
      vertex 0 0 0
    endloop
  endfacet
  facet normal 0 0 -1
    outer loop
      vertex 2 2 0
      vertex 0 80 0
      vertex 2 80 0
    endloop
  endfacet
  facet normal -0 0 -1
    outer loop
      vertex 80 80 0
      vertex 78 2 0
      vertex 78 80 0
    endloop
  endfacet
  facet normal 0 -1 0
    outer loop
      vertex 0 0 0
      vertex 80 0 25.4
      vertex 0 0 25.4
    endloop
  endfacet
  facet normal 0 -1 -0
    outer loop
      vertex 80 0 25.4
      vertex 0 0 0
      vertex 80 0 0
    endloop
  endfacet
  facet normal 1 -0 0
    outer loop
      vertex 2 2 25.4
      vertex 2 80 0
      vertex 2 80 25.4
    endloop
  endfacet
  facet normal 1 0 0
    outer loop
      vertex 2 80 0
      vertex 2 2 25.4
      vertex 2 2 0
    endloop
  endfacet
  facet normal -1 0 0
    outer loop
      vertex 78 2 0
      vertex 78 80 25.4
      vertex 78 80 0
    endloop
  endfacet
  facet normal -1 -0 0
    outer loop
      vertex 78 80 25.4
      vertex 78 2 0
      vertex 78 2 25.4
    endloop
  endfacet
  facet normal 0 1 -0
    outer loop
      vertex 78 2 0
      vertex 2 2 25.4
      vertex 78 2 25.4
    endloop
  endfacet
  facet normal 0 1 0
    outer loop
      vertex 2 2 25.4
      vertex 78 2 0
      vertex 2 2 0
    endloop
  endfacet
endsolid OpenSCAD_Model
