solid OpenSCAD_Model
  facet normal 0.994522 0.104529 0
    outer loop
      vertex 37 0 45
      vertex 36.1915 7.69273 0
      vertex 36.1915 7.69273 45
    endloop
  endfacet
  facet normal 0.994522 0.104529 0
    outer loop
      vertex 36.1915 7.69273 0
      vertex 37 0 45
      vertex 37 0 0
    endloop
  endfacet
  facet normal -0.994522 0.104529 0
    outer loop
      vertex -37 0 0
      vertex -36.1915 7.69273 45
      vertex -36.1915 7.69273 0
    endloop
  endfacet
  facet normal -0.994522 0.104529 0
    outer loop
      vertex -36.1915 7.69273 45
      vertex -37 0 0
      vertex -37 0 45
    endloop
  endfacet
  facet normal 0 1 -0
    outer loop
      vertex 3.86755 36.7973 0
      vertex -3.86755 36.7973 45
      vertex 3.86755 36.7973 45
    endloop
  endfacet
  facet normal 0 1 0
    outer loop
      vertex -3.86755 36.7973 45
      vertex 3.86755 36.7973 0
      vertex -3.86755 36.7973 0
    endloop
  endfacet
  facet normal 0.587785 0.809017 -0
    outer loop
      vertex 24.7578 27.4964 0
      vertex 18.5 32.0429 45
      vertex 24.7578 27.4964 45
    endloop
  endfacet
  facet normal 0.587785 0.809017 0
    outer loop
      vertex 18.5 32.0429 45
      vertex 24.7578 27.4964 0
      vertex 18.5 32.0429 0
    endloop
  endfacet
  facet normal 0.406737 0.913545 -0
    outer loop
      vertex 18.5 32.0429 0
      vertex 11.4336 35.1891 45
      vertex 18.5 32.0429 45
    endloop
  endfacet
  facet normal 0.406737 0.913545 0
    outer loop
      vertex 11.4336 35.1891 45
      vertex 18.5 32.0429 0
      vertex 11.4336 35.1891 0
    endloop
  endfacet
  facet normal -0.587785 0.809017 0
    outer loop
      vertex -18.5 32.0429 0
      vertex -24.7578 27.4964 45
      vertex -18.5 32.0429 45
    endloop
  endfacet
  facet normal -0.587785 0.809017 0
    outer loop
      vertex -24.7578 27.4964 45
      vertex -18.5 32.0429 0
      vertex -24.7578 27.4964 0
    endloop
  endfacet
  facet normal -0.207912 0.978148 0
    outer loop
      vertex -3.86755 36.7973 0
      vertex -11.4336 35.1891 45
      vertex -3.86755 36.7973 45
    endloop
  endfacet
  facet normal -0.207912 0.978148 0
    outer loop
      vertex -11.4336 35.1891 45
      vertex -3.86755 36.7973 0
      vertex -11.4336 35.1891 0
    endloop
  endfacet
  facet normal 0 0 -1
    outer loop
      vertex 36.1915 -7.69273 0
      vertex 36.1915 7.69273 0
      vertex 37 0 0
    endloop
  endfacet
  facet normal 0 0 -1
    outer loop
      vertex 33.8012 -15.0493 0
      vertex 36.1915 7.69273 0
      vertex 36.1915 -7.69273 0
    endloop
  endfacet
  facet normal 0 0 -1
    outer loop
      vertex 33.8012 -15.0493 0
      vertex 33.8012 15.0493 0
      vertex 36.1915 7.69273 0
    endloop
  endfacet
  facet normal 0 0 -1
    outer loop
      vertex 29.9336 -21.7481 0
      vertex 33.8012 15.0493 0
      vertex 33.8012 -15.0493 0
    endloop
  endfacet
  facet normal 0 0 -1
    outer loop
      vertex 29.9336 -21.7481 0
      vertex 29.9336 21.7481 0
      vertex 33.8012 15.0493 0
    endloop
  endfacet
  facet normal 0 0 -1
    outer loop
      vertex 24.7578 -27.4964 0
      vertex 29.9336 21.7481 0
      vertex 29.9336 -21.7481 0
    endloop
  endfacet
  facet normal 0 0 -1
    outer loop
      vertex 24.7578 -27.4964 0
      vertex 24.7578 27.4964 0
      vertex 29.9336 21.7481 0
    endloop
  endfacet
  facet normal 0 0 -1
    outer loop
      vertex 18.5 -32.0429 0
      vertex 24.7578 27.4964 0
      vertex 24.7578 -27.4964 0
    endloop
  endfacet
  facet normal 0 0 -1
    outer loop
      vertex 18.5 -32.0429 0
      vertex 18.5 32.0429 0
      vertex 24.7578 27.4964 0
    endloop
  endfacet
  facet normal 0 0 -1
    outer loop
      vertex 11.4336 -35.1891 0
      vertex 18.5 32.0429 0
      vertex 18.5 -32.0429 0
    endloop
  endfacet
  facet normal 0 0 -1
    outer loop
      vertex 11.4336 -35.1891 0
      vertex 11.4336 35.1891 0
      vertex 18.5 32.0429 0
    endloop
  endfacet
  facet normal 0 0 -1
    outer loop
      vertex 3.86755 -36.7973 0
      vertex 11.4336 35.1891 0
      vertex 11.4336 -35.1891 0
    endloop
  endfacet
  facet normal 0 0 -1
    outer loop
      vertex 3.86755 -36.7973 0
      vertex 3.86755 36.7973 0
      vertex 11.4336 35.1891 0
    endloop
  endfacet
  facet normal 0 0 -1
    outer loop
      vertex -3.86755 -36.7973 0
      vertex 3.86755 36.7973 0
      vertex 3.86755 -36.7973 0
    endloop
  endfacet
  facet normal 0 0 -1
    outer loop
      vertex -3.86755 -36.7973 0
      vertex -3.86755 36.7973 0
      vertex 3.86755 36.7973 0
    endloop
  endfacet
  facet normal 0 0 -1
    outer loop
      vertex -11.4336 -35.1891 0
      vertex -3.86755 36.7973 0
      vertex -3.86755 -36.7973 0
    endloop
  endfacet
  facet normal 0 0 -1
    outer loop
      vertex -11.4336 -35.1891 0
      vertex -11.4336 35.1891 0
      vertex -3.86755 36.7973 0
    endloop
  endfacet
  facet normal 0 0 -1
    outer loop
      vertex -18.5 -32.0429 0
      vertex -11.4336 35.1891 0
      vertex -11.4336 -35.1891 0
    endloop
  endfacet
  facet normal 0 0 -1
    outer loop
      vertex -18.5 -32.0429 0
      vertex -18.5 32.0429 0
      vertex -11.4336 35.1891 0
    endloop
  endfacet
  facet normal 0 0 -1
    outer loop
      vertex -24.7578 -27.4964 0
      vertex -18.5 32.0429 0
      vertex -18.5 -32.0429 0
    endloop
  endfacet
  facet normal 0 0 -1
    outer loop
      vertex -24.7578 -27.4964 0
      vertex -24.7578 27.4964 0
      vertex -18.5 32.0429 0
    endloop
  endfacet
  facet normal 0 0 -1
    outer loop
      vertex -29.9336 -21.7481 0
      vertex -24.7578 27.4964 0
      vertex -24.7578 -27.4964 0
    endloop
  endfacet
  facet normal 0 0 -1
    outer loop
      vertex -29.9336 -21.7481 0
      vertex -29.9336 21.7481 0
      vertex -24.7578 27.4964 0
    endloop
  endfacet
  facet normal 0 0 -1
    outer loop
      vertex -33.8012 -15.0493 0
      vertex -29.9336 21.7481 0
      vertex -29.9336 -21.7481 0
    endloop
  endfacet
  facet normal 0 0 -1
    outer loop
      vertex -33.8012 -15.0493 0
      vertex -33.8012 15.0493 0
      vertex -29.9336 21.7481 0
    endloop
  endfacet
  facet normal 0 0 -1
    outer loop
      vertex -36.1915 -7.69273 0
      vertex -33.8012 15.0493 0
      vertex -33.8012 -15.0493 0
    endloop
  endfacet
  facet normal 0 0 -1
    outer loop
      vertex -36.1915 -7.69273 0
      vertex -36.1915 7.69273 0
      vertex -33.8012 15.0493 0
    endloop
  endfacet
  facet normal 0 -0 -1
    outer loop
      vertex -36.1915 7.69273 0
      vertex -36.1915 -7.69273 0
      vertex -37 0 0
    endloop
  endfacet
  facet normal 0.866025 0.5 0
    outer loop
      vertex 33.8012 15.0493 45
      vertex 29.9336 21.7481 0
      vertex 29.9336 21.7481 45
    endloop
  endfacet
  facet normal 0.866025 0.5 0
    outer loop
      vertex 29.9336 21.7481 0
      vertex 33.8012 15.0493 45
      vertex 33.8012 15.0493 0
    endloop
  endfacet
  facet normal 0.951057 0.309017 0
    outer loop
      vertex 36.1915 7.69273 45
      vertex 33.8012 15.0493 0
      vertex 33.8012 15.0493 45
    endloop
  endfacet
  facet normal 0.951057 0.309017 0
    outer loop
      vertex 33.8012 15.0493 0
      vertex 36.1915 7.69273 45
      vertex 36.1915 7.69273 0
    endloop
  endfacet
  facet normal 0.743145 0.669131 0
    outer loop
      vertex 29.9336 21.7481 45
      vertex 24.7578 27.4964 0
      vertex 24.7578 27.4964 45
    endloop
  endfacet
  facet normal 0.743145 0.669131 0
    outer loop
      vertex 24.7578 27.4964 0
      vertex 29.9336 21.7481 45
      vertex 29.9336 21.7481 0
    endloop
  endfacet
  facet normal 0.207912 0.978148 -0
    outer loop
      vertex 11.4336 35.1891 0
      vertex 3.86755 36.7973 45
      vertex 11.4336 35.1891 45
    endloop
  endfacet
  facet normal 0.207912 0.978148 0
    outer loop
      vertex 3.86755 36.7973 45
      vertex 11.4336 35.1891 0
      vertex 3.86755 36.7973 0
    endloop
  endfacet
  facet normal -0.866025 0.5 0
    outer loop
      vertex -33.8012 15.0493 0
      vertex -29.9336 21.7481 45
      vertex -29.9336 21.7481 0
    endloop
  endfacet
  facet normal -0.866025 0.5 0
    outer loop
      vertex -29.9336 21.7481 45
      vertex -33.8012 15.0493 0
      vertex -33.8012 15.0493 45
    endloop
  endfacet
  facet normal -0.743145 0.669131 0
    outer loop
      vertex -29.9336 21.7481 0
      vertex -24.7578 27.4964 45
      vertex -24.7578 27.4964 0
    endloop
  endfacet
  facet normal -0.743145 0.669131 0
    outer loop
      vertex -24.7578 27.4964 45
      vertex -29.9336 21.7481 0
      vertex -29.9336 21.7481 45
    endloop
  endfacet
  facet normal -0.951057 0.309017 0
    outer loop
      vertex -36.1915 7.69273 0
      vertex -33.8012 15.0493 45
      vertex -33.8012 15.0493 0
    endloop
  endfacet
  facet normal -0.951057 0.309017 0
    outer loop
      vertex -33.8012 15.0493 45
      vertex -36.1915 7.69273 0
      vertex -36.1915 7.69273 45
    endloop
  endfacet
  facet normal 0 0 1
    outer loop
      vertex 35 0 45
      vertex 37 0 45
      vertex 36.1915 7.69273 45
    endloop
  endfacet
  facet normal 0 0 1
    outer loop
      vertex 37 0 45
      vertex 35 0 45
      vertex 36.1915 -7.69273 45
    endloop
  endfacet
  facet normal 0 0 1
    outer loop
      vertex 36.1915 7.69273 45
      vertex 34.2352 7.27691 45
      vertex 35 0 45
    endloop
  endfacet
  facet normal 0 0 1
    outer loop
      vertex 33.8012 15.0493 45
      vertex 34.2352 7.27691 45
      vertex 36.1915 7.69273 45
    endloop
  endfacet
  facet normal 0 0 1
    outer loop
      vertex 33.8012 15.0493 45
      vertex 31.9741 14.2358 45
      vertex 34.2352 7.27691 45
    endloop
  endfacet
  facet normal 0 0 1
    outer loop
      vertex 29.9336 21.7481 45
      vertex 31.9741 14.2358 45
      vertex 33.8012 15.0493 45
    endloop
  endfacet
  facet normal 0 0 1
    outer loop
      vertex 29.9336 21.7481 45
      vertex 28.3156 20.5725 45
      vertex 31.9741 14.2358 45
    endloop
  endfacet
  facet normal 0 0 1
    outer loop
      vertex 24.7578 27.4964 45
      vertex 28.3156 20.5725 45
      vertex 29.9336 21.7481 45
    endloop
  endfacet
  facet normal 0 0 1
    outer loop
      vertex 24.7578 27.4964 45
      vertex 23.4196 26.0101 45
      vertex 28.3156 20.5725 45
    endloop
  endfacet
  facet normal 0 0 1
    outer loop
      vertex 18.5 32.0429 45
      vertex 23.4196 26.0101 45
      vertex 24.7578 27.4964 45
    endloop
  endfacet
  facet normal 0 0 1
    outer loop
      vertex 18.5 32.0429 45
      vertex 17.5 30.3109 45
      vertex 23.4196 26.0101 45
    endloop
  endfacet
  facet normal 0 0 1
    outer loop
      vertex 11.4336 35.1891 45
      vertex 17.5 30.3109 45
      vertex 18.5 32.0429 45
    endloop
  endfacet
  facet normal 0 0 1
    outer loop
      vertex 11.4336 35.1891 45
      vertex 10.8156 33.287 45
      vertex 17.5 30.3109 45
    endloop
  endfacet
  facet normal 0 0 1
    outer loop
      vertex 3.86755 36.7973 45
      vertex 10.8156 33.287 45
      vertex 11.4336 35.1891 45
    endloop
  endfacet
  facet normal 0 0 1
    outer loop
      vertex 3.86755 36.7973 45
      vertex 3.6585 34.8083 45
      vertex 10.8156 33.287 45
    endloop
  endfacet
  facet normal 0 0 1
    outer loop
      vertex 3.86755 36.7973 45
      vertex -3.6585 34.8083 45
      vertex 3.6585 34.8083 45
    endloop
  endfacet
  facet normal -0 0 1
    outer loop
      vertex -3.86755 36.7973 45
      vertex -3.6585 34.8083 45
      vertex 3.86755 36.7973 45
    endloop
  endfacet
  facet normal 0 0 1
    outer loop
      vertex -3.86755 36.7973 45
      vertex -10.8156 33.287 45
      vertex -3.6585 34.8083 45
    endloop
  endfacet
  facet normal -0 0 1
    outer loop
      vertex -11.4336 35.1891 45
      vertex -10.8156 33.287 45
      vertex -3.86755 36.7973 45
    endloop
  endfacet
  facet normal 0 0 1
    outer loop
      vertex -11.4336 35.1891 45
      vertex -17.5 30.3109 45
      vertex -10.8156 33.287 45
    endloop
  endfacet
  facet normal -0 0 1
    outer loop
      vertex -18.5 32.0429 45
      vertex -17.5 30.3109 45
      vertex -11.4336 35.1891 45
    endloop
  endfacet
  facet normal 0 0 1
    outer loop
      vertex -18.5 32.0429 45
      vertex -23.4196 26.0101 45
      vertex -17.5 30.3109 45
    endloop
  endfacet
  facet normal -0 0 1
    outer loop
      vertex -24.7578 27.4964 45
      vertex -23.4196 26.0101 45
      vertex -18.5 32.0429 45
    endloop
  endfacet
  facet normal 0 0 1
    outer loop
      vertex -24.7578 27.4964 45
      vertex -28.3156 20.5725 45
      vertex -23.4196 26.0101 45
    endloop
  endfacet
  facet normal -0 0 1
    outer loop
      vertex -29.9336 21.7481 45
      vertex -28.3156 20.5725 45
      vertex -24.7578 27.4964 45
    endloop
  endfacet
  facet normal 0 0 1
    outer loop
      vertex -29.9336 21.7481 45
      vertex -31.9741 14.2358 45
      vertex -28.3156 20.5725 45
    endloop
  endfacet
  facet normal -0 0 1
    outer loop
      vertex -33.8012 15.0493 45
      vertex -31.9741 14.2358 45
      vertex -29.9336 21.7481 45
    endloop
  endfacet
  facet normal 0 0 1
    outer loop
      vertex -33.8012 15.0493 45
      vertex -34.2352 7.27691 45
      vertex -31.9741 14.2358 45
    endloop
  endfacet
  facet normal -0 0 1
    outer loop
      vertex -36.1915 7.69273 45
      vertex -34.2352 7.27691 45
      vertex -33.8012 15.0493 45
    endloop
  endfacet
  facet normal 0 0 1
    outer loop
      vertex -34.2352 7.27691 45
      vertex -36.1915 7.69273 45
      vertex -35 0 45
    endloop
  endfacet
  facet normal -0 0 1
    outer loop
      vertex 34.2352 -7.27691 45
      vertex 36.1915 -7.69273 45
      vertex 35 0 45
    endloop
  endfacet
  facet normal 0 0 1
    outer loop
      vertex 34.2352 -7.27691 45
      vertex 33.8012 -15.0493 45
      vertex 36.1915 -7.69273 45
    endloop
  endfacet
  facet normal -0 0 1
    outer loop
      vertex 31.9741 -14.2358 45
      vertex 33.8012 -15.0493 45
      vertex 34.2352 -7.27691 45
    endloop
  endfacet
  facet normal 0 0 1
    outer loop
      vertex 31.9741 -14.2358 45
      vertex 29.9336 -21.7481 45
      vertex 33.8012 -15.0493 45
    endloop
  endfacet
  facet normal -0 0 1
    outer loop
      vertex 28.3156 -20.5725 45
      vertex 29.9336 -21.7481 45
      vertex 31.9741 -14.2358 45
    endloop
  endfacet
  facet normal 0 0 1
    outer loop
      vertex 28.3156 -20.5725 45
      vertex 24.7578 -27.4964 45
      vertex 29.9336 -21.7481 45
    endloop
  endfacet
  facet normal -0 0 1
    outer loop
      vertex 23.4196 -26.0101 45
      vertex 24.7578 -27.4964 45
      vertex 28.3156 -20.5725 45
    endloop
  endfacet
  facet normal 0 0 1
    outer loop
      vertex 23.4196 -26.0101 45
      vertex 18.5 -32.0429 45
      vertex 24.7578 -27.4964 45
    endloop
  endfacet
  facet normal -0 0 1
    outer loop
      vertex 17.5 -30.3109 45
      vertex 18.5 -32.0429 45
      vertex 23.4196 -26.0101 45
    endloop
  endfacet
  facet normal 0 0 1
    outer loop
      vertex 17.5 -30.3109 45
      vertex 11.4336 -35.1891 45
      vertex 18.5 -32.0429 45
    endloop
  endfacet
  facet normal -0 0 1
    outer loop
      vertex 10.8156 -33.287 45
      vertex 11.4336 -35.1891 45
      vertex 17.5 -30.3109 45
    endloop
  endfacet
  facet normal 0 0 1
    outer loop
      vertex 10.8156 -33.287 45
      vertex 3.86755 -36.7973 45
      vertex 11.4336 -35.1891 45
    endloop
  endfacet
  facet normal -0 0 1
    outer loop
      vertex 3.6585 -34.8083 45
      vertex 3.86755 -36.7973 45
      vertex 10.8156 -33.287 45
    endloop
  endfacet
  facet normal -0 0 1
    outer loop
      vertex -3.6585 -34.8083 45
      vertex 3.86755 -36.7973 45
      vertex 3.6585 -34.8083 45
    endloop
  endfacet
  facet normal 0 0 1
    outer loop
      vertex -3.6585 -34.8083 45
      vertex -3.86755 -36.7973 45
      vertex 3.86755 -36.7973 45
    endloop
  endfacet
  facet normal 0 0 1
    outer loop
      vertex -10.8156 -33.287 45
      vertex -3.86755 -36.7973 45
      vertex -3.6585 -34.8083 45
    endloop
  endfacet
  facet normal 0 0 1
    outer loop
      vertex -10.8156 -33.287 45
      vertex -11.4336 -35.1891 45
      vertex -3.86755 -36.7973 45
    endloop
  endfacet
  facet normal 0 0 1
    outer loop
      vertex -17.5 -30.3109 45
      vertex -11.4336 -35.1891 45
      vertex -10.8156 -33.287 45
    endloop
  endfacet
  facet normal 0 0 1
    outer loop
      vertex -17.5 -30.3109 45
      vertex -18.5 -32.0429 45
      vertex -11.4336 -35.1891 45
    endloop
  endfacet
  facet normal 0 0 1
    outer loop
      vertex -23.4196 -26.0101 45
      vertex -18.5 -32.0429 45
      vertex -17.5 -30.3109 45
    endloop
  endfacet
  facet normal 0 0 1
    outer loop
      vertex -23.4196 -26.0101 45
      vertex -24.7578 -27.4964 45
      vertex -18.5 -32.0429 45
    endloop
  endfacet
  facet normal 0 0 1
    outer loop
      vertex -28.3156 -20.5725 45
      vertex -24.7578 -27.4964 45
      vertex -23.4196 -26.0101 45
    endloop
  endfacet
  facet normal 0 0 1
    outer loop
      vertex -28.3156 -20.5725 45
      vertex -29.9336 -21.7481 45
      vertex -24.7578 -27.4964 45
    endloop
  endfacet
  facet normal 0 0 1
    outer loop
      vertex -31.9741 -14.2358 45
      vertex -29.9336 -21.7481 45
      vertex -28.3156 -20.5725 45
    endloop
  endfacet
  facet normal 0 0 1
    outer loop
      vertex -31.9741 -14.2358 45
      vertex -33.8012 -15.0493 45
      vertex -29.9336 -21.7481 45
    endloop
  endfacet
  facet normal 0 0 1
    outer loop
      vertex -34.2352 -7.27691 45
      vertex -33.8012 -15.0493 45
      vertex -31.9741 -14.2358 45
    endloop
  endfacet
  facet normal 0 0 1
    outer loop
      vertex -36.1915 -7.69273 45
      vertex -34.2352 -7.27691 45
      vertex -35 0 45
    endloop
  endfacet
  facet normal 0 0 1
    outer loop
      vertex -37 0 45
      vertex -35 0 45
      vertex -36.1915 7.69273 45
    endloop
  endfacet
  facet normal 0 0 1
    outer loop
      vertex -34.2352 -7.27691 45
      vertex -36.1915 -7.69273 45
      vertex -33.8012 -15.0493 45
    endloop
  endfacet
  facet normal 0 0 1
    outer loop
      vertex -35 0 45
      vertex -37 0 45
      vertex -36.1915 -7.69273 45
    endloop
  endfacet
  facet normal -0.406737 0.913545 0
    outer loop
      vertex -11.4336 35.1891 0
      vertex -18.5 32.0429 45
      vertex -11.4336 35.1891 45
    endloop
  endfacet
  facet normal -0.406737 0.913545 0
    outer loop
      vertex -18.5 32.0429 45
      vertex -11.4336 35.1891 0
      vertex -18.5 32.0429 0
    endloop
  endfacet
  facet normal 0.994522 -0.104529 0
    outer loop
      vertex 36.1915 -7.69273 45
      vertex 37 0 0
      vertex 37 0 45
    endloop
  endfacet
  facet normal 0.994522 -0.104529 0
    outer loop
      vertex 37 0 0
      vertex 36.1915 -7.69273 45
      vertex 36.1915 -7.69273 0
    endloop
  endfacet
  facet normal -0.207912 -0.978148 0
    outer loop
      vertex -11.4336 -35.1891 0
      vertex -3.86755 -36.7973 45
      vertex -11.4336 -35.1891 45
    endloop
  endfacet
  facet normal -0.207912 -0.978148 -0
    outer loop
      vertex -3.86755 -36.7973 45
      vertex -11.4336 -35.1891 0
      vertex -3.86755 -36.7973 0
    endloop
  endfacet
  facet normal 0.207912 -0.978148 0
    outer loop
      vertex 3.86755 -36.7973 0
      vertex 11.4336 -35.1891 45
      vertex 3.86755 -36.7973 45
    endloop
  endfacet
  facet normal 0.207912 -0.978148 0
    outer loop
      vertex 11.4336 -35.1891 45
      vertex 3.86755 -36.7973 0
      vertex 11.4336 -35.1891 0
    endloop
  endfacet
  facet normal 0.743145 -0.669131 0
    outer loop
      vertex 24.7578 -27.4964 45
      vertex 29.9336 -21.7481 0
      vertex 29.9336 -21.7481 45
    endloop
  endfacet
  facet normal 0.743145 -0.669131 0
    outer loop
      vertex 29.9336 -21.7481 0
      vertex 24.7578 -27.4964 45
      vertex 24.7578 -27.4964 0
    endloop
  endfacet
  facet normal 0.951057 -0.309017 0
    outer loop
      vertex 33.8012 -15.0493 45
      vertex 36.1915 -7.69273 0
      vertex 36.1915 -7.69273 45
    endloop
  endfacet
  facet normal 0.951057 -0.309017 0
    outer loop
      vertex 36.1915 -7.69273 0
      vertex 33.8012 -15.0493 45
      vertex 33.8012 -15.0493 0
    endloop
  endfacet
  facet normal 0.866025 -0.5 0
    outer loop
      vertex 29.9336 -21.7481 45
      vertex 33.8012 -15.0493 0
      vertex 33.8012 -15.0493 45
    endloop
  endfacet
  facet normal 0.866025 -0.5 0
    outer loop
      vertex 33.8012 -15.0493 0
      vertex 29.9336 -21.7481 45
      vertex 29.9336 -21.7481 0
    endloop
  endfacet
  facet normal -0.866025 -0.5 0
    outer loop
      vertex -29.9336 -21.7481 0
      vertex -33.8012 -15.0493 45
      vertex -33.8012 -15.0493 0
    endloop
  endfacet
  facet normal -0.866025 -0.5 0
    outer loop
      vertex -33.8012 -15.0493 45
      vertex -29.9336 -21.7481 0
      vertex -29.9336 -21.7481 45
    endloop
  endfacet
  facet normal -0.994522 -0.104529 0
    outer loop
      vertex -36.1915 -7.69273 0
      vertex -37 0 45
      vertex -37 0 0
    endloop
  endfacet
  facet normal -0.994522 -0.104529 0
    outer loop
      vertex -37 0 45
      vertex -36.1915 -7.69273 0
      vertex -36.1915 -7.69273 45
    endloop
  endfacet
  facet normal -0.951057 -0.309017 0
    outer loop
      vertex -33.8012 -15.0493 0
      vertex -36.1915 -7.69273 45
      vertex -36.1915 -7.69273 0
    endloop
  endfacet
  facet normal -0.951057 -0.309017 0
    outer loop
      vertex -36.1915 -7.69273 45
      vertex -33.8012 -15.0493 0
      vertex -33.8012 -15.0493 45
    endloop
  endfacet
  facet normal 0.587785 -0.809017 0
    outer loop
      vertex 18.5 -32.0429 0
      vertex 24.7578 -27.4964 45
      vertex 18.5 -32.0429 45
    endloop
  endfacet
  facet normal 0.587785 -0.809017 0
    outer loop
      vertex 24.7578 -27.4964 45
      vertex 18.5 -32.0429 0
      vertex 24.7578 -27.4964 0
    endloop
  endfacet
  facet normal 0.406737 -0.913545 0
    outer loop
      vertex 11.4336 -35.1891 0
      vertex 18.5 -32.0429 45
      vertex 11.4336 -35.1891 45
    endloop
  endfacet
  facet normal 0.406737 -0.913545 0
    outer loop
      vertex 18.5 -32.0429 45
      vertex 11.4336 -35.1891 0
      vertex 18.5 -32.0429 0
    endloop
  endfacet
  facet normal 0 -1 0
    outer loop
      vertex -3.86755 -36.7973 0
      vertex 3.86755 -36.7973 45
      vertex -3.86755 -36.7973 45
    endloop
  endfacet
  facet normal 0 -1 -0
    outer loop
      vertex 3.86755 -36.7973 45
      vertex -3.86755 -36.7973 0
      vertex 3.86755 -36.7973 0
    endloop
  endfacet
  facet normal -0.587785 -0.809017 0
    outer loop
      vertex -24.7578 -27.4964 0
      vertex -18.5 -32.0429 45
      vertex -24.7578 -27.4964 45
    endloop
  endfacet
  facet normal -0.587785 -0.809017 -0
    outer loop
      vertex -18.5 -32.0429 45
      vertex -24.7578 -27.4964 0
      vertex -18.5 -32.0429 0
    endloop
  endfacet
  facet normal -0.406737 -0.913545 0
    outer loop
      vertex -18.5 -32.0429 0
      vertex -11.4336 -35.1891 45
      vertex -18.5 -32.0429 45
    endloop
  endfacet
  facet normal -0.406737 -0.913545 -0
    outer loop
      vertex -11.4336 -35.1891 45
      vertex -18.5 -32.0429 0
      vertex -11.4336 -35.1891 0
    endloop
  endfacet
  facet normal -0.743145 -0.669131 0
    outer loop
      vertex -24.7578 -27.4964 0
      vertex -29.9336 -21.7481 45
      vertex -29.9336 -21.7481 0
    endloop
  endfacet
  facet normal -0.743145 -0.669131 0
    outer loop
      vertex -29.9336 -21.7481 45
      vertex -24.7578 -27.4964 0
      vertex -24.7578 -27.4964 45
    endloop
  endfacet
  facet normal -0.866025 -0.5 0
    outer loop
      vertex 31.9741 14.2358 2
      vertex 28.3156 20.5725 45
      vertex 28.3156 20.5725 2
    endloop
  endfacet
  facet normal -0.866025 -0.5 0
    outer loop
      vertex 28.3156 20.5725 45
      vertex 31.9741 14.2358 2
      vertex 31.9741 14.2358 45
    endloop
  endfacet
  facet normal 0.994522 -0.104529 0
    outer loop
      vertex -35 0 45
      vertex -34.2352 7.27691 2
      vertex -34.2352 7.27691 45
    endloop
  endfacet
  facet normal 0.994522 -0.104529 0
    outer loop
      vertex -34.2352 7.27691 2
      vertex -35 0 45
      vertex -35 0 2
    endloop
  endfacet
  facet normal -0.743145 -0.669131 0
    outer loop
      vertex 28.3156 20.5725 2
      vertex 23.4196 26.0101 45
      vertex 23.4196 26.0101 2
    endloop
  endfacet
  facet normal -0.743145 -0.669131 0
    outer loop
      vertex 23.4196 26.0101 45
      vertex 28.3156 20.5725 2
      vertex 28.3156 20.5725 45
    endloop
  endfacet
  facet normal 0.406737 -0.913545 0
    outer loop
      vertex -17.5 30.3109 2
      vertex -10.8156 33.287 45
      vertex -17.5 30.3109 45
    endloop
  endfacet
  facet normal 0.406737 -0.913545 0
    outer loop
      vertex -10.8156 33.287 45
      vertex -17.5 30.3109 2
      vertex -10.8156 33.287 2
    endloop
  endfacet
  facet normal 0.951057 -0.309017 0
    outer loop
      vertex -34.2352 7.27691 45
      vertex -31.9741 14.2358 2
      vertex -31.9741 14.2358 45
    endloop
  endfacet
  facet normal 0.951057 -0.309017 0
    outer loop
      vertex -31.9741 14.2358 2
      vertex -34.2352 7.27691 45
      vertex -34.2352 7.27691 2
    endloop
  endfacet
  facet normal -0.994522 0.104529 0
    outer loop
      vertex 34.2352 -7.27691 2
      vertex 35 0 45
      vertex 35 0 2
    endloop
  endfacet
  facet normal -0.994522 0.104529 0
    outer loop
      vertex 35 0 45
      vertex 34.2352 -7.27691 2
      vertex 34.2352 -7.27691 45
    endloop
  endfacet
  facet normal -0.587785 -0.809017 0
    outer loop
      vertex 17.5 30.3109 2
      vertex 23.4196 26.0101 45
      vertex 17.5 30.3109 45
    endloop
  endfacet
  facet normal -0.587785 -0.809017 -0
    outer loop
      vertex 23.4196 26.0101 45
      vertex 17.5 30.3109 2
      vertex 23.4196 26.0101 2
    endloop
  endfacet
  facet normal 0 -1 0
    outer loop
      vertex -3.6585 34.8083 2
      vertex 3.6585 34.8083 45
      vertex -3.6585 34.8083 45
    endloop
  endfacet
  facet normal 0 -1 -0
    outer loop
      vertex 3.6585 34.8083 45
      vertex -3.6585 34.8083 2
      vertex 3.6585 34.8083 2
    endloop
  endfacet
  facet normal -0.406737 -0.913545 0
    outer loop
      vertex 10.8156 33.287 2
      vertex 17.5 30.3109 45
      vertex 10.8156 33.287 45
    endloop
  endfacet
  facet normal -0.406737 -0.913545 -0
    outer loop
      vertex 17.5 30.3109 45
      vertex 10.8156 33.287 2
      vertex 17.5 30.3109 2
    endloop
  endfacet
  facet normal 0.866025 -0.5 0
    outer loop
      vertex -31.9741 14.2358 45
      vertex -28.3156 20.5725 2
      vertex -28.3156 20.5725 45
    endloop
  endfacet
  facet normal 0.866025 -0.5 0
    outer loop
      vertex -28.3156 20.5725 2
      vertex -31.9741 14.2358 45
      vertex -31.9741 14.2358 2
    endloop
  endfacet
  facet normal 0.587785 -0.809017 0
    outer loop
      vertex -23.4196 26.0101 2
      vertex -17.5 30.3109 45
      vertex -23.4196 26.0101 45
    endloop
  endfacet
  facet normal 0.587785 -0.809017 0
    outer loop
      vertex -17.5 30.3109 45
      vertex -23.4196 26.0101 2
      vertex -17.5 30.3109 2
    endloop
  endfacet
  facet normal 0.207911 -0.978148 0
    outer loop
      vertex -10.8156 33.287 2
      vertex -3.6585 34.8083 45
      vertex -10.8156 33.287 45
    endloop
  endfacet
  facet normal 0.207911 -0.978148 0
    outer loop
      vertex -3.6585 34.8083 45
      vertex -10.8156 33.287 2
      vertex -3.6585 34.8083 2
    endloop
  endfacet
  facet normal 0.743145 -0.669131 0
    outer loop
      vertex -28.3156 20.5725 45
      vertex -23.4196 26.0101 2
      vertex -23.4196 26.0101 45
    endloop
  endfacet
  facet normal 0.743145 -0.669131 0
    outer loop
      vertex -23.4196 26.0101 2
      vertex -28.3156 20.5725 45
      vertex -28.3156 20.5725 2
    endloop
  endfacet
  facet normal -0.994522 -0.104529 0
    outer loop
      vertex 35 0 2
      vertex 34.2352 7.27691 45
      vertex 34.2352 7.27691 2
    endloop
  endfacet
  facet normal -0.994522 -0.104529 0
    outer loop
      vertex 34.2352 7.27691 45
      vertex 35 0 2
      vertex 35 0 45
    endloop
  endfacet
  facet normal 0.994522 0.104529 0
    outer loop
      vertex -34.2352 -7.27691 45
      vertex -35 0 2
      vertex -35 0 45
    endloop
  endfacet
  facet normal 0.994522 0.104529 0
    outer loop
      vertex -35 0 2
      vertex -34.2352 -7.27691 45
      vertex -34.2352 -7.27691 2
    endloop
  endfacet
  facet normal -0.587785 0.809017 0
    outer loop
      vertex 23.4196 -26.0101 2
      vertex 17.5 -30.3109 45
      vertex 23.4196 -26.0101 45
    endloop
  endfacet
  facet normal -0.587785 0.809017 0
    outer loop
      vertex 17.5 -30.3109 45
      vertex 23.4196 -26.0101 2
      vertex 17.5 -30.3109 2
    endloop
  endfacet
  facet normal -0.951057 -0.309017 0
    outer loop
      vertex 34.2352 7.27691 2
      vertex 31.9741 14.2358 45
      vertex 31.9741 14.2358 2
    endloop
  endfacet
  facet normal -0.951057 -0.309017 0
    outer loop
      vertex 31.9741 14.2358 45
      vertex 34.2352 7.27691 2
      vertex 34.2352 7.27691 45
    endloop
  endfacet
  facet normal -0.207911 -0.978148 0
    outer loop
      vertex 3.6585 34.8083 2
      vertex 10.8156 33.287 45
      vertex 3.6585 34.8083 45
    endloop
  endfacet
  facet normal -0.207911 -0.978148 -0
    outer loop
      vertex 10.8156 33.287 45
      vertex 3.6585 34.8083 2
      vertex 10.8156 33.287 2
    endloop
  endfacet
  facet normal -0.866025 0.5 0
    outer loop
      vertex 28.3156 -20.5725 2
      vertex 31.9741 -14.2358 45
      vertex 31.9741 -14.2358 2
    endloop
  endfacet
  facet normal -0.866025 0.5 0
    outer loop
      vertex 31.9741 -14.2358 45
      vertex 28.3156 -20.5725 2
      vertex 28.3156 -20.5725 45
    endloop
  endfacet
  facet normal -0.207911 0.978148 0
    outer loop
      vertex 10.8156 -33.287 2
      vertex 3.6585 -34.8083 45
      vertex 10.8156 -33.287 45
    endloop
  endfacet
  facet normal -0.207911 0.978148 0
    outer loop
      vertex 3.6585 -34.8083 45
      vertex 10.8156 -33.287 2
      vertex 3.6585 -34.8083 2
    endloop
  endfacet
  facet normal -0.406737 0.913545 0
    outer loop
      vertex 17.5 -30.3109 2
      vertex 10.8156 -33.287 45
      vertex 17.5 -30.3109 45
    endloop
  endfacet
  facet normal -0.406737 0.913545 0
    outer loop
      vertex 10.8156 -33.287 45
      vertex 17.5 -30.3109 2
      vertex 10.8156 -33.287 2
    endloop
  endfacet
  facet normal -0.951057 0.309017 0
    outer loop
      vertex 31.9741 -14.2358 2
      vertex 34.2352 -7.27691 45
      vertex 34.2352 -7.27691 2
    endloop
  endfacet
  facet normal -0.951057 0.309017 0
    outer loop
      vertex 34.2352 -7.27691 45
      vertex 31.9741 -14.2358 2
      vertex 31.9741 -14.2358 45
    endloop
  endfacet
  facet normal 0.866025 0.5 0
    outer loop
      vertex -28.3156 -20.5725 45
      vertex -31.9741 -14.2358 2
      vertex -31.9741 -14.2358 45
    endloop
  endfacet
  facet normal 0.866025 0.5 0
    outer loop
      vertex -31.9741 -14.2358 2
      vertex -28.3156 -20.5725 45
      vertex -28.3156 -20.5725 2
    endloop
  endfacet
  facet normal 0 0 1
    outer loop
      vertex 34.2352 7.27691 2
      vertex 34.2352 -7.27691 2
      vertex 35 0 2
    endloop
  endfacet
  facet normal 0 0 1
    outer loop
      vertex 31.9741 14.2358 2
      vertex 34.2352 -7.27691 2
      vertex 34.2352 7.27691 2
    endloop
  endfacet
  facet normal 0 0 1
    outer loop
      vertex 31.9741 14.2358 2
      vertex 31.9741 -14.2358 2
      vertex 34.2352 -7.27691 2
    endloop
  endfacet
  facet normal 0 0 1
    outer loop
      vertex 28.3156 20.5725 2
      vertex 31.9741 -14.2358 2
      vertex 31.9741 14.2358 2
    endloop
  endfacet
  facet normal 0 0 1
    outer loop
      vertex 28.3156 20.5725 2
      vertex 28.3156 -20.5725 2
      vertex 31.9741 -14.2358 2
    endloop
  endfacet
  facet normal 0 0 1
    outer loop
      vertex 23.4196 26.0101 2
      vertex 28.3156 -20.5725 2
      vertex 28.3156 20.5725 2
    endloop
  endfacet
  facet normal 0 0 1
    outer loop
      vertex 23.4196 26.0101 2
      vertex 23.4196 -26.0101 2
      vertex 28.3156 -20.5725 2
    endloop
  endfacet
  facet normal 0 0 1
    outer loop
      vertex 17.5 30.3109 2
      vertex 23.4196 -26.0101 2
      vertex 23.4196 26.0101 2
    endloop
  endfacet
  facet normal 0 0 1
    outer loop
      vertex 17.5 30.3109 2
      vertex 17.5 -30.3109 2
      vertex 23.4196 -26.0101 2
    endloop
  endfacet
  facet normal 0 0 1
    outer loop
      vertex 10.8156 33.287 2
      vertex 17.5 -30.3109 2
      vertex 17.5 30.3109 2
    endloop
  endfacet
  facet normal 0 0 1
    outer loop
      vertex 10.8156 33.287 2
      vertex 10.8156 -33.287 2
      vertex 17.5 -30.3109 2
    endloop
  endfacet
  facet normal 0 0 1
    outer loop
      vertex 3.6585 34.8083 2
      vertex 10.8156 -33.287 2
      vertex 10.8156 33.287 2
    endloop
  endfacet
  facet normal 0 0 1
    outer loop
      vertex 3.6585 34.8083 2
      vertex 3.6585 -34.8083 2
      vertex 10.8156 -33.287 2
    endloop
  endfacet
  facet normal -0 0 1
    outer loop
      vertex -3.6585 34.8083 2
      vertex 3.6585 -34.8083 2
      vertex 3.6585 34.8083 2
    endloop
  endfacet
  facet normal 0 0 1
    outer loop
      vertex -3.6585 34.8083 2
      vertex -3.6585 -34.8083 2
      vertex 3.6585 -34.8083 2
    endloop
  endfacet
  facet normal -0 0 1
    outer loop
      vertex -10.8156 33.287 2
      vertex -3.6585 -34.8083 2
      vertex -3.6585 34.8083 2
    endloop
  endfacet
  facet normal 0 0 1
    outer loop
      vertex -10.8156 33.287 2
      vertex -10.8156 -33.287 2
      vertex -3.6585 -34.8083 2
    endloop
  endfacet
  facet normal -0 0 1
    outer loop
      vertex -17.5 30.3109 2
      vertex -10.8156 -33.287 2
      vertex -10.8156 33.287 2
    endloop
  endfacet
  facet normal 0 0 1
    outer loop
      vertex -17.5 30.3109 2
      vertex -17.5 -30.3109 2
      vertex -10.8156 -33.287 2
    endloop
  endfacet
  facet normal -0 0 1
    outer loop
      vertex -23.4196 26.0101 2
      vertex -17.5 -30.3109 2
      vertex -17.5 30.3109 2
    endloop
  endfacet
  facet normal 0 0 1
    outer loop
      vertex -23.4196 26.0101 2
      vertex -23.4196 -26.0101 2
      vertex -17.5 -30.3109 2
    endloop
  endfacet
  facet normal -0 0 1
    outer loop
      vertex -28.3156 20.5725 2
      vertex -23.4196 -26.0101 2
      vertex -23.4196 26.0101 2
    endloop
  endfacet
  facet normal 0 0 1
    outer loop
      vertex -28.3156 20.5725 2
      vertex -28.3156 -20.5725 2
      vertex -23.4196 -26.0101 2
    endloop
  endfacet
  facet normal -0 0 1
    outer loop
      vertex -31.9741 14.2358 2
      vertex -28.3156 -20.5725 2
      vertex -28.3156 20.5725 2
    endloop
  endfacet
  facet normal 0 0 1
    outer loop
      vertex -31.9741 14.2358 2
      vertex -31.9741 -14.2358 2
      vertex -28.3156 -20.5725 2
    endloop
  endfacet
  facet normal -0 0 1
    outer loop
      vertex -34.2352 7.27691 2
      vertex -31.9741 -14.2358 2
      vertex -31.9741 14.2358 2
    endloop
  endfacet
  facet normal 0 0 1
    outer loop
      vertex -34.2352 7.27691 2
      vertex -34.2352 -7.27691 2
      vertex -31.9741 -14.2358 2
    endloop
  endfacet
  facet normal 0 -0 1
    outer loop
      vertex -34.2352 -7.27691 2
      vertex -34.2352 7.27691 2
      vertex -35 0 2
    endloop
  endfacet
  facet normal 0.951057 0.309017 0
    outer loop
      vertex -31.9741 -14.2358 45
      vertex -34.2352 -7.27691 2
      vertex -34.2352 -7.27691 45
    endloop
  endfacet
  facet normal 0.951057 0.309017 0
    outer loop
      vertex -34.2352 -7.27691 2
      vertex -31.9741 -14.2358 45
      vertex -31.9741 -14.2358 2
    endloop
  endfacet
  facet normal 0.743145 0.669131 0
    outer loop
      vertex -23.4196 -26.0101 45
      vertex -28.3156 -20.5725 2
      vertex -28.3156 -20.5725 45
    endloop
  endfacet
  facet normal 0.743145 0.669131 0
    outer loop
      vertex -28.3156 -20.5725 2
      vertex -23.4196 -26.0101 45
      vertex -23.4196 -26.0101 2
    endloop
  endfacet
  facet normal 0.207911 0.978148 -0
    outer loop
      vertex -3.6585 -34.8083 2
      vertex -10.8156 -33.287 45
      vertex -3.6585 -34.8083 45
    endloop
  endfacet
  facet normal 0.207911 0.978148 0
    outer loop
      vertex -10.8156 -33.287 45
      vertex -3.6585 -34.8083 2
      vertex -10.8156 -33.287 2
    endloop
  endfacet
  facet normal 0 1 -0
    outer loop
      vertex 3.6585 -34.8083 2
      vertex -3.6585 -34.8083 45
      vertex 3.6585 -34.8083 45
    endloop
  endfacet
  facet normal 0 1 0
    outer loop
      vertex -3.6585 -34.8083 45
      vertex 3.6585 -34.8083 2
      vertex -3.6585 -34.8083 2
    endloop
  endfacet
  facet normal -0.743145 0.669131 0
    outer loop
      vertex 23.4196 -26.0101 2
      vertex 28.3156 -20.5725 45
      vertex 28.3156 -20.5725 2
    endloop
  endfacet
  facet normal -0.743145 0.669131 0
    outer loop
      vertex 28.3156 -20.5725 45
      vertex 23.4196 -26.0101 2
      vertex 23.4196 -26.0101 45
    endloop
  endfacet
  facet normal 0.406737 0.913545 -0
    outer loop
      vertex -10.8156 -33.287 2
      vertex -17.5 -30.3109 45
      vertex -10.8156 -33.287 45
    endloop
  endfacet
  facet normal 0.406737 0.913545 0
    outer loop
      vertex -17.5 -30.3109 45
      vertex -10.8156 -33.287 2
      vertex -17.5 -30.3109 2
    endloop
  endfacet
  facet normal 0.587785 0.809017 -0
    outer loop
      vertex -17.5 -30.3109 2
      vertex -23.4196 -26.0101 45
      vertex -17.5 -30.3109 45
    endloop
  endfacet
  facet normal 0.587785 0.809017 0
    outer loop
      vertex -23.4196 -26.0101 45
      vertex -17.5 -30.3109 2
      vertex -23.4196 -26.0101 2
    endloop
  endfacet
endsolid OpenSCAD_Model
