solid OpenSCAD_Model
  facet normal -0.83205 3.39645e-017 0.5547
    outer loop
      vertex -8.1 3 13
      vertex -10.1 3 10
      vertex -8.1 -3 13
    endloop
  endfacet
  facet normal -0.83205 3.39645e-017 0.5547
    outer loop
      vertex -8.1 -3 13
      vertex -10.1 3 10
      vertex -10.1 -3 10
    endloop
  endfacet
  facet normal -4.39493e-017 -1 2.92995e-017
    outer loop
      vertex -10.0309 -3 9.90489
      vertex -8.0309 -3 12.9049
      vertex -8.1 -3 13
    endloop
  endfacet
  facet normal -4.39493e-017 -1 2.92995e-017
    outer loop
      vertex -10.1 -3 10
      vertex -10.0309 -3 9.90489
      vertex -8.1 -3 13
    endloop
  endfacet
  facet normal -0.809019 -3.59901e-017 -0.587782
    outer loop
      vertex -10.0309 3 9.90489
      vertex -10.0309 -3 9.90489
      vertex -10.1 3 10
    endloop
  endfacet
  facet normal -0.809019 -3.59901e-017 -0.587782
    outer loop
      vertex -10.1 3 10
      vertex -10.0309 -3 9.90489
      vertex -10.1 -3 10
    endloop
  endfacet
  facet normal -0.809019 3.59901e-017 0.587782
    outer loop
      vertex -8.0309 3 13.0951
      vertex -8.1 3 13
      vertex -8.0309 -3 13.0951
    endloop
  endfacet
  facet normal -0.809019 3.59901e-017 0.587782
    outer loop
      vertex -8.0309 -3 13.0951
      vertex -8.1 3 13
      vertex -8.1 -3 13
    endloop
  endfacet
  facet normal 0 -1 6.12303e-017
    outer loop
      vertex -8.0309 -3 12.9049
      vertex -7.9191 -3 12.9412
      vertex -7.9191 -3 13.0588
    endloop
  endfacet
  facet normal 0 -1 6.12303e-017
    outer loop
      vertex -8.1 -3 13
      vertex -8.0309 -3 12.9049
      vertex -8.0309 -3 13.0951
    endloop
  endfacet
  facet normal 0 -1 6.12303e-017
    outer loop
      vertex -8.0309 -3 13.0951
      vertex -8.0309 -3 12.9049
      vertex -7.9191 -3 13.0588
    endloop
  endfacet
  facet normal 0 1 -6.12303e-017
    outer loop
      vertex -8.0309 3 10.0951
      vertex -7.9191 3 10.0588
      vertex -10.0309 3 10.0951
    endloop
  endfacet
  facet normal 0 1 -6.12303e-017
    outer loop
      vertex -10.0309 3 10.0951
      vertex -7.9191 3 10.0588
      vertex -7.9191 3 10
    endloop
  endfacet
  facet normal 0 1 -6.12303e-017
    outer loop
      vertex -10.0309 3 10.0951
      vertex -7.9191 3 10
      vertex -8 3 10
    endloop
  endfacet
  facet normal 0 1 -6.12303e-017
    outer loop
      vertex -10.0309 3 10.0951
      vertex -8 3 10
      vertex -8 3 9.91493
    endloop
  endfacet
  facet normal 0 1 -6.12303e-017
    outer loop
      vertex -10.0309 3 10.0951
      vertex -8 3 9.91493
      vertex -8.0309 3 9.90489
    endloop
  endfacet
  facet normal 0 1 -6.12303e-017
    outer loop
      vertex -10.0309 3 10.0951
      vertex -8.0309 3 9.90489
      vertex -10.0309 3 9.90489
    endloop
  endfacet
  facet normal 0 1 -6.12303e-017
    outer loop
      vertex -10.0309 3 10.0951
      vertex -10.0309 3 9.90489
      vertex -10.1 3 10
    endloop
  endfacet
  facet normal -1.02272e-015 1 6.81814e-016
    outer loop
      vertex -8.0309 3 13.0951
      vertex -10.0309 3 10.0951
      vertex -8.1 3 13
    endloop
  endfacet
  facet normal -1.02272e-015 1 6.81814e-016
    outer loop
      vertex -8.1 3 13
      vertex -10.0309 3 10.0951
      vertex -10.1 3 10
    endloop
  endfacet
  facet normal 0 -1 0
    outer loop
      vertex -8.0309 -3 9.90489
      vertex -8.0309 -3 12.9049
      vertex -10.0309 -3 9.90489
    endloop
  endfacet
  facet normal 0 -6.12303e-017 -1
    outer loop
      vertex -8.0309 3 9.90489
      vertex -8.0309 -3 9.90489
      vertex -10.0309 3 9.90489
    endloop
  endfacet
  facet normal 0 -6.12303e-017 -1
    outer loop
      vertex -10.0309 3 9.90489
      vertex -8.0309 -3 9.90489
      vertex -10.0309 -3 9.90489
    endloop
  endfacet
  facet normal 1.98948e-017 -1 0
    outer loop
      vertex -7.9191 -3 9.94122
      vertex -7.9191 -3 12.9412
      vertex -8.0309 -3 12.9049
    endloop
  endfacet
  facet normal 1.98948e-017 -1 0
    outer loop
      vertex -8.0309 -3 9.90489
      vertex -7.9191 -3 9.94122
      vertex -8.0309 -3 12.9049
    endloop
  endfacet
  facet normal 0.309015 5.82335e-017 0.951057
    outer loop
      vertex -7.9191 -3 13.0588
      vertex -7.9191 3 13.0588
      vertex -8.0309 3 13.0951
    endloop
  endfacet
  facet normal 0.309015 5.82335e-017 0.951057
    outer loop
      vertex -8.0309 -3 13.0951
      vertex -7.9191 -3 13.0588
      vertex -8.0309 3 13.0951
    endloop
  endfacet
  facet normal 0 1 0
    outer loop
      vertex -8.0309 3 13.0951
      vertex -8.0309 3 10.0951
      vertex -10.0309 3 10.0951
    endloop
  endfacet
  facet normal 1.98948e-017 1 0
    outer loop
      vertex -7.9191 3 13.0588
      vertex -7.9191 3 10.0588
      vertex -8.0309 3 13.0951
    endloop
  endfacet
  facet normal 1.98948e-017 1 0
    outer loop
      vertex -8.0309 3 13.0951
      vertex -7.9191 3 10.0588
      vertex -8.0309 3 10.0951
    endloop
  endfacet
  facet normal 1 0 0
    outer loop
      vertex -7.9191 3 13.0588
      vertex -7.9191 -3 13
      vertex -7.9191 3 13
    endloop
  endfacet
  facet normal 1 0 0
    outer loop
      vertex -7.9191 -3 9.94122
      vertex -7.9191 -3 13
      vertex -7.9191 -3 12.9412
    endloop
  endfacet
  facet normal 1 0 0
    outer loop
      vertex -7.9191 3 10
      vertex -7.9191 3 10.0588
      vertex -7.9191 3 13
    endloop
  endfacet
  facet normal 1 0 0
    outer loop
      vertex -7.9191 3 10.0588
      vertex -7.9191 3 13.0588
      vertex -7.9191 3 13
    endloop
  endfacet
  facet normal 1 0 0
    outer loop
      vertex -7.9191 3 13.0588
      vertex -7.9191 -3 13.0588
      vertex -7.9191 -3 13
    endloop
  endfacet
  facet normal 1 0 0
    outer loop
      vertex -7.9191 -3 13.0588
      vertex -7.9191 -3 12.9412
      vertex -7.9191 -3 13
    endloop
  endfacet
  facet normal 0.309015 -5.82335e-017 -0.951057
    outer loop
      vertex -8 3 9.91493
      vertex -8 -3 9.91493
      vertex -8.0309 3 9.90489
    endloop
  endfacet
  facet normal 0.309015 -5.82335e-017 -0.951057
    outer loop
      vertex -8.0309 -3 9.90489
      vertex -8 -3 9.91493
      vertex -7.9191 -3 9.94122
    endloop
  endfacet
  facet normal 0.309015 -5.82335e-017 -0.951057
    outer loop
      vertex -8.0309 3 9.90489
      vertex -8 -3 9.91493
      vertex -8.0309 -3 9.90489
    endloop
  endfacet
  facet normal -1 0 0
    outer loop
      vertex -8 3 9.91493
      vertex -8 3 10
      vertex -8 3 0
    endloop
  endfacet
  facet normal -1 0 0
    outer loop
      vertex -8 3 9.91493
      vertex -8 3 0
      vertex -8 -3 9.91493
    endloop
  endfacet
  facet normal -1 0 0
    outer loop
      vertex -8 3 0
      vertex -8 -3 0
      vertex -8 -3 9.91493
    endloop
  endfacet
  facet normal 0 1 0
    outer loop
      vertex -7.9191 3 10
      vertex -7.9191 3 13
      vertex -6 3 13
    endloop
  endfacet
  facet normal 0 1 0
    outer loop
      vertex -7.9191 3 10
      vertex -6 3 13
      vertex -6 3 0
    endloop
  endfacet
  facet normal 0 1 0
    outer loop
      vertex -7.9191 3 10
      vertex -6 3 0
      vertex -8 3 10
    endloop
  endfacet
  facet normal 0 1 0
    outer loop
      vertex -6 3 0
      vertex -8 3 0
      vertex -8 3 10
    endloop
  endfacet
  facet normal 0 -1 0
    outer loop
      vertex -6 -3 0
      vertex -6 -3 13
      vertex -7.9191 -3 13
    endloop
  endfacet
  facet normal 0 -1 0
    outer loop
      vertex -8 -3 9.91493
      vertex -6 -3 0
      vertex -7.9191 -3 9.94122
    endloop
  endfacet
  facet normal 0 -1 0
    outer loop
      vertex -7.9191 -3 9.94122
      vertex -6 -3 0
      vertex -7.9191 -3 13
    endloop
  endfacet
  facet normal 0 -1 0
    outer loop
      vertex -8 -3 0
      vertex -6 -3 0
      vertex -8 -3 9.91493
    endloop
  endfacet
  facet normal 0 0 1
    outer loop
      vertex -6 -3 13
      vertex -6 3 13
      vertex -7.9191 3 13
    endloop
  endfacet
  facet normal 0 0 1
    outer loop
      vertex -7.9191 -3 13
      vertex -6 -3 13
      vertex -7.9191 3 13
    endloop
  endfacet
  facet normal 0 0 1
    outer loop
      vertex -9.78148 2.07912 0
      vertex -10 0 0
      vertex -9.78148 -2.07912 0
    endloop
  endfacet
  facet normal 0 0 1
    outer loop
      vertex -8.09017 -5.87785 0
      vertex -9.78148 2.07912 0
      vertex -9.13546 -4.06737 0
    endloop
  endfacet
  facet normal 0 0 1
    outer loop
      vertex -9.13546 -4.06737 0
      vertex -9.78148 2.07912 0
      vertex -9.78148 -2.07912 0
    endloop
  endfacet
  facet normal 0 0 1
    outer loop
      vertex -6.69131 -7.43145 0
      vertex -9.78148 2.07912 0
      vertex -8.09017 -5.87785 0
    endloop
  endfacet
  facet normal 0 0 1
    outer loop
      vertex -8 -3 0
      vertex -9.78148 2.07912 0
      vertex -6.69131 -7.43145 0
    endloop
  endfacet
  facet normal 0 0 1
    outer loop
      vertex -8 3 0
      vertex -1.91342 4.6194 0
      vertex 6.69131 7.43145 0
    endloop
  endfacet
  facet normal 0 0 1
    outer loop
      vertex -8 3 0
      vertex -6 3 0
      vertex -1.91342 4.6194 0
    endloop
  endfacet
  facet normal 0 0 1
    outer loop
      vertex -3.53553 3.53553 0
      vertex -1.91342 4.6194 0
      vertex -6 3 0
    endloop
  endfacet
  facet normal 0 0 1
    outer loop
      vertex -4.6194 -1.91342 0
      vertex -6 -3 0
      vertex -3.53553 -3.53553 0
    endloop
  endfacet
  facet normal 0 0 1
    outer loop
      vertex -6 3 0
      vertex -5 0 0
      vertex -4.6194 1.91342 0
    endloop
  endfacet
  facet normal 0 0 1
    outer loop
      vertex 6 -3 0
      vertex 4.6194 1.91342 0
      vertex 5 0 0
    endloop
  endfacet
  facet normal 0 0 1
    outer loop
      vertex 1.04529 9.94522 0
      vertex -9.78148 2.07912 0
      vertex 3.09017 9.51056 0
    endloop
  endfacet
  facet normal 0 0 1
    outer loop
      vertex -1.04529 9.94522 0
      vertex -9.78148 2.07912 0
      vertex 1.04529 9.94522 0
    endloop
  endfacet
  facet normal 0 0 1
    outer loop
      vertex -3.09017 9.51056 0
      vertex -9.78148 2.07912 0
      vertex -1.04529 9.94522 0
    endloop
  endfacet
  facet normal 0 0 1
    outer loop
      vertex -5 8.66025 0
      vertex -9.78148 2.07912 0
      vertex -3.09017 9.51056 0
    endloop
  endfacet
  facet normal 0 0 1
    outer loop
      vertex -6.69131 7.43145 0
      vertex -9.78148 2.07912 0
      vertex -5 8.66025 0
    endloop
  endfacet
  facet normal 0 0 1
    outer loop
      vertex -8.09017 5.87785 0
      vertex -9.78148 2.07912 0
      vertex -6.69131 7.43145 0
    endloop
  endfacet
  facet normal 0 0 1
    outer loop
      vertex -9.13546 4.06737 0
      vertex -9.78148 2.07912 0
      vertex -8.09017 5.87785 0
    endloop
  endfacet
  facet normal 0 0 1
    outer loop
      vertex -5 -8.66025 0
      vertex -8 -3 0
      vertex -6.69131 -7.43145 0
    endloop
  endfacet
  facet normal 0 0 1
    outer loop
      vertex -8 3 0
      vertex 6.69131 7.43145 0
      vertex 5 8.66025 0
    endloop
  endfacet
  facet normal 0 0 1
    outer loop
      vertex 3.09017 9.51056 0
      vertex -8 3 0
      vertex 5 8.66025 0
    endloop
  endfacet
  facet normal 0 0 1
    outer loop
      vertex 3.09017 9.51056 0
      vertex -9.78148 2.07912 0
      vertex -8 3 0
    endloop
  endfacet
  facet normal 0 0 1
    outer loop
      vertex 0 -5 0
      vertex -1.91342 -4.6194 0
      vertex 3.09017 -9.51056 0
    endloop
  endfacet
  facet normal 0 0 1
    outer loop
      vertex 1.04529 -9.94522 0
      vertex -6 -3 0
      vertex -1.04529 -9.94522 0
    endloop
  endfacet
  facet normal 0 0 1
    outer loop
      vertex 8 -3 0
      vertex 6 -3 0
      vertex 9.13546 -4.06737 0
    endloop
  endfacet
  facet normal 0 0 1
    outer loop
      vertex 0 -5 0
      vertex 3.09017 -9.51056 0
      vertex 5 -8.66025 0
    endloop
  endfacet
  facet normal 0 0 1
    outer loop
      vertex 0 5 0
      vertex 1.91342 4.6194 0
      vertex 8.09017 5.87785 0
    endloop
  endfacet
  facet normal 0 0 1
    outer loop
      vertex 0 5 0
      vertex 8.09017 5.87785 0
      vertex 6.69131 7.43145 0
    endloop
  endfacet
  facet normal 0 0 1
    outer loop
      vertex -1.91342 4.6194 0
      vertex 0 5 0
      vertex 6.69131 7.43145 0
    endloop
  endfacet
  facet normal 0 0 1
    outer loop
      vertex 8.09017 5.87785 0
      vertex 3.53553 3.53553 0
      vertex 9.13546 4.06737 0
    endloop
  endfacet
  facet normal 0 0 1
    outer loop
      vertex -6 3 0
      vertex -4.6194 -1.91342 0
      vertex -5 0 0
    endloop
  endfacet
  facet normal 0 0 1
    outer loop
      vertex 8 3 0
      vertex 9.78148 -2.07912 0
      vertex 10 0 0
    endloop
  endfacet
  facet normal 0 0 1
    outer loop
      vertex 9.13546 -4.06737 0
      vertex 3.53553 -3.53553 0
      vertex 8.09017 -5.87785 0
    endloop
  endfacet
  facet normal 0 0 1
    outer loop
      vertex 8.09017 -5.87785 0
      vertex 1.91342 -4.6194 0
      vertex 6.69131 -7.43145 0
    endloop
  endfacet
  facet normal 0 0 1
    outer loop
      vertex 6.69131 -7.43145 0
      vertex 0 -5 0
      vertex 5 -8.66025 0
    endloop
  endfacet
  facet normal 0 0 1
    outer loop
      vertex -1.91342 -4.6194 0
      vertex -3.53553 -3.53553 0
      vertex 3.09017 -9.51056 0
    endloop
  endfacet
  facet normal 0 0 1
    outer loop
      vertex -6 3 0
      vertex -6 -3 0
      vertex -4.6194 -1.91342 0
    endloop
  endfacet
  facet normal 0 0 1
    outer loop
      vertex 9.13546 4.06737 0
      vertex 8 3 0
      vertex 9.78148 2.07912 0
    endloop
  endfacet
  facet normal 0 0 1
    outer loop
      vertex 9.13546 4.06737 0
      vertex 6 3 0
      vertex 8 3 0
    endloop
  endfacet
  facet normal 0 0 1
    outer loop
      vertex 9.78148 -2.07912 0
      vertex 8 -3 0
      vertex 9.13546 -4.06737 0
    endloop
  endfacet
  facet normal 0 0 1
    outer loop
      vertex -6 -3 0
      vertex -3.09017 -9.51056 0
      vertex -1.04529 -9.94522 0
    endloop
  endfacet
  facet normal 0 0 1
    outer loop
      vertex -6 -3 0
      vertex -5 -8.66025 0
      vertex -3.09017 -9.51056 0
    endloop
  endfacet
  facet normal 0 0 1
    outer loop
      vertex -6 -3 0
      vertex -8 -3 0
      vertex -5 -8.66025 0
    endloop
  endfacet
  facet normal 0 0 1
    outer loop
      vertex 3.53553 3.53553 0
      vertex 6 3 0
      vertex 9.13546 4.06737 0
    endloop
  endfacet
  facet normal 0 0 1
    outer loop
      vertex 8 3 0
      vertex 10 0 0
      vertex 9.78148 2.07912 0
    endloop
  endfacet
  facet normal 0 0 1
    outer loop
      vertex 6 -3 0
      vertex 5 0 0
      vertex 4.6194 -1.91342 0
    endloop
  endfacet
  facet normal 0 0 1
    outer loop
      vertex 6 -3 0
      vertex 6 3 0
      vertex 4.6194 1.91342 0
    endloop
  endfacet
  facet normal 0 0 1
    outer loop
      vertex 4.6194 1.91342 0
      vertex 6 3 0
      vertex 3.53553 3.53553 0
    endloop
  endfacet
  facet normal 0 0 1
    outer loop
      vertex -4.6194 1.91342 0
      vertex -3.53553 3.53553 0
      vertex -6 3 0
    endloop
  endfacet
  facet normal 0 0 1
    outer loop
      vertex 8 3 0
      vertex 8 -3 0
      vertex 9.78148 -2.07912 0
    endloop
  endfacet
  facet normal 0 0 1
    outer loop
      vertex 3.53553 -3.53553 0
      vertex 1.91342 -4.6194 0
      vertex 8.09017 -5.87785 0
    endloop
  endfacet
  facet normal 0 0 1
    outer loop
      vertex 6 -3 0
      vertex 3.53553 -3.53553 0
      vertex 9.13546 -4.06737 0
    endloop
  endfacet
  facet normal 0 0 1
    outer loop
      vertex 1.91342 -4.6194 0
      vertex 0 -5 0
      vertex 6.69131 -7.43145 0
    endloop
  endfacet
  facet normal 0 0 1
    outer loop
      vertex 4.6194 -1.91342 0
      vertex 3.53553 -3.53553 0
      vertex 6 -3 0
    endloop
  endfacet
  facet normal 0 0 1
    outer loop
      vertex -3.53553 -3.53553 0
      vertex 1.04529 -9.94522 0
      vertex 3.09017 -9.51056 0
    endloop
  endfacet
  facet normal 0 0 1
    outer loop
      vertex -3.53553 -3.53553 0
      vertex -6 -3 0
      vertex 1.04529 -9.94522 0
    endloop
  endfacet
  facet normal 0 0 1
    outer loop
      vertex 1.91342 4.6194 0
      vertex 3.53553 3.53553 0
      vertex 8.09017 5.87785 0
    endloop
  endfacet
  facet normal 0 0 1
    outer loop
      vertex -8 -3 0
      vertex -8 3 0
      vertex -9.78148 2.07912 0
    endloop
  endfacet
  facet normal 1 0 0
    outer loop
      vertex -6 3 0
      vertex -6 3 13
      vertex -6 -3 13
    endloop
  endfacet
  facet normal 1 0 0
    outer loop
      vertex -6 -3 0
      vertex -6 3 0
      vertex -6 -3 13
    endloop
  endfacet
  facet normal -0.994522 0.104528 0
    outer loop
      vertex -10 0 -17
      vertex -10 0 0
      vertex -9.78148 2.07912 -17
    endloop
  endfacet
  facet normal -0.994522 0.104528 0
    outer loop
      vertex -9.78148 2.07912 -17
      vertex -10 0 0
      vertex -9.78148 2.07912 0
    endloop
  endfacet
  facet normal -0.951057 0.309017 0
    outer loop
      vertex -9.78148 2.07912 -30
      vertex -9.78148 2.07912 -20
      vertex -9.13546 4.06737 -30
    endloop
  endfacet
  facet normal -0.951057 0.309017 0
    outer loop
      vertex -9.13546 4.06737 -30
      vertex -9.78148 2.07912 -20
      vertex -9.48226 3 -20
    endloop
  endfacet
  facet normal -0.951057 0.309017 0
    outer loop
      vertex -9.13546 4.06737 -30
      vertex -9.48226 3 -20
      vertex -9.48226 3 -17
    endloop
  endfacet
  facet normal -0.951057 0.309017 0
    outer loop
      vertex -9.48226 3 -17
      vertex -9.78148 2.07912 -17
      vertex -9.78148 2.07912 0
    endloop
  endfacet
  facet normal -0.951057 0.309017 0
    outer loop
      vertex -9.48226 3 -17
      vertex -9.78148 2.07912 0
      vertex -9.13546 4.06737 -30
    endloop
  endfacet
  facet normal -0.951057 0.309017 0
    outer loop
      vertex -9.13546 4.06737 -30
      vertex -9.78148 2.07912 0
      vertex -9.13546 4.06737 0
    endloop
  endfacet
  facet normal -0.866025 0.5 0
    outer loop
      vertex -9.13546 4.06737 -30
      vertex -9.13546 4.06737 0
      vertex -8.09017 5.87785 -30
    endloop
  endfacet
  facet normal -0.866025 0.5 0
    outer loop
      vertex -8.09017 5.87785 -30
      vertex -9.13546 4.06737 0
      vertex -8.09017 5.87785 0
    endloop
  endfacet
  facet normal -0.743145 0.669131 0
    outer loop
      vertex -8.09017 5.87785 -30
      vertex -8.09017 5.87785 0
      vertex -6.69131 7.43145 -30
    endloop
  endfacet
  facet normal -0.743145 0.669131 0
    outer loop
      vertex -6.69131 7.43145 -30
      vertex -8.09017 5.87785 0
      vertex -6.69131 7.43145 0
    endloop
  endfacet
  facet normal -0.587785 0.809017 0
    outer loop
      vertex -6.69131 7.43145 -30
      vertex -6.69131 7.43145 0
      vertex -5 8.66025 -30
    endloop
  endfacet
  facet normal -0.587785 0.809017 0
    outer loop
      vertex -5 8.66025 -30
      vertex -6.69131 7.43145 0
      vertex -5 8.66025 0
    endloop
  endfacet
  facet normal -0.406737 0.913545 0
    outer loop
      vertex -5 8.66025 -30
      vertex -5 8.66025 0
      vertex -3.09017 9.51056 -30
    endloop
  endfacet
  facet normal -0.406737 0.913545 0
    outer loop
      vertex -3.09017 9.51056 -30
      vertex -5 8.66025 0
      vertex -3.09017 9.51056 0
    endloop
  endfacet
  facet normal -0.207912 0.978148 0
    outer loop
      vertex -3.09017 9.51056 -30
      vertex -3.09017 9.51056 0
      vertex -1.04529 9.94522 -30
    endloop
  endfacet
  facet normal -0.207912 0.978148 0
    outer loop
      vertex -1.04529 9.94522 -30
      vertex -3.09017 9.51056 0
      vertex -1.04529 9.94522 0
    endloop
  endfacet
  facet normal 0 1 0
    outer loop
      vertex -1.04529 9.94522 -30
      vertex -1.04529 9.94522 0
      vertex 1.04529 9.94522 -30
    endloop
  endfacet
  facet normal 0 1 0
    outer loop
      vertex 1.04529 9.94522 -30
      vertex -1.04529 9.94522 0
      vertex 1.04529 9.94522 0
    endloop
  endfacet
  facet normal 0.207912 0.978148 0
    outer loop
      vertex 1.04529 9.94522 -30
      vertex 1.04529 9.94522 0
      vertex 3.09017 9.51056 -30
    endloop
  endfacet
  facet normal 0.207912 0.978148 0
    outer loop
      vertex 3.09017 9.51056 -30
      vertex 1.04529 9.94522 0
      vertex 3.09017 9.51056 0
    endloop
  endfacet
  facet normal 0.406737 0.913545 0
    outer loop
      vertex 3.09017 9.51056 -30
      vertex 3.09017 9.51056 0
      vertex 5 8.66025 -30
    endloop
  endfacet
  facet normal 0.406737 0.913545 0
    outer loop
      vertex 5 8.66025 -30
      vertex 3.09017 9.51056 0
      vertex 5 8.66025 0
    endloop
  endfacet
  facet normal 0.587785 0.809017 0
    outer loop
      vertex 5 8.66025 -30
      vertex 5 8.66025 0
      vertex 6.69131 7.43145 -30
    endloop
  endfacet
  facet normal 0.587785 0.809017 0
    outer loop
      vertex 6.69131 7.43145 -30
      vertex 5 8.66025 0
      vertex 6.69131 7.43145 0
    endloop
  endfacet
  facet normal 0.743145 0.669131 0
    outer loop
      vertex 8.09017 5.87785 -30
      vertex 6.69131 7.43145 -30
      vertex 6.69131 7.43145 0
    endloop
  endfacet
  facet normal 0.743145 0.669131 0
    outer loop
      vertex 8.09017 5.87785 0
      vertex 8.09017 5.87785 -30
      vertex 6.69131 7.43145 0
    endloop
  endfacet
  facet normal 0.866025 0.5 0
    outer loop
      vertex 9.13546 4.06737 -30
      vertex 8.09017 5.87785 -30
      vertex 8.09017 5.87785 0
    endloop
  endfacet
  facet normal 0.866025 0.5 0
    outer loop
      vertex 9.13546 4.06737 0
      vertex 9.13546 4.06737 -30
      vertex 8.09017 5.87785 0
    endloop
  endfacet
  facet normal 0.951057 0.309017 0
    outer loop
      vertex 9.48226 3 -17
      vertex 9.13546 4.06737 -30
      vertex 9.13546 4.06737 0
    endloop
  endfacet
  facet normal 0.951057 0.309017 0
    outer loop
      vertex 9.48226 3 -20
      vertex 9.78148 2.07912 -20
      vertex 9.78148 2.07912 -30
    endloop
  endfacet
  facet normal 0.951057 0.309017 0
    outer loop
      vertex 9.78148 2.07912 0
      vertex 9.78148 2.07912 -17
      vertex 9.13546 4.06737 0
    endloop
  endfacet
  facet normal 0.951057 0.309017 0
    outer loop
      vertex 9.48226 3 -20
      vertex 9.13546 4.06737 -30
      vertex 9.48226 3 -17
    endloop
  endfacet
  facet normal 0.951057 0.309017 0
    outer loop
      vertex 9.78148 2.07912 -30
      vertex 9.13546 4.06737 -30
      vertex 9.48226 3 -20
    endloop
  endfacet
  facet normal 0.951057 0.309017 0
    outer loop
      vertex 9.78148 2.07912 -17
      vertex 9.48226 3 -17
      vertex 9.13546 4.06737 0
    endloop
  endfacet
  facet normal 0.994522 0.104528 0
    outer loop
      vertex 10 0 -17
      vertex 9.78148 2.07912 -17
      vertex 9.78148 2.07912 0
    endloop
  endfacet
  facet normal 0.994522 0.104528 0
    outer loop
      vertex 10 0 0
      vertex 10 0 -17
      vertex 9.78148 2.07912 0
    endloop
  endfacet
  facet normal 0.994522 -0.104528 0
    outer loop
      vertex 9.78148 -2.07912 0
      vertex 9.78148 -2.07912 -17
      vertex 10 0 -17
    endloop
  endfacet
  facet normal 0.994522 -0.104528 0
    outer loop
      vertex 10 0 0
      vertex 9.78148 -2.07912 0
      vertex 10 0 -17
    endloop
  endfacet
  facet normal 0.951057 -0.309017 0
    outer loop
      vertex 9.48226 -3 -20
      vertex 9.13546 -4.06737 -30
      vertex 9.78148 -2.07912 -30
    endloop
  endfacet
  facet normal 0.951057 -0.309017 0
    outer loop
      vertex 9.13546 -4.06737 0
      vertex 9.13546 -4.06737 -30
      vertex 9.48226 -3 -20
    endloop
  endfacet
  facet normal 0.951057 -0.309017 0
    outer loop
      vertex 9.48226 -3 -17
      vertex 9.78148 -2.07912 -17
      vertex 9.13546 -4.06737 0
    endloop
  endfacet
  facet normal 0.951057 -0.309017 0
    outer loop
      vertex 9.13546 -4.06737 0
      vertex 9.48226 -3 -20
      vertex 9.48226 -3 -17
    endloop
  endfacet
  facet normal 0.951057 -0.309017 0
    outer loop
      vertex 9.78148 -2.07912 0
      vertex 9.13546 -4.06737 0
      vertex 9.78148 -2.07912 -17
    endloop
  endfacet
  facet normal 0.951057 -0.309017 0
    outer loop
      vertex 9.78148 -2.07912 -20
      vertex 9.48226 -3 -20
      vertex 9.78148 -2.07912 -30
    endloop
  endfacet
  facet normal 0.866025 -0.5 0
    outer loop
      vertex 8.09017 -5.87785 0
      vertex 8.09017 -5.87785 -30
      vertex 9.13546 -4.06737 -30
    endloop
  endfacet
  facet normal 0.866025 -0.5 0
    outer loop
      vertex 9.13546 -4.06737 0
      vertex 8.09017 -5.87785 0
      vertex 9.13546 -4.06737 -30
    endloop
  endfacet
  facet normal 0.743145 -0.669131 0
    outer loop
      vertex 6.69131 -7.43145 0
      vertex 6.69131 -7.43145 -30
      vertex 8.09017 -5.87785 -30
    endloop
  endfacet
  facet normal 0.743145 -0.669131 0
    outer loop
      vertex 8.09017 -5.87785 0
      vertex 6.69131 -7.43145 0
      vertex 8.09017 -5.87785 -30
    endloop
  endfacet
  facet normal 0.587785 -0.809017 0
    outer loop
      vertex 5 -8.66025 0
      vertex 5 -8.66025 -30
      vertex 6.69131 -7.43145 -30
    endloop
  endfacet
  facet normal 0.587785 -0.809017 0
    outer loop
      vertex 6.69131 -7.43145 0
      vertex 5 -8.66025 0
      vertex 6.69131 -7.43145 -30
    endloop
  endfacet
  facet normal 0.406737 -0.913545 0
    outer loop
      vertex 3.09017 -9.51056 0
      vertex 3.09017 -9.51056 -30
      vertex 5 -8.66025 -30
    endloop
  endfacet
  facet normal 0.406737 -0.913545 0
    outer loop
      vertex 5 -8.66025 0
      vertex 3.09017 -9.51056 0
      vertex 5 -8.66025 -30
    endloop
  endfacet
  facet normal 0.207912 -0.978148 0
    outer loop
      vertex 1.04529 -9.94522 0
      vertex 1.04529 -9.94522 -30
      vertex 3.09017 -9.51056 -30
    endloop
  endfacet
  facet normal 0.207912 -0.978148 0
    outer loop
      vertex 3.09017 -9.51056 0
      vertex 1.04529 -9.94522 0
      vertex 3.09017 -9.51056 -30
    endloop
  endfacet
  facet normal 0 -1 0
    outer loop
      vertex -1.04529 -9.94522 0
      vertex -1.04529 -9.94522 -30
      vertex 1.04529 -9.94522 -30
    endloop
  endfacet
  facet normal 0 -1 0
    outer loop
      vertex 1.04529 -9.94522 0
      vertex -1.04529 -9.94522 0
      vertex 1.04529 -9.94522 -30
    endloop
  endfacet
  facet normal -0.207912 -0.978148 0
    outer loop
      vertex -3.09017 -9.51056 0
      vertex -3.09017 -9.51056 -30
      vertex -1.04529 -9.94522 -30
    endloop
  endfacet
  facet normal -0.207912 -0.978148 0
    outer loop
      vertex -1.04529 -9.94522 0
      vertex -3.09017 -9.51056 0
      vertex -1.04529 -9.94522 -30
    endloop
  endfacet
  facet normal -0.406737 -0.913545 0
    outer loop
      vertex -5 -8.66025 0
      vertex -5 -8.66025 -30
      vertex -3.09017 -9.51056 -30
    endloop
  endfacet
  facet normal -0.406737 -0.913545 0
    outer loop
      vertex -3.09017 -9.51056 0
      vertex -5 -8.66025 0
      vertex -3.09017 -9.51056 -30
    endloop
  endfacet
  facet normal -0.587785 -0.809017 0
    outer loop
      vertex -6.69131 -7.43145 0
      vertex -6.69131 -7.43145 -30
      vertex -5 -8.66025 -30
    endloop
  endfacet
  facet normal -0.587785 -0.809017 0
    outer loop
      vertex -5 -8.66025 0
      vertex -6.69131 -7.43145 0
      vertex -5 -8.66025 -30
    endloop
  endfacet
  facet normal -0.743145 -0.669131 0
    outer loop
      vertex -8.09017 -5.87785 -30
      vertex -6.69131 -7.43145 -30
      vertex -8.09017 -5.87785 0
    endloop
  endfacet
  facet normal -0.743145 -0.669131 0
    outer loop
      vertex -8.09017 -5.87785 0
      vertex -6.69131 -7.43145 -30
      vertex -6.69131 -7.43145 0
    endloop
  endfacet
  facet normal -0.866025 -0.5 0
    outer loop
      vertex -9.13546 -4.06737 -30
      vertex -8.09017 -5.87785 -30
      vertex -9.13546 -4.06737 0
    endloop
  endfacet
  facet normal -0.866025 -0.5 0
    outer loop
      vertex -9.13546 -4.06737 0
      vertex -8.09017 -5.87785 -30
      vertex -8.09017 -5.87785 0
    endloop
  endfacet
  facet normal -0.951057 -0.309017 0
    outer loop
      vertex -9.78148 -2.07912 -30
      vertex -9.13546 -4.06737 -30
      vertex -9.78148 -2.07912 -20
    endloop
  endfacet
  facet normal -0.951057 -0.309017 0
    outer loop
      vertex -9.48226 -3 -17
      vertex -9.13546 -4.06737 -30
      vertex -9.13546 -4.06737 0
    endloop
  endfacet
  facet normal -0.951057 -0.309017 0
    outer loop
      vertex -9.78148 -2.07912 -17
      vertex -9.13546 -4.06737 0
      vertex -9.78148 -2.07912 0
    endloop
  endfacet
  facet normal -0.951057 -0.309017 0
    outer loop
      vertex -9.48226 -3 -20
      vertex -9.13546 -4.06737 -30
      vertex -9.48226 -3 -17
    endloop
  endfacet
  facet normal -0.951057 -0.309017 0
    outer loop
      vertex -9.78148 -2.07912 -20
      vertex -9.13546 -4.06737 -30
      vertex -9.48226 -3 -20
    endloop
  endfacet
  facet normal -0.951057 -0.309017 0
    outer loop
      vertex -9.48226 -3 -17
      vertex -9.13546 -4.06737 0
      vertex -9.78148 -2.07912 -17
    endloop
  endfacet
  facet normal -0.994522 -0.104528 0
    outer loop
      vertex -10 0 -17
      vertex -9.78148 -2.07912 -17
      vertex -10 0 0
    endloop
  endfacet
  facet normal -0.994522 -0.104528 0
    outer loop
      vertex -10 0 0
      vertex -9.78148 -2.07912 -17
      vertex -9.78148 -2.07912 0
    endloop
  endfacet
  facet normal 0.980785 0.19509 0
    outer loop
      vertex -5 0 0
      vertex -4.6194 -1.91342 0
      vertex -4.6194 -1.91342 -16
    endloop
  endfacet
  facet normal 0.980785 0.19509 0
    outer loop
      vertex -5 0 -16
      vertex -5 0 0
      vertex -4.6194 -1.91342 -16
    endloop
  endfacet
  facet normal 0.83147 0.55557 0
    outer loop
      vertex -4.6194 -1.91342 0
      vertex -3.53553 -3.53553 0
      vertex -3.53553 -3.53553 -16
    endloop
  endfacet
  facet normal 0.83147 0.55557 0
    outer loop
      vertex -4.6194 -1.91342 -16
      vertex -4.6194 -1.91342 0
      vertex -3.53553 -3.53553 -16
    endloop
  endfacet
  facet normal 0.55557 0.83147 0
    outer loop
      vertex -1.91342 -4.6194 0
      vertex -1.91342 -4.6194 -16
      vertex -3.53553 -3.53553 0
    endloop
  endfacet
  facet normal 0.55557 0.83147 0
    outer loop
      vertex -3.53553 -3.53553 0
      vertex -1.91342 -4.6194 -16
      vertex -3.53553 -3.53553 -16
    endloop
  endfacet
  facet normal 0.19509 0.980785 0
    outer loop
      vertex 0 -5 0
      vertex 0 -5 -16
      vertex -1.91342 -4.6194 0
    endloop
  endfacet
  facet normal 0.19509 0.980785 0
    outer loop
      vertex -1.91342 -4.6194 0
      vertex 0 -5 -16
      vertex -1.91342 -4.6194 -16
    endloop
  endfacet
  facet normal -0.19509 0.980785 0
    outer loop
      vertex 1.91342 -4.6194 0
      vertex 1.91342 -4.6194 -16
      vertex 0 -5 0
    endloop
  endfacet
  facet normal -0.19509 0.980785 0
    outer loop
      vertex 0 -5 0
      vertex 1.91342 -4.6194 -16
      vertex 0 -5 -16
    endloop
  endfacet
  facet normal -0.55557 0.83147 0
    outer loop
      vertex 3.53553 -3.53553 0
      vertex 3.53553 -3.53553 -16
      vertex 1.91342 -4.6194 0
    endloop
  endfacet
  facet normal -0.55557 0.83147 0
    outer loop
      vertex 1.91342 -4.6194 0
      vertex 3.53553 -3.53553 -16
      vertex 1.91342 -4.6194 -16
    endloop
  endfacet
  facet normal -0.83147 0.55557 0
    outer loop
      vertex 4.6194 -1.91342 0
      vertex 4.6194 -1.91342 -16
      vertex 3.53553 -3.53553 0
    endloop
  endfacet
  facet normal -0.83147 0.55557 0
    outer loop
      vertex 3.53553 -3.53553 0
      vertex 4.6194 -1.91342 -16
      vertex 3.53553 -3.53553 -16
    endloop
  endfacet
  facet normal -0.980785 0.19509 0
    outer loop
      vertex 5 0 0
      vertex 5 0 -16
      vertex 4.6194 -1.91342 0
    endloop
  endfacet
  facet normal -0.980785 0.19509 0
    outer loop
      vertex 4.6194 -1.91342 0
      vertex 5 0 -16
      vertex 4.6194 -1.91342 -16
    endloop
  endfacet
  facet normal -0.980785 -0.19509 0
    outer loop
      vertex 5 0 0
      vertex 4.6194 1.91342 0
      vertex 5 0 -16
    endloop
  endfacet
  facet normal -0.980785 -0.19509 0
    outer loop
      vertex 5 0 -16
      vertex 4.6194 1.91342 0
      vertex 4.6194 1.91342 -16
    endloop
  endfacet
  facet normal -0.83147 -0.55557 0
    outer loop
      vertex 4.6194 1.91342 0
      vertex 3.53553 3.53553 0
      vertex 4.6194 1.91342 -16
    endloop
  endfacet
  facet normal -0.83147 -0.55557 0
    outer loop
      vertex 4.6194 1.91342 -16
      vertex 3.53553 3.53553 0
      vertex 3.53553 3.53553 -16
    endloop
  endfacet
  facet normal -0.55557 -0.83147 0
    outer loop
      vertex 3.53553 3.53553 -16
      vertex 3.53553 3.53553 0
      vertex 1.91342 4.6194 0
    endloop
  endfacet
  facet normal -0.55557 -0.83147 0
    outer loop
      vertex 1.91342 4.6194 -16
      vertex 3.53553 3.53553 -16
      vertex 1.91342 4.6194 0
    endloop
  endfacet
  facet normal -0.19509 -0.980785 0
    outer loop
      vertex 1.91342 4.6194 -16
      vertex 1.91342 4.6194 0
      vertex 0 5 0
    endloop
  endfacet
  facet normal -0.19509 -0.980785 0
    outer loop
      vertex 0 5 -16
      vertex 1.91342 4.6194 -16
      vertex 0 5 0
    endloop
  endfacet
  facet normal 0.19509 -0.980785 0
    outer loop
      vertex 0 5 -16
      vertex 0 5 0
      vertex -1.91342 4.6194 0
    endloop
  endfacet
  facet normal 0.19509 -0.980785 0
    outer loop
      vertex -1.91342 4.6194 -16
      vertex 0 5 -16
      vertex -1.91342 4.6194 0
    endloop
  endfacet
  facet normal 0.55557 -0.83147 0
    outer loop
      vertex -1.91342 4.6194 -16
      vertex -1.91342 4.6194 0
      vertex -3.53553 3.53553 0
    endloop
  endfacet
  facet normal 0.55557 -0.83147 0
    outer loop
      vertex -3.53553 3.53553 -16
      vertex -1.91342 4.6194 -16
      vertex -3.53553 3.53553 0
    endloop
  endfacet
  facet normal 0.83147 -0.55557 0
    outer loop
      vertex -3.53553 3.53553 -16
      vertex -3.53553 3.53553 0
      vertex -4.6194 1.91342 0
    endloop
  endfacet
  facet normal 0.83147 -0.55557 0
    outer loop
      vertex -4.6194 1.91342 -16
      vertex -3.53553 3.53553 -16
      vertex -4.6194 1.91342 0
    endloop
  endfacet
  facet normal 0.980785 -0.19509 0
    outer loop
      vertex -4.6194 1.91342 -16
      vertex -4.6194 1.91342 0
      vertex -5 0 0
    endloop
  endfacet
  facet normal 0.980785 -0.19509 0
    outer loop
      vertex -5 0 -16
      vertex -4.6194 1.91342 -16
      vertex -5 0 0
    endloop
  endfacet
  facet normal -1 0 0
    outer loop
      vertex 6 -3 0
      vertex 6 -3 13
      vertex 6 3 0
    endloop
  endfacet
  facet normal -1 0 0
    outer loop
      vertex 6 3 0
      vertex 6 -3 13
      vertex 6 3 13
    endloop
  endfacet
  facet normal 0 -1 0
    outer loop
      vertex 6 -3 13
      vertex 6 -3 0
      vertex 8 -3 0
    endloop
  endfacet
  facet normal 0 -1 0
    outer loop
      vertex 7.9191 -3 9.94122
      vertex 6 -3 13
      vertex 8 -3 0
    endloop
  endfacet
  facet normal 0 -1 0
    outer loop
      vertex 8 -3 9.91493
      vertex 7.9191 -3 9.94122
      vertex 8 -3 0
    endloop
  endfacet
  facet normal 0 -1 0
    outer loop
      vertex 7.9191 -3 9.94122
      vertex 7.9191 -3 13
      vertex 6 -3 13
    endloop
  endfacet
  facet normal 1 0 0
    outer loop
      vertex 8 -3 9.91493
      vertex 8 -3 0
      vertex 8 3 0
    endloop
  endfacet
  facet normal 1 0 0
    outer loop
      vertex 8 3 9.91493
      vertex 8 -3 9.91493
      vertex 8 3 0
    endloop
  endfacet
  facet normal 1 0 0
    outer loop
      vertex 8 3 10
      vertex 8 3 9.91493
      vertex 8 3 0
    endloop
  endfacet
  facet normal 0 1 0
    outer loop
      vertex 6 3 0
      vertex 6 3 13
      vertex 8 3 0
    endloop
  endfacet
  facet normal 0 1 0
    outer loop
      vertex 7.9191 3 10
      vertex 6 3 13
      vertex 7.9191 3 13
    endloop
  endfacet
  facet normal 0 1 0
    outer loop
      vertex 8 3 0
      vertex 6 3 13
      vertex 7.9191 3 10
    endloop
  endfacet
  facet normal 0 1 0
    outer loop
      vertex 8 3 10
      vertex 8 3 0
      vertex 7.9191 3 10
    endloop
  endfacet
  facet normal 0 0 -1
    outer loop
      vertex -9.48226 3 -17
      vertex -8.47045 3 -17
      vertex -9.78148 2.07912 -17
    endloop
  endfacet
  facet normal 0 0 -1
    outer loop
      vertex -9.78148 2.07912 -17
      vertex -8.47045 3 -17
      vertex -8.52888 2.87371 -17
    endloop
  endfacet
  facet normal 0 0 -1
    outer loop
      vertex -9.78148 2.07912 -17
      vertex -8.52888 2.87371 -17
      vertex -8.94724 0.973071 -17
    endloop
  endfacet
  facet normal 0 0 -1
    outer loop
      vertex -8.94724 0.973071 -17
      vertex -8.94724 -0.973071 -17
      vertex -9.78148 2.07912 -17
    endloop
  endfacet
  facet normal 0 0 -1
    outer loop
      vertex -8.94724 -0.973071 -17
      vertex -8.52888 -2.87371 -17
      vertex -9.78148 2.07912 -17
    endloop
  endfacet
  facet normal 0 0 -1
    outer loop
      vertex -8.52888 -2.87371 -17
      vertex -8.47045 -3 -17
      vertex -9.48226 -3 -17
    endloop
  endfacet
  facet normal 0 0 -1
    outer loop
      vertex -8.52888 -2.87371 -17
      vertex -9.48226 -3 -17
      vertex -9.78148 2.07912 -17
    endloop
  endfacet
  facet normal 0 0 -1
    outer loop
      vertex -9.78148 2.07912 -17
      vertex -9.48226 -3 -17
      vertex -9.78148 -2.07912 -17
    endloop
  endfacet
  facet normal 0 0 -1
    outer loop
      vertex -9.78148 2.07912 -17
      vertex -9.78148 -2.07912 -17
      vertex -10 0 -17
    endloop
  endfacet
  facet normal 0 0 -1
    outer loop
      vertex -10 0 -30
      vertex -9.78148 2.07912 -30
      vertex -9.78148 -2.07912 -30
    endloop
  endfacet
  facet normal 0 0 -1
    outer loop
      vertex -9.78148 -2.07912 -30
      vertex -9.78148 2.07912 -30
      vertex -9.13546 4.06737 -30
    endloop
  endfacet
  facet normal 0 0 -1
    outer loop
      vertex -9.78148 -2.07912 -30
      vertex -9.13546 4.06737 -30
      vertex -8.09017 5.87785 -30
    endloop
  endfacet
  facet normal 0 0 -1
    outer loop
      vertex -7.71171 4.63998 -30
      vertex -8.09017 5.87785 -30
      vertex -6.69131 7.43145 -30
    endloop
  endfacet
  facet normal 0 0 -1
    outer loop
      vertex -6.53396 6.18929 -30
      vertex -6.69131 7.43145 -30
      vertex -5 8.66025 -30
    endloop
  endfacet
  facet normal 0 0 -1
    outer loop
      vertex -5.05068 7.4492 -30
      vertex -5 8.66025 -30
      vertex -3.09017 9.51056 -30
    endloop
  endfacet
  facet normal 0 0 -1
    outer loop
      vertex -3.33124 8.36079 -30
      vertex -3.09017 9.51056 -30
      vertex -1.04529 9.94522 -30
    endloop
  endfacet
  facet normal 0 0 -1
    outer loop
      vertex -1.45604 8.88144 -30
      vertex -1.04529 9.94522 -30
      vertex 1.04529 9.94522 -30
    endloop
  endfacet
  facet normal 0 0 -1
    outer loop
      vertex 0.48725 8.9868 -30
      vertex 1.04529 9.94522 -30
      vertex 3.09017 9.51056 -30
    endloop
  endfacet
  facet normal 0 0 -1
    outer loop
      vertex 2.40775 8.67195 -30
      vertex 3.09017 9.51056 -30
      vertex 5 8.66025 -30
    endloop
  endfacet
  facet normal 0 0 -1
    outer loop
      vertex 4.21568 7.95161 -30
      vertex 5 8.66025 -30
      vertex 6.69131 7.43145 -30
    endloop
  endfacet
  facet normal 0 0 -1
    outer loop
      vertex 5.82648 6.85946 -30
      vertex 6.69131 7.43145 -30
      vertex 8.09017 5.87785 -30
    endloop
  endfacet
  facet normal 0 0 -1
    outer loop
      vertex 8.16818 3.779 -30
      vertex 8.09017 5.87785 -30
      vertex 9.13546 4.06737 -30
    endloop
  endfacet
  facet normal 0 0 -1
    outer loop
      vertex 8.78958 1.93473 -30
      vertex 9.13546 4.06737 -30
      vertex 9.78148 2.07912 -30
    endloop
  endfacet
  facet normal 0 0 -1
    outer loop
      vertex 9 0 -30
      vertex 9.78148 2.07912 -30
      vertex 10 0 -30
    endloop
  endfacet
  facet normal 0 0 -1
    outer loop
      vertex 8.78958 -1.93473 -30
      vertex 10 0 -30
      vertex 9.78148 -2.07912 -30
    endloop
  endfacet
  facet normal 0 0 -1
    outer loop
      vertex 8.16818 -3.779 -30
      vertex 9.78148 -2.07912 -30
      vertex 9.13546 -4.06737 -30
    endloop
  endfacet
  facet normal 0 0 -1
    outer loop
      vertex 7.16484 -5.44657 -30
      vertex 9.13546 -4.06737 -30
      vertex 8.09017 -5.87785 -30
    endloop
  endfacet
  facet normal 0 0 -1
    outer loop
      vertex 5.82648 -6.85946 -30
      vertex 8.09017 -5.87785 -30
      vertex 6.69131 -7.43145 -30
    endloop
  endfacet
  facet normal 0 0 -1
    outer loop
      vertex 4.21568 -7.95161 -30
      vertex 6.69131 -7.43145 -30
      vertex 5 -8.66025 -30
    endloop
  endfacet
  facet normal 0 0 -1
    outer loop
      vertex 2.40775 -8.67195 -30
      vertex 5 -8.66025 -30
      vertex 3.09017 -9.51056 -30
    endloop
  endfacet
  facet normal 0 0 -1
    outer loop
      vertex 0.48725 -8.9868 -30
      vertex 3.09017 -9.51056 -30
      vertex 1.04529 -9.94522 -30
    endloop
  endfacet
  facet normal 0 0 -1
    outer loop
      vertex -1.45604 -8.88144 -30
      vertex 1.04529 -9.94522 -30
      vertex -1.04529 -9.94522 -30
    endloop
  endfacet
  facet normal 0 0 -1
    outer loop
      vertex -3.33124 -8.36079 -30
      vertex -1.04529 -9.94522 -30
      vertex -3.09017 -9.51056 -30
    endloop
  endfacet
  facet normal 0 0 -1
    outer loop
      vertex -6.53396 -6.18929 -30
      vertex -3.09017 -9.51056 -30
      vertex -5 -8.66025 -30
    endloop
  endfacet
  facet normal 0 0 -1
    outer loop
      vertex -9.78148 -2.07912 -30
      vertex -5 -8.66025 -30
      vertex -6.69131 -7.43145 -30
    endloop
  endfacet
  facet normal 0 0 -1
    outer loop
      vertex -9.78148 -2.07912 -30
      vertex -6.69131 -7.43145 -30
      vertex -8.09017 -5.87785 -30
    endloop
  endfacet
  facet normal 0 0 -1
    outer loop
      vertex -9.78148 -2.07912 -30
      vertex -8.09017 -5.87785 -30
      vertex -9.13546 -4.06737 -30
    endloop
  endfacet
  facet normal 0 0 -1
    outer loop
      vertex -9.78148 -2.07912 -30
      vertex -8.09017 5.87785 -30
      vertex -8.94724 0.973071 -30
    endloop
  endfacet
  facet normal 0 0 -1
    outer loop
      vertex -8.52888 -2.87371 -30
      vertex -9.78148 -2.07912 -30
      vertex -8.94724 -0.973071 -30
    endloop
  endfacet
  facet normal 0 0 -1
    outer loop
      vertex -7.71171 -4.63998 -30
      vertex -9.78148 -2.07912 -30
      vertex -8.52888 -2.87371 -30
    endloop
  endfacet
  facet normal 0 0 -1
    outer loop
      vertex -3.33124 -8.36079 -30
      vertex -3.09017 -9.51056 -30
      vertex -5.05068 -7.4492 -30
    endloop
  endfacet
  facet normal 0 0 -1
    outer loop
      vertex -9.78148 -2.07912 -30
      vertex -7.71171 -4.63998 -30
      vertex -5 -8.66025 -30
    endloop
  endfacet
  facet normal 0 0 -1
    outer loop
      vertex -5.05068 -7.4492 -30
      vertex -3.09017 -9.51056 -30
      vertex -6.53396 -6.18929 -30
    endloop
  endfacet
  facet normal 0 0 -1
    outer loop
      vertex -7.71171 -4.63998 -30
      vertex -6.53396 -6.18929 -30
      vertex -5 -8.66025 -30
    endloop
  endfacet
  facet normal 0 0 -1
    outer loop
      vertex 2.40775 -8.67195 -30
      vertex 3.09017 -9.51056 -30
      vertex 0.48725 -8.9868 -30
    endloop
  endfacet
  facet normal 0 0 -1
    outer loop
      vertex 0.48725 -8.9868 -30
      vertex 1.04529 -9.94522 -30
      vertex -1.45604 -8.88144 -30
    endloop
  endfacet
  facet normal 0 0 -1
    outer loop
      vertex -1.45604 -8.88144 -30
      vertex -1.04529 -9.94522 -30
      vertex -3.33124 -8.36079 -30
    endloop
  endfacet
  facet normal 0 0 -1
    outer loop
      vertex 7.16484 5.44657 -30
      vertex 8.09017 5.87785 -30
      vertex 8.16818 3.779 -30
    endloop
  endfacet
  facet normal 0 0 -1
    outer loop
      vertex -3.33124 8.36079 -30
      vertex -1.04529 9.94522 -30
      vertex -1.45604 8.88144 -30
    endloop
  endfacet
  facet normal 0 0 -1
    outer loop
      vertex -1.45604 8.88144 -30
      vertex 1.04529 9.94522 -30
      vertex 0.48725 8.9868 -30
    endloop
  endfacet
  facet normal 0 0 -1
    outer loop
      vertex 0.48725 8.9868 -30
      vertex 3.09017 9.51056 -30
      vertex 2.40775 8.67195 -30
    endloop
  endfacet
  facet normal 0 0 -1
    outer loop
      vertex 2.40775 8.67195 -30
      vertex 5 8.66025 -30
      vertex 4.21568 7.95161 -30
    endloop
  endfacet
  facet normal 0 0 -1
    outer loop
      vertex -8.52888 2.87371 -30
      vertex -8.09017 5.87785 -30
      vertex -7.71171 4.63998 -30
    endloop
  endfacet
  facet normal 0 0 -1
    outer loop
      vertex -8.94724 0.973071 -30
      vertex -8.09017 5.87785 -30
      vertex -8.52888 2.87371 -30
    endloop
  endfacet
  facet normal 0 0 -1
    outer loop
      vertex -8.94724 -0.973071 -30
      vertex -9.78148 -2.07912 -30
      vertex -8.94724 0.973071 -30
    endloop
  endfacet
  facet normal 0 0 -1
    outer loop
      vertex -7.71171 4.63998 -30
      vertex -6.69131 7.43145 -30
      vertex -6.53396 6.18929 -30
    endloop
  endfacet
  facet normal 0 0 -1
    outer loop
      vertex -6.53396 6.18929 -30
      vertex -5 8.66025 -30
      vertex -5.05068 7.4492 -30
    endloop
  endfacet
  facet normal 0 0 -1
    outer loop
      vertex -5.05068 7.4492 -30
      vertex -3.09017 9.51056 -30
      vertex -3.33124 8.36079 -30
    endloop
  endfacet
  facet normal 0 0 -1
    outer loop
      vertex 4.21568 7.95161 -30
      vertex 6.69131 7.43145 -30
      vertex 5.82648 6.85946 -30
    endloop
  endfacet
  facet normal 0 0 -1
    outer loop
      vertex 8.16818 3.779 -30
      vertex 9.13546 4.06737 -30
      vertex 8.78958 1.93473 -30
    endloop
  endfacet
  facet normal 0 0 -1
    outer loop
      vertex 5.82648 6.85946 -30
      vertex 8.09017 5.87785 -30
      vertex 7.16484 5.44657 -30
    endloop
  endfacet
  facet normal 0 0 -1
    outer loop
      vertex 8.78958 1.93473 -30
      vertex 9.78148 2.07912 -30
      vertex 9 0 -30
    endloop
  endfacet
  facet normal 0 0 -1
    outer loop
      vertex 9 0 -30
      vertex 10 0 -30
      vertex 8.78958 -1.93473 -30
    endloop
  endfacet
  facet normal 0 0 -1
    outer loop
      vertex 8.78958 -1.93473 -30
      vertex 9.78148 -2.07912 -30
      vertex 8.16818 -3.779 -30
    endloop
  endfacet
  facet normal 0 0 -1
    outer loop
      vertex 8.16818 -3.779 -30
      vertex 9.13546 -4.06737 -30
      vertex 7.16484 -5.44657 -30
    endloop
  endfacet
  facet normal 0 0 -1
    outer loop
      vertex 7.16484 -5.44657 -30
      vertex 8.09017 -5.87785 -30
      vertex 5.82648 -6.85946 -30
    endloop
  endfacet
  facet normal 0 0 -1
    outer loop
      vertex 5.82648 -6.85946 -30
      vertex 6.69131 -7.43145 -30
      vertex 4.21568 -7.95161 -30
    endloop
  endfacet
  facet normal 0 0 -1
    outer loop
      vertex 4.21568 -7.95161 -30
      vertex 5 -8.66025 -30
      vertex 2.40775 -8.67195 -30
    endloop
  endfacet
  facet normal 0 -1 0
    outer loop
      vertex -8.47045 3 -20
      vertex -8.47045 3 -17
      vertex -9.48226 3 -17
    endloop
  endfacet
  facet normal 0 -1 0
    outer loop
      vertex -9.48226 3 -20
      vertex -8.47045 3 -20
      vertex -9.48226 3 -17
    endloop
  endfacet
  facet normal 0 0 1
    outer loop
      vertex -9.78148 -2.07912 -20
      vertex -9.48226 -3 -20
      vertex -8.47045 -3 -20
    endloop
  endfacet
  facet normal 0 0 1
    outer loop
      vertex -8.94724 -0.973071 -20
      vertex -9.78148 -2.07912 -20
      vertex -8.52888 -2.87371 -20
    endloop
  endfacet
  facet normal 0 0 1
    outer loop
      vertex -8.52888 -2.87371 -20
      vertex -9.78148 -2.07912 -20
      vertex -8.47045 -3 -20
    endloop
  endfacet
  facet normal 0 0 1
    outer loop
      vertex -8.94724 0.973071 -20
      vertex -9.78148 -2.07912 -20
      vertex -8.94724 -0.973071 -20
    endloop
  endfacet
  facet normal 0 0 1
    outer loop
      vertex -8.52888 2.87371 -20
      vertex -9.78148 -2.07912 -20
      vertex -8.94724 0.973071 -20
    endloop
  endfacet
  facet normal 0 0 1
    outer loop
      vertex -9.48226 3 -20
      vertex -9.78148 -2.07912 -20
      vertex -8.52888 2.87371 -20
    endloop
  endfacet
  facet normal 0 0 1
    outer loop
      vertex -9.48226 3 -20
      vertex -8.52888 2.87371 -20
      vertex -8.47045 3 -20
    endloop
  endfacet
  facet normal 0 0 1
    outer loop
      vertex -9.78148 2.07912 -20
      vertex -9.78148 -2.07912 -20
      vertex -9.48226 3 -20
    endloop
  endfacet
  facet normal 0 0 1
    outer loop
      vertex -10 0 -20
      vertex -9.78148 -2.07912 -20
      vertex -9.78148 2.07912 -20
    endloop
  endfacet
  facet normal -0.994522 0.104528 0
    outer loop
      vertex -10 0 -30
      vertex -10 0 -20
      vertex -9.78148 2.07912 -30
    endloop
  endfacet
  facet normal -0.994522 0.104528 0
    outer loop
      vertex -9.78148 2.07912 -30
      vertex -10 0 -20
      vertex -9.78148 2.07912 -20
    endloop
  endfacet
  facet normal 0.994522 0.104528 0
    outer loop
      vertex 10 0 -30
      vertex 9.78148 2.07912 -30
      vertex 9.78148 2.07912 -20
    endloop
  endfacet
  facet normal 0.994522 0.104528 0
    outer loop
      vertex 10 0 -20
      vertex 10 0 -30
      vertex 9.78148 2.07912 -20
    endloop
  endfacet
  facet normal 0 0 1
    outer loop
      vertex 9.48226 -3 -20
      vertex 9.78148 -2.07912 -20
      vertex 10 0 -20
    endloop
  endfacet
  facet normal 0 0 1
    outer loop
      vertex 9.48226 3 -20
      vertex 9.48226 -3 -20
      vertex 9.78148 2.07912 -20
    endloop
  endfacet
  facet normal 0 0 1
    outer loop
      vertex 9.78148 2.07912 -20
      vertex 9.48226 -3 -20
      vertex 10 0 -20
    endloop
  endfacet
  facet normal 0 0 1
    outer loop
      vertex 8.78958 1.93473 -20
      vertex 9.48226 -3 -20
      vertex 9.48226 3 -20
    endloop
  endfacet
  facet normal 0 0 1
    outer loop
      vertex 8.43066 3 -20
      vertex 8.78958 1.93473 -20
      vertex 9.48226 3 -20
    endloop
  endfacet
  facet normal 0 0 1
    outer loop
      vertex 9 0 -20
      vertex 9.48226 -3 -20
      vertex 8.78958 1.93473 -20
    endloop
  endfacet
  facet normal 0 0 1
    outer loop
      vertex 8.43066 -3 -20
      vertex 9.48226 -3 -20
      vertex 8.78958 -1.93473 -20
    endloop
  endfacet
  facet normal 0 0 1
    outer loop
      vertex 9 0 -20
      vertex 8.78958 -1.93473 -20
      vertex 9.48226 -3 -20
    endloop
  endfacet
  facet normal 0 -1 0
    outer loop
      vertex 9.48226 3 -20
      vertex 9.48226 3 -17
      vertex 8.43066 3 -17
    endloop
  endfacet
  facet normal 0 -1 0
    outer loop
      vertex 8.43066 3 -20
      vertex 9.48226 3 -20
      vertex 8.43066 3 -17
    endloop
  endfacet
  facet normal 0 0 -1
    outer loop
      vertex 9.48226 3 -17
      vertex 8.78958 1.93473 -17
      vertex 8.43066 3 -17
    endloop
  endfacet
  facet normal 0 0 -1
    outer loop
      vertex 9 0 -17
      vertex 8.78958 1.93473 -17
      vertex 9.48226 3 -17
    endloop
  endfacet
  facet normal 0 0 -1
    outer loop
      vertex 9 0 -17
      vertex 9.48226 3 -17
      vertex 8.78958 -1.93473 -17
    endloop
  endfacet
  facet normal 0 0 -1
    outer loop
      vertex 9.48226 3 -17
      vertex 9.78148 2.07912 -17
      vertex 8.78958 -1.93473 -17
    endloop
  endfacet
  facet normal 0 0 -1
    outer loop
      vertex 9.78148 2.07912 -17
      vertex 10 0 -17
      vertex 8.78958 -1.93473 -17
    endloop
  endfacet
  facet normal 0 0 -1
    outer loop
      vertex 10 0 -17
      vertex 9.78148 -2.07912 -17
      vertex 8.78958 -1.93473 -17
    endloop
  endfacet
  facet normal 0 0 -1
    outer loop
      vertex 9.78148 -2.07912 -17
      vertex 9.48226 -3 -17
      vertex 8.78958 -1.93473 -17
    endloop
  endfacet
  facet normal 0 0 -1
    outer loop
      vertex 9.48226 -3 -17
      vertex 8.43066 -3 -17
      vertex 8.78958 -1.93473 -17
    endloop
  endfacet
  facet normal 0 1 0
    outer loop
      vertex 9.48226 -3 -17
      vertex 9.48226 -3 -20
      vertex 8.43066 -3 -17
    endloop
  endfacet
  facet normal 0 1 0
    outer loop
      vertex 8.43066 -3 -17
      vertex 9.48226 -3 -20
      vertex 8.43066 -3 -20
    endloop
  endfacet
  facet normal 0.994522 -0.104528 0
    outer loop
      vertex 9.78148 -2.07912 -20
      vertex 9.78148 -2.07912 -30
      vertex 10 0 -30
    endloop
  endfacet
  facet normal 0.994522 -0.104528 0
    outer loop
      vertex 10 0 -20
      vertex 9.78148 -2.07912 -20
      vertex 10 0 -30
    endloop
  endfacet
  facet normal -0.994522 -0.104528 0
    outer loop
      vertex -10 0 -30
      vertex -9.78148 -2.07912 -30
      vertex -10 0 -20
    endloop
  endfacet
  facet normal -0.994522 -0.104528 0
    outer loop
      vertex -10 0 -20
      vertex -9.78148 -2.07912 -30
      vertex -9.78148 -2.07912 -20
    endloop
  endfacet
  facet normal 0 1 0
    outer loop
      vertex -8.47045 -3 -17
      vertex -8.47045 -3 -20
      vertex -9.48226 -3 -17
    endloop
  endfacet
  facet normal 0 1 0
    outer loop
      vertex -9.48226 -3 -17
      vertex -8.47045 -3 -20
      vertex -9.48226 -3 -20
    endloop
  endfacet
  facet normal 0 0 -1
    outer loop
      vertex -8.52888 2.87371 -16
      vertex -7.71171 4.63998 -16
      vertex -8.94724 0.973071 -16
    endloop
  endfacet
  facet normal 0 0 -1
    outer loop
      vertex -8.94724 0.973071 -16
      vertex -7.71171 4.63998 -16
      vertex -6.53396 6.18929 -16
    endloop
  endfacet
  facet normal 0 0 -1
    outer loop
      vertex -8.94724 0.973071 -16
      vertex -6.53396 6.18929 -16
      vertex -5.05068 7.4492 -16
    endloop
  endfacet
  facet normal 0 0 -1
    outer loop
      vertex -8.94724 0.973071 -16
      vertex -5.05068 7.4492 -16
      vertex -3.33124 8.36079 -16
    endloop
  endfacet
  facet normal 0 0 -1
    outer loop
      vertex -8.94724 0.973071 -16
      vertex -3.33124 8.36079 -16
      vertex -1.45604 8.88144 -16
    endloop
  endfacet
  facet normal 0 0 -1
    outer loop
      vertex -8.94724 0.973071 -16
      vertex -1.45604 8.88144 -16
      vertex 0.48725 8.9868 -16
    endloop
  endfacet
  facet normal 0 0 -1
    outer loop
      vertex -8.94724 0.973071 -16
      vertex 0.48725 8.9868 -16
      vertex 2.40775 8.67195 -16
    endloop
  endfacet
  facet normal 0 0 -1
    outer loop
      vertex -8.94724 0.973071 -16
      vertex 2.40775 8.67195 -16
      vertex 4.21568 7.95161 -16
    endloop
  endfacet
  facet normal 0 0 -1
    outer loop
      vertex 0 5 -16
      vertex 4.21568 7.95161 -16
      vertex 5.82648 6.85946 -16
    endloop
  endfacet
  facet normal 0 0 -1
    outer loop
      vertex 1.91342 4.6194 -16
      vertex 5.82648 6.85946 -16
      vertex 7.16484 5.44657 -16
    endloop
  endfacet
  facet normal 0 0 -1
    outer loop
      vertex 3.53553 3.53553 -16
      vertex 7.16484 5.44657 -16
      vertex 8.16818 3.779 -16
    endloop
  endfacet
  facet normal 0 0 -1
    outer loop
      vertex 4.6194 1.91342 -16
      vertex 8.16818 3.779 -16
      vertex 8.78958 1.93473 -16
    endloop
  endfacet
  facet normal 0 0 -1
    outer loop
      vertex 5 0 -16
      vertex 9 0 -16
      vertex 8.78958 -1.93473 -16
    endloop
  endfacet
  facet normal 0 0 -1
    outer loop
      vertex 4.6194 -1.91342 -16
      vertex 8.78958 -1.93473 -16
      vertex 8.16818 -3.779 -16
    endloop
  endfacet
  facet normal 0 0 -1
    outer loop
      vertex 3.53553 -3.53553 -16
      vertex 8.16818 -3.779 -16
      vertex 7.16484 -5.44657 -16
    endloop
  endfacet
  facet normal 0 0 -1
    outer loop
      vertex 1.91342 -4.6194 -16
      vertex 7.16484 -5.44657 -16
      vertex 5.82648 -6.85946 -16
    endloop
  endfacet
  facet normal 0 0 -1
    outer loop
      vertex 0 -5 -16
      vertex 5.82648 -6.85946 -16
      vertex 4.21568 -7.95161 -16
    endloop
  endfacet
  facet normal 0 0 -1
    outer loop
      vertex -1.91342 -4.6194 -16
      vertex 4.21568 -7.95161 -16
      vertex 2.40775 -8.67195 -16
    endloop
  endfacet
  facet normal 0 0 -1
    outer loop
      vertex -8.94724 0.973071 -16
      vertex 2.40775 -8.67195 -16
      vertex 0.48725 -8.9868 -16
    endloop
  endfacet
  facet normal 0 0 -1
    outer loop
      vertex -8.94724 0.973071 -16
      vertex 0.48725 -8.9868 -16
      vertex -1.45604 -8.88144 -16
    endloop
  endfacet
  facet normal 0 0 -1
    outer loop
      vertex -8.94724 0.973071 -16
      vertex -1.45604 -8.88144 -16
      vertex -3.33124 -8.36079 -16
    endloop
  endfacet
  facet normal 0 0 -1
    outer loop
      vertex -8.94724 0.973071 -16
      vertex -3.33124 -8.36079 -16
      vertex -5.05068 -7.4492 -16
    endloop
  endfacet
  facet normal 0 0 -1
    outer loop
      vertex -8.94724 0.973071 -16
      vertex -5.05068 -7.4492 -16
      vertex -6.53396 -6.18929 -16
    endloop
  endfacet
  facet normal 0 0 -1
    outer loop
      vertex -8.94724 0.973071 -16
      vertex -6.53396 -6.18929 -16
      vertex -7.71171 -4.63998 -16
    endloop
  endfacet
  facet normal 0 0 -1
    outer loop
      vertex -8.94724 0.973071 -16
      vertex -7.71171 -4.63998 -16
      vertex -8.52888 -2.87371 -16
    endloop
  endfacet
  facet normal 0 0 -1
    outer loop
      vertex -8.94724 0.973071 -16
      vertex -8.52888 -2.87371 -16
      vertex -8.94724 -0.973071 -16
    endloop
  endfacet
  facet normal 0 0 -1
    outer loop
      vertex -3.53553 -3.53553 -16
      vertex -8.94724 0.973071 -16
      vertex -4.6194 -1.91342 -16
    endloop
  endfacet
  facet normal 0 0 -1
    outer loop
      vertex 0 -5 -16
      vertex 4.21568 -7.95161 -16
      vertex -1.91342 -4.6194 -16
    endloop
  endfacet
  facet normal 0 0 -1
    outer loop
      vertex -8.94724 0.973071 -16
      vertex -3.53553 -3.53553 -16
      vertex 2.40775 -8.67195 -16
    endloop
  endfacet
  facet normal 0 0 -1
    outer loop
      vertex -3.53553 -3.53553 -16
      vertex -1.91342 -4.6194 -16
      vertex 2.40775 -8.67195 -16
    endloop
  endfacet
  facet normal 0 0 -1
    outer loop
      vertex 1.91342 -4.6194 -16
      vertex 5.82648 -6.85946 -16
      vertex 0 -5 -16
    endloop
  endfacet
  facet normal 0 0 -1
    outer loop
      vertex 4.6194 1.91342 -16
      vertex 9 0 -16
      vertex 5 0 -16
    endloop
  endfacet
  facet normal 0 0 -1
    outer loop
      vertex 5 0 -16
      vertex 8.78958 -1.93473 -16
      vertex 4.6194 -1.91342 -16
    endloop
  endfacet
  facet normal 0 0 -1
    outer loop
      vertex 4.6194 1.91342 -16
      vertex 8.78958 1.93473 -16
      vertex 9 0 -16
    endloop
  endfacet
  facet normal 0 0 -1
    outer loop
      vertex -5 0 -16
      vertex -8.94724 0.973071 -16
      vertex -4.6194 1.91342 -16
    endloop
  endfacet
  facet normal 0 0 -1
    outer loop
      vertex 3.53553 3.53553 -16
      vertex 8.16818 3.779 -16
      vertex 4.6194 1.91342 -16
    endloop
  endfacet
  facet normal 0 0 -1
    outer loop
      vertex 1.91342 4.6194 -16
      vertex 7.16484 5.44657 -16
      vertex 3.53553 3.53553 -16
    endloop
  endfacet
  facet normal 0 0 -1
    outer loop
      vertex 0 5 -16
      vertex 5.82648 6.85946 -16
      vertex 1.91342 4.6194 -16
    endloop
  endfacet
  facet normal 0 0 -1
    outer loop
      vertex -1.91342 4.6194 -16
      vertex 4.21568 7.95161 -16
      vertex 0 5 -16
    endloop
  endfacet
  facet normal 0 0 -1
    outer loop
      vertex -4.6194 1.91342 -16
      vertex -8.94724 0.973071 -16
      vertex -3.53553 3.53553 -16
    endloop
  endfacet
  facet normal 0 0 -1
    outer loop
      vertex -8.94724 0.973071 -16
      vertex 4.21568 7.95161 -16
      vertex -1.91342 4.6194 -16
    endloop
  endfacet
  facet normal 0 0 -1
    outer loop
      vertex -8.94724 0.973071 -16
      vertex -1.91342 4.6194 -16
      vertex -3.53553 3.53553 -16
    endloop
  endfacet
  facet normal 0 0 -1
    outer loop
      vertex -4.6194 -1.91342 -16
      vertex -8.94724 0.973071 -16
      vertex -5 0 -16
    endloop
  endfacet
  facet normal 0 0 -1
    outer loop
      vertex 4.6194 -1.91342 -16
      vertex 8.16818 -3.779 -16
      vertex 3.53553 -3.53553 -16
    endloop
  endfacet
  facet normal 0 0 -1
    outer loop
      vertex 3.53553 -3.53553 -16
      vertex 7.16484 -5.44657 -16
      vertex 1.91342 -4.6194 -16
    endloop
  endfacet
  facet normal 0 0 1
    outer loop
      vertex 6 3 13
      vertex 6 -3 13
      vertex 7.9191 -3 13
    endloop
  endfacet
  facet normal 0 0 1
    outer loop
      vertex 7.9191 3 13
      vertex 6 3 13
      vertex 7.9191 -3 13
    endloop
  endfacet
  facet normal -1 0 0
    outer loop
      vertex 7.9191 -3 13
      vertex 7.9191 -3 12.9412
      vertex 7.9191 -3 13.0588
    endloop
  endfacet
  facet normal -1 0 0
    outer loop
      vertex 7.9191 3 13
      vertex 7.9191 3 13.0588
      vertex 7.9191 3 10.0588
    endloop
  endfacet
  facet normal -1 0 0
    outer loop
      vertex 7.9191 -3 13
      vertex 7.9191 3 13.0588
      vertex 7.9191 3 13
    endloop
  endfacet
  facet normal -1 0 0
    outer loop
      vertex 7.9191 -3 13
      vertex 7.9191 -3 13.0588
      vertex 7.9191 3 13.0588
    endloop
  endfacet
  facet normal -1 0 0
    outer loop
      vertex 7.9191 -3 9.94122
      vertex 7.9191 -3 12.9412
      vertex 7.9191 -3 13
    endloop
  endfacet
  facet normal -1 0 0
    outer loop
      vertex 7.9191 3 13
      vertex 7.9191 3 10.0588
      vertex 7.9191 3 10
    endloop
  endfacet
  facet normal -0.309015 -5.82335e-017 -0.951057
    outer loop
      vertex 8.0309 -3 9.90489
      vertex 7.9191 -3 9.94122
      vertex 8 -3 9.91493
    endloop
  endfacet
  facet normal -0.309015 -5.82335e-017 -0.951057
    outer loop
      vertex 8.0309 -3 9.90489
      vertex 8 -3 9.91493
      vertex 8 3 9.91493
    endloop
  endfacet
  facet normal -0.309015 -5.82335e-017 -0.951057
    outer loop
      vertex 8.0309 -3 9.90489
      vertex 8 3 9.91493
      vertex 8.0309 3 9.90489
    endloop
  endfacet
  facet normal 0 1 -6.12303e-017
    outer loop
      vertex 7.9191 3 10
      vertex 7.9191 3 10.0588
      vertex 8 3 10
    endloop
  endfacet
  facet normal 0 1 -6.12303e-017
    outer loop
      vertex 8 3 10
      vertex 7.9191 3 10.0588
      vertex 8.0309 3 10.0951
    endloop
  endfacet
  facet normal 0 1 -6.12303e-017
    outer loop
      vertex 8 3 10
      vertex 8.0309 3 10.0951
      vertex 10.0309 3 10.0951
    endloop
  endfacet
  facet normal 0 1 -6.12303e-017
    outer loop
      vertex 8 3 10
      vertex 10.0309 3 10.0951
      vertex 10.1 3 10
    endloop
  endfacet
  facet normal 0 1 -6.12303e-017
    outer loop
      vertex 8 3 10
      vertex 10.1 3 10
      vertex 10.0309 3 9.90489
    endloop
  endfacet
  facet normal 0 1 -6.12303e-017
    outer loop
      vertex 8 3 10
      vertex 10.0309 3 9.90489
      vertex 8.0309 3 9.90489
    endloop
  endfacet
  facet normal 0 1 -6.12303e-017
    outer loop
      vertex 8 3 10
      vertex 8.0309 3 9.90489
      vertex 8 3 9.91493
    endloop
  endfacet
  facet normal 0.907575 0.419889 0
    outer loop
      vertex -7.71171 -4.63998 -16
      vertex -8.47045 -3 -20
      vertex -8.47045 -3 -17
    endloop
  endfacet
  facet normal 0.907575 0.419889 0
    outer loop
      vertex -8.52888 -2.87371 -20
      vertex -8.47045 -3 -20
      vertex -7.71171 -4.63998 -30
    endloop
  endfacet
  facet normal 0.907575 0.419889 0
    outer loop
      vertex -8.52888 -2.87371 -17
      vertex -8.52888 -2.87371 -16
      vertex -8.47045 -3 -17
    endloop
  endfacet
  facet normal 0.907575 0.419889 0
    outer loop
      vertex -8.52888 -2.87371 -16
      vertex -7.71171 -4.63998 -16
      vertex -8.47045 -3 -17
    endloop
  endfacet
  facet normal 0.907575 0.419889 0
    outer loop
      vertex -7.71171 -4.63998 -16
      vertex -7.71171 -4.63998 -30
      vertex -8.47045 -3 -20
    endloop
  endfacet
  facet normal 0.907575 0.419889 0
    outer loop
      vertex -7.71171 -4.63998 -30
      vertex -8.52888 -2.87371 -30
      vertex -8.52888 -2.87371 -20
    endloop
  endfacet
  facet normal 0.976621 0.21497 0
    outer loop
      vertex -8.94724 -0.973071 -16
      vertex -8.52888 -2.87371 -16
      vertex -8.52888 -2.87371 -17
    endloop
  endfacet
  facet normal 0.976621 0.21497 0
    outer loop
      vertex -8.94724 -0.973071 -17
      vertex -8.94724 -0.973071 -16
      vertex -8.52888 -2.87371 -17
    endloop
  endfacet
  facet normal 1 0 0
    outer loop
      vertex -8.94724 0.973071 -17
      vertex -8.94724 0.973071 -16
      vertex -8.94724 -0.973071 -16
    endloop
  endfacet
  facet normal 1 0 0
    outer loop
      vertex -8.94724 -0.973071 -17
      vertex -8.94724 0.973071 -17
      vertex -8.94724 -0.973071 -16
    endloop
  endfacet
  facet normal 0.976621 -0.21497 0
    outer loop
      vertex -8.52888 2.87371 -17
      vertex -8.52888 2.87371 -16
      vertex -8.94724 0.973071 -16
    endloop
  endfacet
  facet normal 0.976621 -0.21497 0
    outer loop
      vertex -8.94724 0.973071 -17
      vertex -8.52888 2.87371 -17
      vertex -8.94724 0.973071 -16
    endloop
  endfacet
  facet normal 0.907575 -0.419889 0
    outer loop
      vertex -8.47045 3 -17
      vertex -7.71171 4.63998 -16
      vertex -8.52888 2.87371 -16
    endloop
  endfacet
  facet normal 0.907575 -0.419889 0
    outer loop
      vertex -8.47045 3 -17
      vertex -8.47045 3 -20
      vertex -7.71171 4.63998 -30
    endloop
  endfacet
  facet normal 0.907575 -0.419889 0
    outer loop
      vertex -7.71171 4.63998 -30
      vertex -7.71171 4.63998 -16
      vertex -8.47045 3 -17
    endloop
  endfacet
  facet normal 0.907575 -0.419889 0
    outer loop
      vertex -8.52888 2.87371 -20
      vertex -7.71171 4.63998 -30
      vertex -8.47045 3 -20
    endloop
  endfacet
  facet normal 0.907575 -0.419889 0
    outer loop
      vertex -8.52888 2.87371 -30
      vertex -7.71171 4.63998 -30
      vertex -8.52888 2.87371 -20
    endloop
  endfacet
  facet normal 0.907575 -0.419889 0
    outer loop
      vertex -8.52888 2.87371 -17
      vertex -8.47045 3 -17
      vertex -8.52888 2.87371 -16
    endloop
  endfacet
  facet normal 0.976621 -0.21497 0
    outer loop
      vertex -8.52888 2.87371 -30
      vertex -8.52888 2.87371 -20
      vertex -8.94724 0.973071 -20
    endloop
  endfacet
  facet normal 0.976621 -0.21497 0
    outer loop
      vertex -8.94724 0.973071 -30
      vertex -8.52888 2.87371 -30
      vertex -8.94724 0.973071 -20
    endloop
  endfacet
  facet normal 1 0 0
    outer loop
      vertex -8.94724 0.973071 -30
      vertex -8.94724 0.973071 -20
      vertex -8.94724 -0.973071 -20
    endloop
  endfacet
  facet normal 1 0 0
    outer loop
      vertex -8.94724 -0.973071 -30
      vertex -8.94724 0.973071 -30
      vertex -8.94724 -0.973071 -20
    endloop
  endfacet
  facet normal 0.796093 -0.605175 0
    outer loop
      vertex -6.53396 6.18929 -30
      vertex -6.53396 6.18929 -16
      vertex -7.71171 4.63998 -16
    endloop
  endfacet
  facet normal 0.796093 -0.605175 0
    outer loop
      vertex -7.71171 4.63998 -30
      vertex -6.53396 6.18929 -30
      vertex -7.71171 4.63998 -16
    endloop
  endfacet
  facet normal 0.647387 -0.762162 0
    outer loop
      vertex -5.05068 7.4492 -30
      vertex -5.05068 7.4492 -16
      vertex -6.53396 6.18929 -16
    endloop
  endfacet
  facet normal 0.647387 -0.762162 0
    outer loop
      vertex -6.53396 6.18929 -30
      vertex -5.05068 7.4492 -30
      vertex -6.53396 6.18929 -16
    endloop
  endfacet
  facet normal 0.468408 -0.883512 0
    outer loop
      vertex -3.33124 8.36079 -30
      vertex -3.33124 8.36079 -16
      vertex -5.05068 7.4492 -16
    endloop
  endfacet
  facet normal 0.468408 -0.883512 0
    outer loop
      vertex -5.05068 7.4492 -30
      vertex -3.33124 8.36079 -30
      vertex -5.05068 7.4492 -16
    endloop
  endfacet
  facet normal 0.267529 -0.96355 0
    outer loop
      vertex -1.45604 8.88144 -30
      vertex -1.45604 8.88144 -16
      vertex -3.33124 8.36079 -16
    endloop
  endfacet
  facet normal 0.267529 -0.96355 0
    outer loop
      vertex -3.33124 8.36079 -30
      vertex -1.45604 8.88144 -30
      vertex -3.33124 8.36079 -16
    endloop
  endfacet
  facet normal 0.0541389 -0.998533 0
    outer loop
      vertex 0.48725 8.9868 -30
      vertex 0.48725 8.9868 -16
      vertex -1.45604 8.88144 -16
    endloop
  endfacet
  facet normal 0.0541389 -0.998533 0
    outer loop
      vertex -1.45604 8.88144 -30
      vertex 0.48725 8.9868 -30
      vertex -1.45604 8.88144 -16
    endloop
  endfacet
  facet normal -0.161782 -0.986827 0
    outer loop
      vertex 2.40775 8.67195 -30
      vertex 2.40775 8.67195 -16
      vertex 0.48725 8.9868 -16
    endloop
  endfacet
  facet normal -0.161782 -0.986827 0
    outer loop
      vertex 0.48725 8.9868 -30
      vertex 2.40775 8.67195 -30
      vertex 0.48725 8.9868 -16
    endloop
  endfacet
  facet normal -0.370138 -0.928977 0
    outer loop
      vertex 4.21568 7.95161 -30
      vertex 4.21568 7.95161 -16
      vertex 2.40775 8.67195 -16
    endloop
  endfacet
  facet normal -0.370138 -0.928977 0
    outer loop
      vertex 2.40775 8.67195 -30
      vertex 4.21568 7.95161 -30
      vertex 2.40775 8.67195 -16
    endloop
  endfacet
  facet normal -0.561187 -0.827689 0
    outer loop
      vertex 5.82648 6.85946 -30
      vertex 5.82648 6.85946 -16
      vertex 4.21568 7.95161 -16
    endloop
  endfacet
  facet normal -0.561187 -0.827689 0
    outer loop
      vertex 4.21568 7.95161 -30
      vertex 5.82648 6.85946 -30
      vertex 4.21568 7.95161 -16
    endloop
  endfacet
  facet normal -0.725995 -0.6877 0
    outer loop
      vertex 7.16484 5.44657 -16
      vertex 5.82648 6.85946 -16
      vertex 7.16484 5.44657 -30
    endloop
  endfacet
  facet normal -0.725995 -0.6877 0
    outer loop
      vertex 7.16484 5.44657 -30
      vertex 5.82648 6.85946 -16
      vertex 5.82648 6.85946 -30
    endloop
  endfacet
  facet normal -0.856857 -0.515554 0
    outer loop
      vertex 8.16818 3.779 -16
      vertex 7.16484 5.44657 -16
      vertex 8.16818 3.779 -30
    endloop
  endfacet
  facet normal -0.856857 -0.515554 0
    outer loop
      vertex 8.16818 3.779 -30
      vertex 7.16484 5.44657 -16
      vertex 7.16484 5.44657 -30
    endloop
  endfacet
  facet normal -0.947653 -0.319301 0
    outer loop
      vertex 8.78958 1.93473 -20
      vertex 8.43066 3 -20
      vertex 8.78958 1.93473 -30
    endloop
  endfacet
  facet normal -0.947653 -0.319301 0
    outer loop
      vertex 8.78958 1.93473 -30
      vertex 8.43066 3 -20
      vertex 8.16818 3.779 -16
    endloop
  endfacet
  facet normal -0.947653 -0.319301 0
    outer loop
      vertex 8.78958 1.93473 -16
      vertex 8.43066 3 -17
      vertex 8.78958 1.93473 -17
    endloop
  endfacet
  facet normal -0.947653 -0.319301 0
    outer loop
      vertex 8.16818 3.779 -16
      vertex 8.43066 3 -17
      vertex 8.78958 1.93473 -16
    endloop
  endfacet
  facet normal -0.947653 -0.319301 0
    outer loop
      vertex 8.43066 3 -20
      vertex 8.43066 3 -17
      vertex 8.16818 3.779 -16
    endloop
  endfacet
  facet normal -0.947653 -0.319301 0
    outer loop
      vertex 8.78958 1.93473 -30
      vertex 8.16818 3.779 -16
      vertex 8.16818 3.779 -30
    endloop
  endfacet
  facet normal -0.994138 -0.108119 0
    outer loop
      vertex 9 0 -20
      vertex 8.78958 1.93473 -20
      vertex 9 0 -30
    endloop
  endfacet
  facet normal -0.994138 -0.108119 0
    outer loop
      vertex 9 0 -30
      vertex 8.78958 1.93473 -20
      vertex 8.78958 1.93473 -30
    endloop
  endfacet
  facet normal -0.994138 0.108119 0
    outer loop
      vertex 9 0 -20
      vertex 9 0 -30
      vertex 8.78958 -1.93473 -20
    endloop
  endfacet
  facet normal -0.994138 0.108119 0
    outer loop
      vertex 8.78958 -1.93473 -20
      vertex 9 0 -30
      vertex 8.78958 -1.93473 -30
    endloop
  endfacet
  facet normal -0.947653 0.319301 0
    outer loop
      vertex 8.78958 -1.93473 -16
      vertex 8.78958 -1.93473 -17
      vertex 8.16818 -3.779 -16
    endloop
  endfacet
  facet normal -0.947653 0.319301 0
    outer loop
      vertex 8.16818 -3.779 -16
      vertex 8.78958 -1.93473 -17
      vertex 8.43066 -3 -17
    endloop
  endfacet
  facet normal -0.947653 0.319301 0
    outer loop
      vertex 8.16818 -3.779 -16
      vertex 8.43066 -3 -17
      vertex 8.43066 -3 -20
    endloop
  endfacet
  facet normal -0.947653 0.319301 0
    outer loop
      vertex 8.43066 -3 -20
      vertex 8.78958 -1.93473 -20
      vertex 8.78958 -1.93473 -30
    endloop
  endfacet
  facet normal -0.947653 0.319301 0
    outer loop
      vertex 8.43066 -3 -20
      vertex 8.78958 -1.93473 -30
      vertex 8.16818 -3.779 -16
    endloop
  endfacet
  facet normal -0.947653 0.319301 0
    outer loop
      vertex 8.16818 -3.779 -16
      vertex 8.78958 -1.93473 -30
      vertex 8.16818 -3.779 -30
    endloop
  endfacet
  facet normal -0.856857 0.515554 0
    outer loop
      vertex 8.16818 -3.779 -16
      vertex 8.16818 -3.779 -30
      vertex 7.16484 -5.44657 -16
    endloop
  endfacet
  facet normal -0.856857 0.515554 0
    outer loop
      vertex 7.16484 -5.44657 -16
      vertex 8.16818 -3.779 -30
      vertex 7.16484 -5.44657 -30
    endloop
  endfacet
  facet normal -0.725995 0.6877 0
    outer loop
      vertex 7.16484 -5.44657 -16
      vertex 7.16484 -5.44657 -30
      vertex 5.82648 -6.85946 -16
    endloop
  endfacet
  facet normal -0.725995 0.6877 0
    outer loop
      vertex 5.82648 -6.85946 -16
      vertex 7.16484 -5.44657 -30
      vertex 5.82648 -6.85946 -30
    endloop
  endfacet
  facet normal -0.561187 0.827689 0
    outer loop
      vertex 5.82648 -6.85946 -16
      vertex 5.82648 -6.85946 -30
      vertex 4.21568 -7.95161 -16
    endloop
  endfacet
  facet normal -0.561187 0.827689 0
    outer loop
      vertex 4.21568 -7.95161 -16
      vertex 5.82648 -6.85946 -30
      vertex 4.21568 -7.95161 -30
    endloop
  endfacet
  facet normal -0.370138 0.928977 0
    outer loop
      vertex 4.21568 -7.95161 -16
      vertex 4.21568 -7.95161 -30
      vertex 2.40775 -8.67195 -16
    endloop
  endfacet
  facet normal -0.370138 0.928977 0
    outer loop
      vertex 2.40775 -8.67195 -16
      vertex 4.21568 -7.95161 -30
      vertex 2.40775 -8.67195 -30
    endloop
  endfacet
  facet normal -0.161782 0.986827 0
    outer loop
      vertex 2.40775 -8.67195 -16
      vertex 2.40775 -8.67195 -30
      vertex 0.48725 -8.9868 -16
    endloop
  endfacet
  facet normal -0.161782 0.986827 0
    outer loop
      vertex 0.48725 -8.9868 -16
      vertex 2.40775 -8.67195 -30
      vertex 0.48725 -8.9868 -30
    endloop
  endfacet
  facet normal 0.0541389 0.998533 0
    outer loop
      vertex 0.48725 -8.9868 -16
      vertex 0.48725 -8.9868 -30
      vertex -1.45604 -8.88144 -16
    endloop
  endfacet
  facet normal 0.0541389 0.998533 0
    outer loop
      vertex -1.45604 -8.88144 -16
      vertex 0.48725 -8.9868 -30
      vertex -1.45604 -8.88144 -30
    endloop
  endfacet
  facet normal 0.267529 0.96355 0
    outer loop
      vertex -1.45604 -8.88144 -16
      vertex -1.45604 -8.88144 -30
      vertex -3.33124 -8.36079 -16
    endloop
  endfacet
  facet normal 0.267529 0.96355 0
    outer loop
      vertex -3.33124 -8.36079 -16
      vertex -1.45604 -8.88144 -30
      vertex -3.33124 -8.36079 -30
    endloop
  endfacet
  facet normal 0.468408 0.883512 0
    outer loop
      vertex -3.33124 -8.36079 -16
      vertex -3.33124 -8.36079 -30
      vertex -5.05068 -7.4492 -16
    endloop
  endfacet
  facet normal 0.468408 0.883512 0
    outer loop
      vertex -5.05068 -7.4492 -16
      vertex -3.33124 -8.36079 -30
      vertex -5.05068 -7.4492 -30
    endloop
  endfacet
  facet normal 0.647387 0.762162 0
    outer loop
      vertex -5.05068 -7.4492 -16
      vertex -5.05068 -7.4492 -30
      vertex -6.53396 -6.18929 -16
    endloop
  endfacet
  facet normal 0.647387 0.762162 0
    outer loop
      vertex -6.53396 -6.18929 -16
      vertex -5.05068 -7.4492 -30
      vertex -6.53396 -6.18929 -30
    endloop
  endfacet
  facet normal 0.796093 0.605175 0
    outer loop
      vertex -7.71171 -4.63998 -16
      vertex -6.53396 -6.18929 -16
      vertex -6.53396 -6.18929 -30
    endloop
  endfacet
  facet normal 0.796093 0.605175 0
    outer loop
      vertex -7.71171 -4.63998 -30
      vertex -7.71171 -4.63998 -16
      vertex -6.53396 -6.18929 -30
    endloop
  endfacet
  facet normal 0.976621 0.21497 0
    outer loop
      vertex -8.94724 -0.973071 -20
      vertex -8.52888 -2.87371 -20
      vertex -8.52888 -2.87371 -30
    endloop
  endfacet
  facet normal 0.976621 0.21497 0
    outer loop
      vertex -8.94724 -0.973071 -30
      vertex -8.94724 -0.973071 -20
      vertex -8.52888 -2.87371 -30
    endloop
  endfacet
  facet normal -0.994138 0.108119 0
    outer loop
      vertex 9 0 -16
      vertex 9 0 -17
      vertex 8.78958 -1.93473 -16
    endloop
  endfacet
  facet normal -0.994138 0.108119 0
    outer loop
      vertex 8.78958 -1.93473 -16
      vertex 9 0 -17
      vertex 8.78958 -1.93473 -17
    endloop
  endfacet
  facet normal -0.994138 -0.108119 0
    outer loop
      vertex 9 0 -16
      vertex 8.78958 1.93473 -16
      vertex 9 0 -17
    endloop
  endfacet
  facet normal -0.994138 -0.108119 0
    outer loop
      vertex 9 0 -17
      vertex 8.78958 1.93473 -16
      vertex 8.78958 1.93473 -17
    endloop
  endfacet
  facet normal -1.98948e-017 1 0
    outer loop
      vertex 7.9191 3 10.0588
      vertex 7.9191 3 13.0588
      vertex 8.0309 3 10.0951
    endloop
  endfacet
  facet normal -1.98948e-017 1 0
    outer loop
      vertex 8.0309 3 10.0951
      vertex 7.9191 3 13.0588
      vertex 8.0309 3 13.0951
    endloop
  endfacet
  facet normal -0.309015 5.82335e-017 0.951057
    outer loop
      vertex 7.9191 3 13.0588
      vertex 7.9191 -3 13.0588
      vertex 8.0309 -3 13.0951
    endloop
  endfacet
  facet normal -0.309015 5.82335e-017 0.951057
    outer loop
      vertex 8.0309 3 13.0951
      vertex 7.9191 3 13.0588
      vertex 8.0309 -3 13.0951
    endloop
  endfacet
  facet normal 0 -1 6.12303e-017
    outer loop
      vertex 7.9191 -3 13.0588
      vertex 7.9191 -3 12.9412
      vertex 8.0309 -3 12.9049
    endloop
  endfacet
  facet normal 0 -1 6.12303e-017
    outer loop
      vertex 8.0309 -3 13.0951
      vertex 7.9191 -3 13.0588
      vertex 8.1 -3 13
    endloop
  endfacet
  facet normal 0 -1 6.12303e-017
    outer loop
      vertex 8.1 -3 13
      vertex 7.9191 -3 13.0588
      vertex 8.0309 -3 12.9049
    endloop
  endfacet
  facet normal -1.98948e-017 -1 0
    outer loop
      vertex 7.9191 -3 12.9412
      vertex 7.9191 -3 9.94122
      vertex 8.0309 -3 9.90489
    endloop
  endfacet
  facet normal -1.98948e-017 -1 0
    outer loop
      vertex 8.0309 -3 12.9049
      vertex 7.9191 -3 12.9412
      vertex 8.0309 -3 9.90489
    endloop
  endfacet
  facet normal 0 -1 0
    outer loop
      vertex 8.0309 -3 12.9049
      vertex 8.0309 -3 9.90489
      vertex 10.0309 -3 9.90489
    endloop
  endfacet
  facet normal 0 -6.12303e-017 -1
    outer loop
      vertex 8.0309 -3 9.90489
      vertex 8.0309 3 9.90489
      vertex 10.0309 -3 9.90489
    endloop
  endfacet
  facet normal 0 -6.12303e-017 -1
    outer loop
      vertex 10.0309 -3 9.90489
      vertex 8.0309 3 9.90489
      vertex 10.0309 3 9.90489
    endloop
  endfacet
  facet normal 0.809019 -3.59901e-017 -0.587782
    outer loop
      vertex 10.1 -3 10
      vertex 10.0309 -3 9.90489
      vertex 10.0309 3 9.90489
    endloop
  endfacet
  facet normal 0.809019 -3.59901e-017 -0.587782
    outer loop
      vertex 10.1 3 10
      vertex 10.1 -3 10
      vertex 10.0309 3 9.90489
    endloop
  endfacet
  facet normal 0.83205 3.39645e-017 0.5547
    outer loop
      vertex 8.1 3 13
      vertex 8.1 -3 13
      vertex 10.1 -3 10
    endloop
  endfacet
  facet normal 0.83205 3.39645e-017 0.5547
    outer loop
      vertex 10.1 3 10
      vertex 8.1 3 13
      vertex 10.1 -3 10
    endloop
  endfacet
  facet normal 1.02272e-015 1 6.81814e-016
    outer loop
      vertex 8.0309 3 13.0951
      vertex 8.1 3 13
      vertex 10.0309 3 10.0951
    endloop
  endfacet
  facet normal 1.02272e-015 1 6.81814e-016
    outer loop
      vertex 10.0309 3 10.0951
      vertex 8.1 3 13
      vertex 10.1 3 10
    endloop
  endfacet
  facet normal 0 1 0
    outer loop
      vertex 10.0309 3 10.0951
      vertex 8.0309 3 10.0951
      vertex 8.0309 3 13.0951
    endloop
  endfacet
  facet normal 0.809019 3.59901e-017 0.587782
    outer loop
      vertex 8.0309 3 13.0951
      vertex 8.0309 -3 13.0951
      vertex 8.1 -3 13
    endloop
  endfacet
  facet normal 0.809019 3.59901e-017 0.587782
    outer loop
      vertex 8.1 3 13
      vertex 8.0309 3 13.0951
      vertex 8.1 -3 13
    endloop
  endfacet
  facet normal 4.39493e-017 -1 2.92995e-017
    outer loop
      vertex 8.1 -3 13
      vertex 8.0309 -3 12.9049
      vertex 10.0309 -3 9.90489
    endloop
  endfacet
  facet normal 4.39493e-017 -1 2.92995e-017
    outer loop
      vertex 10.1 -3 10
      vertex 8.1 -3 13
      vertex 10.0309 -3 9.90489
    endloop
  endfacet
endsolid OpenSCAD_Model
