solid OpenSCAD_Model
  facet normal 0 0 -1
    outer loop
      vertex -10 0 0
      vertex -9.78148 2.07912 0
      vertex -9.78148 -2.07912 0
    endloop
  endfacet
  facet normal 0 0 -1
    outer loop
      vertex -9.78148 -2.07912 0
      vertex -9.78148 2.07912 0
      vertex -9.13546 4.06737 0
    endloop
  endfacet
  facet normal 0 0 -1
    outer loop
      vertex -9.78148 -2.07912 0
      vertex -9.13546 4.06737 0
      vertex -8.09017 5.87785 0
    endloop
  endfacet
  facet normal 0 0 -1
    outer loop
      vertex -7.71171 4.63998 0
      vertex -8.09017 5.87785 0
      vertex -6.69131 7.43145 0
    endloop
  endfacet
  facet normal 0 0 -1
    outer loop
      vertex -6.53396 6.18929 0
      vertex -6.69131 7.43145 0
      vertex -5 8.66025 0
    endloop
  endfacet
  facet normal 0 0 -1
    outer loop
      vertex -5.05068 7.4492 0
      vertex -5 8.66025 0
      vertex -3.09017 9.51056 0
    endloop
  endfacet
  facet normal 0 0 -1
    outer loop
      vertex -3.33124 8.36079 0
      vertex -3.09017 9.51056 0
      vertex -1.04529 9.94522 0
    endloop
  endfacet
  facet normal 0 0 -1
    outer loop
      vertex -1.45604 8.88144 0
      vertex -1.04529 9.94522 0
      vertex 1.04529 9.94522 0
    endloop
  endfacet
  facet normal 0 0 -1
    outer loop
      vertex 0.48725 8.9868 0
      vertex 1.04529 9.94522 0
      vertex 3.09017 9.51056 0
    endloop
  endfacet
  facet normal 0 0 -1
    outer loop
      vertex 2.40775 8.67195 0
      vertex 3.09017 9.51056 0
      vertex 5 8.66025 0
    endloop
  endfacet
  facet normal 0 0 -1
    outer loop
      vertex 4.21568 7.95161 0
      vertex 5 8.66025 0
      vertex 6.69131 7.43145 0
    endloop
  endfacet
  facet normal 0 0 -1
    outer loop
      vertex 5.82648 6.85946 0
      vertex 6.69131 7.43145 0
      vertex 8.09017 5.87785 0
    endloop
  endfacet
  facet normal 0 0 -1
    outer loop
      vertex 8.16818 3.779 0
      vertex 8.09017 5.87785 0
      vertex 9.13546 4.06737 0
    endloop
  endfacet
  facet normal 0 0 -1
    outer loop
      vertex 8.78958 1.93473 0
      vertex 9.13546 4.06737 0
      vertex 9.78148 2.07912 0
    endloop
  endfacet
  facet normal 0 0 -1
    outer loop
      vertex 9 0 0
      vertex 9.78148 2.07912 0
      vertex 10 0 0
    endloop
  endfacet
  facet normal 0 0 -1
    outer loop
      vertex 8.78958 -1.93473 0
      vertex 10 0 0
      vertex 9.78148 -2.07912 0
    endloop
  endfacet
  facet normal 0 0 -1
    outer loop
      vertex 8.16818 -3.779 0
      vertex 9.78148 -2.07912 0
      vertex 9.13546 -4.06737 0
    endloop
  endfacet
  facet normal 0 0 -1
    outer loop
      vertex 7.16484 -5.44657 0
      vertex 9.13546 -4.06737 0
      vertex 8.09017 -5.87785 0
    endloop
  endfacet
  facet normal 0 0 -1
    outer loop
      vertex 5.82648 -6.85946 0
      vertex 8.09017 -5.87785 0
      vertex 6.69131 -7.43145 0
    endloop
  endfacet
  facet normal 0 0 -1
    outer loop
      vertex 4.21568 -7.95161 0
      vertex 6.69131 -7.43145 0
      vertex 5 -8.66025 0
    endloop
  endfacet
  facet normal 0 0 -1
    outer loop
      vertex 2.40775 -8.67195 0
      vertex 5 -8.66025 0
      vertex 3.09017 -9.51056 0
    endloop
  endfacet
  facet normal 0 0 -1
    outer loop
      vertex 0.48725 -8.9868 0
      vertex 3.09017 -9.51056 0
      vertex 1.04529 -9.94522 0
    endloop
  endfacet
  facet normal 0 0 -1
    outer loop
      vertex -1.45604 -8.88144 0
      vertex 1.04529 -9.94522 0
      vertex -1.04529 -9.94522 0
    endloop
  endfacet
  facet normal 0 0 -1
    outer loop
      vertex -3.33124 -8.36079 0
      vertex -1.04529 -9.94522 0
      vertex -3.09017 -9.51056 0
    endloop
  endfacet
  facet normal 0 0 -1
    outer loop
      vertex -6.53396 -6.18929 0
      vertex -3.09017 -9.51056 0
      vertex -5 -8.66025 0
    endloop
  endfacet
  facet normal 0 0 -1
    outer loop
      vertex -9.78148 -2.07912 0
      vertex -5 -8.66025 0
      vertex -6.69131 -7.43145 0
    endloop
  endfacet
  facet normal 0 0 -1
    outer loop
      vertex -9.78148 -2.07912 0
      vertex -6.69131 -7.43145 0
      vertex -8.09017 -5.87785 0
    endloop
  endfacet
  facet normal 0 0 -1
    outer loop
      vertex -9.78148 -2.07912 0
      vertex -8.09017 -5.87785 0
      vertex -9.13546 -4.06737 0
    endloop
  endfacet
  facet normal 0 0 -1
    outer loop
      vertex -9.78148 -2.07912 0
      vertex -8.09017 5.87785 0
      vertex -8.94724 0.973071 0
    endloop
  endfacet
  facet normal 0 0 -1
    outer loop
      vertex -8.52888 -2.87371 0
      vertex -9.78148 -2.07912 0
      vertex -8.94724 -0.973071 0
    endloop
  endfacet
  facet normal 0 0 -1
    outer loop
      vertex -7.71171 -4.63998 0
      vertex -9.78148 -2.07912 0
      vertex -8.52888 -2.87371 0
    endloop
  endfacet
  facet normal 0 0 -1
    outer loop
      vertex -3.33124 -8.36079 0
      vertex -3.09017 -9.51056 0
      vertex -5.05068 -7.4492 0
    endloop
  endfacet
  facet normal 0 0 -1
    outer loop
      vertex -9.78148 -2.07912 0
      vertex -7.71171 -4.63998 0
      vertex -5 -8.66025 0
    endloop
  endfacet
  facet normal 0 0 -1
    outer loop
      vertex -5.05068 -7.4492 0
      vertex -3.09017 -9.51056 0
      vertex -6.53396 -6.18929 0
    endloop
  endfacet
  facet normal 0 0 -1
    outer loop
      vertex -7.71171 -4.63998 0
      vertex -6.53396 -6.18929 0
      vertex -5 -8.66025 0
    endloop
  endfacet
  facet normal 0 0 -1
    outer loop
      vertex 2.40775 -8.67195 0
      vertex 3.09017 -9.51056 0
      vertex 0.48725 -8.9868 0
    endloop
  endfacet
  facet normal 0 0 -1
    outer loop
      vertex 0.48725 -8.9868 0
      vertex 1.04529 -9.94522 0
      vertex -1.45604 -8.88144 0
    endloop
  endfacet
  facet normal 0 0 -1
    outer loop
      vertex -1.45604 -8.88144 0
      vertex -1.04529 -9.94522 0
      vertex -3.33124 -8.36079 0
    endloop
  endfacet
  facet normal 0 0 -1
    outer loop
      vertex 7.16484 5.44657 0
      vertex 8.09017 5.87785 0
      vertex 8.16818 3.779 0
    endloop
  endfacet
  facet normal 0 0 -1
    outer loop
      vertex -3.33124 8.36079 0
      vertex -1.04529 9.94522 0
      vertex -1.45604 8.88144 0
    endloop
  endfacet
  facet normal 0 0 -1
    outer loop
      vertex -1.45604 8.88144 0
      vertex 1.04529 9.94522 0
      vertex 0.48725 8.9868 0
    endloop
  endfacet
  facet normal 0 0 -1
    outer loop
      vertex 0.48725 8.9868 0
      vertex 3.09017 9.51056 0
      vertex 2.40775 8.67195 0
    endloop
  endfacet
  facet normal 0 0 -1
    outer loop
      vertex 2.40775 8.67195 0
      vertex 5 8.66025 0
      vertex 4.21568 7.95161 0
    endloop
  endfacet
  facet normal 0 0 -1
    outer loop
      vertex -8.52888 2.87371 0
      vertex -8.09017 5.87785 0
      vertex -7.71171 4.63998 0
    endloop
  endfacet
  facet normal 0 0 -1
    outer loop
      vertex -8.94724 0.973071 0
      vertex -8.09017 5.87785 0
      vertex -8.52888 2.87371 0
    endloop
  endfacet
  facet normal 0 0 -1
    outer loop
      vertex -8.94724 -0.973071 0
      vertex -9.78148 -2.07912 0
      vertex -8.94724 0.973071 0
    endloop
  endfacet
  facet normal 0 0 -1
    outer loop
      vertex -7.71171 4.63998 0
      vertex -6.69131 7.43145 0
      vertex -6.53396 6.18929 0
    endloop
  endfacet
  facet normal 0 0 -1
    outer loop
      vertex -6.53396 6.18929 0
      vertex -5 8.66025 0
      vertex -5.05068 7.4492 0
    endloop
  endfacet
  facet normal 0 0 -1
    outer loop
      vertex -5.05068 7.4492 0
      vertex -3.09017 9.51056 0
      vertex -3.33124 8.36079 0
    endloop
  endfacet
  facet normal 0 0 -1
    outer loop
      vertex 4.21568 7.95161 0
      vertex 6.69131 7.43145 0
      vertex 5.82648 6.85946 0
    endloop
  endfacet
  facet normal 0 0 -1
    outer loop
      vertex 8.16818 3.779 0
      vertex 9.13546 4.06737 0
      vertex 8.78958 1.93473 0
    endloop
  endfacet
  facet normal 0 0 -1
    outer loop
      vertex 5.82648 6.85946 0
      vertex 8.09017 5.87785 0
      vertex 7.16484 5.44657 0
    endloop
  endfacet
  facet normal 0 0 -1
    outer loop
      vertex 8.78958 1.93473 0
      vertex 9.78148 2.07912 0
      vertex 9 0 0
    endloop
  endfacet
  facet normal 0 0 -1
    outer loop
      vertex 9 0 0
      vertex 10 0 0
      vertex 8.78958 -1.93473 0
    endloop
  endfacet
  facet normal 0 0 -1
    outer loop
      vertex 8.78958 -1.93473 0
      vertex 9.78148 -2.07912 0
      vertex 8.16818 -3.779 0
    endloop
  endfacet
  facet normal 0 0 -1
    outer loop
      vertex 8.16818 -3.779 0
      vertex 9.13546 -4.06737 0
      vertex 7.16484 -5.44657 0
    endloop
  endfacet
  facet normal 0 0 -1
    outer loop
      vertex 7.16484 -5.44657 0
      vertex 8.09017 -5.87785 0
      vertex 5.82648 -6.85946 0
    endloop
  endfacet
  facet normal 0 0 -1
    outer loop
      vertex 5.82648 -6.85946 0
      vertex 6.69131 -7.43145 0
      vertex 4.21568 -7.95161 0
    endloop
  endfacet
  facet normal 0 0 -1
    outer loop
      vertex 4.21568 -7.95161 0
      vertex 5 -8.66025 0
      vertex 2.40775 -8.67195 0
    endloop
  endfacet
  facet normal -0.994522 0.104528 0
    outer loop
      vertex -10 0 0
      vertex -10 0 10
      vertex -9.78148 2.07912 0
    endloop
  endfacet
  facet normal -0.994522 0.104528 0
    outer loop
      vertex -9.78148 2.07912 0
      vertex -10 0 10
      vertex -9.78148 2.07912 10
    endloop
  endfacet
  facet normal -0.994522 -0.104528 0
    outer loop
      vertex -10 0 0
      vertex -9.78148 -2.07912 0
      vertex -10 0 10
    endloop
  endfacet
  facet normal -0.994522 -0.104528 0
    outer loop
      vertex -10 0 10
      vertex -9.78148 -2.07912 0
      vertex -9.78148 -2.07912 10
    endloop
  endfacet
  facet normal -0.951057 -0.309017 0
    outer loop
      vertex -9.78148 -2.07912 0
      vertex -9.13546 -4.06737 0
      vertex -9.78148 -2.07912 10
    endloop
  endfacet
  facet normal -0.951057 -0.309017 0
    outer loop
      vertex -9.48226 -3 14
      vertex -9.13546 -4.06737 0
      vertex -9.13546 -4.06737 30
    endloop
  endfacet
  facet normal -0.951057 -0.309017 0
    outer loop
      vertex -9.78148 -2.07912 14
      vertex -9.13546 -4.06737 30
      vertex -9.78148 -2.07912 30
    endloop
  endfacet
  facet normal -0.951057 -0.309017 0
    outer loop
      vertex -9.48226 -3 10
      vertex -9.13546 -4.06737 0
      vertex -9.48226 -3 14
    endloop
  endfacet
  facet normal -0.951057 -0.309017 0
    outer loop
      vertex -9.78148 -2.07912 10
      vertex -9.13546 -4.06737 0
      vertex -9.48226 -3 10
    endloop
  endfacet
  facet normal -0.951057 -0.309017 0
    outer loop
      vertex -9.48226 -3 14
      vertex -9.13546 -4.06737 30
      vertex -9.78148 -2.07912 14
    endloop
  endfacet
  facet normal -0.866025 -0.5 0
    outer loop
      vertex -9.13546 -4.06737 0
      vertex -8.09017 -5.87785 0
      vertex -9.13546 -4.06737 30
    endloop
  endfacet
  facet normal -0.866025 -0.5 0
    outer loop
      vertex -9.13546 -4.06737 30
      vertex -8.09017 -5.87785 0
      vertex -8.09017 -5.87785 30
    endloop
  endfacet
  facet normal -0.743145 -0.669131 0
    outer loop
      vertex -8.09017 -5.87785 0
      vertex -6.69131 -7.43145 0
      vertex -8.09017 -5.87785 30
    endloop
  endfacet
  facet normal -0.743145 -0.669131 0
    outer loop
      vertex -8.09017 -5.87785 30
      vertex -6.69131 -7.43145 0
      vertex -6.69131 -7.43145 30
    endloop
  endfacet
  facet normal -0.587785 -0.809017 0
    outer loop
      vertex -6.69131 -7.43145 30
      vertex -6.69131 -7.43145 0
      vertex -5 -8.66025 0
    endloop
  endfacet
  facet normal -0.587785 -0.809017 0
    outer loop
      vertex -5 -8.66025 30
      vertex -6.69131 -7.43145 30
      vertex -5 -8.66025 0
    endloop
  endfacet
  facet normal -0.406737 -0.913545 0
    outer loop
      vertex -5 -8.66025 30
      vertex -5 -8.66025 0
      vertex -3.09017 -9.51056 0
    endloop
  endfacet
  facet normal -0.406737 -0.913545 0
    outer loop
      vertex -3.09017 -9.51056 30
      vertex -5 -8.66025 30
      vertex -3.09017 -9.51056 0
    endloop
  endfacet
  facet normal -0.207912 -0.978148 0
    outer loop
      vertex -3.09017 -9.51056 30
      vertex -3.09017 -9.51056 0
      vertex -1.04529 -9.94522 0
    endloop
  endfacet
  facet normal -0.207912 -0.978148 0
    outer loop
      vertex -1.04529 -9.94522 30
      vertex -3.09017 -9.51056 30
      vertex -1.04529 -9.94522 0
    endloop
  endfacet
  facet normal 0 -1 0
    outer loop
      vertex -1.04529 -9.94522 30
      vertex -1.04529 -9.94522 0
      vertex 1.04529 -9.94522 0
    endloop
  endfacet
  facet normal 0 -1 0
    outer loop
      vertex 1.04529 -9.94522 30
      vertex -1.04529 -9.94522 30
      vertex 1.04529 -9.94522 0
    endloop
  endfacet
  facet normal 0.207912 -0.978148 0
    outer loop
      vertex 1.04529 -9.94522 30
      vertex 1.04529 -9.94522 0
      vertex 3.09017 -9.51056 0
    endloop
  endfacet
  facet normal 0.207912 -0.978148 0
    outer loop
      vertex 3.09017 -9.51056 30
      vertex 1.04529 -9.94522 30
      vertex 3.09017 -9.51056 0
    endloop
  endfacet
  facet normal 0.406737 -0.913545 0
    outer loop
      vertex 3.09017 -9.51056 30
      vertex 3.09017 -9.51056 0
      vertex 5 -8.66025 0
    endloop
  endfacet
  facet normal 0.406737 -0.913545 0
    outer loop
      vertex 5 -8.66025 30
      vertex 3.09017 -9.51056 30
      vertex 5 -8.66025 0
    endloop
  endfacet
  facet normal 0.587785 -0.809017 0
    outer loop
      vertex 5 -8.66025 30
      vertex 5 -8.66025 0
      vertex 6.69131 -7.43145 0
    endloop
  endfacet
  facet normal 0.587785 -0.809017 0
    outer loop
      vertex 6.69131 -7.43145 30
      vertex 5 -8.66025 30
      vertex 6.69131 -7.43145 0
    endloop
  endfacet
  facet normal 0.743145 -0.669131 0
    outer loop
      vertex 6.69131 -7.43145 30
      vertex 6.69131 -7.43145 0
      vertex 8.09017 -5.87785 0
    endloop
  endfacet
  facet normal 0.743145 -0.669131 0
    outer loop
      vertex 8.09017 -5.87785 30
      vertex 6.69131 -7.43145 30
      vertex 8.09017 -5.87785 0
    endloop
  endfacet
  facet normal 0.866025 -0.5 0
    outer loop
      vertex 8.09017 -5.87785 30
      vertex 8.09017 -5.87785 0
      vertex 9.13546 -4.06737 0
    endloop
  endfacet
  facet normal 0.866025 -0.5 0
    outer loop
      vertex 9.13546 -4.06737 30
      vertex 8.09017 -5.87785 30
      vertex 9.13546 -4.06737 0
    endloop
  endfacet
  facet normal 0.951057 -0.309017 0
    outer loop
      vertex 9.48226 -3 10
      vertex 9.13546 -4.06737 0
      vertex 9.78148 -2.07912 0
    endloop
  endfacet
  facet normal 0.951057 -0.309017 0
    outer loop
      vertex 9.48226 -3 14
      vertex 9.78148 -2.07912 14
      vertex 9.13546 -4.06737 30
    endloop
  endfacet
  facet normal 0.951057 -0.309017 0
    outer loop
      vertex 9.13546 -4.06737 30
      vertex 9.13546 -4.06737 0
      vertex 9.48226 -3 10
    endloop
  endfacet
  facet normal 0.951057 -0.309017 0
    outer loop
      vertex 9.78148 -2.07912 30
      vertex 9.13546 -4.06737 30
      vertex 9.78148 -2.07912 14
    endloop
  endfacet
  facet normal 0.951057 -0.309017 0
    outer loop
      vertex 9.48226 -3 10
      vertex 9.48226 -3 14
      vertex 9.13546 -4.06737 30
    endloop
  endfacet
  facet normal 0.951057 -0.309017 0
    outer loop
      vertex 9.78148 -2.07912 10
      vertex 9.48226 -3 10
      vertex 9.78148 -2.07912 0
    endloop
  endfacet
  facet normal 0.994522 -0.104528 0
    outer loop
      vertex 9.78148 -2.07912 10
      vertex 9.78148 -2.07912 0
      vertex 10 0 0
    endloop
  endfacet
  facet normal 0.994522 -0.104528 0
    outer loop
      vertex 10 0 10
      vertex 9.78148 -2.07912 10
      vertex 10 0 0
    endloop
  endfacet
  facet normal 0.994522 0.104528 0
    outer loop
      vertex 10 0 0
      vertex 9.78148 2.07912 0
      vertex 9.78148 2.07912 10
    endloop
  endfacet
  facet normal 0.994522 0.104528 0
    outer loop
      vertex 10 0 10
      vertex 10 0 0
      vertex 9.78148 2.07912 10
    endloop
  endfacet
  facet normal 0.951057 0.309017 0
    outer loop
      vertex 9.48226 3 10
      vertex 9.13546 4.06737 0
      vertex 9.13546 4.06737 30
    endloop
  endfacet
  facet normal 0.951057 0.309017 0
    outer loop
      vertex 9.48226 3 10
      vertex 9.78148 2.07912 10
      vertex 9.78148 2.07912 0
    endloop
  endfacet
  facet normal 0.951057 0.309017 0
    outer loop
      vertex 9.78148 2.07912 30
      vertex 9.78148 2.07912 14
      vertex 9.13546 4.06737 30
    endloop
  endfacet
  facet normal 0.951057 0.309017 0
    outer loop
      vertex 9.78148 2.07912 14
      vertex 9.48226 3 14
      vertex 9.13546 4.06737 30
    endloop
  endfacet
  facet normal 0.951057 0.309017 0
    outer loop
      vertex 9.78148 2.07912 0
      vertex 9.13546 4.06737 0
      vertex 9.48226 3 10
    endloop
  endfacet
  facet normal 0.951057 0.309017 0
    outer loop
      vertex 9.48226 3 14
      vertex 9.48226 3 10
      vertex 9.13546 4.06737 30
    endloop
  endfacet
  facet normal 0.866025 0.5 0
    outer loop
      vertex 9.13546 4.06737 0
      vertex 8.09017 5.87785 0
      vertex 8.09017 5.87785 30
    endloop
  endfacet
  facet normal 0.866025 0.5 0
    outer loop
      vertex 9.13546 4.06737 30
      vertex 9.13546 4.06737 0
      vertex 8.09017 5.87785 30
    endloop
  endfacet
  facet normal 0.743145 0.669131 0
    outer loop
      vertex 8.09017 5.87785 0
      vertex 6.69131 7.43145 0
      vertex 6.69131 7.43145 30
    endloop
  endfacet
  facet normal 0.743145 0.669131 0
    outer loop
      vertex 8.09017 5.87785 30
      vertex 8.09017 5.87785 0
      vertex 6.69131 7.43145 30
    endloop
  endfacet
  facet normal 0.587785 0.809017 0
    outer loop
      vertex 5 8.66025 0
      vertex 5 8.66025 30
      vertex 6.69131 7.43145 0
    endloop
  endfacet
  facet normal 0.587785 0.809017 0
    outer loop
      vertex 6.69131 7.43145 0
      vertex 5 8.66025 30
      vertex 6.69131 7.43145 30
    endloop
  endfacet
  facet normal 0.406737 0.913545 0
    outer loop
      vertex 3.09017 9.51056 0
      vertex 3.09017 9.51056 30
      vertex 5 8.66025 0
    endloop
  endfacet
  facet normal 0.406737 0.913545 0
    outer loop
      vertex 5 8.66025 0
      vertex 3.09017 9.51056 30
      vertex 5 8.66025 30
    endloop
  endfacet
  facet normal 0.207912 0.978148 0
    outer loop
      vertex 1.04529 9.94522 0
      vertex 1.04529 9.94522 30
      vertex 3.09017 9.51056 0
    endloop
  endfacet
  facet normal 0.207912 0.978148 0
    outer loop
      vertex 3.09017 9.51056 0
      vertex 1.04529 9.94522 30
      vertex 3.09017 9.51056 30
    endloop
  endfacet
  facet normal 0 1 0
    outer loop
      vertex -1.04529 9.94522 0
      vertex -1.04529 9.94522 30
      vertex 1.04529 9.94522 0
    endloop
  endfacet
  facet normal 0 1 0
    outer loop
      vertex 1.04529 9.94522 0
      vertex -1.04529 9.94522 30
      vertex 1.04529 9.94522 30
    endloop
  endfacet
  facet normal -0.207912 0.978148 0
    outer loop
      vertex -3.09017 9.51056 0
      vertex -3.09017 9.51056 30
      vertex -1.04529 9.94522 0
    endloop
  endfacet
  facet normal -0.207912 0.978148 0
    outer loop
      vertex -1.04529 9.94522 0
      vertex -3.09017 9.51056 30
      vertex -1.04529 9.94522 30
    endloop
  endfacet
  facet normal -0.406737 0.913545 0
    outer loop
      vertex -5 8.66025 0
      vertex -5 8.66025 30
      vertex -3.09017 9.51056 0
    endloop
  endfacet
  facet normal -0.406737 0.913545 0
    outer loop
      vertex -3.09017 9.51056 0
      vertex -5 8.66025 30
      vertex -3.09017 9.51056 30
    endloop
  endfacet
  facet normal -0.587785 0.809017 0
    outer loop
      vertex -6.69131 7.43145 0
      vertex -6.69131 7.43145 30
      vertex -5 8.66025 0
    endloop
  endfacet
  facet normal -0.587785 0.809017 0
    outer loop
      vertex -5 8.66025 0
      vertex -6.69131 7.43145 30
      vertex -5 8.66025 30
    endloop
  endfacet
  facet normal -0.743145 0.669131 0
    outer loop
      vertex -8.09017 5.87785 0
      vertex -8.09017 5.87785 30
      vertex -6.69131 7.43145 0
    endloop
  endfacet
  facet normal -0.743145 0.669131 0
    outer loop
      vertex -6.69131 7.43145 0
      vertex -8.09017 5.87785 30
      vertex -6.69131 7.43145 30
    endloop
  endfacet
  facet normal -0.866025 0.5 0
    outer loop
      vertex -9.13546 4.06737 0
      vertex -9.13546 4.06737 30
      vertex -8.09017 5.87785 0
    endloop
  endfacet
  facet normal -0.866025 0.5 0
    outer loop
      vertex -8.09017 5.87785 0
      vertex -9.13546 4.06737 30
      vertex -8.09017 5.87785 30
    endloop
  endfacet
  facet normal -0.951057 0.309017 0
    outer loop
      vertex -9.78148 2.07912 0
      vertex -9.78148 2.07912 10
      vertex -9.13546 4.06737 0
    endloop
  endfacet
  facet normal -0.951057 0.309017 0
    outer loop
      vertex -9.13546 4.06737 0
      vertex -9.78148 2.07912 10
      vertex -9.48226 3 10
    endloop
  endfacet
  facet normal -0.951057 0.309017 0
    outer loop
      vertex -9.13546 4.06737 0
      vertex -9.48226 3 10
      vertex -9.48226 3 14
    endloop
  endfacet
  facet normal -0.951057 0.309017 0
    outer loop
      vertex -9.48226 3 14
      vertex -9.78148 2.07912 14
      vertex -9.78148 2.07912 30
    endloop
  endfacet
  facet normal -0.951057 0.309017 0
    outer loop
      vertex -9.48226 3 14
      vertex -9.78148 2.07912 30
      vertex -9.13546 4.06737 0
    endloop
  endfacet
  facet normal -0.951057 0.309017 0
    outer loop
      vertex -9.13546 4.06737 0
      vertex -9.78148 2.07912 30
      vertex -9.13546 4.06737 30
    endloop
  endfacet
  facet normal 0.976621 -0.21497 0
    outer loop
      vertex -8.52888 2.87371 0
      vertex -8.52888 2.87371 10
      vertex -8.94724 0.973071 10
    endloop
  endfacet
  facet normal 0.976621 -0.21497 0
    outer loop
      vertex -8.94724 0.973071 0
      vertex -8.52888 2.87371 0
      vertex -8.94724 0.973071 10
    endloop
  endfacet
  facet normal 1 0 0
    outer loop
      vertex -8.94724 0.973071 0
      vertex -8.94724 0.973071 10
      vertex -8.94724 -0.973071 10
    endloop
  endfacet
  facet normal 1 0 0
    outer loop
      vertex -8.94724 -0.973071 0
      vertex -8.94724 0.973071 0
      vertex -8.94724 -0.973071 10
    endloop
  endfacet
  facet normal 0.907575 -0.419889 0
    outer loop
      vertex -7.71171 4.63998 0
      vertex -7.71171 4.63998 30
      vertex -8.52888 2.87371 30
    endloop
  endfacet
  facet normal 0.907575 -0.419889 0
    outer loop
      vertex -8.47045 3 14
      vertex -7.71171 4.63998 0
      vertex -8.52888 2.87371 30
    endloop
  endfacet
  facet normal 0.907575 -0.419889 0
    outer loop
      vertex -8.52888 2.87371 14
      vertex -8.47045 3 14
      vertex -8.52888 2.87371 30
    endloop
  endfacet
  facet normal 0.907575 -0.419889 0
    outer loop
      vertex -8.52888 2.87371 10
      vertex -7.71171 4.63998 0
      vertex -8.47045 3 10
    endloop
  endfacet
  facet normal 0.907575 -0.419889 0
    outer loop
      vertex -8.52888 2.87371 0
      vertex -7.71171 4.63998 0
      vertex -8.52888 2.87371 10
    endloop
  endfacet
  facet normal 0.907575 -0.419889 0
    outer loop
      vertex -8.47045 3 14
      vertex -8.47045 3 10
      vertex -7.71171 4.63998 0
    endloop
  endfacet
  facet normal 0.796093 -0.605175 0
    outer loop
      vertex -6.53396 6.18929 0
      vertex -6.53396 6.18929 30
      vertex -7.71171 4.63998 30
    endloop
  endfacet
  facet normal 0.796093 -0.605175 0
    outer loop
      vertex -7.71171 4.63998 0
      vertex -6.53396 6.18929 0
      vertex -7.71171 4.63998 30
    endloop
  endfacet
  facet normal 0.647387 -0.762162 0
    outer loop
      vertex -5.05068 7.4492 0
      vertex -5.05068 7.4492 30
      vertex -6.53396 6.18929 30
    endloop
  endfacet
  facet normal 0.647387 -0.762162 0
    outer loop
      vertex -6.53396 6.18929 0
      vertex -5.05068 7.4492 0
      vertex -6.53396 6.18929 30
    endloop
  endfacet
  facet normal 0.468408 -0.883512 0
    outer loop
      vertex -3.33124 8.36079 0
      vertex -3.33124 8.36079 30
      vertex -5.05068 7.4492 30
    endloop
  endfacet
  facet normal 0.468408 -0.883512 0
    outer loop
      vertex -5.05068 7.4492 0
      vertex -3.33124 8.36079 0
      vertex -5.05068 7.4492 30
    endloop
  endfacet
  facet normal 0.267529 -0.96355 0
    outer loop
      vertex -1.45604 8.88144 0
      vertex -1.45604 8.88144 30
      vertex -3.33124 8.36079 30
    endloop
  endfacet
  facet normal 0.267529 -0.96355 0
    outer loop
      vertex -3.33124 8.36079 0
      vertex -1.45604 8.88144 0
      vertex -3.33124 8.36079 30
    endloop
  endfacet
  facet normal 0.0541389 -0.998533 0
    outer loop
      vertex 0.48725 8.9868 0
      vertex 0.48725 8.9868 30
      vertex -1.45604 8.88144 30
    endloop
  endfacet
  facet normal 0.0541389 -0.998533 0
    outer loop
      vertex -1.45604 8.88144 0
      vertex 0.48725 8.9868 0
      vertex -1.45604 8.88144 30
    endloop
  endfacet
  facet normal -0.161782 -0.986827 0
    outer loop
      vertex 2.40775 8.67195 0
      vertex 2.40775 8.67195 30
      vertex 0.48725 8.9868 30
    endloop
  endfacet
  facet normal -0.161782 -0.986827 0
    outer loop
      vertex 0.48725 8.9868 0
      vertex 2.40775 8.67195 0
      vertex 0.48725 8.9868 30
    endloop
  endfacet
  facet normal -0.370138 -0.928977 0
    outer loop
      vertex 4.21568 7.95161 0
      vertex 4.21568 7.95161 30
      vertex 2.40775 8.67195 30
    endloop
  endfacet
  facet normal -0.370138 -0.928977 0
    outer loop
      vertex 2.40775 8.67195 0
      vertex 4.21568 7.95161 0
      vertex 2.40775 8.67195 30
    endloop
  endfacet
  facet normal -0.561187 -0.827689 0
    outer loop
      vertex 5.82648 6.85946 0
      vertex 5.82648 6.85946 30
      vertex 4.21568 7.95161 30
    endloop
  endfacet
  facet normal -0.561187 -0.827689 0
    outer loop
      vertex 4.21568 7.95161 0
      vertex 5.82648 6.85946 0
      vertex 4.21568 7.95161 30
    endloop
  endfacet
  facet normal -0.725995 -0.6877 0
    outer loop
      vertex 7.16484 5.44657 30
      vertex 5.82648 6.85946 30
      vertex 7.16484 5.44657 0
    endloop
  endfacet
  facet normal -0.725995 -0.6877 0
    outer loop
      vertex 7.16484 5.44657 0
      vertex 5.82648 6.85946 30
      vertex 5.82648 6.85946 0
    endloop
  endfacet
  facet normal -0.856857 -0.515554 0
    outer loop
      vertex 8.16818 3.779 30
      vertex 7.16484 5.44657 30
      vertex 8.16818 3.779 0
    endloop
  endfacet
  facet normal -0.856857 -0.515554 0
    outer loop
      vertex 8.16818 3.779 0
      vertex 7.16484 5.44657 30
      vertex 7.16484 5.44657 0
    endloop
  endfacet
  facet normal -0.947653 -0.319301 0
    outer loop
      vertex 8.78958 1.93473 10
      vertex 8.43066 3 10
      vertex 8.78958 1.93473 0
    endloop
  endfacet
  facet normal -0.947653 -0.319301 0
    outer loop
      vertex 8.16818 3.779 0
      vertex 8.43066 3 10
      vertex 8.16818 3.779 30
    endloop
  endfacet
  facet normal -0.947653 -0.319301 0
    outer loop
      vertex 8.78958 1.93473 30
      vertex 8.43066 3 14
      vertex 8.78958 1.93473 14
    endloop
  endfacet
  facet normal -0.947653 -0.319301 0
    outer loop
      vertex 8.16818 3.779 30
      vertex 8.43066 3 14
      vertex 8.78958 1.93473 30
    endloop
  endfacet
  facet normal -0.947653 -0.319301 0
    outer loop
      vertex 8.43066 3 10
      vertex 8.43066 3 14
      vertex 8.16818 3.779 30
    endloop
  endfacet
  facet normal -0.947653 -0.319301 0
    outer loop
      vertex 8.78958 1.93473 0
      vertex 8.43066 3 10
      vertex 8.16818 3.779 0
    endloop
  endfacet
  facet normal -0.994138 -0.108119 0
    outer loop
      vertex 9 0 10
      vertex 8.78958 1.93473 10
      vertex 9 0 0
    endloop
  endfacet
  facet normal -0.994138 -0.108119 0
    outer loop
      vertex 9 0 0
      vertex 8.78958 1.93473 10
      vertex 8.78958 1.93473 0
    endloop
  endfacet
  facet normal -0.994138 0.108119 0
    outer loop
      vertex 9 0 10
      vertex 9 0 0
      vertex 8.78958 -1.93473 10
    endloop
  endfacet
  facet normal -0.994138 0.108119 0
    outer loop
      vertex 8.78958 -1.93473 10
      vertex 9 0 0
      vertex 8.78958 -1.93473 0
    endloop
  endfacet
  facet normal -0.947653 0.319301 0
    outer loop
      vertex 8.78958 -1.93473 30
      vertex 8.78958 -1.93473 14
      vertex 8.16818 -3.779 30
    endloop
  endfacet
  facet normal -0.947653 0.319301 0
    outer loop
      vertex 8.16818 -3.779 30
      vertex 8.78958 -1.93473 14
      vertex 8.43066 -3 14
    endloop
  endfacet
  facet normal -0.947653 0.319301 0
    outer loop
      vertex 8.16818 -3.779 30
      vertex 8.43066 -3 14
      vertex 8.43066 -3 10
    endloop
  endfacet
  facet normal -0.947653 0.319301 0
    outer loop
      vertex 8.43066 -3 10
      vertex 8.78958 -1.93473 10
      vertex 8.78958 -1.93473 0
    endloop
  endfacet
  facet normal -0.947653 0.319301 0
    outer loop
      vertex 8.43066 -3 10
      vertex 8.78958 -1.93473 0
      vertex 8.16818 -3.779 0
    endloop
  endfacet
  facet normal -0.947653 0.319301 0
    outer loop
      vertex 8.43066 -3 10
      vertex 8.16818 -3.779 0
      vertex 8.16818 -3.779 30
    endloop
  endfacet
  facet normal -0.856857 0.515554 0
    outer loop
      vertex 8.16818 -3.779 30
      vertex 8.16818 -3.779 0
      vertex 7.16484 -5.44657 30
    endloop
  endfacet
  facet normal -0.856857 0.515554 0
    outer loop
      vertex 7.16484 -5.44657 30
      vertex 8.16818 -3.779 0
      vertex 7.16484 -5.44657 0
    endloop
  endfacet
  facet normal -0.725995 0.6877 0
    outer loop
      vertex 7.16484 -5.44657 30
      vertex 7.16484 -5.44657 0
      vertex 5.82648 -6.85946 30
    endloop
  endfacet
  facet normal -0.725995 0.6877 0
    outer loop
      vertex 5.82648 -6.85946 30
      vertex 7.16484 -5.44657 0
      vertex 5.82648 -6.85946 0
    endloop
  endfacet
  facet normal -0.561187 0.827689 0
    outer loop
      vertex 5.82648 -6.85946 30
      vertex 5.82648 -6.85946 0
      vertex 4.21568 -7.95161 30
    endloop
  endfacet
  facet normal -0.561187 0.827689 0
    outer loop
      vertex 4.21568 -7.95161 30
      vertex 5.82648 -6.85946 0
      vertex 4.21568 -7.95161 0
    endloop
  endfacet
  facet normal -0.370138 0.928977 0
    outer loop
      vertex 4.21568 -7.95161 30
      vertex 4.21568 -7.95161 0
      vertex 2.40775 -8.67195 30
    endloop
  endfacet
  facet normal -0.370138 0.928977 0
    outer loop
      vertex 2.40775 -8.67195 30
      vertex 4.21568 -7.95161 0
      vertex 2.40775 -8.67195 0
    endloop
  endfacet
  facet normal -0.161782 0.986827 0
    outer loop
      vertex 2.40775 -8.67195 30
      vertex 2.40775 -8.67195 0
      vertex 0.48725 -8.9868 30
    endloop
  endfacet
  facet normal -0.161782 0.986827 0
    outer loop
      vertex 0.48725 -8.9868 30
      vertex 2.40775 -8.67195 0
      vertex 0.48725 -8.9868 0
    endloop
  endfacet
  facet normal 0.0541389 0.998533 0
    outer loop
      vertex 0.48725 -8.9868 30
      vertex 0.48725 -8.9868 0
      vertex -1.45604 -8.88144 30
    endloop
  endfacet
  facet normal 0.0541389 0.998533 0
    outer loop
      vertex -1.45604 -8.88144 30
      vertex 0.48725 -8.9868 0
      vertex -1.45604 -8.88144 0
    endloop
  endfacet
  facet normal 0.267529 0.96355 0
    outer loop
      vertex -1.45604 -8.88144 30
      vertex -1.45604 -8.88144 0
      vertex -3.33124 -8.36079 30
    endloop
  endfacet
  facet normal 0.267529 0.96355 0
    outer loop
      vertex -3.33124 -8.36079 30
      vertex -1.45604 -8.88144 0
      vertex -3.33124 -8.36079 0
    endloop
  endfacet
  facet normal 0.468408 0.883512 0
    outer loop
      vertex -3.33124 -8.36079 30
      vertex -3.33124 -8.36079 0
      vertex -5.05068 -7.4492 30
    endloop
  endfacet
  facet normal 0.468408 0.883512 0
    outer loop
      vertex -5.05068 -7.4492 30
      vertex -3.33124 -8.36079 0
      vertex -5.05068 -7.4492 0
    endloop
  endfacet
  facet normal 0.647387 0.762162 0
    outer loop
      vertex -5.05068 -7.4492 30
      vertex -5.05068 -7.4492 0
      vertex -6.53396 -6.18929 30
    endloop
  endfacet
  facet normal 0.647387 0.762162 0
    outer loop
      vertex -6.53396 -6.18929 30
      vertex -5.05068 -7.4492 0
      vertex -6.53396 -6.18929 0
    endloop
  endfacet
  facet normal 0.796093 0.605175 0
    outer loop
      vertex -7.71171 -4.63998 30
      vertex -6.53396 -6.18929 30
      vertex -6.53396 -6.18929 0
    endloop
  endfacet
  facet normal 0.796093 0.605175 0
    outer loop
      vertex -7.71171 -4.63998 0
      vertex -7.71171 -4.63998 30
      vertex -6.53396 -6.18929 0
    endloop
  endfacet
  facet normal 0.907575 0.419889 0
    outer loop
      vertex -7.71171 -4.63998 30
      vertex -8.47045 -3 10
      vertex -8.47045 -3 14
    endloop
  endfacet
  facet normal 0.907575 0.419889 0
    outer loop
      vertex -8.52888 -2.87371 10
      vertex -8.47045 -3 10
      vertex -7.71171 -4.63998 0
    endloop
  endfacet
  facet normal 0.907575 0.419889 0
    outer loop
      vertex -8.52888 -2.87371 14
      vertex -8.52888 -2.87371 30
      vertex -8.47045 -3 14
    endloop
  endfacet
  facet normal 0.907575 0.419889 0
    outer loop
      vertex -8.52888 -2.87371 30
      vertex -7.71171 -4.63998 30
      vertex -8.47045 -3 14
    endloop
  endfacet
  facet normal 0.907575 0.419889 0
    outer loop
      vertex -7.71171 -4.63998 30
      vertex -7.71171 -4.63998 0
      vertex -8.47045 -3 10
    endloop
  endfacet
  facet normal 0.907575 0.419889 0
    outer loop
      vertex -7.71171 -4.63998 0
      vertex -8.52888 -2.87371 0
      vertex -8.52888 -2.87371 10
    endloop
  endfacet
  facet normal 0.976621 0.21497 0
    outer loop
      vertex -8.94724 -0.973071 10
      vertex -8.52888 -2.87371 10
      vertex -8.52888 -2.87371 0
    endloop
  endfacet
  facet normal 0.976621 0.21497 0
    outer loop
      vertex -8.94724 -0.973071 0
      vertex -8.94724 -0.973071 10
      vertex -8.52888 -2.87371 0
    endloop
  endfacet
  facet normal 0 0 1
    outer loop
      vertex -9.78148 -2.07912 10
      vertex -9.48226 -3 10
      vertex -8.47045 -3 10
    endloop
  endfacet
  facet normal 0 0 1
    outer loop
      vertex -8.94724 -0.973071 10
      vertex -9.78148 -2.07912 10
      vertex -8.52888 -2.87371 10
    endloop
  endfacet
  facet normal 0 0 1
    outer loop
      vertex -8.52888 -2.87371 10
      vertex -9.78148 -2.07912 10
      vertex -8.47045 -3 10
    endloop
  endfacet
  facet normal 0 0 1
    outer loop
      vertex -8.94724 0.973071 10
      vertex -9.78148 -2.07912 10
      vertex -8.94724 -0.973071 10
    endloop
  endfacet
  facet normal 0 0 1
    outer loop
      vertex -8.52888 2.87371 10
      vertex -9.78148 -2.07912 10
      vertex -8.94724 0.973071 10
    endloop
  endfacet
  facet normal 0 0 1
    outer loop
      vertex -9.48226 3 10
      vertex -9.78148 -2.07912 10
      vertex -8.52888 2.87371 10
    endloop
  endfacet
  facet normal 0 0 1
    outer loop
      vertex -9.48226 3 10
      vertex -8.52888 2.87371 10
      vertex -8.47045 3 10
    endloop
  endfacet
  facet normal 0 0 1
    outer loop
      vertex -9.78148 2.07912 10
      vertex -9.78148 -2.07912 10
      vertex -9.48226 3 10
    endloop
  endfacet
  facet normal 0 0 1
    outer loop
      vertex -10 0 10
      vertex -9.78148 -2.07912 10
      vertex -9.78148 2.07912 10
    endloop
  endfacet
  facet normal 0 1 0
    outer loop
      vertex -8.47045 -3 14
      vertex -8.47045 -3 10
      vertex -9.48226 -3 14
    endloop
  endfacet
  facet normal 0 1 0
    outer loop
      vertex -9.48226 -3 14
      vertex -8.47045 -3 10
      vertex -9.48226 -3 10
    endloop
  endfacet
  facet normal 0 0 -1
    outer loop
      vertex -9.48226 3 14
      vertex -8.47045 3 14
      vertex -9.78148 2.07912 14
    endloop
  endfacet
  facet normal 0 0 -1
    outer loop
      vertex -9.78148 2.07912 14
      vertex -8.47045 3 14
      vertex -8.52888 2.87371 14
    endloop
  endfacet
  facet normal 0 0 -1
    outer loop
      vertex -9.78148 2.07912 14
      vertex -8.52888 2.87371 14
      vertex -8.94724 0.973071 14
    endloop
  endfacet
  facet normal 0 0 -1
    outer loop
      vertex -8.94724 0.973071 14
      vertex -8.94724 -0.973071 14
      vertex -9.78148 2.07912 14
    endloop
  endfacet
  facet normal 0 0 -1
    outer loop
      vertex -8.94724 -0.973071 14
      vertex -8.52888 -2.87371 14
      vertex -9.78148 2.07912 14
    endloop
  endfacet
  facet normal 0 0 -1
    outer loop
      vertex -8.52888 -2.87371 14
      vertex -8.47045 -3 14
      vertex -9.48226 -3 14
    endloop
  endfacet
  facet normal 0 0 -1
    outer loop
      vertex -8.52888 -2.87371 14
      vertex -9.48226 -3 14
      vertex -9.78148 2.07912 14
    endloop
  endfacet
  facet normal 0 0 -1
    outer loop
      vertex -9.78148 2.07912 14
      vertex -9.48226 -3 14
      vertex -9.78148 -2.07912 14
    endloop
  endfacet
  facet normal 0 0 -1
    outer loop
      vertex -9.78148 2.07912 14
      vertex -9.78148 -2.07912 14
      vertex -10 0 14
    endloop
  endfacet
  facet normal -0.994522 -0.104528 0
    outer loop
      vertex -10 0 14
      vertex -9.78148 -2.07912 14
      vertex -10 0 30
    endloop
  endfacet
  facet normal -0.994522 -0.104528 0
    outer loop
      vertex -10 0 30
      vertex -9.78148 -2.07912 14
      vertex -9.78148 -2.07912 30
    endloop
  endfacet
  facet normal 0 0 1
    outer loop
      vertex -9.78148 2.07912 30
      vertex -10 0 30
      vertex -9.78148 -2.07912 30
    endloop
  endfacet
  facet normal 0 0 1
    outer loop
      vertex -8.09017 -5.87785 30
      vertex -9.78148 2.07912 30
      vertex -9.13546 -4.06737 30
    endloop
  endfacet
  facet normal 0 0 1
    outer loop
      vertex -9.13546 -4.06737 30
      vertex -9.78148 2.07912 30
      vertex -9.78148 -2.07912 30
    endloop
  endfacet
  facet normal 0 0 1
    outer loop
      vertex -8.94724 -0.973071 30
      vertex -9.78148 2.07912 30
      vertex -8.09017 -5.87785 30
    endloop
  endfacet
  facet normal 0 0 1
    outer loop
      vertex 0.48725 8.9868 30
      vertex 2.40775 8.67195 30
      vertex 3.09017 9.51056 30
    endloop
  endfacet
  facet normal 0 0 1
    outer loop
      vertex -1.45604 8.88144 30
      vertex 0.48725 8.9868 30
      vertex 1.04529 9.94522 30
    endloop
  endfacet
  facet normal 0 0 1
    outer loop
      vertex -6.69131 7.43145 30
      vertex -9.78148 2.07912 30
      vertex -5 8.66025 30
    endloop
  endfacet
  facet normal 0 0 1
    outer loop
      vertex -8.09017 5.87785 30
      vertex -9.78148 2.07912 30
      vertex -6.69131 7.43145 30
    endloop
  endfacet
  facet normal 0 0 1
    outer loop
      vertex -9.13546 4.06737 30
      vertex -9.78148 2.07912 30
      vertex -8.09017 5.87785 30
    endloop
  endfacet
  facet normal 0 0 1
    outer loop
      vertex -8.52888 -2.87371 30
      vertex -8.94724 -0.973071 30
      vertex -8.09017 -5.87785 30
    endloop
  endfacet
  facet normal 0 0 1
    outer loop
      vertex 8.16818 3.779 30
      vertex 8.78958 1.93473 30
      vertex 9.78148 2.07912 30
    endloop
  endfacet
  facet normal 0 0 1
    outer loop
      vertex -3.33124 -8.36079 30
      vertex -5.05068 -7.4492 30
      vertex -3.09017 -9.51056 30
    endloop
  endfacet
  facet normal 0 0 1
    outer loop
      vertex 2.40775 8.67195 30
      vertex 4.21568 7.95161 30
      vertex 5 8.66025 30
    endloop
  endfacet
  facet normal 0 0 1
    outer loop
      vertex -3.33124 8.36079 30
      vertex -1.45604 8.88144 30
      vertex -1.04529 9.94522 30
    endloop
  endfacet
  facet normal 0 0 1
    outer loop
      vertex -5 8.66025 30
      vertex -9.78148 2.07912 30
      vertex -7.71171 4.63998 30
    endloop
  endfacet
  facet normal 0 0 1
    outer loop
      vertex -5 8.66025 30
      vertex -6.53396 6.18929 30
      vertex -3.09017 9.51056 30
    endloop
  endfacet
  facet normal 0 0 1
    outer loop
      vertex -5 8.66025 30
      vertex -7.71171 4.63998 30
      vertex -6.53396 6.18929 30
    endloop
  endfacet
  facet normal 0 0 1
    outer loop
      vertex -6.53396 6.18929 30
      vertex -5.05068 7.4492 30
      vertex -3.09017 9.51056 30
    endloop
  endfacet
  facet normal 0 0 1
    outer loop
      vertex -3.09017 9.51056 30
      vertex -3.33124 8.36079 30
      vertex -1.04529 9.94522 30
    endloop
  endfacet
  facet normal 0 0 1
    outer loop
      vertex -5.05068 7.4492 30
      vertex -3.33124 8.36079 30
      vertex -3.09017 9.51056 30
    endloop
  endfacet
  facet normal 0 0 1
    outer loop
      vertex -1.04529 9.94522 30
      vertex -1.45604 8.88144 30
      vertex 1.04529 9.94522 30
    endloop
  endfacet
  facet normal 0 0 1
    outer loop
      vertex 1.04529 9.94522 30
      vertex 0.48725 8.9868 30
      vertex 3.09017 9.51056 30
    endloop
  endfacet
  facet normal 0 0 1
    outer loop
      vertex 3.09017 9.51056 30
      vertex 2.40775 8.67195 30
      vertex 5 8.66025 30
    endloop
  endfacet
  facet normal 0 0 1
    outer loop
      vertex 5 8.66025 30
      vertex 4.21568 7.95161 30
      vertex 6.69131 7.43145 30
    endloop
  endfacet
  facet normal 0 0 1
    outer loop
      vertex 0.48725 -8.9868 30
      vertex -1.45604 -8.88144 30
      vertex 1.04529 -9.94522 30
    endloop
  endfacet
  facet normal 0 0 1
    outer loop
      vertex 6.69131 7.43145 30
      vertex 5.82648 6.85946 30
      vertex 8.09017 5.87785 30
    endloop
  endfacet
  facet normal 0 0 1
    outer loop
      vertex -8.52888 2.87371 30
      vertex -7.71171 4.63998 30
      vertex -9.78148 2.07912 30
    endloop
  endfacet
  facet normal 0 0 1
    outer loop
      vertex 8.09017 5.87785 30
      vertex 7.16484 5.44657 30
      vertex 9.13546 4.06737 30
    endloop
  endfacet
  facet normal 0 0 1
    outer loop
      vertex 9.13546 4.06737 30
      vertex 8.16818 3.779 30
      vertex 9.78148 2.07912 30
    endloop
  endfacet
  facet normal 0 0 1
    outer loop
      vertex 9.78148 2.07912 30
      vertex 8.78958 1.93473 30
      vertex 10 0 30
    endloop
  endfacet
  facet normal 0 0 1
    outer loop
      vertex 10 0 30
      vertex 9 0 30
      vertex 9.78148 -2.07912 30
    endloop
  endfacet
  facet normal 0 0 1
    outer loop
      vertex 9.78148 -2.07912 30
      vertex 8.78958 -1.93473 30
      vertex 9.13546 -4.06737 30
    endloop
  endfacet
  facet normal 0 0 1
    outer loop
      vertex 9.13546 -4.06737 30
      vertex 8.16818 -3.779 30
      vertex 8.09017 -5.87785 30
    endloop
  endfacet
  facet normal 0 0 1
    outer loop
      vertex 8.16818 -3.779 30
      vertex 7.16484 -5.44657 30
      vertex 8.09017 -5.87785 30
    endloop
  endfacet
  facet normal 0 0 1
    outer loop
      vertex 8.09017 -5.87785 30
      vertex 5.82648 -6.85946 30
      vertex 6.69131 -7.43145 30
    endloop
  endfacet
  facet normal 0 0 1
    outer loop
      vertex 6.69131 -7.43145 30
      vertex 4.21568 -7.95161 30
      vertex 5 -8.66025 30
    endloop
  endfacet
  facet normal 0 0 1
    outer loop
      vertex 5 -8.66025 30
      vertex 2.40775 -8.67195 30
      vertex 3.09017 -9.51056 30
    endloop
  endfacet
  facet normal 0 0 1
    outer loop
      vertex 3.09017 -9.51056 30
      vertex 0.48725 -8.9868 30
      vertex 1.04529 -9.94522 30
    endloop
  endfacet
  facet normal 0 0 1
    outer loop
      vertex 1.04529 -9.94522 30
      vertex -1.45604 -8.88144 30
      vertex -1.04529 -9.94522 30
    endloop
  endfacet
  facet normal 0 0 1
    outer loop
      vertex -1.04529 -9.94522 30
      vertex -3.33124 -8.36079 30
      vertex -3.09017 -9.51056 30
    endloop
  endfacet
  facet normal 0 0 1
    outer loop
      vertex 4.21568 7.95161 30
      vertex 5.82648 6.85946 30
      vertex 6.69131 7.43145 30
    endloop
  endfacet
  facet normal 0 0 1
    outer loop
      vertex -3.09017 -9.51056 30
      vertex -5.05068 -7.4492 30
      vertex -5 -8.66025 30
    endloop
  endfacet
  facet normal 0 0 1
    outer loop
      vertex 5.82648 6.85946 30
      vertex 7.16484 5.44657 30
      vertex 8.09017 5.87785 30
    endloop
  endfacet
  facet normal 0 0 1
    outer loop
      vertex -5 -8.66025 30
      vertex -6.53396 -6.18929 30
      vertex -6.69131 -7.43145 30
    endloop
  endfacet
  facet normal 0 0 1
    outer loop
      vertex 7.16484 5.44657 30
      vertex 8.16818 3.779 30
      vertex 9.13546 4.06737 30
    endloop
  endfacet
  facet normal 0 0 1
    outer loop
      vertex -6.69131 -7.43145 30
      vertex -7.71171 -4.63998 30
      vertex -8.09017 -5.87785 30
    endloop
  endfacet
  facet normal 0 0 1
    outer loop
      vertex -7.71171 -4.63998 30
      vertex -8.52888 -2.87371 30
      vertex -8.09017 -5.87785 30
    endloop
  endfacet
  facet normal 0 0 1
    outer loop
      vertex -5.05068 -7.4492 30
      vertex -6.53396 -6.18929 30
      vertex -5 -8.66025 30
    endloop
  endfacet
  facet normal 0 0 1
    outer loop
      vertex -8.94724 -0.973071 30
      vertex -8.94724 0.973071 30
      vertex -9.78148 2.07912 30
    endloop
  endfacet
  facet normal 0 0 1
    outer loop
      vertex 8.78958 1.93473 30
      vertex 9 0 30
      vertex 10 0 30
    endloop
  endfacet
  facet normal 0 0 1
    outer loop
      vertex 9 0 30
      vertex 8.78958 -1.93473 30
      vertex 9.78148 -2.07912 30
    endloop
  endfacet
  facet normal 0 0 1
    outer loop
      vertex 8.78958 -1.93473 30
      vertex 8.16818 -3.779 30
      vertex 9.13546 -4.06737 30
    endloop
  endfacet
  facet normal 0 0 1
    outer loop
      vertex 4.21568 -7.95161 30
      vertex 2.40775 -8.67195 30
      vertex 5 -8.66025 30
    endloop
  endfacet
  facet normal 0 0 1
    outer loop
      vertex 7.16484 -5.44657 30
      vertex 5.82648 -6.85946 30
      vertex 8.09017 -5.87785 30
    endloop
  endfacet
  facet normal 0 0 1
    outer loop
      vertex 5.82648 -6.85946 30
      vertex 4.21568 -7.95161 30
      vertex 6.69131 -7.43145 30
    endloop
  endfacet
  facet normal 0 0 1
    outer loop
      vertex 2.40775 -8.67195 30
      vertex 0.48725 -8.9868 30
      vertex 3.09017 -9.51056 30
    endloop
  endfacet
  facet normal 0 0 1
    outer loop
      vertex -6.53396 -6.18929 30
      vertex -7.71171 -4.63998 30
      vertex -6.69131 -7.43145 30
    endloop
  endfacet
  facet normal 0 0 1
    outer loop
      vertex -1.45604 -8.88144 30
      vertex -3.33124 -8.36079 30
      vertex -1.04529 -9.94522 30
    endloop
  endfacet
  facet normal 0 0 1
    outer loop
      vertex -8.94724 0.973071 30
      vertex -8.52888 2.87371 30
      vertex -9.78148 2.07912 30
    endloop
  endfacet
  facet normal 0.994522 -0.104528 0
    outer loop
      vertex 9.78148 -2.07912 30
      vertex 9.78148 -2.07912 14
      vertex 10 0 14
    endloop
  endfacet
  facet normal 0.994522 -0.104528 0
    outer loop
      vertex 10 0 30
      vertex 9.78148 -2.07912 30
      vertex 10 0 14
    endloop
  endfacet
  facet normal 0 0 -1
    outer loop
      vertex 9.48226 3 14
      vertex 8.78958 1.93473 14
      vertex 8.43066 3 14
    endloop
  endfacet
  facet normal 0 0 -1
    outer loop
      vertex 9 0 14
      vertex 8.78958 1.93473 14
      vertex 9.48226 3 14
    endloop
  endfacet
  facet normal 0 0 -1
    outer loop
      vertex 9 0 14
      vertex 9.48226 3 14
      vertex 8.78958 -1.93473 14
    endloop
  endfacet
  facet normal 0 0 -1
    outer loop
      vertex 9.48226 3 14
      vertex 9.78148 2.07912 14
      vertex 8.78958 -1.93473 14
    endloop
  endfacet
  facet normal 0 0 -1
    outer loop
      vertex 9.78148 2.07912 14
      vertex 10 0 14
      vertex 8.78958 -1.93473 14
    endloop
  endfacet
  facet normal 0 0 -1
    outer loop
      vertex 10 0 14
      vertex 9.78148 -2.07912 14
      vertex 8.78958 -1.93473 14
    endloop
  endfacet
  facet normal 0 0 -1
    outer loop
      vertex 9.78148 -2.07912 14
      vertex 9.48226 -3 14
      vertex 8.78958 -1.93473 14
    endloop
  endfacet
  facet normal 0 0 -1
    outer loop
      vertex 9.48226 -3 14
      vertex 8.43066 -3 14
      vertex 8.78958 -1.93473 14
    endloop
  endfacet
  facet normal 0 1 0
    outer loop
      vertex 9.48226 -3 14
      vertex 9.48226 -3 10
      vertex 8.43066 -3 14
    endloop
  endfacet
  facet normal 0 1 0
    outer loop
      vertex 8.43066 -3 14
      vertex 9.48226 -3 10
      vertex 8.43066 -3 10
    endloop
  endfacet
  facet normal 0 0 1
    outer loop
      vertex 9.48226 -3 10
      vertex 9.78148 -2.07912 10
      vertex 10 0 10
    endloop
  endfacet
  facet normal 0 0 1
    outer loop
      vertex 9.48226 3 10
      vertex 9.48226 -3 10
      vertex 9.78148 2.07912 10
    endloop
  endfacet
  facet normal 0 0 1
    outer loop
      vertex 9.78148 2.07912 10
      vertex 9.48226 -3 10
      vertex 10 0 10
    endloop
  endfacet
  facet normal 0 0 1
    outer loop
      vertex 8.78958 1.93473 10
      vertex 9.48226 -3 10
      vertex 9.48226 3 10
    endloop
  endfacet
  facet normal 0 0 1
    outer loop
      vertex 8.43066 3 10
      vertex 8.78958 1.93473 10
      vertex 9.48226 3 10
    endloop
  endfacet
  facet normal 0 0 1
    outer loop
      vertex 9 0 10
      vertex 9.48226 -3 10
      vertex 8.78958 1.93473 10
    endloop
  endfacet
  facet normal 0 0 1
    outer loop
      vertex 8.43066 -3 10
      vertex 9.48226 -3 10
      vertex 8.78958 -1.93473 10
    endloop
  endfacet
  facet normal 0 0 1
    outer loop
      vertex 9 0 10
      vertex 8.78958 -1.93473 10
      vertex 9.48226 -3 10
    endloop
  endfacet
  facet normal 0 -1 0
    outer loop
      vertex 9.48226 3 10
      vertex 9.48226 3 14
      vertex 8.43066 3 14
    endloop
  endfacet
  facet normal 0 -1 0
    outer loop
      vertex 8.43066 3 10
      vertex 9.48226 3 10
      vertex 8.43066 3 14
    endloop
  endfacet
  facet normal 0.994522 0.104528 0
    outer loop
      vertex 10 0 14
      vertex 9.78148 2.07912 14
      vertex 9.78148 2.07912 30
    endloop
  endfacet
  facet normal 0.994522 0.104528 0
    outer loop
      vertex 10 0 30
      vertex 10 0 14
      vertex 9.78148 2.07912 30
    endloop
  endfacet
  facet normal -0.994522 0.104528 0
    outer loop
      vertex -10 0 14
      vertex -10 0 30
      vertex -9.78148 2.07912 14
    endloop
  endfacet
  facet normal -0.994522 0.104528 0
    outer loop
      vertex -9.78148 2.07912 14
      vertex -10 0 30
      vertex -9.78148 2.07912 30
    endloop
  endfacet
  facet normal 0 -1 0
    outer loop
      vertex -8.47045 3 10
      vertex -8.47045 3 14
      vertex -9.48226 3 14
    endloop
  endfacet
  facet normal 0 -1 0
    outer loop
      vertex -9.48226 3 10
      vertex -8.47045 3 10
      vertex -9.48226 3 14
    endloop
  endfacet
  facet normal 0.976621 -0.21497 0
    outer loop
      vertex -8.52888 2.87371 14
      vertex -8.52888 2.87371 30
      vertex -8.94724 0.973071 30
    endloop
  endfacet
  facet normal 0.976621 -0.21497 0
    outer loop
      vertex -8.94724 0.973071 14
      vertex -8.52888 2.87371 14
      vertex -8.94724 0.973071 30
    endloop
  endfacet
  facet normal -0.994138 -0.108119 0
    outer loop
      vertex 9 0 30
      vertex 8.78958 1.93473 30
      vertex 9 0 14
    endloop
  endfacet
  facet normal -0.994138 -0.108119 0
    outer loop
      vertex 9 0 14
      vertex 8.78958 1.93473 30
      vertex 8.78958 1.93473 14
    endloop
  endfacet
  facet normal -0.994138 0.108119 0
    outer loop
      vertex 9 0 30
      vertex 9 0 14
      vertex 8.78958 -1.93473 30
    endloop
  endfacet
  facet normal -0.994138 0.108119 0
    outer loop
      vertex 8.78958 -1.93473 30
      vertex 9 0 14
      vertex 8.78958 -1.93473 14
    endloop
  endfacet
  facet normal 0.976621 0.21497 0
    outer loop
      vertex -8.94724 -0.973071 30
      vertex -8.52888 -2.87371 30
      vertex -8.52888 -2.87371 14
    endloop
  endfacet
  facet normal 0.976621 0.21497 0
    outer loop
      vertex -8.94724 -0.973071 14
      vertex -8.94724 -0.973071 30
      vertex -8.52888 -2.87371 14
    endloop
  endfacet
  facet normal 1 0 0
    outer loop
      vertex -8.94724 0.973071 14
      vertex -8.94724 0.973071 30
      vertex -8.94724 -0.973071 30
    endloop
  endfacet
  facet normal 1 0 0
    outer loop
      vertex -8.94724 -0.973071 14
      vertex -8.94724 0.973071 14
      vertex -8.94724 -0.973071 30
    endloop
  endfacet
endsolid OpenSCAD_Model
