solid OpenSCAD_Model
  facet normal -1 0 0
    outer loop
      vertex 0 0 0
      vertex 0 0 20
      vertex 0 5 0
    endloop
  endfacet
  facet normal -1 0 0
    outer loop
      vertex 0 5 0
      vertex 0 0 20
      vertex 0 5 20
    endloop
  endfacet
  facet normal 0 -1 0
    outer loop
      vertex 0 0 20
      vertex 0 0 0
      vertex 7.5 0 0
    endloop
  endfacet
  facet normal 0 -1 0
    outer loop
      vertex 5 0 15
      vertex 0 0 20
      vertex 7.5 0 9
    endloop
  endfacet
  facet normal 0 -1 0
    outer loop
      vertex 7.5 0 9
      vertex 0 0 20
      vertex 7.5 0 0
    endloop
  endfacet
  facet normal 0 -1 0
    outer loop
      vertex 20 0 0
      vertex 12.5 0 9
      vertex 12.5 0 0
    endloop
  endfacet
  facet normal 0 -1 0
    outer loop
      vertex 20 0 20
      vertex 12.5 0 9
      vertex 20 0 0
    endloop
  endfacet
  facet normal 0 -1 0
    outer loop
      vertex 20 0 20
      vertex 15 0 15
      vertex 12.5 0 9
    endloop
  endfacet
  facet normal 0 -1 0
    outer loop
      vertex 20 0 20
      vertex 15 0 20
      vertex 15 0 15
    endloop
  endfacet
  facet normal 0 -1 0
    outer loop
      vertex 12.5 0 9
      vertex 5 0 15
      vertex 7.5 0 9
    endloop
  endfacet
  facet normal 0 -1 0
    outer loop
      vertex 5 0 15
      vertex 5 0 20
      vertex 0 0 20
    endloop
  endfacet
  facet normal 0 -1 0
    outer loop
      vertex 15 0 15
      vertex 5 0 15
      vertex 12.5 0 9
    endloop
  endfacet
  facet normal 0 0 -1
    outer loop
      vertex 0 0 0
      vertex 0 5 0
      vertex 7.5 0 0
    endloop
  endfacet
  facet normal 0 0 -1
    outer loop
      vertex 7.5 1 0
      vertex 0 5 0
      vertex 20 5 0
    endloop
  endfacet
  facet normal 0 0 -1
    outer loop
      vertex 12.5 0 0
      vertex 20 5 0
      vertex 20 0 0
    endloop
  endfacet
  facet normal 0 0 -1
    outer loop
      vertex 12.5 1 0
      vertex 20 5 0
      vertex 12.5 0 0
    endloop
  endfacet
  facet normal 0 0 -1
    outer loop
      vertex 7.5 0 0
      vertex 0 5 0
      vertex 7.5 1 0
    endloop
  endfacet
  facet normal 0 0 -1
    outer loop
      vertex 7.5 1 0
      vertex 20 5 0
      vertex 12.5 1 0
    endloop
  endfacet
  facet normal 0 1 0
    outer loop
      vertex 0 5 0
      vertex 5 5 15
      vertex 20 5 0
    endloop
  endfacet
  facet normal 0 1 0
    outer loop
      vertex 5 5 15
      vertex 0 5 20
      vertex 5 5 20
    endloop
  endfacet
  facet normal 0 1 0
    outer loop
      vertex 0 5 0
      vertex 0 5 20
      vertex 5 5 15
    endloop
  endfacet
  facet normal 0 1 0
    outer loop
      vertex 20 5 0
      vertex 15 5 15
      vertex 15 5 20
    endloop
  endfacet
  facet normal 0 1 0
    outer loop
      vertex 20 5 0
      vertex 15 5 20
      vertex 20 5 20
    endloop
  endfacet
  facet normal 0 1 0
    outer loop
      vertex 15 5 15
      vertex 20 5 0
      vertex 5 5 15
    endloop
  endfacet
  facet normal 0 0 1
    outer loop
      vertex 0.0251263 0.0251263 20
      vertex 0 0 20
      vertex 5 0 20
    endloop
  endfacet
  facet normal 0 0 1
    outer loop
      vertex 4.97487 0.0251263 20
      vertex 0.0251263 0.0251263 20
      vertex 5 0 20
    endloop
  endfacet
  facet normal 0 0 1
    outer loop
      vertex 0 5 20
      vertex 0 0 20
      vertex 0.0251263 0.0251263 20
    endloop
  endfacet
  facet normal 0 0 1
    outer loop
      vertex 5 5 20
      vertex 0 5 20
      vertex 0.0251263 4.97487 20
    endloop
  endfacet
  facet normal 0 0 1
    outer loop
      vertex 5 5 20
      vertex 4.97487 4.97487 20
      vertex 5 0 20
    endloop
  endfacet
  facet normal 0 0 1
    outer loop
      vertex 5 5 20
      vertex 0.0251263 4.97487 20
      vertex 4.97487 4.97487 20
    endloop
  endfacet
  facet normal 0 0 1
    outer loop
      vertex 4.97487 4.97487 20
      vertex 4.97487 0.0251263 20
      vertex 5 0 20
    endloop
  endfacet
  facet normal 0 0 1
    outer loop
      vertex 0.0251263 0.0251263 20
      vertex 0.0251263 4.97487 20
      vertex 0 5 20
    endloop
  endfacet
  facet normal 1 0 0
    outer loop
      vertex 5 0 20
      vertex 5 0 15
      vertex 5 5 15
    endloop
  endfacet
  facet normal 1 0 0
    outer loop
      vertex 5 5 20
      vertex 5 0 20
      vertex 5 5 15
    endloop
  endfacet
  facet normal 0 0 1
    outer loop
      vertex 5 5 15
      vertex 5 0 15
      vertex 15 0 15
    endloop
  endfacet
  facet normal 0 0 1
    outer loop
      vertex 15 5 15
      vertex 5 5 15
      vertex 15 0 15
    endloop
  endfacet
  facet normal -1 0 0
    outer loop
      vertex 15 5 20
      vertex 15 5 15
      vertex 15 0 20
    endloop
  endfacet
  facet normal -1 0 0
    outer loop
      vertex 15 0 20
      vertex 15 5 15
      vertex 15 0 15
    endloop
  endfacet
  facet normal 0 0 1
    outer loop
      vertex 15.0251 0.0251263 20
      vertex 15 0 20
      vertex 20 0 20
    endloop
  endfacet
  facet normal 0 0 1
    outer loop
      vertex 19.9749 0.0251263 20
      vertex 15.0251 0.0251263 20
      vertex 20 0 20
    endloop
  endfacet
  facet normal 0 0 1
    outer loop
      vertex 15 5 20
      vertex 15 0 20
      vertex 15.0251 0.0251263 20
    endloop
  endfacet
  facet normal 0 0 1
    outer loop
      vertex 20 5 20
      vertex 15 5 20
      vertex 15.0251 4.97487 20
    endloop
  endfacet
  facet normal 0 0 1
    outer loop
      vertex 20 5 20
      vertex 19.9749 4.97487 20
      vertex 20 0 20
    endloop
  endfacet
  facet normal 0 0 1
    outer loop
      vertex 20 5 20
      vertex 15.0251 4.97487 20
      vertex 19.9749 4.97487 20
    endloop
  endfacet
  facet normal 0 0 1
    outer loop
      vertex 19.9749 4.97487 20
      vertex 19.9749 0.0251263 20
      vertex 20 0 20
    endloop
  endfacet
  facet normal 0 0 1
    outer loop
      vertex 15.0251 0.0251263 20
      vertex 15.0251 4.97487 20
      vertex 15 5 20
    endloop
  endfacet
  facet normal 1 0 0
    outer loop
      vertex 20 0 20
      vertex 20 0 0
      vertex 20 5 0
    endloop
  endfacet
  facet normal 1 0 0
    outer loop
      vertex 20 5 20
      vertex 20 0 20
      vertex 20 5 0
    endloop
  endfacet
  facet normal -1 0 0
    outer loop
      vertex 12.5 1 9
      vertex 12.5 1 0
      vertex 12.5 0 9
    endloop
  endfacet
  facet normal -1 0 0
    outer loop
      vertex 12.5 0 9
      vertex 12.5 1 0
      vertex 12.5 0 0
    endloop
  endfacet
  facet normal 0 0 -1
    outer loop
      vertex 12.5 1 9
      vertex 12.5 0 9
      vertex 7.5 1 9
    endloop
  endfacet
  facet normal 0 0 -1
    outer loop
      vertex 7.5 1 9
      vertex 12.5 0 9
      vertex 7.5 0 9
    endloop
  endfacet
  facet normal 1 0 0
    outer loop
      vertex 7.5 1 0
      vertex 7.5 1 9
      vertex 7.5 0 9
    endloop
  endfacet
  facet normal 1 0 0
    outer loop
      vertex 7.5 0 0
      vertex 7.5 1 0
      vertex 7.5 0 9
    endloop
  endfacet
  facet normal 0 -1 0
    outer loop
      vertex 12.5 1 0
      vertex 12.5 1 9
      vertex 7.5 1 9
    endloop
  endfacet
  facet normal 0 -1 0
    outer loop
      vertex 7.5 1 0
      vertex 12.5 1 0
      vertex 7.5 1 9
    endloop
  endfacet
  facet normal -0.771389 6.05576e-017 0.636364
    outer loop
      vertex 0.0251263 4.97487 20
      vertex 0.0251263 0.0251263 20
      vertex 2.5 2.5 23
    endloop
  endfacet
  facet normal -6.05576e-017 -0.771389 0.636364
    outer loop
      vertex 2.5 2.5 23
      vertex 0.0251263 0.0251263 20
      vertex 4.97487 0.0251263 20
    endloop
  endfacet
  facet normal 0.771389 -6.05576e-017 0.636364
    outer loop
      vertex 4.97487 4.97487 20
      vertex 2.5 2.5 23
      vertex 4.97487 0.0251263 20
    endloop
  endfacet
  facet normal 6.05576e-017 0.771389 0.636364
    outer loop
      vertex 4.97487 4.97487 20
      vertex 0.0251263 4.97487 20
      vertex 2.5 2.5 23
    endloop
  endfacet
  facet normal -0.771389 6.05576e-017 0.636364
    outer loop
      vertex 15.0251 4.97487 20
      vertex 15.0251 0.0251263 20
      vertex 17.5 2.5 23
    endloop
  endfacet
  facet normal -6.05576e-017 -0.771389 0.636364
    outer loop
      vertex 17.5 2.5 23
      vertex 15.0251 0.0251263 20
      vertex 19.9749 0.0251263 20
    endloop
  endfacet
  facet normal 0.771389 -6.05576e-017 0.636364
    outer loop
      vertex 19.9749 4.97487 20
      vertex 17.5 2.5 23
      vertex 19.9749 0.0251263 20
    endloop
  endfacet
  facet normal 6.05576e-017 0.771389 0.636364
    outer loop
      vertex 19.9749 4.97487 20
      vertex 15.0251 4.97487 20
      vertex 17.5 2.5 23
    endloop
  endfacet
endsolid OpenSCAD_Model
