solid OpenSCAD_Model
  facet normal 0.552115 0.717219 -0.425166
    outer loop
      vertex 572.805 237.264 300
      vertex 650 0 0
      vertex 200 346.41 0
    endloop
  endfacet
  facet normal 0.239458 0.969342 0.0550962
    outer loop
      vertex 572.805 237.264 300
      vertex 200 346.41 0
      vertex 48.2947 366.835 300
    endloop
  endfacet
  facet normal 0.378072 0.916777 0.12877
    outer loop
      vertex 48.2947 366.835 300
      vertex 200 346.41 0
      vertex -325 562.917 0
    endloop
  endfacet
  facet normal 0.016603 0.846282 0.532476
    outer loop
      vertex 48.2947 366.835 300
      vertex -325 562.917 0
      vertex -491.879 377.432 300
    endloop
  endfacet
  facet normal -0.897187 0.119536 -0.425165
    outer loop
      vertex -325 562.917 0
      vertex -400 0 0
      vertex -491.879 377.432 300
    endloop
  endfacet
  facet normal -0.959204 -0.277294 0.0550962
    outer loop
      vertex -400 0 0
      vertex -341.835 -141.593 300
      vertex -491.879 377.432 300
    endloop
  endfacet
  facet normal -0.982988 -0.130968 0.12877
    outer loop
      vertex -325 -562.917 0
      vertex -341.835 -141.593 300
      vertex -400 0 0
    endloop
  endfacet
  facet normal -0.741203 -0.408763 0.532476
    outer loop
      vertex -325 -562.917 0
      vertex -80.9262 -614.696 300
      vertex -341.835 -141.593 300
    endloop
  endfacet
  facet normal 0.345072 -0.836755 -0.425165
    outer loop
      vertex 200 -346.41 0
      vertex -80.9262 -614.696 300
      vertex -325 -562.917 0
    endloop
  endfacet
  facet normal 0.719746 -0.692048 0.0550962
    outer loop
      vertex 200 -346.41 0
      vertex 293.541 -225.242 300
      vertex -80.9262 -614.696 300
    endloop
  endfacet
  facet normal 0.604916 -0.785809 0.12877
    outer loop
      vertex 650 0 0
      vertex 293.541 -225.242 300
      vertex 200 -346.41 0
    endloop
  endfacet
  facet normal 0.7246 -0.43752 0.532476
    outer loop
      vertex 650 0 0
      vertex 572.805 237.264 300
      vertex 293.541 -225.242 300
    endloop
  endfacet
  facet normal 0.218053 0.882692 -0.416301
    outer loop
      vertex 417.193 417.193 600
      vertex 572.805 237.264 300
      vertex 48.2947 366.835 300
    endloop
  endfacet
  facet normal -0.172885 0.983799 0.0474478
    outer loop
      vertex 417.193 417.193 600
      vertex 48.2947 366.835 300
      vertex -87.9985 328.415 600
    endloop
  endfacet
  facet normal 0.0194335 0.990561 0.135686
    outer loop
      vertex -87.9985 328.415 600
      vertex 48.2947 366.835 300
      vertex -491.879 377.432 300
    endloop
  endfacet
  facet normal -0.291837 0.800378 0.523666
    outer loop
      vertex -87.9985 328.415 600
      vertex -491.879 377.432 300
      vertex -569.896 152.703 600
    endloop
  endfacet
  facet normal -0.873461 -0.252507 -0.416302
    outer loop
      vertex -491.879 377.432 300
      vertex -341.835 -141.593 300
      vertex -569.896 152.703 600
    endloop
  endfacet
  facet normal -0.765552 -0.641622 0.0474478
    outer loop
      vertex -341.835 -141.593 300
      vertex -240.416 -240.416 600
      vertex -569.896 152.703 600
    endloop
  endfacet
  facet normal -0.867568 -0.478451 0.135686
    outer loop
      vertex -80.9262 -614.696 300
      vertex -240.416 -240.416 600
      vertex -341.835 -141.593 300
    endloop
  endfacet
  facet normal -0.547229 -0.652927 0.523666
    outer loop
      vertex -80.9262 -614.696 300
      vertex 152.703 -569.896 600
      vertex -240.416 -240.416 600
    endloop
  endfacet
  facet normal 0.655407 -0.630186 -0.416301
    outer loop
      vertex 293.541 -225.242 300
      vertex 152.703 -569.896 600
      vertex -80.9262 -614.696 300
    endloop
  endfacet
  facet normal 0.938437 -0.342177 0.0474478
    outer loop
      vertex 293.541 -225.242 300
      vertex 328.415 -87.9985 600
      vertex 152.703 -569.896 600
    endloop
  endfacet
  facet normal 0.848134 -0.512111 0.135686
    outer loop
      vertex 572.805 237.264 300
      vertex 328.415 -87.9985 600
      vertex 293.541 -225.242 300
    endloop
  endfacet
  facet normal 0.839066 -0.147451 0.523666
    outer loop
      vertex 572.805 237.264 300
      vertex 417.193 417.193 600
      vertex 328.415 -87.9985 600
    endloop
  endfacet
  facet normal -0.158074 0.899518 -0.407283
    outer loop
      vertex 214.303 517.373 900
      vertex 417.193 417.193 600
      vertex -87.9985 328.415 600
    endloop
  endfacet
  facet normal -0.558161 0.828746 0.0404484
    outer loop
      vertex 214.303 517.373 900
      vertex -87.9985 328.415 600
      vertex -188.716 245.94 900
    endloop
  endfacet
  facet normal -0.3391 0.929998 0.141828
    outer loop
      vertex -188.716 245.94 900
      vertex -87.9985 328.415 600
      vertex -569.896 152.703 600
    endloop
  endfacet
  facet normal -0.563054 0.646813 0.514396
    outer loop
      vertex -555.209 -73.0947 900
      vertex -188.716 245.94 900
      vertex -569.896 152.703 600
    endloop
  endfacet
  facet normal -0.699969 -0.586655 -0.407283
    outer loop
      vertex -240.416 -240.416 600
      vertex -555.209 -73.0947 900
      vertex -569.896 152.703 600
    endloop
  endfacet
  facet normal -0.438635 -0.897754 0.0404484
    outer loop
      vertex -240.416 -240.416 600
      vertex -118.632 -286.403 900
      vertex -555.209 -73.0947 900
    endloop
  endfacet
  facet normal -0.635852 -0.758668 0.141828
    outer loop
      vertex 152.703 -569.896 600
      vertex -118.632 -286.403 900
      vertex -240.416 -240.416 600
    endloop
  endfacet
  facet normal -0.278629 -0.811026 0.514396
    outer loop
      vertex 152.703 -569.896 600
      vertex 340.906 -444.278 900
      vertex -118.632 -286.403 900
    endloop
  endfacet
  facet normal 0.858043 -0.312863 -0.407283
    outer loop
      vertex 328.415 -87.9985 600
      vertex 340.906 -444.278 900
      vertex 152.703 -569.896 600
    endloop
  endfacet
  facet normal 0.996796 0.0690079 0.0404484
    outer loop
      vertex 340.906 -444.278 900
      vertex 328.415 -87.9985 600
      vertex 307.348 40.4631 900
    endloop
  endfacet
  facet normal 0.974952 -0.17133 0.141828
    outer loop
      vertex 328.415 -87.9985 600
      vertex 417.193 417.193 600
      vertex 307.348 40.4631 900
    endloop
  endfacet
  facet normal 0.841684 0.164213 0.514396
    outer loop
      vertex 307.348 40.4631 900
      vertex 417.193 417.193 600
      vertex 214.303 517.373 900
    endloop
  endfacet
  facet normal -0.512446 0.760871 -0.398088
    outer loop
      vertex 0 530 1200
      vertex 214.303 517.373 900
      vertex -188.716 245.94 900
    endloop
  endfacet
  facet normal -0.848734 0.527711 0.0342269
    outer loop
      vertex 0 530 1200
      vertex -188.716 245.94 900
      vertex -242.487 140 1200
    endloop
  endfacet
  facet normal -0.649445 0.746055 0.147051
    outer loop
      vertex -242.487 140 1200
      vertex -188.716 245.94 900
      vertex -555.209 -73.0947 900
    endloop
  endfacet
  facet normal -0.761403 0.407033 0.504569
    outer loop
      vertex -458.993 -265 1200
      vertex -242.487 140 1200
      vertex -555.209 -73.0947 900
    endloop
  endfacet
  facet normal -0.40271 -0.824227 -0.398088
    outer loop
      vertex -118.632 -286.403 900
      vertex -458.993 -265 1200
      vertex -555.209 -73.0947 900
    endloop
  endfacet
  facet normal -0.0326436 -0.998881 0.0342269
    outer loop
      vertex -118.632 -286.403 900
      vertex 0 -280 1200
      vertex -458.993 -265 1200
    endloop
  endfacet
  facet normal -0.32138 -0.935463 0.147051
    outer loop
      vertex 340.906 -444.278 900
      vertex 0 -280 1200
      vertex -118.632 -286.403 900
    endloop
  endfacet
  facet normal 0.0282001 -0.862911 0.504569
    outer loop
      vertex 340.906 -444.278 900
      vertex 458.993 -265 1200
      vertex 0 -280 1200
    endloop
  endfacet
  facet normal 0.915157 0.0633561 -0.398088
    outer loop
      vertex 458.993 -265 1200
      vertex 340.906 -444.278 900
      vertex 307.348 40.4631 900
    endloop
  endfacet
  facet normal 0.881378 0.47117 0.0342269
    outer loop
      vertex 458.993 -265 1200
      vertex 307.348 40.4631 900
      vertex 242.487 140 1200
    endloop
  endfacet
  facet normal 0.970825 0.189408 0.147051
    outer loop
      vertex 242.487 140 1200
      vertex 307.348 40.4631 900
      vertex 214.303 517.373 900
    endloop
  endfacet
  facet normal 0.733203 0.455877 0.504569
    outer loop
      vertex 242.487 140 1200
      vertex 214.303 517.373 900
      vertex 0 530 1200
    endloop
  endfacet
  facet normal -0.782458 0.486502 -0.388684
    outer loop
      vertex -191.342 461.94 1500
      vertex 0 530 1200
      vertex -242.487 140 1200
    endloop
  endfacet
  facet normal -0.99103 0.130472 0.0289421
    outer loop
      vertex -191.342 461.94 1500
      vertex -242.487 140 1200
      vertex -247.861 32.6315 1500
    endloop
  endfacet
  facet normal -0.871759 0.466028 0.151173
    outer loop
      vertex -247.861 32.6315 1500
      vertex -242.487 140 1200
      vertex -458.993 -265 1200
    endloop
  endfacet
  facet normal -0.86199 0.113483 0.494059
    outer loop
      vertex -304.381 -396.677 1500
      vertex -247.861 32.6315 1500
      vertex -458.993 -265 1200
    endloop
  endfacet
  facet normal -0.0300945 -0.920879 -0.388684
    outer loop
      vertex 0 -280 1200
      vertex -304.381 -396.677 1500
      vertex -458.993 -265 1200
    endloop
  endfacet
  facet normal 0.382523 -0.923493 0.0289421
    outer loop
      vertex 0 -280 1200
      vertex 95.6709 -230.97 1500
      vertex -304.381 -396.677 1500
    endloop
  endfacet
  facet normal 0.0322874 -0.98798 0.151173
    outer loop
      vertex 458.993 -265 1200
      vertex 95.6709 -230.97 1500
      vertex 0 -280 1200
    endloop
  endfacet
  facet normal 0.332716 -0.803247 0.494059
    outer loop
      vertex 458.993 -265 1200
      vertex 495.722 -65.2631 1500
      vertex 95.6709 -230.97 1500
    endloop
  endfacet
  facet normal 0.812552 0.434377 -0.388684
    outer loop
      vertex 495.722 -65.2631 1500
      vertex 458.993 -265 1200
      vertex 242.487 140 1200
    endloop
  endfacet
  facet normal 0.608506 0.793021 0.0289421
    outer loop
      vertex 495.722 -65.2631 1500
      vertex 242.487 140 1200
      vertex 152.19 198.338 1500
    endloop
  endfacet
  facet normal 0.839472 0.521952 0.151173
    outer loop
      vertex 152.19 198.338 1500
      vertex 242.487 140 1200
      vertex 0 530 1200
    endloop
  endfacet
  facet normal 0.529274 0.689764 0.494059
    outer loop
      vertex 152.19 198.338 1500
      vertex 0 530 1200
      vertex -191.342 461.94 1500
    endloop
  endfacet
  facet normal -0.917469 0.120787 -0.379026
    outer loop
      vertex -191.342 461.94 1500
      vertex -247.861 32.6315 1500
      vertex -332.34 332.34 1800
    endloop
  endfacet
  facet normal -0.955445 -0.294125 0.0247896
    outer loop
      vertex -247.861 32.6315 1500
      vertex -212.504 -56.9402 1800
      vertex -332.34 332.34 1800
    endloop
  endfacet
  facet normal -0.979623 0.12897 0.153964
    outer loop
      vertex -212.504 -56.9402 1800
      vertex -247.861 32.6315 1500
      vertex -304.381 -396.677 1500
    endloop
  endfacet
  facet normal -0.853719 -0.195363 0.482697
    outer loop
      vertex -121.645 -453.985 1800
      vertex -212.504 -56.9402 1800
      vertex -304.381 -396.677 1500
    endloop
  endfacet
  facet normal 0.35413 -0.854945 -0.379026
    outer loop
      vertex 95.6709 -230.97 1500
      vertex -121.645 -453.985 1800
      vertex -304.381 -396.677 1500
    endloop
  endfacet
  facet normal 0.732443 -0.680377 0.0247896
    outer loop
      vertex 95.6709 -230.97 1500
      vertex 155.563 -155.563 1800
      vertex -121.645 -453.985 1800
    endloop
  endfacet
  facet normal 0.37812 -0.912864 0.153964
    outer loop
      vertex 495.722 -65.2631 1500
      vertex 155.563 -155.563 1800
      vertex 95.6709 -230.97 1500
    endloop
  endfacet
  facet normal 0.596049 -0.641661 0.482697
    outer loop
      vertex 495.722 -65.2631 1500
      vertex 453.985 121.645 1800
      vertex 155.563 -155.563 1800
    endloop
  endfacet
  facet normal 0.563339 0.734158 -0.379026
    outer loop
      vertex 453.985 121.645 1800
      vertex 495.722 -65.2631 1500
      vertex 152.19 198.338 1500
    endloop
  endfacet
  facet normal 0.223003 0.974503 0.0247896
    outer loop
      vertex 453.985 121.645 1800
      vertex 152.19 198.338 1500
      vertex 56.9402 212.504 1800
    endloop
  endfacet
  facet normal 0.601503 0.783894 0.153964
    outer loop
      vertex 56.9402 212.504 1800
      vertex 152.19 198.338 1500
      vertex -191.342 461.94 1500
    endloop
  endfacet
  facet normal 0.25767 0.837024 0.482697
    outer loop
      vertex 56.9402 212.504 1800
      vertex -191.342 461.94 1500
      vertex -332.34 332.34 1800
    endloop
  endfacet
  facet normal -0.888273 -0.273447 -0.369049
    outer loop
      vertex -332.34 332.34 1800
      vertex -212.504 -56.9402 1800
      vertex -406.507 168.381 2100
    endloop
  endfacet
  facet normal -0.742946 -0.668989 0.0220106
    outer loop
      vertex -212.504 -56.9402 1800
      vertex -150.737 -115.665 2100
      vertex -406.507 168.381 2100
    endloop
  endfacet
  facet normal -0.963001 -0.220371 0.155134
    outer loop
      vertex -121.645 -453.985 1800
      vertex -150.737 -115.665 2100
      vertex -212.504 -56.9402 1800
    endloop
  endfacet
  facet normal -0.740165 -0.480639 0.470257
    outer loop
      vertex -121.645 -453.985 1800
      vertex 57.4315 -436.236 2100
      vertex -150.737 -115.665 2100
    endloop
  endfacet
  facet normal 0.680949 -0.632544 -0.369049
    outer loop
      vertex 155.563 -155.563 1800
      vertex 57.4315 -436.236 2100
      vertex -121.645 -453.985 1800
    endloop
  endfacet
  facet normal 0.950835 -0.308916 0.0220106
    outer loop
      vertex 155.563 -155.563 1800
      vertex 175.537 -72.7099 2100
      vertex 57.4315 -436.236 2100
    endloop
  endfacet
  facet normal 0.672347 -0.723798 0.155134
    outer loop
      vertex 453.985 121.645 1800
      vertex 175.537 -72.7099 2100
      vertex 155.563 -155.563 1800
    endloop
  endfacet
  facet normal 0.786328 -0.400682 0.470257
    outer loop
      vertex 453.985 121.645 1800
      vertex 349.075 267.855 2100
      vertex 175.537 -72.7099 2100
    endloop
  endfacet
  facet normal 0.207325 0.905991 -0.369049
    outer loop
      vertex 349.075 267.855 2100
      vertex 453.985 121.645 1800
      vertex 56.9402 212.504 1800
    endloop
  endfacet
  facet normal -0.207888 0.977905 0.0220106
    outer loop
      vertex 349.075 267.855 2100
      vertex 56.9402 212.504 1800
      vertex -24.8 188.375 2100
    endloop
  endfacet
  facet normal 0.290654 0.944168 0.155134
    outer loop
      vertex -24.8 188.375 2100
      vertex 56.9402 212.504 1800
      vertex -332.34 332.34 1800
    endloop
  endfacet
  facet normal -0.0461636 0.881321 0.470257
    outer loop
      vertex -24.8 188.375 2100
      vertex -332.34 332.34 1800
      vertex -406.507 168.381 2100
    endloop
  endfacet
  facet normal -0.693684 -0.624631 -0.358663
    outer loop
      vertex -406.507 168.381 2100
      vertex -150.737 -115.665 2100
      vertex -410 0 2400
    endloop
  endfacet
  facet normal -0.387063 -0.921817 0.0209022
    outer loop
      vertex -150.737 -115.665 2100
      vertex -80 -138.564 2400
      vertex -410 0 2400
    endloop
  endfacet
  facet normal -0.82864 -0.538092 0.154312
    outer loop
      vertex 57.4315 -436.236 2100
      vertex -80 -138.564 2400
      vertex -150.737 -115.665 2100
    endloop
  endfacet
  facet normal -0.538228 -0.708502 0.456438
    outer loop
      vertex 57.4315 -436.236 2100
      vertex 205 -355.07 2400
      vertex -80 -138.564 2400
    endloop
  endfacet
  facet normal 0.887788 -0.288433 -0.358663
    outer loop
      vertex 175.537 -72.7099 2100
      vertex 205 -355.07 2400
      vertex 57.4315 -436.236 2100
    endloop
  endfacet
  facet normal 0.991848 0.125702 0.0209022
    outer loop
      vertex 205 -355.07 2400
      vertex 175.537 -72.7099 2100
      vertex 160 0 2400
    endloop
  endfacet
  facet normal 0.880322 -0.448577 0.154312
    outer loop
      vertex 175.537 -72.7099 2100
      vertex 349.075 267.855 2100
      vertex 160 0 2400
    endloop
  endfacet
  facet normal 0.882695 -0.111869 0.456438
    outer loop
      vertex 349.075 267.855 2100
      vertex 205 355.07 2400
      vertex 160 0 2400
    endloop
  endfacet
  facet normal -0.194104 0.913063 -0.358663
    outer loop
      vertex 205 355.07 2400
      vertex 349.075 267.855 2100
      vertex -24.8 188.375 2100
    endloop
  endfacet
  facet normal -0.604785 0.796114 0.0209022
    outer loop
      vertex 205 355.07 2400
      vertex -24.8 188.375 2100
      vertex -80 138.564 2400
    endloop
  endfacet
  facet normal -0.0516818 0.98667 0.154312
    outer loop
      vertex -80 138.564 2400
      vertex -24.8 188.375 2100
      vertex -406.507 168.381 2100
    endloop
  endfacet
  facet normal -0.344466 0.82037 0.456438
    outer loop
      vertex -80 138.564 2400
      vertex -406.507 168.381 2100
      vertex -410 0 2400
    endloop
  endfacet
  facet normal -0.362985 -0.864475 -0.347742
    outer loop
      vertex -80 -138.564 2400
      vertex -351.074 -145.42 2700
      vertex -410 0 2400
    endloop
  endfacet
  facet normal 0.0494087 -0.99854 0.021826
    outer loop
      vertex -80 -138.564 2400
      vertex -16.9684 -128.888 2700
      vertex -351.074 -145.42 2700
    endloop
  endfacet
  facet normal -0.597979 -0.787154 0.151027
    outer loop
      vertex 205 -355.07 2400
      vertex -16.9684 -128.888 2700
      vertex -80 -138.564 2400
    endloop
  endfacet
  facet normal -0.274877 -0.854463 0.440836
    outer loop
      vertex 205 -355.07 2400
      vertex 301.474 -231.329 2700
      vertex -16.9684 -128.888 2700
    endloop
  endfacet
  facet normal 0.93015 0.117883 -0.347742
    outer loop
      vertex 301.474 -231.329 2700
      vertex 205 -355.07 2400
      vertex 160 0 2400
    endloop
  endfacet
  facet normal 0.840057 0.542059 0.021826
    outer loop
      vertex 301.474 -231.329 2700
      vertex 160 0 2400
      vertex 120.104 49.7488 2700
    endloop
  endfacet
  facet normal 0.980685 -0.124288 0.151027
    outer loop
      vertex 160 0 2400
      vertex 205 355.07 2400
      vertex 120.104 49.7488 2700
    endloop
  endfacet
  facet normal 0.877425 0.189181 0.440836
    outer loop
      vertex 120.104 49.7488 2700
      vertex 205 355.07 2400
      vertex 49.6 376.749 2700
    endloop
  endfacet
  facet normal -0.567165 0.746592 -0.347742
    outer loop
      vertex 49.6 376.749 2700
      vertex 205 355.07 2400
      vertex -80 138.564 2400
    endloop
  endfacet
  facet normal -0.889465 0.456481 0.021826
    outer loop
      vertex 49.6 376.749 2700
      vertex -80 138.564 2400
      vertex -103.136 79.139 2700
    endloop
  endfacet
  facet normal -0.382706 0.911442 0.151027
    outer loop
      vertex -103.136 79.139 2700
      vertex -80 138.564 2400
      vertex -410 0 2400
    endloop
  endfacet
  facet normal -0.602548 0.665282 0.440836
    outer loop
      vertex -351.074 -145.42 2700
      vertex -103.136 79.139 2700
      vertex -410 0 2400
    endloop
  endfacet
  facet normal 0 0 1
    outer loop
      vertex 120.104 49.7488 2700
      vertex 271.327 -208.196 2700
      vertex 301.474 -231.329 2700
    endloop
  endfacet
  facet normal 0 0 1
    outer loop
      vertex 120.104 49.7488 2700
      vertex 108.094 44.774 2700
      vertex 271.327 -208.196 2700
    endloop
  endfacet
  facet normal -0 0 1
    outer loop
      vertex 44.64 339.074 2700
      vertex 120.104 49.7488 2700
      vertex 49.6 376.749 2700
    endloop
  endfacet
  facet normal 0 0 1
    outer loop
      vertex 120.104 49.7488 2700
      vertex 44.64 339.074 2700
      vertex 108.094 44.774 2700
    endloop
  endfacet
  facet normal 0 0 1
    outer loop
      vertex -103.136 79.139 2700
      vertex 44.64 339.074 2700
      vertex 49.6 376.749 2700
    endloop
  endfacet
  facet normal 0 0 1
    outer loop
      vertex 44.64 339.074 2700
      vertex -103.136 79.139 2700
      vertex -92.8223 71.2251 2700
    endloop
  endfacet
  facet normal 0 0 1
    outer loop
      vertex -103.136 79.139 2700
      vertex -315.967 -130.878 2700
      vertex -92.8223 71.2251 2700
    endloop
  endfacet
  facet normal 0 -0 1
    outer loop
      vertex -315.967 -130.878 2700
      vertex -103.136 79.139 2700
      vertex -351.074 -145.42 2700
    endloop
  endfacet
  facet normal -0 0 1
    outer loop
      vertex -16.9684 -128.888 2700
      vertex 271.327 -208.196 2700
      vertex -15.2716 -115.999 2700
    endloop
  endfacet
  facet normal 0 0 1
    outer loop
      vertex 271.327 -208.196 2700
      vertex -16.9684 -128.888 2700
      vertex 301.474 -231.329 2700
    endloop
  endfacet
  facet normal 0 0 1
    outer loop
      vertex -315.967 -130.878 2700
      vertex -16.9684 -128.888 2700
      vertex -15.2716 -115.999 2700
    endloop
  endfacet
  facet normal 0 0 1
    outer loop
      vertex -16.9684 -128.888 2700
      vertex -315.967 -130.878 2700
      vertex -351.074 -145.42 2700
    endloop
  endfacet
  facet normal 0 0 -1
    outer loop
      vertex 200 -346.41 0
      vertex 585 0 0
      vertex 650 0 0
    endloop
  endfacet
  facet normal 0 0 -1
    outer loop
      vertex 200 -346.41 0
      vertex 180 -311.769 0
      vertex 585 0 0
    endloop
  endfacet
  facet normal -0 0 -1
    outer loop
      vertex 200 -346.41 0
      vertex -292.5 -506.625 0
      vertex 180 -311.769 0
    endloop
  endfacet
  facet normal 0 0 -1
    outer loop
      vertex -325 -562.917 0
      vertex -292.5 -506.625 0
      vertex 200 -346.41 0
    endloop
  endfacet
  facet normal 0 0 -1
    outer loop
      vertex -400 0 0
      vertex -292.5 -506.625 0
      vertex -325 -562.917 0
    endloop
  endfacet
  facet normal 0 0 -1
    outer loop
      vertex -292.5 -506.625 0
      vertex -400 0 0
      vertex -360 0 0
    endloop
  endfacet
  facet normal 0 0 -1
    outer loop
      vertex 585 0 0
      vertex 200 346.41 0
      vertex 650 0 0
    endloop
  endfacet
  facet normal 0 0 -1
    outer loop
      vertex 180 311.769 0
      vertex 200 346.41 0
      vertex 585 0 0
    endloop
  endfacet
  facet normal 0 0 -1
    outer loop
      vertex -292.5 506.625 0
      vertex 200 346.41 0
      vertex 180 311.769 0
    endloop
  endfacet
  facet normal 0 0 -1
    outer loop
      vertex -292.5 506.625 0
      vertex -325 562.917 0
      vertex 200 346.41 0
    endloop
  endfacet
  facet normal 0 0 -1
    outer loop
      vertex -400 0 0
      vertex -292.5 506.625 0
      vertex -360 0 0
    endloop
  endfacet
  facet normal -0 0 -1
    outer loop
      vertex -292.5 506.625 0
      vertex -400 0 0
      vertex -325 562.917 0
    endloop
  endfacet
  facet normal -0.561848 -0.729862 0.389394
    outer loop
      vertex 515.525 213.537 300
      vertex 180 311.769 0
      vertex 585 0 0
    endloop
  endfacet
  facet normal -0.239528 -0.969622 -0.0496009
    outer loop
      vertex 515.525 213.537 300
      vertex 43.4652 330.151 300
      vertex 180 311.769 0
    endloop
  endfacet
  facet normal -0.378669 -0.918224 -0.116076
    outer loop
      vertex 43.4652 330.151 300
      vertex -292.5 506.625 0
      vertex 180 311.769 0
    endloop
  endfacet
  facet normal -0.0170691 -0.870042 -0.492683
    outer loop
      vertex 43.4652 330.151 300
      vertex -442.691 339.689 300
      vertex -292.5 506.625 0
    endloop
  endfacet
  facet normal 0.913003 -0.121644 0.389394
    outer loop
      vertex -292.5 506.625 0
      vertex -442.691 339.689 300
      vertex -360 0 0
    endloop
  endfacet
  facet normal 0.959481 0.277374 -0.0496009
    outer loop
      vertex -360 0 0
      vertex -442.691 339.689 300
      vertex -307.652 -127.434 300
    endloop
  endfacet
  facet normal 0.98454 0.131175 -0.116076
    outer loop
      vertex -292.5 -506.625 0
      vertex -360 0 0
      vertex -307.652 -127.434 300
    endloop
  endfacet
  facet normal 0.762013 0.420239 -0.492683
    outer loop
      vertex -292.5 -506.625 0
      vertex -307.652 -127.434 300
      vertex -72.8336 -553.226 300
    endloop
  endfacet
  facet normal -0.351155 0.851506 0.389394
    outer loop
      vertex 180 -311.769 0
      vertex -292.5 -506.625 0
      vertex -72.8336 -553.226 300
    endloop
  endfacet
  facet normal -0.719953 0.692248 -0.0496008
    outer loop
      vertex 180 -311.769 0
      vertex -72.8336 -553.226 300
      vertex 264.187 -202.718 300
    endloop
  endfacet
  facet normal -0.605871 0.787049 -0.116076
    outer loop
      vertex 585 0 0
      vertex 180 -311.769 0
      vertex 264.187 -202.718 300
    endloop
  endfacet
  facet normal -0.744944 0.449803 -0.492683
    outer loop
      vertex 585 0 0
      vertex 264.187 -202.718 300
      vertex 515.525 213.537 300
    endloop
  endfacet
  facet normal -0.221734 -0.897594 0.380997
    outer loop
      vertex 375.474 375.474 600
      vertex 43.4652 330.151 300
      vertex 515.525 213.537 300
    endloop
  endfacet
  facet normal 0.172922 -0.984009 -0.0427122
    outer loop
      vertex 375.474 375.474 600
      vertex -79.1986 295.573 600
      vertex 43.4652 330.151 300
    endloop
  endfacet
  facet normal -0.0194676 -0.992298 -0.122332
    outer loop
      vertex -79.1986 295.573 600
      vertex -442.691 339.689 300
      vertex 43.4652 330.151 300
    endloop
  endfacet
  facet normal 0.299751 -0.822081 -0.484079
    outer loop
      vertex -79.1986 295.573 600
      vertex -512.907 137.433 600
      vertex -442.691 339.689 300
    endloop
  endfacet
  facet normal 0.888207 0.256769 0.380997
    outer loop
      vertex -442.691 339.689 300
      vertex -512.907 137.433 600
      vertex -307.652 -127.434 300
    endloop
  endfacet
  facet normal 0.765716 0.641759 -0.0427122
    outer loop
      vertex -307.652 -127.434 300
      vertex -512.907 137.433 600
      vertex -216.375 -216.375 600
    endloop
  endfacet
  facet normal 0.869089 0.47929 -0.122332
    outer loop
      vertex -72.8336 -553.226 300
      vertex -307.652 -127.434 300
      vertex -216.375 -216.375 600
    endloop
  endfacet
  facet normal 0.562068 0.670632 -0.484079
    outer loop
      vertex -72.8336 -553.226 300
      vertex -216.375 -216.375 600
      vertex 137.433 -512.907 600
    endloop
  endfacet
  facet normal -0.666472 0.640825 0.380997
    outer loop
      vertex 264.187 -202.718 300
      vertex -72.8336 -553.226 300
      vertex 137.433 -512.907 600
    endloop
  endfacet
  facet normal -0.938638 0.34225 -0.0427123
    outer loop
      vertex 264.187 -202.718 300
      vertex 137.433 -512.907 600
      vertex 295.573 -79.1986 600
    endloop
  endfacet
  facet normal -0.849622 0.513009 -0.122332
    outer loop
      vertex 515.525 213.537 300
      vertex 264.187 -202.718 300
      vertex 295.573 -79.1986 600
    endloop
  endfacet
  facet normal -0.861818 0.151449 -0.484079
    outer loop
      vertex 515.525 213.537 300
      vertex 295.573 -79.1986 600
      vertex 375.474 375.474 600
    endloop
  endfacet
  facet normal 0.160625 -0.914037 0.372472
    outer loop
      vertex 192.872 465.635 900
      vertex -79.1986 295.573 600
      vertex 375.474 375.474 600
    endloop
  endfacet
  facet normal 0.558247 -0.828875 -0.0364092
    outer loop
      vertex 192.872 465.635 900
      vertex -169.844 221.346 900
      vertex -79.1986 295.573 600
    endloop
  endfacet
  facet normal 0.33975 -0.93178 -0.12789
    outer loop
      vertex -169.844 221.346 900
      vertex -512.907 137.433 600
      vertex -79.1986 295.573 600
    endloop
  endfacet
  facet normal 0.577765 -0.663712 -0.475052
    outer loop
      vertex -499.688 -65.7852 900
      vertex -512.907 137.433 600
      vertex -169.844 221.346 900
    endloop
  endfacet
  facet normal 0.711267 0.596124 0.372472
    outer loop
      vertex -216.375 -216.375 600
      vertex -512.907 137.433 600
      vertex -499.688 -65.7852 900
    endloop
  endfacet
  facet normal 0.438703 0.897894 -0.0364092
    outer loop
      vertex -216.375 -216.375 600
      vertex -499.688 -65.7852 900
      vertex -106.769 -257.762 900
    endloop
  endfacet
  facet normal 0.637071 0.760122 -0.12789
    outer loop
      vertex 137.433 -512.907 600
      vertex -216.375 -216.375 600
      vertex -106.769 -257.762 900
    endloop
  endfacet
  facet normal 0.285909 0.832215 -0.475051
    outer loop
      vertex 137.433 -512.907 600
      vertex -106.769 -257.762 900
      vertex 306.816 -399.85 900
    endloop
  endfacet
  facet normal -0.871892 0.317913 0.372472
    outer loop
      vertex 295.573 -79.1986 600
      vertex 137.433 -512.907 600
      vertex 306.816 -399.85 900
    endloop
  endfacet
  facet normal -0.996951 -0.0690186 -0.0364091
    outer loop
      vertex 306.816 -399.85 900
      vertex 276.613 36.4168 900
      vertex 295.573 -79.1986 600
    endloop
  endfacet
  facet normal -0.97682 0.171658 -0.12789
    outer loop
      vertex 295.573 -79.1986 600
      vertex 276.613 36.4168 900
      vertex 375.474 375.474 600
    endloop
  endfacet
  facet normal -0.863674 -0.168503 -0.475051
    outer loop
      vertex 276.613 36.4168 900
      vertex 192.872 465.635 900
      vertex 375.474 375.474 600
    endloop
  endfacet
  facet normal 0.52034 -0.772591 0.363798
    outer loop
      vertex 0 477 1200
      vertex -169.844 221.346 900
      vertex 192.872 465.635 900
    endloop
  endfacet
  facet normal 0.848829 -0.527769 -0.0308076
    outer loop
      vertex 0 477 1200
      vertex -218.238 126 1200
      vertex -169.844 221.346 900
    endloop
  endfacet
  facet normal 0.650783 -0.747592 -0.132619
    outer loop
      vertex -218.238 126 1200
      vertex -499.688 -65.7852 900
      vertex -169.844 221.346 900
    endloop
  endfacet
  facet normal 0.780514 -0.41725 -0.465511
    outer loop
      vertex -413.094 -238.5 1200
      vertex -499.688 -65.7852 900
      vertex -218.238 126 1200
    endloop
  endfacet
  facet normal 0.408914 0.836923 0.363798
    outer loop
      vertex -106.769 -257.762 900
      vertex -499.688 -65.7852 900
      vertex -413.094 -238.5 1200
    endloop
  endfacet
  facet normal 0.0326473 0.998992 -0.0308076
    outer loop
      vertex -106.769 -257.762 900
      vertex -413.094 -238.5 1200
      vertex 0 -252 1200
    endloop
  endfacet
  facet normal 0.322042 0.937391 -0.132619
    outer loop
      vertex 306.816 -399.85 900
      vertex -106.769 -257.762 900
      vertex 0 -252 1200
    endloop
  endfacet
  facet normal -0.0289079 0.88457 -0.465511
    outer loop
      vertex 306.816 -399.85 900
      vertex 0 -252 1200
      vertex 413.094 -238.5 1200
    endloop
  endfacet
  facet normal -0.929254 -0.064332 0.363798
    outer loop
      vertex 413.094 -238.5 1200
      vertex 276.613 36.4168 900
      vertex 306.816 -399.85 900
    endloop
  endfacet
  facet normal -0.881476 -0.471223 -0.0308077
    outer loop
      vertex 413.094 -238.5 1200
      vertex 218.238 126 1200
      vertex 276.613 36.4168 900
    endloop
  endfacet
  facet normal -0.972825 -0.189799 -0.132619
    outer loop
      vertex 218.238 126 1200
      vertex 192.872 465.635 900
      vertex 276.613 36.4168 900
    endloop
  endfacet
  facet normal -0.751606 -0.46732 -0.465511
    outer loop
      vertex 218.238 126 1200
      vertex 0 477 1200
      vertex 192.872 465.635 900
    endloop
  endfacet
  facet normal 0.793935 -0.493639 0.354947
    outer loop
      vertex -172.208 415.746 1500
      vertex -218.238 126 1200
      vertex 0 477 1200
    endloop
  endfacet
  facet normal 0.991108 -0.130482 -0.02605
    outer loop
      vertex -172.208 415.746 1500
      vertex -223.075 29.3684 1500
      vertex -218.238 126 1200
    endloop
  endfacet
  facet normal 0.873658 -0.467043 -0.136352
    outer loop
      vertex -223.075 29.3684 1500
      vertex -413.094 -238.5 1200
      vertex -218.238 126 1200
    endloop
  endfacet
  facet normal 0.882702 -0.11621 -0.455337
    outer loop
      vertex -273.943 -357.009 1500
      vertex -413.094 -238.5 1200
      vertex -223.075 29.3684 1500
    endloop
  endfacet
  facet normal 0.030536 0.934387 0.354947
    outer loop
      vertex 0 -252 1200
      vertex -413.094 -238.5 1200
      vertex -273.943 -357.009 1500
    endloop
  endfacet
  facet normal -0.382554 0.923566 -0.02605
    outer loop
      vertex 0 -252 1200
      vertex -273.943 -357.009 1500
      vertex 86.1038 -207.873 1500
    endloop
  endfacet
  facet normal -0.0323577 0.990132 -0.136352
    outer loop
      vertex 413.094 -238.5 1200
      vertex 0 -252 1200
      vertex 86.1038 -207.873 1500
    endloop
  endfacet
  facet normal -0.34071 0.822547 -0.455337
    outer loop
      vertex 413.094 -238.5 1200
      vertex 86.1038 -207.873 1500
      vertex 446.15 -58.7368 1500
    endloop
  endfacet
  facet normal -0.824471 -0.440749 0.354947
    outer loop
      vertex 446.15 -58.7368 1500
      vertex 218.238 126 1200
      vertex 413.094 -238.5 1200
    endloop
  endfacet
  facet normal -0.608555 -0.793084 -0.02605
    outer loop
      vertex 446.15 -58.7368 1500
      vertex 136.971 178.505 1500
      vertex 218.238 126 1200
    endloop
  endfacet
  facet normal -0.841301 -0.523089 -0.136352
    outer loop
      vertex 136.971 178.505 1500
      vertex 0 477 1200
      vertex 218.238 126 1200
    endloop
  endfacet
  facet normal -0.541992 -0.706338 -0.455337
    outer loop
      vertex 136.971 178.505 1500
      vertex -172.208 415.746 1500
      vertex 0 477 1200
    endloop
  endfacet
  facet normal 0.930253 -0.12247 0.345876
    outer loop
      vertex -172.208 415.746 1500
      vertex -299.106 299.106 1800
      vertex -223.075 29.3684 1500
    endloop
  endfacet
  facet normal 0.955501 0.294143 -0.0223119
    outer loop
      vertex -223.075 29.3684 1500
      vertex -299.106 299.106 1800
      vertex -191.253 -51.2462 1800
    endloop
  endfacet
  facet normal 0.981837 -0.129261 -0.13888
    outer loop
      vertex -191.253 -51.2462 1800
      vertex -273.943 -357.009 1500
      vertex -223.075 29.3684 1500
    endloop
  endfacet
  facet normal 0.873268 0.199836 -0.444375
    outer loop
      vertex -109.48 -408.587 1800
      vertex -273.943 -357.009 1500
      vertex -191.253 -51.2462 1800
    endloop
  endfacet
  facet normal -0.359064 0.866858 0.345876
    outer loop
      vertex 86.1038 -207.873 1500
      vertex -273.943 -357.009 1500
      vertex -109.48 -408.587 1800
    endloop
  endfacet
  facet normal -0.732485 0.680417 -0.0223119
    outer loop
      vertex 86.1038 -207.873 1500
      vertex -109.48 -408.587 1800
      vertex 140.007 -140.007 1800
    endloop
  endfacet
  facet normal -0.378975 0.914926 -0.13888
    outer loop
      vertex 446.15 -58.7368 1500
      vertex 86.1038 -207.873 1500
      vertex 140.007 -140.007 1800
    endloop
  endfacet
  facet normal -0.609697 0.656354 -0.444375
    outer loop
      vertex 446.15 -58.7368 1500
      vertex 140.007 -140.007 1800
      vertex 408.587 109.48 1800
    endloop
  endfacet
  facet normal -0.571189 -0.744388 0.345876
    outer loop
      vertex 408.587 109.48 1800
      vertex 136.971 178.505 1500
      vertex 446.15 -58.7368 1500
    endloop
  endfacet
  facet normal -0.223016 -0.974559 -0.0223119
    outer loop
      vertex 408.587 109.48 1800
      vertex 51.2462 191.253 1800
      vertex 136.971 178.505 1500
    endloop
  endfacet
  facet normal -0.602862 -0.785665 -0.13888
    outer loop
      vertex 51.2462 191.253 1800
      vertex -172.208 415.746 1500
      vertex 136.971 178.505 1500
    endloop
  endfacet
  facet normal -0.263571 -0.85619 -0.444375
    outer loop
      vertex 51.2462 191.253 1800
      vertex -299.106 299.106 1800
      vertex -172.208 415.746 1500
    endloop
  endfacet
  facet normal 0.899995 0.277055 0.336527
    outer loop
      vertex -299.106 299.106 1800
      vertex -365.856 151.543 2100
      vertex -191.253 -51.2462 1800
    endloop
  endfacet
  facet normal 0.74298 0.66902 -0.0198105
    outer loop
      vertex -191.253 -51.2462 1800
      vertex -365.856 151.543 2100
      vertex -135.663 -104.098 2100
    endloop
  endfacet
  facet normal 0.96521 0.220876 -0.139941
    outer loop
      vertex -109.48 -408.587 1800
      vertex -191.253 -51.2462 1800
      vertex -135.663 -104.098 2100
    endloop
  endfacet
  facet normal 0.756222 0.491067 -0.432413
    outer loop
      vertex -109.48 -408.587 1800
      vertex -135.663 -104.098 2100
      vertex 51.6884 -392.612 2100
    endloop
  endfacet
  facet normal -0.689934 0.64089 0.336527
    outer loop
      vertex 140.007 -140.007 1800
      vertex -109.48 -408.587 1800
      vertex 51.6884 -392.612 2100
    endloop
  endfacet
  facet normal -0.950878 0.30893 -0.0198105
    outer loop
      vertex 140.007 -140.007 1800
      vertex 51.6884 -392.612 2100
      vertex 157.983 -65.4389 2100
    endloop
  endfacet
  facet normal -0.673889 0.725458 -0.139941
    outer loop
      vertex 408.587 109.48 1800
      vertex 140.007 -140.007 1800
      vertex 157.983 -65.4389 2100
    endloop
  endfacet
  facet normal -0.803387 0.409374 -0.432413
    outer loop
      vertex 408.587 109.48 1800
      vertex 157.983 -65.4389 2100
      vertex 314.168 241.07 2100
    endloop
  endfacet
  facet normal -0.21006 -0.917946 0.336527
    outer loop
      vertex 314.168 241.07 2100
      vertex 51.2462 191.253 1800
      vertex 408.587 109.48 1800
    endloop
  endfacet
  facet normal 0.207898 -0.97795 -0.0198105
    outer loop
      vertex 314.168 241.07 2100
      vertex -22.32 169.537 2100
      vertex 51.2462 191.253 1800
    endloop
  endfacet
  facet normal -0.291321 -0.946334 -0.139941
    outer loop
      vertex -22.32 169.537 2100
      vertex -299.106 299.106 1800
      vertex 51.2462 191.253 1800
    endloop
  endfacet
  facet normal 0.0471651 -0.900441 -0.432413
    outer loop
      vertex -22.32 169.537 2100
      vertex -365.856 151.543 2100
      vertex -299.106 299.106 1800
    endloop
  endfacet
  facet normal 0.70232 0.632407 0.326815
    outer loop
      vertex -365.856 151.543 2100
      vertex -369 0 2400
      vertex -135.663 -104.098 2100
    endloop
  endfacet
  facet normal 0.387079 0.921855 -0.0188128
    outer loop
      vertex -135.663 -104.098 2100
      vertex -369 0 2400
      vertex -72 -124.708 2400
    endloop
  endfacet
  facet normal 0.830521 0.539314 -0.139196
    outer loop
      vertex 51.6884 -392.612 2100
      vertex -135.663 -104.098 2100
      vertex -72 -124.708 2400
    endloop
  endfacet
  facet normal 0.549208 0.722955 -0.419174
    outer loop
      vertex 51.6884 -392.612 2100
      vertex -72 -124.708 2400
      vertex 184.5 -319.563 2400
    endloop
  endfacet
  facet normal -0.89884 0.292023 0.326815
    outer loop
      vertex 157.983 -65.4389 2100
      vertex 51.6884 -392.612 2100
      vertex 184.5 -319.563 2400
    endloop
  endfacet
  facet normal -0.991889 -0.125707 -0.0188127
    outer loop
      vertex 184.5 -319.563 2400
      vertex 144 0 2400
      vertex 157.983 -65.4389 2100
    endloop
  endfacet
  facet normal -0.88232 0.449595 -0.139196
    outer loop
      vertex 157.983 -65.4389 2100
      vertex 144 0 2400
      vertex 314.168 241.07 2100
    endloop
  endfacet
  facet normal -0.900701 0.114151 -0.419174
    outer loop
      vertex 314.168 241.07 2100
      vertex 144 0 2400
      vertex 184.5 319.563 2400
    endloop
  endfacet
  facet normal 0.19652 -0.92443 0.326815
    outer loop
      vertex 184.5 319.563 2400
      vertex -22.32 169.537 2100
      vertex 314.168 241.07 2100
    endloop
  endfacet
  facet normal 0.60481 -0.796147 -0.0188128
    outer loop
      vertex 184.5 319.563 2400
      vertex -72 124.708 2400
      vertex -22.32 169.537 2100
    endloop
  endfacet
  facet normal 0.0517991 -0.988909 -0.139196
    outer loop
      vertex -72 124.708 2400
      vertex -365.856 151.543 2100
      vertex -22.32 169.537 2100
    endloop
  endfacet
  facet normal 0.351493 -0.837106 -0.419174
    outer loop
      vertex -72 124.708 2400
      vertex -369 0 2400
      vertex -365.856 151.543 2100
    endloop
  endfacet
  facet normal 0.367229 0.874581 0.316626
    outer loop
      vertex -72 -124.708 2400
      vertex -369 0 2400
      vertex -315.967 -130.878 2700
    endloop
  endfacet
  facet normal -0.0494109 0.998585 -0.0196443
    outer loop
      vertex -72 -124.708 2400
      vertex -315.967 -130.878 2700
      vertex -15.2716 -115.999 2700
    endloop
  endfacet
  facet normal 0.599279 0.788866 -0.13622
    outer loop
      vertex 184.5 -319.563 2400
      vertex -72 -124.708 2400
      vertex -15.2716 -115.999 2700
    endloop
  endfacet
  facet normal 0.280096 0.870689 -0.404286
    outer loop
      vertex 184.5 -319.563 2400
      vertex -15.2716 -115.999 2700
      vertex 271.327 -208.196 2700
    endloop
  endfacet
  facet normal -0.941023 -0.119261 0.316626
    outer loop
      vertex 271.327 -208.196 2700
      vertex 144 0 2400
      vertex 184.5 -319.563 2400
    endloop
  endfacet
  facet normal -0.840095 -0.542084 -0.0196443
    outer loop
      vertex 271.327 -208.196 2700
      vertex 108.094 44.774 2700
      vertex 144 0 2400
    endloop
  endfacet
  facet normal -0.982817 0.124558 -0.13622
    outer loop
      vertex 144 0 2400
      vertex 108.094 44.774 2700
      vertex 184.5 319.563 2400
    endloop
  endfacet
  facet normal -0.894087 -0.192774 -0.404286
    outer loop
      vertex 108.094 44.774 2700
      vertex 44.64 339.074 2700
      vertex 184.5 319.563 2400
    endloop
  endfacet
  facet normal 0.573795 -0.75532 0.316626
    outer loop
      vertex 44.64 339.074 2700
      vertex -72 124.708 2400
      vertex 184.5 319.563 2400
    endloop
  endfacet
  facet normal 0.889506 -0.456502 -0.0196443
    outer loop
      vertex 44.64 339.074 2700
      vertex -92.8223 71.2251 2700
      vertex -72 124.708 2400
    endloop
  endfacet
  facet normal 0.383538 -0.913423 -0.13622
    outer loop
      vertex -92.8223 71.2251 2700
      vertex -369 0 2400
      vertex -72 124.708 2400
    endloop
  endfacet
  facet normal 0.61399 -0.677915 -0.404286
    outer loop
      vertex -315.967 -130.878 2700
      vertex -369 0 2400
      vertex -92.8223 71.2251 2700
    endloop
  endfacet
endsolid OpenSCAD_Model
