solid OpenSCAD_Model
  facet normal 0 0 -1
    outer loop
      vertex -12.5 0 0
      vertex -12.2268 2.5989 0
      vertex -12.2268 -2.5989 0
    endloop
  endfacet
  facet normal 0 0 -1
    outer loop
      vertex -12.2268 -2.5989 0
      vertex -12.2268 2.5989 0
      vertex -11.4193 5.08421 0
    endloop
  endfacet
  facet normal 0 0 -1
    outer loop
      vertex -12.2268 -2.5989 0
      vertex -11.4193 5.08421 0
      vertex -10.1127 7.34732 0
    endloop
  endfacet
  facet normal 0 0 -1
    outer loop
      vertex -12.2268 -2.5989 0
      vertex -10.1127 7.34732 0
      vertex -8.36413 9.28931 0
    endloop
  endfacet
  facet normal 0 0 -1
    outer loop
      vertex -12.2268 -2.5989 0
      vertex -8.36413 9.28931 0
      vertex -6.25 10.8253 0
    endloop
  endfacet
  facet normal 0 0 -1
    outer loop
      vertex -12.2268 -2.5989 0
      vertex -6.25 10.8253 0
      vertex -3.86271 11.8882 0
    endloop
  endfacet
  facet normal 0 0 -1
    outer loop
      vertex -12.2268 -2.5989 0
      vertex -3.86271 11.8882 0
      vertex -1.30661 12.4315 0
    endloop
  endfacet
  facet normal 0 0 -1
    outer loop
      vertex -12.2268 -2.5989 0
      vertex -1.30661 12.4315 0
      vertex 0 12.4315 0
    endloop
  endfacet
  facet normal 0 0 -1
    outer loop
      vertex 0 12.4315 0
      vertex 0 12.5 0
      vertex 30 12.5 0
    endloop
  endfacet
  facet normal 0 0 -1
    outer loop
      vertex 0 12.4315 0
      vertex 30 12.5 0
      vertex -12.2268 -2.5989 0
    endloop
  endfacet
  facet normal 0 0 -1
    outer loop
      vertex -12.2268 -2.5989 0
      vertex 30 12.5 0
      vertex 30 -12.5 0
    endloop
  endfacet
  facet normal 0 0 -1
    outer loop
      vertex 0 -12.4315 0
      vertex 30 -12.5 0
      vertex 0 -12.5 0
    endloop
  endfacet
  facet normal 0 0 -1
    outer loop
      vertex -12.2268 -2.5989 0
      vertex 30 -12.5 0
      vertex 0 -12.4315 0
    endloop
  endfacet
  facet normal 0 0 -1
    outer loop
      vertex -12.2268 -2.5989 0
      vertex -1.30661 -12.4315 0
      vertex -3.86271 -11.8882 0
    endloop
  endfacet
  facet normal 0 0 -1
    outer loop
      vertex -12.2268 -2.5989 0
      vertex -3.86271 -11.8882 0
      vertex -6.25 -10.8253 0
    endloop
  endfacet
  facet normal 0 0 -1
    outer loop
      vertex -12.2268 -2.5989 0
      vertex -6.25 -10.8253 0
      vertex -8.36413 -9.28931 0
    endloop
  endfacet
  facet normal 0 0 -1
    outer loop
      vertex -12.2268 -2.5989 0
      vertex -8.36413 -9.28931 0
      vertex -10.1127 -7.34732 0
    endloop
  endfacet
  facet normal 0 0 -1
    outer loop
      vertex -12.2268 -2.5989 0
      vertex -10.1127 -7.34732 0
      vertex -11.4193 -5.08421 0
    endloop
  endfacet
  facet normal 0 0 -1
    outer loop
      vertex -1.30661 -12.4315 0
      vertex -12.2268 -2.5989 0
      vertex 0 -12.4315 0
    endloop
  endfacet
  facet normal -0.994522 0.104528 0
    outer loop
      vertex -12.5 0 0
      vertex -12.5 0 50
      vertex -12.2268 2.5989 0
    endloop
  endfacet
  facet normal -0.994522 0.104528 0
    outer loop
      vertex -12.2268 2.5989 0
      vertex -12.5 0 50
      vertex -12.2268 2.5989 50
    endloop
  endfacet
  facet normal -0.994522 -0.104528 0
    outer loop
      vertex -12.5 0 0
      vertex -12.2268 -2.5989 0
      vertex -12.5 0 50
    endloop
  endfacet
  facet normal -0.994522 -0.104528 0
    outer loop
      vertex -12.5 0 50
      vertex -12.2268 -2.5989 0
      vertex -12.2268 -2.5989 50
    endloop
  endfacet
  facet normal -0.951056 -0.309017 0
    outer loop
      vertex -12.2268 -2.5989 0
      vertex -11.4193 -5.08421 0
      vertex -12.2268 -2.5989 50
    endloop
  endfacet
  facet normal -0.951056 -0.309017 0
    outer loop
      vertex -12.2268 -2.5989 50
      vertex -11.4193 -5.08421 0
      vertex -11.4193 -5.08421 50
    endloop
  endfacet
  facet normal -0.866025 -0.5 0
    outer loop
      vertex -11.4193 -5.08421 0
      vertex -10.1127 -7.34732 0
      vertex -11.4193 -5.08421 50
    endloop
  endfacet
  facet normal -0.866025 -0.5 0
    outer loop
      vertex -11.4193 -5.08421 50
      vertex -10.1127 -7.34732 0
      vertex -10.1127 -7.34732 50
    endloop
  endfacet
  facet normal -0.743145 -0.669131 0
    outer loop
      vertex -10.1127 -7.34732 0
      vertex -8.36413 -9.28931 0
      vertex -10.1127 -7.34732 50
    endloop
  endfacet
  facet normal -0.743145 -0.669131 0
    outer loop
      vertex -10.1127 -7.34732 50
      vertex -8.36413 -9.28931 0
      vertex -8.36413 -9.28931 50
    endloop
  endfacet
  facet normal -0.587785 -0.809017 0
    outer loop
      vertex -8.36413 -9.28931 50
      vertex -8.36413 -9.28931 0
      vertex -6.25 -10.8253 0
    endloop
  endfacet
  facet normal -0.587785 -0.809017 0
    outer loop
      vertex -6.25 -10.8253 50
      vertex -8.36413 -9.28931 50
      vertex -6.25 -10.8253 0
    endloop
  endfacet
  facet normal -0.406736 -0.913546 0
    outer loop
      vertex -6.25 -10.8253 50
      vertex -6.25 -10.8253 0
      vertex -3.86271 -11.8882 0
    endloop
  endfacet
  facet normal -0.406736 -0.913546 0
    outer loop
      vertex -3.86271 -11.8882 50
      vertex -6.25 -10.8253 50
      vertex -3.86271 -11.8882 0
    endloop
  endfacet
  facet normal -0.207912 -0.978148 0
    outer loop
      vertex -3.86271 -11.8882 50
      vertex -3.86271 -11.8882 0
      vertex -1.30661 -12.4315 0
    endloop
  endfacet
  facet normal -0.207912 -0.978148 0
    outer loop
      vertex -1.30661 -12.4315 50
      vertex -3.86271 -11.8882 50
      vertex -1.30661 -12.4315 0
    endloop
  endfacet
  facet normal 0 -1 0
    outer loop
      vertex -1.30661 -12.4315 50
      vertex -1.30661 -12.4315 0
      vertex 0 -12.4315 0
    endloop
  endfacet
  facet normal 0 -1 0
    outer loop
      vertex 0 -12.4315 50
      vertex -1.30661 -12.4315 50
      vertex 0 -12.4315 0
    endloop
  endfacet
  facet normal -1 0 0
    outer loop
      vertex 0 -12.5 0
      vertex 0 -12.5 50
      vertex 0 -12.4315 0
    endloop
  endfacet
  facet normal -1 0 0
    outer loop
      vertex 0 -12.4315 0
      vertex 0 -12.5 50
      vertex 0 -12.4315 50
    endloop
  endfacet
  facet normal 0 -1 0
    outer loop
      vertex 0 -12.5 50
      vertex 0 -12.5 0
      vertex 30 -12.5 0
    endloop
  endfacet
  facet normal 0 -1 0
    outer loop
      vertex 30 -12.5 50
      vertex 0 -12.5 50
      vertex 30 -12.5 0
    endloop
  endfacet
  facet normal 1 0 0
    outer loop
      vertex 30 -12.5 50
      vertex 30 -12.5 0
      vertex 30 12.5 0
    endloop
  endfacet
  facet normal 1 0 0
    outer loop
      vertex 30 12.5 50
      vertex 30 -12.5 50
      vertex 30 12.5 0
    endloop
  endfacet
  facet normal 0 1 0
    outer loop
      vertex 0 12.5 0
      vertex 0 12.5 50
      vertex 30 12.5 0
    endloop
  endfacet
  facet normal 0 1 0
    outer loop
      vertex 30 12.5 0
      vertex 0 12.5 50
      vertex 30 12.5 50
    endloop
  endfacet
  facet normal -1 0 0
    outer loop
      vertex 0 12.4315 0
      vertex 0 12.4315 50
      vertex 0 12.5 0
    endloop
  endfacet
  facet normal -1 0 0
    outer loop
      vertex 0 12.5 0
      vertex 0 12.4315 50
      vertex 0 12.5 50
    endloop
  endfacet
  facet normal 0 1 0
    outer loop
      vertex -1.30661 12.4315 0
      vertex -1.30661 12.4315 50
      vertex 0 12.4315 0
    endloop
  endfacet
  facet normal 0 1 0
    outer loop
      vertex 0 12.4315 0
      vertex -1.30661 12.4315 50
      vertex 0 12.4315 50
    endloop
  endfacet
  facet normal -0.207912 0.978148 0
    outer loop
      vertex -3.86271 11.8882 0
      vertex -3.86271 11.8882 50
      vertex -1.30661 12.4315 0
    endloop
  endfacet
  facet normal -0.207912 0.978148 0
    outer loop
      vertex -1.30661 12.4315 0
      vertex -3.86271 11.8882 50
      vertex -1.30661 12.4315 50
    endloop
  endfacet
  facet normal -0.406736 0.913546 0
    outer loop
      vertex -6.25 10.8253 0
      vertex -6.25 10.8253 50
      vertex -3.86271 11.8882 0
    endloop
  endfacet
  facet normal -0.406736 0.913546 0
    outer loop
      vertex -3.86271 11.8882 0
      vertex -6.25 10.8253 50
      vertex -3.86271 11.8882 50
    endloop
  endfacet
  facet normal -0.587785 0.809017 0
    outer loop
      vertex -8.36413 9.28931 0
      vertex -8.36413 9.28931 50
      vertex -6.25 10.8253 0
    endloop
  endfacet
  facet normal -0.587785 0.809017 0
    outer loop
      vertex -6.25 10.8253 0
      vertex -8.36413 9.28931 50
      vertex -6.25 10.8253 50
    endloop
  endfacet
  facet normal -0.743145 0.669131 0
    outer loop
      vertex -10.1127 7.34732 0
      vertex -10.1127 7.34732 50
      vertex -8.36413 9.28931 0
    endloop
  endfacet
  facet normal -0.743145 0.669131 0
    outer loop
      vertex -8.36413 9.28931 0
      vertex -10.1127 7.34732 50
      vertex -8.36413 9.28931 50
    endloop
  endfacet
  facet normal -0.866025 0.5 0
    outer loop
      vertex -11.4193 5.08421 0
      vertex -11.4193 5.08421 50
      vertex -10.1127 7.34732 0
    endloop
  endfacet
  facet normal -0.866025 0.5 0
    outer loop
      vertex -10.1127 7.34732 0
      vertex -11.4193 5.08421 50
      vertex -10.1127 7.34732 50
    endloop
  endfacet
  facet normal -0.951056 0.309017 0
    outer loop
      vertex -12.2268 2.5989 0
      vertex -12.2268 2.5989 50
      vertex -11.4193 5.08421 0
    endloop
  endfacet
  facet normal -0.951056 0.309017 0
    outer loop
      vertex -11.4193 5.08421 0
      vertex -12.2268 2.5989 50
      vertex -11.4193 5.08421 50
    endloop
  endfacet
  facet normal 0 0 1
    outer loop
      vertex -12.2268 2.5989 50
      vertex -12.5 0 50
      vertex -12.2268 -2.5989 50
    endloop
  endfacet
  facet normal 0 0 1
    outer loop
      vertex -10.1127 -7.34732 50
      vertex -12.2268 2.5989 50
      vertex -11.4193 -5.08421 50
    endloop
  endfacet
  facet normal 0 0 1
    outer loop
      vertex -11.4193 -5.08421 50
      vertex -12.2268 2.5989 50
      vertex -12.2268 -2.5989 50
    endloop
  endfacet
  facet normal 0 0 1
    outer loop
      vertex -8.36413 -9.28931 50
      vertex -12.2268 2.5989 50
      vertex -10.1127 -7.34732 50
    endloop
  endfacet
  facet normal 0 0 1
    outer loop
      vertex -6.25 -10.8253 50
      vertex -12.2268 2.5989 50
      vertex -8.36413 -9.28931 50
    endloop
  endfacet
  facet normal 0 0 1
    outer loop
      vertex -3.86271 -11.8882 50
      vertex -12.2268 2.5989 50
      vertex -6.25 -10.8253 50
    endloop
  endfacet
  facet normal 0 0 1
    outer loop
      vertex -1.30661 -12.4315 50
      vertex -12.2268 2.5989 50
      vertex -3.86271 -11.8882 50
    endloop
  endfacet
  facet normal 0 0 1
    outer loop
      vertex 0 -12.4315 50
      vertex -12.2268 2.5989 50
      vertex -1.30661 -12.4315 50
    endloop
  endfacet
  facet normal 0 0 1
    outer loop
      vertex 30 -12.5 50
      vertex -12.2268 2.5989 50
      vertex 0 -12.4315 50
    endloop
  endfacet
  facet normal 0 0 1
    outer loop
      vertex 30 -12.5 50
      vertex 0 -12.4315 50
      vertex 0 -12.5 50
    endloop
  endfacet
  facet normal 0 0 1
    outer loop
      vertex 30 12.5 50
      vertex -12.2268 2.5989 50
      vertex 30 -12.5 50
    endloop
  endfacet
  facet normal 0 0 1
    outer loop
      vertex 0 12.4315 50
      vertex -12.2268 2.5989 50
      vertex 30 12.5 50
    endloop
  endfacet
  facet normal 0 0 1
    outer loop
      vertex 0 12.5 50
      vertex 0 12.4315 50
      vertex 30 12.5 50
    endloop
  endfacet
  facet normal 0 0 1
    outer loop
      vertex -3.86271 11.8882 50
      vertex -12.2268 2.5989 50
      vertex -1.30661 12.4315 50
    endloop
  endfacet
  facet normal 0 0 1
    outer loop
      vertex -6.25 10.8253 50
      vertex -12.2268 2.5989 50
      vertex -3.86271 11.8882 50
    endloop
  endfacet
  facet normal 0 0 1
    outer loop
      vertex -8.36413 9.28931 50
      vertex -12.2268 2.5989 50
      vertex -6.25 10.8253 50
    endloop
  endfacet
  facet normal 0 0 1
    outer loop
      vertex -10.1127 7.34732 50
      vertex -12.2268 2.5989 50
      vertex -8.36413 9.28931 50
    endloop
  endfacet
  facet normal 0 0 1
    outer loop
      vertex -11.4193 5.08421 50
      vertex -12.2268 2.5989 50
      vertex -10.1127 7.34732 50
    endloop
  endfacet
  facet normal 0 0 1
    outer loop
      vertex 0 12.4315 50
      vertex -1.30661 12.4315 50
      vertex -12.2268 2.5989 50
    endloop
  endfacet
endsolid OpenSCAD_Model
