solid OpenSCAD_Model
  facet normal -1 0 0
    outer loop
      vertex -22 -30 -39.9
      vertex -22 -30 0.1
      vertex -22 30 -39.9
    endloop
  endfacet
  facet normal -1 0 0
    outer loop
      vertex -22 30 -39.9
      vertex -22 -30 0.1
      vertex -22 30 0.1
    endloop
  endfacet
  facet normal 0 -1 0
    outer loop
      vertex 10 -30 -21.9
      vertex -22 -30 -39.9
      vertex 43 -30 -39.9
    endloop
  endfacet
  facet normal 0 -1 0
    outer loop
      vertex 11.1168 -30 -18.4629
      vertex 11.5371 -30 -18.8832
      vertex 43 -30 -39.9
    endloop
  endfacet
  facet normal 0 -1 0
    outer loop
      vertex -22 -30 0.1
      vertex -22 -30 -39.9
      vertex 8.19299 -30 -20.5871
    endloop
  endfacet
  facet normal 0 -1 0
    outer loop
      vertex 10.5871 -30 -21.807
      vertex 10 -30 -21.9
      vertex 43 -30 -39.9
    endloop
  endfacet
  facet normal 0 -1 0
    outer loop
      vertex -22 -30 0.1
      vertex 8.19299 -30 -20.5871
      vertex 8.1 -30 -20
    endloop
  endfacet
  facet normal 0 -1 0
    outer loop
      vertex 11.1168 -30 -21.5371
      vertex 10.5871 -30 -21.807
      vertex 43 -30 -39.9
    endloop
  endfacet
  facet normal 0 -1 0
    outer loop
      vertex -22 -30 0.1
      vertex 8.1 -30 -20
      vertex 8.19299 -30 -19.4129
    endloop
  endfacet
  facet normal 0 -1 0
    outer loop
      vertex -22 -30 0.1
      vertex 8.19299 -30 -19.4129
      vertex 8.46287 -30 -18.8832
    endloop
  endfacet
  facet normal 0 -1 0
    outer loop
      vertex 11.807 -30 -20.5871
      vertex 11.5371 -30 -21.1168
      vertex 43 -30 -39.9
    endloop
  endfacet
  facet normal 0 -1 0
    outer loop
      vertex 43 -30 0.1
      vertex -22 -30 0.1
      vertex 8.88321 -30 -18.4629
    endloop
  endfacet
  facet normal 0 -1 0
    outer loop
      vertex 11.9 -30 -20
      vertex 11.807 -30 -20.5871
      vertex 43 -30 -39.9
    endloop
  endfacet
  facet normal 0 -1 0
    outer loop
      vertex 43 -30 0.1
      vertex 8.88321 -30 -18.4629
      vertex 9.41287 -30 -18.193
    endloop
  endfacet
  facet normal 0 -1 0
    outer loop
      vertex 11.807 -30 -19.4129
      vertex 11.9 -30 -20
      vertex 43 -30 -39.9
    endloop
  endfacet
  facet normal 0 -1 0
    outer loop
      vertex 43 -30 0.1
      vertex 9.41287 -30 -18.193
      vertex 10 -30 -18.1
    endloop
  endfacet
  facet normal 0 -1 0
    outer loop
      vertex 11.5371 -30 -18.8832
      vertex 11.807 -30 -19.4129
      vertex 43 -30 -39.9
    endloop
  endfacet
  facet normal 0 -1 0
    outer loop
      vertex 43 -30 0.1
      vertex 10 -30 -18.1
      vertex 10.5871 -30 -18.193
    endloop
  endfacet
  facet normal 0 -1 0
    outer loop
      vertex 43 -30 0.1
      vertex 11.1168 -30 -18.4629
      vertex 43 -30 -39.9
    endloop
  endfacet
  facet normal 0 -1 0
    outer loop
      vertex 43 -30 0.1
      vertex 10.5871 -30 -18.193
      vertex 11.1168 -30 -18.4629
    endloop
  endfacet
  facet normal 0 -1 0
    outer loop
      vertex 9.41287 -30 -21.807
      vertex -22 -30 -39.9
      vertex 10 -30 -21.9
    endloop
  endfacet
  facet normal 0 -1 0
    outer loop
      vertex 8.88321 -30 -21.5371
      vertex -22 -30 -39.9
      vertex 9.41287 -30 -21.807
    endloop
  endfacet
  facet normal 0 -1 0
    outer loop
      vertex 8.46287 -30 -21.1168
      vertex -22 -30 -39.9
      vertex 8.88321 -30 -21.5371
    endloop
  endfacet
  facet normal 0 -1 0
    outer loop
      vertex 8.19299 -30 -20.5871
      vertex -22 -30 -39.9
      vertex 8.46287 -30 -21.1168
    endloop
  endfacet
  facet normal 0 -1 0
    outer loop
      vertex 11.5371 -30 -21.1168
      vertex 11.1168 -30 -21.5371
      vertex 43 -30 -39.9
    endloop
  endfacet
  facet normal 0 -1 0
    outer loop
      vertex 8.46287 -30 -18.8832
      vertex 8.88321 -30 -18.4629
      vertex -22 -30 0.1
    endloop
  endfacet
  facet normal 0 0 -1
    outer loop
      vertex 33 -20 -39.9
      vertex 43 -30 -39.9
      vertex -12 -20 -39.9
    endloop
  endfacet
  facet normal 0 0 -1
    outer loop
      vertex 33 20 -39.9
      vertex -22 30 -39.9
      vertex 43 30 -39.9
    endloop
  endfacet
  facet normal 0 0 -1
    outer loop
      vertex -22 -30 -39.9
      vertex -22 30 -39.9
      vertex -12 20 -39.9
    endloop
  endfacet
  facet normal 0 0 -1
    outer loop
      vertex -22 -30 -39.9
      vertex -12 20 -39.9
      vertex -12 -20 -39.9
    endloop
  endfacet
  facet normal 0 0 -1
    outer loop
      vertex -22 -30 -39.9
      vertex -12 -20 -39.9
      vertex 43 -30 -39.9
    endloop
  endfacet
  facet normal 0 0 -1
    outer loop
      vertex 43 -30 -39.9
      vertex 33 -20 -39.9
      vertex 43 30 -39.9
    endloop
  endfacet
  facet normal 0 0 -1
    outer loop
      vertex 33 -20 -39.9
      vertex 33 20 -39.9
      vertex 43 30 -39.9
    endloop
  endfacet
  facet normal 0 0 -1
    outer loop
      vertex -12 20 -39.9
      vertex -22 30 -39.9
      vertex 33 20 -39.9
    endloop
  endfacet
  facet normal 0 1 0
    outer loop
      vertex 11.1168 30 -18.4629
      vertex -22 30 0.1
      vertex 43 30 0.1
    endloop
  endfacet
  facet normal 0 1 0
    outer loop
      vertex -22 30 -39.9
      vertex -22 30 0.1
      vertex 8.1 30 -20
    endloop
  endfacet
  facet normal 0 1 0
    outer loop
      vertex 8.19299 30 -19.4129
      vertex -22 30 0.1
      vertex 8.46287 30 -18.8832
    endloop
  endfacet
  facet normal 0 1 0
    outer loop
      vertex -22 30 -39.9
      vertex 8.1 30 -20
      vertex 8.19299 30 -20.5871
    endloop
  endfacet
  facet normal 0 1 0
    outer loop
      vertex -22 30 -39.9
      vertex 8.19299 30 -20.5871
      vertex 8.46287 30 -21.1168
    endloop
  endfacet
  facet normal 0 1 0
    outer loop
      vertex -22 30 -39.9
      vertex 8.46287 30 -21.1168
      vertex 8.88321 30 -21.5371
    endloop
  endfacet
  facet normal 0 1 0
    outer loop
      vertex -22 30 -39.9
      vertex 8.88321 30 -21.5371
      vertex 43 30 -39.9
    endloop
  endfacet
  facet normal 0 1 0
    outer loop
      vertex 8.88321 30 -21.5371
      vertex 9.41287 30 -21.807
      vertex 43 30 -39.9
    endloop
  endfacet
  facet normal 0 1 0
    outer loop
      vertex 10.5871 30 -21.807
      vertex 43 30 -39.9
      vertex 10 30 -21.9
    endloop
  endfacet
  facet normal 0 1 0
    outer loop
      vertex 11.1168 30 -21.5371
      vertex 43 30 -39.9
      vertex 10.5871 30 -21.807
    endloop
  endfacet
  facet normal 0 1 0
    outer loop
      vertex 10 30 -21.9
      vertex 43 30 -39.9
      vertex 9.41287 30 -21.807
    endloop
  endfacet
  facet normal 0 1 0
    outer loop
      vertex 11.807 30 -20.5871
      vertex 43 30 -39.9
      vertex 11.5371 30 -21.1168
    endloop
  endfacet
  facet normal 0 1 0
    outer loop
      vertex 11.1168 30 -21.5371
      vertex 11.5371 30 -21.1168
      vertex 43 30 -39.9
    endloop
  endfacet
  facet normal 0 1 0
    outer loop
      vertex 10 30 -18.1
      vertex -22 30 0.1
      vertex 10.5871 30 -18.193
    endloop
  endfacet
  facet normal 0 1 0
    outer loop
      vertex 43 30 -39.9
      vertex 11.807 30 -20.5871
      vertex 43 30 0.1
    endloop
  endfacet
  facet normal 0 1 0
    outer loop
      vertex 8.46287 30 -18.8832
      vertex -22 30 0.1
      vertex 8.88321 30 -18.4629
    endloop
  endfacet
  facet normal 0 1 0
    outer loop
      vertex 11.807 30 -20.5871
      vertex 11.9 30 -20
      vertex 43 30 0.1
    endloop
  endfacet
  facet normal 0 1 0
    outer loop
      vertex 8.88321 30 -18.4629
      vertex -22 30 0.1
      vertex 9.41287 30 -18.193
    endloop
  endfacet
  facet normal 0 1 0
    outer loop
      vertex 11.9 30 -20
      vertex 11.807 30 -19.4129
      vertex 43 30 0.1
    endloop
  endfacet
  facet normal 0 1 0
    outer loop
      vertex 9.41287 30 -18.193
      vertex -22 30 0.1
      vertex 10 30 -18.1
    endloop
  endfacet
  facet normal 0 1 0
    outer loop
      vertex 11.807 30 -19.4129
      vertex 11.5371 30 -18.8832
      vertex 43 30 0.1
    endloop
  endfacet
  facet normal 0 1 0
    outer loop
      vertex 10.5871 30 -18.193
      vertex -22 30 0.1
      vertex 11.1168 30 -18.4629
    endloop
  endfacet
  facet normal 0 1 0
    outer loop
      vertex 11.5371 30 -18.8832
      vertex 11.1168 30 -18.4629
      vertex 43 30 0.1
    endloop
  endfacet
  facet normal 0 1 0
    outer loop
      vertex 8.1 30 -20
      vertex -22 30 0.1
      vertex 8.19299 30 -19.4129
    endloop
  endfacet
  facet normal 0 0 1
    outer loop
      vertex 0 -12.5 0.1
      vertex -22 -30 0.1
      vertex 43 -30 0.1
    endloop
  endfacet
  facet normal 0 0 1
    outer loop
      vertex -22 30 0.1
      vertex -22 -30 0.1
      vertex -12.2268 -2.5989 0.1
    endloop
  endfacet
  facet normal 0 0 1
    outer loop
      vertex -22 30 0.1
      vertex -12.2268 -2.5989 0.1
      vertex -12.5 0 0.1
    endloop
  endfacet
  facet normal 0 0 1
    outer loop
      vertex -22 30 0.1
      vertex -12.5 0 0.1
      vertex -12.2268 2.5989 0.1
    endloop
  endfacet
  facet normal 0 0 1
    outer loop
      vertex -22 30 0.1
      vertex -12.2268 2.5989 0.1
      vertex -11.4193 5.08421 0.1
    endloop
  endfacet
  facet normal 0 0 1
    outer loop
      vertex -22 30 0.1
      vertex -11.4193 5.08421 0.1
      vertex -10.1127 7.34732 0.1
    endloop
  endfacet
  facet normal 0 0 1
    outer loop
      vertex -22 30 0.1
      vertex -10.1127 7.34732 0.1
      vertex -8.36413 9.28931 0.1
    endloop
  endfacet
  facet normal 0 0 1
    outer loop
      vertex -22 30 0.1
      vertex -8.36413 9.28931 0.1
      vertex -6.25 10.8253 0.1
    endloop
  endfacet
  facet normal 0 0 1
    outer loop
      vertex 0 12.5 0.1
      vertex 32 12.5 0.1
      vertex 43 30 0.1
    endloop
  endfacet
  facet normal 0 0 1
    outer loop
      vertex -22 30 0.1
      vertex -6.25 10.8253 0.1
      vertex -3.86271 11.8882 0.1
    endloop
  endfacet
  facet normal 0 0 1
    outer loop
      vertex 43 30 0.1
      vertex -22 30 0.1
      vertex -1.30661 12.4315 0.1
    endloop
  endfacet
  facet normal 0 0 1
    outer loop
      vertex 0 12.5 0.1
      vertex -1.30661 12.4315 0.1
      vertex 0 12.4315 0.1
    endloop
  endfacet
  facet normal 0 0 1
    outer loop
      vertex 43 30 0.1
      vertex -1.30661 12.4315 0.1
      vertex 0 12.5 0.1
    endloop
  endfacet
  facet normal 0 0 1
    outer loop
      vertex 43 30 0.1
      vertex 32 12.5 0.1
      vertex 43 -30 0.1
    endloop
  endfacet
  facet normal 0 0 1
    outer loop
      vertex 32 12.5 0.1
      vertex 32 -12.5 0.1
      vertex 43 -30 0.1
    endloop
  endfacet
  facet normal 0 0 1
    outer loop
      vertex -1.30661 -12.4315 0.1
      vertex -22 -30 0.1
      vertex 0 -12.5 0.1
    endloop
  endfacet
  facet normal 0 0 1
    outer loop
      vertex 0 -12.4315 0.1
      vertex -1.30661 -12.4315 0.1
      vertex 0 -12.5 0.1
    endloop
  endfacet
  facet normal 0 0 1
    outer loop
      vertex -3.86271 -11.8882 0.1
      vertex -22 -30 0.1
      vertex -1.30661 -12.4315 0.1
    endloop
  endfacet
  facet normal 0 0 1
    outer loop
      vertex -6.25 -10.8253 0.1
      vertex -22 -30 0.1
      vertex -3.86271 -11.8882 0.1
    endloop
  endfacet
  facet normal 0 0 1
    outer loop
      vertex -8.36413 -9.28931 0.1
      vertex -22 -30 0.1
      vertex -6.25 -10.8253 0.1
    endloop
  endfacet
  facet normal 0 0 1
    outer loop
      vertex -10.1127 -7.34732 0.1
      vertex -22 -30 0.1
      vertex -8.36413 -9.28931 0.1
    endloop
  endfacet
  facet normal 0 0 1
    outer loop
      vertex -11.4193 -5.08421 0.1
      vertex -22 -30 0.1
      vertex -10.1127 -7.34732 0.1
    endloop
  endfacet
  facet normal 0 0 1
    outer loop
      vertex -12.2268 -2.5989 0.1
      vertex -22 -30 0.1
      vertex -11.4193 -5.08421 0.1
    endloop
  endfacet
  facet normal 0 0 1
    outer loop
      vertex -3.86271 11.8882 0.1
      vertex -1.30661 12.4315 0.1
      vertex -22 30 0.1
    endloop
  endfacet
  facet normal 0 0 1
    outer loop
      vertex 32 -12.5 0.1
      vertex 0 -12.5 0.1
      vertex 43 -30 0.1
    endloop
  endfacet
  facet normal 1 0 0
    outer loop
      vertex 43 -30 0.1
      vertex 43 -30 -39.9
      vertex 43 30 -39.9
    endloop
  endfacet
  facet normal 1 0 0
    outer loop
      vertex 43 30 0.1
      vertex 43 -30 0.1
      vertex 43 30 -39.9
    endloop
  endfacet
  facet normal 0.891007 -8.23546e-017 0.45399
    outer loop
      vertex 8.46287 -30 -21.1168
      vertex 8.46287 -20 -21.1168
      vertex 8.19299 -20 -20.5871
    endloop
  endfacet
  facet normal 0.891007 -8.23546e-017 0.45399
    outer loop
      vertex 8.19299 -30 -20.5871
      vertex 8.46287 -30 -21.1168
      vertex 8.19299 -20 -20.5871
    endloop
  endfacet
  facet normal 0.987688 -7.0055e-017 0.156435
    outer loop
      vertex 8.19299 -30 -20.5871
      vertex 8.19299 -20 -20.5871
      vertex 8.1 -20 -20
    endloop
  endfacet
  facet normal 0.987688 -7.0055e-017 0.156435
    outer loop
      vertex 8.1 -30 -20
      vertex 8.19299 -30 -20.5871
      vertex 8.1 -20 -20
    endloop
  endfacet
  facet normal 0.707107 -8.65927e-017 0.707107
    outer loop
      vertex 8.88321 -30 -21.5371
      vertex 8.88321 -20 -21.5371
      vertex 8.46287 -20 -21.1168
    endloop
  endfacet
  facet normal 0.707107 -8.65927e-017 0.707107
    outer loop
      vertex 8.46287 -30 -21.1168
      vertex 8.88321 -30 -21.5371
      vertex 8.46287 -20 -21.1168
    endloop
  endfacet
  facet normal 0.45399 -8.23546e-017 0.891007
    outer loop
      vertex 9.41287 -30 -21.807
      vertex 9.41287 -20 -21.807
      vertex 8.88321 -20 -21.5371
    endloop
  endfacet
  facet normal 0.45399 -8.23546e-017 0.891007
    outer loop
      vertex 8.88321 -30 -21.5371
      vertex 9.41287 -30 -21.807
      vertex 8.88321 -20 -21.5371
    endloop
  endfacet
  facet normal 0.156435 -7.0055e-017 0.987688
    outer loop
      vertex 10 -30 -21.9
      vertex 10 -20 -21.9
      vertex 9.41287 -20 -21.807
    endloop
  endfacet
  facet normal 0.156435 -7.0055e-017 0.987688
    outer loop
      vertex 9.41287 -30 -21.807
      vertex 10 -30 -21.9
      vertex 9.41287 -20 -21.807
    endloop
  endfacet
  facet normal -0.156435 -5.08979e-017 0.987688
    outer loop
      vertex 10.5871 -30 -21.807
      vertex 10.5871 -20 -21.807
      vertex 10 -20 -21.9
    endloop
  endfacet
  facet normal -0.156435 -5.08979e-017 0.987688
    outer loop
      vertex 10 -30 -21.9
      vertex 10.5871 -30 -21.807
      vertex 10 -20 -21.9
    endloop
  endfacet
  facet normal -0.45399 -2.67587e-017 0.891007
    outer loop
      vertex 11.1168 -30 -21.5371
      vertex 11.1168 -20 -21.5371
      vertex 10.5871 -20 -21.807
    endloop
  endfacet
  facet normal -0.45399 -2.67587e-017 0.891007
    outer loop
      vertex 10.5871 -30 -21.807
      vertex 11.1168 -30 -21.5371
      vertex 10.5871 -20 -21.807
    endloop
  endfacet
  facet normal -0.707107 1.62325e-049 0.707107
    outer loop
      vertex 11.5371 -20 -21.1168
      vertex 11.1168 -20 -21.5371
      vertex 11.5371 -30 -21.1168
    endloop
  endfacet
  facet normal -0.707107 1.62325e-049 0.707107
    outer loop
      vertex 11.5371 -30 -21.1168
      vertex 11.1168 -20 -21.5371
      vertex 11.1168 -30 -21.5371
    endloop
  endfacet
  facet normal -0.891007 2.67587e-017 0.45399
    outer loop
      vertex 11.807 -20 -20.5871
      vertex 11.5371 -20 -21.1168
      vertex 11.807 -30 -20.5871
    endloop
  endfacet
  facet normal -0.891007 2.67587e-017 0.45399
    outer loop
      vertex 11.807 -30 -20.5871
      vertex 11.5371 -20 -21.1168
      vertex 11.5371 -30 -21.1168
    endloop
  endfacet
  facet normal -0.987688 5.08979e-017 0.156435
    outer loop
      vertex 11.9 -20 -20
      vertex 11.807 -20 -20.5871
      vertex 11.9 -30 -20
    endloop
  endfacet
  facet normal -0.987688 5.08979e-017 0.156435
    outer loop
      vertex 11.9 -30 -20
      vertex 11.807 -20 -20.5871
      vertex 11.807 -30 -20.5871
    endloop
  endfacet
  facet normal -0.987688 7.0055e-017 -0.156435
    outer loop
      vertex 11.9 -20 -20
      vertex 11.9 -30 -20
      vertex 11.807 -20 -19.4129
    endloop
  endfacet
  facet normal -0.987688 7.0055e-017 -0.156435
    outer loop
      vertex 11.807 -20 -19.4129
      vertex 11.9 -30 -20
      vertex 11.807 -30 -19.4129
    endloop
  endfacet
  facet normal -0.891007 8.23546e-017 -0.45399
    outer loop
      vertex 11.807 -20 -19.4129
      vertex 11.807 -30 -19.4129
      vertex 11.5371 -20 -18.8832
    endloop
  endfacet
  facet normal -0.891007 8.23546e-017 -0.45399
    outer loop
      vertex 11.5371 -20 -18.8832
      vertex 11.807 -30 -19.4129
      vertex 11.5371 -30 -18.8832
    endloop
  endfacet
  facet normal -0.707107 8.65927e-017 -0.707107
    outer loop
      vertex 11.5371 -20 -18.8832
      vertex 11.5371 -30 -18.8832
      vertex 11.1168 -20 -18.4629
    endloop
  endfacet
  facet normal -0.707107 8.65927e-017 -0.707107
    outer loop
      vertex 11.1168 -20 -18.4629
      vertex 11.5371 -30 -18.8832
      vertex 11.1168 -30 -18.4629
    endloop
  endfacet
  facet normal -0.45399 8.23546e-017 -0.891007
    outer loop
      vertex 11.1168 -20 -18.4629
      vertex 11.1168 -30 -18.4629
      vertex 10.5871 -20 -18.193
    endloop
  endfacet
  facet normal -0.45399 8.23546e-017 -0.891007
    outer loop
      vertex 10.5871 -20 -18.193
      vertex 11.1168 -30 -18.4629
      vertex 10.5871 -30 -18.193
    endloop
  endfacet
  facet normal -0.156435 7.0055e-017 -0.987688
    outer loop
      vertex 10.5871 -20 -18.193
      vertex 10.5871 -30 -18.193
      vertex 10 -20 -18.1
    endloop
  endfacet
  facet normal -0.156435 7.0055e-017 -0.987688
    outer loop
      vertex 10 -20 -18.1
      vertex 10.5871 -30 -18.193
      vertex 10 -30 -18.1
    endloop
  endfacet
  facet normal 0.156435 5.08979e-017 -0.987688
    outer loop
      vertex 10 -20 -18.1
      vertex 10 -30 -18.1
      vertex 9.41287 -20 -18.193
    endloop
  endfacet
  facet normal 0.156435 5.08979e-017 -0.987688
    outer loop
      vertex 9.41287 -20 -18.193
      vertex 10 -30 -18.1
      vertex 9.41287 -30 -18.193
    endloop
  endfacet
  facet normal 0.45399 2.67587e-017 -0.891007
    outer loop
      vertex 9.41287 -20 -18.193
      vertex 9.41287 -30 -18.193
      vertex 8.88321 -20 -18.4629
    endloop
  endfacet
  facet normal 0.45399 2.67587e-017 -0.891007
    outer loop
      vertex 8.88321 -20 -18.4629
      vertex 9.41287 -30 -18.193
      vertex 8.88321 -30 -18.4629
    endloop
  endfacet
  facet normal 0.707107 -1.62325e-049 -0.707107
    outer loop
      vertex 8.46287 -20 -18.8832
      vertex 8.88321 -20 -18.4629
      vertex 8.88321 -30 -18.4629
    endloop
  endfacet
  facet normal 0.707107 -1.62325e-049 -0.707107
    outer loop
      vertex 8.46287 -30 -18.8832
      vertex 8.46287 -20 -18.8832
      vertex 8.88321 -30 -18.4629
    endloop
  endfacet
  facet normal 0.891007 -2.67587e-017 -0.45399
    outer loop
      vertex 8.19299 -20 -19.4129
      vertex 8.46287 -20 -18.8832
      vertex 8.46287 -30 -18.8832
    endloop
  endfacet
  facet normal 0.891007 -2.67587e-017 -0.45399
    outer loop
      vertex 8.19299 -30 -19.4129
      vertex 8.19299 -20 -19.4129
      vertex 8.46287 -30 -18.8832
    endloop
  endfacet
  facet normal 0.987688 -5.08979e-017 -0.156435
    outer loop
      vertex 8.1 -20 -20
      vertex 8.19299 -20 -19.4129
      vertex 8.19299 -30 -19.4129
    endloop
  endfacet
  facet normal 0.987688 -5.08979e-017 -0.156435
    outer loop
      vertex 8.1 -30 -20
      vertex 8.1 -20 -20
      vertex 8.19299 -30 -19.4129
    endloop
  endfacet
  facet normal 1 0 0
    outer loop
      vertex -12 20 -39.9
      vertex -12 20 -9.9
      vertex -12 -20 -9.9
    endloop
  endfacet
  facet normal 1 0 0
    outer loop
      vertex -12 -20 -39.9
      vertex -12 20 -39.9
      vertex -12 -20 -9.9
    endloop
  endfacet
  facet normal 0 -1 0
    outer loop
      vertex 9.41287 20 -18.193
      vertex 33 20 -9.9
      vertex -12 20 -9.9
    endloop
  endfacet
  facet normal 0 -1 0
    outer loop
      vertex -12 20 -39.9
      vertex 33 20 -39.9
      vertex -12 20 -9.9
    endloop
  endfacet
  facet normal 0 -1 0
    outer loop
      vertex 8.19299 20 -20.5871
      vertex 8.1 20 -20
      vertex -12 20 -9.9
    endloop
  endfacet
  facet normal 0 -1 0
    outer loop
      vertex 8.1 20 -20
      vertex 8.19299 20 -19.4129
      vertex -12 20 -9.9
    endloop
  endfacet
  facet normal 0 -1 0
    outer loop
      vertex 8.19299 20 -19.4129
      vertex 8.46287 20 -18.8832
      vertex -12 20 -9.9
    endloop
  endfacet
  facet normal 0 -1 0
    outer loop
      vertex 8.46287 20 -18.8832
      vertex 8.88321 20 -18.4629
      vertex -12 20 -9.9
    endloop
  endfacet
  facet normal 0 -1 0
    outer loop
      vertex 8.88321 20 -18.4629
      vertex 9.41287 20 -18.193
      vertex -12 20 -9.9
    endloop
  endfacet
  facet normal 0 -1 0
    outer loop
      vertex 10 20 -18.1
      vertex 10.5871 20 -18.193
      vertex 33 20 -9.9
    endloop
  endfacet
  facet normal 0 -1 0
    outer loop
      vertex 10.5871 20 -18.193
      vertex 11.1168 20 -18.4629
      vertex 33 20 -9.9
    endloop
  endfacet
  facet normal 0 -1 0
    outer loop
      vertex 11.1168 20 -18.4629
      vertex 11.5371 20 -18.8832
      vertex 33 20 -9.9
    endloop
  endfacet
  facet normal 0 -1 0
    outer loop
      vertex 10.5871 20 -21.807
      vertex 10 20 -21.9
      vertex 33 20 -39.9
    endloop
  endfacet
  facet normal 0 -1 0
    outer loop
      vertex 33 20 -39.9
      vertex 33 20 -9.9
      vertex 11.5371 20 -18.8832
    endloop
  endfacet
  facet normal 0 -1 0
    outer loop
      vertex 33 20 -39.9
      vertex 11.5371 20 -18.8832
      vertex 11.807 20 -19.4129
    endloop
  endfacet
  facet normal 0 -1 0
    outer loop
      vertex 33 20 -39.9
      vertex 11.807 20 -19.4129
      vertex 11.9 20 -20
    endloop
  endfacet
  facet normal 0 -1 0
    outer loop
      vertex 33 20 -39.9
      vertex 11.9 20 -20
      vertex 11.807 20 -20.5871
    endloop
  endfacet
  facet normal 0 -1 0
    outer loop
      vertex 33 20 -39.9
      vertex 11.807 20 -20.5871
      vertex 11.5371 20 -21.1168
    endloop
  endfacet
  facet normal 0 -1 0
    outer loop
      vertex 33 20 -39.9
      vertex 11.5371 20 -21.1168
      vertex 11.1168 20 -21.5371
    endloop
  endfacet
  facet normal 0 -1 0
    outer loop
      vertex 8.88321 20 -21.5371
      vertex 8.46287 20 -21.1168
      vertex -12 20 -9.9
    endloop
  endfacet
  facet normal 0 -1 0
    outer loop
      vertex 33 20 -39.9
      vertex 11.1168 20 -21.5371
      vertex 10.5871 20 -21.807
    endloop
  endfacet
  facet normal 0 -1 0
    outer loop
      vertex 8.46287 20 -21.1168
      vertex 8.19299 20 -20.5871
      vertex -12 20 -9.9
    endloop
  endfacet
  facet normal 0 -1 0
    outer loop
      vertex 33 20 -39.9
      vertex 10 20 -21.9
      vertex 9.41287 20 -21.807
    endloop
  endfacet
  facet normal 0 -1 0
    outer loop
      vertex 33 20 -39.9
      vertex 8.88321 20 -21.5371
      vertex -12 20 -9.9
    endloop
  endfacet
  facet normal 0 -1 0
    outer loop
      vertex 33 20 -39.9
      vertex 9.41287 20 -21.807
      vertex 8.88321 20 -21.5371
    endloop
  endfacet
  facet normal 0 -1 0
    outer loop
      vertex 9.41287 20 -18.193
      vertex 10 20 -18.1
      vertex 33 20 -9.9
    endloop
  endfacet
  facet normal -1 0 0
    outer loop
      vertex 33 20 -9.9
      vertex 33 20 -39.9
      vertex 33 -20 -9.9
    endloop
  endfacet
  facet normal -1 0 0
    outer loop
      vertex 33 -20 -9.9
      vertex 33 20 -39.9
      vertex 33 -20 -39.9
    endloop
  endfacet
  facet normal 0 1 0
    outer loop
      vertex 8.88321 -20 -21.5371
      vertex 33 -20 -39.9
      vertex -12 -20 -9.9
    endloop
  endfacet
  facet normal 0 1 0
    outer loop
      vertex -12 -20 -9.9
      vertex 33 -20 -39.9
      vertex -12 -20 -39.9
    endloop
  endfacet
  facet normal 0 1 0
    outer loop
      vertex 11.5371 -20 -21.1168
      vertex 33 -20 -9.9
      vertex 11.1168 -20 -21.5371
    endloop
  endfacet
  facet normal 0 1 0
    outer loop
      vertex 8.1 -20 -20
      vertex 8.19299 -20 -20.5871
      vertex -12 -20 -9.9
    endloop
  endfacet
  facet normal 0 1 0
    outer loop
      vertex 10 -20 -21.9
      vertex 33 -20 -39.9
      vertex 9.41287 -20 -21.807
    endloop
  endfacet
  facet normal 0 1 0
    outer loop
      vertex 8.19299 -20 -20.5871
      vertex 8.46287 -20 -21.1168
      vertex -12 -20 -9.9
    endloop
  endfacet
  facet normal 0 1 0
    outer loop
      vertex 8.46287 -20 -21.1168
      vertex 8.88321 -20 -21.5371
      vertex -12 -20 -9.9
    endloop
  endfacet
  facet normal 0 1 0
    outer loop
      vertex 10.5871 -20 -21.807
      vertex 33 -20 -39.9
      vertex 10 -20 -21.9
    endloop
  endfacet
  facet normal 0 1 0
    outer loop
      vertex 11.1168 -20 -21.5371
      vertex 33 -20 -39.9
      vertex 10.5871 -20 -21.807
    endloop
  endfacet
  facet normal 0 1 0
    outer loop
      vertex 33 -20 -9.9
      vertex 33 -20 -39.9
      vertex 11.1168 -20 -21.5371
    endloop
  endfacet
  facet normal 0 1 0
    outer loop
      vertex 11.807 -20 -20.5871
      vertex 33 -20 -9.9
      vertex 11.5371 -20 -21.1168
    endloop
  endfacet
  facet normal 0 1 0
    outer loop
      vertex 11.5371 -20 -18.8832
      vertex 33 -20 -9.9
      vertex 11.807 -20 -19.4129
    endloop
  endfacet
  facet normal 0 1 0
    outer loop
      vertex 33 -20 -9.9
      vertex 11.807 -20 -20.5871
      vertex 11.9 -20 -20
    endloop
  endfacet
  facet normal 0 1 0
    outer loop
      vertex 33 -20 -9.9
      vertex 11.9 -20 -20
      vertex 11.807 -20 -19.4129
    endloop
  endfacet
  facet normal 0 1 0
    outer loop
      vertex 10 -20 -18.1
      vertex -12 -20 -9.9
      vertex 10.5871 -20 -18.193
    endloop
  endfacet
  facet normal 0 1 0
    outer loop
      vertex 33 -20 -9.9
      vertex 11.5371 -20 -18.8832
      vertex 11.1168 -20 -18.4629
    endloop
  endfacet
  facet normal 0 1 0
    outer loop
      vertex 33 -20 -9.9
      vertex 11.1168 -20 -18.4629
      vertex 10.5871 -20 -18.193
    endloop
  endfacet
  facet normal 0 1 0
    outer loop
      vertex 33 -20 -9.9
      vertex 10.5871 -20 -18.193
      vertex -12 -20 -9.9
    endloop
  endfacet
  facet normal 0 1 0
    outer loop
      vertex 9.41287 -20 -18.193
      vertex -12 -20 -9.9
      vertex 10 -20 -18.1
    endloop
  endfacet
  facet normal 0 1 0
    outer loop
      vertex 9.41287 -20 -18.193
      vertex 8.88321 -20 -18.4629
      vertex -12 -20 -9.9
    endloop
  endfacet
  facet normal 0 1 0
    outer loop
      vertex 8.88321 -20 -18.4629
      vertex 8.46287 -20 -18.8832
      vertex -12 -20 -9.9
    endloop
  endfacet
  facet normal 0 1 0
    outer loop
      vertex 8.46287 -20 -18.8832
      vertex 8.19299 -20 -19.4129
      vertex -12 -20 -9.9
    endloop
  endfacet
  facet normal 0 1 0
    outer loop
      vertex 8.19299 -20 -19.4129
      vertex 8.1 -20 -20
      vertex -12 -20 -9.9
    endloop
  endfacet
  facet normal 0 1 0
    outer loop
      vertex 9.41287 -20 -21.807
      vertex 33 -20 -39.9
      vertex 8.88321 -20 -21.5371
    endloop
  endfacet
  facet normal 0.987688 -7.0055e-017 0.156435
    outer loop
      vertex 8.19299 20 -20.5871
      vertex 8.19299 30 -20.5871
      vertex 8.1 30 -20
    endloop
  endfacet
  facet normal 0.987688 -7.0055e-017 0.156435
    outer loop
      vertex 8.1 20 -20
      vertex 8.19299 20 -20.5871
      vertex 8.1 30 -20
    endloop
  endfacet
  facet normal 0.987688 -5.08979e-017 -0.156435
    outer loop
      vertex 8.1 30 -20
      vertex 8.19299 30 -19.4129
      vertex 8.19299 20 -19.4129
    endloop
  endfacet
  facet normal 0.987688 -5.08979e-017 -0.156435
    outer loop
      vertex 8.1 20 -20
      vertex 8.1 30 -20
      vertex 8.19299 20 -19.4129
    endloop
  endfacet
  facet normal 0.891007 -2.67587e-017 -0.45399
    outer loop
      vertex 8.19299 30 -19.4129
      vertex 8.46287 30 -18.8832
      vertex 8.46287 20 -18.8832
    endloop
  endfacet
  facet normal 0.891007 -2.67587e-017 -0.45399
    outer loop
      vertex 8.19299 20 -19.4129
      vertex 8.19299 30 -19.4129
      vertex 8.46287 20 -18.8832
    endloop
  endfacet
  facet normal 0.707107 -1.62325e-049 -0.707107
    outer loop
      vertex 8.46287 30 -18.8832
      vertex 8.88321 30 -18.4629
      vertex 8.88321 20 -18.4629
    endloop
  endfacet
  facet normal 0.707107 -1.62325e-049 -0.707107
    outer loop
      vertex 8.46287 20 -18.8832
      vertex 8.46287 30 -18.8832
      vertex 8.88321 20 -18.4629
    endloop
  endfacet
  facet normal 0.45399 2.67587e-017 -0.891007
    outer loop
      vertex 9.41287 30 -18.193
      vertex 9.41287 20 -18.193
      vertex 8.88321 30 -18.4629
    endloop
  endfacet
  facet normal 0.45399 2.67587e-017 -0.891007
    outer loop
      vertex 8.88321 30 -18.4629
      vertex 9.41287 20 -18.193
      vertex 8.88321 20 -18.4629
    endloop
  endfacet
  facet normal 0.156435 5.08979e-017 -0.987688
    outer loop
      vertex 10 30 -18.1
      vertex 10 20 -18.1
      vertex 9.41287 30 -18.193
    endloop
  endfacet
  facet normal 0.156435 5.08979e-017 -0.987688
    outer loop
      vertex 9.41287 30 -18.193
      vertex 10 20 -18.1
      vertex 9.41287 20 -18.193
    endloop
  endfacet
  facet normal -0.156435 7.0055e-017 -0.987688
    outer loop
      vertex 10.5871 30 -18.193
      vertex 10.5871 20 -18.193
      vertex 10 30 -18.1
    endloop
  endfacet
  facet normal -0.156435 7.0055e-017 -0.987688
    outer loop
      vertex 10 30 -18.1
      vertex 10.5871 20 -18.193
      vertex 10 20 -18.1
    endloop
  endfacet
  facet normal -0.45399 8.23546e-017 -0.891007
    outer loop
      vertex 11.1168 30 -18.4629
      vertex 11.1168 20 -18.4629
      vertex 10.5871 30 -18.193
    endloop
  endfacet
  facet normal -0.45399 8.23546e-017 -0.891007
    outer loop
      vertex 10.5871 30 -18.193
      vertex 11.1168 20 -18.4629
      vertex 10.5871 20 -18.193
    endloop
  endfacet
  facet normal -0.707107 8.65927e-017 -0.707107
    outer loop
      vertex 11.5371 30 -18.8832
      vertex 11.5371 20 -18.8832
      vertex 11.1168 30 -18.4629
    endloop
  endfacet
  facet normal -0.707107 8.65927e-017 -0.707107
    outer loop
      vertex 11.1168 30 -18.4629
      vertex 11.5371 20 -18.8832
      vertex 11.1168 20 -18.4629
    endloop
  endfacet
  facet normal -0.891007 8.23546e-017 -0.45399
    outer loop
      vertex 11.807 30 -19.4129
      vertex 11.807 20 -19.4129
      vertex 11.5371 30 -18.8832
    endloop
  endfacet
  facet normal -0.891007 8.23546e-017 -0.45399
    outer loop
      vertex 11.5371 30 -18.8832
      vertex 11.807 20 -19.4129
      vertex 11.5371 20 -18.8832
    endloop
  endfacet
  facet normal -0.987688 7.0055e-017 -0.156435
    outer loop
      vertex 11.9 30 -20
      vertex 11.9 20 -20
      vertex 11.807 30 -19.4129
    endloop
  endfacet
  facet normal -0.987688 7.0055e-017 -0.156435
    outer loop
      vertex 11.807 30 -19.4129
      vertex 11.9 20 -20
      vertex 11.807 20 -19.4129
    endloop
  endfacet
  facet normal -0.987688 5.08979e-017 0.156435
    outer loop
      vertex 11.9 30 -20
      vertex 11.807 30 -20.5871
      vertex 11.9 20 -20
    endloop
  endfacet
  facet normal -0.987688 5.08979e-017 0.156435
    outer loop
      vertex 11.9 20 -20
      vertex 11.807 30 -20.5871
      vertex 11.807 20 -20.5871
    endloop
  endfacet
  facet normal -0.891007 2.67587e-017 0.45399
    outer loop
      vertex 11.807 30 -20.5871
      vertex 11.5371 30 -21.1168
      vertex 11.807 20 -20.5871
    endloop
  endfacet
  facet normal -0.891007 2.67587e-017 0.45399
    outer loop
      vertex 11.807 20 -20.5871
      vertex 11.5371 30 -21.1168
      vertex 11.5371 20 -21.1168
    endloop
  endfacet
  facet normal -0.707107 1.62325e-049 0.707107
    outer loop
      vertex 11.5371 30 -21.1168
      vertex 11.1168 30 -21.5371
      vertex 11.5371 20 -21.1168
    endloop
  endfacet
  facet normal -0.707107 1.62325e-049 0.707107
    outer loop
      vertex 11.5371 20 -21.1168
      vertex 11.1168 30 -21.5371
      vertex 11.1168 20 -21.5371
    endloop
  endfacet
  facet normal -0.45399 -2.67587e-017 0.891007
    outer loop
      vertex 11.1168 20 -21.5371
      vertex 11.1168 30 -21.5371
      vertex 10.5871 30 -21.807
    endloop
  endfacet
  facet normal -0.45399 -2.67587e-017 0.891007
    outer loop
      vertex 10.5871 20 -21.807
      vertex 11.1168 20 -21.5371
      vertex 10.5871 30 -21.807
    endloop
  endfacet
  facet normal -0.156435 -5.08979e-017 0.987688
    outer loop
      vertex 10.5871 20 -21.807
      vertex 10.5871 30 -21.807
      vertex 10 30 -21.9
    endloop
  endfacet
  facet normal -0.156435 -5.08979e-017 0.987688
    outer loop
      vertex 10 20 -21.9
      vertex 10.5871 20 -21.807
      vertex 10 30 -21.9
    endloop
  endfacet
  facet normal 0.156435 -7.0055e-017 0.987688
    outer loop
      vertex 10 20 -21.9
      vertex 10 30 -21.9
      vertex 9.41287 30 -21.807
    endloop
  endfacet
  facet normal 0.156435 -7.0055e-017 0.987688
    outer loop
      vertex 9.41287 20 -21.807
      vertex 10 20 -21.9
      vertex 9.41287 30 -21.807
    endloop
  endfacet
  facet normal 0.45399 -8.23546e-017 0.891007
    outer loop
      vertex 9.41287 20 -21.807
      vertex 9.41287 30 -21.807
      vertex 8.88321 30 -21.5371
    endloop
  endfacet
  facet normal 0.45399 -8.23546e-017 0.891007
    outer loop
      vertex 8.88321 20 -21.5371
      vertex 9.41287 20 -21.807
      vertex 8.88321 30 -21.5371
    endloop
  endfacet
  facet normal 0.707107 -8.65927e-017 0.707107
    outer loop
      vertex 8.88321 20 -21.5371
      vertex 8.88321 30 -21.5371
      vertex 8.46287 30 -21.1168
    endloop
  endfacet
  facet normal 0.707107 -8.65927e-017 0.707107
    outer loop
      vertex 8.46287 20 -21.1168
      vertex 8.88321 20 -21.5371
      vertex 8.46287 30 -21.1168
    endloop
  endfacet
  facet normal 0.891007 -8.23546e-017 0.45399
    outer loop
      vertex 8.46287 20 -21.1168
      vertex 8.46287 30 -21.1168
      vertex 8.19299 30 -20.5871
    endloop
  endfacet
  facet normal 0.891007 -8.23546e-017 0.45399
    outer loop
      vertex 8.19299 20 -20.5871
      vertex 8.46287 20 -21.1168
      vertex 8.19299 30 -20.5871
    endloop
  endfacet
  facet normal -0.994522 -0.104528 0
    outer loop
      vertex -12.5 0 0.1
      vertex -12.2268 -2.5989 0.1
      vertex -12.5 0 30
    endloop
  endfacet
  facet normal -0.994522 -0.104528 0
    outer loop
      vertex -12.5 0 30
      vertex -12.2268 -2.5989 0.1
      vertex -12.2268 -2.5989 30
    endloop
  endfacet
  facet normal -0.951056 -0.309017 0
    outer loop
      vertex -12.2268 -2.5989 0.1
      vertex -11.4193 -5.08421 0.1
      vertex -12.2268 -2.5989 30
    endloop
  endfacet
  facet normal -0.951056 -0.309017 0
    outer loop
      vertex -12.2268 -2.5989 30
      vertex -11.4193 -5.08421 0.1
      vertex -11.4193 -5.08421 30
    endloop
  endfacet
  facet normal -0.866025 -0.5 0
    outer loop
      vertex -11.4193 -5.08421 0.1
      vertex -10.1127 -7.34732 0.1
      vertex -11.4193 -5.08421 30
    endloop
  endfacet
  facet normal -0.866025 -0.5 0
    outer loop
      vertex -11.4193 -5.08421 30
      vertex -10.1127 -7.34732 0.1
      vertex -10.1127 -7.34732 30
    endloop
  endfacet
  facet normal -0.743145 -0.669131 0
    outer loop
      vertex -10.1127 -7.34732 0.1
      vertex -8.36413 -9.28931 0.1
      vertex -10.1127 -7.34732 30
    endloop
  endfacet
  facet normal -0.743145 -0.669131 0
    outer loop
      vertex -10.1127 -7.34732 30
      vertex -8.36413 -9.28931 0.1
      vertex -8.36413 -9.28931 30
    endloop
  endfacet
  facet normal -0.587785 -0.809017 0
    outer loop
      vertex -8.36413 -9.28931 30
      vertex -8.36413 -9.28931 0.1
      vertex -6.25 -10.8253 0.1
    endloop
  endfacet
  facet normal -0.587785 -0.809017 0
    outer loop
      vertex -6.25 -10.8253 30
      vertex -8.36413 -9.28931 30
      vertex -6.25 -10.8253 0.1
    endloop
  endfacet
  facet normal -0.406736 -0.913546 0
    outer loop
      vertex -6.25 -10.8253 30
      vertex -6.25 -10.8253 0.1
      vertex -3.86271 -11.8882 0.1
    endloop
  endfacet
  facet normal -0.406736 -0.913546 0
    outer loop
      vertex -3.86271 -11.8882 30
      vertex -6.25 -10.8253 30
      vertex -3.86271 -11.8882 0.1
    endloop
  endfacet
  facet normal -0.207912 -0.978148 0
    outer loop
      vertex -3.86271 -11.8882 30
      vertex -3.86271 -11.8882 0.1
      vertex -1.30661 -12.4315 0.1
    endloop
  endfacet
  facet normal -0.207912 -0.978148 0
    outer loop
      vertex -1.30661 -12.4315 30
      vertex -3.86271 -11.8882 30
      vertex -1.30661 -12.4315 0.1
    endloop
  endfacet
  facet normal 0 -1 0
    outer loop
      vertex -1.30661 -12.4315 30
      vertex -1.30661 -12.4315 0.1
      vertex 0 -12.4315 0.1
    endloop
  endfacet
  facet normal 0 -1 0
    outer loop
      vertex 0 -12.4315 30
      vertex -1.30661 -12.4315 30
      vertex 0 -12.4315 0.1
    endloop
  endfacet
  facet normal -1 0 0
    outer loop
      vertex 0 -12.5 0.1
      vertex 0 -12.5 30
      vertex 0 -12.4315 0.1
    endloop
  endfacet
  facet normal -1 0 0
    outer loop
      vertex 0 -12.4315 0.1
      vertex 0 -12.5 30
      vertex 0 -12.4315 30
    endloop
  endfacet
  facet normal 0 -1 0
    outer loop
      vertex 10 -12.5 13.1
      vertex 0 -12.5 0.1
      vertex 32 -12.5 0.1
    endloop
  endfacet
  facet normal 0 -1 0
    outer loop
      vertex 32 -12.5 30
      vertex 0 -12.5 30
      vertex 32 -12.5 0.1
    endloop
  endfacet
  facet normal 0 -1 0
    outer loop
      vertex 0 -12.5 30
      vertex 0 -12.5 0.1
      vertex 8.19299 -12.5 14.4129
    endloop
  endfacet
  facet normal 0 -1 0
    outer loop
      vertex 10.5871 -12.5 13.193
      vertex 10 -12.5 13.1
      vertex 32 -12.5 0.1
    endloop
  endfacet
  facet normal 0 -1 0
    outer loop
      vertex 0 -12.5 30
      vertex 8.19299 -12.5 14.4129
      vertex 8.1 -12.5 15
    endloop
  endfacet
  facet normal 0 -1 0
    outer loop
      vertex 11.1168 -12.5 13.4629
      vertex 10.5871 -12.5 13.193
      vertex 32 -12.5 0.1
    endloop
  endfacet
  facet normal 0 -1 0
    outer loop
      vertex 0 -12.5 30
      vertex 8.1 -12.5 15
      vertex 8.19299 -12.5 15.5871
    endloop
  endfacet
  facet normal 0 -1 0
    outer loop
      vertex 11.5371 -12.5 13.8832
      vertex 11.1168 -12.5 13.4629
      vertex 32 -12.5 0.1
    endloop
  endfacet
  facet normal 0 -1 0
    outer loop
      vertex 0 -12.5 30
      vertex 8.19299 -12.5 15.5871
      vertex 8.46287 -12.5 16.1168
    endloop
  endfacet
  facet normal 0 -1 0
    outer loop
      vertex 11.807 -12.5 14.4129
      vertex 11.5371 -12.5 13.8832
      vertex 32 -12.5 0.1
    endloop
  endfacet
  facet normal 0 -1 0
    outer loop
      vertex 0 -12.5 30
      vertex 8.46287 -12.5 16.1168
      vertex 8.88321 -12.5 16.5371
    endloop
  endfacet
  facet normal 0 -1 0
    outer loop
      vertex 0 -12.5 30
      vertex 8.88321 -12.5 16.5371
      vertex 9.41287 -12.5 16.807
    endloop
  endfacet
  facet normal 0 -1 0
    outer loop
      vertex 0 -12.5 30
      vertex 9.41287 -12.5 16.807
      vertex 10 -12.5 16.9
    endloop
  endfacet
  facet normal 0 -1 0
    outer loop
      vertex 11.807 -12.5 15.5871
      vertex 11.9 -12.5 15
      vertex 32 -12.5 0.1
    endloop
  endfacet
  facet normal 0 -1 0
    outer loop
      vertex 0 -12.5 30
      vertex 10 -12.5 16.9
      vertex 10.5871 -12.5 16.807
    endloop
  endfacet
  facet normal 0 -1 0
    outer loop
      vertex 0 -12.5 30
      vertex 11.1168 -12.5 16.5371
      vertex 32 -12.5 0.1
    endloop
  endfacet
  facet normal 0 -1 0
    outer loop
      vertex 0 -12.5 30
      vertex 10.5871 -12.5 16.807
      vertex 11.1168 -12.5 16.5371
    endloop
  endfacet
  facet normal 0 -1 0
    outer loop
      vertex 11.1168 -12.5 16.5371
      vertex 11.5371 -12.5 16.1168
      vertex 32 -12.5 0.1
    endloop
  endfacet
  facet normal 0 -1 0
    outer loop
      vertex 9.41287 -12.5 13.193
      vertex 0 -12.5 0.1
      vertex 10 -12.5 13.1
    endloop
  endfacet
  facet normal 0 -1 0
    outer loop
      vertex 8.88321 -12.5 13.4629
      vertex 0 -12.5 0.1
      vertex 9.41287 -12.5 13.193
    endloop
  endfacet
  facet normal 0 -1 0
    outer loop
      vertex 8.46287 -12.5 13.8832
      vertex 0 -12.5 0.1
      vertex 8.88321 -12.5 13.4629
    endloop
  endfacet
  facet normal 0 -1 0
    outer loop
      vertex 8.19299 -12.5 14.4129
      vertex 0 -12.5 0.1
      vertex 8.46287 -12.5 13.8832
    endloop
  endfacet
  facet normal 0 -1 0
    outer loop
      vertex 11.5371 -12.5 16.1168
      vertex 11.807 -12.5 15.5871
      vertex 32 -12.5 0.1
    endloop
  endfacet
  facet normal 0 -1 0
    outer loop
      vertex 11.9 -12.5 15
      vertex 11.807 -12.5 14.4129
      vertex 32 -12.5 0.1
    endloop
  endfacet
  facet normal 1 0 0
    outer loop
      vertex 32 -12.5 30
      vertex 32 -12.5 0.1
      vertex 32 12.5 0.1
    endloop
  endfacet
  facet normal 1 0 0
    outer loop
      vertex 32 12.5 30
      vertex 32 -12.5 30
      vertex 32 12.5 0.1
    endloop
  endfacet
  facet normal 0 1 0
    outer loop
      vertex 11.5371 12.5 16.1168
      vertex 0 12.5 30
      vertex 32 12.5 0.1
    endloop
  endfacet
  facet normal 0 1 0
    outer loop
      vertex 32 12.5 0.1
      vertex 0 12.5 30
      vertex 32 12.5 30
    endloop
  endfacet
  facet normal 0 1 0
    outer loop
      vertex 0 12.5 0.1
      vertex 0 12.5 30
      vertex 8.1 12.5 15
    endloop
  endfacet
  facet normal 0 1 0
    outer loop
      vertex 0 12.5 0.1
      vertex 8.1 12.5 15
      vertex 8.19299 12.5 14.4129
    endloop
  endfacet
  facet normal 0 1 0
    outer loop
      vertex 0 12.5 0.1
      vertex 8.19299 12.5 14.4129
      vertex 8.46287 12.5 13.8832
    endloop
  endfacet
  facet normal 0 1 0
    outer loop
      vertex 0 12.5 0.1
      vertex 8.46287 12.5 13.8832
      vertex 8.88321 12.5 13.4629
    endloop
  endfacet
  facet normal 0 1 0
    outer loop
      vertex 0 12.5 0.1
      vertex 8.88321 12.5 13.4629
      vertex 32 12.5 0.1
    endloop
  endfacet
  facet normal 0 1 0
    outer loop
      vertex 8.88321 12.5 13.4629
      vertex 9.41287 12.5 13.193
      vertex 32 12.5 0.1
    endloop
  endfacet
  facet normal 0 1 0
    outer loop
      vertex 10.5871 12.5 13.193
      vertex 32 12.5 0.1
      vertex 10 12.5 13.1
    endloop
  endfacet
  facet normal 0 1 0
    outer loop
      vertex 11.1168 12.5 13.4629
      vertex 32 12.5 0.1
      vertex 10.5871 12.5 13.193
    endloop
  endfacet
  facet normal 0 1 0
    outer loop
      vertex 10.5871 12.5 16.807
      vertex 0 12.5 30
      vertex 11.1168 12.5 16.5371
    endloop
  endfacet
  facet normal 0 1 0
    outer loop
      vertex 8.88321 12.5 16.5371
      vertex 0 12.5 30
      vertex 9.41287 12.5 16.807
    endloop
  endfacet
  facet normal 0 1 0
    outer loop
      vertex 11.1168 12.5 13.4629
      vertex 11.5371 12.5 13.8832
      vertex 32 12.5 0.1
    endloop
  endfacet
  facet normal 0 1 0
    outer loop
      vertex 11.5371 12.5 13.8832
      vertex 11.807 12.5 14.4129
      vertex 32 12.5 0.1
    endloop
  endfacet
  facet normal 0 1 0
    outer loop
      vertex 9.41287 12.5 16.807
      vertex 0 12.5 30
      vertex 10 12.5 16.9
    endloop
  endfacet
  facet normal 0 1 0
    outer loop
      vertex 11.807 12.5 14.4129
      vertex 11.9 12.5 15
      vertex 32 12.5 0.1
    endloop
  endfacet
  facet normal 0 1 0
    outer loop
      vertex 10 12.5 16.9
      vertex 0 12.5 30
      vertex 10.5871 12.5 16.807
    endloop
  endfacet
  facet normal 0 1 0
    outer loop
      vertex 11.9 12.5 15
      vertex 11.807 12.5 15.5871
      vertex 32 12.5 0.1
    endloop
  endfacet
  facet normal 0 1 0
    outer loop
      vertex 11.1168 12.5 16.5371
      vertex 0 12.5 30
      vertex 11.5371 12.5 16.1168
    endloop
  endfacet
  facet normal 0 1 0
    outer loop
      vertex 11.807 12.5 15.5871
      vertex 11.5371 12.5 16.1168
      vertex 32 12.5 0.1
    endloop
  endfacet
  facet normal 0 1 0
    outer loop
      vertex 8.46287 12.5 16.1168
      vertex 0 12.5 30
      vertex 8.88321 12.5 16.5371
    endloop
  endfacet
  facet normal 0 1 0
    outer loop
      vertex 8.19299 12.5 15.5871
      vertex 0 12.5 30
      vertex 8.46287 12.5 16.1168
    endloop
  endfacet
  facet normal 0 1 0
    outer loop
      vertex 8.1 12.5 15
      vertex 0 12.5 30
      vertex 8.19299 12.5 15.5871
    endloop
  endfacet
  facet normal 0 1 0
    outer loop
      vertex 10 12.5 13.1
      vertex 32 12.5 0.1
      vertex 9.41287 12.5 13.193
    endloop
  endfacet
  facet normal -1 0 0
    outer loop
      vertex 0 12.4315 0.1
      vertex 0 12.4315 30
      vertex 0 12.5 0.1
    endloop
  endfacet
  facet normal -1 0 0
    outer loop
      vertex 0 12.5 0.1
      vertex 0 12.4315 30
      vertex 0 12.5 30
    endloop
  endfacet
  facet normal 0 1 0
    outer loop
      vertex -1.30661 12.4315 0.1
      vertex -1.30661 12.4315 30
      vertex 0 12.4315 0.1
    endloop
  endfacet
  facet normal 0 1 0
    outer loop
      vertex 0 12.4315 0.1
      vertex -1.30661 12.4315 30
      vertex 0 12.4315 30
    endloop
  endfacet
  facet normal -0.207912 0.978148 0
    outer loop
      vertex -3.86271 11.8882 0.1
      vertex -3.86271 11.8882 30
      vertex -1.30661 12.4315 0.1
    endloop
  endfacet
  facet normal -0.207912 0.978148 0
    outer loop
      vertex -1.30661 12.4315 0.1
      vertex -3.86271 11.8882 30
      vertex -1.30661 12.4315 30
    endloop
  endfacet
  facet normal -0.406736 0.913546 0
    outer loop
      vertex -6.25 10.8253 0.1
      vertex -6.25 10.8253 30
      vertex -3.86271 11.8882 0.1
    endloop
  endfacet
  facet normal -0.406736 0.913546 0
    outer loop
      vertex -3.86271 11.8882 0.1
      vertex -6.25 10.8253 30
      vertex -3.86271 11.8882 30
    endloop
  endfacet
  facet normal -0.587785 0.809017 0
    outer loop
      vertex -8.36413 9.28931 0.1
      vertex -8.36413 9.28931 30
      vertex -6.25 10.8253 0.1
    endloop
  endfacet
  facet normal -0.587785 0.809017 0
    outer loop
      vertex -6.25 10.8253 0.1
      vertex -8.36413 9.28931 30
      vertex -6.25 10.8253 30
    endloop
  endfacet
  facet normal -0.743145 0.669131 0
    outer loop
      vertex -10.1127 7.34732 0.1
      vertex -10.1127 7.34732 30
      vertex -8.36413 9.28931 0.1
    endloop
  endfacet
  facet normal -0.743145 0.669131 0
    outer loop
      vertex -8.36413 9.28931 0.1
      vertex -10.1127 7.34732 30
      vertex -8.36413 9.28931 30
    endloop
  endfacet
  facet normal -0.866025 0.5 0
    outer loop
      vertex -11.4193 5.08421 0.1
      vertex -11.4193 5.08421 30
      vertex -10.1127 7.34732 0.1
    endloop
  endfacet
  facet normal -0.866025 0.5 0
    outer loop
      vertex -10.1127 7.34732 0.1
      vertex -11.4193 5.08421 30
      vertex -10.1127 7.34732 30
    endloop
  endfacet
  facet normal -0.951056 0.309017 0
    outer loop
      vertex -12.2268 2.5989 0.1
      vertex -12.2268 2.5989 30
      vertex -11.4193 5.08421 0.1
    endloop
  endfacet
  facet normal -0.951056 0.309017 0
    outer loop
      vertex -11.4193 5.08421 0.1
      vertex -12.2268 2.5989 30
      vertex -11.4193 5.08421 30
    endloop
  endfacet
  facet normal -0.994522 0.104528 0
    outer loop
      vertex -12.5 0 0.1
      vertex -12.5 0 30
      vertex -12.2268 2.5989 0.1
    endloop
  endfacet
  facet normal -0.994522 0.104528 0
    outer loop
      vertex -12.2268 2.5989 0.1
      vertex -12.5 0 30
      vertex -12.2268 2.5989 30
    endloop
  endfacet
  facet normal 0 0 -1
    outer loop
      vertex 33 20 -9.9
      vertex 33 -20 -9.9
      vertex -12 20 -9.9
    endloop
  endfacet
  facet normal 0 0 -1
    outer loop
      vertex -12 20 -9.9
      vertex 33 -20 -9.9
      vertex -12 -20 -9.9
    endloop
  endfacet
  facet normal 0 0 1
    outer loop
      vertex -12.2268 2.5989 30
      vertex -12.5 0 30
      vertex -12.2268 -2.5989 30
    endloop
  endfacet
  facet normal 0 0 1
    outer loop
      vertex -10.1127 -7.34732 30
      vertex -12.2268 2.5989 30
      vertex -11.4193 -5.08421 30
    endloop
  endfacet
  facet normal 0 0 1
    outer loop
      vertex -11.4193 -5.08421 30
      vertex -12.2268 2.5989 30
      vertex -12.2268 -2.5989 30
    endloop
  endfacet
  facet normal 0 0 1
    outer loop
      vertex -8.36413 -9.28931 30
      vertex -12.2268 2.5989 30
      vertex -10.1127 -7.34732 30
    endloop
  endfacet
  facet normal 0 0 1
    outer loop
      vertex -6.25 -10.8253 30
      vertex -12.2268 2.5989 30
      vertex -8.36413 -9.28931 30
    endloop
  endfacet
  facet normal 0 0 1
    outer loop
      vertex -3.86271 -11.8882 30
      vertex -12.2268 2.5989 30
      vertex -6.25 -10.8253 30
    endloop
  endfacet
  facet normal 0 0 1
    outer loop
      vertex -1.30661 -12.4315 30
      vertex -12.2268 2.5989 30
      vertex -3.86271 -11.8882 30
    endloop
  endfacet
  facet normal 0 0 1
    outer loop
      vertex 0 -12.4315 30
      vertex -12.2268 2.5989 30
      vertex -1.30661 -12.4315 30
    endloop
  endfacet
  facet normal 0 0 1
    outer loop
      vertex 32 -12.5 30
      vertex -12.2268 2.5989 30
      vertex 0 -12.4315 30
    endloop
  endfacet
  facet normal 0 0 1
    outer loop
      vertex 32 -12.5 30
      vertex 0 -12.4315 30
      vertex 0 -12.5 30
    endloop
  endfacet
  facet normal 0 0 1
    outer loop
      vertex 32 12.5 30
      vertex -12.2268 2.5989 30
      vertex 32 -12.5 30
    endloop
  endfacet
  facet normal 0 0 1
    outer loop
      vertex 0 12.4315 30
      vertex -12.2268 2.5989 30
      vertex 32 12.5 30
    endloop
  endfacet
  facet normal 0 0 1
    outer loop
      vertex 0 12.5 30
      vertex 0 12.4315 30
      vertex 32 12.5 30
    endloop
  endfacet
  facet normal 0 0 1
    outer loop
      vertex -3.86271 11.8882 30
      vertex -12.2268 2.5989 30
      vertex -1.30661 12.4315 30
    endloop
  endfacet
  facet normal 0 0 1
    outer loop
      vertex -6.25 10.8253 30
      vertex -12.2268 2.5989 30
      vertex -3.86271 11.8882 30
    endloop
  endfacet
  facet normal 0 0 1
    outer loop
      vertex -8.36413 9.28931 30
      vertex -12.2268 2.5989 30
      vertex -6.25 10.8253 30
    endloop
  endfacet
  facet normal 0 0 1
    outer loop
      vertex -10.1127 7.34732 30
      vertex -12.2268 2.5989 30
      vertex -8.36413 9.28931 30
    endloop
  endfacet
  facet normal 0 0 1
    outer loop
      vertex -11.4193 5.08421 30
      vertex -12.2268 2.5989 30
      vertex -10.1127 7.34732 30
    endloop
  endfacet
  facet normal 0 0 1
    outer loop
      vertex 0 12.4315 30
      vertex -1.30661 12.4315 30
      vertex -12.2268 2.5989 30
    endloop
  endfacet
  facet normal 0.891007 -8.23546e-017 0.45399
    outer loop
      vertex 8.46287 -12.5 13.8832
      vertex 8.46287 12.5 13.8832
      vertex 8.19299 12.5 14.4129
    endloop
  endfacet
  facet normal 0.891007 -8.23546e-017 0.45399
    outer loop
      vertex 8.19299 -12.5 14.4129
      vertex 8.46287 -12.5 13.8832
      vertex 8.19299 12.5 14.4129
    endloop
  endfacet
  facet normal 0.987688 -7.0055e-017 0.156435
    outer loop
      vertex 8.19299 -12.5 14.4129
      vertex 8.19299 12.5 14.4129
      vertex 8.1 12.5 15
    endloop
  endfacet
  facet normal 0.987688 -7.0055e-017 0.156435
    outer loop
      vertex 8.1 -12.5 15
      vertex 8.19299 -12.5 14.4129
      vertex 8.1 12.5 15
    endloop
  endfacet
  facet normal 0.707107 -8.65927e-017 0.707107
    outer loop
      vertex 8.88321 -12.5 13.4629
      vertex 8.88321 12.5 13.4629
      vertex 8.46287 12.5 13.8832
    endloop
  endfacet
  facet normal 0.707107 -8.65927e-017 0.707107
    outer loop
      vertex 8.46287 -12.5 13.8832
      vertex 8.88321 -12.5 13.4629
      vertex 8.46287 12.5 13.8832
    endloop
  endfacet
  facet normal 0.45399 -8.23546e-017 0.891007
    outer loop
      vertex 9.41287 -12.5 13.193
      vertex 9.41287 12.5 13.193
      vertex 8.88321 12.5 13.4629
    endloop
  endfacet
  facet normal 0.45399 -8.23546e-017 0.891007
    outer loop
      vertex 8.88321 -12.5 13.4629
      vertex 9.41287 -12.5 13.193
      vertex 8.88321 12.5 13.4629
    endloop
  endfacet
  facet normal 0.156435 -7.0055e-017 0.987688
    outer loop
      vertex 10 -12.5 13.1
      vertex 10 12.5 13.1
      vertex 9.41287 12.5 13.193
    endloop
  endfacet
  facet normal 0.156435 -7.0055e-017 0.987688
    outer loop
      vertex 9.41287 -12.5 13.193
      vertex 10 -12.5 13.1
      vertex 9.41287 12.5 13.193
    endloop
  endfacet
  facet normal -0.156435 -5.08979e-017 0.987688
    outer loop
      vertex 10.5871 -12.5 13.193
      vertex 10.5871 12.5 13.193
      vertex 10 12.5 13.1
    endloop
  endfacet
  facet normal -0.156435 -5.08979e-017 0.987688
    outer loop
      vertex 10 -12.5 13.1
      vertex 10.5871 -12.5 13.193
      vertex 10 12.5 13.1
    endloop
  endfacet
  facet normal -0.45399 -2.67587e-017 0.891007
    outer loop
      vertex 11.1168 -12.5 13.4629
      vertex 11.1168 12.5 13.4629
      vertex 10.5871 12.5 13.193
    endloop
  endfacet
  facet normal -0.45399 -2.67587e-017 0.891007
    outer loop
      vertex 10.5871 -12.5 13.193
      vertex 11.1168 -12.5 13.4629
      vertex 10.5871 12.5 13.193
    endloop
  endfacet
  facet normal -0.707107 1.62325e-049 0.707107
    outer loop
      vertex 11.5371 12.5 13.8832
      vertex 11.1168 12.5 13.4629
      vertex 11.5371 -12.5 13.8832
    endloop
  endfacet
  facet normal -0.707107 1.62325e-049 0.707107
    outer loop
      vertex 11.5371 -12.5 13.8832
      vertex 11.1168 12.5 13.4629
      vertex 11.1168 -12.5 13.4629
    endloop
  endfacet
  facet normal -0.891007 2.67587e-017 0.45399
    outer loop
      vertex 11.807 12.5 14.4129
      vertex 11.5371 12.5 13.8832
      vertex 11.807 -12.5 14.4129
    endloop
  endfacet
  facet normal -0.891007 2.67587e-017 0.45399
    outer loop
      vertex 11.807 -12.5 14.4129
      vertex 11.5371 12.5 13.8832
      vertex 11.5371 -12.5 13.8832
    endloop
  endfacet
  facet normal -0.987688 5.08979e-017 0.156435
    outer loop
      vertex 11.9 12.5 15
      vertex 11.807 12.5 14.4129
      vertex 11.9 -12.5 15
    endloop
  endfacet
  facet normal -0.987688 5.08979e-017 0.156435
    outer loop
      vertex 11.9 -12.5 15
      vertex 11.807 12.5 14.4129
      vertex 11.807 -12.5 14.4129
    endloop
  endfacet
  facet normal -0.987688 7.0055e-017 -0.156435
    outer loop
      vertex 11.9 12.5 15
      vertex 11.9 -12.5 15
      vertex 11.807 12.5 15.5871
    endloop
  endfacet
  facet normal -0.987688 7.0055e-017 -0.156435
    outer loop
      vertex 11.807 12.5 15.5871
      vertex 11.9 -12.5 15
      vertex 11.807 -12.5 15.5871
    endloop
  endfacet
  facet normal -0.891007 8.23546e-017 -0.45399
    outer loop
      vertex 11.807 12.5 15.5871
      vertex 11.807 -12.5 15.5871
      vertex 11.5371 12.5 16.1168
    endloop
  endfacet
  facet normal -0.891007 8.23546e-017 -0.45399
    outer loop
      vertex 11.5371 12.5 16.1168
      vertex 11.807 -12.5 15.5871
      vertex 11.5371 -12.5 16.1168
    endloop
  endfacet
  facet normal -0.707107 8.65927e-017 -0.707107
    outer loop
      vertex 11.5371 12.5 16.1168
      vertex 11.5371 -12.5 16.1168
      vertex 11.1168 12.5 16.5371
    endloop
  endfacet
  facet normal -0.707107 8.65927e-017 -0.707107
    outer loop
      vertex 11.1168 12.5 16.5371
      vertex 11.5371 -12.5 16.1168
      vertex 11.1168 -12.5 16.5371
    endloop
  endfacet
  facet normal -0.45399 8.23546e-017 -0.891007
    outer loop
      vertex 11.1168 12.5 16.5371
      vertex 11.1168 -12.5 16.5371
      vertex 10.5871 12.5 16.807
    endloop
  endfacet
  facet normal -0.45399 8.23546e-017 -0.891007
    outer loop
      vertex 10.5871 12.5 16.807
      vertex 11.1168 -12.5 16.5371
      vertex 10.5871 -12.5 16.807
    endloop
  endfacet
  facet normal -0.156435 7.0055e-017 -0.987688
    outer loop
      vertex 10.5871 12.5 16.807
      vertex 10.5871 -12.5 16.807
      vertex 10 12.5 16.9
    endloop
  endfacet
  facet normal -0.156435 7.0055e-017 -0.987688
    outer loop
      vertex 10 12.5 16.9
      vertex 10.5871 -12.5 16.807
      vertex 10 -12.5 16.9
    endloop
  endfacet
  facet normal 0.156435 5.08979e-017 -0.987688
    outer loop
      vertex 10 12.5 16.9
      vertex 10 -12.5 16.9
      vertex 9.41287 12.5 16.807
    endloop
  endfacet
  facet normal 0.156435 5.08979e-017 -0.987688
    outer loop
      vertex 9.41287 12.5 16.807
      vertex 10 -12.5 16.9
      vertex 9.41287 -12.5 16.807
    endloop
  endfacet
  facet normal 0.45399 2.67587e-017 -0.891007
    outer loop
      vertex 9.41287 12.5 16.807
      vertex 9.41287 -12.5 16.807
      vertex 8.88321 12.5 16.5371
    endloop
  endfacet
  facet normal 0.45399 2.67587e-017 -0.891007
    outer loop
      vertex 8.88321 12.5 16.5371
      vertex 9.41287 -12.5 16.807
      vertex 8.88321 -12.5 16.5371
    endloop
  endfacet
  facet normal 0.707107 -1.62325e-049 -0.707107
    outer loop
      vertex 8.46287 12.5 16.1168
      vertex 8.88321 12.5 16.5371
      vertex 8.88321 -12.5 16.5371
    endloop
  endfacet
  facet normal 0.707107 -1.62325e-049 -0.707107
    outer loop
      vertex 8.46287 -12.5 16.1168
      vertex 8.46287 12.5 16.1168
      vertex 8.88321 -12.5 16.5371
    endloop
  endfacet
  facet normal 0.891007 -2.67587e-017 -0.45399
    outer loop
      vertex 8.19299 12.5 15.5871
      vertex 8.46287 12.5 16.1168
      vertex 8.46287 -12.5 16.1168
    endloop
  endfacet
  facet normal 0.891007 -2.67587e-017 -0.45399
    outer loop
      vertex 8.19299 -12.5 15.5871
      vertex 8.19299 12.5 15.5871
      vertex 8.46287 -12.5 16.1168
    endloop
  endfacet
  facet normal 0.987688 -5.08979e-017 -0.156435
    outer loop
      vertex 8.1 12.5 15
      vertex 8.19299 12.5 15.5871
      vertex 8.19299 -12.5 15.5871
    endloop
  endfacet
  facet normal 0.987688 -5.08979e-017 -0.156435
    outer loop
      vertex 8.1 -12.5 15
      vertex 8.1 12.5 15
      vertex 8.19299 -12.5 15.5871
    endloop
  endfacet
endsolid OpenSCAD_Model
