solid OpenSCAD_Model
  facet normal -1 0 0
    outer loop
      vertex 0 0 0
      vertex 0 15 8
      vertex 0 15 0
    endloop
  endfacet
  facet normal -1 -0 0
    outer loop
      vertex 0 15 8
      vertex 0 0 0
      vertex 0 0 8
    endloop
  endfacet
  facet normal 0 0 1
    outer loop
      vertex 180 15 8
      vertex 10 10 8
      vertex 180 0 8
    endloop
  endfacet
  facet normal -0 0 1
    outer loop
      vertex 0 15 8
      vertex 10 10 8
      vertex 180 15 8
    endloop
  endfacet
  facet normal 0 0 1
    outer loop
      vertex 5 10 8
      vertex 0 15 8
      vertex 5 5 8
    endloop
  endfacet
  facet normal 0 0 1
    outer loop
      vertex 10 10 8
      vertex 0 15 8
      vertex 5 10 8
    endloop
  endfacet
  facet normal -0 0 1
    outer loop
      vertex 10 5 8
      vertex 180 0 8
      vertex 10 10 8
    endloop
  endfacet
  facet normal 0 0 1
    outer loop
      vertex 0 0 8
      vertex 10 5 8
      vertex 5 5 8
    endloop
  endfacet
  facet normal 0 0 1
    outer loop
      vertex 10 5 8
      vertex 0 0 8
      vertex 180 0 8
    endloop
  endfacet
  facet normal 0 0 1
    outer loop
      vertex 0 0 8
      vertex 5 5 8
      vertex 0 15 8
    endloop
  endfacet
  facet normal 1 -0 0
    outer loop
      vertex 180 0 8
      vertex 180 15 0
      vertex 180 15 8
    endloop
  endfacet
  facet normal 1 0 0
    outer loop
      vertex 180 15 0
      vertex 180 0 8
      vertex 180 0 0
    endloop
  endfacet
  facet normal 0 0 -1
    outer loop
      vertex 180 0 0
      vertex 10 5 0
      vertex 180 15 0
    endloop
  endfacet
  facet normal 0 0 -1
    outer loop
      vertex 0 0 0
      vertex 10 5 0
      vertex 180 0 0
    endloop
  endfacet
  facet normal -0 0 -1
    outer loop
      vertex 5 5 0
      vertex 0 0 0
      vertex 5 10 0
    endloop
  endfacet
  facet normal -0 0 -1
    outer loop
      vertex 10 5 0
      vertex 0 0 0
      vertex 5 5 0
    endloop
  endfacet
  facet normal 0 0 -1
    outer loop
      vertex 10 10 0
      vertex 180 15 0
      vertex 10 5 0
    endloop
  endfacet
  facet normal 0 0 -1
    outer loop
      vertex 0 15 0
      vertex 10 10 0
      vertex 5 10 0
    endloop
  endfacet
  facet normal 0 0 -1
    outer loop
      vertex 10 10 0
      vertex 0 15 0
      vertex 180 15 0
    endloop
  endfacet
  facet normal 0 0 -1
    outer loop
      vertex 0 15 0
      vertex 5 10 0
      vertex 0 0 0
    endloop
  endfacet
  facet normal 0 -1 0
    outer loop
      vertex 0 0 0
      vertex 180 0 8
      vertex 0 0 8
    endloop
  endfacet
  facet normal 0 -1 -0
    outer loop
      vertex 180 0 8
      vertex 0 0 0
      vertex 180 0 0
    endloop
  endfacet
  facet normal 0 1 -0
    outer loop
      vertex 180 15 0
      vertex 0 15 8
      vertex 180 15 8
    endloop
  endfacet
  facet normal 0 1 0
    outer loop
      vertex 0 15 8
      vertex 180 15 0
      vertex 0 15 0
    endloop
  endfacet
  facet normal 1 -0 0
    outer loop
      vertex 5 5 8
      vertex 5 10 0
      vertex 5 10 8
    endloop
  endfacet
  facet normal 1 0 0
    outer loop
      vertex 5 10 0
      vertex 5 5 8
      vertex 5 5 0
    endloop
  endfacet
  facet normal -1 0 0
    outer loop
      vertex 10 5 0
      vertex 10 10 8
      vertex 10 10 0
    endloop
  endfacet
  facet normal -1 -0 0
    outer loop
      vertex 10 10 8
      vertex 10 5 0
      vertex 10 5 8
    endloop
  endfacet
  facet normal 0 1 -0
    outer loop
      vertex 10 5 0
      vertex 5 5 8
      vertex 10 5 8
    endloop
  endfacet
  facet normal 0 1 0
    outer loop
      vertex 5 5 8
      vertex 10 5 0
      vertex 5 5 0
    endloop
  endfacet
  facet normal 0 -1 0
    outer loop
      vertex 5 10 0
      vertex 10 10 8
      vertex 5 10 8
    endloop
  endfacet
  facet normal 0 -1 -0
    outer loop
      vertex 10 10 8
      vertex 5 10 0
      vertex 10 10 0
    endloop
  endfacet
endsolid OpenSCAD_Model
