solid OpenSCAD_Model
  facet normal -1 0 0
    outer loop
      vertex 0 0 0
      vertex 0 15 8
      vertex 0 15 0
    endloop
  endfacet
  facet normal -1 -0 0
    outer loop
      vertex 0 15 8
      vertex 0 0 0
      vertex 0 0 8
    endloop
  endfacet
  facet normal 0 0 1
    outer loop
      vertex 180 15 8
      vertex 10 10 8
      vertex 180 0 8
    endloop
  endfacet
  facet normal -0 0 1
    outer loop
      vertex 0 15 8
      vertex 10 10 8
      vertex 180 15 8
    endloop
  endfacet
  facet normal 0 0 1
    outer loop
      vertex 5 10 8
      vertex 0 15 8
      vertex 5 5 8
    endloop
  endfacet
  facet normal 0 0 1
    outer loop
      vertex 10 10 8
      vertex 0 15 8
      vertex 5 10 8
    endloop
  endfacet
  facet normal -0 0 1
    outer loop
      vertex 10 5 8
      vertex 180 0 8
      vertex 10 10 8
    endloop
  endfacet
  facet normal 0 0 1
    outer loop
      vertex 0 0 8
      vertex 10 5 8
      vertex 5 5 8
    endloop
  endfacet
  facet normal 0 0 1
    outer loop
      vertex 10 5 8
      vertex 0 0 8
      vertex 180 0 8
    endloop
  endfacet
  facet normal 0 0 1
    outer loop
      vertex 0 0 8
      vertex 5 5 8
      vertex 0 15 8
    endloop
  endfacet
  facet normal 1 -0 0
    outer loop
      vertex 180 0 8
      vertex 180 15 0
      vertex 180 15 8
    endloop
  endfacet
  facet normal 1 0 0
    outer loop
      vertex 180 15 0
      vertex 180 0 8
      vertex 180 0 0
    endloop
  endfacet
  facet normal 0 1 -0
    outer loop
      vertex 180 15 0
      vertex 0 15 8
      vertex 180 15 8
    endloop
  endfacet
  facet normal 0 1 0
    outer loop
      vertex 0 15 8
      vertex 180 15 0
      vertex 0 15 0
    endloop
  endfacet
  facet normal 0 0 -1
    outer loop
      vertex 180 0 0
      vertex 10 5 0
      vertex 180 15 0
    endloop
  endfacet
  facet normal 0 0 -1
    outer loop
      vertex 0 0 0
      vertex 10 5 0
      vertex 180 0 0
    endloop
  endfacet
  facet normal -0 0 -1
    outer loop
      vertex 5 5 0
      vertex 0 0 0
      vertex 5 10 0
    endloop
  endfacet
  facet normal -0 0 -1
    outer loop
      vertex 10 5 0
      vertex 0 0 0
      vertex 5 5 0
    endloop
  endfacet
  facet normal 0 0 -1
    outer loop
      vertex 10 10 0
      vertex 180 15 0
      vertex 10 5 0
    endloop
  endfacet
  facet normal 0 0 -1
    outer loop
      vertex 0 15 0
      vertex 10 10 0
      vertex 5 10 0
    endloop
  endfacet
  facet normal 0 0 -1
    outer loop
      vertex 10 10 0
      vertex 0 15 0
      vertex 180 15 0
    endloop
  endfacet
  facet normal 0 0 -1
    outer loop
      vertex 0 15 0
      vertex 5 10 0
      vertex 0 0 0
    endloop
  endfacet
  facet normal 0 -1 0
    outer loop
      vertex 0 0 0
      vertex 180 0 8
      vertex 0 0 8
    endloop
  endfacet
  facet normal 0 -1 -0
    outer loop
      vertex 180 0 8
      vertex 0 0 0
      vertex 180 0 0
    endloop
  endfacet
  facet normal 1 -0 0
    outer loop
      vertex 0.599999 0.599999 7.4
      vertex 0.599999 3 0.599999
      vertex 0.599999 3 7.4
    endloop
  endfacet
  facet normal 1 0 0
    outer loop
      vertex 0.599999 3 0.599999
      vertex 0.599999 0.599999 7.4
      vertex 0.599999 0.599999 0.599999
    endloop
  endfacet
  facet normal 1 -0 0
    outer loop
      vertex 0.599999 12.6 7.4
      vertex 0.599999 14.4 0.599999
      vertex 0.599999 14.4 7.4
    endloop
  endfacet
  facet normal 1 0 0
    outer loop
      vertex 0.599999 14.4 0.599999
      vertex 0.599999 12.6 7.4
      vertex 0.599999 12.6 0.599999
    endloop
  endfacet
  facet normal 1 -0 0
    outer loop
      vertex 0.599999 3.6 7.4
      vertex 0.599999 6 0.599999
      vertex 0.599999 6 7.4
    endloop
  endfacet
  facet normal 1 0 0
    outer loop
      vertex 0.599999 6 0.599999
      vertex 0.599999 3.6 7.4
      vertex 0.599999 3.6 0.599999
    endloop
  endfacet
  facet normal 1 -0 0
    outer loop
      vertex 0.599999 6.6 7.4
      vertex 0.599999 9 0.599999
      vertex 0.599999 9 7.4
    endloop
  endfacet
  facet normal 1 0 0
    outer loop
      vertex 0.599999 9 0.599999
      vertex 0.599999 6.6 7.4
      vertex 0.599999 6.6 0.599999
    endloop
  endfacet
  facet normal 1 -0 0
    outer loop
      vertex 0.599999 9.6 7.4
      vertex 0.599999 12 0.599999
      vertex 0.599999 12 7.4
    endloop
  endfacet
  facet normal 1 0 0
    outer loop
      vertex 0.599999 12 0.599999
      vertex 0.599999 9.6 7.4
      vertex 0.599999 9.6 0.599999
    endloop
  endfacet
  facet normal 0 0 -1
    outer loop
      vertex 0.599999 0.599999 7.4
      vertex 179.4 3 7.4
      vertex 179.4 0.599999 7.4
    endloop
  endfacet
  facet normal -0 0 -1
    outer loop
      vertex 179.4 3 7.4
      vertex 0.599999 0.599999 7.4
      vertex 0.599999 3 7.4
    endloop
  endfacet
  facet normal 0 0 -1
    outer loop
      vertex 0.599999 12.6 7.4
      vertex 179.4 14.4 7.4
      vertex 179.4 12.6 7.4
    endloop
  endfacet
  facet normal -0 0 -1
    outer loop
      vertex 179.4 14.4 7.4
      vertex 0.599999 12.6 7.4
      vertex 0.599999 14.4 7.4
    endloop
  endfacet
  facet normal 0 0 -1
    outer loop
      vertex 179.4 3.6 7.4
      vertex 10 5 7.4
      vertex 179.4 6 7.4
    endloop
  endfacet
  facet normal 0 0 -1
    outer loop
      vertex 0.599999 3.6 7.4
      vertex 10 5 7.4
      vertex 179.4 3.6 7.4
    endloop
  endfacet
  facet normal -0 0 -1
    outer loop
      vertex 10 5 7.4
      vertex 0.599999 3.6 7.4
      vertex 5 5 7.4
    endloop
  endfacet
  facet normal 0 0 -1
    outer loop
      vertex 0.599999 6 7.4
      vertex 5 5 7.4
      vertex 0.599999 3.6 7.4
    endloop
  endfacet
  facet normal 0 0 -1
    outer loop
      vertex 5 5 7.4
      vertex 0.599999 6 7.4
      vertex 5 6 7.4
    endloop
  endfacet
  facet normal -0 0 -1
    outer loop
      vertex 179.4 6 7.4
      vertex 10 5 7.4
      vertex 10 6 7.4
    endloop
  endfacet
  facet normal 0 0 -1
    outer loop
      vertex 0.599999 6.6 7.4
      vertex 5 9 7.4
      vertex 5 6.6 7.4
    endloop
  endfacet
  facet normal -0 0 -1
    outer loop
      vertex 5 9 7.4
      vertex 0.599999 6.6 7.4
      vertex 0.599999 9 7.4
    endloop
  endfacet
  facet normal 0 0 -1
    outer loop
      vertex 10 6.6 7.4
      vertex 179.4 9 7.4
      vertex 179.4 6.6 7.4
    endloop
  endfacet
  facet normal -0 0 -1
    outer loop
      vertex 179.4 9 7.4
      vertex 10 6.6 7.4
      vertex 10 9 7.4
    endloop
  endfacet
  facet normal 0 0 -1
    outer loop
      vertex 5 9.6 7.4
      vertex 0.599999 9.6 7.4
      vertex 5 10 7.4
    endloop
  endfacet
  facet normal 0 0 -1
    outer loop
      vertex 10 10 7.4
      vertex 179.4 9.6 7.4
      vertex 10 9.6 7.4
    endloop
  endfacet
  facet normal 0 0 -1
    outer loop
      vertex 179.4 9.6 7.4
      vertex 10 10 7.4
      vertex 179.4 12 7.4
    endloop
  endfacet
  facet normal 0 0 -1
    outer loop
      vertex 0.599999 12 7.4
      vertex 10 10 7.4
      vertex 5 10 7.4
    endloop
  endfacet
  facet normal 0 0 -1
    outer loop
      vertex 10 10 7.4
      vertex 0.599999 12 7.4
      vertex 179.4 12 7.4
    endloop
  endfacet
  facet normal 0 0 -1
    outer loop
      vertex 0.599999 12 7.4
      vertex 5 10 7.4
      vertex 0.599999 9.6 7.4
    endloop
  endfacet
  facet normal -1 0 0
    outer loop
      vertex 179.4 0.599999 0.599999
      vertex 179.4 3 7.4
      vertex 179.4 3 0.599999
    endloop
  endfacet
  facet normal -1 -0 0
    outer loop
      vertex 179.4 3 7.4
      vertex 179.4 0.599999 0.599999
      vertex 179.4 0.599999 7.4
    endloop
  endfacet
  facet normal -1 0 0
    outer loop
      vertex 179.4 12.6 0.599999
      vertex 179.4 14.4 7.4
      vertex 179.4 14.4 0.599999
    endloop
  endfacet
  facet normal -1 -0 0
    outer loop
      vertex 179.4 14.4 7.4
      vertex 179.4 12.6 0.599999
      vertex 179.4 12.6 7.4
    endloop
  endfacet
  facet normal -1 0 0
    outer loop
      vertex 179.4 3.6 0.599999
      vertex 179.4 6 7.4
      vertex 179.4 6 0.599999
    endloop
  endfacet
  facet normal -1 -0 0
    outer loop
      vertex 179.4 6 7.4
      vertex 179.4 3.6 0.599999
      vertex 179.4 3.6 7.4
    endloop
  endfacet
  facet normal -1 0 0
    outer loop
      vertex 179.4 6.6 0.599999
      vertex 179.4 9 7.4
      vertex 179.4 9 0.599999
    endloop
  endfacet
  facet normal -1 -0 0
    outer loop
      vertex 179.4 9 7.4
      vertex 179.4 6.6 0.599999
      vertex 179.4 6.6 7.4
    endloop
  endfacet
  facet normal -1 0 0
    outer loop
      vertex 179.4 9.6 0.599999
      vertex 179.4 12 7.4
      vertex 179.4 12 0.599999
    endloop
  endfacet
  facet normal -1 -0 0
    outer loop
      vertex 179.4 12 7.4
      vertex 179.4 9.6 0.599999
      vertex 179.4 9.6 7.4
    endloop
  endfacet
  facet normal 0 -1 0
    outer loop
      vertex 0.599999 14.4 0.599999
      vertex 179.4 14.4 7.4
      vertex 0.599999 14.4 7.4
    endloop
  endfacet
  facet normal 0 -1 -0
    outer loop
      vertex 179.4 14.4 7.4
      vertex 0.599999 14.4 0.599999
      vertex 179.4 14.4 0.599999
    endloop
  endfacet
  facet normal -0 0 1
    outer loop
      vertex 0.599999 14.4 0.599999
      vertex 179.4 12.6 0.599999
      vertex 179.4 14.4 0.599999
    endloop
  endfacet
  facet normal 0 0 1
    outer loop
      vertex 179.4 12.6 0.599999
      vertex 0.599999 14.4 0.599999
      vertex 0.599999 12.6 0.599999
    endloop
  endfacet
  facet normal -0 0 1
    outer loop
      vertex 0.599999 3 0.599999
      vertex 179.4 0.599999 0.599999
      vertex 179.4 3 0.599999
    endloop
  endfacet
  facet normal 0 0 1
    outer loop
      vertex 179.4 0.599999 0.599999
      vertex 0.599999 3 0.599999
      vertex 0.599999 0.599999 0.599999
    endloop
  endfacet
  facet normal 0 0 1
    outer loop
      vertex 5 6 0.599999
      vertex 0.599999 6 0.599999
      vertex 5 5 0.599999
    endloop
  endfacet
  facet normal -0 0 1
    outer loop
      vertex 10 6 0.599999
      vertex 179.4 3.6 0.599999
      vertex 179.4 6 0.599999
    endloop
  endfacet
  facet normal -0 0 1
    outer loop
      vertex 10 5 0.599999
      vertex 179.4 3.6 0.599999
      vertex 10 6 0.599999
    endloop
  endfacet
  facet normal 0 0 1
    outer loop
      vertex 0.599999 3.6 0.599999
      vertex 10 5 0.599999
      vertex 5 5 0.599999
    endloop
  endfacet
  facet normal 0 0 1
    outer loop
      vertex 10 5 0.599999
      vertex 0.599999 3.6 0.599999
      vertex 179.4 3.6 0.599999
    endloop
  endfacet
  facet normal 0 0 1
    outer loop
      vertex 0.599999 3.6 0.599999
      vertex 5 5 0.599999
      vertex 0.599999 6 0.599999
    endloop
  endfacet
  facet normal -0 0 1
    outer loop
      vertex 0.599999 9 0.599999
      vertex 5 6.6 0.599999
      vertex 5 9 0.599999
    endloop
  endfacet
  facet normal 0 0 1
    outer loop
      vertex 5 6.6 0.599999
      vertex 0.599999 9 0.599999
      vertex 0.599999 6.6 0.599999
    endloop
  endfacet
  facet normal -0 0 1
    outer loop
      vertex 10 9 0.599999
      vertex 179.4 6.6 0.599999
      vertex 179.4 9 0.599999
    endloop
  endfacet
  facet normal 0 0 1
    outer loop
      vertex 179.4 6.6 0.599999
      vertex 10 9 0.599999
      vertex 10 6.6 0.599999
    endloop
  endfacet
  facet normal 0 0 1
    outer loop
      vertex 179.4 12 0.599999
      vertex 10 10 0.599999
      vertex 179.4 9.6 0.599999
    endloop
  endfacet
  facet normal -0 0 1
    outer loop
      vertex 0.599999 12 0.599999
      vertex 10 10 0.599999
      vertex 179.4 12 0.599999
    endloop
  endfacet
  facet normal 0 0 1
    outer loop
      vertex 10 10 0.599999
      vertex 0.599999 12 0.599999
      vertex 5 10 0.599999
    endloop
  endfacet
  facet normal 0 0 1
    outer loop
      vertex 0.599999 9.6 0.599999
      vertex 5 10 0.599999
      vertex 0.599999 12 0.599999
    endloop
  endfacet
  facet normal 0 0 1
    outer loop
      vertex 5 10 0.599999
      vertex 0.599999 9.6 0.599999
      vertex 5 9.6 0.599999
    endloop
  endfacet
  facet normal 0 0 1
    outer loop
      vertex 179.4 9.6 0.599999
      vertex 10 10 0.599999
      vertex 10 9.6 0.599999
    endloop
  endfacet
  facet normal 0 1 -0
    outer loop
      vertex 179.4 0.599999 0.599999
      vertex 0.599999 0.599999 7.4
      vertex 179.4 0.599999 7.4
    endloop
  endfacet
  facet normal 0 1 0
    outer loop
      vertex 0.599999 0.599999 7.4
      vertex 179.4 0.599999 0.599999
      vertex 0.599999 0.599999 0.599999
    endloop
  endfacet
  facet normal 0 1 -0
    outer loop
      vertex 179.4 3.6 0.599999
      vertex 0.599999 3.6 7.4
      vertex 179.4 3.6 7.4
    endloop
  endfacet
  facet normal 0 1 0
    outer loop
      vertex 0.599999 3.6 7.4
      vertex 179.4 3.6 0.599999
      vertex 0.599999 3.6 0.599999
    endloop
  endfacet
  facet normal 0 -1 0
    outer loop
      vertex 0.599999 3 0.599999
      vertex 179.4 3 7.4
      vertex 0.599999 3 7.4
    endloop
  endfacet
  facet normal 0 -1 -0
    outer loop
      vertex 179.4 3 7.4
      vertex 0.599999 3 0.599999
      vertex 179.4 3 0.599999
    endloop
  endfacet
  facet normal 0 -1 0
    outer loop
      vertex 0.599999 6 0.599999
      vertex 5 6 7.4
      vertex 0.599999 6 7.4
    endloop
  endfacet
  facet normal 0 -1 -0
    outer loop
      vertex 5 6 7.4
      vertex 0.599999 6 0.599999
      vertex 5 6 0.599999
    endloop
  endfacet
  facet normal 0 -1 0
    outer loop
      vertex 10 6 0.599999
      vertex 179.4 6 7.4
      vertex 10 6 7.4
    endloop
  endfacet
  facet normal 0 -1 -0
    outer loop
      vertex 179.4 6 7.4
      vertex 10 6 0.599999
      vertex 179.4 6 0.599999
    endloop
  endfacet
  facet normal 0 1 -0
    outer loop
      vertex 5 6.6 0.599999
      vertex 0.599999 6.6 7.4
      vertex 5 6.6 7.4
    endloop
  endfacet
  facet normal 0 1 0
    outer loop
      vertex 0.599999 6.6 7.4
      vertex 5 6.6 0.599999
      vertex 0.599999 6.6 0.599999
    endloop
  endfacet
  facet normal 0 1 -0
    outer loop
      vertex 179.4 6.6 0.599999
      vertex 10 6.6 7.4
      vertex 179.4 6.6 7.4
    endloop
  endfacet
  facet normal 0 1 0
    outer loop
      vertex 10 6.6 7.4
      vertex 179.4 6.6 0.599999
      vertex 10 6.6 0.599999
    endloop
  endfacet
  facet normal 0 1 -0
    outer loop
      vertex 5 9.6 0.599999
      vertex 0.599999 9.6 7.4
      vertex 5 9.6 7.4
    endloop
  endfacet
  facet normal 0 1 0
    outer loop
      vertex 0.599999 9.6 7.4
      vertex 5 9.6 0.599999
      vertex 0.599999 9.6 0.599999
    endloop
  endfacet
  facet normal 0 1 -0
    outer loop
      vertex 179.4 9.6 0.599999
      vertex 10 9.6 7.4
      vertex 179.4 9.6 7.4
    endloop
  endfacet
  facet normal 0 1 0
    outer loop
      vertex 10 9.6 7.4
      vertex 179.4 9.6 0.599999
      vertex 10 9.6 0.599999
    endloop
  endfacet
  facet normal 0 -1 0
    outer loop
      vertex 0.599999 9 0.599999
      vertex 5 9 7.4
      vertex 0.599999 9 7.4
    endloop
  endfacet
  facet normal 0 -1 -0
    outer loop
      vertex 5 9 7.4
      vertex 0.599999 9 0.599999
      vertex 5 9 0.599999
    endloop
  endfacet
  facet normal 0 -1 0
    outer loop
      vertex 10 9 0.599999
      vertex 179.4 9 7.4
      vertex 10 9 7.4
    endloop
  endfacet
  facet normal 0 -1 -0
    outer loop
      vertex 179.4 9 7.4
      vertex 10 9 0.599999
      vertex 179.4 9 0.599999
    endloop
  endfacet
  facet normal 0 1 -0
    outer loop
      vertex 179.4 12.6 0.599999
      vertex 0.599999 12.6 7.4
      vertex 179.4 12.6 7.4
    endloop
  endfacet
  facet normal 0 1 0
    outer loop
      vertex 0.599999 12.6 7.4
      vertex 179.4 12.6 0.599999
      vertex 0.599999 12.6 0.599999
    endloop
  endfacet
  facet normal 0 -1 0
    outer loop
      vertex 0.599999 12 0.599999
      vertex 179.4 12 7.4
      vertex 0.599999 12 7.4
    endloop
  endfacet
  facet normal 0 -1 -0
    outer loop
      vertex 179.4 12 7.4
      vertex 0.599999 12 0.599999
      vertex 179.4 12 0.599999
    endloop
  endfacet
  facet normal 1 0 0
    outer loop
      vertex 5 10 8
      vertex 5 9.6 7.4
      vertex 5 10 7.4
    endloop
  endfacet
  facet normal 1 0 0
    outer loop
      vertex 5 9.6 7.4
      vertex 5 9 7.4
      vertex 5 9.6 0.599999
    endloop
  endfacet
  facet normal 1 0 0
    outer loop
      vertex 5 10 8
      vertex 5 9 7.4
      vertex 5 9.6 7.4
    endloop
  endfacet
  facet normal 1 0 0
    outer loop
      vertex 5 10 8
      vertex 5 6.6 7.4
      vertex 5 9 7.4
    endloop
  endfacet
  facet normal 1 0 0
    outer loop
      vertex 5 6.6 7.4
      vertex 5 6 7.4
      vertex 5 6.6 0.599999
    endloop
  endfacet
  facet normal 1 -0 0
    outer loop
      vertex 5 5 8
      vertex 5 6.6 7.4
      vertex 5 10 8
    endloop
  endfacet
  facet normal 1 0 0
    outer loop
      vertex 5 6.6 7.4
      vertex 5 5 8
      vertex 5 6 7.4
    endloop
  endfacet
  facet normal 1 0 0
    outer loop
      vertex 5 6 7.4
      vertex 5 5 8
      vertex 5 5 7.4
    endloop
  endfacet
  facet normal 1 -0 0
    outer loop
      vertex 5 9.6 0.599999
      vertex 5 10 0
      vertex 5 10 0.599999
    endloop
  endfacet
  facet normal 1 0 0
    outer loop
      vertex 5 9 0.599999
      vertex 5 9.6 0.599999
      vertex 5 9 7.4
    endloop
  endfacet
  facet normal 1 -0 0
    outer loop
      vertex 5 9 0.599999
      vertex 5 10 0
      vertex 5 9.6 0.599999
    endloop
  endfacet
  facet normal 1 -0 0
    outer loop
      vertex 5 6.6 0.599999
      vertex 5 10 0
      vertex 5 9 0.599999
    endloop
  endfacet
  facet normal 1 0 0
    outer loop
      vertex 5 6 0.599999
      vertex 5 6.6 0.599999
      vertex 5 6 7.4
    endloop
  endfacet
  facet normal 1 0 0
    outer loop
      vertex 5 5 0
      vertex 5 6.6 0.599999
      vertex 5 6 0.599999
    endloop
  endfacet
  facet normal 1 0 0
    outer loop
      vertex 5 5 0
      vertex 5 6 0.599999
      vertex 5 5 0.599999
    endloop
  endfacet
  facet normal 1 0 0
    outer loop
      vertex 5 6.6 0.599999
      vertex 5 5 0
      vertex 5 10 0
    endloop
  endfacet
  facet normal -1 0 0
    outer loop
      vertex 10 10 0
      vertex 10 9.6 0.599999
      vertex 10 10 0.599999
    endloop
  endfacet
  facet normal -1 0 0
    outer loop
      vertex 10 9.6 0.599999
      vertex 10 9 0.599999
      vertex 10 9.6 7.4
    endloop
  endfacet
  facet normal -1 0 0
    outer loop
      vertex 10 10 0
      vertex 10 9 0.599999
      vertex 10 9.6 0.599999
    endloop
  endfacet
  facet normal -1 0 0
    outer loop
      vertex 10 10 0
      vertex 10 6.6 0.599999
      vertex 10 9 0.599999
    endloop
  endfacet
  facet normal -1 0 0
    outer loop
      vertex 10 6.6 0.599999
      vertex 10 6 0.599999
      vertex 10 6.6 7.4
    endloop
  endfacet
  facet normal -1 0 0
    outer loop
      vertex 10 5 0
      vertex 10 6.6 0.599999
      vertex 10 10 0
    endloop
  endfacet
  facet normal -1 -0 0
    outer loop
      vertex 10 6.6 0.599999
      vertex 10 5 0
      vertex 10 6 0.599999
    endloop
  endfacet
  facet normal -1 -0 0
    outer loop
      vertex 10 6 0.599999
      vertex 10 5 0
      vertex 10 5 0.599999
    endloop
  endfacet
  facet normal -1 0 0
    outer loop
      vertex 10 9.6 7.4
      vertex 10 10 8
      vertex 10 10 7.4
    endloop
  endfacet
  facet normal -1 0 0
    outer loop
      vertex 10 9 7.4
      vertex 10 9.6 7.4
      vertex 10 9 0.599999
    endloop
  endfacet
  facet normal -1 0 0
    outer loop
      vertex 10 9 7.4
      vertex 10 10 8
      vertex 10 9.6 7.4
    endloop
  endfacet
  facet normal -1 0 0
    outer loop
      vertex 10 6.6 7.4
      vertex 10 10 8
      vertex 10 9 7.4
    endloop
  endfacet
  facet normal -1 0 0
    outer loop
      vertex 10 6 7.4
      vertex 10 6.6 7.4
      vertex 10 6 0.599999
    endloop
  endfacet
  facet normal -1 0 0
    outer loop
      vertex 10 5 8
      vertex 10 6.6 7.4
      vertex 10 6 7.4
    endloop
  endfacet
  facet normal -1 0 0
    outer loop
      vertex 10 5 8
      vertex 10 6 7.4
      vertex 10 5 7.4
    endloop
  endfacet
  facet normal -1 0 0
    outer loop
      vertex 10 6.6 7.4
      vertex 10 5 8
      vertex 10 10 8
    endloop
  endfacet
  facet normal 0 -1 0
    outer loop
      vertex 5 10 0
      vertex 10 10 0.599999
      vertex 5 10 0.599999
    endloop
  endfacet
  facet normal 0 -1 -0
    outer loop
      vertex 10 10 0.599999
      vertex 5 10 0
      vertex 10 10 0
    endloop
  endfacet
  facet normal 0 -1 0
    outer loop
      vertex 5 10 7.4
      vertex 10 10 8
      vertex 5 10 8
    endloop
  endfacet
  facet normal 0 -1 -0
    outer loop
      vertex 10 10 8
      vertex 5 10 7.4
      vertex 10 10 7.4
    endloop
  endfacet
  facet normal 0 1 -0
    outer loop
      vertex 10 5 0
      vertex 5 5 0.599999
      vertex 10 5 0.599999
    endloop
  endfacet
  facet normal 0 1 0
    outer loop
      vertex 5 5 0.599999
      vertex 10 5 0
      vertex 5 5 0
    endloop
  endfacet
  facet normal 0 1 -0
    outer loop
      vertex 10 5 7.4
      vertex 5 5 8
      vertex 10 5 8
    endloop
  endfacet
  facet normal 0 1 0
    outer loop
      vertex 5 5 8
      vertex 10 5 7.4
      vertex 5 5 7.4
    endloop
  endfacet
endsolid OpenSCAD_Model
