solid OpenSCAD_Model
  facet normal 0.980785 0.195091 0
    outer loop
      vertex 5 0 20
      vertex 4.6194 1.91342 0
      vertex 4.6194 1.91342 20
    endloop
  endfacet
  facet normal 0.980785 0.195091 0
    outer loop
      vertex 4.6194 1.91342 0
      vertex 5 0 20
      vertex 5 0 0
    endloop
  endfacet
  facet normal -0.980785 0.195091 0
    outer loop
      vertex -5 0 0
      vertex -4.6194 1.91342 20
      vertex -4.6194 1.91342 0
    endloop
  endfacet
  facet normal -0.980785 0.195091 0
    outer loop
      vertex -4.6194 1.91342 20
      vertex -5 0 0
      vertex -5 0 20
    endloop
  endfacet
  facet normal 0.195091 0.980785 -0
    outer loop
      vertex 1.91342 4.6194 0
      vertex 0 5 20
      vertex 1.91342 4.6194 20
    endloop
  endfacet
  facet normal 0.195091 0.980785 0
    outer loop
      vertex 0 5 20
      vertex 1.91342 4.6194 0
      vertex 0 5 0
    endloop
  endfacet
  facet normal 0.83147 0.55557 0
    outer loop
      vertex 4.6194 1.91342 20
      vertex 3.53553 3.53553 0
      vertex 3.53553 3.53553 20
    endloop
  endfacet
  facet normal 0.83147 0.55557 0
    outer loop
      vertex 3.53553 3.53553 0
      vertex 4.6194 1.91342 20
      vertex 4.6194 1.91342 0
    endloop
  endfacet
  facet normal 0.195091 -0.980785 0
    outer loop
      vertex 0 -5 0
      vertex 1.91342 -4.6194 20
      vertex 0 -5 20
    endloop
  endfacet
  facet normal 0.195091 -0.980785 0
    outer loop
      vertex 1.91342 -4.6194 20
      vertex 0 -5 0
      vertex 1.91342 -4.6194 0
    endloop
  endfacet
  facet normal -0.195091 -0.980785 0
    outer loop
      vertex -1.91342 -4.6194 0
      vertex 0 -5 20
      vertex -1.91342 -4.6194 20
    endloop
  endfacet
  facet normal -0.195091 -0.980785 -0
    outer loop
      vertex 0 -5 20
      vertex -1.91342 -4.6194 0
      vertex 0 -5 0
    endloop
  endfacet
  facet normal 0.55557 0.83147 -0
    outer loop
      vertex 3.53553 3.53553 0
      vertex 1.91342 4.6194 20
      vertex 3.53553 3.53553 20
    endloop
  endfacet
  facet normal 0.55557 0.83147 0
    outer loop
      vertex 1.91342 4.6194 20
      vertex 3.53553 3.53553 0
      vertex 1.91342 4.6194 0
    endloop
  endfacet
  facet normal -0.195091 0.980785 0
    outer loop
      vertex 0 5 0
      vertex -1.91342 4.6194 20
      vertex 0 5 20
    endloop
  endfacet
  facet normal -0.195091 0.980785 0
    outer loop
      vertex -1.91342 4.6194 20
      vertex 0 5 0
      vertex -1.91342 4.6194 0
    endloop
  endfacet
  facet normal -0.55557 0.83147 0
    outer loop
      vertex -1.91342 4.6194 0
      vertex -3.53553 3.53553 20
      vertex -1.91342 4.6194 20
    endloop
  endfacet
  facet normal -0.55557 0.83147 0
    outer loop
      vertex -3.53553 3.53553 20
      vertex -1.91342 4.6194 0
      vertex -3.53553 3.53553 0
    endloop
  endfacet
  facet normal -0.980785 -0.195091 0
    outer loop
      vertex -4.6194 -1.91342 0
      vertex -5 0 20
      vertex -5 0 0
    endloop
  endfacet
  facet normal -0.980785 -0.195091 0
    outer loop
      vertex -5 0 20
      vertex -4.6194 -1.91342 0
      vertex -4.6194 -1.91342 20
    endloop
  endfacet
  facet normal -0.55557 -0.83147 0
    outer loop
      vertex -3.53553 -3.53553 0
      vertex -1.91342 -4.6194 20
      vertex -3.53553 -3.53553 20
    endloop
  endfacet
  facet normal -0.55557 -0.83147 -0
    outer loop
      vertex -1.91342 -4.6194 20
      vertex -3.53553 -3.53553 0
      vertex -1.91342 -4.6194 0
    endloop
  endfacet
  facet normal 0 0 -1
    outer loop
      vertex 3.925 0 0
      vertex 5 0 0
      vertex 4.6194 -1.91342 0
    endloop
  endfacet
  facet normal 0 0 -1
    outer loop
      vertex 5 0 0
      vertex 3.925 0 0
      vertex 4.6194 1.91342 0
    endloop
  endfacet
  facet normal 0 0 -1
    outer loop
      vertex 3.47541 -1.82404 0
      vertex 4.6194 -1.91342 0
      vertex 3.53553 -3.53553 0
    endloop
  endfacet
  facet normal 0 0 -1
    outer loop
      vertex 4.6194 -1.91342 0
      vertex 3.47541 -1.82404 0
      vertex 3.925 0 0
    endloop
  endfacet
  facet normal 0 0 -1
    outer loop
      vertex 3.53553 -3.53553 0
      vertex 2.22965 -3.23021 0
      vertex 3.47541 -1.82404 0
    endloop
  endfacet
  facet normal 0 0 -1
    outer loop
      vertex 1.91342 -4.6194 0
      vertex 2.22965 -3.23021 0
      vertex 3.53553 -3.53553 0
    endloop
  endfacet
  facet normal 0 0 -1
    outer loop
      vertex 1.91342 -4.6194 0
      vertex 0.473106 -3.89638 0
      vertex 2.22965 -3.23021 0
    endloop
  endfacet
  facet normal 0 0 -1
    outer loop
      vertex 0 -5 0
      vertex 0.473106 -3.89638 0
      vertex 1.91342 -4.6194 0
    endloop
  endfacet
  facet normal 0 0 -1
    outer loop
      vertex 0 -5 0
      vertex -1.39182 -3.66994 0
      vertex 0.473106 -3.89638 0
    endloop
  endfacet
  facet normal 0 0 -1
    outer loop
      vertex -1.91342 -4.6194 0
      vertex -1.39182 -3.66994 0
      vertex 0 -5 0
    endloop
  endfacet
  facet normal 0 0 -1
    outer loop
      vertex -3.53553 -3.53553 0
      vertex -1.39182 -3.66994 0
      vertex -1.91342 -4.6194 0
    endloop
  endfacet
  facet normal 0 0 -1
    outer loop
      vertex -1.39182 -3.66994 0
      vertex -3.53553 -3.53553 0
      vertex -2.9379 -2.60276 0
    endloop
  endfacet
  facet normal 0 0 -1
    outer loop
      vertex -4.6194 -1.91342 0
      vertex -2.9379 -2.60276 0
      vertex -3.53553 -3.53553 0
    endloop
  endfacet
  facet normal 0 0 -1
    outer loop
      vertex -5 0 0
      vertex -3.81095 -0.939314 0
      vertex -4.6194 -1.91342 0
    endloop
  endfacet
  facet normal 0 0 -1
    outer loop
      vertex -2.9379 -2.60276 0
      vertex -4.6194 -1.91342 0
      vertex -3.81095 -0.939314 0
    endloop
  endfacet
  facet normal 0 0 -1
    outer loop
      vertex 3.47541 1.82404 0
      vertex 4.6194 1.91342 0
      vertex 3.925 0 0
    endloop
  endfacet
  facet normal -0 0 -1
    outer loop
      vertex 4.6194 1.91342 0
      vertex 3.47541 1.82404 0
      vertex 3.53553 3.53553 0
    endloop
  endfacet
  facet normal 0 0 -1
    outer loop
      vertex 2.22965 3.23021 0
      vertex 3.53553 3.53553 0
      vertex 3.47541 1.82404 0
    endloop
  endfacet
  facet normal 0 0 -1
    outer loop
      vertex 2.22965 3.23021 0
      vertex 1.91342 4.6194 0
      vertex 3.53553 3.53553 0
    endloop
  endfacet
  facet normal 0 0 -1
    outer loop
      vertex 0.473106 3.89638 0
      vertex 1.91342 4.6194 0
      vertex 2.22965 3.23021 0
    endloop
  endfacet
  facet normal 0 0 -1
    outer loop
      vertex 0.473106 3.89638 0
      vertex 0 5 0
      vertex 1.91342 4.6194 0
    endloop
  endfacet
  facet normal 0 0 -1
    outer loop
      vertex -1.39182 3.66994 0
      vertex 0 5 0
      vertex 0.473106 3.89638 0
    endloop
  endfacet
  facet normal 0 0 -1
    outer loop
      vertex -1.39182 3.66994 0
      vertex -1.91342 4.6194 0
      vertex 0 5 0
    endloop
  endfacet
  facet normal 0 0 -1
    outer loop
      vertex -3.53553 3.53553 0
      vertex -1.39182 3.66994 0
      vertex -2.9379 2.60276 0
    endloop
  endfacet
  facet normal -0 0 -1
    outer loop
      vertex -1.39182 3.66994 0
      vertex -3.53553 3.53553 0
      vertex -1.91342 4.6194 0
    endloop
  endfacet
  facet normal 0 0 -1
    outer loop
      vertex -4.6194 1.91342 0
      vertex -2.9379 2.60276 0
      vertex -3.81095 0.939314 0
    endloop
  endfacet
  facet normal 0 0 -1
    outer loop
      vertex -3.81095 -0.939314 0
      vertex -5 0 0
      vertex -3.81095 0.939314 0
    endloop
  endfacet
  facet normal -0 0 -1
    outer loop
      vertex -2.9379 2.60276 0
      vertex -4.6194 1.91342 0
      vertex -3.53553 3.53553 0
    endloop
  endfacet
  facet normal -0 0 -1
    outer loop
      vertex -3.81095 0.939314 0
      vertex -5 0 0
      vertex -4.6194 1.91342 0
    endloop
  endfacet
  facet normal -0.83147 -0.55557 0
    outer loop
      vertex -3.53553 -3.53553 0
      vertex -4.6194 -1.91342 20
      vertex -4.6194 -1.91342 0
    endloop
  endfacet
  facet normal -0.83147 -0.55557 0
    outer loop
      vertex -4.6194 -1.91342 20
      vertex -3.53553 -3.53553 0
      vertex -3.53553 -3.53553 20
    endloop
  endfacet
  facet normal 0 0 1
    outer loop
      vertex 3.925 0 20
      vertex 5 0 20
      vertex 4.6194 1.91342 20
    endloop
  endfacet
  facet normal 0 0 1
    outer loop
      vertex 5 0 20
      vertex 3.925 0 20
      vertex 4.6194 -1.91342 20
    endloop
  endfacet
  facet normal 0 0 1
    outer loop
      vertex 3.47541 1.82404 20
      vertex 4.6194 1.91342 20
      vertex 3.53553 3.53553 20
    endloop
  endfacet
  facet normal 0 0 1
    outer loop
      vertex 4.6194 1.91342 20
      vertex 3.47541 1.82404 20
      vertex 3.925 0 20
    endloop
  endfacet
  facet normal 0 0 1
    outer loop
      vertex 3.53553 3.53553 20
      vertex 2.22965 3.23021 20
      vertex 3.47541 1.82404 20
    endloop
  endfacet
  facet normal 0 0 1
    outer loop
      vertex 1.91342 4.6194 20
      vertex 2.22965 3.23021 20
      vertex 3.53553 3.53553 20
    endloop
  endfacet
  facet normal 0 0 1
    outer loop
      vertex 1.91342 4.6194 20
      vertex 0.473106 3.89638 20
      vertex 2.22965 3.23021 20
    endloop
  endfacet
  facet normal 0 0 1
    outer loop
      vertex 0 5 20
      vertex 0.473106 3.89638 20
      vertex 1.91342 4.6194 20
    endloop
  endfacet
  facet normal 0 0 1
    outer loop
      vertex 0 5 20
      vertex -1.39182 3.66994 20
      vertex 0.473106 3.89638 20
    endloop
  endfacet
  facet normal -0 0 1
    outer loop
      vertex -1.91342 4.6194 20
      vertex -1.39182 3.66994 20
      vertex 0 5 20
    endloop
  endfacet
  facet normal 0 0 1
    outer loop
      vertex -3.53553 3.53553 20
      vertex -1.39182 3.66994 20
      vertex -1.91342 4.6194 20
    endloop
  endfacet
  facet normal 0 0 1
    outer loop
      vertex -1.39182 3.66994 20
      vertex -3.53553 3.53553 20
      vertex -2.9379 2.60276 20
    endloop
  endfacet
  facet normal 0 0 1
    outer loop
      vertex -4.6194 1.91342 20
      vertex -2.9379 2.60276 20
      vertex -3.53553 3.53553 20
    endloop
  endfacet
  facet normal 0 0 1
    outer loop
      vertex -5 0 20
      vertex -3.81095 0.939314 20
      vertex -4.6194 1.91342 20
    endloop
  endfacet
  facet normal 0 0 1
    outer loop
      vertex -2.9379 2.60276 20
      vertex -4.6194 1.91342 20
      vertex -3.81095 0.939314 20
    endloop
  endfacet
  facet normal -0 0 1
    outer loop
      vertex 3.47541 -1.82404 20
      vertex 4.6194 -1.91342 20
      vertex 3.925 0 20
    endloop
  endfacet
  facet normal 0 0 1
    outer loop
      vertex 4.6194 -1.91342 20
      vertex 3.47541 -1.82404 20
      vertex 3.53553 -3.53553 20
    endloop
  endfacet
  facet normal -0 0 1
    outer loop
      vertex 2.22965 -3.23021 20
      vertex 3.53553 -3.53553 20
      vertex 3.47541 -1.82404 20
    endloop
  endfacet
  facet normal 0 0 1
    outer loop
      vertex 2.22965 -3.23021 20
      vertex 1.91342 -4.6194 20
      vertex 3.53553 -3.53553 20
    endloop
  endfacet
  facet normal -0 0 1
    outer loop
      vertex 0.473106 -3.89638 20
      vertex 1.91342 -4.6194 20
      vertex 2.22965 -3.23021 20
    endloop
  endfacet
  facet normal 0 0 1
    outer loop
      vertex 0.473106 -3.89638 20
      vertex 0 -5 20
      vertex 1.91342 -4.6194 20
    endloop
  endfacet
  facet normal 0 0 1
    outer loop
      vertex -1.39182 -3.66994 20
      vertex 0 -5 20
      vertex 0.473106 -3.89638 20
    endloop
  endfacet
  facet normal 0 0 1
    outer loop
      vertex -1.39182 -3.66994 20
      vertex -1.91342 -4.6194 20
      vertex 0 -5 20
    endloop
  endfacet
  facet normal -0 0 1
    outer loop
      vertex -3.53553 -3.53553 20
      vertex -1.39182 -3.66994 20
      vertex -2.9379 -2.60276 20
    endloop
  endfacet
  facet normal 0 0 1
    outer loop
      vertex -1.39182 -3.66994 20
      vertex -3.53553 -3.53553 20
      vertex -1.91342 -4.6194 20
    endloop
  endfacet
  facet normal -0 0 1
    outer loop
      vertex -4.6194 -1.91342 20
      vertex -2.9379 -2.60276 20
      vertex -3.81095 -0.939314 20
    endloop
  endfacet
  facet normal 0 0 1
    outer loop
      vertex -3.81095 0.939314 20
      vertex -5 0 20
      vertex -3.81095 -0.939314 20
    endloop
  endfacet
  facet normal 0 0 1
    outer loop
      vertex -2.9379 -2.60276 20
      vertex -4.6194 -1.91342 20
      vertex -3.53553 -3.53553 20
    endloop
  endfacet
  facet normal 0 0 1
    outer loop
      vertex -3.81095 -0.939314 20
      vertex -5 0 20
      vertex -4.6194 -1.91342 20
    endloop
  endfacet
  facet normal -0.83147 0.55557 0
    outer loop
      vertex -4.6194 1.91342 0
      vertex -3.53553 3.53553 20
      vertex -3.53553 3.53553 0
    endloop
  endfacet
  facet normal -0.83147 0.55557 0
    outer loop
      vertex -3.53553 3.53553 20
      vertex -4.6194 1.91342 0
      vertex -4.6194 1.91342 20
    endloop
  endfacet
  facet normal 0.83147 -0.55557 0
    outer loop
      vertex 3.53553 -3.53553 20
      vertex 4.6194 -1.91342 0
      vertex 4.6194 -1.91342 20
    endloop
  endfacet
  facet normal 0.83147 -0.55557 0
    outer loop
      vertex 4.6194 -1.91342 0
      vertex 3.53553 -3.53553 20
      vertex 3.53553 -3.53553 0
    endloop
  endfacet
  facet normal 0.55557 -0.83147 0
    outer loop
      vertex 1.91342 -4.6194 0
      vertex 3.53553 -3.53553 20
      vertex 1.91342 -4.6194 20
    endloop
  endfacet
  facet normal 0.55557 -0.83147 0
    outer loop
      vertex 3.53553 -3.53553 20
      vertex 1.91342 -4.6194 0
      vertex 3.53553 -3.53553 0
    endloop
  endfacet
  facet normal 0.980785 -0.195091 0
    outer loop
      vertex 4.6194 -1.91342 20
      vertex 5 0 0
      vertex 5 0 20
    endloop
  endfacet
  facet normal 0.980785 -0.195091 0
    outer loop
      vertex 5 0 0
      vertex 4.6194 -1.91342 20
      vertex 4.6194 -1.91342 0
    endloop
  endfacet
  facet normal -0.970942 -0.239316 0
    outer loop
      vertex 3.925 0 0
      vertex 3.47541 1.82404 20
      vertex 3.47541 1.82404 0
    endloop
  endfacet
  facet normal -0.970942 -0.239316 0
    outer loop
      vertex 3.47541 1.82404 20
      vertex 3.925 0 0
      vertex 3.925 0 20
    endloop
  endfacet
  facet normal 1 -0 0
    outer loop
      vertex -3.81095 -0.939314 20
      vertex -3.81095 0.939314 0
      vertex -3.81095 0.939314 20
    endloop
  endfacet
  facet normal 1 0 0
    outer loop
      vertex -3.81095 0.939314 0
      vertex -3.81095 -0.939314 20
      vertex -3.81095 -0.939314 0
    endloop
  endfacet
  facet normal 0.885456 0.464723 0
    outer loop
      vertex -2.9379 -2.60276 20
      vertex -3.81095 -0.939314 0
      vertex -3.81095 -0.939314 20
    endloop
  endfacet
  facet normal 0.885456 0.464723 0
    outer loop
      vertex -3.81095 -0.939314 0
      vertex -2.9379 -2.60276 20
      vertex -2.9379 -2.60276 0
    endloop
  endfacet
  facet normal 0.120537 -0.992709 0
    outer loop
      vertex -1.39182 3.66994 0
      vertex 0.473106 3.89638 20
      vertex -1.39182 3.66994 20
    endloop
  endfacet
  facet normal 0.120537 -0.992709 0
    outer loop
      vertex 0.473106 3.89638 20
      vertex -1.39182 3.66994 0
      vertex 0.473106 3.89638 0
    endloop
  endfacet
  facet normal -0.748511 -0.663123 0
    outer loop
      vertex 3.47541 1.82404 0
      vertex 2.22965 3.23021 20
      vertex 2.22965 3.23021 0
    endloop
  endfacet
  facet normal -0.748511 -0.663123 0
    outer loop
      vertex 2.22965 3.23021 20
      vertex 3.47541 1.82404 0
      vertex 3.47541 1.82404 20
    endloop
  endfacet
  facet normal -0.354605 -0.935016 0
    outer loop
      vertex 0.473106 3.89638 0
      vertex 2.22965 3.23021 20
      vertex 0.473106 3.89638 20
    endloop
  endfacet
  facet normal -0.354605 -0.935016 -0
    outer loop
      vertex 2.22965 3.23021 20
      vertex 0.473106 3.89638 0
      vertex 2.22965 3.23021 0
    endloop
  endfacet
  facet normal 0.568065 -0.822984 0
    outer loop
      vertex -2.9379 2.60276 0
      vertex -1.39182 3.66994 20
      vertex -2.9379 2.60276 20
    endloop
  endfacet
  facet normal 0.568065 -0.822984 0
    outer loop
      vertex -1.39182 3.66994 20
      vertex -2.9379 2.60276 0
      vertex -1.39182 3.66994 0
    endloop
  endfacet
  facet normal 0.885456 -0.464723 0
    outer loop
      vertex -3.81095 0.939314 20
      vertex -2.9379 2.60276 0
      vertex -2.9379 2.60276 20
    endloop
  endfacet
  facet normal 0.885456 -0.464723 0
    outer loop
      vertex -2.9379 2.60276 0
      vertex -3.81095 0.939314 20
      vertex -3.81095 0.939314 0
    endloop
  endfacet
  facet normal -0.970942 0.239316 0
    outer loop
      vertex 3.47541 -1.82404 0
      vertex 3.925 0 20
      vertex 3.925 0 0
    endloop
  endfacet
  facet normal -0.970942 0.239316 0
    outer loop
      vertex 3.925 0 20
      vertex 3.47541 -1.82404 0
      vertex 3.47541 -1.82404 20
    endloop
  endfacet
  facet normal -0.748511 0.663123 0
    outer loop
      vertex 2.22965 -3.23021 0
      vertex 3.47541 -1.82404 20
      vertex 3.47541 -1.82404 0
    endloop
  endfacet
  facet normal -0.748511 0.663123 0
    outer loop
      vertex 3.47541 -1.82404 20
      vertex 2.22965 -3.23021 0
      vertex 2.22965 -3.23021 20
    endloop
  endfacet
  facet normal 0.120537 0.992709 -0
    outer loop
      vertex 0.473106 -3.89638 0
      vertex -1.39182 -3.66994 20
      vertex 0.473106 -3.89638 20
    endloop
  endfacet
  facet normal 0.120537 0.992709 0
    outer loop
      vertex -1.39182 -3.66994 20
      vertex 0.473106 -3.89638 0
      vertex -1.39182 -3.66994 0
    endloop
  endfacet
  facet normal 0.568065 0.822984 -0
    outer loop
      vertex -1.39182 -3.66994 0
      vertex -2.9379 -2.60276 20
      vertex -1.39182 -3.66994 20
    endloop
  endfacet
  facet normal 0.568065 0.822984 0
    outer loop
      vertex -2.9379 -2.60276 20
      vertex -1.39182 -3.66994 0
      vertex -2.9379 -2.60276 0
    endloop
  endfacet
  facet normal -0.354605 0.935016 0
    outer loop
      vertex 2.22965 -3.23021 0
      vertex 0.473106 -3.89638 20
      vertex 2.22965 -3.23021 20
    endloop
  endfacet
  facet normal -0.354605 0.935016 0
    outer loop
      vertex 0.473106 -3.89638 20
      vertex 2.22965 -3.23021 0
      vertex 0.473106 -3.89638 0
    endloop
  endfacet
endsolid OpenSCAD_Model
