solid OpenSCAD_Model
  facet normal 0 0 -1
    outer loop
      vertex -10 0 0
      vertex -9.78148 2.07912 0
      vertex -9.78148 -2.07912 0
    endloop
  endfacet
  facet normal 0 0 -1
    outer loop
      vertex -9.78148 -2.07912 0
      vertex -9.78148 2.07912 0
      vertex -9.13546 4.06737 0
    endloop
  endfacet
  facet normal 0 0 -1
    outer loop
      vertex -9.78148 -2.07912 0
      vertex -9.13546 4.06737 0
      vertex -8.09017 5.87785 0
    endloop
  endfacet
  facet normal 0 0 -1
    outer loop
      vertex -9.78148 -2.07912 0
      vertex -8.09017 5.87785 0
      vertex -6.69131 7.43145 0
    endloop
  endfacet
  facet normal 0 0 -1
    outer loop
      vertex -9.78148 -2.07912 0
      vertex -6.69131 7.43145 0
      vertex -5 8.66025 0
    endloop
  endfacet
  facet normal 0 0 -1
    outer loop
      vertex -9.78148 -2.07912 0
      vertex -5 8.66025 0
      vertex -3.09017 9.51056 0
    endloop
  endfacet
  facet normal 0 0 -1
    outer loop
      vertex -9.78148 -2.07912 0
      vertex -3.09017 9.51056 0
      vertex -1.04529 9.94522 0
    endloop
  endfacet
  facet normal 0 0 -1
    outer loop
      vertex -9.78148 -2.07912 0
      vertex -1.04529 9.94522 0
      vertex 0 9.94522 0
    endloop
  endfacet
  facet normal 0 0 -1
    outer loop
      vertex 0 9.94522 0
      vertex 0 20 0
      vertex 10 20 0
    endloop
  endfacet
  facet normal 0 0 -1
    outer loop
      vertex 0 9.94522 0
      vertex 10 20 0
      vertex -9.78148 -2.07912 0
    endloop
  endfacet
  facet normal 0 0 -1
    outer loop
      vertex -9.78148 -2.07912 0
      vertex 10 20 0
      vertex 10 0 0
    endloop
  endfacet
  facet normal 0 0 -1
    outer loop
      vertex -9.78148 -2.07912 0
      vertex 10 0 0
      vertex 9.78148 -2.07912 0
    endloop
  endfacet
  facet normal 0 0 -1
    outer loop
      vertex -9.78148 -2.07912 0
      vertex 9.78148 -2.07912 0
      vertex 9.13546 -4.06737 0
    endloop
  endfacet
  facet normal 0 0 -1
    outer loop
      vertex -9.78148 -2.07912 0
      vertex 9.13546 -4.06737 0
      vertex 8.09017 -5.87785 0
    endloop
  endfacet
  facet normal 0 0 -1
    outer loop
      vertex -9.78148 -2.07912 0
      vertex 8.09017 -5.87785 0
      vertex 6.69131 -7.43145 0
    endloop
  endfacet
  facet normal 0 0 -1
    outer loop
      vertex -9.78148 -2.07912 0
      vertex 6.69131 -7.43145 0
      vertex 5 -8.66025 0
    endloop
  endfacet
  facet normal 0 0 -1
    outer loop
      vertex -9.78148 -2.07912 0
      vertex 5 -8.66025 0
      vertex 3.09017 -9.51056 0
    endloop
  endfacet
  facet normal 0 0 -1
    outer loop
      vertex -9.78148 -2.07912 0
      vertex 3.09017 -9.51056 0
      vertex 1.04529 -9.94522 0
    endloop
  endfacet
  facet normal 0 0 -1
    outer loop
      vertex -9.78148 -2.07912 0
      vertex 1.04529 -9.94522 0
      vertex -1.04529 -9.94522 0
    endloop
  endfacet
  facet normal 0 0 -1
    outer loop
      vertex -9.78148 -2.07912 0
      vertex -1.04529 -9.94522 0
      vertex -3.09017 -9.51056 0
    endloop
  endfacet
  facet normal 0 0 -1
    outer loop
      vertex -9.78148 -2.07912 0
      vertex -3.09017 -9.51056 0
      vertex -5 -8.66025 0
    endloop
  endfacet
  facet normal 0 0 -1
    outer loop
      vertex -9.78148 -2.07912 0
      vertex -5 -8.66025 0
      vertex -6.69131 -7.43145 0
    endloop
  endfacet
  facet normal 0 0 -1
    outer loop
      vertex -9.78148 -2.07912 0
      vertex -6.69131 -7.43145 0
      vertex -8.09017 -5.87785 0
    endloop
  endfacet
  facet normal 0 0 -1
    outer loop
      vertex -9.78148 -2.07912 0
      vertex -8.09017 -5.87785 0
      vertex -9.13546 -4.06737 0
    endloop
  endfacet
  facet normal -0.994522 0.104528 0
    outer loop
      vertex -10 0 0
      vertex -10 0 15
      vertex -9.78148 2.07912 0
    endloop
  endfacet
  facet normal -0.994522 0.104528 0
    outer loop
      vertex -9.78148 2.07912 0
      vertex -10 0 15
      vertex -9.78148 2.07912 15
    endloop
  endfacet
  facet normal -0.994522 -0.104528 0
    outer loop
      vertex -10 0 0
      vertex -9.78148 -2.07912 0
      vertex -10 0 15
    endloop
  endfacet
  facet normal -0.994522 -0.104528 0
    outer loop
      vertex -10 0 15
      vertex -9.78148 -2.07912 0
      vertex -9.78148 -2.07912 15
    endloop
  endfacet
  facet normal -0.951057 -0.309017 0
    outer loop
      vertex -9.78148 -2.07912 0
      vertex -9.13546 -4.06737 0
      vertex -9.78148 -2.07912 15
    endloop
  endfacet
  facet normal -0.951057 -0.309017 0
    outer loop
      vertex -9.78148 -2.07912 15
      vertex -9.13546 -4.06737 0
      vertex -9.13546 -4.06737 15
    endloop
  endfacet
  facet normal -0.866025 -0.5 0
    outer loop
      vertex -9.13546 -4.06737 0
      vertex -8.09017 -5.87785 0
      vertex -9.13546 -4.06737 15
    endloop
  endfacet
  facet normal -0.866025 -0.5 0
    outer loop
      vertex -9.13546 -4.06737 15
      vertex -8.09017 -5.87785 0
      vertex -8.09017 -5.87785 15
    endloop
  endfacet
  facet normal -0.743145 -0.669131 0
    outer loop
      vertex -8.09017 -5.87785 0
      vertex -6.69131 -7.43145 0
      vertex -8.09017 -5.87785 15
    endloop
  endfacet
  facet normal -0.743145 -0.669131 0
    outer loop
      vertex -8.09017 -5.87785 15
      vertex -6.69131 -7.43145 0
      vertex -6.69131 -7.43145 15
    endloop
  endfacet
  facet normal -0.587785 -0.809017 0
    outer loop
      vertex -6.69131 -7.43145 15
      vertex -6.69131 -7.43145 0
      vertex -5 -8.66025 0
    endloop
  endfacet
  facet normal -0.587785 -0.809017 0
    outer loop
      vertex -5 -8.66025 15
      vertex -6.69131 -7.43145 15
      vertex -5 -8.66025 0
    endloop
  endfacet
  facet normal -0.406737 -0.913545 0
    outer loop
      vertex -5 -8.66025 15
      vertex -5 -8.66025 0
      vertex -3.09017 -9.51056 0
    endloop
  endfacet
  facet normal -0.406737 -0.913545 0
    outer loop
      vertex -3.09017 -9.51056 15
      vertex -5 -8.66025 15
      vertex -3.09017 -9.51056 0
    endloop
  endfacet
  facet normal -0.207912 -0.978148 0
    outer loop
      vertex -3.09017 -9.51056 15
      vertex -3.09017 -9.51056 0
      vertex -1.04529 -9.94522 0
    endloop
  endfacet
  facet normal -0.207912 -0.978148 0
    outer loop
      vertex -1.04529 -9.94522 15
      vertex -3.09017 -9.51056 15
      vertex -1.04529 -9.94522 0
    endloop
  endfacet
  facet normal 0 -1 0
    outer loop
      vertex -1.04529 -9.94522 15
      vertex -1.04529 -9.94522 0
      vertex 1.04529 -9.94522 0
    endloop
  endfacet
  facet normal 0 -1 0
    outer loop
      vertex 1.04529 -9.94522 15
      vertex -1.04529 -9.94522 15
      vertex 1.04529 -9.94522 0
    endloop
  endfacet
  facet normal 0.207912 -0.978148 0
    outer loop
      vertex 1.04529 -9.94522 15
      vertex 1.04529 -9.94522 0
      vertex 3.09017 -9.51056 0
    endloop
  endfacet
  facet normal 0.207912 -0.978148 0
    outer loop
      vertex 3.09017 -9.51056 15
      vertex 1.04529 -9.94522 15
      vertex 3.09017 -9.51056 0
    endloop
  endfacet
  facet normal 0.406737 -0.913545 0
    outer loop
      vertex 3.09017 -9.51056 15
      vertex 3.09017 -9.51056 0
      vertex 5 -8.66025 0
    endloop
  endfacet
  facet normal 0.406737 -0.913545 0
    outer loop
      vertex 5 -8.66025 15
      vertex 3.09017 -9.51056 15
      vertex 5 -8.66025 0
    endloop
  endfacet
  facet normal 0.587785 -0.809017 0
    outer loop
      vertex 5 -8.66025 15
      vertex 5 -8.66025 0
      vertex 6.69131 -7.43145 0
    endloop
  endfacet
  facet normal 0.587785 -0.809017 0
    outer loop
      vertex 6.69131 -7.43145 15
      vertex 5 -8.66025 15
      vertex 6.69131 -7.43145 0
    endloop
  endfacet
  facet normal 0.743145 -0.669131 0
    outer loop
      vertex 6.69131 -7.43145 15
      vertex 6.69131 -7.43145 0
      vertex 8.09017 -5.87785 0
    endloop
  endfacet
  facet normal 0.743145 -0.669131 0
    outer loop
      vertex 8.09017 -5.87785 15
      vertex 6.69131 -7.43145 15
      vertex 8.09017 -5.87785 0
    endloop
  endfacet
  facet normal 0.866025 -0.5 0
    outer loop
      vertex 8.597 -5 2
      vertex 8.09017 -5.87785 0
      vertex 9.13546 -4.06737 0
    endloop
  endfacet
  facet normal 0.866025 -0.5 0
    outer loop
      vertex 8.597 -5 2
      vertex 8.597 -5 12
      vertex 8.09017 -5.87785 15
    endloop
  endfacet
  facet normal 0.866025 -0.5 0
    outer loop
      vertex 8.09017 -5.87785 15
      vertex 8.09017 -5.87785 0
      vertex 8.597 -5 2
    endloop
  endfacet
  facet normal 0.866025 -0.5 0
    outer loop
      vertex 9.13546 -4.06737 12
      vertex 8.09017 -5.87785 15
      vertex 8.597 -5 12
    endloop
  endfacet
  facet normal 0.866025 -0.5 0
    outer loop
      vertex 9.13546 -4.06737 15
      vertex 8.09017 -5.87785 15
      vertex 9.13546 -4.06737 12
    endloop
  endfacet
  facet normal 0.866025 -0.5 0
    outer loop
      vertex 9.13546 -4.06737 2
      vertex 8.597 -5 2
      vertex 9.13546 -4.06737 0
    endloop
  endfacet
  facet normal 0.951057 -0.309017 0
    outer loop
      vertex 9.13546 -4.06737 2
      vertex 9.13546 -4.06737 0
      vertex 9.78148 -2.07912 0
    endloop
  endfacet
  facet normal 0.951057 -0.309017 0
    outer loop
      vertex 9.48226 -3 2
      vertex 9.13546 -4.06737 2
      vertex 9.78148 -2.07912 0
    endloop
  endfacet
  facet normal 0.951057 -0.309017 0
    outer loop
      vertex 9.13546 -4.06737 15
      vertex 9.13546 -4.06737 12
      vertex 9.78148 -2.07912 15
    endloop
  endfacet
  facet normal 0.951057 -0.309017 0
    outer loop
      vertex 9.13546 -4.06737 12
      vertex 9.48226 -3 12
      vertex 9.78148 -2.07912 15
    endloop
  endfacet
  facet normal 0.951057 -0.309017 0
    outer loop
      vertex 9.78148 -2.07912 15
      vertex 9.48226 -3 2
      vertex 9.78148 -2.07912 0
    endloop
  endfacet
  facet normal 0.951057 -0.309017 0
    outer loop
      vertex 9.48226 -3 12
      vertex 9.48226 -3 2
      vertex 9.78148 -2.07912 15
    endloop
  endfacet
  facet normal 0.994522 -0.104528 0
    outer loop
      vertex 9.78148 -2.07912 15
      vertex 9.78148 -2.07912 0
      vertex 10 0 0
    endloop
  endfacet
  facet normal 0.994522 -0.104528 0
    outer loop
      vertex 10 0 15
      vertex 9.78148 -2.07912 15
      vertex 10 0 0
    endloop
  endfacet
  facet normal 1 0 0
    outer loop
      vertex 10 0 15
      vertex 10 0 0
      vertex 10 20 0
    endloop
  endfacet
  facet normal 1 0 0
    outer loop
      vertex 10 20 15
      vertex 10 0 15
      vertex 10 20 0
    endloop
  endfacet
  facet normal 0 1 0
    outer loop
      vertex 2 20 13
      vertex 0 20 15
      vertex 10 20 15
    endloop
  endfacet
  facet normal 0 1 0
    outer loop
      vertex 5 20 13
      vertex 2 20 13
      vertex 10 20 15
    endloop
  endfacet
  facet normal 0 1 0
    outer loop
      vertex 0 20 0
      vertex 0 20 15
      vertex 2 20 2
    endloop
  endfacet
  facet normal 0 1 0
    outer loop
      vertex 0 20 0
      vertex 2 20 2
      vertex 10 20 0
    endloop
  endfacet
  facet normal 0 1 0
    outer loop
      vertex 5 20 13
      vertex 10 20 0
      vertex 5 20 2
    endloop
  endfacet
  facet normal 0 1 0
    outer loop
      vertex 2 20 2
      vertex 5 20 2
      vertex 10 20 0
    endloop
  endfacet
  facet normal 0 1 0
    outer loop
      vertex 10 20 0
      vertex 5 20 13
      vertex 10 20 15
    endloop
  endfacet
  facet normal 0 1 0
    outer loop
      vertex 2 20 2
      vertex 0 20 15
      vertex 2 20 13
    endloop
  endfacet
  facet normal -1 0 0
    outer loop
      vertex 0 9.94522 0
      vertex 0 9.94522 15
      vertex 0 20 0
    endloop
  endfacet
  facet normal -1 0 0
    outer loop
      vertex 0 20 0
      vertex 0 9.94522 15
      vertex 0 20 15
    endloop
  endfacet
  facet normal 0 1 0
    outer loop
      vertex -1.04529 9.94522 0
      vertex -1.04529 9.94522 15
      vertex 0 9.94522 0
    endloop
  endfacet
  facet normal 0 1 0
    outer loop
      vertex 0 9.94522 0
      vertex -1.04529 9.94522 15
      vertex 0 9.94522 15
    endloop
  endfacet
  facet normal -0.207912 0.978148 0
    outer loop
      vertex -3.09017 9.51056 0
      vertex -3.09017 9.51056 15
      vertex -1.04529 9.94522 0
    endloop
  endfacet
  facet normal -0.207912 0.978148 0
    outer loop
      vertex -1.04529 9.94522 0
      vertex -3.09017 9.51056 15
      vertex -1.04529 9.94522 15
    endloop
  endfacet
  facet normal -0.406737 0.913545 0
    outer loop
      vertex -5 8.66025 0
      vertex -5 8.66025 15
      vertex -3.09017 9.51056 0
    endloop
  endfacet
  facet normal -0.406737 0.913545 0
    outer loop
      vertex -3.09017 9.51056 0
      vertex -5 8.66025 15
      vertex -3.09017 9.51056 15
    endloop
  endfacet
  facet normal -0.587785 0.809017 0
    outer loop
      vertex -6.69131 7.43145 0
      vertex -6.69131 7.43145 15
      vertex -5 8.66025 0
    endloop
  endfacet
  facet normal -0.587785 0.809017 0
    outer loop
      vertex -5 8.66025 0
      vertex -6.69131 7.43145 15
      vertex -5 8.66025 15
    endloop
  endfacet
  facet normal -0.743145 0.669131 0
    outer loop
      vertex -8.09017 5.87785 0
      vertex -8.09017 5.87785 15
      vertex -6.69131 7.43145 0
    endloop
  endfacet
  facet normal -0.743145 0.669131 0
    outer loop
      vertex -6.69131 7.43145 0
      vertex -8.09017 5.87785 15
      vertex -6.69131 7.43145 15
    endloop
  endfacet
  facet normal -0.866025 0.5 0
    outer loop
      vertex -9.13546 4.06737 0
      vertex -9.13546 4.06737 15
      vertex -8.09017 5.87785 0
    endloop
  endfacet
  facet normal -0.866025 0.5 0
    outer loop
      vertex -8.09017 5.87785 0
      vertex -9.13546 4.06737 15
      vertex -8.09017 5.87785 15
    endloop
  endfacet
  facet normal -0.951057 0.309017 0
    outer loop
      vertex -9.78148 2.07912 0
      vertex -9.78148 2.07912 15
      vertex -9.13546 4.06737 0
    endloop
  endfacet
  facet normal -0.951057 0.309017 0
    outer loop
      vertex -9.13546 4.06737 0
      vertex -9.78148 2.07912 15
      vertex -9.13546 4.06737 15
    endloop
  endfacet
  facet normal 0 0 1
    outer loop
      vertex -9.78148 2.07912 15
      vertex -10 0 15
      vertex -9.78148 -2.07912 15
    endloop
  endfacet
  facet normal 0 0 1
    outer loop
      vertex -8.09017 -5.87785 15
      vertex -9.78148 2.07912 15
      vertex -9.13546 -4.06737 15
    endloop
  endfacet
  facet normal 0 0 1
    outer loop
      vertex -9.13546 -4.06737 15
      vertex -9.78148 2.07912 15
      vertex -9.78148 -2.07912 15
    endloop
  endfacet
  facet normal 0 0 1
    outer loop
      vertex -6.69131 -7.43145 15
      vertex -9.78148 2.07912 15
      vertex -8.09017 -5.87785 15
    endloop
  endfacet
  facet normal 0 0 1
    outer loop
      vertex -5 -8.66025 15
      vertex -9.78148 2.07912 15
      vertex -6.69131 -7.43145 15
    endloop
  endfacet
  facet normal 0 0 1
    outer loop
      vertex -3.09017 -9.51056 15
      vertex -9.78148 2.07912 15
      vertex -5 -8.66025 15
    endloop
  endfacet
  facet normal 0 0 1
    outer loop
      vertex -1.04529 -9.94522 15
      vertex -9.78148 2.07912 15
      vertex -3.09017 -9.51056 15
    endloop
  endfacet
  facet normal 0 0 1
    outer loop
      vertex 1.04529 -9.94522 15
      vertex -9.78148 2.07912 15
      vertex -1.04529 -9.94522 15
    endloop
  endfacet
  facet normal 0 0 1
    outer loop
      vertex 3.09017 -9.51056 15
      vertex -9.78148 2.07912 15
      vertex 1.04529 -9.94522 15
    endloop
  endfacet
  facet normal 0 0 1
    outer loop
      vertex 5 -8.66025 15
      vertex -9.78148 2.07912 15
      vertex 3.09017 -9.51056 15
    endloop
  endfacet
  facet normal 0 0 1
    outer loop
      vertex 6.69131 -7.43145 15
      vertex -9.78148 2.07912 15
      vertex 5 -8.66025 15
    endloop
  endfacet
  facet normal 0 0 1
    outer loop
      vertex 8.09017 -5.87785 15
      vertex -9.78148 2.07912 15
      vertex 6.69131 -7.43145 15
    endloop
  endfacet
  facet normal 0 0 1
    outer loop
      vertex 9.13546 -4.06737 15
      vertex -9.78148 2.07912 15
      vertex 8.09017 -5.87785 15
    endloop
  endfacet
  facet normal 0 0 1
    outer loop
      vertex 9.78148 -2.07912 15
      vertex -9.78148 2.07912 15
      vertex 9.13546 -4.06737 15
    endloop
  endfacet
  facet normal 0 0 1
    outer loop
      vertex 10 0 15
      vertex -9.78148 2.07912 15
      vertex 9.78148 -2.07912 15
    endloop
  endfacet
  facet normal 0 0 1
    outer loop
      vertex 0 9.94522 15
      vertex -9.78148 2.07912 15
      vertex 10 0 15
    endloop
  endfacet
  facet normal 0 0 1
    outer loop
      vertex 10 20 15
      vertex 0 9.94522 15
      vertex 10 0 15
    endloop
  endfacet
  facet normal 0 0 1
    outer loop
      vertex -1.04529 9.94522 15
      vertex -9.78148 2.07912 15
      vertex 0 9.94522 15
    endloop
  endfacet
  facet normal 0 0 1
    outer loop
      vertex -6.69131 7.43145 15
      vertex -8.09017 5.87785 15
      vertex -9.78148 2.07912 15
    endloop
  endfacet
  facet normal 0 0 1
    outer loop
      vertex -5 8.66025 15
      vertex -9.78148 2.07912 15
      vertex -3.09017 9.51056 15
    endloop
  endfacet
  facet normal 0 0 1
    outer loop
      vertex -6.69131 7.43145 15
      vertex -9.78148 2.07912 15
      vertex -5 8.66025 15
    endloop
  endfacet
  facet normal 0 0 1
    outer loop
      vertex -9.13546 4.06737 15
      vertex -9.78148 2.07912 15
      vertex -8.09017 5.87785 15
    endloop
  endfacet
  facet normal 0 0 1
    outer loop
      vertex -1.04529 9.94522 15
      vertex -3.09017 9.51056 15
      vertex -9.78148 2.07912 15
    endloop
  endfacet
  facet normal 0 0 1
    outer loop
      vertex 0 20 15
      vertex 0 9.94522 15
      vertex 10 20 15
    endloop
  endfacet
  facet normal 0 0 -1
    outer loop
      vertex 7.35587 -3 12
      vertex 9.48226 -3 12
      vertex 7.08365 -3.71778 12
    endloop
  endfacet
  facet normal 0 0 -1
    outer loop
      vertex 7.08365 -3.71778 12
      vertex 9.48226 -3 12
      vertex 9.13546 -4.06737 12
    endloop
  endfacet
  facet normal 0 0 -1
    outer loop
      vertex 7.08365 -3.71778 12
      vertex 9.13546 -4.06737 12
      vertex 8.597 -5 12
    endloop
  endfacet
  facet normal 0 0 -1
    outer loop
      vertex 7.08365 -3.71778 12
      vertex 8.597 -5 12
      vertex 6.1986 -5 12
    endloop
  endfacet
  facet normal 0 1 0
    outer loop
      vertex 8.597 -5 12
      vertex 8.597 -5 2
      vertex 6.1986 -5 12
    endloop
  endfacet
  facet normal 0 1 0
    outer loop
      vertex 6.1986 -5 12
      vertex 8.597 -5 2
      vertex 6.1986 -5 2
    endloop
  endfacet
  facet normal 0 0 1
    outer loop
      vertex 8.597 -5 2
      vertex 9.13546 -4.06737 2
      vertex 9.48226 -3 2
    endloop
  endfacet
  facet normal 0 0 1
    outer loop
      vertex 7.08365 -3.71778 2
      vertex 8.597 -5 2
      vertex 7.35587 -3 2
    endloop
  endfacet
  facet normal 0 0 1
    outer loop
      vertex 7.35587 -3 2
      vertex 8.597 -5 2
      vertex 9.48226 -3 2
    endloop
  endfacet
  facet normal 0 0 1
    outer loop
      vertex 6.1986 -5 2
      vertex 8.597 -5 2
      vertex 7.08365 -3.71778 2
    endloop
  endfacet
  facet normal 0 -1 0
    outer loop
      vertex 9.48226 -3 2
      vertex 9.48226 -3 12
      vertex 7.35587 -3 12
    endloop
  endfacet
  facet normal 0 -1 0
    outer loop
      vertex 7.35587 -3 2
      vertex 9.48226 -3 2
      vertex 7.35587 -3 12
    endloop
  endfacet
  facet normal 1 0 0
    outer loop
      vertex 2 20 2
      vertex 2 20 13
      vertex 2 0 13
    endloop
  endfacet
  facet normal 1 0 0
    outer loop
      vertex 2 0 2
      vertex 2 20 2
      vertex 2 0 13
    endloop
  endfacet
  facet normal 0 0 -1
    outer loop
      vertex 5 20 13
      vertex 5 0 13
      vertex 2 20 13
    endloop
  endfacet
  facet normal 0 0 -1
    outer loop
      vertex 2 20 13
      vertex 5 0 13
      vertex 2 0 13
    endloop
  endfacet
  facet normal -1 0 0
    outer loop
      vertex 5 20 13
      vertex 5 20 2
      vertex 5 0 13
    endloop
  endfacet
  facet normal -1 0 0
    outer loop
      vertex 5 0 13
      vertex 5 20 2
      vertex 5 0 2
    endloop
  endfacet
  facet normal 0 0 1
    outer loop
      vertex 5 0 2
      vertex 5 20 2
      vertex 2 20 2
    endloop
  endfacet
  facet normal 0 0 1
    outer loop
      vertex 2 0 2
      vertex 5 0 2
      vertex 2 20 2
    endloop
  endfacet
  facet normal -0.822984 0.568065 0
    outer loop
      vertex 7.08365 -3.71778 14
      vertex 7.08365 -3.71778 12
      vertex 5.98809 -5.30498 14
    endloop
  endfacet
  facet normal -0.822984 0.568065 0
    outer loop
      vertex 5.98809 -5.30498 14
      vertex 7.08365 -3.71778 12
      vertex 6.1986 -5 12
    endloop
  endfacet
  facet normal -0.822984 0.568065 0
    outer loop
      vertex 5.98809 -5.30498 14
      vertex 6.1986 -5 12
      vertex 6.1986 -5 2
    endloop
  endfacet
  facet normal -0.822984 0.568065 0
    outer loop
      vertex 6.1986 -5 2
      vertex 7.08365 -3.71778 2
      vertex 7.08365 -3.71778 1
    endloop
  endfacet
  facet normal -0.822984 0.568065 0
    outer loop
      vertex 6.1986 -5 2
      vertex 7.08365 -3.71778 1
      vertex 5.98809 -5.30498 1
    endloop
  endfacet
  facet normal -0.822984 0.568065 0
    outer loop
      vertex 6.1986 -5 2
      vertex 5.98809 -5.30498 1
      vertex 5.98809 -5.30498 14
    endloop
  endfacet
  facet normal -0.935016 0.354605 0
    outer loop
      vertex 7.08365 -3.71778 14
      vertex 7.35587 -3 12
      vertex 7.08365 -3.71778 12
    endloop
  endfacet
  facet normal -0.935016 0.354605 0
    outer loop
      vertex 7.76753 -1.91452 14
      vertex 7.35587 -3 12
      vertex 7.08365 -3.71778 14
    endloop
  endfacet
  facet normal -0.935016 0.354605 0
    outer loop
      vertex 7.35587 -3 2
      vertex 7.35587 -3 12
      vertex 7.76753 -1.91452 14
    endloop
  endfacet
  facet normal -0.935016 0.354605 0
    outer loop
      vertex 7.35587 -3 2
      vertex 7.76753 -1.91452 14
      vertex 7.76753 -1.91452 1
    endloop
  endfacet
  facet normal -0.935016 0.354605 0
    outer loop
      vertex 7.35587 -3 2
      vertex 7.76753 -1.91452 1
      vertex 7.08365 -3.71778 2
    endloop
  endfacet
  facet normal -0.935016 0.354605 0
    outer loop
      vertex 7.76753 -1.91452 1
      vertex 7.08365 -3.71778 1
      vertex 7.08365 -3.71778 2
    endloop
  endfacet
  facet normal 0 -1 0
    outer loop
      vertex 2 0 2
      vertex 0 0 1
      vertex 8 0 1
    endloop
  endfacet
  facet normal 0 -1 0
    outer loop
      vertex 5 0 2
      vertex 2 0 2
      vertex 8 0 1
    endloop
  endfacet
  facet normal 0 -1 0
    outer loop
      vertex 0 0 14
      vertex 0 0 1
      vertex 2 0 2
    endloop
  endfacet
  facet normal 0 -1 0
    outer loop
      vertex 8 0 14
      vertex 0 0 14
      vertex 2 0 13
    endloop
  endfacet
  facet normal 0 -1 0
    outer loop
      vertex 8 0 14
      vertex 5 0 13
      vertex 8 0 1
    endloop
  endfacet
  facet normal 0 -1 0
    outer loop
      vertex 8 0 14
      vertex 2 0 13
      vertex 5 0 13
    endloop
  endfacet
  facet normal 0 -1 0
    outer loop
      vertex 5 0 13
      vertex 5 0 2
      vertex 8 0 1
    endloop
  endfacet
  facet normal 0 -1 0
    outer loop
      vertex 2 0 2
      vertex 2 0 13
      vertex 0 0 14
    endloop
  endfacet
  facet normal 0 0 -1
    outer loop
      vertex -7.08365 3.71778 14
      vertex -5.98809 5.30498 14
      vertex -7.76753 1.91452 14
    endloop
  endfacet
  facet normal 0 0 -1
    outer loop
      vertex -7.76753 1.91452 14
      vertex -5.98809 5.30498 14
      vertex -4.54452 6.58387 14
    endloop
  endfacet
  facet normal 0 0 -1
    outer loop
      vertex -7.76753 1.91452 14
      vertex -4.54452 6.58387 14
      vertex -2.83684 7.48013 14
    endloop
  endfacet
  facet normal 0 0 -1
    outer loop
      vertex -7.76753 1.91452 14
      vertex -2.83684 7.48013 14
      vertex -0.964293 7.94167 14
    endloop
  endfacet
  facet normal 0 0 -1
    outer loop
      vertex -7.76753 1.91452 14
      vertex -0.964293 7.94167 14
      vertex 0 7.94167 14
    endloop
  endfacet
  facet normal 0 0 -1
    outer loop
      vertex -7.76753 1.91452 14
      vertex 0 7.94167 14
      vertex 0 0 14
    endloop
  endfacet
  facet normal 0 0 -1
    outer loop
      vertex 0 0 14
      vertex 8 0 14
      vertex 7.76753 -1.91452 14
    endloop
  endfacet
  facet normal 0 0 -1
    outer loop
      vertex 0 0 14
      vertex 7.76753 -1.91452 14
      vertex 7.08365 -3.71778 14
    endloop
  endfacet
  facet normal 0 0 -1
    outer loop
      vertex 0 0 14
      vertex 7.08365 -3.71778 14
      vertex -7.76753 1.91452 14
    endloop
  endfacet
  facet normal 0 0 -1
    outer loop
      vertex -7.76753 1.91452 14
      vertex 7.08365 -3.71778 14
      vertex 5.98809 -5.30498 14
    endloop
  endfacet
  facet normal 0 0 -1
    outer loop
      vertex -7.76753 1.91452 14
      vertex 5.98809 -5.30498 14
      vertex 4.54452 -6.58387 14
    endloop
  endfacet
  facet normal 0 0 -1
    outer loop
      vertex -7.76753 1.91452 14
      vertex 4.54452 -6.58387 14
      vertex 2.83684 -7.48013 14
    endloop
  endfacet
  facet normal 0 0 -1
    outer loop
      vertex -7.76753 1.91452 14
      vertex 2.83684 -7.48013 14
      vertex 0.964293 -7.94167 14
    endloop
  endfacet
  facet normal 0 0 -1
    outer loop
      vertex -7.76753 1.91452 14
      vertex 0.964293 -7.94167 14
      vertex -0.964293 -7.94167 14
    endloop
  endfacet
  facet normal 0 0 -1
    outer loop
      vertex -7.76753 1.91452 14
      vertex -0.964293 -7.94167 14
      vertex -2.83684 -7.48013 14
    endloop
  endfacet
  facet normal 0 0 -1
    outer loop
      vertex -7.76753 1.91452 14
      vertex -2.83684 -7.48013 14
      vertex -4.54452 -6.58387 14
    endloop
  endfacet
  facet normal 0 0 -1
    outer loop
      vertex -7.76753 1.91452 14
      vertex -4.54452 -6.58387 14
      vertex -5.98809 -5.30498 14
    endloop
  endfacet
  facet normal 0 0 -1
    outer loop
      vertex -7.76753 1.91452 14
      vertex -5.98809 -5.30498 14
      vertex -7.08365 -3.71778 14
    endloop
  endfacet
  facet normal 0 0 -1
    outer loop
      vertex -7.76753 1.91452 14
      vertex -7.08365 -3.71778 14
      vertex -7.76753 -1.91452 14
    endloop
  endfacet
  facet normal 0 0 -1
    outer loop
      vertex -7.76753 1.91452 14
      vertex -7.76753 -1.91452 14
      vertex -8 0 14
    endloop
  endfacet
  facet normal -0.663123 0.748511 0
    outer loop
      vertex 5.98809 -5.30498 14
      vertex 5.98809 -5.30498 1
      vertex 4.54452 -6.58387 14
    endloop
  endfacet
  facet normal -0.663123 0.748511 0
    outer loop
      vertex 4.54452 -6.58387 14
      vertex 5.98809 -5.30498 1
      vertex 4.54452 -6.58387 1
    endloop
  endfacet
  facet normal 0 0 1
    outer loop
      vertex -7.76753 -1.91452 1
      vertex -7.08365 -3.71778 1
      vertex -5.98809 -5.30498 1
    endloop
  endfacet
  facet normal 0 0 1
    outer loop
      vertex -2.83684 -7.48013 1
      vertex -7.76753 -1.91452 1
      vertex -4.54452 -6.58387 1
    endloop
  endfacet
  facet normal 0 0 1
    outer loop
      vertex -4.54452 -6.58387 1
      vertex -7.76753 -1.91452 1
      vertex -5.98809 -5.30498 1
    endloop
  endfacet
  facet normal 0 0 1
    outer loop
      vertex -0.964293 -7.94167 1
      vertex -7.76753 -1.91452 1
      vertex -2.83684 -7.48013 1
    endloop
  endfacet
  facet normal 0 0 1
    outer loop
      vertex 0.964293 -7.94167 1
      vertex -7.76753 -1.91452 1
      vertex -0.964293 -7.94167 1
    endloop
  endfacet
  facet normal 0 0 1
    outer loop
      vertex 2.83684 -7.48013 1
      vertex -7.76753 -1.91452 1
      vertex 0.964293 -7.94167 1
    endloop
  endfacet
  facet normal 0 0 1
    outer loop
      vertex 4.54452 -6.58387 1
      vertex -7.76753 -1.91452 1
      vertex 2.83684 -7.48013 1
    endloop
  endfacet
  facet normal 0 0 1
    outer loop
      vertex 5.98809 -5.30498 1
      vertex -7.76753 -1.91452 1
      vertex 4.54452 -6.58387 1
    endloop
  endfacet
  facet normal 0 0 1
    outer loop
      vertex 7.08365 -3.71778 1
      vertex -7.76753 -1.91452 1
      vertex 5.98809 -5.30498 1
    endloop
  endfacet
  facet normal 0 0 1
    outer loop
      vertex 7.76753 -1.91452 1
      vertex -7.76753 -1.91452 1
      vertex 7.08365 -3.71778 1
    endloop
  endfacet
  facet normal 0 0 1
    outer loop
      vertex 8 0 1
      vertex -7.76753 -1.91452 1
      vertex 7.76753 -1.91452 1
    endloop
  endfacet
  facet normal 0 0 1
    outer loop
      vertex 0 0 1
      vertex -7.76753 -1.91452 1
      vertex 8 0 1
    endloop
  endfacet
  facet normal 0 0 1
    outer loop
      vertex 0 7.94167 1
      vertex -7.76753 -1.91452 1
      vertex 0 0 1
    endloop
  endfacet
  facet normal 0 0 1
    outer loop
      vertex -0.964293 7.94167 1
      vertex -7.76753 -1.91452 1
      vertex 0 7.94167 1
    endloop
  endfacet
  facet normal 0 0 1
    outer loop
      vertex -2.83684 7.48013 1
      vertex -7.76753 -1.91452 1
      vertex -0.964293 7.94167 1
    endloop
  endfacet
  facet normal 0 0 1
    outer loop
      vertex -4.54452 6.58387 1
      vertex -7.76753 -1.91452 1
      vertex -2.83684 7.48013 1
    endloop
  endfacet
  facet normal 0 0 1
    outer loop
      vertex -5.98809 5.30498 1
      vertex -7.76753 -1.91452 1
      vertex -4.54452 6.58387 1
    endloop
  endfacet
  facet normal 0 0 1
    outer loop
      vertex -7.08365 3.71778 1
      vertex -7.76753 -1.91452 1
      vertex -5.98809 5.30498 1
    endloop
  endfacet
  facet normal 0 0 1
    outer loop
      vertex -7.76753 1.91452 1
      vertex -7.76753 -1.91452 1
      vertex -7.08365 3.71778 1
    endloop
  endfacet
  facet normal 0 0 1
    outer loop
      vertex -8 0 1
      vertex -7.76753 -1.91452 1
      vertex -7.76753 1.91452 1
    endloop
  endfacet
  facet normal -0.992709 0.120536 0
    outer loop
      vertex 8 0 14
      vertex 8 0 1
      vertex 7.76753 -1.91452 14
    endloop
  endfacet
  facet normal -0.992709 0.120536 0
    outer loop
      vertex 7.76753 -1.91452 14
      vertex 8 0 1
      vertex 7.76753 -1.91452 1
    endloop
  endfacet
  facet normal -1 0 0
    outer loop
      vertex 0 0 1
      vertex 0 0 14
      vertex 0 7.94167 1
    endloop
  endfacet
  facet normal -1 0 0
    outer loop
      vertex 0 7.94167 1
      vertex 0 0 14
      vertex 0 7.94167 14
    endloop
  endfacet
  facet normal 0.935016 -0.354605 0
    outer loop
      vertex -7.08365 3.71778 1
      vertex -7.08365 3.71778 14
      vertex -7.76753 1.91452 14
    endloop
  endfacet
  facet normal 0.935016 -0.354605 0
    outer loop
      vertex -7.76753 1.91452 1
      vertex -7.08365 3.71778 1
      vertex -7.76753 1.91452 14
    endloop
  endfacet
  facet normal 0.992709 -0.120536 0
    outer loop
      vertex -7.76753 1.91452 1
      vertex -7.76753 1.91452 14
      vertex -8 0 14
    endloop
  endfacet
  facet normal 0.992709 -0.120536 0
    outer loop
      vertex -8 0 1
      vertex -7.76753 1.91452 1
      vertex -8 0 14
    endloop
  endfacet
  facet normal 0.992709 0.120536 0
    outer loop
      vertex -8 0 14
      vertex -7.76753 -1.91452 14
      vertex -7.76753 -1.91452 1
    endloop
  endfacet
  facet normal 0.992709 0.120536 0
    outer loop
      vertex -8 0 1
      vertex -8 0 14
      vertex -7.76753 -1.91452 1
    endloop
  endfacet
  facet normal 0.935016 0.354605 0
    outer loop
      vertex -7.76753 -1.91452 14
      vertex -7.08365 -3.71778 14
      vertex -7.08365 -3.71778 1
    endloop
  endfacet
  facet normal 0.935016 0.354605 0
    outer loop
      vertex -7.76753 -1.91452 1
      vertex -7.76753 -1.91452 14
      vertex -7.08365 -3.71778 1
    endloop
  endfacet
  facet normal 0.822984 0.568065 0
    outer loop
      vertex -7.08365 -3.71778 14
      vertex -5.98809 -5.30498 14
      vertex -5.98809 -5.30498 1
    endloop
  endfacet
  facet normal 0.822984 0.568065 0
    outer loop
      vertex -7.08365 -3.71778 1
      vertex -7.08365 -3.71778 14
      vertex -5.98809 -5.30498 1
    endloop
  endfacet
  facet normal 0.663123 0.748511 0
    outer loop
      vertex -4.54452 -6.58387 14
      vertex -4.54452 -6.58387 1
      vertex -5.98809 -5.30498 14
    endloop
  endfacet
  facet normal 0.663123 0.748511 0
    outer loop
      vertex -5.98809 -5.30498 14
      vertex -4.54452 -6.58387 1
      vertex -5.98809 -5.30498 1
    endloop
  endfacet
  facet normal 0.464723 0.885456 0
    outer loop
      vertex -2.83684 -7.48013 14
      vertex -2.83684 -7.48013 1
      vertex -4.54452 -6.58387 14
    endloop
  endfacet
  facet normal 0.464723 0.885456 0
    outer loop
      vertex -4.54452 -6.58387 14
      vertex -2.83684 -7.48013 1
      vertex -4.54452 -6.58387 1
    endloop
  endfacet
  facet normal 0.239316 0.970942 0
    outer loop
      vertex -0.964293 -7.94167 14
      vertex -0.964293 -7.94167 1
      vertex -2.83684 -7.48013 14
    endloop
  endfacet
  facet normal 0.239316 0.970942 0
    outer loop
      vertex -2.83684 -7.48013 14
      vertex -0.964293 -7.94167 1
      vertex -2.83684 -7.48013 1
    endloop
  endfacet
  facet normal 0 1 0
    outer loop
      vertex 0.964293 -7.94167 14
      vertex 0.964293 -7.94167 1
      vertex -0.964293 -7.94167 14
    endloop
  endfacet
  facet normal 0 1 0
    outer loop
      vertex -0.964293 -7.94167 14
      vertex 0.964293 -7.94167 1
      vertex -0.964293 -7.94167 1
    endloop
  endfacet
  facet normal -0.239316 0.970942 0
    outer loop
      vertex 2.83684 -7.48013 14
      vertex 2.83684 -7.48013 1
      vertex 0.964293 -7.94167 14
    endloop
  endfacet
  facet normal -0.239316 0.970942 0
    outer loop
      vertex 0.964293 -7.94167 14
      vertex 2.83684 -7.48013 1
      vertex 0.964293 -7.94167 1
    endloop
  endfacet
  facet normal -0.464723 0.885456 0
    outer loop
      vertex 4.54452 -6.58387 14
      vertex 4.54452 -6.58387 1
      vertex 2.83684 -7.48013 14
    endloop
  endfacet
  facet normal -0.464723 0.885456 0
    outer loop
      vertex 2.83684 -7.48013 14
      vertex 4.54452 -6.58387 1
      vertex 2.83684 -7.48013 1
    endloop
  endfacet
  facet normal 0 -1 0
    outer loop
      vertex 0 7.94167 1
      vertex 0 7.94167 14
      vertex -0.964293 7.94167 14
    endloop
  endfacet
  facet normal 0 -1 0
    outer loop
      vertex -0.964293 7.94167 1
      vertex 0 7.94167 1
      vertex -0.964293 7.94167 14
    endloop
  endfacet
  facet normal 0.239316 -0.970942 0
    outer loop
      vertex -0.964293 7.94167 1
      vertex -0.964293 7.94167 14
      vertex -2.83684 7.48013 14
    endloop
  endfacet
  facet normal 0.239316 -0.970942 0
    outer loop
      vertex -2.83684 7.48013 1
      vertex -0.964293 7.94167 1
      vertex -2.83684 7.48013 14
    endloop
  endfacet
  facet normal 0.464723 -0.885456 0
    outer loop
      vertex -2.83684 7.48013 1
      vertex -2.83684 7.48013 14
      vertex -4.54452 6.58387 14
    endloop
  endfacet
  facet normal 0.464723 -0.885456 0
    outer loop
      vertex -4.54452 6.58387 1
      vertex -2.83684 7.48013 1
      vertex -4.54452 6.58387 14
    endloop
  endfacet
  facet normal 0.663123 -0.748511 0
    outer loop
      vertex -4.54452 6.58387 1
      vertex -4.54452 6.58387 14
      vertex -5.98809 5.30498 14
    endloop
  endfacet
  facet normal 0.663123 -0.748511 0
    outer loop
      vertex -5.98809 5.30498 1
      vertex -4.54452 6.58387 1
      vertex -5.98809 5.30498 14
    endloop
  endfacet
  facet normal 0.822984 -0.568065 0
    outer loop
      vertex -5.98809 5.30498 1
      vertex -5.98809 5.30498 14
      vertex -7.08365 3.71778 14
    endloop
  endfacet
  facet normal 0.822984 -0.568065 0
    outer loop
      vertex -7.08365 3.71778 1
      vertex -5.98809 5.30498 1
      vertex -7.08365 3.71778 14
    endloop
  endfacet
endsolid OpenSCAD_Model
