solid OpenSCAD_Model
  facet normal -1 0 0
    outer loop
      vertex 0 15 7
      vertex 0 18 0
      vertex 0 15 0
    endloop
  endfacet
  facet normal -1 0 0
    outer loop
      vertex 0 18 0
      vertex 0 15 7
      vertex 0 18 10
    endloop
  endfacet
  facet normal -1 0 0
    outer loop
      vertex 0 15 7
      vertex 0 9 10
      vertex 0 18 10
    endloop
  endfacet
  facet normal -1 0 0
    outer loop
      vertex 0 -3 7
      vertex 0 9 10
      vertex 0 15 7
    endloop
  endfacet
  facet normal -1 0 0
    outer loop
      vertex 0 -3 28
      vertex 0 9 10
      vertex 0 -3 7
    endloop
  endfacet
  facet normal -1 0 0
    outer loop
      vertex 0 9 10
      vertex 0 -3 28
      vertex 0 9 28
    endloop
  endfacet
  facet normal 0 0 1
    outer loop
      vertex 5 9 10
      vertex 8 10 10
      vertex 5 10 10
    endloop
  endfacet
  facet normal -0 0 1
    outer loop
      vertex 15 5 10
      vertex 20 1.82843 10
      vertex 20 18 10
    endloop
  endfacet
  facet normal 0 0 1
    outer loop
      vertex 20 1.82843 10
      vertex 16 3 10
      vertex 18.1716 0 10
    endloop
  endfacet
  facet normal 0 0 1
    outer loop
      vertex 15 5 10
      vertex 20 18 10
      vertex 15 15 10
    endloop
  endfacet
  facet normal 0 0 1
    outer loop
      vertex 20 18 10
      vertex 5 15 10
      vertex 15 15 10
    endloop
  endfacet
  facet normal 0 0 1
    outer loop
      vertex 0 9 10
      vertex 5 10 10
      vertex 5 15 10
    endloop
  endfacet
  facet normal -0 0 1
    outer loop
      vertex 0 18 10
      vertex 5 15 10
      vertex 20 18 10
    endloop
  endfacet
  facet normal 0 0 1
    outer loop
      vertex 0 9 10
      vertex 5 15 10
      vertex 0 18 10
    endloop
  endfacet
  facet normal 0 0 1
    outer loop
      vertex 5 10 10
      vertex 0 9 10
      vertex 5 9 10
    endloop
  endfacet
  facet normal 0 0 1
    outer loop
      vertex 18.1716 0 10
      vertex 16 3 10
      vertex 16 0 10
    endloop
  endfacet
  facet normal 0 0 1
    outer loop
      vertex 20 1.82843 10
      vertex 15 5 10
      vertex 16 3 10
    endloop
  endfacet
  facet normal 0 0 1
    outer loop
      vertex 15 5 10
      vertex 14 3 10
      vertex 16 3 10
    endloop
  endfacet
  facet normal 0 0 1
    outer loop
      vertex 14 3 10
      vertex 12 3 10
      vertex 14 0 10
    endloop
  endfacet
  facet normal 0 0 1
    outer loop
      vertex 15 5 10
      vertex 12 3 10
      vertex 14 3 10
    endloop
  endfacet
  facet normal -0 0 1
    outer loop
      vertex 8 5 10
      vertex 12 3 10
      vertex 15 5 10
    endloop
  endfacet
  facet normal 0 0 1
    outer loop
      vertex 12 3 10
      vertex 8 5 10
      vertex 10 3 10
    endloop
  endfacet
  facet normal 0 0 1
    outer loop
      vertex 5 0 10
      vertex 10 3 10
      vertex 8 5 10
    endloop
  endfacet
  facet normal 0 0 1
    outer loop
      vertex 8 10 10
      vertex 5 9 10
      vertex 8 5 10
    endloop
  endfacet
  facet normal 0 0 1
    outer loop
      vertex 5 0 10
      vertex 8 5 10
      vertex 5 9 10
    endloop
  endfacet
  facet normal 0 0 1
    outer loop
      vertex 10 3 10
      vertex 5 0 10
      vertex 10 0 10
    endloop
  endfacet
  facet normal 0 0 1
    outer loop
      vertex 14 0 10
      vertex 12 3 10
      vertex 12 0 10
    endloop
  endfacet
  facet normal 1 -0 0
    outer loop
      vertex 20 1.82843 10
      vertex 20 18 0
      vertex 20 18 10
    endloop
  endfacet
  facet normal 1 0 0
    outer loop
      vertex 20 0 0
      vertex 20 1.82843 10
      vertex 20 0 8.70711
    endloop
  endfacet
  facet normal 1 0 0
    outer loop
      vertex 20 1.82843 10
      vertex 20 0 0
      vertex 20 18 0
    endloop
  endfacet
  facet normal 0 1 -0
    outer loop
      vertex 20 18 0
      vertex 0 18 10
      vertex 20 18 10
    endloop
  endfacet
  facet normal 0 1 0
    outer loop
      vertex 0 18 10
      vertex 20 18 0
      vertex 0 18 0
    endloop
  endfacet
  facet normal 0 0 -1
    outer loop
      vertex 5 -3 0
      vertex 1.5 -3 0
      vertex 5 0 0
    endloop
  endfacet
  facet normal 0 0 -1
    outer loop
      vertex 5 0 0
      vertex 20 18 0
      vertex 20 0 0
    endloop
  endfacet
  facet normal 0 0 -1
    outer loop
      vertex 1.5 15 0
      vertex 5 0 0
      vertex 1.5 -3 0
    endloop
  endfacet
  facet normal 0 0 -1
    outer loop
      vertex 5 0 0
      vertex 1.5 15 0
      vertex 20 18 0
    endloop
  endfacet
  facet normal 0 0 -1
    outer loop
      vertex 0 18 0
      vertex 1.5 15 0
      vertex 0 15 0
    endloop
  endfacet
  facet normal 0 0 -1
    outer loop
      vertex 1.5 15 0
      vertex 0 18 0
      vertex 20 18 0
    endloop
  endfacet
  facet normal 0 -1 0
    outer loop
      vertex 5 0 10
      vertex 10 0 7
      vertex 10 0 10
    endloop
  endfacet
  facet normal 0 -1 0
    outer loop
      vertex 5 0 0
      vertex 12 0 7
      vertex 10 0 7
    endloop
  endfacet
  facet normal 0 -1 0
    outer loop
      vertex 20 0 0
      vertex 12 0 7
      vertex 5 0 0
    endloop
  endfacet
  facet normal 0 -1 0
    outer loop
      vertex 12 0 7
      vertex 20 0 0
      vertex 14 0 7
    endloop
  endfacet
  facet normal 0 -1 0
    outer loop
      vertex 5 0 0
      vertex 10 0 7
      vertex 5 0 10
    endloop
  endfacet
  facet normal 0 -1 0
    outer loop
      vertex 12 0 7
      vertex 14 0 10
      vertex 12 0 10
    endloop
  endfacet
  facet normal 0 -1 -0
    outer loop
      vertex 14 0 10
      vertex 12 0 7
      vertex 14 0 7
    endloop
  endfacet
  facet normal 0 -1 0
    outer loop
      vertex 16 0 7
      vertex 18.1716 0 10
      vertex 16 0 10
    endloop
  endfacet
  facet normal 0 -1 -0
    outer loop
      vertex 18.1716 0 10
      vertex 16 0 7
      vertex 20 0 8.70711
    endloop
  endfacet
  facet normal 0 -1 0
    outer loop
      vertex 14 0 7
      vertex 20 0 0
      vertex 16 0 7
    endloop
  endfacet
  facet normal 0 -1 0
    outer loop
      vertex 16 0 7
      vertex 20 0 0
      vertex 20 0 8.70711
    endloop
  endfacet
  facet normal 1 -0 0
    outer loop
      vertex 10 0 10
      vertex 10 3 7
      vertex 10 3 10
    endloop
  endfacet
  facet normal 1 0 0
    outer loop
      vertex 10 3 7
      vertex 10 0 10
      vertex 10 0 7
    endloop
  endfacet
  facet normal -1 0 0
    outer loop
      vertex 12 0 7
      vertex 12 3 10
      vertex 12 3 7
    endloop
  endfacet
  facet normal -1 -0 0
    outer loop
      vertex 12 3 10
      vertex 12 0 7
      vertex 12 0 10
    endloop
  endfacet
  facet normal 0 -1 0
    outer loop
      vertex 10 3 7
      vertex 12 3 10
      vertex 10 3 10
    endloop
  endfacet
  facet normal 0 -1 -0
    outer loop
      vertex 12 3 10
      vertex 10 3 7
      vertex 12 3 7
    endloop
  endfacet
  facet normal -0 0 1
    outer loop
      vertex 10 3 7
      vertex 12 0 7
      vertex 12 3 7
    endloop
  endfacet
  facet normal 0 0 1
    outer loop
      vertex 12 0 7
      vertex 10 3 7
      vertex 10 0 7
    endloop
  endfacet
  facet normal 1 -0 0
    outer loop
      vertex 14 0 10
      vertex 14 3 7
      vertex 14 3 10
    endloop
  endfacet
  facet normal 1 0 0
    outer loop
      vertex 14 3 7
      vertex 14 0 10
      vertex 14 0 7
    endloop
  endfacet
  facet normal -1 0 0
    outer loop
      vertex 16 0 7
      vertex 16 3 10
      vertex 16 3 7
    endloop
  endfacet
  facet normal -1 -0 0
    outer loop
      vertex 16 3 10
      vertex 16 0 7
      vertex 16 0 10
    endloop
  endfacet
  facet normal -0 0 1
    outer loop
      vertex 14 3 7
      vertex 16 0 7
      vertex 16 3 7
    endloop
  endfacet
  facet normal 0 0 1
    outer loop
      vertex 16 0 7
      vertex 14 3 7
      vertex 14 0 7
    endloop
  endfacet
  facet normal 0 -1 0
    outer loop
      vertex 14 3 7
      vertex 16 3 10
      vertex 14 3 10
    endloop
  endfacet
  facet normal 0 -1 -0
    outer loop
      vertex 16 3 10
      vertex 14 3 7
      vertex 16 3 7
    endloop
  endfacet
  facet normal 0.5 -0.5 0.707107
    outer loop
      vertex 20 0 8.70711
      vertex 20 1.82843 10
      vertex 18.1716 0 10
    endloop
  endfacet
  facet normal -1 0 0
    outer loop
      vertex 5 10 10
      vertex 5 15 23
      vertex 5 15 10
    endloop
  endfacet
  facet normal -1 -0 0
    outer loop
      vertex 5 15 23
      vertex 5 10 10
      vertex 5 10 23
    endloop
  endfacet
  facet normal -0 0 1
    outer loop
      vertex 8 10 23
      vertex 15 6.65685 23
      vertex 15 15 23
    endloop
  endfacet
  facet normal 0 0 1
    outer loop
      vertex 15 6.65685 23
      vertex 8 10 23
      vertex 13.3431 5 23
    endloop
  endfacet
  facet normal -0 0 1
    outer loop
      vertex 5 15 23
      vertex 8 10 23
      vertex 15 15 23
    endloop
  endfacet
  facet normal 0 0 1
    outer loop
      vertex 8 10 23
      vertex 5 15 23
      vertex 5 10 23
    endloop
  endfacet
  facet normal 0 0 1
    outer loop
      vertex 13.3431 5 23
      vertex 8 10 23
      vertex 8 5 23
    endloop
  endfacet
  facet normal 1 -0 0
    outer loop
      vertex 15 6.65685 23
      vertex 15 15 17
      vertex 15 15 23
    endloop
  endfacet
  facet normal 1 0 0
    outer loop
      vertex 15 5 17
      vertex 15 6.65685 23
      vertex 15 5 21.8284
    endloop
  endfacet
  facet normal 1 0 0
    outer loop
      vertex 15 6.65685 23
      vertex 15 5 17
      vertex 15 15 17
    endloop
  endfacet
  facet normal 1 -0 0
    outer loop
      vertex 15 5 12
      vertex 15 15 10
      vertex 15 15 12
    endloop
  endfacet
  facet normal 1 0 0
    outer loop
      vertex 15 15 10
      vertex 15 5 12
      vertex 15 5 10
    endloop
  endfacet
  facet normal 0 1 0
    outer loop
      vertex 15 15 12
      vertex 15 15 10
      vertex 13 15 12
    endloop
  endfacet
  facet normal 0 1 0
    outer loop
      vertex 13 15 17
      vertex 15 15 23
      vertex 15 15 17
    endloop
  endfacet
  facet normal 0 1 0
    outer loop
      vertex 15 15 23
      vertex 13 15 17
      vertex 5 15 23
    endloop
  endfacet
  facet normal 0 1 0
    outer loop
      vertex 5 15 10
      vertex 13 15 17
      vertex 13 15 12
    endloop
  endfacet
  facet normal 0 1 0
    outer loop
      vertex 13 15 17
      vertex 5 15 10
      vertex 5 15 23
    endloop
  endfacet
  facet normal 0 1 0
    outer loop
      vertex 5 15 10
      vertex 13 15 12
      vertex 15 15 10
    endloop
  endfacet
  facet normal 0 -1 0
    outer loop
      vertex 13 5 17
      vertex 13.3431 5 23
      vertex 8 5 23
    endloop
  endfacet
  facet normal 0 -1 -0
    outer loop
      vertex 13.3431 5 23
      vertex 13 5 17
      vertex 15 5 21.8284
    endloop
  endfacet
  facet normal 0 -1 0
    outer loop
      vertex 8 5 10
      vertex 13 5 17
      vertex 8 5 23
    endloop
  endfacet
  facet normal 0 -1 -0
    outer loop
      vertex 13 5 17
      vertex 8 5 10
      vertex 13 5 12
    endloop
  endfacet
  facet normal 0 -1 0
    outer loop
      vertex 15 5 10
      vertex 13 5 12
      vertex 8 5 10
    endloop
  endfacet
  facet normal 0 -1 0
    outer loop
      vertex 13 5 12
      vertex 15 5 10
      vertex 15 5 12
    endloop
  endfacet
  facet normal 0 -1 -0
    outer loop
      vertex 15 5 21.8284
      vertex 13 5 17
      vertex 15 5 17
    endloop
  endfacet
  facet normal 0.5 -0.5 0.707107
    outer loop
      vertex 15 5 21.8284
      vertex 15 6.65685 23
      vertex 13.3431 5 23
    endloop
  endfacet
  facet normal 1 -0 0
    outer loop
      vertex 13 5 17
      vertex 13 15 12
      vertex 13 15 17
    endloop
  endfacet
  facet normal 1 0 0
    outer loop
      vertex 13 15 12
      vertex 13 5 17
      vertex 13 5 12
    endloop
  endfacet
  facet normal 0 0 -1
    outer loop
      vertex 13 5 17
      vertex 15 15 17
      vertex 15 5 17
    endloop
  endfacet
  facet normal -0 0 -1
    outer loop
      vertex 15 15 17
      vertex 13 5 17
      vertex 13 15 17
    endloop
  endfacet
  facet normal -0 0 1
    outer loop
      vertex 13 15 12
      vertex 15 5 12
      vertex 15 15 12
    endloop
  endfacet
  facet normal 0 0 1
    outer loop
      vertex 15 5 12
      vertex 13 15 12
      vertex 13 5 12
    endloop
  endfacet
  facet normal -1 0 0
    outer loop
      vertex 8 5 10
      vertex 8 10 23
      vertex 8 10 10
    endloop
  endfacet
  facet normal -1 -0 0
    outer loop
      vertex 8 10 23
      vertex 8 5 10
      vertex 8 5 23
    endloop
  endfacet
  facet normal 0 -1 0
    outer loop
      vertex 5 10 10
      vertex 8 10 23
      vertex 5 10 23
    endloop
  endfacet
  facet normal 0 -1 -0
    outer loop
      vertex 8 10 23
      vertex 5 10 10
      vertex 8 10 10
    endloop
  endfacet
  facet normal 0 0 1
    outer loop
      vertex 7 9 28
      vertex 4 0 28
      vertex 7 -3 28
    endloop
  endfacet
  facet normal 0 0 1
    outer loop
      vertex 7 9 28
      vertex 3 0 28
      vertex 4 0 28
    endloop
  endfacet
  facet normal -0 0 1
    outer loop
      vertex 0 9 28
      vertex 3 0 28
      vertex 7 9 28
    endloop
  endfacet
  facet normal 0 0 1
    outer loop
      vertex 0 -3 28
      vertex 3 0 28
      vertex 0 9 28
    endloop
  endfacet
  facet normal 0 0 1
    outer loop
      vertex 3 0 28
      vertex 0 -3 28
      vertex 3 -3 28
    endloop
  endfacet
  facet normal 0 0 1
    outer loop
      vertex 7 -3 28
      vertex 4 0 28
      vertex 4 -3 28
    endloop
  endfacet
  facet normal 1 -0 0
    outer loop
      vertex 7 -3 28
      vertex 7 9 19
      vertex 7 9 28
    endloop
  endfacet
  facet normal 1 0 0
    outer loop
      vertex 7 9 19
      vertex 7 -3 28
      vertex 7 -3 19
    endloop
  endfacet
  facet normal 0 -1 0
    outer loop
      vertex 0 -3 28
      vertex 3 -3 25
      vertex 3 -3 28
    endloop
  endfacet
  facet normal 0 -1 0
    outer loop
      vertex 3 -3 25
      vertex 5 -3 19
      vertex 4 -3 25
    endloop
  endfacet
  facet normal 0 -1 0
    outer loop
      vertex 0 -3 28
      vertex 5 -3 19
      vertex 3 -3 25
    endloop
  endfacet
  facet normal 0 -1 0
    outer loop
      vertex 0 -3 7
      vertex 5 -3 19
      vertex 0 -3 28
    endloop
  endfacet
  facet normal 0 -1 0
    outer loop
      vertex 1.5 -3 7
      vertex 5 -3 19
      vertex 0 -3 7
    endloop
  endfacet
  facet normal 0 -1 0
    outer loop
      vertex 5 -3 0
      vertex 1.5 -3 7
      vertex 1.5 -3 0
    endloop
  endfacet
  facet normal 0 -1 0
    outer loop
      vertex 1.5 -3 7
      vertex 5 -3 0
      vertex 5 -3 19
    endloop
  endfacet
  facet normal 0 -1 0
    outer loop
      vertex 4 -3 25
      vertex 7 -3 28
      vertex 4 -3 28
    endloop
  endfacet
  facet normal 0 -1 0
    outer loop
      vertex 7 -3 19
      vertex 4 -3 25
      vertex 5 -3 19
    endloop
  endfacet
  facet normal 0 -1 0
    outer loop
      vertex 4 -3 25
      vertex 7 -3 19
      vertex 7 -3 28
    endloop
  endfacet
  facet normal 0 1 0
    outer loop
      vertex 5 9 19
      vertex 7 9 28
      vertex 7 9 19
    endloop
  endfacet
  facet normal 0 1 0
    outer loop
      vertex 7 9 28
      vertex 5 9 19
      vertex 0 9 28
    endloop
  endfacet
  facet normal 0 1 0
    outer loop
      vertex 0 9 10
      vertex 5 9 19
      vertex 5 9 10
    endloop
  endfacet
  facet normal 0 1 0
    outer loop
      vertex 5 9 19
      vertex 0 9 10
      vertex 0 9 28
    endloop
  endfacet
  facet normal 1 0 0
    outer loop
      vertex 5 9 19
      vertex 5 0 10
      vertex 5 9 10
    endloop
  endfacet
  facet normal 1 -0 0
    outer loop
      vertex 5 -3 19
      vertex 5 0 10
      vertex 5 9 19
    endloop
  endfacet
  facet normal 1 0 0
    outer loop
      vertex 5 -3 0
      vertex 5 0 10
      vertex 5 -3 19
    endloop
  endfacet
  facet normal 1 0 0
    outer loop
      vertex 5 0 10
      vertex 5 -3 0
      vertex 5 0 0
    endloop
  endfacet
  facet normal 0 0 -1
    outer loop
      vertex 5 -3 19
      vertex 7 9 19
      vertex 7 -3 19
    endloop
  endfacet
  facet normal -0 0 -1
    outer loop
      vertex 7 9 19
      vertex 5 -3 19
      vertex 5 9 19
    endloop
  endfacet
  facet normal 1 -0 0
    outer loop
      vertex 3 -3 28
      vertex 3 0 25
      vertex 3 0 28
    endloop
  endfacet
  facet normal 1 0 0
    outer loop
      vertex 3 0 25
      vertex 3 -3 28
      vertex 3 -3 25
    endloop
  endfacet
  facet normal -1 0 0
    outer loop
      vertex 4 -3 25
      vertex 4 0 28
      vertex 4 0 25
    endloop
  endfacet
  facet normal -1 -0 0
    outer loop
      vertex 4 0 28
      vertex 4 -3 25
      vertex 4 -3 28
    endloop
  endfacet
  facet normal 0 -1 0
    outer loop
      vertex 3 0 25
      vertex 4 0 28
      vertex 3 0 28
    endloop
  endfacet
  facet normal 0 -1 -0
    outer loop
      vertex 4 0 28
      vertex 3 0 25
      vertex 4 0 25
    endloop
  endfacet
  facet normal -0 0 1
    outer loop
      vertex 3 0 25
      vertex 4 -3 25
      vertex 4 0 25
    endloop
  endfacet
  facet normal 0 0 1
    outer loop
      vertex 4 -3 25
      vertex 3 0 25
      vertex 3 -3 25
    endloop
  endfacet
  facet normal 0 0 -1
    outer loop
      vertex 0 -3 7
      vertex 1.5 15 7
      vertex 1.5 -3 7
    endloop
  endfacet
  facet normal -0 0 -1
    outer loop
      vertex 1.5 15 7
      vertex 0 -3 7
      vertex 0 15 7
    endloop
  endfacet
  facet normal -1 0 0
    outer loop
      vertex 1.5 -3 0
      vertex 1.5 15 7
      vertex 1.5 15 0
    endloop
  endfacet
  facet normal -1 -0 0
    outer loop
      vertex 1.5 15 7
      vertex 1.5 -3 0
      vertex 1.5 -3 7
    endloop
  endfacet
  facet normal 0 -1 0
    outer loop
      vertex 0 15 0
      vertex 1.5 15 7
      vertex 0 15 7
    endloop
  endfacet
  facet normal 0 -1 -0
    outer loop
      vertex 1.5 15 7
      vertex 0 15 0
      vertex 1.5 15 0
    endloop
  endfacet
endsolid OpenSCAD_Model
