solid OpenSCAD_Model
  facet normal 0 0 -1
    outer loop
      vertex -7 0 0
      vertex -6.8655 1.36563 0
      vertex -6.8655 -1.36563 0
    endloop
  endfacet
  facet normal 0 0 -1
    outer loop
      vertex -6.8655 -1.36563 0
      vertex -6.8655 1.36563 0
      vertex -6.46716 2.67878 0
    endloop
  endfacet
  facet normal 0 0 -1
    outer loop
      vertex -6.8655 -1.36563 0
      vertex -6.46716 2.67878 0
      vertex -5.82029 3.88899 0
    endloop
  endfacet
  facet normal 0 0 -1
    outer loop
      vertex -6.8655 -1.36563 0
      vertex -5.82029 3.88899 0
      vertex -4.94975 4.94975 0
    endloop
  endfacet
  facet normal 0 0 -1
    outer loop
      vertex -6.8655 -1.36563 0
      vertex -4.94975 4.94975 0
      vertex -3.88899 5.82029 0
    endloop
  endfacet
  facet normal 0 0 -1
    outer loop
      vertex -6.8655 -1.36563 0
      vertex -3.88899 5.82029 0
      vertex -2.67878 6.46716 0
    endloop
  endfacet
  facet normal 0 0 -1
    outer loop
      vertex -6.8655 -1.36563 0
      vertex -2.67878 6.46716 0
      vertex -1.36563 6.8655 0
    endloop
  endfacet
  facet normal 0 0 -1
    outer loop
      vertex -6.8655 -1.36563 0
      vertex -1.36563 6.8655 0
      vertex 0 7 0
    endloop
  endfacet
  facet normal 0 0 -1
    outer loop
      vertex -6.8655 -1.36563 0
      vertex 0 7 0
      vertex 1.36563 6.8655 0
    endloop
  endfacet
  facet normal 0 0 -1
    outer loop
      vertex -6.8655 -1.36563 0
      vertex 1.36563 6.8655 0
      vertex 2.67878 6.46716 0
    endloop
  endfacet
  facet normal 0 0 -1
    outer loop
      vertex -6.8655 -1.36563 0
      vertex 2.67878 6.46716 0
      vertex 3.88899 5.82029 0
    endloop
  endfacet
  facet normal 0 0 -1
    outer loop
      vertex -6.8655 -1.36563 0
      vertex 3.88899 5.82029 0
      vertex 4.94975 4.94975 0
    endloop
  endfacet
  facet normal 0 0 -1
    outer loop
      vertex -6.8655 -1.36563 0
      vertex 4.94975 4.94975 0
      vertex 5.82029 3.88899 0
    endloop
  endfacet
  facet normal 0 0 -1
    outer loop
      vertex -6.8655 -1.36563 0
      vertex 5.82029 3.88899 0
      vertex 6.46716 2.67878 0
    endloop
  endfacet
  facet normal 0 0 -1
    outer loop
      vertex -6.8655 -1.36563 0
      vertex 6.46716 2.67878 0
      vertex 6.8655 1.36563 0
    endloop
  endfacet
  facet normal 0 0 -1
    outer loop
      vertex -6.8655 -1.36563 0
      vertex 6.8655 1.36563 0
      vertex 7 0 0
    endloop
  endfacet
  facet normal 0 0 -1
    outer loop
      vertex -6.8655 -1.36563 0
      vertex 7 0 0
      vertex 6.8655 -1.36563 0
    endloop
  endfacet
  facet normal 0 0 -1
    outer loop
      vertex -6.8655 -1.36563 0
      vertex 6.8655 -1.36563 0
      vertex 6.46716 -2.67878 0
    endloop
  endfacet
  facet normal 0 0 -1
    outer loop
      vertex -6.8655 -1.36563 0
      vertex 6.46716 -2.67878 0
      vertex 5.82029 -3.88899 0
    endloop
  endfacet
  facet normal 0 0 -1
    outer loop
      vertex -6.8655 -1.36563 0
      vertex 5.82029 -3.88899 0
      vertex 4.94975 -4.94975 0
    endloop
  endfacet
  facet normal 0 0 -1
    outer loop
      vertex -6.8655 -1.36563 0
      vertex 4.94975 -4.94975 0
      vertex 3.88899 -5.82029 0
    endloop
  endfacet
  facet normal 0 0 -1
    outer loop
      vertex -6.8655 -1.36563 0
      vertex 3.88899 -5.82029 0
      vertex 2.67878 -6.46716 0
    endloop
  endfacet
  facet normal 0 0 -1
    outer loop
      vertex -6.8655 -1.36563 0
      vertex 2.67878 -6.46716 0
      vertex 1.36563 -6.8655 0
    endloop
  endfacet
  facet normal 0 0 -1
    outer loop
      vertex -6.8655 -1.36563 0
      vertex 1.36563 -6.8655 0
      vertex 0 -7 0
    endloop
  endfacet
  facet normal 0 0 -1
    outer loop
      vertex -6.8655 -1.36563 0
      vertex 0 -7 0
      vertex -1.36563 -6.8655 0
    endloop
  endfacet
  facet normal 0 0 -1
    outer loop
      vertex -6.8655 -1.36563 0
      vertex -1.36563 -6.8655 0
      vertex -2.67878 -6.46716 0
    endloop
  endfacet
  facet normal 0 0 -1
    outer loop
      vertex -6.8655 -1.36563 0
      vertex -2.67878 -6.46716 0
      vertex -3.88899 -5.82029 0
    endloop
  endfacet
  facet normal 0 0 -1
    outer loop
      vertex -6.8655 -1.36563 0
      vertex -3.88899 -5.82029 0
      vertex -4.94975 -4.94975 0
    endloop
  endfacet
  facet normal 0 0 -1
    outer loop
      vertex -6.8655 -1.36563 0
      vertex -4.94975 -4.94975 0
      vertex -5.82029 -3.88899 0
    endloop
  endfacet
  facet normal 0 0 -1
    outer loop
      vertex -6.8655 -1.36563 0
      vertex -5.82029 -3.88899 0
      vertex -6.46716 -2.67878 0
    endloop
  endfacet
  facet normal -0.995185 0.0980171 0
    outer loop
      vertex -7 0 0
      vertex -7 0 20
      vertex -6.8655 1.36563 0
    endloop
  endfacet
  facet normal -0.995185 0.0980171 0
    outer loop
      vertex -6.8655 1.36563 0
      vertex -7 0 20
      vertex -6.8655 1.36563 20
    endloop
  endfacet
  facet normal -0.995185 -0.0980171 0
    outer loop
      vertex -7 0 0
      vertex -6.8655 -1.36563 0
      vertex -7 0 20
    endloop
  endfacet
  facet normal -0.995185 -0.0980171 0
    outer loop
      vertex -7 0 20
      vertex -6.8655 -1.36563 0
      vertex -6.8655 -1.36563 20
    endloop
  endfacet
  facet normal -0.95694 -0.290284 0
    outer loop
      vertex -6.8655 -1.36563 0
      vertex -6.46716 -2.67878 0
      vertex -6.8655 -1.36563 20
    endloop
  endfacet
  facet normal -0.95694 -0.290284 0
    outer loop
      vertex -6.8655 -1.36563 20
      vertex -6.46716 -2.67878 0
      vertex -6.46716 -2.67878 20
    endloop
  endfacet
  facet normal -0.881921 -0.471397 0
    outer loop
      vertex -6.46716 -2.67878 0
      vertex -5.82029 -3.88899 0
      vertex -6.46716 -2.67878 20
    endloop
  endfacet
  facet normal -0.881921 -0.471397 0
    outer loop
      vertex -6.46716 -2.67878 20
      vertex -5.82029 -3.88899 0
      vertex -5.82029 -3.88899 20
    endloop
  endfacet
  facet normal -0.77301 -0.634394 0
    outer loop
      vertex -5.82029 -3.88899 0
      vertex -4.94975 -4.94975 0
      vertex -5.82029 -3.88899 20
    endloop
  endfacet
  facet normal -0.77301 -0.634394 0
    outer loop
      vertex -5.82029 -3.88899 20
      vertex -4.94975 -4.94975 0
      vertex -4.94975 -4.94975 20
    endloop
  endfacet
  facet normal -0.634394 -0.77301 0
    outer loop
      vertex -4.94975 -4.94975 20
      vertex -4.94975 -4.94975 0
      vertex -3.88899 -5.82029 0
    endloop
  endfacet
  facet normal -0.634394 -0.77301 0
    outer loop
      vertex -3.88899 -5.82029 20
      vertex -4.94975 -4.94975 20
      vertex -3.88899 -5.82029 0
    endloop
  endfacet
  facet normal -0.471397 -0.881921 0
    outer loop
      vertex -3.88899 -5.82029 20
      vertex -3.88899 -5.82029 0
      vertex -2.67878 -6.46716 0
    endloop
  endfacet
  facet normal -0.471397 -0.881921 0
    outer loop
      vertex -2.67878 -6.46716 20
      vertex -3.88899 -5.82029 20
      vertex -2.67878 -6.46716 0
    endloop
  endfacet
  facet normal -0.290284 -0.95694 0
    outer loop
      vertex -2.67878 -6.46716 20
      vertex -2.67878 -6.46716 0
      vertex -1.36563 -6.8655 0
    endloop
  endfacet
  facet normal -0.290284 -0.95694 0
    outer loop
      vertex -1.36563 -6.8655 20
      vertex -2.67878 -6.46716 20
      vertex -1.36563 -6.8655 0
    endloop
  endfacet
  facet normal -0.0980171 -0.995185 0
    outer loop
      vertex -1.36563 -6.8655 20
      vertex -1.36563 -6.8655 0
      vertex 0 -7 0
    endloop
  endfacet
  facet normal -0.0980171 -0.995185 0
    outer loop
      vertex 0 -7 20
      vertex -1.36563 -6.8655 20
      vertex 0 -7 0
    endloop
  endfacet
  facet normal 0.0980171 -0.995185 0
    outer loop
      vertex 0 -7 20
      vertex 0 -7 0
      vertex 1.36563 -6.8655 0
    endloop
  endfacet
  facet normal 0.0980171 -0.995185 0
    outer loop
      vertex 1.36563 -6.8655 20
      vertex 0 -7 20
      vertex 1.36563 -6.8655 0
    endloop
  endfacet
  facet normal 0.290284 -0.95694 0
    outer loop
      vertex 1.36563 -6.8655 20
      vertex 1.36563 -6.8655 0
      vertex 2.67878 -6.46716 0
    endloop
  endfacet
  facet normal 0.290284 -0.95694 0
    outer loop
      vertex 2.67878 -6.46716 20
      vertex 1.36563 -6.8655 20
      vertex 2.67878 -6.46716 0
    endloop
  endfacet
  facet normal 0.471397 -0.881921 0
    outer loop
      vertex 2.67878 -6.46716 20
      vertex 2.67878 -6.46716 0
      vertex 3.88899 -5.82029 0
    endloop
  endfacet
  facet normal 0.471397 -0.881921 0
    outer loop
      vertex 3.88899 -5.82029 20
      vertex 2.67878 -6.46716 20
      vertex 3.88899 -5.82029 0
    endloop
  endfacet
  facet normal 0.634394 -0.77301 0
    outer loop
      vertex 3.88899 -5.82029 20
      vertex 3.88899 -5.82029 0
      vertex 4.94975 -4.94975 0
    endloop
  endfacet
  facet normal 0.634394 -0.77301 0
    outer loop
      vertex 4.94975 -4.94975 20
      vertex 3.88899 -5.82029 20
      vertex 4.94975 -4.94975 0
    endloop
  endfacet
  facet normal 0.77301 -0.634394 0
    outer loop
      vertex 4.94975 -4.94975 20
      vertex 4.94975 -4.94975 0
      vertex 5.82029 -3.88899 0
    endloop
  endfacet
  facet normal 0.77301 -0.634394 0
    outer loop
      vertex 5.82029 -3.88899 20
      vertex 4.94975 -4.94975 20
      vertex 5.82029 -3.88899 0
    endloop
  endfacet
  facet normal 0.881921 -0.471397 0
    outer loop
      vertex 5.82029 -3.88899 20
      vertex 5.82029 -3.88899 0
      vertex 6.46716 -2.67878 0
    endloop
  endfacet
  facet normal 0.881921 -0.471397 0
    outer loop
      vertex 6.46716 -2.67878 20
      vertex 5.82029 -3.88899 20
      vertex 6.46716 -2.67878 0
    endloop
  endfacet
  facet normal 0.95694 -0.290284 0
    outer loop
      vertex 6.46716 -2.67878 20
      vertex 6.46716 -2.67878 0
      vertex 6.8655 -1.36563 0
    endloop
  endfacet
  facet normal 0.95694 -0.290284 0
    outer loop
      vertex 6.8655 -1.36563 20
      vertex 6.46716 -2.67878 20
      vertex 6.8655 -1.36563 0
    endloop
  endfacet
  facet normal 0.995185 -0.0980171 0
    outer loop
      vertex 6.8655 -1.36563 20
      vertex 6.8655 -1.36563 0
      vertex 7 0 0
    endloop
  endfacet
  facet normal 0.995185 -0.0980171 0
    outer loop
      vertex 7 0 20
      vertex 6.8655 -1.36563 20
      vertex 7 0 0
    endloop
  endfacet
  facet normal 0.995185 0.0980171 0
    outer loop
      vertex 7 0 0
      vertex 6.8655 1.36563 0
      vertex 6.8655 1.36563 20
    endloop
  endfacet
  facet normal 0.995185 0.0980171 0
    outer loop
      vertex 7 0 20
      vertex 7 0 0
      vertex 6.8655 1.36563 20
    endloop
  endfacet
  facet normal 0.95694 0.290284 0
    outer loop
      vertex 6.8655 1.36563 0
      vertex 6.46716 2.67878 0
      vertex 6.46716 2.67878 20
    endloop
  endfacet
  facet normal 0.95694 0.290284 0
    outer loop
      vertex 6.8655 1.36563 20
      vertex 6.8655 1.36563 0
      vertex 6.46716 2.67878 20
    endloop
  endfacet
  facet normal 0.881921 0.471397 0
    outer loop
      vertex 6.46716 2.67878 0
      vertex 5.82029 3.88899 0
      vertex 5.82029 3.88899 20
    endloop
  endfacet
  facet normal 0.881921 0.471397 0
    outer loop
      vertex 6.46716 2.67878 20
      vertex 6.46716 2.67878 0
      vertex 5.82029 3.88899 20
    endloop
  endfacet
  facet normal 0.77301 0.634394 0
    outer loop
      vertex 5.82029 3.88899 0
      vertex 4.94975 4.94975 0
      vertex 4.94975 4.94975 20
    endloop
  endfacet
  facet normal 0.77301 0.634394 0
    outer loop
      vertex 5.82029 3.88899 20
      vertex 5.82029 3.88899 0
      vertex 4.94975 4.94975 20
    endloop
  endfacet
  facet normal 0.634394 0.77301 0
    outer loop
      vertex 3.88899 5.82029 0
      vertex 3.88899 5.82029 20
      vertex 4.94975 4.94975 0
    endloop
  endfacet
  facet normal 0.634394 0.77301 0
    outer loop
      vertex 4.94975 4.94975 0
      vertex 3.88899 5.82029 20
      vertex 4.94975 4.94975 20
    endloop
  endfacet
  facet normal 0.471397 0.881921 0
    outer loop
      vertex 2.67878 6.46716 0
      vertex 2.67878 6.46716 20
      vertex 3.88899 5.82029 0
    endloop
  endfacet
  facet normal 0.471397 0.881921 0
    outer loop
      vertex 3.88899 5.82029 0
      vertex 2.67878 6.46716 20
      vertex 3.88899 5.82029 20
    endloop
  endfacet
  facet normal 0.290284 0.95694 0
    outer loop
      vertex 1.36563 6.8655 0
      vertex 1.36563 6.8655 20
      vertex 2.67878 6.46716 0
    endloop
  endfacet
  facet normal 0.290284 0.95694 0
    outer loop
      vertex 2.67878 6.46716 0
      vertex 1.36563 6.8655 20
      vertex 2.67878 6.46716 20
    endloop
  endfacet
  facet normal 0.0980171 0.995185 0
    outer loop
      vertex 0 7 0
      vertex 0 7 20
      vertex 1.36563 6.8655 0
    endloop
  endfacet
  facet normal 0.0980171 0.995185 0
    outer loop
      vertex 1.36563 6.8655 0
      vertex 0 7 20
      vertex 1.36563 6.8655 20
    endloop
  endfacet
  facet normal -0.0980171 0.995185 0
    outer loop
      vertex -1.36563 6.8655 0
      vertex -1.36563 6.8655 20
      vertex 0 7 0
    endloop
  endfacet
  facet normal -0.0980171 0.995185 0
    outer loop
      vertex 0 7 0
      vertex -1.36563 6.8655 20
      vertex 0 7 20
    endloop
  endfacet
  facet normal -0.290284 0.95694 0
    outer loop
      vertex -2.67878 6.46716 0
      vertex -2.67878 6.46716 20
      vertex -1.36563 6.8655 0
    endloop
  endfacet
  facet normal -0.290284 0.95694 0
    outer loop
      vertex -1.36563 6.8655 0
      vertex -2.67878 6.46716 20
      vertex -1.36563 6.8655 20
    endloop
  endfacet
  facet normal -0.471397 0.881921 0
    outer loop
      vertex -3.88899 5.82029 0
      vertex -3.88899 5.82029 20
      vertex -2.67878 6.46716 0
    endloop
  endfacet
  facet normal -0.471397 0.881921 0
    outer loop
      vertex -2.67878 6.46716 0
      vertex -3.88899 5.82029 20
      vertex -2.67878 6.46716 20
    endloop
  endfacet
  facet normal -0.634394 0.77301 0
    outer loop
      vertex -4.94975 4.94975 0
      vertex -4.94975 4.94975 20
      vertex -3.88899 5.82029 0
    endloop
  endfacet
  facet normal -0.634394 0.77301 0
    outer loop
      vertex -3.88899 5.82029 0
      vertex -4.94975 4.94975 20
      vertex -3.88899 5.82029 20
    endloop
  endfacet
  facet normal -0.77301 0.634394 0
    outer loop
      vertex -5.82029 3.88899 0
      vertex -5.82029 3.88899 20
      vertex -4.94975 4.94975 0
    endloop
  endfacet
  facet normal -0.77301 0.634394 0
    outer loop
      vertex -4.94975 4.94975 0
      vertex -5.82029 3.88899 20
      vertex -4.94975 4.94975 20
    endloop
  endfacet
  facet normal -0.881921 0.471397 0
    outer loop
      vertex -6.46716 2.67878 0
      vertex -6.46716 2.67878 20
      vertex -5.82029 3.88899 0
    endloop
  endfacet
  facet normal -0.881921 0.471397 0
    outer loop
      vertex -5.82029 3.88899 0
      vertex -6.46716 2.67878 20
      vertex -5.82029 3.88899 20
    endloop
  endfacet
  facet normal -0.95694 0.290284 0
    outer loop
      vertex -6.8655 1.36563 0
      vertex -6.8655 1.36563 20
      vertex -6.46716 2.67878 0
    endloop
  endfacet
  facet normal -0.95694 0.290284 0
    outer loop
      vertex -6.46716 2.67878 0
      vertex -6.8655 1.36563 20
      vertex -6.46716 2.67878 20
    endloop
  endfacet
  facet normal 0 0 1
    outer loop
      vertex -6.8655 1.36563 20
      vertex -7 0 20
      vertex -6.8655 -1.36563 20
    endloop
  endfacet
  facet normal 0 0 1
    outer loop
      vertex -5.82029 -3.88899 20
      vertex -6.8655 1.36563 20
      vertex -6.46716 -2.67878 20
    endloop
  endfacet
  facet normal 0 0 1
    outer loop
      vertex -6.46716 -2.67878 20
      vertex -6.8655 1.36563 20
      vertex -6.8655 -1.36563 20
    endloop
  endfacet
  facet normal 0 0 1
    outer loop
      vertex -4.94975 -4.94975 20
      vertex -6.8655 1.36563 20
      vertex -5.82029 -3.88899 20
    endloop
  endfacet
  facet normal 0 0 1
    outer loop
      vertex -3.88899 -5.82029 20
      vertex -6.8655 1.36563 20
      vertex -4.94975 -4.94975 20
    endloop
  endfacet
  facet normal 0 0 1
    outer loop
      vertex -2.67878 -6.46716 20
      vertex -6.8655 1.36563 20
      vertex -3.88899 -5.82029 20
    endloop
  endfacet
  facet normal 0 0 1
    outer loop
      vertex -1.36563 -6.8655 20
      vertex -6.8655 1.36563 20
      vertex -2.67878 -6.46716 20
    endloop
  endfacet
  facet normal 0 0 1
    outer loop
      vertex 0 -7 20
      vertex -6.8655 1.36563 20
      vertex -1.36563 -6.8655 20
    endloop
  endfacet
  facet normal 0 0 1
    outer loop
      vertex -2.82843 -2.82843 20
      vertex -6.8655 1.36563 20
      vertex 0 -7 20
    endloop
  endfacet
  facet normal 0 0 1
    outer loop
      vertex 2.22228 -3.32588 20
      vertex 1.53073 -3.69552 20
      vertex 4.94975 -4.94975 20
    endloop
  endfacet
  facet normal 0 0 1
    outer loop
      vertex 3.69552 1.53073 20
      vertex 3.92314 0.780361 20
      vertex 6.8655 1.36563 20
    endloop
  endfacet
  facet normal 0 0 1
    outer loop
      vertex -0.780361 3.92314 20
      vertex 0 4 20
      vertex 3.88899 5.82029 20
    endloop
  endfacet
  facet normal 0 0 1
    outer loop
      vertex 2.22228 3.32588 20
      vertex 2.82843 2.82843 20
      vertex 5.82029 3.88899 20
    endloop
  endfacet
  facet normal 0 0 1
    outer loop
      vertex 1.36563 6.8655 20
      vertex -6.8655 1.36563 20
      vertex 2.67878 6.46716 20
    endloop
  endfacet
  facet normal 0 0 1
    outer loop
      vertex 0 7 20
      vertex -6.8655 1.36563 20
      vertex 1.36563 6.8655 20
    endloop
  endfacet
  facet normal 0 0 1
    outer loop
      vertex -1.36563 6.8655 20
      vertex -6.8655 1.36563 20
      vertex 0 7 20
    endloop
  endfacet
  facet normal 0 0 1
    outer loop
      vertex -2.67878 6.46716 20
      vertex -6.8655 1.36563 20
      vertex -1.36563 6.8655 20
    endloop
  endfacet
  facet normal 0 0 1
    outer loop
      vertex -3.88899 5.82029 20
      vertex -6.8655 1.36563 20
      vertex -2.67878 6.46716 20
    endloop
  endfacet
  facet normal 0 0 1
    outer loop
      vertex -4.94975 4.94975 20
      vertex -6.8655 1.36563 20
      vertex -3.88899 5.82029 20
    endloop
  endfacet
  facet normal 0 0 1
    outer loop
      vertex -5.82029 3.88899 20
      vertex -6.8655 1.36563 20
      vertex -4.94975 4.94975 20
    endloop
  endfacet
  facet normal 0 0 1
    outer loop
      vertex -6.46716 2.67878 20
      vertex -6.8655 1.36563 20
      vertex -5.82029 3.88899 20
    endloop
  endfacet
  facet normal 0 0 1
    outer loop
      vertex -1.53073 -3.69552 20
      vertex -2.22228 -3.32588 20
      vertex 1.36563 -6.8655 20
    endloop
  endfacet
  facet normal 0 0 1
    outer loop
      vertex -4 0 20
      vertex -3.92314 0.780361 20
      vertex -6.8655 1.36563 20
    endloop
  endfacet
  facet normal 0 0 1
    outer loop
      vertex 3.92314 0.780361 20
      vertex 4 0 20
      vertex 7 0 20
    endloop
  endfacet
  facet normal 0 0 1
    outer loop
      vertex -2.82843 2.82843 20
      vertex -2.22228 3.32588 20
      vertex -6.8655 1.36563 20
    endloop
  endfacet
  facet normal 0 0 1
    outer loop
      vertex 2.82843 2.82843 20
      vertex 3.32588 2.22228 20
      vertex 6.46716 2.67878 20
    endloop
  endfacet
  facet normal 0 0 1
    outer loop
      vertex 0.780361 3.92314 20
      vertex 1.53073 3.69552 20
      vertex 4.94975 4.94975 20
    endloop
  endfacet
  facet normal 0 0 1
    outer loop
      vertex 2.67878 6.46716 20
      vertex -6.8655 1.36563 20
      vertex -2.22228 3.32588 20
    endloop
  endfacet
  facet normal 0 0 1
    outer loop
      vertex 2.67878 6.46716 20
      vertex -1.53073 3.69552 20
      vertex 3.88899 5.82029 20
    endloop
  endfacet
  facet normal 0 0 1
    outer loop
      vertex 2.67878 6.46716 20
      vertex -2.22228 3.32588 20
      vertex -1.53073 3.69552 20
    endloop
  endfacet
  facet normal 0 0 1
    outer loop
      vertex -1.53073 3.69552 20
      vertex -0.780361 3.92314 20
      vertex 3.88899 5.82029 20
    endloop
  endfacet
  facet normal 0 0 1
    outer loop
      vertex 3.88899 5.82029 20
      vertex 0 4 20
      vertex 4.94975 4.94975 20
    endloop
  endfacet
  facet normal 0 0 1
    outer loop
      vertex 0 4 20
      vertex 0.780361 3.92314 20
      vertex 4.94975 4.94975 20
    endloop
  endfacet
  facet normal 0 0 1
    outer loop
      vertex 4.94975 4.94975 20
      vertex 1.53073 3.69552 20
      vertex 5.82029 3.88899 20
    endloop
  endfacet
  facet normal 0 0 1
    outer loop
      vertex 1.53073 3.69552 20
      vertex 2.22228 3.32588 20
      vertex 5.82029 3.88899 20
    endloop
  endfacet
  facet normal 0 0 1
    outer loop
      vertex 5.82029 3.88899 20
      vertex 2.82843 2.82843 20
      vertex 6.46716 2.67878 20
    endloop
  endfacet
  facet normal 0 0 1
    outer loop
      vertex -3.32588 2.22228 20
      vertex -2.82843 2.82843 20
      vertex -6.8655 1.36563 20
    endloop
  endfacet
  facet normal 0 0 1
    outer loop
      vertex 6.46716 2.67878 20
      vertex 3.32588 2.22228 20
      vertex 6.8655 1.36563 20
    endloop
  endfacet
  facet normal 0 0 1
    outer loop
      vertex 3.32588 2.22228 20
      vertex 3.69552 1.53073 20
      vertex 6.8655 1.36563 20
    endloop
  endfacet
  facet normal 0 0 1
    outer loop
      vertex 6.8655 1.36563 20
      vertex 3.92314 0.780361 20
      vertex 7 0 20
    endloop
  endfacet
  facet normal 0 0 1
    outer loop
      vertex 3.32588 -2.22228 20
      vertex 2.82843 -2.82843 20
      vertex 5.82029 -3.88899 20
    endloop
  endfacet
  facet normal 0 0 1
    outer loop
      vertex 7 0 20
      vertex 4 0 20
      vertex 6.8655 -1.36563 20
    endloop
  endfacet
  facet normal 0 0 1
    outer loop
      vertex -3.69552 1.53073 20
      vertex -3.32588 2.22228 20
      vertex -6.8655 1.36563 20
    endloop
  endfacet
  facet normal 0 0 1
    outer loop
      vertex 4 0 20
      vertex 3.92314 -0.780361 20
      vertex 6.8655 -1.36563 20
    endloop
  endfacet
  facet normal 0 0 1
    outer loop
      vertex 6.8655 -1.36563 20
      vertex 3.69552 -1.53073 20
      vertex 6.46716 -2.67878 20
    endloop
  endfacet
  facet normal 0 0 1
    outer loop
      vertex 6.46716 -2.67878 20
      vertex 3.32588 -2.22228 20
      vertex 5.82029 -3.88899 20
    endloop
  endfacet
  facet normal 0 0 1
    outer loop
      vertex 3.92314 -0.780361 20
      vertex 3.69552 -1.53073 20
      vertex 6.8655 -1.36563 20
    endloop
  endfacet
  facet normal 0 0 1
    outer loop
      vertex 5.82029 -3.88899 20
      vertex 2.82843 -2.82843 20
      vertex 4.94975 -4.94975 20
    endloop
  endfacet
  facet normal 0 0 1
    outer loop
      vertex 2.82843 -2.82843 20
      vertex 2.22228 -3.32588 20
      vertex 4.94975 -4.94975 20
    endloop
  endfacet
  facet normal 0 0 1
    outer loop
      vertex 4.94975 -4.94975 20
      vertex 1.53073 -3.69552 20
      vertex 3.88899 -5.82029 20
    endloop
  endfacet
  facet normal 0 0 1
    outer loop
      vertex 1.53073 -3.69552 20
      vertex 0.780361 -3.92314 20
      vertex 3.88899 -5.82029 20
    endloop
  endfacet
  facet normal 0 0 1
    outer loop
      vertex 3.88899 -5.82029 20
      vertex 0.780361 -3.92314 20
      vertex 2.67878 -6.46716 20
    endloop
  endfacet
  facet normal 0 0 1
    outer loop
      vertex 0.780361 -3.92314 20
      vertex 0 -4 20
      vertex 2.67878 -6.46716 20
    endloop
  endfacet
  facet normal 0 0 1
    outer loop
      vertex 2.67878 -6.46716 20
      vertex -0.780361 -3.92314 20
      vertex 1.36563 -6.8655 20
    endloop
  endfacet
  facet normal 0 0 1
    outer loop
      vertex -3.32588 -2.22228 20
      vertex -3.69552 -1.53073 20
      vertex -6.8655 1.36563 20
    endloop
  endfacet
  facet normal 0 0 1
    outer loop
      vertex -0.780361 -3.92314 20
      vertex -1.53073 -3.69552 20
      vertex 1.36563 -6.8655 20
    endloop
  endfacet
  facet normal 0 0 1
    outer loop
      vertex 1.36563 -6.8655 20
      vertex -2.22228 -3.32588 20
      vertex 0 -7 20
    endloop
  endfacet
  facet normal 0 0 1
    outer loop
      vertex -2.22228 -3.32588 20
      vertex -2.82843 -2.82843 20
      vertex 0 -7 20
    endloop
  endfacet
  facet normal 0 0 1
    outer loop
      vertex -3.32588 -2.22228 20
      vertex -6.8655 1.36563 20
      vertex -2.82843 -2.82843 20
    endloop
  endfacet
  facet normal 0 0 1
    outer loop
      vertex 0 -4 20
      vertex -0.780361 -3.92314 20
      vertex 2.67878 -6.46716 20
    endloop
  endfacet
  facet normal 0 0 1
    outer loop
      vertex -3.69552 -1.53073 20
      vertex -3.92314 -0.780361 20
      vertex -6.8655 1.36563 20
    endloop
  endfacet
  facet normal 0 0 1
    outer loop
      vertex -3.92314 -0.780361 20
      vertex -4 0 20
      vertex -6.8655 1.36563 20
    endloop
  endfacet
  facet normal 0 0 1
    outer loop
      vertex 3.69552 -1.53073 20
      vertex 3.32588 -2.22228 20
      vertex 6.46716 -2.67878 20
    endloop
  endfacet
  facet normal 0 0 1
    outer loop
      vertex -3.92314 0.780361 20
      vertex -3.69552 1.53073 20
      vertex -6.8655 1.36563 20
    endloop
  endfacet
  facet normal -0.995185 -0.0980173 0
    outer loop
      vertex -4 0 20
      vertex -3.92314 -0.780361 20
      vertex -4 0 25
    endloop
  endfacet
  facet normal -0.995185 -0.0980173 0
    outer loop
      vertex -4 0 25
      vertex -3.92314 -0.780361 20
      vertex -3.92314 -0.780361 25
    endloop
  endfacet
  facet normal -0.95694 -0.290284 0
    outer loop
      vertex -3.92314 -0.780361 20
      vertex -3.69552 -1.53073 20
      vertex -3.92314 -0.780361 25
    endloop
  endfacet
  facet normal -0.95694 -0.290284 0
    outer loop
      vertex -3.92314 -0.780361 25
      vertex -3.69552 -1.53073 20
      vertex -3.69552 -1.53073 25
    endloop
  endfacet
  facet normal -0.881921 -0.471397 0
    outer loop
      vertex -3.69552 -1.53073 20
      vertex -3.32588 -2.22228 20
      vertex -3.69552 -1.53073 25
    endloop
  endfacet
  facet normal -0.881921 -0.471397 0
    outer loop
      vertex -3.69552 -1.53073 25
      vertex -3.32588 -2.22228 20
      vertex -3.32588 -2.22228 25
    endloop
  endfacet
  facet normal -0.773011 -0.634393 0
    outer loop
      vertex -3.32588 -2.22228 20
      vertex -2.82843 -2.82843 20
      vertex -3.32588 -2.22228 25
    endloop
  endfacet
  facet normal -0.773011 -0.634393 0
    outer loop
      vertex -3.32588 -2.22228 25
      vertex -2.82843 -2.82843 20
      vertex -2.82843 -2.82843 25
    endloop
  endfacet
  facet normal -0.634393 -0.773011 0
    outer loop
      vertex -2.82843 -2.82843 25
      vertex -2.82843 -2.82843 20
      vertex -2.22228 -3.32588 20
    endloop
  endfacet
  facet normal -0.634393 -0.773011 0
    outer loop
      vertex -2.22228 -3.32588 25
      vertex -2.82843 -2.82843 25
      vertex -2.22228 -3.32588 20
    endloop
  endfacet
  facet normal -0.471397 -0.881921 0
    outer loop
      vertex -2.22228 -3.32588 25
      vertex -2.22228 -3.32588 20
      vertex -1.53073 -3.69552 20
    endloop
  endfacet
  facet normal -0.471397 -0.881921 0
    outer loop
      vertex -1.53073 -3.69552 25
      vertex -2.22228 -3.32588 25
      vertex -1.53073 -3.69552 20
    endloop
  endfacet
  facet normal -0.290284 -0.95694 0
    outer loop
      vertex -1.53073 -3.69552 25
      vertex -1.53073 -3.69552 20
      vertex -0.780361 -3.92314 20
    endloop
  endfacet
  facet normal -0.290284 -0.95694 0
    outer loop
      vertex -0.780361 -3.92314 25
      vertex -1.53073 -3.69552 25
      vertex -0.780361 -3.92314 20
    endloop
  endfacet
  facet normal -0.0980173 -0.995185 0
    outer loop
      vertex -0.780361 -3.92314 25
      vertex -0.780361 -3.92314 20
      vertex 0 -4 20
    endloop
  endfacet
  facet normal -0.0980173 -0.995185 0
    outer loop
      vertex 0 -4 25
      vertex -0.780361 -3.92314 25
      vertex 0 -4 20
    endloop
  endfacet
  facet normal 0.0980173 -0.995185 0
    outer loop
      vertex 0 -4 25
      vertex 0 -4 20
      vertex 0.780361 -3.92314 20
    endloop
  endfacet
  facet normal 0.0980173 -0.995185 0
    outer loop
      vertex 0.780361 -3.92314 25
      vertex 0 -4 25
      vertex 0.780361 -3.92314 20
    endloop
  endfacet
  facet normal 0.290284 -0.95694 0
    outer loop
      vertex 0.780361 -3.92314 25
      vertex 0.780361 -3.92314 20
      vertex 1.53073 -3.69552 20
    endloop
  endfacet
  facet normal 0.290284 -0.95694 0
    outer loop
      vertex 1.53073 -3.69552 25
      vertex 0.780361 -3.92314 25
      vertex 1.53073 -3.69552 20
    endloop
  endfacet
  facet normal 0.471397 -0.881921 0
    outer loop
      vertex 1.53073 -3.69552 25
      vertex 1.53073 -3.69552 20
      vertex 2.22228 -3.32588 20
    endloop
  endfacet
  facet normal 0.471397 -0.881921 0
    outer loop
      vertex 2.22228 -3.32588 25
      vertex 1.53073 -3.69552 25
      vertex 2.22228 -3.32588 20
    endloop
  endfacet
  facet normal 0.634393 -0.773011 0
    outer loop
      vertex 2.22228 -3.32588 25
      vertex 2.22228 -3.32588 20
      vertex 2.82843 -2.82843 20
    endloop
  endfacet
  facet normal 0.634393 -0.773011 0
    outer loop
      vertex 2.82843 -2.82843 25
      vertex 2.22228 -3.32588 25
      vertex 2.82843 -2.82843 20
    endloop
  endfacet
  facet normal 0.773011 -0.634393 0
    outer loop
      vertex 2.82843 -2.82843 25
      vertex 2.82843 -2.82843 20
      vertex 3.32588 -2.22228 20
    endloop
  endfacet
  facet normal 0.773011 -0.634393 0
    outer loop
      vertex 3.32588 -2.22228 25
      vertex 2.82843 -2.82843 25
      vertex 3.32588 -2.22228 20
    endloop
  endfacet
  facet normal 0.881921 -0.471397 0
    outer loop
      vertex 3.32588 -2.22228 25
      vertex 3.32588 -2.22228 20
      vertex 3.69552 -1.53073 20
    endloop
  endfacet
  facet normal 0.881921 -0.471397 0
    outer loop
      vertex 3.69552 -1.53073 25
      vertex 3.32588 -2.22228 25
      vertex 3.69552 -1.53073 20
    endloop
  endfacet
  facet normal 0.95694 -0.290284 0
    outer loop
      vertex 3.69552 -1.53073 25
      vertex 3.69552 -1.53073 20
      vertex 3.92314 -0.780361 20
    endloop
  endfacet
  facet normal 0.95694 -0.290284 0
    outer loop
      vertex 3.92314 -0.780361 25
      vertex 3.69552 -1.53073 25
      vertex 3.92314 -0.780361 20
    endloop
  endfacet
  facet normal 0.995185 -0.0980173 0
    outer loop
      vertex 3.92314 -0.780361 25
      vertex 3.92314 -0.780361 20
      vertex 4 0 20
    endloop
  endfacet
  facet normal 0.995185 -0.0980173 0
    outer loop
      vertex 4 0 25
      vertex 3.92314 -0.780361 25
      vertex 4 0 20
    endloop
  endfacet
  facet normal 0.995185 0.0980173 0
    outer loop
      vertex 4 0 20
      vertex 3.92314 0.780361 20
      vertex 3.92314 0.780361 25
    endloop
  endfacet
  facet normal 0.995185 0.0980173 0
    outer loop
      vertex 4 0 25
      vertex 4 0 20
      vertex 3.92314 0.780361 25
    endloop
  endfacet
  facet normal 0.95694 0.290284 0
    outer loop
      vertex 3.92314 0.780361 20
      vertex 3.69552 1.53073 20
      vertex 3.69552 1.53073 25
    endloop
  endfacet
  facet normal 0.95694 0.290284 0
    outer loop
      vertex 3.92314 0.780361 25
      vertex 3.92314 0.780361 20
      vertex 3.69552 1.53073 25
    endloop
  endfacet
  facet normal 0.881921 0.471397 0
    outer loop
      vertex 3.69552 1.53073 20
      vertex 3.32588 2.22228 20
      vertex 3.32588 2.22228 25
    endloop
  endfacet
  facet normal 0.881921 0.471397 0
    outer loop
      vertex 3.69552 1.53073 25
      vertex 3.69552 1.53073 20
      vertex 3.32588 2.22228 25
    endloop
  endfacet
  facet normal 0.773011 0.634393 0
    outer loop
      vertex 3.32588 2.22228 20
      vertex 2.82843 2.82843 20
      vertex 2.82843 2.82843 25
    endloop
  endfacet
  facet normal 0.773011 0.634393 0
    outer loop
      vertex 3.32588 2.22228 25
      vertex 3.32588 2.22228 20
      vertex 2.82843 2.82843 25
    endloop
  endfacet
  facet normal 0.634393 0.773011 0
    outer loop
      vertex 2.22228 3.32588 20
      vertex 2.22228 3.32588 25
      vertex 2.82843 2.82843 20
    endloop
  endfacet
  facet normal 0.634393 0.773011 0
    outer loop
      vertex 2.82843 2.82843 20
      vertex 2.22228 3.32588 25
      vertex 2.82843 2.82843 25
    endloop
  endfacet
  facet normal 0.471397 0.881921 0
    outer loop
      vertex 1.53073 3.69552 20
      vertex 1.53073 3.69552 25
      vertex 2.22228 3.32588 20
    endloop
  endfacet
  facet normal 0.471397 0.881921 0
    outer loop
      vertex 2.22228 3.32588 20
      vertex 1.53073 3.69552 25
      vertex 2.22228 3.32588 25
    endloop
  endfacet
  facet normal 0.290284 0.95694 0
    outer loop
      vertex 0.780361 3.92314 20
      vertex 0.780361 3.92314 25
      vertex 1.53073 3.69552 20
    endloop
  endfacet
  facet normal 0.290284 0.95694 0
    outer loop
      vertex 1.53073 3.69552 20
      vertex 0.780361 3.92314 25
      vertex 1.53073 3.69552 25
    endloop
  endfacet
  facet normal 0.0980173 0.995185 0
    outer loop
      vertex 0 4 20
      vertex 0 4 25
      vertex 0.780361 3.92314 20
    endloop
  endfacet
  facet normal 0.0980173 0.995185 0
    outer loop
      vertex 0.780361 3.92314 20
      vertex 0 4 25
      vertex 0.780361 3.92314 25
    endloop
  endfacet
  facet normal -0.0980173 0.995185 0
    outer loop
      vertex -0.780361 3.92314 20
      vertex -0.780361 3.92314 25
      vertex 0 4 20
    endloop
  endfacet
  facet normal -0.0980173 0.995185 0
    outer loop
      vertex 0 4 20
      vertex -0.780361 3.92314 25
      vertex 0 4 25
    endloop
  endfacet
  facet normal -0.290284 0.95694 0
    outer loop
      vertex -1.53073 3.69552 20
      vertex -1.53073 3.69552 25
      vertex -0.780361 3.92314 20
    endloop
  endfacet
  facet normal -0.290284 0.95694 0
    outer loop
      vertex -0.780361 3.92314 20
      vertex -1.53073 3.69552 25
      vertex -0.780361 3.92314 25
    endloop
  endfacet
  facet normal -0.471397 0.881921 0
    outer loop
      vertex -2.22228 3.32588 20
      vertex -2.22228 3.32588 25
      vertex -1.53073 3.69552 20
    endloop
  endfacet
  facet normal -0.471397 0.881921 0
    outer loop
      vertex -1.53073 3.69552 20
      vertex -2.22228 3.32588 25
      vertex -1.53073 3.69552 25
    endloop
  endfacet
  facet normal -0.634393 0.773011 0
    outer loop
      vertex -2.82843 2.82843 20
      vertex -2.82843 2.82843 25
      vertex -2.22228 3.32588 20
    endloop
  endfacet
  facet normal -0.634393 0.773011 0
    outer loop
      vertex -2.22228 3.32588 20
      vertex -2.82843 2.82843 25
      vertex -2.22228 3.32588 25
    endloop
  endfacet
  facet normal -0.773011 0.634393 0
    outer loop
      vertex -3.32588 2.22228 20
      vertex -3.32588 2.22228 25
      vertex -2.82843 2.82843 20
    endloop
  endfacet
  facet normal -0.773011 0.634393 0
    outer loop
      vertex -2.82843 2.82843 20
      vertex -3.32588 2.22228 25
      vertex -2.82843 2.82843 25
    endloop
  endfacet
  facet normal -0.881921 0.471397 0
    outer loop
      vertex -3.69552 1.53073 20
      vertex -3.69552 1.53073 25
      vertex -3.32588 2.22228 20
    endloop
  endfacet
  facet normal -0.881921 0.471397 0
    outer loop
      vertex -3.32588 2.22228 20
      vertex -3.69552 1.53073 25
      vertex -3.32588 2.22228 25
    endloop
  endfacet
  facet normal -0.95694 0.290284 0
    outer loop
      vertex -3.92314 0.780361 20
      vertex -3.92314 0.780361 25
      vertex -3.69552 1.53073 20
    endloop
  endfacet
  facet normal -0.95694 0.290284 0
    outer loop
      vertex -3.69552 1.53073 20
      vertex -3.92314 0.780361 25
      vertex -3.69552 1.53073 25
    endloop
  endfacet
  facet normal -0.995185 0.0980173 0
    outer loop
      vertex -4 0 20
      vertex -4 0 25
      vertex -3.92314 0.780361 20
    endloop
  endfacet
  facet normal -0.995185 0.0980173 0
    outer loop
      vertex -3.92314 0.780361 20
      vertex -4 0 25
      vertex -3.92314 0.780361 25
    endloop
  endfacet
  facet normal 0 0 -1
    outer loop
      vertex -7 0 25
      vertex -6.8655 1.36563 25
      vertex -6.8655 -1.36563 25
    endloop
  endfacet
  facet normal 0 0 -1
    outer loop
      vertex -6.8655 -1.36563 25
      vertex -6.8655 1.36563 25
      vertex -6.46716 2.67878 25
    endloop
  endfacet
  facet normal 0 0 -1
    outer loop
      vertex -6.8655 -1.36563 25
      vertex -6.46716 2.67878 25
      vertex -5.82029 3.88899 25
    endloop
  endfacet
  facet normal 0 0 -1
    outer loop
      vertex -6.8655 -1.36563 25
      vertex -5.82029 3.88899 25
      vertex -4.94975 4.94975 25
    endloop
  endfacet
  facet normal 0 0 -1
    outer loop
      vertex -6.8655 -1.36563 25
      vertex -4.94975 4.94975 25
      vertex -3.88899 5.82029 25
    endloop
  endfacet
  facet normal 0 0 -1
    outer loop
      vertex -6.8655 -1.36563 25
      vertex -3.88899 5.82029 25
      vertex -2.67878 6.46716 25
    endloop
  endfacet
  facet normal 0 0 -1
    outer loop
      vertex -6.8655 -1.36563 25
      vertex -2.67878 6.46716 25
      vertex -1.36563 6.8655 25
    endloop
  endfacet
  facet normal 0 0 -1
    outer loop
      vertex -6.8655 -1.36563 25
      vertex -1.36563 6.8655 25
      vertex 0 7 25
    endloop
  endfacet
  facet normal 0 0 -1
    outer loop
      vertex -2.22228 3.32588 25
      vertex 0 7 25
      vertex 1.36563 6.8655 25
    endloop
  endfacet
  facet normal 0 0 -1
    outer loop
      vertex -0.780361 3.92314 25
      vertex 1.36563 6.8655 25
      vertex 2.67878 6.46716 25
    endloop
  endfacet
  facet normal 0 0 -1
    outer loop
      vertex 0.780361 3.92314 25
      vertex 2.67878 6.46716 25
      vertex 3.88899 5.82029 25
    endloop
  endfacet
  facet normal 0 0 -1
    outer loop
      vertex 1.53073 3.69552 25
      vertex 3.88899 5.82029 25
      vertex 4.94975 4.94975 25
    endloop
  endfacet
  facet normal 0 0 -1
    outer loop
      vertex 2.82843 2.82843 25
      vertex 4.94975 4.94975 25
      vertex 5.82029 3.88899 25
    endloop
  endfacet
  facet normal 0 0 -1
    outer loop
      vertex 3.32588 2.22228 25
      vertex 5.82029 3.88899 25
      vertex 6.46716 2.67878 25
    endloop
  endfacet
  facet normal 0 0 -1
    outer loop
      vertex 3.69552 1.53073 25
      vertex 6.46716 2.67878 25
      vertex 6.8655 1.36563 25
    endloop
  endfacet
  facet normal 0 0 -1
    outer loop
      vertex 4 0 25
      vertex 6.8655 1.36563 25
      vertex 7 0 25
    endloop
  endfacet
  facet normal 0 0 -1
    outer loop
      vertex 3.92314 -0.780361 25
      vertex 7 0 25
      vertex 6.8655 -1.36563 25
    endloop
  endfacet
  facet normal 0 0 -1
    outer loop
      vertex 3.32588 -2.22228 25
      vertex 6.8655 -1.36563 25
      vertex 6.46716 -2.67878 25
    endloop
  endfacet
  facet normal 0 0 -1
    outer loop
      vertex 2.82843 -2.82843 25
      vertex 6.46716 -2.67878 25
      vertex 5.82029 -3.88899 25
    endloop
  endfacet
  facet normal 0 0 -1
    outer loop
      vertex 1.53073 -3.69552 25
      vertex 5.82029 -3.88899 25
      vertex 4.94975 -4.94975 25
    endloop
  endfacet
  facet normal 0 0 -1
    outer loop
      vertex 0 -4 25
      vertex 4.94975 -4.94975 25
      vertex 3.88899 -5.82029 25
    endloop
  endfacet
  facet normal 0 0 -1
    outer loop
      vertex -1.53073 -3.69552 25
      vertex 3.88899 -5.82029 25
      vertex 2.67878 -6.46716 25
    endloop
  endfacet
  facet normal 0 0 -1
    outer loop
      vertex -6.8655 -1.36563 25
      vertex 2.67878 -6.46716 25
      vertex 1.36563 -6.8655 25
    endloop
  endfacet
  facet normal 0 0 -1
    outer loop
      vertex -6.8655 -1.36563 25
      vertex 1.36563 -6.8655 25
      vertex 0 -7 25
    endloop
  endfacet
  facet normal 0 0 -1
    outer loop
      vertex -6.8655 -1.36563 25
      vertex 0 -7 25
      vertex -1.36563 -6.8655 25
    endloop
  endfacet
  facet normal 0 0 -1
    outer loop
      vertex -6.8655 -1.36563 25
      vertex -1.36563 -6.8655 25
      vertex -2.67878 -6.46716 25
    endloop
  endfacet
  facet normal 0 0 -1
    outer loop
      vertex -6.8655 -1.36563 25
      vertex -2.67878 -6.46716 25
      vertex -3.88899 -5.82029 25
    endloop
  endfacet
  facet normal 0 0 -1
    outer loop
      vertex -6.8655 -1.36563 25
      vertex -3.88899 -5.82029 25
      vertex -4.94975 -4.94975 25
    endloop
  endfacet
  facet normal 0 0 -1
    outer loop
      vertex -6.8655 -1.36563 25
      vertex -4.94975 -4.94975 25
      vertex -5.82029 -3.88899 25
    endloop
  endfacet
  facet normal 0 0 -1
    outer loop
      vertex -6.8655 -1.36563 25
      vertex -5.82029 -3.88899 25
      vertex -6.46716 -2.67878 25
    endloop
  endfacet
  facet normal 0 0 -1
    outer loop
      vertex -3.92314 -0.780361 25
      vertex -6.8655 -1.36563 25
      vertex -4 0 25
    endloop
  endfacet
  facet normal 0 0 -1
    outer loop
      vertex 3.69552 1.53073 25
      vertex 6.8655 1.36563 25
      vertex 3.92314 0.780361 25
    endloop
  endfacet
  facet normal 0 0 -1
    outer loop
      vertex -3.69552 -1.53073 25
      vertex -6.8655 -1.36563 25
      vertex -3.92314 -0.780361 25
    endloop
  endfacet
  facet normal 0 0 -1
    outer loop
      vertex -3.32588 -2.22228 25
      vertex -6.8655 -1.36563 25
      vertex -3.69552 -1.53073 25
    endloop
  endfacet
  facet normal 0 0 -1
    outer loop
      vertex -2.82843 -2.82843 25
      vertex -6.8655 -1.36563 25
      vertex -3.32588 -2.22228 25
    endloop
  endfacet
  facet normal 0 0 -1
    outer loop
      vertex -2.22228 -3.32588 25
      vertex -6.8655 -1.36563 25
      vertex -2.82843 -2.82843 25
    endloop
  endfacet
  facet normal 0 0 -1
    outer loop
      vertex 0 -4 25
      vertex 3.88899 -5.82029 25
      vertex -0.780361 -3.92314 25
    endloop
  endfacet
  facet normal 0 0 -1
    outer loop
      vertex -6.8655 -1.36563 25
      vertex -2.22228 -3.32588 25
      vertex 2.67878 -6.46716 25
    endloop
  endfacet
  facet normal 0 0 -1
    outer loop
      vertex -0.780361 -3.92314 25
      vertex 3.88899 -5.82029 25
      vertex -1.53073 -3.69552 25
    endloop
  endfacet
  facet normal 0 0 -1
    outer loop
      vertex -2.22228 -3.32588 25
      vertex -1.53073 -3.69552 25
      vertex 2.67878 -6.46716 25
    endloop
  endfacet
  facet normal 0 0 -1
    outer loop
      vertex 0.780361 -3.92314 25
      vertex 4.94975 -4.94975 25
      vertex 0 -4 25
    endloop
  endfacet
  facet normal 0 0 -1
    outer loop
      vertex 1.53073 -3.69552 25
      vertex 4.94975 -4.94975 25
      vertex 0.780361 -3.92314 25
    endloop
  endfacet
  facet normal 0 0 -1
    outer loop
      vertex 2.22228 -3.32588 25
      vertex 5.82029 -3.88899 25
      vertex 1.53073 -3.69552 25
    endloop
  endfacet
  facet normal 0 0 -1
    outer loop
      vertex 2.82843 -2.82843 25
      vertex 5.82029 -3.88899 25
      vertex 2.22228 -3.32588 25
    endloop
  endfacet
  facet normal 0 0 -1
    outer loop
      vertex 3.69552 -1.53073 25
      vertex 6.8655 -1.36563 25
      vertex 3.32588 -2.22228 25
    endloop
  endfacet
  facet normal 0 0 -1
    outer loop
      vertex 3.92314 -0.780361 25
      vertex 6.8655 -1.36563 25
      vertex 3.69552 -1.53073 25
    endloop
  endfacet
  facet normal 0 0 -1
    outer loop
      vertex 3.32588 -2.22228 25
      vertex 6.46716 -2.67878 25
      vertex 2.82843 -2.82843 25
    endloop
  endfacet
  facet normal 0 0 -1
    outer loop
      vertex 3.92314 0.780361 25
      vertex 6.8655 1.36563 25
      vertex 4 0 25
    endloop
  endfacet
  facet normal 0 0 -1
    outer loop
      vertex 3.32588 2.22228 25
      vertex 6.46716 2.67878 25
      vertex 3.69552 1.53073 25
    endloop
  endfacet
  facet normal 0 0 -1
    outer loop
      vertex 2.22228 3.32588 25
      vertex 4.94975 4.94975 25
      vertex 2.82843 2.82843 25
    endloop
  endfacet
  facet normal 0 0 -1
    outer loop
      vertex 1.53073 3.69552 25
      vertex 4.94975 4.94975 25
      vertex 2.22228 3.32588 25
    endloop
  endfacet
  facet normal 0 0 -1
    outer loop
      vertex 2.82843 2.82843 25
      vertex 5.82029 3.88899 25
      vertex 3.32588 2.22228 25
    endloop
  endfacet
  facet normal 0 0 -1
    outer loop
      vertex 0 4 25
      vertex 2.67878 6.46716 25
      vertex 0.780361 3.92314 25
    endloop
  endfacet
  facet normal 0 0 -1
    outer loop
      vertex -1.53073 3.69552 25
      vertex 1.36563 6.8655 25
      vertex -0.780361 3.92314 25
    endloop
  endfacet
  facet normal 0 0 -1
    outer loop
      vertex -2.22228 3.32588 25
      vertex 1.36563 6.8655 25
      vertex -1.53073 3.69552 25
    endloop
  endfacet
  facet normal 0 0 -1
    outer loop
      vertex -2.82843 2.82843 25
      vertex 0 7 25
      vertex -2.22228 3.32588 25
    endloop
  endfacet
  facet normal 0 0 -1
    outer loop
      vertex -3.69552 1.53073 25
      vertex -6.8655 -1.36563 25
      vertex -3.32588 2.22228 25
    endloop
  endfacet
  facet normal 0 0 -1
    outer loop
      vertex -6.8655 -1.36563 25
      vertex 0 7 25
      vertex -2.82843 2.82843 25
    endloop
  endfacet
  facet normal 0 0 -1
    outer loop
      vertex -6.8655 -1.36563 25
      vertex -2.82843 2.82843 25
      vertex -3.32588 2.22228 25
    endloop
  endfacet
  facet normal 0 0 -1
    outer loop
      vertex -3.92314 0.780361 25
      vertex -6.8655 -1.36563 25
      vertex -3.69552 1.53073 25
    endloop
  endfacet
  facet normal 0 0 -1
    outer loop
      vertex -4 0 25
      vertex -6.8655 -1.36563 25
      vertex -3.92314 0.780361 25
    endloop
  endfacet
  facet normal 0 0 -1
    outer loop
      vertex -0.780361 3.92314 25
      vertex 2.67878 6.46716 25
      vertex 0 4 25
    endloop
  endfacet
  facet normal 0 0 -1
    outer loop
      vertex 0.780361 3.92314 25
      vertex 3.88899 5.82029 25
      vertex 1.53073 3.69552 25
    endloop
  endfacet
  facet normal 0 0 -1
    outer loop
      vertex 4 0 25
      vertex 7 0 25
      vertex 3.92314 -0.780361 25
    endloop
  endfacet
  facet normal -0.995185 -0.0980171 0
    outer loop
      vertex -7 0 25
      vertex -6.8655 -1.36563 25
      vertex -7 0 27
    endloop
  endfacet
  facet normal -0.995185 -0.0980171 0
    outer loop
      vertex -7 0 27
      vertex -6.8655 -1.36563 25
      vertex -6.8655 -1.36563 27
    endloop
  endfacet
  facet normal -0.95694 -0.290284 0
    outer loop
      vertex -6.8655 -1.36563 25
      vertex -6.46716 -2.67878 25
      vertex -6.8655 -1.36563 27
    endloop
  endfacet
  facet normal -0.95694 -0.290284 0
    outer loop
      vertex -6.8655 -1.36563 27
      vertex -6.46716 -2.67878 25
      vertex -6.46716 -2.67878 27
    endloop
  endfacet
  facet normal -0.881921 -0.471397 0
    outer loop
      vertex -6.46716 -2.67878 25
      vertex -5.82029 -3.88899 25
      vertex -6.46716 -2.67878 27
    endloop
  endfacet
  facet normal -0.881921 -0.471397 0
    outer loop
      vertex -6.46716 -2.67878 27
      vertex -5.82029 -3.88899 25
      vertex -5.82029 -3.88899 27
    endloop
  endfacet
  facet normal -0.77301 -0.634394 0
    outer loop
      vertex -5.82029 -3.88899 25
      vertex -4.94975 -4.94975 25
      vertex -5.82029 -3.88899 27
    endloop
  endfacet
  facet normal -0.77301 -0.634394 0
    outer loop
      vertex -5.82029 -3.88899 27
      vertex -4.94975 -4.94975 25
      vertex -4.94975 -4.94975 27
    endloop
  endfacet
  facet normal -0.634394 -0.77301 0
    outer loop
      vertex -4.94975 -4.94975 27
      vertex -4.94975 -4.94975 25
      vertex -3.88899 -5.82029 25
    endloop
  endfacet
  facet normal -0.634394 -0.77301 0
    outer loop
      vertex -3.88899 -5.82029 27
      vertex -4.94975 -4.94975 27
      vertex -3.88899 -5.82029 25
    endloop
  endfacet
  facet normal -0.471397 -0.881921 0
    outer loop
      vertex -3.88899 -5.82029 27
      vertex -3.88899 -5.82029 25
      vertex -2.67878 -6.46716 25
    endloop
  endfacet
  facet normal -0.471397 -0.881921 0
    outer loop
      vertex -2.67878 -6.46716 27
      vertex -3.88899 -5.82029 27
      vertex -2.67878 -6.46716 25
    endloop
  endfacet
  facet normal -0.290284 -0.95694 0
    outer loop
      vertex -2.67878 -6.46716 27
      vertex -2.67878 -6.46716 25
      vertex -1.36563 -6.8655 25
    endloop
  endfacet
  facet normal -0.290284 -0.95694 0
    outer loop
      vertex -1.36563 -6.8655 27
      vertex -2.67878 -6.46716 27
      vertex -1.36563 -6.8655 25
    endloop
  endfacet
  facet normal -0.0980171 -0.995185 0
    outer loop
      vertex -1.36563 -6.8655 27
      vertex -1.36563 -6.8655 25
      vertex 0 -7 25
    endloop
  endfacet
  facet normal -0.0980171 -0.995185 0
    outer loop
      vertex 0 -7 27
      vertex -1.36563 -6.8655 27
      vertex 0 -7 25
    endloop
  endfacet
  facet normal 0.0980171 -0.995185 0
    outer loop
      vertex 0 -7 27
      vertex 0 -7 25
      vertex 1.36563 -6.8655 25
    endloop
  endfacet
  facet normal 0.0980171 -0.995185 0
    outer loop
      vertex 1.36563 -6.8655 27
      vertex 0 -7 27
      vertex 1.36563 -6.8655 25
    endloop
  endfacet
  facet normal 0.290284 -0.95694 0
    outer loop
      vertex 1.36563 -6.8655 27
      vertex 1.36563 -6.8655 25
      vertex 2.67878 -6.46716 25
    endloop
  endfacet
  facet normal 0.290284 -0.95694 0
    outer loop
      vertex 2.67878 -6.46716 27
      vertex 1.36563 -6.8655 27
      vertex 2.67878 -6.46716 25
    endloop
  endfacet
  facet normal 0.471397 -0.881921 0
    outer loop
      vertex 2.67878 -6.46716 27
      vertex 2.67878 -6.46716 25
      vertex 3.88899 -5.82029 25
    endloop
  endfacet
  facet normal 0.471397 -0.881921 0
    outer loop
      vertex 3.88899 -5.82029 27
      vertex 2.67878 -6.46716 27
      vertex 3.88899 -5.82029 25
    endloop
  endfacet
  facet normal 0.634394 -0.77301 0
    outer loop
      vertex 3.88899 -5.82029 27
      vertex 3.88899 -5.82029 25
      vertex 4.94975 -4.94975 25
    endloop
  endfacet
  facet normal 0.634394 -0.77301 0
    outer loop
      vertex 4.94975 -4.94975 27
      vertex 3.88899 -5.82029 27
      vertex 4.94975 -4.94975 25
    endloop
  endfacet
  facet normal 0.77301 -0.634394 0
    outer loop
      vertex 4.94975 -4.94975 27
      vertex 4.94975 -4.94975 25
      vertex 5.82029 -3.88899 25
    endloop
  endfacet
  facet normal 0.77301 -0.634394 0
    outer loop
      vertex 5.82029 -3.88899 27
      vertex 4.94975 -4.94975 27
      vertex 5.82029 -3.88899 25
    endloop
  endfacet
  facet normal 0.881921 -0.471397 0
    outer loop
      vertex 5.82029 -3.88899 27
      vertex 5.82029 -3.88899 25
      vertex 6.46716 -2.67878 25
    endloop
  endfacet
  facet normal 0.881921 -0.471397 0
    outer loop
      vertex 6.46716 -2.67878 27
      vertex 5.82029 -3.88899 27
      vertex 6.46716 -2.67878 25
    endloop
  endfacet
  facet normal 0.95694 -0.290284 0
    outer loop
      vertex 6.46716 -2.67878 27
      vertex 6.46716 -2.67878 25
      vertex 6.8655 -1.36563 25
    endloop
  endfacet
  facet normal 0.95694 -0.290284 0
    outer loop
      vertex 6.8655 -1.36563 27
      vertex 6.46716 -2.67878 27
      vertex 6.8655 -1.36563 25
    endloop
  endfacet
  facet normal 0.995185 -0.0980171 0
    outer loop
      vertex 6.8655 -1.36563 27
      vertex 6.8655 -1.36563 25
      vertex 7 0 25
    endloop
  endfacet
  facet normal 0.995185 -0.0980171 0
    outer loop
      vertex 7 0 27
      vertex 6.8655 -1.36563 27
      vertex 7 0 25
    endloop
  endfacet
  facet normal 0.995185 0.0980171 0
    outer loop
      vertex 7 0 25
      vertex 6.8655 1.36563 25
      vertex 6.8655 1.36563 27
    endloop
  endfacet
  facet normal 0.995185 0.0980171 0
    outer loop
      vertex 7 0 27
      vertex 7 0 25
      vertex 6.8655 1.36563 27
    endloop
  endfacet
  facet normal 0.95694 0.290284 0
    outer loop
      vertex 6.8655 1.36563 25
      vertex 6.46716 2.67878 25
      vertex 6.46716 2.67878 27
    endloop
  endfacet
  facet normal 0.95694 0.290284 0
    outer loop
      vertex 6.8655 1.36563 27
      vertex 6.8655 1.36563 25
      vertex 6.46716 2.67878 27
    endloop
  endfacet
  facet normal 0.881921 0.471397 0
    outer loop
      vertex 6.46716 2.67878 25
      vertex 5.82029 3.88899 25
      vertex 5.82029 3.88899 27
    endloop
  endfacet
  facet normal 0.881921 0.471397 0
    outer loop
      vertex 6.46716 2.67878 27
      vertex 6.46716 2.67878 25
      vertex 5.82029 3.88899 27
    endloop
  endfacet
  facet normal 0.77301 0.634394 0
    outer loop
      vertex 5.82029 3.88899 25
      vertex 4.94975 4.94975 25
      vertex 4.94975 4.94975 27
    endloop
  endfacet
  facet normal 0.77301 0.634394 0
    outer loop
      vertex 5.82029 3.88899 27
      vertex 5.82029 3.88899 25
      vertex 4.94975 4.94975 27
    endloop
  endfacet
  facet normal 0.634394 0.77301 0
    outer loop
      vertex 3.88899 5.82029 25
      vertex 3.88899 5.82029 27
      vertex 4.94975 4.94975 25
    endloop
  endfacet
  facet normal 0.634394 0.77301 0
    outer loop
      vertex 4.94975 4.94975 25
      vertex 3.88899 5.82029 27
      vertex 4.94975 4.94975 27
    endloop
  endfacet
  facet normal 0.471397 0.881921 0
    outer loop
      vertex 2.67878 6.46716 25
      vertex 2.67878 6.46716 27
      vertex 3.88899 5.82029 25
    endloop
  endfacet
  facet normal 0.471397 0.881921 0
    outer loop
      vertex 3.88899 5.82029 25
      vertex 2.67878 6.46716 27
      vertex 3.88899 5.82029 27
    endloop
  endfacet
  facet normal 0.290284 0.95694 0
    outer loop
      vertex 1.36563 6.8655 25
      vertex 1.36563 6.8655 27
      vertex 2.67878 6.46716 25
    endloop
  endfacet
  facet normal 0.290284 0.95694 0
    outer loop
      vertex 2.67878 6.46716 25
      vertex 1.36563 6.8655 27
      vertex 2.67878 6.46716 27
    endloop
  endfacet
  facet normal 0.0980171 0.995185 0
    outer loop
      vertex 0 7 25
      vertex 0 7 27
      vertex 1.36563 6.8655 25
    endloop
  endfacet
  facet normal 0.0980171 0.995185 0
    outer loop
      vertex 1.36563 6.8655 25
      vertex 0 7 27
      vertex 1.36563 6.8655 27
    endloop
  endfacet
  facet normal -0.0980171 0.995185 0
    outer loop
      vertex -1.36563 6.8655 25
      vertex -1.36563 6.8655 27
      vertex 0 7 25
    endloop
  endfacet
  facet normal -0.0980171 0.995185 0
    outer loop
      vertex 0 7 25
      vertex -1.36563 6.8655 27
      vertex 0 7 27
    endloop
  endfacet
  facet normal -0.290284 0.95694 0
    outer loop
      vertex -2.67878 6.46716 25
      vertex -2.67878 6.46716 27
      vertex -1.36563 6.8655 25
    endloop
  endfacet
  facet normal -0.290284 0.95694 0
    outer loop
      vertex -1.36563 6.8655 25
      vertex -2.67878 6.46716 27
      vertex -1.36563 6.8655 27
    endloop
  endfacet
  facet normal -0.471397 0.881921 0
    outer loop
      vertex -3.88899 5.82029 25
      vertex -3.88899 5.82029 27
      vertex -2.67878 6.46716 25
    endloop
  endfacet
  facet normal -0.471397 0.881921 0
    outer loop
      vertex -2.67878 6.46716 25
      vertex -3.88899 5.82029 27
      vertex -2.67878 6.46716 27
    endloop
  endfacet
  facet normal -0.634394 0.77301 0
    outer loop
      vertex -4.94975 4.94975 25
      vertex -4.94975 4.94975 27
      vertex -3.88899 5.82029 25
    endloop
  endfacet
  facet normal -0.634394 0.77301 0
    outer loop
      vertex -3.88899 5.82029 25
      vertex -4.94975 4.94975 27
      vertex -3.88899 5.82029 27
    endloop
  endfacet
  facet normal -0.77301 0.634394 0
    outer loop
      vertex -5.82029 3.88899 25
      vertex -5.82029 3.88899 27
      vertex -4.94975 4.94975 25
    endloop
  endfacet
  facet normal -0.77301 0.634394 0
    outer loop
      vertex -4.94975 4.94975 25
      vertex -5.82029 3.88899 27
      vertex -4.94975 4.94975 27
    endloop
  endfacet
  facet normal -0.881921 0.471397 0
    outer loop
      vertex -6.46716 2.67878 25
      vertex -6.46716 2.67878 27
      vertex -5.82029 3.88899 25
    endloop
  endfacet
  facet normal -0.881921 0.471397 0
    outer loop
      vertex -5.82029 3.88899 25
      vertex -6.46716 2.67878 27
      vertex -5.82029 3.88899 27
    endloop
  endfacet
  facet normal -0.95694 0.290284 0
    outer loop
      vertex -6.8655 1.36563 25
      vertex -6.8655 1.36563 27
      vertex -6.46716 2.67878 25
    endloop
  endfacet
  facet normal -0.95694 0.290284 0
    outer loop
      vertex -6.46716 2.67878 25
      vertex -6.8655 1.36563 27
      vertex -6.46716 2.67878 27
    endloop
  endfacet
  facet normal -0.995185 0.0980171 0
    outer loop
      vertex -7 0 25
      vertex -7 0 27
      vertex -6.8655 1.36563 25
    endloop
  endfacet
  facet normal -0.995185 0.0980171 0
    outer loop
      vertex -6.8655 1.36563 25
      vertex -7 0 27
      vertex -6.8655 1.36563 27
    endloop
  endfacet
  facet normal 0 0 1
    outer loop
      vertex -6.8655 1.36563 27
      vertex -7 0 27
      vertex -6.8655 -1.36563 27
    endloop
  endfacet
  facet normal 0 0 1
    outer loop
      vertex -5.82029 -3.88899 27
      vertex -6.8655 1.36563 27
      vertex -6.46716 -2.67878 27
    endloop
  endfacet
  facet normal 0 0 1
    outer loop
      vertex -6.46716 -2.67878 27
      vertex -6.8655 1.36563 27
      vertex -6.8655 -1.36563 27
    endloop
  endfacet
  facet normal 0 0 1
    outer loop
      vertex -4.94975 -4.94975 27
      vertex -6.8655 1.36563 27
      vertex -5.82029 -3.88899 27
    endloop
  endfacet
  facet normal 0 0 1
    outer loop
      vertex -3.88899 -5.82029 27
      vertex -6.8655 1.36563 27
      vertex -4.94975 -4.94975 27
    endloop
  endfacet
  facet normal 0 0 1
    outer loop
      vertex -2.67878 -6.46716 27
      vertex -6.8655 1.36563 27
      vertex -3.88899 -5.82029 27
    endloop
  endfacet
  facet normal 0 0 1
    outer loop
      vertex -1.36563 -6.8655 27
      vertex -6.8655 1.36563 27
      vertex -2.67878 -6.46716 27
    endloop
  endfacet
  facet normal 0 0 1
    outer loop
      vertex 0 -7 27
      vertex -6.8655 1.36563 27
      vertex -1.36563 -6.8655 27
    endloop
  endfacet
  facet normal 0 0 1
    outer loop
      vertex -2.82843 -2.82843 27
      vertex -6.8655 1.36563 27
      vertex 0 -7 27
    endloop
  endfacet
  facet normal 0 0 1
    outer loop
      vertex 2.22228 -3.32588 27
      vertex 1.53073 -3.69552 27
      vertex 4.94975 -4.94975 27
    endloop
  endfacet
  facet normal 0 0 1
    outer loop
      vertex 3.69552 1.53073 27
      vertex 3.92314 0.780361 27
      vertex 6.8655 1.36563 27
    endloop
  endfacet
  facet normal 0 0 1
    outer loop
      vertex -0.780361 3.92314 27
      vertex 0 4 27
      vertex 3.88899 5.82029 27
    endloop
  endfacet
  facet normal 0 0 1
    outer loop
      vertex 2.22228 3.32588 27
      vertex 2.82843 2.82843 27
      vertex 5.82029 3.88899 27
    endloop
  endfacet
  facet normal 0 0 1
    outer loop
      vertex 1.36563 6.8655 27
      vertex -6.8655 1.36563 27
      vertex 2.67878 6.46716 27
    endloop
  endfacet
  facet normal 0 0 1
    outer loop
      vertex 0 7 27
      vertex -6.8655 1.36563 27
      vertex 1.36563 6.8655 27
    endloop
  endfacet
  facet normal 0 0 1
    outer loop
      vertex -1.36563 6.8655 27
      vertex -6.8655 1.36563 27
      vertex 0 7 27
    endloop
  endfacet
  facet normal 0 0 1
    outer loop
      vertex -2.67878 6.46716 27
      vertex -6.8655 1.36563 27
      vertex -1.36563 6.8655 27
    endloop
  endfacet
  facet normal 0 0 1
    outer loop
      vertex -3.88899 5.82029 27
      vertex -6.8655 1.36563 27
      vertex -2.67878 6.46716 27
    endloop
  endfacet
  facet normal 0 0 1
    outer loop
      vertex -4.94975 4.94975 27
      vertex -6.8655 1.36563 27
      vertex -3.88899 5.82029 27
    endloop
  endfacet
  facet normal 0 0 1
    outer loop
      vertex -5.82029 3.88899 27
      vertex -6.8655 1.36563 27
      vertex -4.94975 4.94975 27
    endloop
  endfacet
  facet normal 0 0 1
    outer loop
      vertex -6.46716 2.67878 27
      vertex -6.8655 1.36563 27
      vertex -5.82029 3.88899 27
    endloop
  endfacet
  facet normal 0 0 1
    outer loop
      vertex -1.53073 -3.69552 27
      vertex -2.22228 -3.32588 27
      vertex 1.36563 -6.8655 27
    endloop
  endfacet
  facet normal 0 0 1
    outer loop
      vertex -4 0 27
      vertex -3.92314 0.780361 27
      vertex -6.8655 1.36563 27
    endloop
  endfacet
  facet normal 0 0 1
    outer loop
      vertex 3.92314 0.780361 27
      vertex 4 0 27
      vertex 7 0 27
    endloop
  endfacet
  facet normal 0 0 1
    outer loop
      vertex -2.82843 2.82843 27
      vertex -2.22228 3.32588 27
      vertex -6.8655 1.36563 27
    endloop
  endfacet
  facet normal 0 0 1
    outer loop
      vertex 2.82843 2.82843 27
      vertex 3.32588 2.22228 27
      vertex 6.46716 2.67878 27
    endloop
  endfacet
  facet normal 0 0 1
    outer loop
      vertex 0.780361 3.92314 27
      vertex 1.53073 3.69552 27
      vertex 4.94975 4.94975 27
    endloop
  endfacet
  facet normal 0 0 1
    outer loop
      vertex 2.67878 6.46716 27
      vertex -6.8655 1.36563 27
      vertex -2.22228 3.32588 27
    endloop
  endfacet
  facet normal 0 0 1
    outer loop
      vertex 2.67878 6.46716 27
      vertex -1.53073 3.69552 27
      vertex 3.88899 5.82029 27
    endloop
  endfacet
  facet normal 0 0 1
    outer loop
      vertex 2.67878 6.46716 27
      vertex -2.22228 3.32588 27
      vertex -1.53073 3.69552 27
    endloop
  endfacet
  facet normal 0 0 1
    outer loop
      vertex -1.53073 3.69552 27
      vertex -0.780361 3.92314 27
      vertex 3.88899 5.82029 27
    endloop
  endfacet
  facet normal 0 0 1
    outer loop
      vertex 3.88899 5.82029 27
      vertex 0 4 27
      vertex 4.94975 4.94975 27
    endloop
  endfacet
  facet normal 0 0 1
    outer loop
      vertex 0 4 27
      vertex 0.780361 3.92314 27
      vertex 4.94975 4.94975 27
    endloop
  endfacet
  facet normal 0 0 1
    outer loop
      vertex 4.94975 4.94975 27
      vertex 1.53073 3.69552 27
      vertex 5.82029 3.88899 27
    endloop
  endfacet
  facet normal 0 0 1
    outer loop
      vertex 1.53073 3.69552 27
      vertex 2.22228 3.32588 27
      vertex 5.82029 3.88899 27
    endloop
  endfacet
  facet normal 0 0 1
    outer loop
      vertex 5.82029 3.88899 27
      vertex 2.82843 2.82843 27
      vertex 6.46716 2.67878 27
    endloop
  endfacet
  facet normal 0 0 1
    outer loop
      vertex -3.32588 2.22228 27
      vertex -2.82843 2.82843 27
      vertex -6.8655 1.36563 27
    endloop
  endfacet
  facet normal 0 0 1
    outer loop
      vertex 6.46716 2.67878 27
      vertex 3.32588 2.22228 27
      vertex 6.8655 1.36563 27
    endloop
  endfacet
  facet normal 0 0 1
    outer loop
      vertex 3.32588 2.22228 27
      vertex 3.69552 1.53073 27
      vertex 6.8655 1.36563 27
    endloop
  endfacet
  facet normal 0 0 1
    outer loop
      vertex 6.8655 1.36563 27
      vertex 3.92314 0.780361 27
      vertex 7 0 27
    endloop
  endfacet
  facet normal 0 0 1
    outer loop
      vertex 3.32588 -2.22228 27
      vertex 2.82843 -2.82843 27
      vertex 5.82029 -3.88899 27
    endloop
  endfacet
  facet normal 0 0 1
    outer loop
      vertex 7 0 27
      vertex 4 0 27
      vertex 6.8655 -1.36563 27
    endloop
  endfacet
  facet normal 0 0 1
    outer loop
      vertex -3.69552 1.53073 27
      vertex -3.32588 2.22228 27
      vertex -6.8655 1.36563 27
    endloop
  endfacet
  facet normal 0 0 1
    outer loop
      vertex 4 0 27
      vertex 3.92314 -0.780361 27
      vertex 6.8655 -1.36563 27
    endloop
  endfacet
  facet normal 0 0 1
    outer loop
      vertex 6.8655 -1.36563 27
      vertex 3.69552 -1.53073 27
      vertex 6.46716 -2.67878 27
    endloop
  endfacet
  facet normal 0 0 1
    outer loop
      vertex 6.46716 -2.67878 27
      vertex 3.32588 -2.22228 27
      vertex 5.82029 -3.88899 27
    endloop
  endfacet
  facet normal 0 0 1
    outer loop
      vertex 3.92314 -0.780361 27
      vertex 3.69552 -1.53073 27
      vertex 6.8655 -1.36563 27
    endloop
  endfacet
  facet normal 0 0 1
    outer loop
      vertex 5.82029 -3.88899 27
      vertex 2.82843 -2.82843 27
      vertex 4.94975 -4.94975 27
    endloop
  endfacet
  facet normal 0 0 1
    outer loop
      vertex 2.82843 -2.82843 27
      vertex 2.22228 -3.32588 27
      vertex 4.94975 -4.94975 27
    endloop
  endfacet
  facet normal 0 0 1
    outer loop
      vertex 4.94975 -4.94975 27
      vertex 1.53073 -3.69552 27
      vertex 3.88899 -5.82029 27
    endloop
  endfacet
  facet normal 0 0 1
    outer loop
      vertex 1.53073 -3.69552 27
      vertex 0.780361 -3.92314 27
      vertex 3.88899 -5.82029 27
    endloop
  endfacet
  facet normal 0 0 1
    outer loop
      vertex 3.88899 -5.82029 27
      vertex 0.780361 -3.92314 27
      vertex 2.67878 -6.46716 27
    endloop
  endfacet
  facet normal 0 0 1
    outer loop
      vertex 0.780361 -3.92314 27
      vertex 0 -4 27
      vertex 2.67878 -6.46716 27
    endloop
  endfacet
  facet normal 0 0 1
    outer loop
      vertex 2.67878 -6.46716 27
      vertex -0.780361 -3.92314 27
      vertex 1.36563 -6.8655 27
    endloop
  endfacet
  facet normal 0 0 1
    outer loop
      vertex -3.32588 -2.22228 27
      vertex -3.69552 -1.53073 27
      vertex -6.8655 1.36563 27
    endloop
  endfacet
  facet normal 0 0 1
    outer loop
      vertex -0.780361 -3.92314 27
      vertex -1.53073 -3.69552 27
      vertex 1.36563 -6.8655 27
    endloop
  endfacet
  facet normal 0 0 1
    outer loop
      vertex 1.36563 -6.8655 27
      vertex -2.22228 -3.32588 27
      vertex 0 -7 27
    endloop
  endfacet
  facet normal 0 0 1
    outer loop
      vertex -2.22228 -3.32588 27
      vertex -2.82843 -2.82843 27
      vertex 0 -7 27
    endloop
  endfacet
  facet normal 0 0 1
    outer loop
      vertex -3.32588 -2.22228 27
      vertex -6.8655 1.36563 27
      vertex -2.82843 -2.82843 27
    endloop
  endfacet
  facet normal 0 0 1
    outer loop
      vertex 0 -4 27
      vertex -0.780361 -3.92314 27
      vertex 2.67878 -6.46716 27
    endloop
  endfacet
  facet normal 0 0 1
    outer loop
      vertex -3.69552 -1.53073 27
      vertex -3.92314 -0.780361 27
      vertex -6.8655 1.36563 27
    endloop
  endfacet
  facet normal 0 0 1
    outer loop
      vertex -3.92314 -0.780361 27
      vertex -4 0 27
      vertex -6.8655 1.36563 27
    endloop
  endfacet
  facet normal 0 0 1
    outer loop
      vertex 3.69552 -1.53073 27
      vertex 3.32588 -2.22228 27
      vertex 6.46716 -2.67878 27
    endloop
  endfacet
  facet normal 0 0 1
    outer loop
      vertex -3.92314 0.780361 27
      vertex -3.69552 1.53073 27
      vertex -6.8655 1.36563 27
    endloop
  endfacet
  facet normal -0.95694 -0.290284 0
    outer loop
      vertex -3.92314 -0.780361 27
      vertex -3.69552 -1.53073 27
      vertex -3.92314 -0.780361 28
    endloop
  endfacet
  facet normal -0.95694 -0.290284 0
    outer loop
      vertex -3.92314 -0.780361 28
      vertex -3.69552 -1.53073 27
      vertex -3.69552 -1.53073 28
    endloop
  endfacet
  facet normal -0.995185 -0.0980173 0
    outer loop
      vertex -4 0 27
      vertex -3.92314 -0.780361 27
      vertex -4 0 28
    endloop
  endfacet
  facet normal -0.995185 -0.0980173 0
    outer loop
      vertex -4 0 28
      vertex -3.92314 -0.780361 27
      vertex -3.92314 -0.780361 28
    endloop
  endfacet
  facet normal -0.881921 -0.471397 0
    outer loop
      vertex -3.69552 -1.53073 27
      vertex -3.32588 -2.22228 27
      vertex -3.69552 -1.53073 28
    endloop
  endfacet
  facet normal -0.881921 -0.471397 0
    outer loop
      vertex -3.69552 -1.53073 28
      vertex -3.32588 -2.22228 27
      vertex -3.32588 -2.22228 28
    endloop
  endfacet
  facet normal -0.773011 -0.634393 0
    outer loop
      vertex -3.32588 -2.22228 27
      vertex -2.82843 -2.82843 27
      vertex -3.32588 -2.22228 28
    endloop
  endfacet
  facet normal -0.773011 -0.634393 0
    outer loop
      vertex -3.32588 -2.22228 28
      vertex -2.82843 -2.82843 27
      vertex -2.82843 -2.82843 28
    endloop
  endfacet
  facet normal -0.634393 -0.773011 0
    outer loop
      vertex -2.82843 -2.82843 28
      vertex -2.82843 -2.82843 27
      vertex -2.22228 -3.32588 27
    endloop
  endfacet
  facet normal -0.634393 -0.773011 0
    outer loop
      vertex -2.22228 -3.32588 28
      vertex -2.82843 -2.82843 28
      vertex -2.22228 -3.32588 27
    endloop
  endfacet
  facet normal -0.471397 -0.881921 0
    outer loop
      vertex -2.22228 -3.32588 28
      vertex -2.22228 -3.32588 27
      vertex -1.53073 -3.69552 27
    endloop
  endfacet
  facet normal -0.471397 -0.881921 0
    outer loop
      vertex -1.53073 -3.69552 28
      vertex -2.22228 -3.32588 28
      vertex -1.53073 -3.69552 27
    endloop
  endfacet
  facet normal -0.290284 -0.95694 0
    outer loop
      vertex -1.53073 -3.69552 28
      vertex -1.53073 -3.69552 27
      vertex -0.780361 -3.92314 27
    endloop
  endfacet
  facet normal -0.290284 -0.95694 0
    outer loop
      vertex -0.780361 -3.92314 28
      vertex -1.53073 -3.69552 28
      vertex -0.780361 -3.92314 27
    endloop
  endfacet
  facet normal -0.0980173 -0.995185 0
    outer loop
      vertex -0.780361 -3.92314 28
      vertex -0.780361 -3.92314 27
      vertex 0 -4 27
    endloop
  endfacet
  facet normal -0.0980173 -0.995185 0
    outer loop
      vertex 0 -4 28
      vertex -0.780361 -3.92314 28
      vertex 0 -4 27
    endloop
  endfacet
  facet normal 0.0980173 -0.995185 0
    outer loop
      vertex 0 -4 28
      vertex 0 -4 27
      vertex 0.780361 -3.92314 27
    endloop
  endfacet
  facet normal 0.0980173 -0.995185 0
    outer loop
      vertex 0.780361 -3.92314 28
      vertex 0 -4 28
      vertex 0.780361 -3.92314 27
    endloop
  endfacet
  facet normal 0.290284 -0.95694 0
    outer loop
      vertex 0.780361 -3.92314 28
      vertex 0.780361 -3.92314 27
      vertex 1.53073 -3.69552 27
    endloop
  endfacet
  facet normal 0.290284 -0.95694 0
    outer loop
      vertex 1.53073 -3.69552 28
      vertex 0.780361 -3.92314 28
      vertex 1.53073 -3.69552 27
    endloop
  endfacet
  facet normal 0.471397 -0.881921 0
    outer loop
      vertex 1.53073 -3.69552 28
      vertex 1.53073 -3.69552 27
      vertex 2.22228 -3.32588 27
    endloop
  endfacet
  facet normal 0.471397 -0.881921 0
    outer loop
      vertex 2.22228 -3.32588 28
      vertex 1.53073 -3.69552 28
      vertex 2.22228 -3.32588 27
    endloop
  endfacet
  facet normal 0.634393 -0.773011 0
    outer loop
      vertex 2.22228 -3.32588 28
      vertex 2.22228 -3.32588 27
      vertex 2.82843 -2.82843 27
    endloop
  endfacet
  facet normal 0.634393 -0.773011 0
    outer loop
      vertex 2.82843 -2.82843 28
      vertex 2.22228 -3.32588 28
      vertex 2.82843 -2.82843 27
    endloop
  endfacet
  facet normal 0.773011 -0.634393 0
    outer loop
      vertex 2.82843 -2.82843 28
      vertex 2.82843 -2.82843 27
      vertex 3.32588 -2.22228 27
    endloop
  endfacet
  facet normal 0.773011 -0.634393 0
    outer loop
      vertex 3.32588 -2.22228 28
      vertex 2.82843 -2.82843 28
      vertex 3.32588 -2.22228 27
    endloop
  endfacet
  facet normal 0.881921 -0.471397 0
    outer loop
      vertex 3.32588 -2.22228 28
      vertex 3.32588 -2.22228 27
      vertex 3.69552 -1.53073 27
    endloop
  endfacet
  facet normal 0.881921 -0.471397 0
    outer loop
      vertex 3.69552 -1.53073 28
      vertex 3.32588 -2.22228 28
      vertex 3.69552 -1.53073 27
    endloop
  endfacet
  facet normal 0.95694 -0.290284 0
    outer loop
      vertex 3.69552 -1.53073 28
      vertex 3.69552 -1.53073 27
      vertex 3.92314 -0.780361 27
    endloop
  endfacet
  facet normal 0.95694 -0.290284 0
    outer loop
      vertex 3.92314 -0.780361 28
      vertex 3.69552 -1.53073 28
      vertex 3.92314 -0.780361 27
    endloop
  endfacet
  facet normal 0.995185 -0.0980173 0
    outer loop
      vertex 3.92314 -0.780361 28
      vertex 3.92314 -0.780361 27
      vertex 4 0 27
    endloop
  endfacet
  facet normal 0.995185 -0.0980173 0
    outer loop
      vertex 4 0 28
      vertex 3.92314 -0.780361 28
      vertex 4 0 27
    endloop
  endfacet
  facet normal 0.995185 0.0980173 0
    outer loop
      vertex 4 0 27
      vertex 3.92314 0.780361 27
      vertex 3.92314 0.780361 28
    endloop
  endfacet
  facet normal 0.995185 0.0980173 0
    outer loop
      vertex 4 0 28
      vertex 4 0 27
      vertex 3.92314 0.780361 28
    endloop
  endfacet
  facet normal 0.95694 0.290284 0
    outer loop
      vertex 3.92314 0.780361 27
      vertex 3.69552 1.53073 27
      vertex 3.69552 1.53073 28
    endloop
  endfacet
  facet normal 0.95694 0.290284 0
    outer loop
      vertex 3.92314 0.780361 28
      vertex 3.92314 0.780361 27
      vertex 3.69552 1.53073 28
    endloop
  endfacet
  facet normal 0.881921 0.471397 0
    outer loop
      vertex 3.69552 1.53073 27
      vertex 3.32588 2.22228 27
      vertex 3.32588 2.22228 28
    endloop
  endfacet
  facet normal 0.881921 0.471397 0
    outer loop
      vertex 3.69552 1.53073 28
      vertex 3.69552 1.53073 27
      vertex 3.32588 2.22228 28
    endloop
  endfacet
  facet normal 0.773011 0.634393 0
    outer loop
      vertex 3.32588 2.22228 27
      vertex 2.82843 2.82843 27
      vertex 2.82843 2.82843 28
    endloop
  endfacet
  facet normal 0.773011 0.634393 0
    outer loop
      vertex 3.32588 2.22228 28
      vertex 3.32588 2.22228 27
      vertex 2.82843 2.82843 28
    endloop
  endfacet
  facet normal 0.634393 0.773011 0
    outer loop
      vertex 2.22228 3.32588 27
      vertex 2.22228 3.32588 28
      vertex 2.82843 2.82843 27
    endloop
  endfacet
  facet normal 0.634393 0.773011 0
    outer loop
      vertex 2.82843 2.82843 27
      vertex 2.22228 3.32588 28
      vertex 2.82843 2.82843 28
    endloop
  endfacet
  facet normal 0.471397 0.881921 0
    outer loop
      vertex 1.53073 3.69552 27
      vertex 1.53073 3.69552 28
      vertex 2.22228 3.32588 27
    endloop
  endfacet
  facet normal 0.471397 0.881921 0
    outer loop
      vertex 2.22228 3.32588 27
      vertex 1.53073 3.69552 28
      vertex 2.22228 3.32588 28
    endloop
  endfacet
  facet normal 0.290284 0.95694 0
    outer loop
      vertex 0.780361 3.92314 27
      vertex 0.780361 3.92314 28
      vertex 1.53073 3.69552 27
    endloop
  endfacet
  facet normal 0.290284 0.95694 0
    outer loop
      vertex 1.53073 3.69552 27
      vertex 0.780361 3.92314 28
      vertex 1.53073 3.69552 28
    endloop
  endfacet
  facet normal 0.0980173 0.995185 0
    outer loop
      vertex 0 4 27
      vertex 0 4 28
      vertex 0.780361 3.92314 27
    endloop
  endfacet
  facet normal 0.0980173 0.995185 0
    outer loop
      vertex 0.780361 3.92314 27
      vertex 0 4 28
      vertex 0.780361 3.92314 28
    endloop
  endfacet
  facet normal -0.0980173 0.995185 0
    outer loop
      vertex -0.780361 3.92314 27
      vertex -0.780361 3.92314 28
      vertex 0 4 27
    endloop
  endfacet
  facet normal -0.0980173 0.995185 0
    outer loop
      vertex 0 4 27
      vertex -0.780361 3.92314 28
      vertex 0 4 28
    endloop
  endfacet
  facet normal -0.290284 0.95694 0
    outer loop
      vertex -1.53073 3.69552 27
      vertex -1.53073 3.69552 28
      vertex -0.780361 3.92314 27
    endloop
  endfacet
  facet normal -0.290284 0.95694 0
    outer loop
      vertex -0.780361 3.92314 27
      vertex -1.53073 3.69552 28
      vertex -0.780361 3.92314 28
    endloop
  endfacet
  facet normal -0.471397 0.881921 0
    outer loop
      vertex -2.22228 3.32588 27
      vertex -2.22228 3.32588 28
      vertex -1.53073 3.69552 27
    endloop
  endfacet
  facet normal -0.471397 0.881921 0
    outer loop
      vertex -1.53073 3.69552 27
      vertex -2.22228 3.32588 28
      vertex -1.53073 3.69552 28
    endloop
  endfacet
  facet normal -0.634393 0.773011 0
    outer loop
      vertex -2.82843 2.82843 27
      vertex -2.82843 2.82843 28
      vertex -2.22228 3.32588 27
    endloop
  endfacet
  facet normal -0.634393 0.773011 0
    outer loop
      vertex -2.22228 3.32588 27
      vertex -2.82843 2.82843 28
      vertex -2.22228 3.32588 28
    endloop
  endfacet
  facet normal -0.773011 0.634393 0
    outer loop
      vertex -3.32588 2.22228 27
      vertex -3.32588 2.22228 28
      vertex -2.82843 2.82843 27
    endloop
  endfacet
  facet normal -0.773011 0.634393 0
    outer loop
      vertex -2.82843 2.82843 27
      vertex -3.32588 2.22228 28
      vertex -2.82843 2.82843 28
    endloop
  endfacet
  facet normal -0.881921 0.471397 0
    outer loop
      vertex -3.69552 1.53073 27
      vertex -3.69552 1.53073 28
      vertex -3.32588 2.22228 27
    endloop
  endfacet
  facet normal -0.881921 0.471397 0
    outer loop
      vertex -3.32588 2.22228 27
      vertex -3.69552 1.53073 28
      vertex -3.32588 2.22228 28
    endloop
  endfacet
  facet normal -0.95694 0.290284 0
    outer loop
      vertex -3.92314 0.780361 27
      vertex -3.92314 0.780361 28
      vertex -3.69552 1.53073 27
    endloop
  endfacet
  facet normal -0.95694 0.290284 0
    outer loop
      vertex -3.69552 1.53073 27
      vertex -3.92314 0.780361 28
      vertex -3.69552 1.53073 28
    endloop
  endfacet
  facet normal -0.995185 0.0980173 0
    outer loop
      vertex -4 0 27
      vertex -4 0 28
      vertex -3.92314 0.780361 27
    endloop
  endfacet
  facet normal -0.995185 0.0980173 0
    outer loop
      vertex -3.92314 0.780361 27
      vertex -4 0 28
      vertex -3.92314 0.780361 28
    endloop
  endfacet
  facet normal 0 0 1
    outer loop
      vertex -3.92314 0.780361 28
      vertex -4 0 28
      vertex -3.92314 -0.780361 28
    endloop
  endfacet
  facet normal 0 0 1
    outer loop
      vertex -3.32588 -2.22228 28
      vertex -3.92314 0.780361 28
      vertex -3.69552 -1.53073 28
    endloop
  endfacet
  facet normal 0 0 1
    outer loop
      vertex -3.69552 -1.53073 28
      vertex -3.92314 0.780361 28
      vertex -3.92314 -0.780361 28
    endloop
  endfacet
  facet normal 0 0 1
    outer loop
      vertex -2.82843 -2.82843 28
      vertex -3.92314 0.780361 28
      vertex -3.32588 -2.22228 28
    endloop
  endfacet
  facet normal 0 0 1
    outer loop
      vertex -2.22228 -3.32588 28
      vertex -3.92314 0.780361 28
      vertex -2.82843 -2.82843 28
    endloop
  endfacet
  facet normal 0 0 1
    outer loop
      vertex -1.53073 -3.69552 28
      vertex -3.92314 0.780361 28
      vertex -2.22228 -3.32588 28
    endloop
  endfacet
  facet normal 0 0 1
    outer loop
      vertex -0.780361 -3.92314 28
      vertex -3.92314 0.780361 28
      vertex -1.53073 -3.69552 28
    endloop
  endfacet
  facet normal 0 0 1
    outer loop
      vertex 0 -4 28
      vertex -3.92314 0.780361 28
      vertex -0.780361 -3.92314 28
    endloop
  endfacet
  facet normal 0 0 1
    outer loop
      vertex 0.780361 -3.92314 28
      vertex -3.92314 0.780361 28
      vertex 0 -4 28
    endloop
  endfacet
  facet normal 0 0 1
    outer loop
      vertex 1.53073 -3.69552 28
      vertex -3.92314 0.780361 28
      vertex 0.780361 -3.92314 28
    endloop
  endfacet
  facet normal 0 0 1
    outer loop
      vertex 2.22228 -3.32588 28
      vertex -3.92314 0.780361 28
      vertex 1.53073 -3.69552 28
    endloop
  endfacet
  facet normal 0 0 1
    outer loop
      vertex 2.82843 -2.82843 28
      vertex -3.92314 0.780361 28
      vertex 2.22228 -3.32588 28
    endloop
  endfacet
  facet normal 0 0 1
    outer loop
      vertex 3.32588 -2.22228 28
      vertex -3.92314 0.780361 28
      vertex 2.82843 -2.82843 28
    endloop
  endfacet
  facet normal 0 0 1
    outer loop
      vertex 3.69552 -1.53073 28
      vertex -3.92314 0.780361 28
      vertex 3.32588 -2.22228 28
    endloop
  endfacet
  facet normal 0 0 1
    outer loop
      vertex 3.92314 -0.780361 28
      vertex -3.92314 0.780361 28
      vertex 3.69552 -1.53073 28
    endloop
  endfacet
  facet normal 0 0 1
    outer loop
      vertex 4 0 28
      vertex -3.92314 0.780361 28
      vertex 3.92314 -0.780361 28
    endloop
  endfacet
  facet normal 0 0 1
    outer loop
      vertex 3.92314 0.780361 28
      vertex -3.92314 0.780361 28
      vertex 4 0 28
    endloop
  endfacet
  facet normal 0 0 1
    outer loop
      vertex 3.69552 1.53073 28
      vertex -3.92314 0.780361 28
      vertex 3.92314 0.780361 28
    endloop
  endfacet
  facet normal 0 0 1
    outer loop
      vertex 3.32588 2.22228 28
      vertex -3.92314 0.780361 28
      vertex 3.69552 1.53073 28
    endloop
  endfacet
  facet normal 0 0 1
    outer loop
      vertex 2.82843 2.82843 28
      vertex -3.92314 0.780361 28
      vertex 3.32588 2.22228 28
    endloop
  endfacet
  facet normal 0 0 1
    outer loop
      vertex 2.22228 3.32588 28
      vertex -3.92314 0.780361 28
      vertex 2.82843 2.82843 28
    endloop
  endfacet
  facet normal 0 0 1
    outer loop
      vertex 1.53073 3.69552 28
      vertex -3.92314 0.780361 28
      vertex 2.22228 3.32588 28
    endloop
  endfacet
  facet normal 0 0 1
    outer loop
      vertex 0.780361 3.92314 28
      vertex -3.92314 0.780361 28
      vertex 1.53073 3.69552 28
    endloop
  endfacet
  facet normal 0 0 1
    outer loop
      vertex 0 4 28
      vertex -3.92314 0.780361 28
      vertex 0.780361 3.92314 28
    endloop
  endfacet
  facet normal 0 0 1
    outer loop
      vertex -0.780361 3.92314 28
      vertex -3.92314 0.780361 28
      vertex 0 4 28
    endloop
  endfacet
  facet normal 0 0 1
    outer loop
      vertex -1.53073 3.69552 28
      vertex -3.92314 0.780361 28
      vertex -0.780361 3.92314 28
    endloop
  endfacet
  facet normal 0 0 1
    outer loop
      vertex -2.22228 3.32588 28
      vertex -3.92314 0.780361 28
      vertex -1.53073 3.69552 28
    endloop
  endfacet
  facet normal 0 0 1
    outer loop
      vertex -2.82843 2.82843 28
      vertex -3.92314 0.780361 28
      vertex -2.22228 3.32588 28
    endloop
  endfacet
  facet normal 0 0 1
    outer loop
      vertex -3.32588 2.22228 28
      vertex -3.92314 0.780361 28
      vertex -2.82843 2.82843 28
    endloop
  endfacet
  facet normal 0 0 1
    outer loop
      vertex -3.69552 1.53073 28
      vertex -3.92314 0.780361 28
      vertex -3.32588 2.22228 28
    endloop
  endfacet
endsolid OpenSCAD_Model
