solid OpenSCAD_Model
  facet normal -1 0 0
    outer loop
      vertex 4 13.4849 13.5151
      vertex 4 20 15
      vertex 4 20 3
    endloop
  endfacet
  facet normal -1 0 -0
    outer loop
      vertex 4 13.7461 13.8333
      vertex 4 20 15
      vertex 4 13.4849 13.5151
    endloop
  endfacet
  facet normal -1 0 -0
    outer loop
      vertex 4 14.0596 14.5903
      vertex 4 20 15
      vertex 4 13.9401 14.1964
    endloop
  endfacet
  facet normal -1 0 -0
    outer loop
      vertex 4 14.1 15
      vertex 4 20 15
      vertex 4 14.0596 14.5903
    endloop
  endfacet
  facet normal -1 0 0
    outer loop
      vertex 4 14.0596 15.4097
      vertex 4 19.9615 15.7841
      vertex 4 14.1 15
    endloop
  endfacet
  facet normal -1 -0 0
    outer loop
      vertex 4 19.9615 15.7841
      vertex 4 14.0596 15.4097
      vertex 4 19.8463 16.5607
    endloop
  endfacet
  facet normal -1 -0 0
    outer loop
      vertex 4 19.8463 16.5607
      vertex 4 14.0596 15.4097
      vertex 4 19.6555 17.3223
    endloop
  endfacet
  facet normal -1 -0 0
    outer loop
      vertex 4 19.6555 17.3223
      vertex 4 13.9401 15.8036
      vertex 4 19.391 18.0615
    endloop
  endfacet
  facet normal -1 -0 0
    outer loop
      vertex 4 19.391 18.0615
      vertex 4 13.9401 15.8036
      vertex 4 19.0554 18.7712
    endloop
  endfacet
  facet normal -1 0 0
    outer loop
      vertex 4 13.7461 16.1667
      vertex 4 19.0554 18.7712
      vertex 4 13.9401 15.8036
    endloop
  endfacet
  facet normal -1 -0 0
    outer loop
      vertex 4 18.6518 19.4446
      vertex 4 13.7461 16.1667
      vertex 4 18.1841 20.0751
    endloop
  endfacet
  facet normal -1 0 0
    outer loop
      vertex 4 13.4849 16.4849
      vertex 4 18.1841 20.0751
      vertex 4 13.7461 16.1667
    endloop
  endfacet
  facet normal -1 -0 0
    outer loop
      vertex 4 18.1841 20.0751
      vertex 4 13.4849 16.4849
      vertex 4 17.6569 20.6569
    endloop
  endfacet
  facet normal -1 -0 0
    outer loop
      vertex 4 17.6569 20.6569
      vertex 4 13.4849 16.4849
      vertex 4 17.0751 21.1841
    endloop
  endfacet
  facet normal -1 -0 0
    outer loop
      vertex 4 19.0554 18.7712
      vertex 4 13.7461 16.1667
      vertex 4 18.6518 19.4446
    endloop
  endfacet
  facet normal -1 0 0
    outer loop
      vertex 4 13.9401 15.8036
      vertex 4 19.6555 17.3223
      vertex 4 14.0596 15.4097
    endloop
  endfacet
  facet normal -1 0 0
    outer loop
      vertex 4 20 15
      vertex 4 14.1 15
      vertex 4 19.9615 15.7841
    endloop
  endfacet
  facet normal -1 0 -0
    outer loop
      vertex 4 13.9401 14.1964
      vertex 4 20 15
      vertex 4 13.7461 13.8333
    endloop
  endfacet
  facet normal -1 0 0
    outer loop
      vertex 4 20 3
      vertex 4 13.1667 13.2539
      vertex 4 13.4849 13.5151
    endloop
  endfacet
  facet normal -1 0 0
    outer loop
      vertex 4 20 3
      vertex 4 12.8036 13.0599
      vertex 4 13.1667 13.2539
    endloop
  endfacet
  facet normal -1 0 0
    outer loop
      vertex 4 20 3
      vertex 4 12.4097 12.9404
      vertex 4 12.8036 13.0599
    endloop
  endfacet
  facet normal -1 0 0
    outer loop
      vertex 4 20 3
      vertex 4 12 12.9
      vertex 4 12.4097 12.9404
    endloop
  endfacet
  facet normal -1 0 0
    outer loop
      vertex 4 4 3
      vertex 4 12 12.9
      vertex 4 20 3
    endloop
  endfacet
  facet normal -1 -0 0
    outer loop
      vertex 4 12 12.9
      vertex 4 4 3
      vertex 4 11.5903 12.9404
    endloop
  endfacet
  facet normal -1 -0 0
    outer loop
      vertex 4 11.5903 12.9404
      vertex 4 4 3
      vertex 4 11.1964 13.0599
    endloop
  endfacet
  facet normal -1 -0 0
    outer loop
      vertex 4 11.1964 13.0599
      vertex 4 4 3
      vertex 4 10.8333 13.2539
    endloop
  endfacet
  facet normal -1 0 0
    outer loop
      vertex 4 11.1964 16.9401
      vertex 4 8.93853 22.391
      vertex 4 9.67772 22.6555
    endloop
  endfacet
  facet normal -1 0 0
    outer loop
      vertex 4 4 15
      vertex 4 9.9 15
      vertex 4 9.94035 14.5903
    endloop
  endfacet
  facet normal -1 0 0
    outer loop
      vertex 4 9.94035 15.4097
      vertex 4 8.22883 22.0554
      vertex 4 8.93853 22.391
    endloop
  endfacet
  facet normal -1 0 0
    outer loop
      vertex 4 9.94035 15.4097
      vertex 4 7.55544 21.6518
      vertex 4 8.22883 22.0554
    endloop
  endfacet
  facet normal -1 0 0
    outer loop
      vertex 4 4 15
      vertex 4 9.94035 14.5903
      vertex 4 10.0599 14.1964
    endloop
  endfacet
  facet normal -1 0 0
    outer loop
      vertex 4 9.94035 15.4097
      vertex 4 6.92485 21.1841
      vertex 4 7.55544 21.6518
    endloop
  endfacet
  facet normal -1 0 0
    outer loop
      vertex 4 9.94035 15.4097
      vertex 4 6.34315 20.6569
      vertex 4 6.92485 21.1841
    endloop
  endfacet
  facet normal -1 0 0
    outer loop
      vertex 4 4 15
      vertex 4 10.0599 14.1964
      vertex 4 10.2539 13.8333
    endloop
  endfacet
  facet normal -1 0 0
    outer loop
      vertex 4 9.94035 15.4097
      vertex 4 5.81592 20.0751
      vertex 4 6.34315 20.6569
    endloop
  endfacet
  facet normal -1 0 0
    outer loop
      vertex 4 9.94035 15.4097
      vertex 4 5.34824 19.4446
      vertex 4 5.81592 20.0751
    endloop
  endfacet
  facet normal -1 0 0
    outer loop
      vertex 4 4 15
      vertex 4 10.2539 13.8333
      vertex 4 10.5151 13.5151
    endloop
  endfacet
  facet normal -1 0 0
    outer loop
      vertex 4 9.94035 15.4097
      vertex 4 4.94463 18.7712
      vertex 4 5.34824 19.4446
    endloop
  endfacet
  facet normal -1 -0 0
    outer loop
      vertex 4 10.8333 13.2539
      vertex 4 4 3
      vertex 4 10.5151 13.5151
    endloop
  endfacet
  facet normal -1 0 0
    outer loop
      vertex 4 9.9 15
      vertex 4 4 15
      vertex 4 4.03852 15.7841
    endloop
  endfacet
  facet normal -1 0 0
    outer loop
      vertex 4 9.94035 15.4097
      vertex 4 4.60896 18.0615
      vertex 4 4.94463 18.7712
    endloop
  endfacet
  facet normal -1 0 0
    outer loop
      vertex 4 9.94035 15.4097
      vertex 4 4.34448 17.3223
      vertex 4 4.60896 18.0615
    endloop
  endfacet
  facet normal -1 0 0
    outer loop
      vertex 4 9.94035 15.4097
      vertex 4 4.15372 16.5607
      vertex 4 4.34448 17.3223
    endloop
  endfacet
  facet normal -1 -0 0
    outer loop
      vertex 4 10.5151 13.5151
      vertex 4 4 3
      vertex 4 4 15
    endloop
  endfacet
  facet normal -1 0 0
    outer loop
      vertex 4 9.94035 15.4097
      vertex 4 4.03852 15.7841
      vertex 4 4.15372 16.5607
    endloop
  endfacet
  facet normal -1 0 0
    outer loop
      vertex 4 13.1667 16.7461
      vertex 4 17.0751 21.1841
      vertex 4 13.4849 16.4849
    endloop
  endfacet
  facet normal -1 -0 0
    outer loop
      vertex 4 17.0751 21.1841
      vertex 4 13.1667 16.7461
      vertex 4 16.4446 21.6518
    endloop
  endfacet
  facet normal -1 -0 0
    outer loop
      vertex 4 16.4446 21.6518
      vertex 4 13.1667 16.7461
      vertex 4 15.7712 22.0554
    endloop
  endfacet
  facet normal -1 0 0
    outer loop
      vertex 4 12.8036 16.9401
      vertex 4 15.7712 22.0554
      vertex 4 13.1667 16.7461
    endloop
  endfacet
  facet normal -1 -0 0
    outer loop
      vertex 4 15.7712 22.0554
      vertex 4 12.8036 16.9401
      vertex 4 15.0615 22.391
    endloop
  endfacet
  facet normal -1 -0 0
    outer loop
      vertex 4 15.0615 22.391
      vertex 4 12.8036 16.9401
      vertex 4 14.3223 22.6555
    endloop
  endfacet
  facet normal -1 0 0
    outer loop
      vertex 4 12.4097 17.0596
      vertex 4 14.3223 22.6555
      vertex 4 12.8036 16.9401
    endloop
  endfacet
  facet normal -1 -0 0
    outer loop
      vertex 4 14.3223 22.6555
      vertex 4 12.4097 17.0596
      vertex 4 13.5607 22.8463
    endloop
  endfacet
  facet normal -1 -0 0
    outer loop
      vertex 4 13.5607 22.8463
      vertex 4 12.4097 17.0596
      vertex 4 12.7841 22.9615
    endloop
  endfacet
  facet normal -1 0 0
    outer loop
      vertex 4 12 17.1
      vertex 4 12.7841 22.9615
      vertex 4 12.4097 17.0596
    endloop
  endfacet
  facet normal -1 0 0
    outer loop
      vertex 4 12 17.1
      vertex 4 12 23
      vertex 4 12.7841 22.9615
    endloop
  endfacet
  facet normal -1 0 0
    outer loop
      vertex 4 11.2159 22.9615
      vertex 4 12 17.1
      vertex 4 11.5903 17.0596
    endloop
  endfacet
  facet normal -1 0 0
    outer loop
      vertex 4 12 17.1
      vertex 4 11.2159 22.9615
      vertex 4 12 23
    endloop
  endfacet
  facet normal -1 0 0
    outer loop
      vertex 4 9.67772 22.6555
      vertex 4 11.5903 17.0596
      vertex 4 11.1964 16.9401
    endloop
  endfacet
  facet normal -1 0 0
    outer loop
      vertex 4 8.93853 22.391
      vertex 4 11.1964 16.9401
      vertex 4 10.8333 16.7461
    endloop
  endfacet
  facet normal -1 0 0
    outer loop
      vertex 4 8.93853 22.391
      vertex 4 10.8333 16.7461
      vertex 4 10.5151 16.4849
    endloop
  endfacet
  facet normal -1 0 0
    outer loop
      vertex 4 11.5903 17.0596
      vertex 4 10.4393 22.8463
      vertex 4 11.2159 22.9615
    endloop
  endfacet
  facet normal -1 0 0
    outer loop
      vertex 4 8.93853 22.391
      vertex 4 10.5151 16.4849
      vertex 4 10.2539 16.1667
    endloop
  endfacet
  facet normal -1 0 0
    outer loop
      vertex 4 8.93853 22.391
      vertex 4 10.2539 16.1667
      vertex 4 10.0599 15.8036
    endloop
  endfacet
  facet normal -1 0 0
    outer loop
      vertex 4 8.93853 22.391
      vertex 4 10.0599 15.8036
      vertex 4 9.94035 15.4097
    endloop
  endfacet
  facet normal -1 0 0
    outer loop
      vertex 4 4.03852 15.7841
      vertex 4 9.94035 15.4097
      vertex 4 9.9 15
    endloop
  endfacet
  facet normal -1 0 0
    outer loop
      vertex 4 11.5903 17.0596
      vertex 4 9.67772 22.6555
      vertex 4 10.4393 22.8463
    endloop
  endfacet
  facet normal 1 -0 0
    outer loop
      vertex 20 4 6.5
      vertex 20 20 3
      vertex 20 20 6.5
    endloop
  endfacet
  facet normal 1 0 0
    outer loop
      vertex 20 20 3
      vertex 20 4 6.5
      vertex 20 4 3
    endloop
  endfacet
  facet normal 0 1 -0
    outer loop
      vertex 20 20 3
      vertex 15.8 20 6.5
      vertex 20 20 6.5
    endloop
  endfacet
  facet normal 0 1 0
    outer loop
      vertex 15.8 20 6.5
      vertex 20 20 3
      vertex 12.2 20 6.5
    endloop
  endfacet
  facet normal 0 1 0
    outer loop
      vertex 4 20 3
      vertex 12.2 20 6.5
      vertex 20 20 3
    endloop
  endfacet
  facet normal 0 1 -0
    outer loop
      vertex 15.8 20 6.5
      vertex 12.2 20 15
      vertex 15.8 20 15
    endloop
  endfacet
  facet normal 0 1 0
    outer loop
      vertex 12.2 20 15
      vertex 15.8 20 6.5
      vertex 12.2 20 6.5
    endloop
  endfacet
  facet normal 0 1 -0
    outer loop
      vertex 7.8 20 6.5
      vertex 4 20 15
      vertex 7.8 20 15
    endloop
  endfacet
  facet normal 0 1 0
    outer loop
      vertex 7.8 20 6.5
      vertex 4 20 3
      vertex 4 20 15
    endloop
  endfacet
  facet normal 0 1 0
    outer loop
      vertex 12.2 20 6.5
      vertex 4 20 3
      vertex 7.8 20 6.5
    endloop
  endfacet
  facet normal 0 0 1
    outer loop
      vertex 24 24 3
      vertex 20 20 3
      vertex 24 0 3
    endloop
  endfacet
  facet normal 0 0 1
    outer loop
      vertex 24 24 3
      vertex 4 20 3
      vertex 20 20 3
    endloop
  endfacet
  facet normal 0 0 1
    outer loop
      vertex 4 20 3
      vertex 0 24 3
      vertex 4 4 3
    endloop
  endfacet
  facet normal -0 0 1
    outer loop
      vertex 0 24 3
      vertex 4 20 3
      vertex 24 24 3
    endloop
  endfacet
  facet normal -0 0 1
    outer loop
      vertex 20 4 3
      vertex 24 0 3
      vertex 20 20 3
    endloop
  endfacet
  facet normal -0 0 1
    outer loop
      vertex 4 4 3
      vertex 24 0 3
      vertex 20 4 3
    endloop
  endfacet
  facet normal 0 0 1
    outer loop
      vertex 4 4 3
      vertex 0 0 3
      vertex 24 0 3
    endloop
  endfacet
  facet normal 0 0 1
    outer loop
      vertex 0 0 3
      vertex 4 4 3
      vertex 0 24 3
    endloop
  endfacet
  facet normal 0 -1 0
    outer loop
      vertex 4 4 15
      vertex 7.8 4 6.5
      vertex 7.8 4 15
    endloop
  endfacet
  facet normal 0 -1 0
    outer loop
      vertex 4 4 3
      vertex 12.2 4 6.5
      vertex 7.8 4 6.5
    endloop
  endfacet
  facet normal 0 -1 0
    outer loop
      vertex 20 4 3
      vertex 12.2 4 6.5
      vertex 4 4 3
    endloop
  endfacet
  facet normal 0 -1 0
    outer loop
      vertex 4 4 3
      vertex 7.8 4 6.5
      vertex 4 4 15
    endloop
  endfacet
  facet normal 0 -1 0
    outer loop
      vertex 12.2 4 6.5
      vertex 20 4 3
      vertex 15.8 4 6.5
    endloop
  endfacet
  facet normal 0 -1 0
    outer loop
      vertex 15.8 4 6.5
      vertex 20 4 3
      vertex 20 4 6.5
    endloop
  endfacet
  facet normal 0 -1 0
    outer loop
      vertex 12.2 4 6.5
      vertex 15.8 4 15
      vertex 12.2 4 15
    endloop
  endfacet
  facet normal 0 -1 -0
    outer loop
      vertex 15.8 4 15
      vertex 12.2 4 6.5
      vertex 15.8 4 6.5
    endloop
  endfacet
  facet normal 0 0.941545 0.336888
    outer loop
      vertex 7.8 19.6555 17.3223
      vertex 4 19.391 18.0615
      vertex 7.8 19.391 18.0615
    endloop
  endfacet
  facet normal 0 0.941545 0.336888
    outer loop
      vertex 4 19.391 18.0615
      vertex 7.8 19.6555 17.3223
      vertex 4 19.6555 17.3223
    endloop
  endfacet
  facet normal 0 0.941545 0.336888
    outer loop
      vertex 15.8 19.6555 17.3223
      vertex 12.2 19.391 18.0615
      vertex 15.8 19.391 18.0615
    endloop
  endfacet
  facet normal 0 0.941545 0.336888
    outer loop
      vertex 12.2 19.391 18.0615
      vertex 15.8 19.6555 17.3223
      vertex 12.2 19.6555 17.3223
    endloop
  endfacet
  facet normal -0 0.427556 0.903989
    outer loop
      vertex 4 15.7712 22.0554
      vertex 7.8 15.0615 22.391
      vertex 7.8 15.7712 22.0554
    endloop
  endfacet
  facet normal 0 0.427556 0.903989
    outer loop
      vertex 7.8 15.0615 22.391
      vertex 4 15.7712 22.0554
      vertex 4 15.0615 22.391
    endloop
  endfacet
  facet normal -0 0.427556 0.903989
    outer loop
      vertex 12.2 15.7712 22.0554
      vertex 15.8 15.0615 22.391
      vertex 15.8 15.7712 22.0554
    endloop
  endfacet
  facet normal 0 0.427556 0.903989
    outer loop
      vertex 15.8 15.0615 22.391
      vertex 12.2 15.7712 22.0554
      vertex 12.2 15.0615 22.391
    endloop
  endfacet
  facet normal 0 0.803207 0.5957
    outer loop
      vertex 7.8 18.6518 19.4446
      vertex 4 18.1841 20.0751
      vertex 7.8 18.1841 20.0751
    endloop
  endfacet
  facet normal 0 0.803207 0.5957
    outer loop
      vertex 4 18.1841 20.0751
      vertex 7.8 18.6518 19.4446
      vertex 4 18.6518 19.4446
    endloop
  endfacet
  facet normal 0 0.803207 0.5957
    outer loop
      vertex 15.8 18.6518 19.4446
      vertex 12.2 18.1841 20.0751
      vertex 15.8 18.1841 20.0751
    endloop
  endfacet
  facet normal 0 0.803207 0.5957
    outer loop
      vertex 12.2 18.1841 20.0751
      vertex 15.8 18.6518 19.4446
      vertex 12.2 18.6518 19.4446
    endloop
  endfacet
  facet normal 0 -0.146729 0.989177
    outer loop
      vertex 4 11.2159 22.9615
      vertex 7.8 10.4393 22.8463
      vertex 7.8 11.2159 22.9615
    endloop
  endfacet
  facet normal 0 -0.146729 0.989177
    outer loop
      vertex 7.8 10.4393 22.8463
      vertex 4 11.2159 22.9615
      vertex 4 10.4393 22.8463
    endloop
  endfacet
  facet normal 0 -0.146729 0.989177
    outer loop
      vertex 12.2 11.2159 22.9615
      vertex 15.8 10.4393 22.8463
      vertex 15.8 11.2159 22.9615
    endloop
  endfacet
  facet normal 0 -0.146729 0.989177
    outer loop
      vertex 15.8 10.4393 22.8463
      vertex 12.2 11.2159 22.9615
      vertex 12.2 10.4393 22.8463
    endloop
  endfacet
  facet normal -0 0.0490684 0.998795
    outer loop
      vertex 4 12.7841 22.9615
      vertex 7.8 12 23
      vertex 7.8 12.7841 22.9615
    endloop
  endfacet
  facet normal 0 0.0490684 0.998795
    outer loop
      vertex 7.8 12 23
      vertex 4 12.7841 22.9615
      vertex 4 12 23
    endloop
  endfacet
  facet normal -0 0.0490684 0.998795
    outer loop
      vertex 12.2 12.7841 22.9615
      vertex 15.8 12 23
      vertex 15.8 12.7841 22.9615
    endloop
  endfacet
  facet normal 0 0.0490684 0.998795
    outer loop
      vertex 15.8 12 23
      vertex 12.2 12.7841 22.9615
      vertex 12.2 12 23
    endloop
  endfacet
  facet normal -0 0.242983 0.970031
    outer loop
      vertex 4 14.3223 22.6555
      vertex 7.8 13.5607 22.8463
      vertex 7.8 14.3223 22.6555
    endloop
  endfacet
  facet normal 0 0.242983 0.970031
    outer loop
      vertex 7.8 13.5607 22.8463
      vertex 4 14.3223 22.6555
      vertex 4 13.5607 22.8463
    endloop
  endfacet
  facet normal -0 0.242983 0.970031
    outer loop
      vertex 12.2 14.3223 22.6555
      vertex 15.8 13.5607 22.8463
      vertex 15.8 14.3223 22.6555
    endloop
  endfacet
  facet normal 0 0.242983 0.970031
    outer loop
      vertex 15.8 13.5607 22.8463
      vertex 12.2 14.3223 22.6555
      vertex 12.2 13.5607 22.8463
    endloop
  endfacet
  facet normal -0 0.67156 0.740951
    outer loop
      vertex 4 17.6569 20.6569
      vertex 7.8 17.0751 21.1841
      vertex 7.8 17.6569 20.6569
    endloop
  endfacet
  facet normal 0 0.67156 0.740951
    outer loop
      vertex 7.8 17.0751 21.1841
      vertex 4 17.6569 20.6569
      vertex 4 17.0751 21.1841
    endloop
  endfacet
  facet normal -0 0.67156 0.740951
    outer loop
      vertex 12.2 17.6569 20.6569
      vertex 15.8 17.0751 21.1841
      vertex 15.8 17.6569 20.6569
    endloop
  endfacet
  facet normal 0 0.67156 0.740951
    outer loop
      vertex 15.8 17.0751 21.1841
      vertex 12.2 17.6569 20.6569
      vertex 12.2 17.0751 21.1841
    endloop
  endfacet
  facet normal -0 0.5957 0.803207
    outer loop
      vertex 4 17.0751 21.1841
      vertex 7.8 16.4446 21.6518
      vertex 7.8 17.0751 21.1841
    endloop
  endfacet
  facet normal 0 0.5957 0.803207
    outer loop
      vertex 7.8 16.4446 21.6518
      vertex 4 17.0751 21.1841
      vertex 4 16.4446 21.6518
    endloop
  endfacet
  facet normal -0 0.5957 0.803207
    outer loop
      vertex 12.2 17.0751 21.1841
      vertex 15.8 16.4446 21.6518
      vertex 15.8 17.0751 21.1841
    endloop
  endfacet
  facet normal 0 0.5957 0.803207
    outer loop
      vertex 15.8 16.4446 21.6518
      vertex 12.2 17.0751 21.1841
      vertex 12.2 16.4446 21.6518
    endloop
  endfacet
  facet normal 0 0.998795 0.0490684
    outer loop
      vertex 7.8 20 15
      vertex 4 19.9615 15.7841
      vertex 7.8 19.9615 15.7841
    endloop
  endfacet
  facet normal 0 0.998795 0.0490684
    outer loop
      vertex 4 19.9615 15.7841
      vertex 7.8 20 15
      vertex 4 20 15
    endloop
  endfacet
  facet normal 0 0.998795 0.0490684
    outer loop
      vertex 15.8 20 15
      vertex 12.2 19.9615 15.7841
      vertex 15.8 19.9615 15.7841
    endloop
  endfacet
  facet normal 0 0.998795 0.0490684
    outer loop
      vertex 12.2 19.9615 15.7841
      vertex 15.8 20 15
      vertex 12.2 20 15
    endloop
  endfacet
  facet normal 0 0.989177 0.146729
    outer loop
      vertex 7.8 19.9615 15.7841
      vertex 4 19.8463 16.5607
      vertex 7.8 19.8463 16.5607
    endloop
  endfacet
  facet normal 0 0.989177 0.146729
    outer loop
      vertex 4 19.8463 16.5607
      vertex 7.8 19.9615 15.7841
      vertex 4 19.9615 15.7841
    endloop
  endfacet
  facet normal 0 0.989177 0.146729
    outer loop
      vertex 15.8 19.9615 15.7841
      vertex 12.2 19.8463 16.5607
      vertex 15.8 19.8463 16.5607
    endloop
  endfacet
  facet normal 0 0.989177 0.146729
    outer loop
      vertex 12.2 19.8463 16.5607
      vertex 15.8 19.9615 15.7841
      vertex 12.2 19.9615 15.7841
    endloop
  endfacet
  facet normal 0 0.903989 0.427555
    outer loop
      vertex 7.8 19.391 18.0615
      vertex 4 19.0554 18.7712
      vertex 7.8 19.0554 18.7712
    endloop
  endfacet
  facet normal 0 0.903989 0.427555
    outer loop
      vertex 4 19.0554 18.7712
      vertex 7.8 19.391 18.0615
      vertex 4 19.391 18.0615
    endloop
  endfacet
  facet normal 0 0.903989 0.427555
    outer loop
      vertex 15.8 19.391 18.0615
      vertex 12.2 19.0554 18.7712
      vertex 15.8 19.0554 18.7712
    endloop
  endfacet
  facet normal 0 0.903989 0.427555
    outer loop
      vertex 12.2 19.0554 18.7712
      vertex 15.8 19.391 18.0615
      vertex 12.2 19.391 18.0615
    endloop
  endfacet
  facet normal 0 0.857728 0.514104
    outer loop
      vertex 7.8 19.0554 18.7712
      vertex 4 18.6518 19.4446
      vertex 7.8 18.6518 19.4446
    endloop
  endfacet
  facet normal 0 0.857728 0.514104
    outer loop
      vertex 4 18.6518 19.4446
      vertex 7.8 19.0554 18.7712
      vertex 4 19.0554 18.7712
    endloop
  endfacet
  facet normal 0 0.857728 0.514104
    outer loop
      vertex 15.8 19.0554 18.7712
      vertex 12.2 18.6518 19.4446
      vertex 15.8 18.6518 19.4446
    endloop
  endfacet
  facet normal 0 0.857728 0.514104
    outer loop
      vertex 12.2 18.6518 19.4446
      vertex 15.8 19.0554 18.7712
      vertex 12.2 19.0554 18.7712
    endloop
  endfacet
  facet normal 0 0.740951 0.67156
    outer loop
      vertex 7.8 18.1841 20.0751
      vertex 4 17.6569 20.6569
      vertex 7.8 17.6569 20.6569
    endloop
  endfacet
  facet normal 0 0.740951 0.67156
    outer loop
      vertex 4 17.6569 20.6569
      vertex 7.8 18.1841 20.0751
      vertex 4 18.1841 20.0751
    endloop
  endfacet
  facet normal 0 0.740951 0.67156
    outer loop
      vertex 15.8 18.1841 20.0751
      vertex 12.2 17.6569 20.6569
      vertex 15.8 17.6569 20.6569
    endloop
  endfacet
  facet normal 0 0.740951 0.67156
    outer loop
      vertex 12.2 17.6569 20.6569
      vertex 15.8 18.1841 20.0751
      vertex 12.2 18.1841 20.0751
    endloop
  endfacet
  facet normal -0 0.146729 0.989177
    outer loop
      vertex 4 13.5607 22.8463
      vertex 7.8 12.7841 22.9615
      vertex 7.8 13.5607 22.8463
    endloop
  endfacet
  facet normal 0 0.146729 0.989177
    outer loop
      vertex 7.8 12.7841 22.9615
      vertex 4 13.5607 22.8463
      vertex 4 12.7841 22.9615
    endloop
  endfacet
  facet normal -0 0.146729 0.989177
    outer loop
      vertex 12.2 13.5607 22.8463
      vertex 15.8 12.7841 22.9615
      vertex 15.8 13.5607 22.8463
    endloop
  endfacet
  facet normal 0 0.146729 0.989177
    outer loop
      vertex 15.8 12.7841 22.9615
      vertex 12.2 13.5607 22.8463
      vertex 12.2 12.7841 22.9615
    endloop
  endfacet
  facet normal -0 0.336888 0.941545
    outer loop
      vertex 4 15.0615 22.391
      vertex 7.8 14.3223 22.6555
      vertex 7.8 15.0615 22.391
    endloop
  endfacet
  facet normal 0 0.336888 0.941545
    outer loop
      vertex 7.8 14.3223 22.6555
      vertex 4 15.0615 22.391
      vertex 4 14.3223 22.6555
    endloop
  endfacet
  facet normal -0 0.336888 0.941545
    outer loop
      vertex 12.2 15.0615 22.391
      vertex 15.8 14.3223 22.6555
      vertex 15.8 15.0615 22.391
    endloop
  endfacet
  facet normal 0 0.336888 0.941545
    outer loop
      vertex 15.8 14.3223 22.6555
      vertex 12.2 15.0615 22.391
      vertex 12.2 14.3223 22.6555
    endloop
  endfacet
  facet normal -0 0.514104 0.857728
    outer loop
      vertex 4 16.4446 21.6518
      vertex 7.8 15.7712 22.0554
      vertex 7.8 16.4446 21.6518
    endloop
  endfacet
  facet normal 0 0.514104 0.857728
    outer loop
      vertex 7.8 15.7712 22.0554
      vertex 4 16.4446 21.6518
      vertex 4 15.7712 22.0554
    endloop
  endfacet
  facet normal -0 0.514104 0.857728
    outer loop
      vertex 12.2 16.4446 21.6518
      vertex 15.8 15.7712 22.0554
      vertex 15.8 16.4446 21.6518
    endloop
  endfacet
  facet normal 0 0.514104 0.857728
    outer loop
      vertex 15.8 15.7712 22.0554
      vertex 12.2 16.4446 21.6518
      vertex 12.2 15.7712 22.0554
    endloop
  endfacet
  facet normal 0 0.970031 0.242983
    outer loop
      vertex 7.8 19.8463 16.5607
      vertex 4 19.6555 17.3223
      vertex 7.8 19.6555 17.3223
    endloop
  endfacet
  facet normal 0 0.970031 0.242983
    outer loop
      vertex 4 19.6555 17.3223
      vertex 7.8 19.8463 16.5607
      vertex 4 19.8463 16.5607
    endloop
  endfacet
  facet normal 0 0.970031 0.242983
    outer loop
      vertex 15.8 19.8463 16.5607
      vertex 12.2 19.6555 17.3223
      vertex 15.8 19.6555 17.3223
    endloop
  endfacet
  facet normal 0 0.970031 0.242983
    outer loop
      vertex 12.2 19.6555 17.3223
      vertex 15.8 19.8463 16.5607
      vertex 12.2 19.8463 16.5607
    endloop
  endfacet
  facet normal 0 -0.740951 0.67156
    outer loop
      vertex 4 5.81592 20.0751
      vertex 7.8 6.34315 20.6569
      vertex 4 6.34315 20.6569
    endloop
  endfacet
  facet normal 0 -0.740951 0.67156
    outer loop
      vertex 7.8 6.34315 20.6569
      vertex 4 5.81592 20.0751
      vertex 7.8 5.81592 20.0751
    endloop
  endfacet
  facet normal 0 -0.740951 0.67156
    outer loop
      vertex 12.2 5.81592 20.0751
      vertex 15.8 6.34315 20.6569
      vertex 12.2 6.34315 20.6569
    endloop
  endfacet
  facet normal 0 -0.740951 0.67156
    outer loop
      vertex 15.8 6.34315 20.6569
      vertex 12.2 5.81592 20.0751
      vertex 15.8 5.81592 20.0751
    endloop
  endfacet
  facet normal 0 -0.903989 0.427555
    outer loop
      vertex 4 4.60896 18.0615
      vertex 7.8 4.94463 18.7712
      vertex 4 4.94463 18.7712
    endloop
  endfacet
  facet normal 0 -0.903989 0.427555
    outer loop
      vertex 7.8 4.94463 18.7712
      vertex 4 4.60896 18.0615
      vertex 7.8 4.60896 18.0615
    endloop
  endfacet
  facet normal 0 -0.903989 0.427555
    outer loop
      vertex 12.2 4.60896 18.0615
      vertex 15.8 4.94463 18.7712
      vertex 12.2 4.94463 18.7712
    endloop
  endfacet
  facet normal 0 -0.903989 0.427555
    outer loop
      vertex 15.8 4.94463 18.7712
      vertex 12.2 4.60896 18.0615
      vertex 15.8 4.60896 18.0615
    endloop
  endfacet
  facet normal 0 -0.0490683 0.998795
    outer loop
      vertex 4 12 23
      vertex 7.8 11.2159 22.9615
      vertex 7.8 12 23
    endloop
  endfacet
  facet normal 0 -0.0490683 0.998795
    outer loop
      vertex 7.8 11.2159 22.9615
      vertex 4 12 23
      vertex 4 11.2159 22.9615
    endloop
  endfacet
  facet normal 0 -0.0490683 0.998795
    outer loop
      vertex 12.2 12 23
      vertex 15.8 11.2159 22.9615
      vertex 15.8 12 23
    endloop
  endfacet
  facet normal 0 -0.0490683 0.998795
    outer loop
      vertex 15.8 11.2159 22.9615
      vertex 12.2 12 23
      vertex 12.2 11.2159 22.9615
    endloop
  endfacet
  facet normal 0 -0.336888 0.941545
    outer loop
      vertex 4 9.67772 22.6555
      vertex 7.8 8.93853 22.391
      vertex 7.8 9.67772 22.6555
    endloop
  endfacet
  facet normal 0 -0.336888 0.941545
    outer loop
      vertex 7.8 8.93853 22.391
      vertex 4 9.67772 22.6555
      vertex 4 8.93853 22.391
    endloop
  endfacet
  facet normal 0 -0.336888 0.941545
    outer loop
      vertex 12.2 9.67772 22.6555
      vertex 15.8 8.93853 22.391
      vertex 15.8 9.67772 22.6555
    endloop
  endfacet
  facet normal 0 -0.336888 0.941545
    outer loop
      vertex 15.8 8.93853 22.391
      vertex 12.2 9.67772 22.6555
      vertex 12.2 8.93853 22.391
    endloop
  endfacet
  facet normal 0 -0.671559 0.740951
    outer loop
      vertex 4 6.92485 21.1841
      vertex 7.8 6.34315 20.6569
      vertex 7.8 6.92485 21.1841
    endloop
  endfacet
  facet normal 0 -0.671559 0.740951
    outer loop
      vertex 7.8 6.34315 20.6569
      vertex 4 6.92485 21.1841
      vertex 4 6.34315 20.6569
    endloop
  endfacet
  facet normal 0 -0.671559 0.740951
    outer loop
      vertex 12.2 6.92485 21.1841
      vertex 15.8 6.34315 20.6569
      vertex 15.8 6.92485 21.1841
    endloop
  endfacet
  facet normal 0 -0.671559 0.740951
    outer loop
      vertex 15.8 6.34315 20.6569
      vertex 12.2 6.92485 21.1841
      vertex 12.2 6.34315 20.6569
    endloop
  endfacet
  facet normal 0 -0.803208 0.595699
    outer loop
      vertex 4 5.34824 19.4446
      vertex 7.8 5.81592 20.0751
      vertex 4 5.81592 20.0751
    endloop
  endfacet
  facet normal 0 -0.803208 0.595699
    outer loop
      vertex 7.8 5.81592 20.0751
      vertex 4 5.34824 19.4446
      vertex 7.8 5.34824 19.4446
    endloop
  endfacet
  facet normal 0 -0.803208 0.595699
    outer loop
      vertex 12.2 5.34824 19.4446
      vertex 15.8 5.81592 20.0751
      vertex 12.2 5.81592 20.0751
    endloop
  endfacet
  facet normal 0 -0.803208 0.595699
    outer loop
      vertex 15.8 5.81592 20.0751
      vertex 12.2 5.34824 19.4446
      vertex 15.8 5.34824 19.4446
    endloop
  endfacet
  facet normal 0 -0.941544 0.33689
    outer loop
      vertex 4 4.34448 17.3223
      vertex 7.8 4.60896 18.0615
      vertex 4 4.60896 18.0615
    endloop
  endfacet
  facet normal 0 -0.941544 0.33689
    outer loop
      vertex 7.8 4.60896 18.0615
      vertex 4 4.34448 17.3223
      vertex 7.8 4.34448 17.3223
    endloop
  endfacet
  facet normal 0 -0.941544 0.33689
    outer loop
      vertex 12.2 4.34448 17.3223
      vertex 15.8 4.60896 18.0615
      vertex 12.2 4.60896 18.0615
    endloop
  endfacet
  facet normal 0 -0.941544 0.33689
    outer loop
      vertex 15.8 4.60896 18.0615
      vertex 12.2 4.34448 17.3223
      vertex 15.8 4.34448 17.3223
    endloop
  endfacet
  facet normal 0 -0.970031 0.24298
    outer loop
      vertex 4 4.15372 16.5607
      vertex 7.8 4.34448 17.3223
      vertex 4 4.34448 17.3223
    endloop
  endfacet
  facet normal 0 -0.970031 0.24298
    outer loop
      vertex 7.8 4.34448 17.3223
      vertex 4 4.15372 16.5607
      vertex 7.8 4.15372 16.5607
    endloop
  endfacet
  facet normal 0 -0.970031 0.24298
    outer loop
      vertex 12.2 4.15372 16.5607
      vertex 15.8 4.34448 17.3223
      vertex 12.2 4.34448 17.3223
    endloop
  endfacet
  facet normal 0 -0.970031 0.24298
    outer loop
      vertex 15.8 4.34448 17.3223
      vertex 12.2 4.15372 16.5607
      vertex 15.8 4.15372 16.5607
    endloop
  endfacet
  facet normal 0 -0.857729 0.514103
    outer loop
      vertex 4 4.94463 18.7712
      vertex 7.8 5.34824 19.4446
      vertex 4 5.34824 19.4446
    endloop
  endfacet
  facet normal 0 -0.857729 0.514103
    outer loop
      vertex 7.8 5.34824 19.4446
      vertex 4 4.94463 18.7712
      vertex 7.8 4.94463 18.7712
    endloop
  endfacet
  facet normal 0 -0.857729 0.514103
    outer loop
      vertex 12.2 4.94463 18.7712
      vertex 15.8 5.34824 19.4446
      vertex 12.2 5.34824 19.4446
    endloop
  endfacet
  facet normal 0 -0.857729 0.514103
    outer loop
      vertex 15.8 5.34824 19.4446
      vertex 12.2 4.94463 18.7712
      vertex 15.8 4.94463 18.7712
    endloop
  endfacet
  facet normal 0 -0.242983 0.970031
    outer loop
      vertex 4 10.4393 22.8463
      vertex 7.8 9.67772 22.6555
      vertex 7.8 10.4393 22.8463
    endloop
  endfacet
  facet normal 0 -0.242983 0.970031
    outer loop
      vertex 7.8 9.67772 22.6555
      vertex 4 10.4393 22.8463
      vertex 4 9.67772 22.6555
    endloop
  endfacet
  facet normal 0 -0.242983 0.970031
    outer loop
      vertex 12.2 10.4393 22.8463
      vertex 15.8 9.67772 22.6555
      vertex 15.8 10.4393 22.8463
    endloop
  endfacet
  facet normal 0 -0.242983 0.970031
    outer loop
      vertex 15.8 9.67772 22.6555
      vertex 12.2 10.4393 22.8463
      vertex 12.2 9.67772 22.6555
    endloop
  endfacet
  facet normal 0 -0.5957 0.803207
    outer loop
      vertex 4 7.55544 21.6518
      vertex 7.8 6.92485 21.1841
      vertex 7.8 7.55544 21.6518
    endloop
  endfacet
  facet normal 0 -0.5957 0.803207
    outer loop
      vertex 7.8 6.92485 21.1841
      vertex 4 7.55544 21.6518
      vertex 4 6.92485 21.1841
    endloop
  endfacet
  facet normal 0 -0.5957 0.803207
    outer loop
      vertex 12.2 7.55544 21.6518
      vertex 15.8 6.92485 21.1841
      vertex 15.8 7.55544 21.6518
    endloop
  endfacet
  facet normal 0 -0.5957 0.803207
    outer loop
      vertex 15.8 6.92485 21.1841
      vertex 12.2 7.55544 21.6518
      vertex 12.2 6.92485 21.1841
    endloop
  endfacet
  facet normal 0 -0.514104 0.857728
    outer loop
      vertex 4 8.22883 22.0554
      vertex 7.8 7.55544 21.6518
      vertex 7.8 8.22883 22.0554
    endloop
  endfacet
  facet normal 0 -0.514104 0.857728
    outer loop
      vertex 7.8 7.55544 21.6518
      vertex 4 8.22883 22.0554
      vertex 4 7.55544 21.6518
    endloop
  endfacet
  facet normal 0 -0.514104 0.857728
    outer loop
      vertex 12.2 8.22883 22.0554
      vertex 15.8 7.55544 21.6518
      vertex 15.8 8.22883 22.0554
    endloop
  endfacet
  facet normal 0 -0.514104 0.857728
    outer loop
      vertex 15.8 7.55544 21.6518
      vertex 12.2 8.22883 22.0554
      vertex 12.2 7.55544 21.6518
    endloop
  endfacet
  facet normal 0 -0.427556 0.903989
    outer loop
      vertex 4 8.93853 22.391
      vertex 7.8 8.22883 22.0554
      vertex 7.8 8.93853 22.391
    endloop
  endfacet
  facet normal 0 -0.427556 0.903989
    outer loop
      vertex 7.8 8.22883 22.0554
      vertex 4 8.93853 22.391
      vertex 4 8.22883 22.0554
    endloop
  endfacet
  facet normal 0 -0.427556 0.903989
    outer loop
      vertex 12.2 8.93853 22.391
      vertex 15.8 8.22883 22.0554
      vertex 15.8 8.93853 22.391
    endloop
  endfacet
  facet normal 0 -0.427556 0.903989
    outer loop
      vertex 15.8 8.22883 22.0554
      vertex 12.2 8.93853 22.391
      vertex 12.2 8.22883 22.0554
    endloop
  endfacet
  facet normal 0 -0.998795 0.0490672
    outer loop
      vertex 4 4 15
      vertex 7.8 4.03852 15.7841
      vertex 4 4.03852 15.7841
    endloop
  endfacet
  facet normal 0 -0.998795 0.0490672
    outer loop
      vertex 7.8 4.03852 15.7841
      vertex 4 4 15
      vertex 7.8 4 15
    endloop
  endfacet
  facet normal 0 -0.998795 0.0490672
    outer loop
      vertex 12.2 4 15
      vertex 15.8 4.03852 15.7841
      vertex 12.2 4.03852 15.7841
    endloop
  endfacet
  facet normal 0 -0.998795 0.0490672
    outer loop
      vertex 15.8 4.03852 15.7841
      vertex 12.2 4 15
      vertex 15.8 4 15
    endloop
  endfacet
  facet normal 0 -0.989177 0.14673
    outer loop
      vertex 4 4.03852 15.7841
      vertex 7.8 4.15372 16.5607
      vertex 4 4.15372 16.5607
    endloop
  endfacet
  facet normal 0 -0.989177 0.14673
    outer loop
      vertex 7.8 4.15372 16.5607
      vertex 4 4.03852 15.7841
      vertex 7.8 4.03852 15.7841
    endloop
  endfacet
  facet normal 0 -0.989177 0.14673
    outer loop
      vertex 12.2 4.03852 15.7841
      vertex 15.8 4.15372 16.5607
      vertex 12.2 4.15372 16.5607
    endloop
  endfacet
  facet normal 0 -0.989177 0.14673
    outer loop
      vertex 15.8 4.15372 16.5607
      vertex 12.2 4.03852 15.7841
      vertex 15.8 4.03852 15.7841
    endloop
  endfacet
  facet normal 1 0 0
    outer loop
      vertex 7.8 19.9615 15.7841
      vertex 7.8 14.0596 15.4097
      vertex 7.8 14.1 15
    endloop
  endfacet
  facet normal 1 0 0
    outer loop
      vertex 7.8 15.0615 22.391
      vertex 7.8 13.9401 15.8036
      vertex 7.8 14.0596 15.4097
    endloop
  endfacet
  facet normal 1 0 0
    outer loop
      vertex 7.8 15.0615 22.391
      vertex 7.8 13.7461 16.1667
      vertex 7.8 13.9401 15.8036
    endloop
  endfacet
  facet normal 1 0 0
    outer loop
      vertex 7.8 12.4097 17.0596
      vertex 7.8 14.3223 22.6555
      vertex 7.8 13.5607 22.8463
    endloop
  endfacet
  facet normal 1 0 0
    outer loop
      vertex 7.8 15.0615 22.391
      vertex 7.8 13.4849 16.4849
      vertex 7.8 13.7461 16.1667
    endloop
  endfacet
  facet normal 1 0 0
    outer loop
      vertex 7.8 15.0615 22.391
      vertex 7.8 13.1667 16.7461
      vertex 7.8 13.4849 16.4849
    endloop
  endfacet
  facet normal 1 0 0
    outer loop
      vertex 7.8 15.0615 22.391
      vertex 7.8 12.8036 16.9401
      vertex 7.8 13.1667 16.7461
    endloop
  endfacet
  facet normal 1 0 0
    outer loop
      vertex 7.8 12.4097 17.0596
      vertex 7.8 13.5607 22.8463
      vertex 7.8 12.7841 22.9615
    endloop
  endfacet
  facet normal 1 0 0
    outer loop
      vertex 7.8 14.3223 22.6555
      vertex 7.8 12.4097 17.0596
      vertex 7.8 12.8036 16.9401
    endloop
  endfacet
  facet normal 1 0 0
    outer loop
      vertex 7.8 12 17.1
      vertex 7.8 12.7841 22.9615
      vertex 7.8 12 23
    endloop
  endfacet
  facet normal 1 0 0
    outer loop
      vertex 7.8 12.7841 22.9615
      vertex 7.8 12 17.1
      vertex 7.8 12.4097 17.0596
    endloop
  endfacet
  facet normal 1 -0 0
    outer loop
      vertex 7.8 11.2159 22.9615
      vertex 7.8 12 17.1
      vertex 7.8 12 23
    endloop
  endfacet
  facet normal 1 0 0
    outer loop
      vertex 7.8 12 17.1
      vertex 7.8 11.2159 22.9615
      vertex 7.8 11.5903 17.0596
    endloop
  endfacet
  facet normal 1 -0 0
    outer loop
      vertex 7.8 10.4393 22.8463
      vertex 7.8 11.5903 17.0596
      vertex 7.8 11.2159 22.9615
    endloop
  endfacet
  facet normal 1 -0 0
    outer loop
      vertex 7.8 9.67772 22.6555
      vertex 7.8 11.5903 17.0596
      vertex 7.8 10.4393 22.8463
    endloop
  endfacet
  facet normal 1 0 0
    outer loop
      vertex 7.8 11.5903 17.0596
      vertex 7.8 9.67772 22.6555
      vertex 7.8 11.1964 16.9401
    endloop
  endfacet
  facet normal 1 -0 0
    outer loop
      vertex 7.8 8.93853 22.391
      vertex 7.8 11.1964 16.9401
      vertex 7.8 9.67772 22.6555
    endloop
  endfacet
  facet normal 1 -0 0
    outer loop
      vertex 7.8 8.22883 22.0554
      vertex 7.8 11.1964 16.9401
      vertex 7.8 8.93853 22.391
    endloop
  endfacet
  facet normal 1 0 0
    outer loop
      vertex 7.8 11.1964 16.9401
      vertex 7.8 8.22883 22.0554
      vertex 7.8 10.8333 16.7461
    endloop
  endfacet
  facet normal 1 -0 0
    outer loop
      vertex 7.8 7.55544 21.6518
      vertex 7.8 10.8333 16.7461
      vertex 7.8 8.22883 22.0554
    endloop
  endfacet
  facet normal 1 -0 0
    outer loop
      vertex 7.8 6.92485 21.1841
      vertex 7.8 10.8333 16.7461
      vertex 7.8 7.55544 21.6518
    endloop
  endfacet
  facet normal 1 0 0
    outer loop
      vertex 7.8 10.8333 16.7461
      vertex 7.8 6.92485 21.1841
      vertex 7.8 10.5151 16.4849
    endloop
  endfacet
  facet normal 1 0 0
    outer loop
      vertex 7.8 14.1 15
      vertex 7.8 20 15
      vertex 7.8 19.9615 15.7841
    endloop
  endfacet
  facet normal 1 0 0
    outer loop
      vertex 7.8 14.0596 15.4097
      vertex 7.8 19.9615 15.7841
      vertex 7.8 19.8463 16.5607
    endloop
  endfacet
  facet normal 1 0 0
    outer loop
      vertex 7.8 14.0596 15.4097
      vertex 7.8 19.8463 16.5607
      vertex 7.8 19.6555 17.3223
    endloop
  endfacet
  facet normal 1 0 0
    outer loop
      vertex 7.8 14.0596 15.4097
      vertex 7.8 19.6555 17.3223
      vertex 7.8 19.391 18.0615
    endloop
  endfacet
  facet normal 1 0 0
    outer loop
      vertex 7.8 14.0596 15.4097
      vertex 7.8 19.391 18.0615
      vertex 7.8 19.0554 18.7712
    endloop
  endfacet
  facet normal 1 0 0
    outer loop
      vertex 7.8 14.0596 15.4097
      vertex 7.8 19.0554 18.7712
      vertex 7.8 18.6518 19.4446
    endloop
  endfacet
  facet normal 1 0 0
    outer loop
      vertex 7.8 14.0596 15.4097
      vertex 7.8 18.6518 19.4446
      vertex 7.8 18.1841 20.0751
    endloop
  endfacet
  facet normal 1 0 0
    outer loop
      vertex 7.8 14.0596 15.4097
      vertex 7.8 18.1841 20.0751
      vertex 7.8 17.6569 20.6569
    endloop
  endfacet
  facet normal 1 0 0
    outer loop
      vertex 7.8 14.0596 15.4097
      vertex 7.8 17.6569 20.6569
      vertex 7.8 17.0751 21.1841
    endloop
  endfacet
  facet normal 1 0 0
    outer loop
      vertex 7.8 14.0596 15.4097
      vertex 7.8 17.0751 21.1841
      vertex 7.8 16.4446 21.6518
    endloop
  endfacet
  facet normal 1 0 0
    outer loop
      vertex 7.8 14.0596 15.4097
      vertex 7.8 16.4446 21.6518
      vertex 7.8 15.7712 22.0554
    endloop
  endfacet
  facet normal 1 0 0
    outer loop
      vertex 7.8 14.0596 15.4097
      vertex 7.8 15.7712 22.0554
      vertex 7.8 15.0615 22.391
    endloop
  endfacet
  facet normal 1 0 0
    outer loop
      vertex 7.8 12.8036 16.9401
      vertex 7.8 15.0615 22.391
      vertex 7.8 14.3223 22.6555
    endloop
  endfacet
  facet normal 1 0 0
    outer loop
      vertex 7.8 20 15
      vertex 7.8 14.1 15
      vertex 7.8 14.0596 14.5903
    endloop
  endfacet
  facet normal 1 0 0
    outer loop
      vertex 7.8 20 15
      vertex 7.8 14.0596 14.5903
      vertex 7.8 13.9401 14.1964
    endloop
  endfacet
  facet normal 1 0 0
    outer loop
      vertex 7.8 20 15
      vertex 7.8 13.9401 14.1964
      vertex 7.8 13.7461 13.8333
    endloop
  endfacet
  facet normal 1 0 0
    outer loop
      vertex 7.8 20 15
      vertex 7.8 13.7461 13.8333
      vertex 7.8 20 6.5
    endloop
  endfacet
  facet normal 1 -0 0
    outer loop
      vertex 7.8 13.4849 13.5151
      vertex 7.8 20 6.5
      vertex 7.8 13.7461 13.8333
    endloop
  endfacet
  facet normal 1 -0 0
    outer loop
      vertex 7.8 13.1667 13.2539
      vertex 7.8 20 6.5
      vertex 7.8 13.4849 13.5151
    endloop
  endfacet
  facet normal 1 -0 0
    outer loop
      vertex 7.8 12.8036 13.0599
      vertex 7.8 20 6.5
      vertex 7.8 13.1667 13.2539
    endloop
  endfacet
  facet normal 1 -0 0
    outer loop
      vertex 7.8 12.4097 12.9404
      vertex 7.8 20 6.5
      vertex 7.8 12.8036 13.0599
    endloop
  endfacet
  facet normal 1 -0 0
    outer loop
      vertex 7.8 12 12.9
      vertex 7.8 20 6.5
      vertex 7.8 12.4097 12.9404
    endloop
  endfacet
  facet normal 1 0 0
    outer loop
      vertex 7.8 4 6.5
      vertex 7.8 12 12.9
      vertex 7.8 11.5903 12.9404
    endloop
  endfacet
  facet normal 1 0 0
    outer loop
      vertex 7.8 4 6.5
      vertex 7.8 11.5903 12.9404
      vertex 7.8 11.1964 13.0599
    endloop
  endfacet
  facet normal 1 0 0
    outer loop
      vertex 7.8 4 6.5
      vertex 7.8 11.1964 13.0599
      vertex 7.8 10.8333 13.2539
    endloop
  endfacet
  facet normal 1 -0 0
    outer loop
      vertex 7.8 6.34315 20.6569
      vertex 7.8 10.5151 16.4849
      vertex 7.8 6.92485 21.1841
    endloop
  endfacet
  facet normal 1 -0 0
    outer loop
      vertex 7.8 5.81592 20.0751
      vertex 7.8 10.5151 16.4849
      vertex 7.8 6.34315 20.6569
    endloop
  endfacet
  facet normal 1 0 0
    outer loop
      vertex 7.8 10.5151 16.4849
      vertex 7.8 5.81592 20.0751
      vertex 7.8 10.2539 16.1667
    endloop
  endfacet
  facet normal 1 -0 0
    outer loop
      vertex 7.8 5.34824 19.4446
      vertex 7.8 10.2539 16.1667
      vertex 7.8 5.81592 20.0751
    endloop
  endfacet
  facet normal 1 -0 0
    outer loop
      vertex 7.8 4.94463 18.7712
      vertex 7.8 10.2539 16.1667
      vertex 7.8 5.34824 19.4446
    endloop
  endfacet
  facet normal 1 0 0
    outer loop
      vertex 7.8 10.2539 16.1667
      vertex 7.8 4.94463 18.7712
      vertex 7.8 10.0599 15.8036
    endloop
  endfacet
  facet normal 1 -0 0
    outer loop
      vertex 7.8 4.60896 18.0615
      vertex 7.8 10.0599 15.8036
      vertex 7.8 4.94463 18.7712
    endloop
  endfacet
  facet normal 1 -0 0
    outer loop
      vertex 7.8 4.34448 17.3223
      vertex 7.8 10.0599 15.8036
      vertex 7.8 4.60896 18.0615
    endloop
  endfacet
  facet normal 1 0 0
    outer loop
      vertex 7.8 10.0599 15.8036
      vertex 7.8 4.34448 17.3223
      vertex 7.8 9.94035 15.4097
    endloop
  endfacet
  facet normal 1 -0 0
    outer loop
      vertex 7.8 4.15372 16.5607
      vertex 7.8 9.94035 15.4097
      vertex 7.8 4.34448 17.3223
    endloop
  endfacet
  facet normal 1 -0 0
    outer loop
      vertex 7.8 4.03852 15.7841
      vertex 7.8 9.94035 15.4097
      vertex 7.8 4.15372 16.5607
    endloop
  endfacet
  facet normal 1 0 0
    outer loop
      vertex 7.8 9.94035 15.4097
      vertex 7.8 4.03852 15.7841
      vertex 7.8 9.9 15
    endloop
  endfacet
  facet normal 1 0 0
    outer loop
      vertex 7.8 4 15
      vertex 7.8 9.9 15
      vertex 7.8 4.03852 15.7841
    endloop
  endfacet
  facet normal 1 0 0
    outer loop
      vertex 7.8 9.9 15
      vertex 7.8 4 15
      vertex 7.8 9.94035 14.5903
    endloop
  endfacet
  facet normal 1 0 0
    outer loop
      vertex 7.8 9.94035 14.5903
      vertex 7.8 4 15
      vertex 7.8 10.0599 14.1964
    endloop
  endfacet
  facet normal 1 0 0
    outer loop
      vertex 7.8 10.0599 14.1964
      vertex 7.8 4 15
      vertex 7.8 10.2539 13.8333
    endloop
  endfacet
  facet normal 1 0 0
    outer loop
      vertex 7.8 4 6.5
      vertex 7.8 10.2539 13.8333
      vertex 7.8 4 15
    endloop
  endfacet
  facet normal 1 0 0
    outer loop
      vertex 7.8 10.2539 13.8333
      vertex 7.8 4 6.5
      vertex 7.8 10.5151 13.5151
    endloop
  endfacet
  facet normal 1 0 0
    outer loop
      vertex 7.8 10.5151 13.5151
      vertex 7.8 4 6.5
      vertex 7.8 10.8333 13.2539
    endloop
  endfacet
  facet normal 1 0 0
    outer loop
      vertex 7.8 12 12.9
      vertex 7.8 4 6.5
      vertex 7.8 20 6.5
    endloop
  endfacet
  facet normal -1 0 0
    outer loop
      vertex 12.2 13.7461 13.8333
      vertex 12.2 20 15
      vertex 12.2 20 6.5
    endloop
  endfacet
  facet normal -1 0 -0
    outer loop
      vertex 12.2 13.9401 14.1964
      vertex 12.2 20 15
      vertex 12.2 13.7461 13.8333
    endloop
  endfacet
  facet normal -1 0 -0
    outer loop
      vertex 12.2 14.1 15
      vertex 12.2 20 15
      vertex 12.2 14.0596 14.5903
    endloop
  endfacet
  facet normal -1 0 0
    outer loop
      vertex 12.2 20 15
      vertex 12.2 14.1 15
      vertex 12.2 19.9615 15.7841
    endloop
  endfacet
  facet normal -1 0 0
    outer loop
      vertex 12.2 14.0596 15.4097
      vertex 12.2 19.9615 15.7841
      vertex 12.2 14.1 15
    endloop
  endfacet
  facet normal -1 -0 0
    outer loop
      vertex 12.2 19.8463 16.5607
      vertex 12.2 14.0596 15.4097
      vertex 12.2 19.6555 17.3223
    endloop
  endfacet
  facet normal -1 0 0
    outer loop
      vertex 12.2 13.9401 15.8036
      vertex 12.2 19.6555 17.3223
      vertex 12.2 14.0596 15.4097
    endloop
  endfacet
  facet normal -1 -0 0
    outer loop
      vertex 12.2 19.6555 17.3223
      vertex 12.2 13.9401 15.8036
      vertex 12.2 19.391 18.0615
    endloop
  endfacet
  facet normal -1 0 0
    outer loop
      vertex 12.2 13.7461 16.1667
      vertex 12.2 19.0554 18.7712
      vertex 12.2 13.9401 15.8036
    endloop
  endfacet
  facet normal -1 -0 0
    outer loop
      vertex 12.2 19.0554 18.7712
      vertex 12.2 13.7461 16.1667
      vertex 12.2 18.6518 19.4446
    endloop
  endfacet
  facet normal -1 -0 0
    outer loop
      vertex 12.2 18.6518 19.4446
      vertex 12.2 13.7461 16.1667
      vertex 12.2 18.1841 20.0751
    endloop
  endfacet
  facet normal -1 -0 0
    outer loop
      vertex 12.2 18.1841 20.0751
      vertex 12.2 13.4849 16.4849
      vertex 12.2 17.6569 20.6569
    endloop
  endfacet
  facet normal -1 -0 0
    outer loop
      vertex 12.2 17.6569 20.6569
      vertex 12.2 13.4849 16.4849
      vertex 12.2 17.0751 21.1841
    endloop
  endfacet
  facet normal -1 0 0
    outer loop
      vertex 12.2 13.4849 16.4849
      vertex 12.2 18.1841 20.0751
      vertex 12.2 13.7461 16.1667
    endloop
  endfacet
  facet normal -1 -0 0
    outer loop
      vertex 12.2 19.391 18.0615
      vertex 12.2 13.9401 15.8036
      vertex 12.2 19.0554 18.7712
    endloop
  endfacet
  facet normal -1 -0 0
    outer loop
      vertex 12.2 19.9615 15.7841
      vertex 12.2 14.0596 15.4097
      vertex 12.2 19.8463 16.5607
    endloop
  endfacet
  facet normal -1 0 -0
    outer loop
      vertex 12.2 14.0596 14.5903
      vertex 12.2 20 15
      vertex 12.2 13.9401 14.1964
    endloop
  endfacet
  facet normal -1 0 0
    outer loop
      vertex 12.2 20 6.5
      vertex 12.2 13.4849 13.5151
      vertex 12.2 13.7461 13.8333
    endloop
  endfacet
  facet normal -1 0 0
    outer loop
      vertex 12.2 20 6.5
      vertex 12.2 13.1667 13.2539
      vertex 12.2 13.4849 13.5151
    endloop
  endfacet
  facet normal -1 0 0
    outer loop
      vertex 12.2 20 6.5
      vertex 12.2 12.8036 13.0599
      vertex 12.2 13.1667 13.2539
    endloop
  endfacet
  facet normal -1 0 0
    outer loop
      vertex 12.2 20 6.5
      vertex 12.2 12.4097 12.9404
      vertex 12.2 12.8036 13.0599
    endloop
  endfacet
  facet normal -1 0 0
    outer loop
      vertex 12.2 20 6.5
      vertex 12.2 12 12.9
      vertex 12.2 12.4097 12.9404
    endloop
  endfacet
  facet normal -1 0 0
    outer loop
      vertex 12.2 4 6.5
      vertex 12.2 12 12.9
      vertex 12.2 20 6.5
    endloop
  endfacet
  facet normal -1 -0 0
    outer loop
      vertex 12.2 12 12.9
      vertex 12.2 4 6.5
      vertex 12.2 11.5903 12.9404
    endloop
  endfacet
  facet normal -1 -0 0
    outer loop
      vertex 12.2 11.5903 12.9404
      vertex 12.2 4 6.5
      vertex 12.2 11.1964 13.0599
    endloop
  endfacet
  facet normal -1 0 0
    outer loop
      vertex 12.2 11.1964 16.9401
      vertex 12.2 8.93853 22.391
      vertex 12.2 9.67772 22.6555
    endloop
  endfacet
  facet normal -1 0 0
    outer loop
      vertex 12.2 4 15
      vertex 12.2 9.9 15
      vertex 12.2 9.94035 14.5903
    endloop
  endfacet
  facet normal -1 0 0
    outer loop
      vertex 12.2 9.94035 15.4097
      vertex 12.2 8.22883 22.0554
      vertex 12.2 8.93853 22.391
    endloop
  endfacet
  facet normal -1 0 0
    outer loop
      vertex 12.2 9.94035 15.4097
      vertex 12.2 7.55544 21.6518
      vertex 12.2 8.22883 22.0554
    endloop
  endfacet
  facet normal -1 0 0
    outer loop
      vertex 12.2 4 15
      vertex 12.2 9.94035 14.5903
      vertex 12.2 10.0599 14.1964
    endloop
  endfacet
  facet normal -1 0 0
    outer loop
      vertex 12.2 9.94035 15.4097
      vertex 12.2 6.92485 21.1841
      vertex 12.2 7.55544 21.6518
    endloop
  endfacet
  facet normal -1 0 0
    outer loop
      vertex 12.2 9.94035 15.4097
      vertex 12.2 6.34315 20.6569
      vertex 12.2 6.92485 21.1841
    endloop
  endfacet
  facet normal -1 0 0
    outer loop
      vertex 12.2 4 15
      vertex 12.2 10.0599 14.1964
      vertex 12.2 10.2539 13.8333
    endloop
  endfacet
  facet normal -1 0 0
    outer loop
      vertex 12.2 9.94035 15.4097
      vertex 12.2 5.81592 20.0751
      vertex 12.2 6.34315 20.6569
    endloop
  endfacet
  facet normal -1 0 0
    outer loop
      vertex 12.2 9.94035 15.4097
      vertex 12.2 5.34824 19.4446
      vertex 12.2 5.81592 20.0751
    endloop
  endfacet
  facet normal -1 0 0
    outer loop
      vertex 12.2 4 6.5
      vertex 12.2 10.2539 13.8333
      vertex 12.2 10.5151 13.5151
    endloop
  endfacet
  facet normal -1 0 0
    outer loop
      vertex 12.2 9.94035 15.4097
      vertex 12.2 4.94463 18.7712
      vertex 12.2 5.34824 19.4446
    endloop
  endfacet
  facet normal -1 0 0
    outer loop
      vertex 12.2 9.94035 15.4097
      vertex 12.2 4.60896 18.0615
      vertex 12.2 4.94463 18.7712
    endloop
  endfacet
  facet normal -1 0 0
    outer loop
      vertex 12.2 4 6.5
      vertex 12.2 10.5151 13.5151
      vertex 12.2 10.8333 13.2539
    endloop
  endfacet
  facet normal -1 0 0
    outer loop
      vertex 12.2 9.94035 15.4097
      vertex 12.2 4.34448 17.3223
      vertex 12.2 4.60896 18.0615
    endloop
  endfacet
  facet normal -1 -0 0
    outer loop
      vertex 12.2 11.1964 13.0599
      vertex 12.2 4 6.5
      vertex 12.2 10.8333 13.2539
    endloop
  endfacet
  facet normal -1 0 0
    outer loop
      vertex 12.2 9.9 15
      vertex 12.2 4 15
      vertex 12.2 4.03852 15.7841
    endloop
  endfacet
  facet normal -1 0 0
    outer loop
      vertex 12.2 9.94035 15.4097
      vertex 12.2 4.15372 16.5607
      vertex 12.2 4.34448 17.3223
    endloop
  endfacet
  facet normal -1 -0 0
    outer loop
      vertex 12.2 10.2539 13.8333
      vertex 12.2 4 6.5
      vertex 12.2 4 15
    endloop
  endfacet
  facet normal -1 0 0
    outer loop
      vertex 12.2 9.94035 15.4097
      vertex 12.2 4.03852 15.7841
      vertex 12.2 4.15372 16.5607
    endloop
  endfacet
  facet normal -1 0 0
    outer loop
      vertex 12.2 13.1667 16.7461
      vertex 12.2 17.0751 21.1841
      vertex 12.2 13.4849 16.4849
    endloop
  endfacet
  facet normal -1 -0 0
    outer loop
      vertex 12.2 17.0751 21.1841
      vertex 12.2 13.1667 16.7461
      vertex 12.2 16.4446 21.6518
    endloop
  endfacet
  facet normal -1 -0 0
    outer loop
      vertex 12.2 16.4446 21.6518
      vertex 12.2 13.1667 16.7461
      vertex 12.2 15.7712 22.0554
    endloop
  endfacet
  facet normal -1 0 0
    outer loop
      vertex 12.2 12.8036 16.9401
      vertex 12.2 15.7712 22.0554
      vertex 12.2 13.1667 16.7461
    endloop
  endfacet
  facet normal -1 -0 0
    outer loop
      vertex 12.2 15.7712 22.0554
      vertex 12.2 12.8036 16.9401
      vertex 12.2 15.0615 22.391
    endloop
  endfacet
  facet normal -1 -0 0
    outer loop
      vertex 12.2 15.0615 22.391
      vertex 12.2 12.8036 16.9401
      vertex 12.2 14.3223 22.6555
    endloop
  endfacet
  facet normal -1 0 0
    outer loop
      vertex 12.2 12.4097 17.0596
      vertex 12.2 14.3223 22.6555
      vertex 12.2 12.8036 16.9401
    endloop
  endfacet
  facet normal -1 -0 0
    outer loop
      vertex 12.2 14.3223 22.6555
      vertex 12.2 12.4097 17.0596
      vertex 12.2 13.5607 22.8463
    endloop
  endfacet
  facet normal -1 -0 0
    outer loop
      vertex 12.2 13.5607 22.8463
      vertex 12.2 12.4097 17.0596
      vertex 12.2 12.7841 22.9615
    endloop
  endfacet
  facet normal -1 0 0
    outer loop
      vertex 12.2 12 17.1
      vertex 12.2 12.7841 22.9615
      vertex 12.2 12.4097 17.0596
    endloop
  endfacet
  facet normal -1 0 0
    outer loop
      vertex 12.2 12 17.1
      vertex 12.2 12 23
      vertex 12.2 12.7841 22.9615
    endloop
  endfacet
  facet normal -1 0 0
    outer loop
      vertex 12.2 11.2159 22.9615
      vertex 12.2 12 17.1
      vertex 12.2 11.5903 17.0596
    endloop
  endfacet
  facet normal -1 0 0
    outer loop
      vertex 12.2 12 17.1
      vertex 12.2 11.2159 22.9615
      vertex 12.2 12 23
    endloop
  endfacet
  facet normal -1 0 0
    outer loop
      vertex 12.2 9.67772 22.6555
      vertex 12.2 11.5903 17.0596
      vertex 12.2 11.1964 16.9401
    endloop
  endfacet
  facet normal -1 0 0
    outer loop
      vertex 12.2 8.93853 22.391
      vertex 12.2 11.1964 16.9401
      vertex 12.2 10.8333 16.7461
    endloop
  endfacet
  facet normal -1 0 0
    outer loop
      vertex 12.2 8.93853 22.391
      vertex 12.2 10.8333 16.7461
      vertex 12.2 10.5151 16.4849
    endloop
  endfacet
  facet normal -1 0 0
    outer loop
      vertex 12.2 11.5903 17.0596
      vertex 12.2 10.4393 22.8463
      vertex 12.2 11.2159 22.9615
    endloop
  endfacet
  facet normal -1 0 0
    outer loop
      vertex 12.2 8.93853 22.391
      vertex 12.2 10.5151 16.4849
      vertex 12.2 10.2539 16.1667
    endloop
  endfacet
  facet normal -1 0 0
    outer loop
      vertex 12.2 8.93853 22.391
      vertex 12.2 10.2539 16.1667
      vertex 12.2 10.0599 15.8036
    endloop
  endfacet
  facet normal -1 0 0
    outer loop
      vertex 12.2 8.93853 22.391
      vertex 12.2 10.0599 15.8036
      vertex 12.2 9.94035 15.4097
    endloop
  endfacet
  facet normal -1 0 0
    outer loop
      vertex 12.2 4.03852 15.7841
      vertex 12.2 9.94035 15.4097
      vertex 12.2 9.9 15
    endloop
  endfacet
  facet normal -1 0 0
    outer loop
      vertex 12.2 11.5903 17.0596
      vertex 12.2 9.67772 22.6555
      vertex 12.2 10.4393 22.8463
    endloop
  endfacet
  facet normal -0 0 1
    outer loop
      vertex 7.8 20 6.5
      vertex 12.2 4 6.5
      vertex 12.2 20 6.5
    endloop
  endfacet
  facet normal 0 0 1
    outer loop
      vertex 12.2 4 6.5
      vertex 7.8 20 6.5
      vertex 7.8 4 6.5
    endloop
  endfacet
  facet normal 1 0 0
    outer loop
      vertex 15.8 19.9615 15.7841
      vertex 15.8 14.0596 15.4097
      vertex 15.8 14.1 15
    endloop
  endfacet
  facet normal 1 0 0
    outer loop
      vertex 15.8 15.0615 22.391
      vertex 15.8 13.9401 15.8036
      vertex 15.8 14.0596 15.4097
    endloop
  endfacet
  facet normal 1 0 0
    outer loop
      vertex 15.8 15.0615 22.391
      vertex 15.8 13.7461 16.1667
      vertex 15.8 13.9401 15.8036
    endloop
  endfacet
  facet normal 1 0 0
    outer loop
      vertex 15.8 12.4097 17.0596
      vertex 15.8 14.3223 22.6555
      vertex 15.8 13.5607 22.8463
    endloop
  endfacet
  facet normal 1 0 0
    outer loop
      vertex 15.8 15.0615 22.391
      vertex 15.8 13.4849 16.4849
      vertex 15.8 13.7461 16.1667
    endloop
  endfacet
  facet normal 1 0 0
    outer loop
      vertex 15.8 15.0615 22.391
      vertex 15.8 13.1667 16.7461
      vertex 15.8 13.4849 16.4849
    endloop
  endfacet
  facet normal 1 0 0
    outer loop
      vertex 15.8 15.0615 22.391
      vertex 15.8 12.8036 16.9401
      vertex 15.8 13.1667 16.7461
    endloop
  endfacet
  facet normal 1 0 0
    outer loop
      vertex 15.8 12.4097 17.0596
      vertex 15.8 13.5607 22.8463
      vertex 15.8 12.7841 22.9615
    endloop
  endfacet
  facet normal 1 0 0
    outer loop
      vertex 15.8 14.3223 22.6555
      vertex 15.8 12.4097 17.0596
      vertex 15.8 12.8036 16.9401
    endloop
  endfacet
  facet normal 1 0 0
    outer loop
      vertex 15.8 12 17.1
      vertex 15.8 12.7841 22.9615
      vertex 15.8 12 23
    endloop
  endfacet
  facet normal 1 0 0
    outer loop
      vertex 15.8 12.7841 22.9615
      vertex 15.8 12 17.1
      vertex 15.8 12.4097 17.0596
    endloop
  endfacet
  facet normal 1 -0 0
    outer loop
      vertex 15.8 11.2159 22.9615
      vertex 15.8 12 17.1
      vertex 15.8 12 23
    endloop
  endfacet
  facet normal 1 0 0
    outer loop
      vertex 15.8 12 17.1
      vertex 15.8 11.2159 22.9615
      vertex 15.8 11.5903 17.0596
    endloop
  endfacet
  facet normal 1 -0 0
    outer loop
      vertex 15.8 10.4393 22.8463
      vertex 15.8 11.5903 17.0596
      vertex 15.8 11.2159 22.9615
    endloop
  endfacet
  facet normal 1 -0 0
    outer loop
      vertex 15.8 9.67772 22.6555
      vertex 15.8 11.5903 17.0596
      vertex 15.8 10.4393 22.8463
    endloop
  endfacet
  facet normal 1 0 0
    outer loop
      vertex 15.8 11.5903 17.0596
      vertex 15.8 9.67772 22.6555
      vertex 15.8 11.1964 16.9401
    endloop
  endfacet
  facet normal 1 -0 0
    outer loop
      vertex 15.8 8.93853 22.391
      vertex 15.8 11.1964 16.9401
      vertex 15.8 9.67772 22.6555
    endloop
  endfacet
  facet normal 1 -0 0
    outer loop
      vertex 15.8 8.22883 22.0554
      vertex 15.8 11.1964 16.9401
      vertex 15.8 8.93853 22.391
    endloop
  endfacet
  facet normal 1 0 0
    outer loop
      vertex 15.8 11.1964 16.9401
      vertex 15.8 8.22883 22.0554
      vertex 15.8 10.8333 16.7461
    endloop
  endfacet
  facet normal 1 -0 0
    outer loop
      vertex 15.8 7.55544 21.6518
      vertex 15.8 10.8333 16.7461
      vertex 15.8 8.22883 22.0554
    endloop
  endfacet
  facet normal 1 -0 0
    outer loop
      vertex 15.8 6.92485 21.1841
      vertex 15.8 10.8333 16.7461
      vertex 15.8 7.55544 21.6518
    endloop
  endfacet
  facet normal 1 0 0
    outer loop
      vertex 15.8 10.8333 16.7461
      vertex 15.8 6.92485 21.1841
      vertex 15.8 10.5151 16.4849
    endloop
  endfacet
  facet normal 1 0 0
    outer loop
      vertex 15.8 14.1 15
      vertex 15.8 20 15
      vertex 15.8 19.9615 15.7841
    endloop
  endfacet
  facet normal 1 0 0
    outer loop
      vertex 15.8 14.0596 15.4097
      vertex 15.8 19.9615 15.7841
      vertex 15.8 19.8463 16.5607
    endloop
  endfacet
  facet normal 1 0 0
    outer loop
      vertex 15.8 14.0596 15.4097
      vertex 15.8 19.8463 16.5607
      vertex 15.8 19.6555 17.3223
    endloop
  endfacet
  facet normal 1 0 0
    outer loop
      vertex 15.8 14.0596 15.4097
      vertex 15.8 19.6555 17.3223
      vertex 15.8 19.391 18.0615
    endloop
  endfacet
  facet normal 1 0 0
    outer loop
      vertex 15.8 14.0596 15.4097
      vertex 15.8 19.391 18.0615
      vertex 15.8 19.0554 18.7712
    endloop
  endfacet
  facet normal 1 0 0
    outer loop
      vertex 15.8 14.0596 15.4097
      vertex 15.8 19.0554 18.7712
      vertex 15.8 18.6518 19.4446
    endloop
  endfacet
  facet normal 1 0 0
    outer loop
      vertex 15.8 14.0596 15.4097
      vertex 15.8 18.6518 19.4446
      vertex 15.8 18.1841 20.0751
    endloop
  endfacet
  facet normal 1 0 0
    outer loop
      vertex 15.8 14.0596 15.4097
      vertex 15.8 18.1841 20.0751
      vertex 15.8 17.6569 20.6569
    endloop
  endfacet
  facet normal 1 0 0
    outer loop
      vertex 15.8 14.0596 15.4097
      vertex 15.8 17.6569 20.6569
      vertex 15.8 17.0751 21.1841
    endloop
  endfacet
  facet normal 1 0 0
    outer loop
      vertex 15.8 14.0596 15.4097
      vertex 15.8 17.0751 21.1841
      vertex 15.8 16.4446 21.6518
    endloop
  endfacet
  facet normal 1 0 0
    outer loop
      vertex 15.8 14.0596 15.4097
      vertex 15.8 16.4446 21.6518
      vertex 15.8 15.7712 22.0554
    endloop
  endfacet
  facet normal 1 0 0
    outer loop
      vertex 15.8 14.0596 15.4097
      vertex 15.8 15.7712 22.0554
      vertex 15.8 15.0615 22.391
    endloop
  endfacet
  facet normal 1 0 0
    outer loop
      vertex 15.8 12.8036 16.9401
      vertex 15.8 15.0615 22.391
      vertex 15.8 14.3223 22.6555
    endloop
  endfacet
  facet normal 1 0 0
    outer loop
      vertex 15.8 20 15
      vertex 15.8 14.1 15
      vertex 15.8 14.0596 14.5903
    endloop
  endfacet
  facet normal 1 0 0
    outer loop
      vertex 15.8 20 15
      vertex 15.8 14.0596 14.5903
      vertex 15.8 13.9401 14.1964
    endloop
  endfacet
  facet normal 1 0 0
    outer loop
      vertex 15.8 20 15
      vertex 15.8 13.9401 14.1964
      vertex 15.8 13.7461 13.8333
    endloop
  endfacet
  facet normal 1 0 0
    outer loop
      vertex 15.8 20 15
      vertex 15.8 13.7461 13.8333
      vertex 15.8 20 6.5
    endloop
  endfacet
  facet normal 1 -0 0
    outer loop
      vertex 15.8 13.4849 13.5151
      vertex 15.8 20 6.5
      vertex 15.8 13.7461 13.8333
    endloop
  endfacet
  facet normal 1 -0 0
    outer loop
      vertex 15.8 13.1667 13.2539
      vertex 15.8 20 6.5
      vertex 15.8 13.4849 13.5151
    endloop
  endfacet
  facet normal 1 -0 0
    outer loop
      vertex 15.8 12.8036 13.0599
      vertex 15.8 20 6.5
      vertex 15.8 13.1667 13.2539
    endloop
  endfacet
  facet normal 1 -0 0
    outer loop
      vertex 15.8 12.4097 12.9404
      vertex 15.8 20 6.5
      vertex 15.8 12.8036 13.0599
    endloop
  endfacet
  facet normal 1 -0 0
    outer loop
      vertex 15.8 12 12.9
      vertex 15.8 20 6.5
      vertex 15.8 12.4097 12.9404
    endloop
  endfacet
  facet normal 1 0 0
    outer loop
      vertex 15.8 4 6.5
      vertex 15.8 12 12.9
      vertex 15.8 11.5903 12.9404
    endloop
  endfacet
  facet normal 1 0 0
    outer loop
      vertex 15.8 4 6.5
      vertex 15.8 11.5903 12.9404
      vertex 15.8 11.1964 13.0599
    endloop
  endfacet
  facet normal 1 0 0
    outer loop
      vertex 15.8 4 6.5
      vertex 15.8 11.1964 13.0599
      vertex 15.8 10.8333 13.2539
    endloop
  endfacet
  facet normal 1 -0 0
    outer loop
      vertex 15.8 6.34315 20.6569
      vertex 15.8 10.5151 16.4849
      vertex 15.8 6.92485 21.1841
    endloop
  endfacet
  facet normal 1 -0 0
    outer loop
      vertex 15.8 5.81592 20.0751
      vertex 15.8 10.5151 16.4849
      vertex 15.8 6.34315 20.6569
    endloop
  endfacet
  facet normal 1 0 0
    outer loop
      vertex 15.8 10.5151 16.4849
      vertex 15.8 5.81592 20.0751
      vertex 15.8 10.2539 16.1667
    endloop
  endfacet
  facet normal 1 -0 0
    outer loop
      vertex 15.8 5.34824 19.4446
      vertex 15.8 10.2539 16.1667
      vertex 15.8 5.81592 20.0751
    endloop
  endfacet
  facet normal 1 -0 0
    outer loop
      vertex 15.8 4.94463 18.7712
      vertex 15.8 10.2539 16.1667
      vertex 15.8 5.34824 19.4446
    endloop
  endfacet
  facet normal 1 0 0
    outer loop
      vertex 15.8 10.2539 16.1667
      vertex 15.8 4.94463 18.7712
      vertex 15.8 10.0599 15.8036
    endloop
  endfacet
  facet normal 1 -0 0
    outer loop
      vertex 15.8 4.60896 18.0615
      vertex 15.8 10.0599 15.8036
      vertex 15.8 4.94463 18.7712
    endloop
  endfacet
  facet normal 1 -0 0
    outer loop
      vertex 15.8 4.34448 17.3223
      vertex 15.8 10.0599 15.8036
      vertex 15.8 4.60896 18.0615
    endloop
  endfacet
  facet normal 1 0 0
    outer loop
      vertex 15.8 10.0599 15.8036
      vertex 15.8 4.34448 17.3223
      vertex 15.8 9.94035 15.4097
    endloop
  endfacet
  facet normal 1 -0 0
    outer loop
      vertex 15.8 4.15372 16.5607
      vertex 15.8 9.94035 15.4097
      vertex 15.8 4.34448 17.3223
    endloop
  endfacet
  facet normal 1 -0 0
    outer loop
      vertex 15.8 4.03852 15.7841
      vertex 15.8 9.94035 15.4097
      vertex 15.8 4.15372 16.5607
    endloop
  endfacet
  facet normal 1 0 0
    outer loop
      vertex 15.8 9.94035 15.4097
      vertex 15.8 4.03852 15.7841
      vertex 15.8 9.9 15
    endloop
  endfacet
  facet normal 1 0 0
    outer loop
      vertex 15.8 4 15
      vertex 15.8 9.9 15
      vertex 15.8 4.03852 15.7841
    endloop
  endfacet
  facet normal 1 0 0
    outer loop
      vertex 15.8 9.9 15
      vertex 15.8 4 15
      vertex 15.8 9.94035 14.5903
    endloop
  endfacet
  facet normal 1 0 0
    outer loop
      vertex 15.8 9.94035 14.5903
      vertex 15.8 4 15
      vertex 15.8 10.0599 14.1964
    endloop
  endfacet
  facet normal 1 0 0
    outer loop
      vertex 15.8 10.0599 14.1964
      vertex 15.8 4 15
      vertex 15.8 10.2539 13.8333
    endloop
  endfacet
  facet normal 1 0 0
    outer loop
      vertex 15.8 4 6.5
      vertex 15.8 10.2539 13.8333
      vertex 15.8 4 15
    endloop
  endfacet
  facet normal 1 0 0
    outer loop
      vertex 15.8 10.2539 13.8333
      vertex 15.8 4 6.5
      vertex 15.8 10.5151 13.5151
    endloop
  endfacet
  facet normal 1 0 0
    outer loop
      vertex 15.8 10.5151 13.5151
      vertex 15.8 4 6.5
      vertex 15.8 10.8333 13.2539
    endloop
  endfacet
  facet normal 1 0 0
    outer loop
      vertex 15.8 12 12.9
      vertex 15.8 4 6.5
      vertex 15.8 20 6.5
    endloop
  endfacet
  facet normal -0 0 1
    outer loop
      vertex 15.8 20 6.5
      vertex 20 4 6.5
      vertex 20 20 6.5
    endloop
  endfacet
  facet normal 0 0 1
    outer loop
      vertex 20 4 6.5
      vertex 15.8 20 6.5
      vertex 15.8 4 6.5
    endloop
  endfacet
  facet normal 0 -0.0980173 0.995185
    outer loop
      vertex 4 12.4097 12.9404
      vertex 7.8 12 12.9
      vertex 7.8 12.4097 12.9404
    endloop
  endfacet
  facet normal 0 -0.0980173 0.995185
    outer loop
      vertex 7.8 12 12.9
      vertex 4 12.4097 12.9404
      vertex 4 12 12.9
    endloop
  endfacet
  facet normal 0 -0.0980173 0.995185
    outer loop
      vertex 12.2 12.4097 12.9404
      vertex 15.8 12 12.9
      vertex 15.8 12.4097 12.9404
    endloop
  endfacet
  facet normal 0 -0.0980173 0.995185
    outer loop
      vertex 15.8 12 12.9
      vertex 12.2 12.4097 12.9404
      vertex 12.2 12 12.9
    endloop
  endfacet
  facet normal 0 0.0980148 -0.995185
    outer loop
      vertex 4 11.5903 17.0596
      vertex 7.8 12 17.1
      vertex 7.8 11.5903 17.0596
    endloop
  endfacet
  facet normal 0 0.0980148 -0.995185
    outer loop
      vertex 7.8 12 17.1
      vertex 4 11.5903 17.0596
      vertex 4 12 17.1
    endloop
  endfacet
  facet normal 0 0.0980148 -0.995185
    outer loop
      vertex 12.2 11.5903 17.0596
      vertex 15.8 12 17.1
      vertex 15.8 11.5903 17.0596
    endloop
  endfacet
  facet normal 0 0.0980148 -0.995185
    outer loop
      vertex 15.8 12 17.1
      vertex 12.2 11.5903 17.0596
      vertex 12.2 12 17.1
    endloop
  endfacet
  facet normal 0 -0.995185 -0.0980173
    outer loop
      vertex 4 14.1 15
      vertex 7.8 14.0596 15.4097
      vertex 4 14.0596 15.4097
    endloop
  endfacet
  facet normal 0 -0.995185 -0.0980173
    outer loop
      vertex 7.8 14.0596 15.4097
      vertex 4 14.1 15
      vertex 7.8 14.1 15
    endloop
  endfacet
  facet normal 0 -0.995185 -0.0980173
    outer loop
      vertex 12.2 14.1 15
      vertex 15.8 14.0596 15.4097
      vertex 12.2 14.0596 15.4097
    endloop
  endfacet
  facet normal 0 -0.995185 -0.0980173
    outer loop
      vertex 15.8 14.0596 15.4097
      vertex 12.2 14.1 15
      vertex 15.8 14.1 15
    endloop
  endfacet
  facet normal 0 0.77301 -0.634393
    outer loop
      vertex 7.8 10.2539 16.1667
      vertex 4 10.5151 16.4849
      vertex 7.8 10.5151 16.4849
    endloop
  endfacet
  facet normal 0 0.77301 -0.634393
    outer loop
      vertex 4 10.5151 16.4849
      vertex 7.8 10.2539 16.1667
      vertex 4 10.2539 16.1667
    endloop
  endfacet
  facet normal 0 0.77301 -0.634393
    outer loop
      vertex 15.8 10.2539 16.1667
      vertex 12.2 10.5151 16.4849
      vertex 15.8 10.5151 16.4849
    endloop
  endfacet
  facet normal 0 0.77301 -0.634393
    outer loop
      vertex 12.2 10.5151 16.4849
      vertex 15.8 10.2539 16.1667
      vertex 12.2 10.2539 16.1667
    endloop
  endfacet
  facet normal 0 -0.634393 -0.773011
    outer loop
      vertex 4 13.1667 16.7461
      vertex 7.8 13.4849 16.4849
      vertex 7.8 13.1667 16.7461
    endloop
  endfacet
  facet normal -0 -0.634393 -0.773011
    outer loop
      vertex 7.8 13.4849 16.4849
      vertex 4 13.1667 16.7461
      vertex 4 13.4849 16.4849
    endloop
  endfacet
  facet normal 0 -0.634393 -0.773011
    outer loop
      vertex 12.2 13.1667 16.7461
      vertex 15.8 13.4849 16.4849
      vertex 15.8 13.1667 16.7461
    endloop
  endfacet
  facet normal -0 -0.634393 -0.773011
    outer loop
      vertex 15.8 13.4849 16.4849
      vertex 12.2 13.1667 16.7461
      vertex 12.2 13.4849 16.4849
    endloop
  endfacet
  facet normal 0 -0.881922 -0.471396
    outer loop
      vertex 4 13.9401 15.8036
      vertex 7.8 13.7461 16.1667
      vertex 4 13.7461 16.1667
    endloop
  endfacet
  facet normal 0 -0.881922 -0.471396
    outer loop
      vertex 7.8 13.7461 16.1667
      vertex 4 13.9401 15.8036
      vertex 7.8 13.9401 15.8036
    endloop
  endfacet
  facet normal 0 -0.881922 -0.471396
    outer loop
      vertex 12.2 13.9401 15.8036
      vertex 15.8 13.7461 16.1667
      vertex 12.2 13.7461 16.1667
    endloop
  endfacet
  facet normal 0 -0.881922 -0.471396
    outer loop
      vertex 15.8 13.7461 16.1667
      vertex 12.2 13.9401 15.8036
      vertex 15.8 13.9401 15.8036
    endloop
  endfacet
  facet normal -0 0.471396 0.881922
    outer loop
      vertex 4 11.1964 13.0599
      vertex 7.8 10.8333 13.2539
      vertex 7.8 11.1964 13.0599
    endloop
  endfacet
  facet normal 0 0.471396 0.881922
    outer loop
      vertex 7.8 10.8333 13.2539
      vertex 4 11.1964 13.0599
      vertex 4 10.8333 13.2539
    endloop
  endfacet
  facet normal -0 0.471396 0.881922
    outer loop
      vertex 12.2 11.1964 13.0599
      vertex 15.8 10.8333 13.2539
      vertex 15.8 11.1964 13.0599
    endloop
  endfacet
  facet normal 0 0.471396 0.881922
    outer loop
      vertex 15.8 10.8333 13.2539
      vertex 12.2 11.1964 13.0599
      vertex 12.2 10.8333 13.2539
    endloop
  endfacet
  facet normal 0 -0.290285 0.95694
    outer loop
      vertex 4 12.8036 13.0599
      vertex 7.8 12.4097 12.9404
      vertex 7.8 12.8036 13.0599
    endloop
  endfacet
  facet normal 0 -0.290285 0.95694
    outer loop
      vertex 7.8 12.4097 12.9404
      vertex 4 12.8036 13.0599
      vertex 4 12.4097 12.9404
    endloop
  endfacet
  facet normal 0 -0.290285 0.95694
    outer loop
      vertex 12.2 12.8036 13.0599
      vertex 15.8 12.4097 12.9404
      vertex 15.8 12.8036 13.0599
    endloop
  endfacet
  facet normal 0 -0.290285 0.95694
    outer loop
      vertex 15.8 12.4097 12.9404
      vertex 12.2 12.8036 13.0599
      vertex 12.2 12.4097 12.9404
    endloop
  endfacet
  facet normal 0 -0.634394 0.77301
    outer loop
      vertex 4 13.4849 13.5151
      vertex 7.8 13.1667 13.2539
      vertex 7.8 13.4849 13.5151
    endloop
  endfacet
  facet normal 0 -0.634394 0.77301
    outer loop
      vertex 7.8 13.1667 13.2539
      vertex 4 13.4849 13.5151
      vertex 4 13.1667 13.2539
    endloop
  endfacet
  facet normal 0 -0.634394 0.77301
    outer loop
      vertex 12.2 13.4849 13.5151
      vertex 15.8 13.1667 13.2539
      vertex 15.8 13.4849 13.5151
    endloop
  endfacet
  facet normal 0 -0.634394 0.77301
    outer loop
      vertex 15.8 13.1667 13.2539
      vertex 12.2 13.4849 13.5151
      vertex 12.2 13.1667 13.2539
    endloop
  endfacet
  facet normal 0 -0.995185 0.0980171
    outer loop
      vertex 4 14.0596 14.5903
      vertex 7.8 14.1 15
      vertex 4 14.1 15
    endloop
  endfacet
  facet normal 0 -0.995185 0.0980171
    outer loop
      vertex 7.8 14.1 15
      vertex 4 14.0596 14.5903
      vertex 7.8 14.0596 14.5903
    endloop
  endfacet
  facet normal 0 -0.995185 0.0980171
    outer loop
      vertex 12.2 14.0596 14.5903
      vertex 15.8 14.1 15
      vertex 12.2 14.1 15
    endloop
  endfacet
  facet normal 0 -0.995185 0.0980171
    outer loop
      vertex 15.8 14.1 15
      vertex 12.2 14.0596 14.5903
      vertex 15.8 14.0596 14.5903
    endloop
  endfacet
  facet normal 0 -0.881922 0.471396
    outer loop
      vertex 4 13.7461 13.8333
      vertex 7.8 13.9401 14.1964
      vertex 4 13.9401 14.1964
    endloop
  endfacet
  facet normal 0 -0.881922 0.471396
    outer loop
      vertex 7.8 13.9401 14.1964
      vertex 4 13.7461 13.8333
      vertex 7.8 13.7461 13.8333
    endloop
  endfacet
  facet normal 0 -0.881922 0.471396
    outer loop
      vertex 12.2 13.7461 13.8333
      vertex 15.8 13.9401 14.1964
      vertex 12.2 13.9401 14.1964
    endloop
  endfacet
  facet normal 0 -0.881922 0.471396
    outer loop
      vertex 15.8 13.9401 14.1964
      vertex 12.2 13.7461 13.8333
      vertex 15.8 13.7461 13.8333
    endloop
  endfacet
  facet normal 0 -0.290282 -0.956941
    outer loop
      vertex 4 12.4097 17.0596
      vertex 7.8 12.8036 16.9401
      vertex 7.8 12.4097 17.0596
    endloop
  endfacet
  facet normal -0 -0.290282 -0.956941
    outer loop
      vertex 7.8 12.8036 16.9401
      vertex 4 12.4097 17.0596
      vertex 4 12.8036 16.9401
    endloop
  endfacet
  facet normal 0 -0.290282 -0.956941
    outer loop
      vertex 12.2 12.4097 17.0596
      vertex 15.8 12.8036 16.9401
      vertex 15.8 12.4097 17.0596
    endloop
  endfacet
  facet normal -0 -0.290282 -0.956941
    outer loop
      vertex 15.8 12.8036 16.9401
      vertex 12.2 12.4097 17.0596
      vertex 12.2 12.8036 16.9401
    endloop
  endfacet
  facet normal 0 -0.471398 -0.881921
    outer loop
      vertex 4 12.8036 16.9401
      vertex 7.8 13.1667 16.7461
      vertex 7.8 12.8036 16.9401
    endloop
  endfacet
  facet normal -0 -0.471398 -0.881921
    outer loop
      vertex 7.8 13.1667 16.7461
      vertex 4 12.8036 16.9401
      vertex 4 13.1667 16.7461
    endloop
  endfacet
  facet normal 0 -0.471398 -0.881921
    outer loop
      vertex 12.2 12.8036 16.9401
      vertex 15.8 13.1667 16.7461
      vertex 15.8 12.8036 16.9401
    endloop
  endfacet
  facet normal -0 -0.471398 -0.881921
    outer loop
      vertex 15.8 13.1667 16.7461
      vertex 12.2 12.8036 16.9401
      vertex 12.2 13.1667 16.7461
    endloop
  endfacet
  facet normal 0 -0.098015 -0.995185
    outer loop
      vertex 4 12 17.1
      vertex 7.8 12.4097 17.0596
      vertex 7.8 12 17.1
    endloop
  endfacet
  facet normal -0 -0.098015 -0.995185
    outer loop
      vertex 7.8 12.4097 17.0596
      vertex 4 12 17.1
      vertex 4 12.4097 17.0596
    endloop
  endfacet
  facet normal 0 -0.098015 -0.995185
    outer loop
      vertex 12.2 12 17.1
      vertex 15.8 12.4097 17.0596
      vertex 15.8 12 17.1
    endloop
  endfacet
  facet normal -0 -0.098015 -0.995185
    outer loop
      vertex 15.8 12.4097 17.0596
      vertex 12.2 12 17.1
      vertex 12.2 12.4097 17.0596
    endloop
  endfacet
  facet normal 0 -0.77301 -0.634393
    outer loop
      vertex 4 13.7461 16.1667
      vertex 7.8 13.4849 16.4849
      vertex 4 13.4849 16.4849
    endloop
  endfacet
  facet normal 0 -0.77301 -0.634393
    outer loop
      vertex 7.8 13.4849 16.4849
      vertex 4 13.7461 16.1667
      vertex 7.8 13.7461 16.1667
    endloop
  endfacet
  facet normal 0 -0.77301 -0.634393
    outer loop
      vertex 12.2 13.7461 16.1667
      vertex 15.8 13.4849 16.4849
      vertex 12.2 13.4849 16.4849
    endloop
  endfacet
  facet normal 0 -0.77301 -0.634393
    outer loop
      vertex 15.8 13.4849 16.4849
      vertex 12.2 13.7461 16.1667
      vertex 15.8 13.7461 16.1667
    endloop
  endfacet
  facet normal 0 -0.95694 -0.290285
    outer loop
      vertex 4 14.0596 15.4097
      vertex 7.8 13.9401 15.8036
      vertex 4 13.9401 15.8036
    endloop
  endfacet
  facet normal 0 -0.95694 -0.290285
    outer loop
      vertex 7.8 13.9401 15.8036
      vertex 4 14.0596 15.4097
      vertex 7.8 14.0596 15.4097
    endloop
  endfacet
  facet normal 0 -0.95694 -0.290285
    outer loop
      vertex 12.2 14.0596 15.4097
      vertex 15.8 13.9401 15.8036
      vertex 12.2 13.9401 15.8036
    endloop
  endfacet
  facet normal 0 -0.95694 -0.290285
    outer loop
      vertex 15.8 13.9401 15.8036
      vertex 12.2 14.0596 15.4097
      vertex 15.8 14.0596 15.4097
    endloop
  endfacet
  facet normal -0 0.0980171 0.995185
    outer loop
      vertex 4 12 12.9
      vertex 7.8 11.5903 12.9404
      vertex 7.8 12 12.9
    endloop
  endfacet
  facet normal 0 0.0980171 0.995185
    outer loop
      vertex 7.8 11.5903 12.9404
      vertex 4 12 12.9
      vertex 4 11.5903 12.9404
    endloop
  endfacet
  facet normal -0 0.0980171 0.995185
    outer loop
      vertex 12.2 12 12.9
      vertex 15.8 11.5903 12.9404
      vertex 15.8 12 12.9
    endloop
  endfacet
  facet normal 0 0.0980171 0.995185
    outer loop
      vertex 15.8 11.5903 12.9404
      vertex 12.2 12 12.9
      vertex 12.2 11.5903 12.9404
    endloop
  endfacet
  facet normal 0 0.95694 0.290285
    outer loop
      vertex 7.8 10.0599 14.1964
      vertex 4 9.94035 14.5903
      vertex 7.8 9.94035 14.5903
    endloop
  endfacet
  facet normal 0 0.95694 0.290285
    outer loop
      vertex 4 9.94035 14.5903
      vertex 7.8 10.0599 14.1964
      vertex 4 10.0599 14.1964
    endloop
  endfacet
  facet normal 0 0.95694 0.290285
    outer loop
      vertex 15.8 10.0599 14.1964
      vertex 12.2 9.94035 14.5903
      vertex 15.8 9.94035 14.5903
    endloop
  endfacet
  facet normal 0 0.95694 0.290285
    outer loop
      vertex 12.2 9.94035 14.5903
      vertex 15.8 10.0599 14.1964
      vertex 12.2 10.0599 14.1964
    endloop
  endfacet
  facet normal 0 0.77301 0.634394
    outer loop
      vertex 7.8 10.5151 13.5151
      vertex 4 10.2539 13.8333
      vertex 7.8 10.2539 13.8333
    endloop
  endfacet
  facet normal 0 0.77301 0.634394
    outer loop
      vertex 4 10.2539 13.8333
      vertex 7.8 10.5151 13.5151
      vertex 4 10.5151 13.5151
    endloop
  endfacet
  facet normal 0 0.77301 0.634394
    outer loop
      vertex 15.8 10.5151 13.5151
      vertex 12.2 10.2539 13.8333
      vertex 15.8 10.2539 13.8333
    endloop
  endfacet
  facet normal 0 0.77301 0.634394
    outer loop
      vertex 12.2 10.2539 13.8333
      vertex 15.8 10.5151 13.5151
      vertex 12.2 10.5151 13.5151
    endloop
  endfacet
  facet normal 0 0.95694 -0.290285
    outer loop
      vertex 7.8 9.94035 15.4097
      vertex 4 10.0599 15.8036
      vertex 7.8 10.0599 15.8036
    endloop
  endfacet
  facet normal 0 0.95694 -0.290285
    outer loop
      vertex 4 10.0599 15.8036
      vertex 7.8 9.94035 15.4097
      vertex 4 9.94035 15.4097
    endloop
  endfacet
  facet normal 0 0.95694 -0.290285
    outer loop
      vertex 15.8 9.94035 15.4097
      vertex 12.2 10.0599 15.8036
      vertex 15.8 10.0599 15.8036
    endloop
  endfacet
  facet normal 0 0.95694 -0.290285
    outer loop
      vertex 12.2 10.0599 15.8036
      vertex 15.8 9.94035 15.4097
      vertex 12.2 9.94035 15.4097
    endloop
  endfacet
  facet normal 0 0.881922 -0.471396
    outer loop
      vertex 7.8 10.0599 15.8036
      vertex 4 10.2539 16.1667
      vertex 7.8 10.2539 16.1667
    endloop
  endfacet
  facet normal 0 0.881922 -0.471396
    outer loop
      vertex 4 10.2539 16.1667
      vertex 7.8 10.0599 15.8036
      vertex 4 10.0599 15.8036
    endloop
  endfacet
  facet normal 0 0.881922 -0.471396
    outer loop
      vertex 15.8 10.0599 15.8036
      vertex 12.2 10.2539 16.1667
      vertex 15.8 10.2539 16.1667
    endloop
  endfacet
  facet normal 0 0.881922 -0.471396
    outer loop
      vertex 12.2 10.2539 16.1667
      vertex 15.8 10.0599 15.8036
      vertex 12.2 10.0599 15.8036
    endloop
  endfacet
  facet normal 0 0.995185 -0.0980173
    outer loop
      vertex 7.8 9.9 15
      vertex 4 9.94035 15.4097
      vertex 7.8 9.94035 15.4097
    endloop
  endfacet
  facet normal 0 0.995185 -0.0980173
    outer loop
      vertex 4 9.94035 15.4097
      vertex 7.8 9.9 15
      vertex 4 9.9 15
    endloop
  endfacet
  facet normal 0 0.995185 -0.0980173
    outer loop
      vertex 15.8 9.9 15
      vertex 12.2 9.94035 15.4097
      vertex 15.8 9.94035 15.4097
    endloop
  endfacet
  facet normal 0 0.995185 -0.0980173
    outer loop
      vertex 12.2 9.94035 15.4097
      vertex 15.8 9.9 15
      vertex 12.2 9.9 15
    endloop
  endfacet
  facet normal 0 0.290282 -0.956941
    outer loop
      vertex 4 11.1964 16.9401
      vertex 7.8 11.5903 17.0596
      vertex 7.8 11.1964 16.9401
    endloop
  endfacet
  facet normal 0 0.290282 -0.956941
    outer loop
      vertex 7.8 11.5903 17.0596
      vertex 4 11.1964 16.9401
      vertex 4 11.5903 17.0596
    endloop
  endfacet
  facet normal 0 0.290282 -0.956941
    outer loop
      vertex 12.2 11.1964 16.9401
      vertex 15.8 11.5903 17.0596
      vertex 15.8 11.1964 16.9401
    endloop
  endfacet
  facet normal 0 0.290282 -0.956941
    outer loop
      vertex 15.8 11.5903 17.0596
      vertex 12.2 11.1964 16.9401
      vertex 12.2 11.5903 17.0596
    endloop
  endfacet
  facet normal 0 0.634393 -0.773011
    outer loop
      vertex 4 10.5151 16.4849
      vertex 7.8 10.8333 16.7461
      vertex 7.8 10.5151 16.4849
    endloop
  endfacet
  facet normal 0 0.634393 -0.773011
    outer loop
      vertex 7.8 10.8333 16.7461
      vertex 4 10.5151 16.4849
      vertex 4 10.8333 16.7461
    endloop
  endfacet
  facet normal 0 0.634393 -0.773011
    outer loop
      vertex 12.2 10.5151 16.4849
      vertex 15.8 10.8333 16.7461
      vertex 15.8 10.5151 16.4849
    endloop
  endfacet
  facet normal 0 0.634393 -0.773011
    outer loop
      vertex 15.8 10.8333 16.7461
      vertex 12.2 10.5151 16.4849
      vertex 12.2 10.8333 16.7461
    endloop
  endfacet
  facet normal 0 0.471398 -0.881921
    outer loop
      vertex 4 10.8333 16.7461
      vertex 7.8 11.1964 16.9401
      vertex 7.8 10.8333 16.7461
    endloop
  endfacet
  facet normal 0 0.471398 -0.881921
    outer loop
      vertex 7.8 11.1964 16.9401
      vertex 4 10.8333 16.7461
      vertex 4 11.1964 16.9401
    endloop
  endfacet
  facet normal 0 0.471398 -0.881921
    outer loop
      vertex 12.2 10.8333 16.7461
      vertex 15.8 11.1964 16.9401
      vertex 15.8 10.8333 16.7461
    endloop
  endfacet
  facet normal 0 0.471398 -0.881921
    outer loop
      vertex 15.8 11.1964 16.9401
      vertex 12.2 10.8333 16.7461
      vertex 12.2 11.1964 16.9401
    endloop
  endfacet
  facet normal 0 -0.471396 0.881922
    outer loop
      vertex 4 13.1667 13.2539
      vertex 7.8 12.8036 13.0599
      vertex 7.8 13.1667 13.2539
    endloop
  endfacet
  facet normal 0 -0.471396 0.881922
    outer loop
      vertex 7.8 12.8036 13.0599
      vertex 4 13.1667 13.2539
      vertex 4 12.8036 13.0599
    endloop
  endfacet
  facet normal 0 -0.471396 0.881922
    outer loop
      vertex 12.2 13.1667 13.2539
      vertex 15.8 12.8036 13.0599
      vertex 15.8 13.1667 13.2539
    endloop
  endfacet
  facet normal 0 -0.471396 0.881922
    outer loop
      vertex 15.8 12.8036 13.0599
      vertex 12.2 13.1667 13.2539
      vertex 12.2 12.8036 13.0599
    endloop
  endfacet
  facet normal 0 -0.77301 0.634394
    outer loop
      vertex 4 13.4849 13.5151
      vertex 7.8 13.7461 13.8333
      vertex 4 13.7461 13.8333
    endloop
  endfacet
  facet normal 0 -0.77301 0.634394
    outer loop
      vertex 7.8 13.7461 13.8333
      vertex 4 13.4849 13.5151
      vertex 7.8 13.4849 13.5151
    endloop
  endfacet
  facet normal 0 -0.77301 0.634394
    outer loop
      vertex 12.2 13.4849 13.5151
      vertex 15.8 13.7461 13.8333
      vertex 12.2 13.7461 13.8333
    endloop
  endfacet
  facet normal 0 -0.77301 0.634394
    outer loop
      vertex 15.8 13.7461 13.8333
      vertex 12.2 13.4849 13.5151
      vertex 15.8 13.4849 13.5151
    endloop
  endfacet
  facet normal 0 -0.95694 0.290285
    outer loop
      vertex 4 13.9401 14.1964
      vertex 7.8 14.0596 14.5903
      vertex 4 14.0596 14.5903
    endloop
  endfacet
  facet normal 0 -0.95694 0.290285
    outer loop
      vertex 7.8 14.0596 14.5903
      vertex 4 13.9401 14.1964
      vertex 7.8 13.9401 14.1964
    endloop
  endfacet
  facet normal 0 -0.95694 0.290285
    outer loop
      vertex 12.2 13.9401 14.1964
      vertex 15.8 14.0596 14.5903
      vertex 12.2 14.0596 14.5903
    endloop
  endfacet
  facet normal 0 -0.95694 0.290285
    outer loop
      vertex 15.8 14.0596 14.5903
      vertex 12.2 13.9401 14.1964
      vertex 15.8 13.9401 14.1964
    endloop
  endfacet
  facet normal 0 0.881922 0.471396
    outer loop
      vertex 7.8 10.2539 13.8333
      vertex 4 10.0599 14.1964
      vertex 7.8 10.0599 14.1964
    endloop
  endfacet
  facet normal 0 0.881922 0.471396
    outer loop
      vertex 4 10.0599 14.1964
      vertex 7.8 10.2539 13.8333
      vertex 4 10.2539 13.8333
    endloop
  endfacet
  facet normal 0 0.881922 0.471396
    outer loop
      vertex 15.8 10.2539 13.8333
      vertex 12.2 10.0599 14.1964
      vertex 15.8 10.0599 14.1964
    endloop
  endfacet
  facet normal 0 0.881922 0.471396
    outer loop
      vertex 12.2 10.0599 14.1964
      vertex 15.8 10.2539 13.8333
      vertex 12.2 10.2539 13.8333
    endloop
  endfacet
  facet normal -0 0.634394 0.77301
    outer loop
      vertex 4 10.8333 13.2539
      vertex 7.8 10.5151 13.5151
      vertex 7.8 10.8333 13.2539
    endloop
  endfacet
  facet normal 0 0.634394 0.77301
    outer loop
      vertex 7.8 10.5151 13.5151
      vertex 4 10.8333 13.2539
      vertex 4 10.5151 13.5151
    endloop
  endfacet
  facet normal -0 0.634394 0.77301
    outer loop
      vertex 12.2 10.8333 13.2539
      vertex 15.8 10.5151 13.5151
      vertex 15.8 10.8333 13.2539
    endloop
  endfacet
  facet normal 0 0.634394 0.77301
    outer loop
      vertex 15.8 10.5151 13.5151
      vertex 12.2 10.8333 13.2539
      vertex 12.2 10.5151 13.5151
    endloop
  endfacet
  facet normal -0 0.290285 0.95694
    outer loop
      vertex 4 11.5903 12.9404
      vertex 7.8 11.1964 13.0599
      vertex 7.8 11.5903 12.9404
    endloop
  endfacet
  facet normal 0 0.290285 0.95694
    outer loop
      vertex 7.8 11.1964 13.0599
      vertex 4 11.5903 12.9404
      vertex 4 11.1964 13.0599
    endloop
  endfacet
  facet normal -0 0.290285 0.95694
    outer loop
      vertex 12.2 11.5903 12.9404
      vertex 15.8 11.1964 13.0599
      vertex 15.8 11.5903 12.9404
    endloop
  endfacet
  facet normal 0 0.290285 0.95694
    outer loop
      vertex 15.8 11.1964 13.0599
      vertex 12.2 11.5903 12.9404
      vertex 12.2 11.1964 13.0599
    endloop
  endfacet
  facet normal 0 0.995185 0.0980171
    outer loop
      vertex 7.8 9.94035 14.5903
      vertex 4 9.9 15
      vertex 7.8 9.9 15
    endloop
  endfacet
  facet normal 0 0.995185 0.0980171
    outer loop
      vertex 4 9.9 15
      vertex 7.8 9.94035 14.5903
      vertex 4 9.94035 14.5903
    endloop
  endfacet
  facet normal 0 0.995185 0.0980171
    outer loop
      vertex 15.8 9.94035 14.5903
      vertex 12.2 9.9 15
      vertex 15.8 9.9 15
    endloop
  endfacet
  facet normal 0 0.995185 0.0980171
    outer loop
      vertex 12.2 9.9 15
      vertex 15.8 9.94035 14.5903
      vertex 12.2 9.94035 14.5903
    endloop
  endfacet
  facet normal -1 0 0
    outer loop
      vertex 0 0 0
      vertex 0 24 3
      vertex 0 24 0
    endloop
  endfacet
  facet normal -1 -0 0
    outer loop
      vertex 0 24 3
      vertex 0 0 0
      vertex 0 0 3
    endloop
  endfacet
  facet normal 1 -0 0
    outer loop
      vertex 24 0 3
      vertex 24 24 0
      vertex 24 24 3
    endloop
  endfacet
  facet normal 1 0 0
    outer loop
      vertex 24 24 0
      vertex 24 0 3
      vertex 24 0 0
    endloop
  endfacet
  facet normal 0 0 -1
    outer loop
      vertex 0 0 0
      vertex 24 24 0
      vertex 24 0 0
    endloop
  endfacet
  facet normal -0 0 -1
    outer loop
      vertex 24 24 0
      vertex 0 0 0
      vertex 0 24 0
    endloop
  endfacet
  facet normal 0 -1 0
    outer loop
      vertex 0 0 0
      vertex 24 0 3
      vertex 0 0 3
    endloop
  endfacet
  facet normal 0 -1 -0
    outer loop
      vertex 24 0 3
      vertex 0 0 0
      vertex 24 0 0
    endloop
  endfacet
  facet normal 0 1 -0
    outer loop
      vertex 24 24 0
      vertex 0 24 3
      vertex 24 24 3
    endloop
  endfacet
  facet normal 0 1 0
    outer loop
      vertex 0 24 3
      vertex 24 24 0
      vertex 0 24 0
    endloop
  endfacet
endsolid OpenSCAD_Model
