solid OpenSCAD_Model
  facet normal 0.994522 0.104528 0
    outer loop
      vertex 16.3001 1.90169 5.77342
      vertex 16.1394 3.43054 0
      vertex 16.1394 3.43054 6.47162
    endloop
  endfacet
  facet normal 0.994521 0.104535 1.80054e-006
    outer loop
      vertex 16.3098 1.80986 5.76022
      vertex 16.1394 3.43054 0
      vertex 16.3001 1.90169 5.77342
    endloop
  endfacet
  facet normal 0.994522 0.104528 -0
    outer loop
      vertex 16.5 0 0
      vertex 16.3098 1.80986 5.76022
      vertex 16.5 0 5.5
    endloop
  endfacet
  facet normal 0.994522 0.104529 -6.19645e-008
    outer loop
      vertex 16.3098 1.80986 5.76022
      vertex 16.5 0 0
      vertex 16.1394 3.43054 0
    endloop
  endfacet
  facet normal 0.994522 0.104528 0
    outer loop
      vertex 16.1394 3.43054 25
      vertex 16.3001 1.90169 18.7266
      vertex 16.1394 3.43054 18.0284
    endloop
  endfacet
  facet normal 0.994522 0.104529 -4.38001e-008
    outer loop
      vertex 16.5 0 25
      vertex 16.3001 1.90169 18.7266
      vertex 16.1394 3.43054 25
    endloop
  endfacet
  facet normal 0.994522 0.104529 0
    outer loop
      vertex 16.3001 1.90169 18.7266
      vertex 16.5 0 25
      vertex 16.5 0 19
    endloop
  endfacet
  facet normal -0.994522 0.104528 0
    outer loop
      vertex -16.1394 3.43054 0
      vertex -16.3001 1.90169 5.77342
      vertex -16.1394 3.43054 6.47162
    endloop
  endfacet
  facet normal -0.994522 0.104529 4.75933e-008
    outer loop
      vertex -16.5 0 0
      vertex -16.3001 1.90169 5.77342
      vertex -16.1394 3.43054 0
    endloop
  endfacet
  facet normal -0.994522 0.104528 1.25547e-007
    outer loop
      vertex -16.3001 1.90169 5.77342
      vertex -16.5 0 0
      vertex -16.4971 0.0273231 5.50393
    endloop
  endfacet
  facet normal -0.994519 0.104553 0
    outer loop
      vertex -16.4971 0.0273231 5.50393
      vertex -16.5 0 0
      vertex -16.5 0 5.5
    endloop
  endfacet
  facet normal -0.994522 0.104528 0
    outer loop
      vertex -16.3001 1.90169 18.7266
      vertex -16.1394 3.43054 25
      vertex -16.1394 3.43054 18.0284
    endloop
  endfacet
  facet normal -0.994522 0.104529 0
    outer loop
      vertex -16.5 0 25
      vertex -16.3001 1.90169 18.7266
      vertex -16.5 0 19
    endloop
  endfacet
  facet normal -0.994522 0.104529 -4.38001e-008
    outer loop
      vertex -16.3001 1.90169 18.7266
      vertex -16.5 0 25
      vertex -16.1394 3.43054 25
    endloop
  endfacet
  facet normal 0 1 -0
    outer loop
      vertex 1.72472 16.4096 0
      vertex -1.72472 16.4096 25
      vertex 1.72472 16.4096 25
    endloop
  endfacet
  facet normal 0 1 0
    outer loop
      vertex -1.72472 16.4096 25
      vertex 1.72472 16.4096 0
      vertex -1.72472 16.4096 0
    endloop
  endfacet
  facet normal 0.743145 0.669131 0
    outer loop
      vertex 13.3488 9.69846 25
      vertex 11.0407 12.2619 0
      vertex 11.0407 12.2619 25
    endloop
  endfacet
  facet normal 0.743145 0.669131 0
    outer loop
      vertex 11.0407 12.2619 0
      vertex 13.3488 9.69846 25
      vertex 13.3488 9.69846 0
    endloop
  endfacet
  facet normal 0.951059 0.309011 0
    outer loop
      vertex 15.0735 6.71115 25
      vertex 15.0832 6.68129 13.2106
      vertex 15.0735 6.71115 0
    endloop
  endfacet
  facet normal 0.951057 0.309016 -1.66231e-008
    outer loop
      vertex 15.0735 6.71115 25
      vertex 15.2591 6.14002 15.0541
      vertex 15.0832 6.68129 13.2106
    endloop
  endfacet
  facet normal 0.951056 0.309017 -6.91751e-008
    outer loop
      vertex 15.0735 6.71115 25
      vertex 15.5966 5.10131 16.6703
      vertex 15.2591 6.14002 15.0541
    endloop
  endfacet
  facet normal 0.951057 0.309017 5.10963e-009
    outer loop
      vertex 15.0735 6.71115 25
      vertex 16.0683 3.64933 17.9285
      vertex 15.5966 5.10131 16.6703
    endloop
  endfacet
  facet normal 0.951057 0.309017 -0
    outer loop
      vertex 16.1394 3.43054 18.0284
      vertex 15.0735 6.71115 25
      vertex 16.1394 3.43054 25
    endloop
  endfacet
  facet normal 0.951057 0.309017 2.09173e-007
    outer loop
      vertex 15.0735 6.71115 25
      vertex 16.1394 3.43054 18.0284
      vertex 16.0683 3.64933 17.9285
    endloop
  endfacet
  facet normal 0.951059 0.309011 -0
    outer loop
      vertex 15.0832 6.68129 11.2894
      vertex 15.0735 6.71115 0
      vertex 15.0832 6.68129 13.2106
    endloop
  endfacet
  facet normal 0.951057 0.309016 1.73528e-008
    outer loop
      vertex 15.2591 6.14002 9.44595
      vertex 15.0735 6.71115 0
      vertex 15.0832 6.68129 11.2894
    endloop
  endfacet
  facet normal 0.951056 0.309017 7.25218e-008
    outer loop
      vertex 15.5966 5.10131 7.82969
      vertex 15.0735 6.71115 0
      vertex 15.2591 6.14002 9.44595
    endloop
  endfacet
  facet normal 0.951057 0.309017 -5.38659e-009
    outer loop
      vertex 16.0683 3.64933 6.57154
      vertex 15.0735 6.71115 0
      vertex 15.5966 5.10131 7.82969
    endloop
  endfacet
  facet normal 0.951057 0.309017 -2.22296e-007
    outer loop
      vertex 16.1394 3.43054 6.47162
      vertex 15.0735 6.71115 0
      vertex 16.0683 3.64933 6.57154
    endloop
  endfacet
  facet normal 0.951057 0.309017 0
    outer loop
      vertex 15.0735 6.71115 0
      vertex 16.1394 3.43054 6.47162
      vertex 16.1394 3.43054 0
    endloop
  endfacet
  facet normal -0.587785 0.809017 0
    outer loop
      vertex -8.25 14.2894 0
      vertex -11.0407 12.2619 25
      vertex -8.25 14.2894 25
    endloop
  endfacet
  facet normal -0.587785 0.809017 0
    outer loop
      vertex -11.0407 12.2619 25
      vertex -8.25 14.2894 0
      vertex -11.0407 12.2619 0
    endloop
  endfacet
  facet normal -0.207912 0.978148 0
    outer loop
      vertex -1.72472 16.4096 0
      vertex -5.09878 15.6924 25
      vertex -1.72472 16.4096 25
    endloop
  endfacet
  facet normal -0.207912 0.978148 0
    outer loop
      vertex -5.09878 15.6924 25
      vertex -1.72472 16.4096 0
      vertex -5.09878 15.6924 0
    endloop
  endfacet
  facet normal 0.866025 0.5 0
    outer loop
      vertex 15.0735 6.71115 25
      vertex 13.3488 9.69846 0
      vertex 13.3488 9.69846 25
    endloop
  endfacet
  facet normal 0.866025 0.5 0
    outer loop
      vertex 13.3488 9.69846 0
      vertex 15.0735 6.71115 25
      vertex 15.0735 6.71115 0
    endloop
  endfacet
  facet normal 0.406737 0.913545 -0
    outer loop
      vertex 8.25 14.2894 0
      vertex 5.09878 15.6924 25
      vertex 8.25 14.2894 25
    endloop
  endfacet
  facet normal 0.406737 0.913545 0
    outer loop
      vertex 5.09878 15.6924 25
      vertex 8.25 14.2894 0
      vertex 5.09878 15.6924 0
    endloop
  endfacet
  facet normal 0.207912 0.978148 -0
    outer loop
      vertex 5.09878 15.6924 0
      vertex 1.72472 16.4096 25
      vertex 5.09878 15.6924 25
    endloop
  endfacet
  facet normal 0.207912 0.978148 0
    outer loop
      vertex 1.72472 16.4096 25
      vertex 5.09878 15.6924 0
      vertex 1.72472 16.4096 0
    endloop
  endfacet
  facet normal 0.587785 0.809017 -0
    outer loop
      vertex 11.0407 12.2619 0
      vertex 8.25 14.2894 25
      vertex 11.0407 12.2619 25
    endloop
  endfacet
  facet normal 0.587785 0.809017 0
    outer loop
      vertex 8.25 14.2894 25
      vertex 11.0407 12.2619 0
      vertex 8.25 14.2894 0
    endloop
  endfacet
  facet normal -0.866025 0.5 0
    outer loop
      vertex -15.0735 6.71115 0
      vertex -13.3488 9.69846 25
      vertex -13.3488 9.69846 0
    endloop
  endfacet
  facet normal -0.866025 0.5 0
    outer loop
      vertex -13.3488 9.69846 25
      vertex -15.0735 6.71115 0
      vertex -15.0735 6.71115 25
    endloop
  endfacet
  facet normal -0.743145 0.669131 0
    outer loop
      vertex -13.3488 9.69846 0
      vertex -11.0407 12.2619 25
      vertex -11.0407 12.2619 0
    endloop
  endfacet
  facet normal -0.743145 0.669131 0
    outer loop
      vertex -11.0407 12.2619 25
      vertex -13.3488 9.69846 0
      vertex -13.3488 9.69846 25
    endloop
  endfacet
  facet normal -0.951059 0.309011 0
    outer loop
      vertex -15.0735 6.71115 0
      vertex -15.0832 6.68129 11.2894
      vertex -15.0735 6.71115 25
    endloop
  endfacet
  facet normal -0.951057 0.309016 1.73528e-008
    outer loop
      vertex -15.0735 6.71115 0
      vertex -15.2591 6.14002 9.44595
      vertex -15.0832 6.68129 11.2894
    endloop
  endfacet
  facet normal -0.951056 0.309017 7.25218e-008
    outer loop
      vertex -15.0735 6.71115 0
      vertex -15.5966 5.10131 7.82969
      vertex -15.2591 6.14002 9.44595
    endloop
  endfacet
  facet normal -0.951057 0.309017 -5.38659e-009
    outer loop
      vertex -15.0735 6.71115 0
      vertex -16.0683 3.64933 6.57154
      vertex -15.5966 5.10131 7.82969
    endloop
  endfacet
  facet normal -0.951057 0.309017 -1.79793e-008
    outer loop
      vertex -16.1394 3.43054 0
      vertex -16.0683 3.64933 6.57154
      vertex -15.0735 6.71115 0
    endloop
  endfacet
  facet normal -0.951057 0.309016 0
    outer loop
      vertex -16.0683 3.64933 6.57154
      vertex -16.1394 3.43054 0
      vertex -16.1394 3.43054 6.47162
    endloop
  endfacet
  facet normal -0.951059 0.309011 0
    outer loop
      vertex -15.0832 6.68129 13.2106
      vertex -15.0735 6.71115 25
      vertex -15.0832 6.68129 11.2894
    endloop
  endfacet
  facet normal -0.951057 0.309016 -1.66231e-008
    outer loop
      vertex -15.2591 6.14002 15.0541
      vertex -15.0735 6.71115 25
      vertex -15.0832 6.68129 13.2106
    endloop
  endfacet
  facet normal -0.951056 0.309017 -6.91751e-008
    outer loop
      vertex -15.5966 5.10131 16.6703
      vertex -15.0735 6.71115 25
      vertex -15.2591 6.14002 15.0541
    endloop
  endfacet
  facet normal -0.951057 0.309017 5.10963e-009
    outer loop
      vertex -16.0683 3.64933 17.9285
      vertex -15.0735 6.71115 25
      vertex -15.5966 5.10131 16.6703
    endloop
  endfacet
  facet normal -0.951057 0.309017 2.09173e-007
    outer loop
      vertex -16.1394 3.43054 18.0284
      vertex -15.0735 6.71115 25
      vertex -16.0683 3.64933 17.9285
    endloop
  endfacet
  facet normal -0.951057 0.309017 0
    outer loop
      vertex -15.0735 6.71115 25
      vertex -16.1394 3.43054 18.0284
      vertex -16.1394 3.43054 25
    endloop
  endfacet
  facet normal 0 0 1
    outer loop
      vertex 16.1394 3.43054 25
      vertex 16.1394 -3.43054 25
      vertex 16.5 0 25
    endloop
  endfacet
  facet normal 0 0 1
    outer loop
      vertex 15.0735 6.71115 25
      vertex 16.1394 -3.43054 25
      vertex 16.1394 3.43054 25
    endloop
  endfacet
  facet normal 0 0 1
    outer loop
      vertex 15.0735 6.71115 25
      vertex 15.0735 -6.71115 25
      vertex 16.1394 -3.43054 25
    endloop
  endfacet
  facet normal 0 0 1
    outer loop
      vertex 13.3488 9.69846 25
      vertex 15.0735 -6.71115 25
      vertex 15.0735 6.71115 25
    endloop
  endfacet
  facet normal 0 0 1
    outer loop
      vertex 13.3488 9.69846 25
      vertex 13.3488 -9.69846 25
      vertex 15.0735 -6.71115 25
    endloop
  endfacet
  facet normal 0 0 1
    outer loop
      vertex 11.0407 12.2619 25
      vertex 13.3488 -9.69846 25
      vertex 13.3488 9.69846 25
    endloop
  endfacet
  facet normal 0 0 1
    outer loop
      vertex 11.0407 12.2619 25
      vertex 11.0407 -12.2619 25
      vertex 13.3488 -9.69846 25
    endloop
  endfacet
  facet normal 0 0 1
    outer loop
      vertex 8.25 14.2894 25
      vertex 11.0407 -12.2619 25
      vertex 11.0407 12.2619 25
    endloop
  endfacet
  facet normal 0 0 1
    outer loop
      vertex 8.25 14.2894 25
      vertex 8.25 -14.2894 25
      vertex 11.0407 -12.2619 25
    endloop
  endfacet
  facet normal 0 0 1
    outer loop
      vertex 5.09878 15.6924 25
      vertex 8.25 -14.2894 25
      vertex 8.25 14.2894 25
    endloop
  endfacet
  facet normal 0 0 1
    outer loop
      vertex 5.09878 15.6924 25
      vertex 5.09878 -15.6924 25
      vertex 8.25 -14.2894 25
    endloop
  endfacet
  facet normal 0 0 1
    outer loop
      vertex 1.72472 16.4096 25
      vertex 5.09878 -15.6924 25
      vertex 5.09878 15.6924 25
    endloop
  endfacet
  facet normal 0 0 1
    outer loop
      vertex 1.72472 16.4096 25
      vertex 1.72472 -16.4096 25
      vertex 5.09878 -15.6924 25
    endloop
  endfacet
  facet normal -0 0 1
    outer loop
      vertex -1.72472 16.4096 25
      vertex 1.72472 -16.4096 25
      vertex 1.72472 16.4096 25
    endloop
  endfacet
  facet normal 0 0 1
    outer loop
      vertex -1.72472 16.4096 25
      vertex -1.72472 -16.4096 25
      vertex 1.72472 -16.4096 25
    endloop
  endfacet
  facet normal -0 0 1
    outer loop
      vertex -5.09878 15.6924 25
      vertex -1.72472 -16.4096 25
      vertex -1.72472 16.4096 25
    endloop
  endfacet
  facet normal 0 0 1
    outer loop
      vertex -5.09878 15.6924 25
      vertex -5.09878 -15.6924 25
      vertex -1.72472 -16.4096 25
    endloop
  endfacet
  facet normal -0 0 1
    outer loop
      vertex -8.25 14.2894 25
      vertex -5.09878 -15.6924 25
      vertex -5.09878 15.6924 25
    endloop
  endfacet
  facet normal 0 0 1
    outer loop
      vertex -8.25 14.2894 25
      vertex -8.25 -14.2894 25
      vertex -5.09878 -15.6924 25
    endloop
  endfacet
  facet normal -0 0 1
    outer loop
      vertex -11.0407 12.2619 25
      vertex -8.25 -14.2894 25
      vertex -8.25 14.2894 25
    endloop
  endfacet
  facet normal 0 0 1
    outer loop
      vertex -11.0407 12.2619 25
      vertex -11.0407 -12.2619 25
      vertex -8.25 -14.2894 25
    endloop
  endfacet
  facet normal -0 0 1
    outer loop
      vertex -13.3488 9.69846 25
      vertex -11.0407 -12.2619 25
      vertex -11.0407 12.2619 25
    endloop
  endfacet
  facet normal 0 0 1
    outer loop
      vertex -13.3488 9.69846 25
      vertex -13.3488 -9.69846 25
      vertex -11.0407 -12.2619 25
    endloop
  endfacet
  facet normal -0 0 1
    outer loop
      vertex -15.0735 6.71115 25
      vertex -13.3488 -9.69846 25
      vertex -13.3488 9.69846 25
    endloop
  endfacet
  facet normal 0 0 1
    outer loop
      vertex -15.0735 6.71115 25
      vertex -15.0735 -6.71115 25
      vertex -13.3488 -9.69846 25
    endloop
  endfacet
  facet normal -0 0 1
    outer loop
      vertex -16.1394 3.43054 25
      vertex -15.0735 -6.71115 25
      vertex -15.0735 6.71115 25
    endloop
  endfacet
  facet normal 0 0 1
    outer loop
      vertex -16.1394 3.43054 25
      vertex -16.1394 -3.43054 25
      vertex -15.0735 -6.71115 25
    endloop
  endfacet
  facet normal 0 -0 1
    outer loop
      vertex -16.1394 -3.43054 25
      vertex -16.1394 3.43054 25
      vertex -16.5 0 25
    endloop
  endfacet
  facet normal -0.406737 0.913545 0
    outer loop
      vertex -5.09878 15.6924 0
      vertex -8.25 14.2894 25
      vertex -5.09878 15.6924 25
    endloop
  endfacet
  facet normal -0.406737 0.913545 0
    outer loop
      vertex -8.25 14.2894 25
      vertex -5.09878 15.6924 0
      vertex -8.25 14.2894 0
    endloop
  endfacet
  facet normal 0.994522 -0.104529 0
    outer loop
      vertex 16.5 0 25
      vertex 16.3001 -1.90169 18.7266
      vertex 16.5 0 19
    endloop
  endfacet
  facet normal 0.994522 -0.104529 -4.38001e-008
    outer loop
      vertex 16.1394 -3.43054 25
      vertex 16.3001 -1.90169 18.7266
      vertex 16.5 0 25
    endloop
  endfacet
  facet normal 0.994522 -0.104528 0
    outer loop
      vertex 16.3001 -1.90169 18.7266
      vertex 16.1394 -3.43054 25
      vertex 16.1394 -3.43054 18.0284
    endloop
  endfacet
  facet normal 0.994522 -0.104528 0
    outer loop
      vertex 16.3098 -1.80986 5.76022
      vertex 16.5 0 0
      vertex 16.5 0 5.5
    endloop
  endfacet
  facet normal 0.994521 -0.104535 1.80054e-006
    outer loop
      vertex 16.1394 -3.43054 0
      vertex 16.3098 -1.80986 5.76022
      vertex 16.3001 -1.90169 5.77342
    endloop
  endfacet
  facet normal 0.994522 -0.104528 0
    outer loop
      vertex 16.1394 -3.43054 0
      vertex 16.3001 -1.90169 5.77342
      vertex 16.1394 -3.43054 6.47162
    endloop
  endfacet
  facet normal 0.994522 -0.104529 -6.19645e-008
    outer loop
      vertex 16.3098 -1.80986 5.76022
      vertex 16.1394 -3.43054 0
      vertex 16.5 0 0
    endloop
  endfacet
  facet normal -0.207912 -0.978148 0
    outer loop
      vertex -5.09878 -15.6924 0
      vertex -1.72472 -16.4096 25
      vertex -5.09878 -15.6924 25
    endloop
  endfacet
  facet normal -0.207912 -0.978148 -0
    outer loop
      vertex -1.72472 -16.4096 25
      vertex -5.09878 -15.6924 0
      vertex -1.72472 -16.4096 0
    endloop
  endfacet
  facet normal 0.207912 -0.978148 0
    outer loop
      vertex 1.72472 -16.4096 0
      vertex 5.09878 -15.6924 25
      vertex 1.72472 -16.4096 25
    endloop
  endfacet
  facet normal 0.207912 -0.978148 0
    outer loop
      vertex 5.09878 -15.6924 25
      vertex 1.72472 -16.4096 0
      vertex 5.09878 -15.6924 0
    endloop
  endfacet
  facet normal 0.743145 -0.669131 0
    outer loop
      vertex 11.0407 -12.2619 25
      vertex 13.3488 -9.69846 0
      vertex 13.3488 -9.69846 25
    endloop
  endfacet
  facet normal 0.743145 -0.669131 0
    outer loop
      vertex 13.3488 -9.69846 0
      vertex 11.0407 -12.2619 25
      vertex 11.0407 -12.2619 0
    endloop
  endfacet
  facet normal 0.951057 -0.309017 0
    outer loop
      vertex 15.0735 -6.71115 25
      vertex 16.1394 -3.43054 18.0284
      vertex 16.1394 -3.43054 25
    endloop
  endfacet
  facet normal 0.951057 -0.309017 2.09173e-007
    outer loop
      vertex 16.1394 -3.43054 18.0284
      vertex 15.0735 -6.71115 25
      vertex 16.0683 -3.64933 17.9285
    endloop
  endfacet
  facet normal 0.951057 -0.309017 5.10963e-009
    outer loop
      vertex 16.0683 -3.64933 17.9285
      vertex 15.0735 -6.71115 25
      vertex 15.5966 -5.10131 16.6703
    endloop
  endfacet
  facet normal 0.951056 -0.309017 -6.91751e-008
    outer loop
      vertex 15.5966 -5.10131 16.6703
      vertex 15.0735 -6.71115 25
      vertex 15.2591 -6.14002 15.0541
    endloop
  endfacet
  facet normal 0.951059 -0.309011 0
    outer loop
      vertex 15.0832 -6.68129 13.2106
      vertex 15.0735 -6.71115 25
      vertex 15.0832 -6.68129 11.2894
    endloop
  endfacet
  facet normal 0.951057 -0.309016 -1.66231e-008
    outer loop
      vertex 15.2591 -6.14002 15.0541
      vertex 15.0735 -6.71115 25
      vertex 15.0832 -6.68129 13.2106
    endloop
  endfacet
  facet normal 0.951057 -0.309016 0
    outer loop
      vertex 16.0683 -3.64933 6.57154
      vertex 16.1394 -3.43054 0
      vertex 16.1394 -3.43054 6.47162
    endloop
  endfacet
  facet normal 0.951057 -0.309017 -5.38659e-009
    outer loop
      vertex 15.0735 -6.71115 0
      vertex 16.0683 -3.64933 6.57154
      vertex 15.5966 -5.10131 7.82969
    endloop
  endfacet
  facet normal 0.951056 -0.309017 7.25218e-008
    outer loop
      vertex 15.0735 -6.71115 0
      vertex 15.5966 -5.10131 7.82969
      vertex 15.2591 -6.14002 9.44595
    endloop
  endfacet
  facet normal 0.951057 -0.309016 1.73528e-008
    outer loop
      vertex 15.0735 -6.71115 0
      vertex 15.2591 -6.14002 9.44595
      vertex 15.0832 -6.68129 11.2894
    endloop
  endfacet
  facet normal 0.951057 -0.309017 -1.79793e-008
    outer loop
      vertex 16.0683 -3.64933 6.57154
      vertex 15.0735 -6.71115 0
      vertex 16.1394 -3.43054 0
    endloop
  endfacet
  facet normal 0.951059 -0.309011 0
    outer loop
      vertex 15.0735 -6.71115 0
      vertex 15.0832 -6.68129 11.2894
      vertex 15.0735 -6.71115 25
    endloop
  endfacet
  facet normal 0.866025 -0.5 0
    outer loop
      vertex 13.3488 -9.69846 25
      vertex 15.0735 -6.71115 0
      vertex 15.0735 -6.71115 25
    endloop
  endfacet
  facet normal 0.866025 -0.5 0
    outer loop
      vertex 15.0735 -6.71115 0
      vertex 13.3488 -9.69846 25
      vertex 13.3488 -9.69846 0
    endloop
  endfacet
  facet normal -0.406737 -0.913545 0
    outer loop
      vertex -8.25 -14.2894 0
      vertex -5.09878 -15.6924 25
      vertex -8.25 -14.2894 25
    endloop
  endfacet
  facet normal -0.406737 -0.913545 -0
    outer loop
      vertex -5.09878 -15.6924 25
      vertex -8.25 -14.2894 0
      vertex -5.09878 -15.6924 0
    endloop
  endfacet
  facet normal -0.866025 -0.5 0
    outer loop
      vertex -13.3488 -9.69846 0
      vertex -15.0735 -6.71115 25
      vertex -15.0735 -6.71115 0
    endloop
  endfacet
  facet normal -0.866025 -0.5 0
    outer loop
      vertex -15.0735 -6.71115 25
      vertex -13.3488 -9.69846 0
      vertex -13.3488 -9.69846 25
    endloop
  endfacet
  facet normal -0.994519 -0.104553 0
    outer loop
      vertex -16.5 0 0
      vertex -16.4971 -0.0273231 5.50393
      vertex -16.5 0 5.5
    endloop
  endfacet
  facet normal -0.994522 -0.104528 1.25547e-007
    outer loop
      vertex -16.5 0 0
      vertex -16.3001 -1.90169 5.77342
      vertex -16.4971 -0.0273231 5.50393
    endloop
  endfacet
  facet normal -0.994522 -0.104529 4.75933e-008
    outer loop
      vertex -16.1394 -3.43054 0
      vertex -16.3001 -1.90169 5.77342
      vertex -16.5 0 0
    endloop
  endfacet
  facet normal -0.994522 -0.104528 0
    outer loop
      vertex -16.3001 -1.90169 5.77342
      vertex -16.1394 -3.43054 0
      vertex -16.1394 -3.43054 6.47162
    endloop
  endfacet
  facet normal -0.994522 -0.104529 0
    outer loop
      vertex -16.3001 -1.90169 18.7266
      vertex -16.5 0 25
      vertex -16.5 0 19
    endloop
  endfacet
  facet normal -0.994522 -0.104528 -0
    outer loop
      vertex -16.1394 -3.43054 25
      vertex -16.3001 -1.90169 18.7266
      vertex -16.1394 -3.43054 18.0284
    endloop
  endfacet
  facet normal -0.994522 -0.104529 -4.38001e-008
    outer loop
      vertex -16.3001 -1.90169 18.7266
      vertex -16.1394 -3.43054 25
      vertex -16.5 0 25
    endloop
  endfacet
  facet normal -0.951057 -0.309016 0
    outer loop
      vertex -16.1394 -3.43054 0
      vertex -16.0683 -3.64933 6.57154
      vertex -16.1394 -3.43054 6.47162
    endloop
  endfacet
  facet normal -0.951057 -0.309017 -1.79793e-008
    outer loop
      vertex -15.0735 -6.71115 0
      vertex -16.0683 -3.64933 6.57154
      vertex -16.1394 -3.43054 0
    endloop
  endfacet
  facet normal -0.951057 -0.309017 -5.38659e-009
    outer loop
      vertex -16.0683 -3.64933 6.57154
      vertex -15.0735 -6.71115 0
      vertex -15.5966 -5.10131 7.82969
    endloop
  endfacet
  facet normal -0.951056 -0.309017 7.25218e-008
    outer loop
      vertex -15.5966 -5.10131 7.82969
      vertex -15.0735 -6.71115 0
      vertex -15.2591 -6.14002 9.44595
    endloop
  endfacet
  facet normal -0.951059 -0.309011 0
    outer loop
      vertex -15.0832 -6.68129 11.2894
      vertex -15.0735 -6.71115 0
      vertex -15.0832 -6.68129 13.2106
    endloop
  endfacet
  facet normal -0.951057 -0.309016 1.73528e-008
    outer loop
      vertex -15.2591 -6.14002 9.44595
      vertex -15.0735 -6.71115 0
      vertex -15.0832 -6.68129 11.2894
    endloop
  endfacet
  facet normal -0.951057 -0.309017 2.09173e-007
    outer loop
      vertex -15.0735 -6.71115 25
      vertex -16.1394 -3.43054 18.0284
      vertex -16.0683 -3.64933 17.9285
    endloop
  endfacet
  facet normal -0.951057 -0.309017 5.10963e-009
    outer loop
      vertex -15.0735 -6.71115 25
      vertex -16.0683 -3.64933 17.9285
      vertex -15.5966 -5.10131 16.6703
    endloop
  endfacet
  facet normal -0.951056 -0.309017 -6.91751e-008
    outer loop
      vertex -15.0735 -6.71115 25
      vertex -15.5966 -5.10131 16.6703
      vertex -15.2591 -6.14002 15.0541
    endloop
  endfacet
  facet normal -0.951057 -0.309016 -1.66231e-008
    outer loop
      vertex -15.0735 -6.71115 25
      vertex -15.2591 -6.14002 15.0541
      vertex -15.0832 -6.68129 13.2106
    endloop
  endfacet
  facet normal -0.951057 -0.309017 0
    outer loop
      vertex -16.1394 -3.43054 18.0284
      vertex -15.0735 -6.71115 25
      vertex -16.1394 -3.43054 25
    endloop
  endfacet
  facet normal -0.951059 -0.309011 -0
    outer loop
      vertex -15.0735 -6.71115 25
      vertex -15.0832 -6.68129 13.2106
      vertex -15.0735 -6.71115 0
    endloop
  endfacet
  facet normal 0.587785 -0.809017 0
    outer loop
      vertex 8.25 -14.2894 0
      vertex 11.0407 -12.2619 25
      vertex 8.25 -14.2894 25
    endloop
  endfacet
  facet normal 0.587785 -0.809017 0
    outer loop
      vertex 11.0407 -12.2619 25
      vertex 8.25 -14.2894 0
      vertex 11.0407 -12.2619 0
    endloop
  endfacet
  facet normal 0.406737 -0.913545 0
    outer loop
      vertex 5.09878 -15.6924 0
      vertex 8.25 -14.2894 25
      vertex 5.09878 -15.6924 25
    endloop
  endfacet
  facet normal 0.406737 -0.913545 0
    outer loop
      vertex 8.25 -14.2894 25
      vertex 5.09878 -15.6924 0
      vertex 8.25 -14.2894 0
    endloop
  endfacet
  facet normal 0 -1 0
    outer loop
      vertex -1.72472 -16.4096 0
      vertex 1.72472 -16.4096 25
      vertex -1.72472 -16.4096 25
    endloop
  endfacet
  facet normal 0 -1 -0
    outer loop
      vertex 1.72472 -16.4096 25
      vertex -1.72472 -16.4096 0
      vertex 1.72472 -16.4096 0
    endloop
  endfacet
  facet normal -0.587785 -0.809017 0
    outer loop
      vertex -11.0407 -12.2619 0
      vertex -8.25 -14.2894 25
      vertex -11.0407 -12.2619 25
    endloop
  endfacet
  facet normal -0.587785 -0.809017 -0
    outer loop
      vertex -8.25 -14.2894 25
      vertex -11.0407 -12.2619 0
      vertex -8.25 -14.2894 0
    endloop
  endfacet
  facet normal -0.743145 -0.669131 0
    outer loop
      vertex -11.0407 -12.2619 0
      vertex -13.3488 -9.69846 25
      vertex -13.3488 -9.69846 0
    endloop
  endfacet
  facet normal -0.743145 -0.669131 0
    outer loop
      vertex -13.3488 -9.69846 25
      vertex -11.0407 -12.2619 0
      vertex -11.0407 -12.2619 25
    endloop
  endfacet
  facet normal 0 0 -1
    outer loop
      vertex 16.1394 -3.43054 0
      vertex 16.1394 3.43054 0
      vertex 16.5 0 0
    endloop
  endfacet
  facet normal 0 0 -1
    outer loop
      vertex 15.0735 -6.71115 0
      vertex 16.1394 3.43054 0
      vertex 16.1394 -3.43054 0
    endloop
  endfacet
  facet normal 0 0 -1
    outer loop
      vertex 15.0735 -6.71115 0
      vertex 15.0735 6.71115 0
      vertex 16.1394 3.43054 0
    endloop
  endfacet
  facet normal 0 0 -1
    outer loop
      vertex 13.3488 -9.69846 0
      vertex 15.0735 6.71115 0
      vertex 15.0735 -6.71115 0
    endloop
  endfacet
  facet normal 0 0 -1
    outer loop
      vertex 13.3488 -9.69846 0
      vertex 13.3488 9.69846 0
      vertex 15.0735 6.71115 0
    endloop
  endfacet
  facet normal 0 0 -1
    outer loop
      vertex 11.0407 -12.2619 0
      vertex 13.3488 9.69846 0
      vertex 13.3488 -9.69846 0
    endloop
  endfacet
  facet normal 0 0 -1
    outer loop
      vertex 11.0407 -12.2619 0
      vertex 11.0407 12.2619 0
      vertex 13.3488 9.69846 0
    endloop
  endfacet
  facet normal 0 0 -1
    outer loop
      vertex 8.25 -14.2894 0
      vertex 11.0407 12.2619 0
      vertex 11.0407 -12.2619 0
    endloop
  endfacet
  facet normal 0 0 -1
    outer loop
      vertex 8.25 -14.2894 0
      vertex 8.25 14.2894 0
      vertex 11.0407 12.2619 0
    endloop
  endfacet
  facet normal 0 0 -1
    outer loop
      vertex 5.09878 -15.6924 0
      vertex 8.25 14.2894 0
      vertex 8.25 -14.2894 0
    endloop
  endfacet
  facet normal 0 0 -1
    outer loop
      vertex 5.09878 -15.6924 0
      vertex 5.09878 15.6924 0
      vertex 8.25 14.2894 0
    endloop
  endfacet
  facet normal 0 0 -1
    outer loop
      vertex 1.72472 -16.4096 0
      vertex 5.09878 15.6924 0
      vertex 5.09878 -15.6924 0
    endloop
  endfacet
  facet normal 0 0 -1
    outer loop
      vertex 1.72472 -16.4096 0
      vertex 1.72472 16.4096 0
      vertex 5.09878 15.6924 0
    endloop
  endfacet
  facet normal 0 0 -1
    outer loop
      vertex -1.72472 -16.4096 0
      vertex 1.72472 16.4096 0
      vertex 1.72472 -16.4096 0
    endloop
  endfacet
  facet normal 0 0 -1
    outer loop
      vertex -1.72472 -16.4096 0
      vertex -1.72472 16.4096 0
      vertex 1.72472 16.4096 0
    endloop
  endfacet
  facet normal 0 0 -1
    outer loop
      vertex -5.09878 -15.6924 0
      vertex -1.72472 16.4096 0
      vertex -1.72472 -16.4096 0
    endloop
  endfacet
  facet normal 0 0 -1
    outer loop
      vertex -5.09878 -15.6924 0
      vertex -5.09878 15.6924 0
      vertex -1.72472 16.4096 0
    endloop
  endfacet
  facet normal 0 0 -1
    outer loop
      vertex -5.09878 -15.6924 0
      vertex -8.25 14.2894 0
      vertex -5.09878 15.6924 0
    endloop
  endfacet
  facet normal 0 0 -1
    outer loop
      vertex -8.25 -14.2894 0
      vertex -8.25 14.2894 0
      vertex -5.09878 -15.6924 0
    endloop
  endfacet
  facet normal 0 0 -1
    outer loop
      vertex -11.0407 -12.2619 0
      vertex -8.25 14.2894 0
      vertex -8.25 -14.2894 0
    endloop
  endfacet
  facet normal 0 0 -1
    outer loop
      vertex -11.0407 -12.2619 0
      vertex -11.0407 12.2619 0
      vertex -8.25 14.2894 0
    endloop
  endfacet
  facet normal 0 0 -1
    outer loop
      vertex -13.3488 -9.69846 0
      vertex -11.0407 12.2619 0
      vertex -11.0407 -12.2619 0
    endloop
  endfacet
  facet normal 0 0 -1
    outer loop
      vertex -13.3488 -9.69846 0
      vertex -13.3488 9.69846 0
      vertex -11.0407 12.2619 0
    endloop
  endfacet
  facet normal 0 0 -1
    outer loop
      vertex -15.0735 -6.71115 0
      vertex -13.3488 9.69846 0
      vertex -13.3488 -9.69846 0
    endloop
  endfacet
  facet normal 0 0 -1
    outer loop
      vertex -15.0735 -6.71115 0
      vertex -15.0735 6.71115 0
      vertex -13.3488 9.69846 0
    endloop
  endfacet
  facet normal 0 0 -1
    outer loop
      vertex -16.1394 -3.43054 0
      vertex -15.0735 6.71115 0
      vertex -15.0735 -6.71115 0
    endloop
  endfacet
  facet normal 0 0 -1
    outer loop
      vertex -16.1394 -3.43054 0
      vertex -16.1394 3.43054 0
      vertex -15.0735 6.71115 0
    endloop
  endfacet
  facet normal 0 -0 -1
    outer loop
      vertex -16.1394 3.43054 0
      vertex -16.1394 -3.43054 0
      vertex -16.5 0 0
    endloop
  endfacet
  facet normal 0 -0.142314 0.989822
    outer loop
      vertex -16.3001 1.90169 5.77342
      vertex 16.3098 1.80986 5.76022
      vertex 16.3001 1.90169 5.77342
    endloop
  endfacet
  facet normal -2.23008e-009 -0.142315 0.989821
    outer loop
      vertex 16.3098 1.80986 5.76022
      vertex -16.3001 1.90169 5.77342
      vertex -16.4971 0.0273231 5.50393
    endloop
  endfacet
  facet normal -2.27823e-008 -0.142315 0.989821
    outer loop
      vertex -16.4971 0.0273231 5.50393
      vertex 16.5 0 5.5
      vertex 16.3098 1.80986 5.76022
    endloop
  endfacet
  facet normal -2.8605e-008 -0.142322 0.98982
    outer loop
      vertex 16.5 0 5.5
      vertex -16.4971 0.0273231 5.50393
      vertex -16.5 0 5.5
    endloop
  endfacet
  facet normal 0 -0.142315 -0.989821
    outer loop
      vertex 16.5 0 19
      vertex -16.3001 1.90169 18.7266
      vertex 16.3001 1.90169 18.7266
    endloop
  endfacet
  facet normal 0 -0.142315 -0.989821
    outer loop
      vertex -16.3001 1.90169 18.7266
      vertex 16.5 0 19
      vertex -16.5 0 19
    endloop
  endfacet
  facet normal 0 0.959493 -0.281733
    outer loop
      vertex 15.0832 -6.68129 13.2106
      vertex -15.2591 -6.14002 15.0541
      vertex 15.2591 -6.14002 15.0541
    endloop
  endfacet
  facet normal 0 0.959493 -0.281733
    outer loop
      vertex -15.2591 -6.14002 15.0541
      vertex 15.0832 -6.68129 13.2106
      vertex -15.0832 -6.68129 13.2106
    endloop
  endfacet
  facet normal -1.10238e-005 0.415416 -0.909631
    outer loop
      vertex 16.0683 -3.64933 17.9285
      vertex 16.3001 -1.90169 18.7266
      vertex 16.1394 -3.43054 18.0284
    endloop
  endfacet
  facet normal 0 0.415415 -0.909632
    outer loop
      vertex -16.0683 -3.64933 17.9285
      vertex 16.3001 -1.90169 18.7266
      vertex 16.0683 -3.64933 17.9285
    endloop
  endfacet
  facet normal 1.10238e-005 0.415416 -0.909631
    outer loop
      vertex -16.3001 -1.90169 18.7266
      vertex -16.0683 -3.64933 17.9285
      vertex -16.1394 -3.43054 18.0284
    endloop
  endfacet
  facet normal 0 0.415415 -0.909632
    outer loop
      vertex -16.0683 -3.64933 17.9285
      vertex -16.3001 -1.90169 18.7266
      vertex 16.3001 -1.90169 18.7266
    endloop
  endfacet
  facet normal 1.86737e-006 -0.415415 0.909632
    outer loop
      vertex 16.0683 3.64933 6.57154
      vertex 16.3001 1.90169 5.77342
      vertex 16.1394 3.43054 6.47162
    endloop
  endfacet
  facet normal 0 -0.415415 0.909632
    outer loop
      vertex -16.0683 3.64933 6.57154
      vertex 16.3001 1.90169 5.77342
      vertex 16.0683 3.64933 6.57154
    endloop
  endfacet
  facet normal -1.86737e-006 -0.415415 0.909632
    outer loop
      vertex -16.3001 1.90169 5.77342
      vertex -16.0683 3.64933 6.57154
      vertex -16.1394 3.43054 6.47162
    endloop
  endfacet
  facet normal 0 -0.415415 0.909632
    outer loop
      vertex -16.0683 3.64933 6.57154
      vertex -16.3001 1.90169 5.77342
      vertex 16.3001 1.90169 5.77342
    endloop
  endfacet
  facet normal 0 -0.959493 0.281733
    outer loop
      vertex -15.2591 6.14002 9.44595
      vertex 15.0832 6.68129 11.2894
      vertex -15.0832 6.68129 11.2894
    endloop
  endfacet
  facet normal 0 -0.959493 0.281733
    outer loop
      vertex 15.0832 6.68129 11.2894
      vertex -15.2591 6.14002 9.44595
      vertex 15.2591 6.14002 9.44595
    endloop
  endfacet
  facet normal 0 -0.654861 -0.755749
    outer loop
      vertex 16.0683 3.64933 17.9285
      vertex -15.5966 5.10131 16.6703
      vertex 15.5966 5.10131 16.6703
    endloop
  endfacet
  facet normal 0 -0.654861 -0.755749
    outer loop
      vertex -15.5966 5.10131 16.6703
      vertex 16.0683 3.64933 17.9285
      vertex -16.0683 3.64933 17.9285
    endloop
  endfacet
  facet normal -1.10238e-005 -0.415416 -0.909631
    outer loop
      vertex 16.3001 1.90169 18.7266
      vertex 16.0683 3.64933 17.9285
      vertex 16.1394 3.43054 18.0284
    endloop
  endfacet
  facet normal 0 -0.415415 -0.909632
    outer loop
      vertex 16.3001 1.90169 18.7266
      vertex -16.0683 3.64933 17.9285
      vertex 16.0683 3.64933 17.9285
    endloop
  endfacet
  facet normal 0 -0.415415 -0.909632
    outer loop
      vertex -16.3001 1.90169 18.7266
      vertex -16.0683 3.64933 17.9285
      vertex 16.3001 1.90169 18.7266
    endloop
  endfacet
  facet normal 1.10238e-005 -0.415416 -0.909631
    outer loop
      vertex -16.0683 3.64933 17.9285
      vertex -16.3001 1.90169 18.7266
      vertex -16.1394 3.43054 18.0284
    endloop
  endfacet
  facet normal 0 -0.959493 -0.281733
    outer loop
      vertex -15.0832 6.68129 13.2106
      vertex 15.2591 6.14002 15.0541
      vertex -15.2591 6.14002 15.0541
    endloop
  endfacet
  facet normal 0 -0.959493 -0.281733
    outer loop
      vertex 15.2591 6.14002 15.0541
      vertex -15.0832 6.68129 13.2106
      vertex 15.0832 6.68129 13.2106
    endloop
  endfacet
  facet normal 0 0.654861 0.755749
    outer loop
      vertex 16.0683 -3.64933 6.57154
      vertex -15.5966 -5.10131 7.82969
      vertex 15.5966 -5.10131 7.82969
    endloop
  endfacet
  facet normal 0 0.654861 0.755749
    outer loop
      vertex -15.5966 -5.10131 7.82969
      vertex 16.0683 -3.64933 6.57154
      vertex -16.0683 -3.64933 6.57154
    endloop
  endfacet
  facet normal 0 0.142315 -0.989821
    outer loop
      vertex -16.3001 -1.90169 18.7266
      vertex 16.5 0 19
      vertex 16.3001 -1.90169 18.7266
    endloop
  endfacet
  facet normal 0 0.142315 -0.989821
    outer loop
      vertex 16.5 0 19
      vertex -16.3001 -1.90169 18.7266
      vertex -16.5 0 19
    endloop
  endfacet
  facet normal 0 -0.654861 0.755749
    outer loop
      vertex -15.5966 5.10131 7.82969
      vertex 16.0683 3.64933 6.57154
      vertex 15.5966 5.10131 7.82969
    endloop
  endfacet
  facet normal 0 -0.654861 0.755749
    outer loop
      vertex 16.0683 3.64933 6.57154
      vertex -15.5966 5.10131 7.82969
      vertex -16.0683 3.64933 6.57154
    endloop
  endfacet
  facet normal 0 -1 0
    outer loop
      vertex -15.0832 6.68129 11.2894
      vertex 15.0832 6.68129 13.2106
      vertex -15.0832 6.68129 13.2106
    endloop
  endfacet
  facet normal 0 -1 -0
    outer loop
      vertex 15.0832 6.68129 13.2106
      vertex -15.0832 6.68129 11.2894
      vertex 15.0832 6.68129 11.2894
    endloop
  endfacet
  facet normal 0 -0.841253 -0.540641
    outer loop
      vertex -15.2591 6.14002 15.0541
      vertex 15.5966 5.10131 16.6703
      vertex -15.5966 5.10131 16.6703
    endloop
  endfacet
  facet normal 0 -0.841253 -0.540641
    outer loop
      vertex 15.5966 5.10131 16.6703
      vertex -15.2591 6.14002 15.0541
      vertex 15.2591 6.14002 15.0541
    endloop
  endfacet
  facet normal 0 0.841253 0.540641
    outer loop
      vertex 15.5966 -5.10131 7.82969
      vertex -15.2591 -6.14002 9.44595
      vertex 15.2591 -6.14002 9.44595
    endloop
  endfacet
  facet normal 0 0.841253 0.540641
    outer loop
      vertex -15.2591 -6.14002 9.44595
      vertex 15.5966 -5.10131 7.82969
      vertex -15.5966 -5.10131 7.82969
    endloop
  endfacet
  facet normal 1.86737e-006 0.415415 0.909632
    outer loop
      vertex 16.3001 -1.90169 5.77342
      vertex 16.0683 -3.64933 6.57154
      vertex 16.1394 -3.43054 6.47162
    endloop
  endfacet
  facet normal 0 0.415415 0.909632
    outer loop
      vertex 16.3001 -1.90169 5.77342
      vertex -16.0683 -3.64933 6.57154
      vertex 16.0683 -3.64933 6.57154
    endloop
  endfacet
  facet normal -0 0.415415 0.909632
    outer loop
      vertex -16.3001 -1.90169 5.77342
      vertex -16.0683 -3.64933 6.57154
      vertex 16.3001 -1.90169 5.77342
    endloop
  endfacet
  facet normal -1.86737e-006 0.415415 0.909632
    outer loop
      vertex -16.0683 -3.64933 6.57154
      vertex -16.3001 -1.90169 5.77342
      vertex -16.1394 -3.43054 6.47162
    endloop
  endfacet
  facet normal 0 0.654861 -0.755749
    outer loop
      vertex -15.5966 -5.10131 16.6703
      vertex 16.0683 -3.64933 17.9285
      vertex 15.5966 -5.10131 16.6703
    endloop
  endfacet
  facet normal 0 0.654861 -0.755749
    outer loop
      vertex 16.0683 -3.64933 17.9285
      vertex -15.5966 -5.10131 16.6703
      vertex -16.0683 -3.64933 17.9285
    endloop
  endfacet
  facet normal 0 0.841253 -0.540641
    outer loop
      vertex 15.2591 -6.14002 15.0541
      vertex -15.5966 -5.10131 16.6703
      vertex 15.5966 -5.10131 16.6703
    endloop
  endfacet
  facet normal 0 0.841253 -0.540641
    outer loop
      vertex -15.5966 -5.10131 16.6703
      vertex 15.2591 -6.14002 15.0541
      vertex -15.2591 -6.14002 15.0541
    endloop
  endfacet
  facet normal 0 -0.841253 0.540641
    outer loop
      vertex -15.5966 5.10131 7.82969
      vertex 15.2591 6.14002 9.44595
      vertex -15.2591 6.14002 9.44595
    endloop
  endfacet
  facet normal 0 -0.841253 0.540641
    outer loop
      vertex 15.2591 6.14002 9.44595
      vertex -15.5966 5.10131 7.82969
      vertex 15.5966 5.10131 7.82969
    endloop
  endfacet
  facet normal 0 0.142314 0.989822
    outer loop
      vertex 16.3098 -1.80986 5.76022
      vertex -16.3001 -1.90169 5.77342
      vertex 16.3001 -1.90169 5.77342
    endloop
  endfacet
  facet normal -2.23008e-009 0.142315 0.989821
    outer loop
      vertex -16.3001 -1.90169 5.77342
      vertex 16.3098 -1.80986 5.76022
      vertex -16.4971 -0.0273231 5.50393
    endloop
  endfacet
  facet normal -2.27823e-008 0.142315 0.989821
    outer loop
      vertex 16.5 0 5.5
      vertex -16.4971 -0.0273231 5.50393
      vertex 16.3098 -1.80986 5.76022
    endloop
  endfacet
  facet normal -2.8605e-008 0.142322 0.98982
    outer loop
      vertex -16.4971 -0.0273231 5.50393
      vertex 16.5 0 5.5
      vertex -16.5 0 5.5
    endloop
  endfacet
  facet normal 0 0.959493 0.281733
    outer loop
      vertex 15.2591 -6.14002 9.44595
      vertex -15.0832 -6.68129 11.2894
      vertex 15.0832 -6.68129 11.2894
    endloop
  endfacet
  facet normal 0 0.959493 0.281733
    outer loop
      vertex -15.0832 -6.68129 11.2894
      vertex 15.2591 -6.14002 9.44595
      vertex -15.2591 -6.14002 9.44595
    endloop
  endfacet
  facet normal 0 1 -0
    outer loop
      vertex 15.0832 -6.68129 11.2894
      vertex -15.0832 -6.68129 13.2106
      vertex 15.0832 -6.68129 13.2106
    endloop
  endfacet
  facet normal 0 1 0
    outer loop
      vertex -15.0832 -6.68129 13.2106
      vertex 15.0832 -6.68129 11.2894
      vertex -15.0832 -6.68129 11.2894
    endloop
  endfacet
endsolid OpenSCAD_Model
