solid OpenSCAD_Model
  facet normal 0 0 1
    outer loop
      vertex 0 85.725 196.85
      vertex -2 83.725 196.85
      vertex 0 0 196.85
    endloop
  endfacet
  facet normal 0 0 1
    outer loop
      vertex 0 85.725 196.85
      vertex -233.754 83.725 196.85
      vertex -2 83.725 196.85
    endloop
  endfacet
  facet normal 0 0 1
    outer loop
      vertex -233.754 83.725 196.85
      vertex -235.784 85.725 196.85
      vertex -233.754 2 196.85
    endloop
  endfacet
  facet normal -0 0 1
    outer loop
      vertex -235.784 85.725 196.85
      vertex -233.754 83.725 196.85
      vertex 0 85.725 196.85
    endloop
  endfacet
  facet normal -0 0 1
    outer loop
      vertex -2 2 196.85
      vertex 0 0 196.85
      vertex -2 83.725 196.85
    endloop
  endfacet
  facet normal -0 0 1
    outer loop
      vertex -233.754 2 196.85
      vertex 0 0 196.85
      vertex -2 2 196.85
    endloop
  endfacet
  facet normal 0 0 1
    outer loop
      vertex -233.754 2 196.85
      vertex -235.784 0 196.85
      vertex 0 0 196.85
    endloop
  endfacet
  facet normal 0 0 1
    outer loop
      vertex -235.784 0 196.85
      vertex -233.754 2 196.85
      vertex -235.784 85.725 196.85
    endloop
  endfacet
  facet normal 1 -0 0
    outer loop
      vertex 0 0 196.85
      vertex 0 85.725 95.25
      vertex 0 85.725 196.85
    endloop
  endfacet
  facet normal 1 0 0
    outer loop
      vertex 0 85.725 95.25
      vertex 0 0 196.85
      vertex 0 0 95.25
    endloop
  endfacet
  facet normal 0 1 -0
    outer loop
      vertex -20 2 97.25
      vertex -171.292 2 105.25
      vertex -20 2 105.25
    endloop
  endfacet
  facet normal 0 1 0
    outer loop
      vertex -171.292 2 105.25
      vertex -20 2 97.25
      vertex -171.292 2 97.25
    endloop
  endfacet
  facet normal 0 1 0
    outer loop
      vertex -2 2 196.85
      vertex -233.145 2 193.337
      vertex -233.754 2 196.85
    endloop
  endfacet
  facet normal 0 1 0
    outer loop
      vertex -2 2 196.85
      vertex -230.589 2 181.953
      vertex -233.145 2 193.337
    endloop
  endfacet
  facet normal 0 1 0
    outer loop
      vertex -2 2 196.85
      vertex -227.477 2 170.708
      vertex -230.589 2 181.953
    endloop
  endfacet
  facet normal 0 1 -0
    outer loop
      vertex -171.292 2 105.25
      vertex -227.477 2 170.708
      vertex -2 2 196.85
    endloop
  endfacet
  facet normal 0 1 0
    outer loop
      vertex -227.477 2 170.708
      vertex -171.292 2 105.25
      vertex -223.817 2 159.63
    endloop
  endfacet
  facet normal 0 1 0
    outer loop
      vertex -223.817 2 159.63
      vertex -171.292 2 105.25
      vertex -219.618 2 148.744
    endloop
  endfacet
  facet normal 0 1 0
    outer loop
      vertex -219.618 2 148.744
      vertex -171.292 2 105.25
      vertex -214.89 2 138.077
    endloop
  endfacet
  facet normal 0 1 0
    outer loop
      vertex -214.89 2 138.077
      vertex -171.292 2 105.25
      vertex -209.644 2 127.656
    endloop
  endfacet
  facet normal 0 1 -0
    outer loop
      vertex -181.292 2 105.25
      vertex -209.644 2 127.656
      vertex -171.292 2 105.25
    endloop
  endfacet
  facet normal 0 1 0
    outer loop
      vertex -20 2 105.25
      vertex -2 2 196.85
      vertex -10 2 105.25
    endloop
  endfacet
  facet normal 0 1 -0
    outer loop
      vertex -2 2 97.25
      vertex -10 2 105.25
      vertex -2 2 196.85
    endloop
  endfacet
  facet normal 0 1 0
    outer loop
      vertex -10 2 105.25
      vertex -2 2 97.25
      vertex -10 2 97.25
    endloop
  endfacet
  facet normal 0 1 0
    outer loop
      vertex -171.292 2 105.25
      vertex -2 2 196.85
      vertex -20 2 105.25
    endloop
  endfacet
  facet normal 0 1 0
    outer loop
      vertex -209.644 2 127.656
      vertex -181.292 2 105.25
      vertex -203.893 2 117.504
    endloop
  endfacet
  facet normal 0 1 0
    outer loop
      vertex -203.893 2 117.504
      vertex -181.292 2 105.25
      vertex -197.651 2 107.647
    endloop
  endfacet
  facet normal 0 1 0
    outer loop
      vertex -181.292 2 105.25
      vertex -190.932 2 98.1073
      vertex -197.651 2 107.647
    endloop
  endfacet
  facet normal 0 1 0
    outer loop
      vertex -190.263 2 97.25
      vertex -181.292 2 105.25
      vertex -181.292 2 97.25
    endloop
  endfacet
  facet normal 0 1 0
    outer loop
      vertex -181.292 2 105.25
      vertex -190.263 2 97.25
      vertex -190.932 2 98.1073
    endloop
  endfacet
  facet normal 0 0 -1
    outer loop
      vertex -191.239 0 95.25
      vertex -181.292 10 95.25
      vertex -181.292 0 95.25
    endloop
  endfacet
  facet normal -0 0 -1
    outer loop
      vertex -181.292 10 95.25
      vertex -191.239 0 95.25
      vertex -181.292 75.725 95.25
    endloop
  endfacet
  facet normal 0 0 -1
    outer loop
      vertex -191.239 85.725 95.25
      vertex -181.292 75.725 95.25
      vertex -191.239 0 95.25
    endloop
  endfacet
  facet normal 0 0 -1
    outer loop
      vertex -181.292 75.725 95.25
      vertex -191.239 85.725 95.25
      vertex -181.292 85.725 95.25
    endloop
  endfacet
  facet normal 0 0 -1
    outer loop
      vertex -181.292 10 95.25
      vertex -171.292 75.725 95.25
      vertex -171.292 10 95.25
    endloop
  endfacet
  facet normal -0 0 -1
    outer loop
      vertex -171.292 75.725 95.25
      vertex -181.292 10 95.25
      vertex -181.292 75.725 95.25
    endloop
  endfacet
  facet normal 0 0 -1
    outer loop
      vertex -171.292 10 95.25
      vertex -20 10 95.25
      vertex -20 0 95.25
    endloop
  endfacet
  facet normal 0 0 -1
    outer loop
      vertex -20 10 95.25
      vertex -171.292 10 95.25
      vertex -20 75.725 95.25
    endloop
  endfacet
  facet normal 0 0 -1
    outer loop
      vertex -171.292 10 95.25
      vertex -20 0 95.25
      vertex -171.292 0 95.25
    endloop
  endfacet
  facet normal 0 0 -1
    outer loop
      vertex -171.292 75.725 95.25
      vertex -20 75.725 95.25
      vertex -171.292 10 95.25
    endloop
  endfacet
  facet normal 0 0 -1
    outer loop
      vertex -20 75.725 95.25
      vertex -171.292 75.725 95.25
      vertex -20 85.725 95.25
    endloop
  endfacet
  facet normal -0 0 -1
    outer loop
      vertex -20 85.725 95.25
      vertex -171.292 75.725 95.25
      vertex -171.292 85.725 95.25
    endloop
  endfacet
  facet normal 0 0 -1
    outer loop
      vertex -20 10 95.25
      vertex -10 75.725 95.25
      vertex -10 10 95.25
    endloop
  endfacet
  facet normal -0 0 -1
    outer loop
      vertex -10 75.725 95.25
      vertex -20 10 95.25
      vertex -20 75.725 95.25
    endloop
  endfacet
  facet normal 0 0 -1
    outer loop
      vertex -10 10 95.25
      vertex 0 0 95.25
      vertex -10 0 95.25
    endloop
  endfacet
  facet normal 0 0 -1
    outer loop
      vertex 0 0 95.25
      vertex -10 10 95.25
      vertex 0 85.725 95.25
    endloop
  endfacet
  facet normal 0 0 -1
    outer loop
      vertex -10 75.725 95.25
      vertex 0 85.725 95.25
      vertex -10 10 95.25
    endloop
  endfacet
  facet normal -0 0 -1
    outer loop
      vertex 0 85.725 95.25
      vertex -10 75.725 95.25
      vertex -10 85.725 95.25
    endloop
  endfacet
  facet normal 0 -1 0
    outer loop
      vertex -171.292 0 95.25
      vertex -20 0 105.25
      vertex -171.292 0 105.25
    endloop
  endfacet
  facet normal 0 -1 -0
    outer loop
      vertex -20 0 105.25
      vertex -171.292 0 95.25
      vertex -20 0 95.25
    endloop
  endfacet
  facet normal 0 -1 0
    outer loop
      vertex -192.539 0 96.9159
      vertex -181.292 0 105.25
      vertex -199.314 0 106.535
    endloop
  endfacet
  facet normal 0 -1 0
    outer loop
      vertex -191.239 0 95.25
      vertex -181.292 0 105.25
      vertex -192.539 0 96.9159
    endloop
  endfacet
  facet normal 0 -1 -0
    outer loop
      vertex -181.292 0 105.25
      vertex -191.239 0 95.25
      vertex -181.292 0 95.25
    endloop
  endfacet
  facet normal 0 -1 0
    outer loop
      vertex -235.106 0 192.947
      vertex 0 0 196.85
      vertex -235.784 0 196.85
    endloop
  endfacet
  facet normal 0 -1 0
    outer loop
      vertex -232.529 0 181.467
      vertex 0 0 196.85
      vertex -235.106 0 192.947
    endloop
  endfacet
  facet normal 0 -1 0
    outer loop
      vertex -171.292 0 105.25
      vertex -232.529 0 181.467
      vertex -229.391 0 170.128
    endloop
  endfacet
  facet normal 0 -1 0
    outer loop
      vertex -171.292 0 105.25
      vertex -229.391 0 170.128
      vertex -225.7 0 158.956
    endloop
  endfacet
  facet normal 0 -1 0
    outer loop
      vertex -171.292 0 105.25
      vertex -225.7 0 158.956
      vertex -221.465 0 147.979
    endloop
  endfacet
  facet normal 0 -1 0
    outer loop
      vertex -171.292 0 105.25
      vertex -221.465 0 147.979
      vertex -216.698 0 137.222
    endloop
  endfacet
  facet normal 0 -1 0
    outer loop
      vertex -171.292 0 105.25
      vertex -216.698 0 137.222
      vertex -211.408 0 126.713
    endloop
  endfacet
  facet normal 0 -1 0
    outer loop
      vertex -181.292 0 105.25
      vertex -211.408 0 126.713
      vertex -205.608 0 116.476
    endloop
  endfacet
  facet normal 0 -1 0
    outer loop
      vertex -181.292 0 105.25
      vertex -205.608 0 116.476
      vertex -199.314 0 106.535
    endloop
  endfacet
  facet normal 0 -1 0
    outer loop
      vertex -211.408 0 126.713
      vertex -181.292 0 105.25
      vertex -171.292 0 105.25
    endloop
  endfacet
  facet normal 0 -1 0
    outer loop
      vertex -232.529 0 181.467
      vertex -171.292 0 105.25
      vertex 0 0 196.85
    endloop
  endfacet
  facet normal 0 -1 0
    outer loop
      vertex -20 0 105.25
      vertex 0 0 196.85
      vertex -171.292 0 105.25
    endloop
  endfacet
  facet normal 0 -1 0
    outer loop
      vertex -10 0 105.25
      vertex 0 0 196.85
      vertex -20 0 105.25
    endloop
  endfacet
  facet normal 0 -1 0
    outer loop
      vertex 0 0 95.25
      vertex -10 0 105.25
      vertex -10 0 95.25
    endloop
  endfacet
  facet normal 0 -1 0
    outer loop
      vertex -10 0 105.25
      vertex 0 0 95.25
      vertex 0 0 196.85
    endloop
  endfacet
  facet normal -0.914249 0 -0.405153
    outer loop
      vertex -216.698 0 137.222
      vertex -221.465 85.725 147.979
      vertex -216.698 85.725 137.222
    endloop
  endfacet
  facet normal -0.914249 -0 -0.405153
    outer loop
      vertex -221.465 85.725 147.979
      vertex -216.698 0 137.222
      vertex -221.465 0 147.979
    endloop
  endfacet
  facet normal -0.975719 0 -0.219027
    outer loop
      vertex -232.529 0 181.467
      vertex -235.106 85.725 192.947
      vertex -232.529 85.725 181.467
    endloop
  endfacet
  facet normal -0.975719 -0 -0.219027
    outer loop
      vertex -235.106 85.725 192.947
      vertex -232.529 0 181.467
      vertex -235.106 0 192.947
    endloop
  endfacet
  facet normal -0.817566 0 -0.575835
    outer loop
      vertex -192.539 0 96.9159
      vertex -199.314 85.725 106.535
      vertex -192.539 85.725 96.9159
    endloop
  endfacet
  facet normal -0.817566 -0 -0.575835
    outer loop
      vertex -199.314 85.725 106.535
      vertex -192.539 0 96.9159
      vertex -199.314 0 106.535
    endloop
  endfacet
  facet normal -0.949521 0 -0.313702
    outer loop
      vertex -225.7 0 158.956
      vertex -229.391 85.725 170.128
      vertex -225.7 85.725 158.956
    endloop
  endfacet
  facet normal -0.949521 -0 -0.313702
    outer loop
      vertex -229.391 85.725 170.128
      vertex -225.7 0 158.956
      vertex -229.391 0 170.128
    endloop
  endfacet
  facet normal -0.932973 0 -0.359947
    outer loop
      vertex -221.465 0 147.979
      vertex -225.7 85.725 158.956
      vertex -221.465 85.725 147.979
    endloop
  endfacet
  facet normal -0.932973 -0 -0.359947
    outer loop
      vertex -225.7 85.725 158.956
      vertex -221.465 0 147.979
      vertex -225.7 0 158.956
    endloop
  endfacet
  facet normal -0.985245 0 -0.171149
    outer loop
      vertex -235.106 0 192.947
      vertex -235.784 85.725 196.85
      vertex -235.106 85.725 192.947
    endloop
  endfacet
  facet normal -0.985245 -0 -0.171149
    outer loop
      vertex -235.784 85.725 196.85
      vertex -235.106 0 192.947
      vertex -235.784 0 196.85
    endloop
  endfacet
  facet normal -0.963774 0 -0.266719
    outer loop
      vertex -229.391 0 170.128
      vertex -232.529 85.725 181.467
      vertex -229.391 85.725 170.128
    endloop
  endfacet
  facet normal -0.963774 -0 -0.266719
    outer loop
      vertex -232.529 85.725 181.467
      vertex -229.391 0 170.128
      vertex -232.529 0 181.467
    endloop
  endfacet
  facet normal -0.870057 0 -0.49295
    outer loop
      vertex -205.608 0 116.476
      vertex -211.408 85.725 126.713
      vertex -205.608 85.725 116.476
    endloop
  endfacet
  facet normal -0.870057 -0 -0.49295
    outer loop
      vertex -211.408 85.725 126.713
      vertex -205.608 0 116.476
      vertex -211.408 0 126.713
    endloop
  endfacet
  facet normal -0.844895 0 -0.534933
    outer loop
      vertex -199.314 0 106.535
      vertex -205.608 85.725 116.476
      vertex -199.314 85.725 106.535
    endloop
  endfacet
  facet normal -0.844895 -0 -0.534933
    outer loop
      vertex -205.608 85.725 116.476
      vertex -199.314 0 106.535
      vertex -205.608 0 116.476
    endloop
  endfacet
  facet normal -0.893217 0 -0.449626
    outer loop
      vertex -211.408 0 126.713
      vertex -216.698 85.725 137.222
      vertex -211.408 85.725 126.713
    endloop
  endfacet
  facet normal -0.893217 -0 -0.449626
    outer loop
      vertex -216.698 85.725 137.222
      vertex -211.408 0 126.713
      vertex -216.698 0 137.222
    endloop
  endfacet
  facet normal -0.788365 0 -0.615208
    outer loop
      vertex -191.239 0 95.25
      vertex -192.539 85.725 96.9159
      vertex -191.239 85.725 95.25
    endloop
  endfacet
  facet normal -0.788365 -0 -0.615208
    outer loop
      vertex -192.539 85.725 96.9159
      vertex -191.239 0 95.25
      vertex -192.539 0 96.9159
    endloop
  endfacet
  facet normal 0 1 -0
    outer loop
      vertex -20 85.725 95.25
      vertex -171.292 85.725 105.25
      vertex -20 85.725 105.25
    endloop
  endfacet
  facet normal 0 1 0
    outer loop
      vertex -171.292 85.725 105.25
      vertex -20 85.725 95.25
      vertex -171.292 85.725 95.25
    endloop
  endfacet
  facet normal 0 1 0
    outer loop
      vertex 0 85.725 196.85
      vertex -235.106 85.725 192.947
      vertex -235.784 85.725 196.85
    endloop
  endfacet
  facet normal 0 1 0
    outer loop
      vertex 0 85.725 196.85
      vertex -232.529 85.725 181.467
      vertex -235.106 85.725 192.947
    endloop
  endfacet
  facet normal 0 1 -0
    outer loop
      vertex -171.292 85.725 105.25
      vertex -232.529 85.725 181.467
      vertex 0 85.725 196.85
    endloop
  endfacet
  facet normal 0 1 0
    outer loop
      vertex -232.529 85.725 181.467
      vertex -171.292 85.725 105.25
      vertex -229.391 85.725 170.128
    endloop
  endfacet
  facet normal 0 1 0
    outer loop
      vertex -229.391 85.725 170.128
      vertex -171.292 85.725 105.25
      vertex -225.7 85.725 158.956
    endloop
  endfacet
  facet normal 0 1 0
    outer loop
      vertex -225.7 85.725 158.956
      vertex -171.292 85.725 105.25
      vertex -221.465 85.725 147.979
    endloop
  endfacet
  facet normal 0 1 0
    outer loop
      vertex -221.465 85.725 147.979
      vertex -171.292 85.725 105.25
      vertex -216.698 85.725 137.222
    endloop
  endfacet
  facet normal 0 1 0
    outer loop
      vertex -216.698 85.725 137.222
      vertex -171.292 85.725 105.25
      vertex -211.408 85.725 126.713
    endloop
  endfacet
  facet normal 0 1 -0
    outer loop
      vertex -181.292 85.725 105.25
      vertex -211.408 85.725 126.713
      vertex -171.292 85.725 105.25
    endloop
  endfacet
  facet normal 0 1 0
    outer loop
      vertex -20 85.725 105.25
      vertex 0 85.725 196.85
      vertex -10 85.725 105.25
    endloop
  endfacet
  facet normal 0 1 -0
    outer loop
      vertex 0 85.725 95.25
      vertex -10 85.725 105.25
      vertex 0 85.725 196.85
    endloop
  endfacet
  facet normal 0 1 0
    outer loop
      vertex -10 85.725 105.25
      vertex 0 85.725 95.25
      vertex -10 85.725 95.25
    endloop
  endfacet
  facet normal 0 1 0
    outer loop
      vertex -171.292 85.725 105.25
      vertex 0 85.725 196.85
      vertex -20 85.725 105.25
    endloop
  endfacet
  facet normal 0 1 0
    outer loop
      vertex -211.408 85.725 126.713
      vertex -181.292 85.725 105.25
      vertex -205.608 85.725 116.476
    endloop
  endfacet
  facet normal 0 1 0
    outer loop
      vertex -205.608 85.725 116.476
      vertex -181.292 85.725 105.25
      vertex -199.314 85.725 106.535
    endloop
  endfacet
  facet normal 0 1 0
    outer loop
      vertex -181.292 85.725 105.25
      vertex -192.539 85.725 96.9159
      vertex -199.314 85.725 106.535
    endloop
  endfacet
  facet normal 0 1 0
    outer loop
      vertex -191.239 85.725 95.25
      vertex -181.292 85.725 105.25
      vertex -181.292 85.725 95.25
    endloop
  endfacet
  facet normal 0 1 0
    outer loop
      vertex -181.292 85.725 105.25
      vertex -191.239 85.725 95.25
      vertex -192.539 85.725 96.9159
    endloop
  endfacet
  facet normal 0 -1 0
    outer loop
      vertex -171.292 83.725 97.25
      vertex -20 83.725 105.25
      vertex -171.292 83.725 105.25
    endloop
  endfacet
  facet normal 0 -1 -0
    outer loop
      vertex -20 83.725 105.25
      vertex -171.292 83.725 97.25
      vertex -20 83.725 97.25
    endloop
  endfacet
  facet normal 0 -1 0
    outer loop
      vertex -190.932 83.725 98.1073
      vertex -181.292 83.725 105.25
      vertex -197.651 83.725 107.647
    endloop
  endfacet
  facet normal 0 -1 0
    outer loop
      vertex -190.263 83.725 97.25
      vertex -181.292 83.725 105.25
      vertex -190.932 83.725 98.1073
    endloop
  endfacet
  facet normal 0 -1 -0
    outer loop
      vertex -181.292 83.725 105.25
      vertex -190.263 83.725 97.25
      vertex -181.292 83.725 97.25
    endloop
  endfacet
  facet normal 0 -1 0
    outer loop
      vertex -233.145 83.725 193.337
      vertex -2 83.725 196.85
      vertex -233.754 83.725 196.85
    endloop
  endfacet
  facet normal 0 -1 0
    outer loop
      vertex -230.589 83.725 181.953
      vertex -2 83.725 196.85
      vertex -233.145 83.725 193.337
    endloop
  endfacet
  facet normal 0 -1 0
    outer loop
      vertex -227.477 83.725 170.708
      vertex -2 83.725 196.85
      vertex -230.589 83.725 181.953
    endloop
  endfacet
  facet normal 0 -1 0
    outer loop
      vertex -171.292 83.725 105.25
      vertex -227.477 83.725 170.708
      vertex -223.817 83.725 159.63
    endloop
  endfacet
  facet normal 0 -1 0
    outer loop
      vertex -171.292 83.725 105.25
      vertex -223.817 83.725 159.63
      vertex -219.618 83.725 148.744
    endloop
  endfacet
  facet normal 0 -1 0
    outer loop
      vertex -171.292 83.725 105.25
      vertex -219.618 83.725 148.744
      vertex -214.89 83.725 138.077
    endloop
  endfacet
  facet normal 0 -1 0
    outer loop
      vertex -171.292 83.725 105.25
      vertex -214.89 83.725 138.077
      vertex -209.644 83.725 127.656
    endloop
  endfacet
  facet normal 0 -1 0
    outer loop
      vertex -181.292 83.725 105.25
      vertex -209.644 83.725 127.656
      vertex -203.893 83.725 117.504
    endloop
  endfacet
  facet normal 0 -1 0
    outer loop
      vertex -181.292 83.725 105.25
      vertex -203.893 83.725 117.504
      vertex -197.651 83.725 107.647
    endloop
  endfacet
  facet normal 0 -1 0
    outer loop
      vertex -209.644 83.725 127.656
      vertex -181.292 83.725 105.25
      vertex -171.292 83.725 105.25
    endloop
  endfacet
  facet normal 0 -1 0
    outer loop
      vertex -227.477 83.725 170.708
      vertex -171.292 83.725 105.25
      vertex -2 83.725 196.85
    endloop
  endfacet
  facet normal 0 -1 0
    outer loop
      vertex -20 83.725 105.25
      vertex -2 83.725 196.85
      vertex -171.292 83.725 105.25
    endloop
  endfacet
  facet normal 0 -1 0
    outer loop
      vertex -10 83.725 105.25
      vertex -2 83.725 196.85
      vertex -20 83.725 105.25
    endloop
  endfacet
  facet normal 0 -1 0
    outer loop
      vertex -2 83.725 97.25
      vertex -10 83.725 105.25
      vertex -10 83.725 97.25
    endloop
  endfacet
  facet normal 0 -1 0
    outer loop
      vertex -10 83.725 105.25
      vertex -2 83.725 97.25
      vertex -2 83.725 196.85
    endloop
  endfacet
  facet normal 0.932998 -0 0.359881
    outer loop
      vertex -223.817 2 159.63
      vertex -219.618 83.725 148.744
      vertex -223.817 83.725 159.63
    endloop
  endfacet
  facet normal 0.932998 0 0.359881
    outer loop
      vertex -219.618 83.725 148.744
      vertex -223.817 2 159.63
      vertex -219.618 2 148.744
    endloop
  endfacet
  facet normal 0.963774 -0 0.26672
    outer loop
      vertex -230.589 2 181.953
      vertex -227.477 83.725 170.708
      vertex -230.589 83.725 181.953
    endloop
  endfacet
  facet normal 0.963774 0 0.26672
    outer loop
      vertex -227.477 83.725 170.708
      vertex -230.589 2 181.953
      vertex -227.477 2 170.708
    endloop
  endfacet
  facet normal 0.975709 -0 0.219072
    outer loop
      vertex -233.145 2 193.337
      vertex -230.589 83.725 181.953
      vertex -233.145 83.725 193.337
    endloop
  endfacet
  facet normal 0.975709 0 0.219072
    outer loop
      vertex -230.589 83.725 181.953
      vertex -233.145 2 193.337
      vertex -230.589 2 181.953
    endloop
  endfacet
  facet normal 0.844849 -0 0.535005
    outer loop
      vertex -203.893 2 117.504
      vertex -197.651 83.725 107.647
      vertex -203.893 83.725 117.504
    endloop
  endfacet
  facet normal 0.844849 0 0.535005
    outer loop
      vertex -197.651 83.725 107.647
      vertex -203.893 2 117.504
      vertex -197.651 2 107.647
    endloop
  endfacet
  facet normal 0.788366 -0 0.615207
    outer loop
      vertex -190.932 2 98.1073
      vertex -190.263 83.725 97.25
      vertex -190.932 83.725 98.1073
    endloop
  endfacet
  facet normal 0.788366 0 0.615207
    outer loop
      vertex -190.263 83.725 97.25
      vertex -190.932 2 98.1073
      vertex -190.263 2 97.25
    endloop
  endfacet
  facet normal 0.94952 -0 0.313707
    outer loop
      vertex -227.477 2 170.708
      vertex -223.817 83.725 159.63
      vertex -227.477 83.725 170.708
    endloop
  endfacet
  facet normal 0.94952 0 0.313707
    outer loop
      vertex -223.817 83.725 159.63
      vertex -227.477 2 170.708
      vertex -223.817 2 159.63
    endloop
  endfacet
  facet normal 0.985304 -0 0.170809
    outer loop
      vertex -233.754 2 196.85
      vertex -233.145 83.725 193.337
      vertex -233.754 83.725 196.85
    endloop
  endfacet
  facet normal 0.985304 0 0.170809
    outer loop
      vertex -233.145 83.725 193.337
      vertex -233.754 2 196.85
      vertex -233.145 2 193.337
    endloop
  endfacet
  facet normal 0.870088 -0 0.492896
    outer loop
      vertex -209.644 2 127.656
      vertex -203.893 83.725 117.504
      vertex -209.644 83.725 127.656
    endloop
  endfacet
  facet normal 0.870088 0 0.492896
    outer loop
      vertex -203.893 83.725 117.504
      vertex -209.644 2 127.656
      vertex -203.893 2 117.504
    endloop
  endfacet
  facet normal 0.893207 -0 0.449646
    outer loop
      vertex -214.89 2 138.077
      vertex -209.644 83.725 127.656
      vertex -214.89 83.725 138.077
    endloop
  endfacet
  facet normal 0.893207 0 0.449646
    outer loop
      vertex -209.644 83.725 127.656
      vertex -214.89 2 138.077
      vertex -209.644 2 127.656
    endloop
  endfacet
  facet normal 0.914221 -0 0.405216
    outer loop
      vertex -219.618 2 148.744
      vertex -214.89 83.725 138.077
      vertex -219.618 83.725 148.744
    endloop
  endfacet
  facet normal 0.914221 0 0.405216
    outer loop
      vertex -214.89 83.725 138.077
      vertex -219.618 2 148.744
      vertex -214.89 2 138.077
    endloop
  endfacet
  facet normal 0.817569 -0 0.57583
    outer loop
      vertex -197.651 2 107.647
      vertex -190.932 83.725 98.1073
      vertex -197.651 83.725 107.647
    endloop
  endfacet
  facet normal 0.817569 0 0.57583
    outer loop
      vertex -190.932 83.725 98.1073
      vertex -197.651 2 107.647
      vertex -190.932 2 98.1073
    endloop
  endfacet
  facet normal -0 0 1
    outer loop
      vertex -190.263 83.725 97.25
      vertex -181.292 75.725 97.25
      vertex -181.292 83.725 97.25
    endloop
  endfacet
  facet normal 0 0 1
    outer loop
      vertex -181.292 75.725 97.25
      vertex -190.263 83.725 97.25
      vertex -181.292 10 97.25
    endloop
  endfacet
  facet normal 0 0 1
    outer loop
      vertex -190.263 2 97.25
      vertex -181.292 10 97.25
      vertex -190.263 83.725 97.25
    endloop
  endfacet
  facet normal 0 0 1
    outer loop
      vertex -181.292 10 97.25
      vertex -190.263 2 97.25
      vertex -181.292 2 97.25
    endloop
  endfacet
  facet normal -0 0 1
    outer loop
      vertex -181.292 75.725 97.25
      vertex -171.292 10 97.25
      vertex -171.292 75.725 97.25
    endloop
  endfacet
  facet normal 0 0 1
    outer loop
      vertex -171.292 10 97.25
      vertex -181.292 75.725 97.25
      vertex -181.292 10 97.25
    endloop
  endfacet
  facet normal 0 0 1
    outer loop
      vertex -171.292 75.725 97.25
      vertex -20 75.725 97.25
      vertex -20 83.725 97.25
    endloop
  endfacet
  facet normal 0 0 1
    outer loop
      vertex -20 75.725 97.25
      vertex -171.292 75.725 97.25
      vertex -20 10 97.25
    endloop
  endfacet
  facet normal 0 0 1
    outer loop
      vertex -171.292 75.725 97.25
      vertex -20 83.725 97.25
      vertex -171.292 83.725 97.25
    endloop
  endfacet
  facet normal 0 0 1
    outer loop
      vertex -171.292 10 97.25
      vertex -20 10 97.25
      vertex -171.292 75.725 97.25
    endloop
  endfacet
  facet normal 0 0 1
    outer loop
      vertex -20 10 97.25
      vertex -171.292 10 97.25
      vertex -20 2 97.25
    endloop
  endfacet
  facet normal 0 0 1
    outer loop
      vertex -20 2 97.25
      vertex -171.292 10 97.25
      vertex -171.292 2 97.25
    endloop
  endfacet
  facet normal -0 0 1
    outer loop
      vertex -20 75.725 97.25
      vertex -10 10 97.25
      vertex -10 75.725 97.25
    endloop
  endfacet
  facet normal 0 0 1
    outer loop
      vertex -10 10 97.25
      vertex -20 75.725 97.25
      vertex -20 10 97.25
    endloop
  endfacet
  facet normal 0 0 1
    outer loop
      vertex -10 75.725 97.25
      vertex -2 83.725 97.25
      vertex -10 83.725 97.25
    endloop
  endfacet
  facet normal 0 0 1
    outer loop
      vertex -2 83.725 97.25
      vertex -10 75.725 97.25
      vertex -2 2 97.25
    endloop
  endfacet
  facet normal -0 0 1
    outer loop
      vertex -10 10 97.25
      vertex -2 2 97.25
      vertex -10 75.725 97.25
    endloop
  endfacet
  facet normal 0 0 1
    outer loop
      vertex -2 2 97.25
      vertex -10 10 97.25
      vertex -10 2 97.25
    endloop
  endfacet
  facet normal -1 0 0
    outer loop
      vertex -2 2 97.25
      vertex -2 83.725 196.85
      vertex -2 83.725 97.25
    endloop
  endfacet
  facet normal -1 -0 0
    outer loop
      vertex -2 83.725 196.85
      vertex -2 2 97.25
      vertex -2 2 196.85
    endloop
  endfacet
  facet normal 1 0 0
    outer loop
      vertex -20 2 105.25
      vertex -20 0 105.25
      vertex -20 2 97.25
    endloop
  endfacet
  facet normal 1 -0 0
    outer loop
      vertex -20 2 97.25
      vertex -20 10 95.25
      vertex -20 10 97.25
    endloop
  endfacet
  facet normal 1 0 0
    outer loop
      vertex -20 2 97.25
      vertex -20 0 95.25
      vertex -20 10 95.25
    endloop
  endfacet
  facet normal 1 0 0
    outer loop
      vertex -20 0 95.25
      vertex -20 2 97.25
      vertex -20 0 105.25
    endloop
  endfacet
  facet normal 0 0 -1
    outer loop
      vertex -20 0 105.25
      vertex -10 2 105.25
      vertex -10 0 105.25
    endloop
  endfacet
  facet normal -0 0 -1
    outer loop
      vertex -10 2 105.25
      vertex -20 0 105.25
      vertex -20 2 105.25
    endloop
  endfacet
  facet normal -1 0 0
    outer loop
      vertex -10 10 95.25
      vertex -10 2 97.25
      vertex -10 10 97.25
    endloop
  endfacet
  facet normal -1 0 0
    outer loop
      vertex -10 0 95.25
      vertex -10 2 97.25
      vertex -10 10 95.25
    endloop
  endfacet
  facet normal -1 0 0
    outer loop
      vertex -10 0 105.25
      vertex -10 2 97.25
      vertex -10 0 95.25
    endloop
  endfacet
  facet normal -1 0 0
    outer loop
      vertex -10 2 97.25
      vertex -10 0 105.25
      vertex -10 2 105.25
    endloop
  endfacet
  facet normal 0 -1 0
    outer loop
      vertex -20 10 95.25
      vertex -10 10 97.25
      vertex -20 10 97.25
    endloop
  endfacet
  facet normal 0 -1 -0
    outer loop
      vertex -10 10 97.25
      vertex -20 10 95.25
      vertex -10 10 95.25
    endloop
  endfacet
  facet normal 1 0 0
    outer loop
      vertex -20 83.725 97.25
      vertex -20 85.725 105.25
      vertex -20 83.725 105.25
    endloop
  endfacet
  facet normal 1 0 0
    outer loop
      vertex -20 85.725 105.25
      vertex -20 83.725 97.25
      vertex -20 85.725 95.25
    endloop
  endfacet
  facet normal 1 0 0
    outer loop
      vertex -20 75.725 95.25
      vertex -20 83.725 97.25
      vertex -20 75.725 97.25
    endloop
  endfacet
  facet normal 1 0 0
    outer loop
      vertex -20 83.725 97.25
      vertex -20 75.725 95.25
      vertex -20 85.725 95.25
    endloop
  endfacet
  facet normal 0 0 -1
    outer loop
      vertex -20 83.725 105.25
      vertex -10 85.725 105.25
      vertex -10 83.725 105.25
    endloop
  endfacet
  facet normal -0 0 -1
    outer loop
      vertex -10 85.725 105.25
      vertex -20 83.725 105.25
      vertex -20 85.725 105.25
    endloop
  endfacet
  facet normal -1 0 0
    outer loop
      vertex -10 85.725 95.25
      vertex -10 83.725 97.25
      vertex -10 85.725 105.25
    endloop
  endfacet
  facet normal -1 0 0
    outer loop
      vertex -10 75.725 95.25
      vertex -10 83.725 97.25
      vertex -10 85.725 95.25
    endloop
  endfacet
  facet normal -1 -0 0
    outer loop
      vertex -10 83.725 97.25
      vertex -10 75.725 95.25
      vertex -10 75.725 97.25
    endloop
  endfacet
  facet normal -1 -0 0
    outer loop
      vertex -10 85.725 105.25
      vertex -10 83.725 97.25
      vertex -10 83.725 105.25
    endloop
  endfacet
  facet normal 0 1 -0
    outer loop
      vertex -10 75.725 95.25
      vertex -20 75.725 97.25
      vertex -10 75.725 97.25
    endloop
  endfacet
  facet normal 0 1 0
    outer loop
      vertex -20 75.725 97.25
      vertex -10 75.725 95.25
      vertex -20 75.725 95.25
    endloop
  endfacet
  facet normal 1 0 0
    outer loop
      vertex -181.292 2 105.25
      vertex -181.292 0 105.25
      vertex -181.292 2 97.25
    endloop
  endfacet
  facet normal 1 -0 0
    outer loop
      vertex -181.292 2 97.25
      vertex -181.292 10 95.25
      vertex -181.292 10 97.25
    endloop
  endfacet
  facet normal 1 0 0
    outer loop
      vertex -181.292 2 97.25
      vertex -181.292 0 95.25
      vertex -181.292 10 95.25
    endloop
  endfacet
  facet normal 1 0 0
    outer loop
      vertex -181.292 0 95.25
      vertex -181.292 2 97.25
      vertex -181.292 0 105.25
    endloop
  endfacet
  facet normal 0 0 -1
    outer loop
      vertex -181.292 0 105.25
      vertex -171.292 2 105.25
      vertex -171.292 0 105.25
    endloop
  endfacet
  facet normal -0 0 -1
    outer loop
      vertex -171.292 2 105.25
      vertex -181.292 0 105.25
      vertex -181.292 2 105.25
    endloop
  endfacet
  facet normal -1 0 0
    outer loop
      vertex -171.292 10 95.25
      vertex -171.292 2 97.25
      vertex -171.292 10 97.25
    endloop
  endfacet
  facet normal -1 0 0
    outer loop
      vertex -171.292 0 95.25
      vertex -171.292 2 97.25
      vertex -171.292 10 95.25
    endloop
  endfacet
  facet normal -1 0 0
    outer loop
      vertex -171.292 0 105.25
      vertex -171.292 2 97.25
      vertex -171.292 0 95.25
    endloop
  endfacet
  facet normal -1 0 0
    outer loop
      vertex -171.292 2 97.25
      vertex -171.292 0 105.25
      vertex -171.292 2 105.25
    endloop
  endfacet
  facet normal 0 -1 0
    outer loop
      vertex -181.292 10 95.25
      vertex -171.292 10 97.25
      vertex -181.292 10 97.25
    endloop
  endfacet
  facet normal 0 -1 -0
    outer loop
      vertex -171.292 10 97.25
      vertex -181.292 10 95.25
      vertex -171.292 10 95.25
    endloop
  endfacet
  facet normal 1 0 0
    outer loop
      vertex -181.292 83.725 97.25
      vertex -181.292 85.725 105.25
      vertex -181.292 83.725 105.25
    endloop
  endfacet
  facet normal 1 0 0
    outer loop
      vertex -181.292 85.725 105.25
      vertex -181.292 83.725 97.25
      vertex -181.292 85.725 95.25
    endloop
  endfacet
  facet normal 1 0 0
    outer loop
      vertex -181.292 75.725 95.25
      vertex -181.292 83.725 97.25
      vertex -181.292 75.725 97.25
    endloop
  endfacet
  facet normal 1 0 0
    outer loop
      vertex -181.292 83.725 97.25
      vertex -181.292 75.725 95.25
      vertex -181.292 85.725 95.25
    endloop
  endfacet
  facet normal 0 0 -1
    outer loop
      vertex -181.292 83.725 105.25
      vertex -171.292 85.725 105.25
      vertex -171.292 83.725 105.25
    endloop
  endfacet
  facet normal -0 0 -1
    outer loop
      vertex -171.292 85.725 105.25
      vertex -181.292 83.725 105.25
      vertex -181.292 85.725 105.25
    endloop
  endfacet
  facet normal -1 0 0
    outer loop
      vertex -171.292 85.725 95.25
      vertex -171.292 83.725 97.25
      vertex -171.292 85.725 105.25
    endloop
  endfacet
  facet normal -1 0 0
    outer loop
      vertex -171.292 75.725 95.25
      vertex -171.292 83.725 97.25
      vertex -171.292 85.725 95.25
    endloop
  endfacet
  facet normal -1 -0 0
    outer loop
      vertex -171.292 83.725 97.25
      vertex -171.292 75.725 95.25
      vertex -171.292 75.725 97.25
    endloop
  endfacet
  facet normal -1 -0 0
    outer loop
      vertex -171.292 85.725 105.25
      vertex -171.292 83.725 97.25
      vertex -171.292 83.725 105.25
    endloop
  endfacet
  facet normal 0 1 -0
    outer loop
      vertex -171.292 75.725 95.25
      vertex -181.292 75.725 97.25
      vertex -171.292 75.725 97.25
    endloop
  endfacet
  facet normal 0 1 0
    outer loop
      vertex -181.292 75.725 97.25
      vertex -171.292 75.725 95.25
      vertex -181.292 75.725 95.25
    endloop
  endfacet
endsolid OpenSCAD_Model
