solid OpenSCAD_Model
  facet normal 1 0 0
    outer loop
      vertex 0 59 44
      vertex 0 35.5 24
      vertex 0 59 0
    endloop
  endfacet
  facet normal 1 0 0
    outer loop
      vertex 0 59 44
      vertex 0 34.9641 26
      vertex 0 35.5 24
    endloop
  endfacet
  facet normal 1 0 0
    outer loop
      vertex 0 59 44
      vertex 0 33.5 27.4641
      vertex 0 34.9641 26
    endloop
  endfacet
  facet normal 1 0 0
    outer loop
      vertex 0 59 44
      vertex 0 31.5 28
      vertex 0 33.5 27.4641
    endloop
  endfacet
  facet normal 1 -0 0
    outer loop
      vertex 0 0 44
      vertex 0 31.5 28
      vertex 0 59 44
    endloop
  endfacet
  facet normal 1 0 0
    outer loop
      vertex 0 28.0359 26
      vertex 0 0 44
      vertex 0 27.5 24
    endloop
  endfacet
  facet normal 1 0 0
    outer loop
      vertex 0 29.5 27.4641
      vertex 0 0 44
      vertex 0 28.0359 26
    endloop
  endfacet
  facet normal 1 0 0
    outer loop
      vertex 0 31.5 28
      vertex 0 0 44
      vertex 0 29.5 27.4641
    endloop
  endfacet
  facet normal 1 -0 0
    outer loop
      vertex 0 34.9641 22
      vertex 0 59 0
      vertex 0 35.5 24
    endloop
  endfacet
  facet normal 1 -0 0
    outer loop
      vertex 0 33.5 20.5359
      vertex 0 59 0
      vertex 0 34.9641 22
    endloop
  endfacet
  facet normal 1 -0 0
    outer loop
      vertex 0 31.5 20
      vertex 0 59 0
      vertex 0 33.5 20.5359
    endloop
  endfacet
  facet normal 1 0 0
    outer loop
      vertex 0 0 0
      vertex 0 31.5 20
      vertex 0 29.5 20.5359
    endloop
  endfacet
  facet normal 1 0 0
    outer loop
      vertex 0 0 0
      vertex 0 27.5 24
      vertex 0 0 44
    endloop
  endfacet
  facet normal 1 0 0
    outer loop
      vertex 0 27.5 24
      vertex 0 0 0
      vertex 0 28.0359 22
    endloop
  endfacet
  facet normal 1 0 0
    outer loop
      vertex 0 31.5 20
      vertex 0 0 0
      vertex 0 59 0
    endloop
  endfacet
  facet normal 1 0 0
    outer loop
      vertex 0 28.0359 22
      vertex 0 0 0
      vertex 0 29.5 20.5359
    endloop
  endfacet
  facet normal -0 0 1
    outer loop
      vertex -68 45 4
      vertex -45.5 41 4
      vertex -45.5 45 4
    endloop
  endfacet
  facet normal 0 0 1
    outer loop
      vertex -45.5 41 4
      vertex -68 45 4
      vertex -45.5 22 4
    endloop
  endfacet
  facet normal 0 0 1
    outer loop
      vertex -68 0 4
      vertex -45.5 22 4
      vertex -68 45 4
    endloop
  endfacet
  facet normal -0 0 1
    outer loop
      vertex -45.5 41 4
      vertex -23 22 4
      vertex -23 41 4
    endloop
  endfacet
  facet normal 0 0 1
    outer loop
      vertex -23 22 4
      vertex -45.5 41 4
      vertex -45.5 22 4
    endloop
  endfacet
  facet normal 0 0 1
    outer loop
      vertex -23 41 4
      vertex -4 59 4
      vertex -23 59 4
    endloop
  endfacet
  facet normal 0 0 1
    outer loop
      vertex -4 59 4
      vertex -23 41 4
      vertex -4 4 4
    endloop
  endfacet
  facet normal -0 0 1
    outer loop
      vertex -23 22 4
      vertex -4 4 4
      vertex -23 41 4
    endloop
  endfacet
  facet normal 0 0 1
    outer loop
      vertex -4 4 4
      vertex -23 22 4
      vertex -23 4 4
    endloop
  endfacet
  facet normal -0 0 1
    outer loop
      vertex -45.5 18 4
      vertex -27 0 4
      vertex -27 18 4
    endloop
  endfacet
  facet normal 0 0 1
    outer loop
      vertex -45.5 18 4
      vertex -68 0 4
      vertex -27 0 4
    endloop
  endfacet
  facet normal 0 0 1
    outer loop
      vertex -45.5 22 4
      vertex -68 0 4
      vertex -45.5 18 4
    endloop
  endfacet
  facet normal -1 0 0
    outer loop
      vertex -68 0 0
      vertex -68 45 4
      vertex -68 45 0
    endloop
  endfacet
  facet normal -1 -0 0
    outer loop
      vertex -68 45 4
      vertex -68 0 0
      vertex -68 0 4
    endloop
  endfacet
  facet normal 0 1 0
    outer loop
      vertex -27 45 44
      vertex -45.5 45 4
      vertex -45.5 45 44
    endloop
  endfacet
  facet normal 0 1 -0
    outer loop
      vertex -27 45 0
      vertex -45.5 45 4
      vertex -27 45 44
    endloop
  endfacet
  facet normal 0 1 0
    outer loop
      vertex -68 45 0
      vertex -45.5 45 4
      vertex -27 45 0
    endloop
  endfacet
  facet normal 0 1 0
    outer loop
      vertex -45.5 45 4
      vertex -68 45 0
      vertex -68 45 4
    endloop
  endfacet
  facet normal 0 0 -1
    outer loop
      vertex 0 0 0
      vertex -27 45 0
      vertex 0 59 0
    endloop
  endfacet
  facet normal 0 0 -1
    outer loop
      vertex -68 0 0
      vertex -27 45 0
      vertex 0 0 0
    endloop
  endfacet
  facet normal -0 0 -1
    outer loop
      vertex -27 45 0
      vertex -68 0 0
      vertex -68 45 0
    endloop
  endfacet
  facet normal -0 0 -1
    outer loop
      vertex 0 59 0
      vertex -27 45 0
      vertex -27 59 0
    endloop
  endfacet
  facet normal 0 -1 0
    outer loop
      vertex -68 0 4
      vertex -68 0 0
      vertex -27 0 4
    endloop
  endfacet
  facet normal 0 -1 0
    outer loop
      vertex -27 0 44
      vertex -13.5 0 28
      vertex 0 0 44
    endloop
  endfacet
  facet normal 0 -1 0
    outer loop
      vertex -27 0 44
      vertex -15.5 0 27.4641
      vertex -13.5 0 28
    endloop
  endfacet
  facet normal 0 -1 0
    outer loop
      vertex -27 0 44
      vertex -16.9641 0 26
      vertex -15.5 0 27.4641
    endloop
  endfacet
  facet normal 0 -1 0
    outer loop
      vertex -27 0 44
      vertex -17.5 0 24
      vertex -16.9641 0 26
    endloop
  endfacet
  facet normal 0 -1 0
    outer loop
      vertex -27 0 4
      vertex -17.5 0 24
      vertex -27 0 44
    endloop
  endfacet
  facet normal 0 -1 -0
    outer loop
      vertex -15.5 0 20.5359
      vertex -27 0 4
      vertex -13.5 0 20
    endloop
  endfacet
  facet normal 0 -1 -0
    outer loop
      vertex -16.9641 0 22
      vertex -27 0 4
      vertex -15.5 0 20.5359
    endloop
  endfacet
  facet normal 0 -1 -0
    outer loop
      vertex -17.5 0 24
      vertex -27 0 4
      vertex -16.9641 0 22
    endloop
  endfacet
  facet normal 0 -1 0
    outer loop
      vertex -11.5 0 27.4641
      vertex 0 0 44
      vertex -13.5 0 28
    endloop
  endfacet
  facet normal 0 -1 0
    outer loop
      vertex -10.0359 0 26
      vertex 0 0 44
      vertex -11.5 0 27.4641
    endloop
  endfacet
  facet normal 0 -1 0
    outer loop
      vertex -9.5 0 24
      vertex 0 0 44
      vertex -10.0359 0 26
    endloop
  endfacet
  facet normal 0 -1 0
    outer loop
      vertex 0 0 0
      vertex -9.5 0 24
      vertex -10.0359 0 22
    endloop
  endfacet
  facet normal 0 -1 0
    outer loop
      vertex 0 0 0
      vertex -13.5 0 20
      vertex -27 0 4
    endloop
  endfacet
  facet normal 0 -1 0
    outer loop
      vertex -13.5 0 20
      vertex 0 0 0
      vertex -11.5 0 20.5359
    endloop
  endfacet
  facet normal 0 -1 0
    outer loop
      vertex -9.5 0 24
      vertex 0 0 0
      vertex 0 0 44
    endloop
  endfacet
  facet normal 0 -1 0
    outer loop
      vertex -11.5 0 20.5359
      vertex 0 0 0
      vertex -10.0359 0 22
    endloop
  endfacet
  facet normal 0 -1 0
    outer loop
      vertex 0 0 0
      vertex -27 0 4
      vertex -68 0 0
    endloop
  endfacet
  facet normal -1 0 0
    outer loop
      vertex -27 45 0
      vertex -27 59 44
      vertex -27 59 0
    endloop
  endfacet
  facet normal -1 -0 0
    outer loop
      vertex -27 59 44
      vertex -27 45 0
      vertex -27 45 44
    endloop
  endfacet
  facet normal 0 1 0
    outer loop
      vertex 0 59 44
      vertex -4 59 4
      vertex -4 59 44
    endloop
  endfacet
  facet normal 0 1 0
    outer loop
      vertex -4 59 4
      vertex 0 59 0
      vertex -23 59 4
    endloop
  endfacet
  facet normal 0 1 -0
    outer loop
      vertex 0 59 0
      vertex -4 59 4
      vertex 0 59 44
    endloop
  endfacet
  facet normal 0 1 -0
    outer loop
      vertex -23 59 4
      vertex -27 59 44
      vertex -23 59 44
    endloop
  endfacet
  facet normal 0 1 0
    outer loop
      vertex -23 59 4
      vertex -27 59 0
      vertex -27 59 44
    endloop
  endfacet
  facet normal 0 1 0
    outer loop
      vertex -27 59 0
      vertex -23 59 4
      vertex 0 59 0
    endloop
  endfacet
  facet normal 0 0 1
    outer loop
      vertex -23 22 44
      vertex -27 18 44
      vertex -23 4 44
    endloop
  endfacet
  facet normal -0 0 1
    outer loop
      vertex -45.5 22 44
      vertex -27 18 44
      vertex -23 22 44
    endloop
  endfacet
  facet normal 0 0 1
    outer loop
      vertex -27 18 44
      vertex -45.5 22 44
      vertex -45.5 18 44
    endloop
  endfacet
  facet normal 0 0 1
    outer loop
      vertex -4 4 44
      vertex 0 59 44
      vertex -4 59 44
    endloop
  endfacet
  facet normal 0 0 1
    outer loop
      vertex 0 59 44
      vertex -4 4 44
      vertex 0 0 44
    endloop
  endfacet
  facet normal -0 0 1
    outer loop
      vertex -23 4 44
      vertex 0 0 44
      vertex -4 4 44
    endloop
  endfacet
  facet normal 0 0 1
    outer loop
      vertex -23 4 44
      vertex -27 0 44
      vertex 0 0 44
    endloop
  endfacet
  facet normal 0 0 1
    outer loop
      vertex -27 0 44
      vertex -23 4 44
      vertex -27 18 44
    endloop
  endfacet
  facet normal -1 0 0
    outer loop
      vertex -4 59 4
      vertex -4 33.4 24
      vertex -4 59 44
    endloop
  endfacet
  facet normal -1 0 0
    outer loop
      vertex -4 59 4
      vertex -4 33.1454 23.05
      vertex -4 33.4 24
    endloop
  endfacet
  facet normal -1 0 0
    outer loop
      vertex -4 59 4
      vertex -4 32.45 22.3546
      vertex -4 33.1454 23.05
    endloop
  endfacet
  facet normal -1 0 0
    outer loop
      vertex -4 59 4
      vertex -4 31.5 22.1
      vertex -4 32.45 22.3546
    endloop
  endfacet
  facet normal -1 0 0
    outer loop
      vertex -4 4 4
      vertex -4 31.5 22.1
      vertex -4 59 4
    endloop
  endfacet
  facet normal -1 -0 0
    outer loop
      vertex -4 29.8546 23.05
      vertex -4 4 4
      vertex -4 29.6 24
    endloop
  endfacet
  facet normal -1 -0 0
    outer loop
      vertex -4 30.55 22.3546
      vertex -4 4 4
      vertex -4 29.8546 23.05
    endloop
  endfacet
  facet normal -1 -0 0
    outer loop
      vertex -4 31.5 22.1
      vertex -4 4 4
      vertex -4 30.55 22.3546
    endloop
  endfacet
  facet normal -1 0 0
    outer loop
      vertex -4 33.1454 24.95
      vertex -4 59 44
      vertex -4 33.4 24
    endloop
  endfacet
  facet normal -1 0 0
    outer loop
      vertex -4 32.45 25.6454
      vertex -4 59 44
      vertex -4 33.1454 24.95
    endloop
  endfacet
  facet normal -1 0 0
    outer loop
      vertex -4 31.5 25.9
      vertex -4 59 44
      vertex -4 32.45 25.6454
    endloop
  endfacet
  facet normal -1 0 0
    outer loop
      vertex -4 4 44
      vertex -4 31.5 25.9
      vertex -4 30.55 25.6454
    endloop
  endfacet
  facet normal -1 0 0
    outer loop
      vertex -4 4 44
      vertex -4 29.6 24
      vertex -4 4 4
    endloop
  endfacet
  facet normal -1 0 0
    outer loop
      vertex -4 29.6 24
      vertex -4 4 44
      vertex -4 29.8546 24.95
    endloop
  endfacet
  facet normal -1 0 0
    outer loop
      vertex -4 31.5 25.9
      vertex -4 4 44
      vertex -4 59 44
    endloop
  endfacet
  facet normal -1 0 0
    outer loop
      vertex -4 29.8546 24.95
      vertex -4 4 44
      vertex -4 30.55 25.6454
    endloop
  endfacet
  facet normal -1 0 0
    outer loop
      vertex -27 0 4
      vertex -27 18 44
      vertex -27 18 4
    endloop
  endfacet
  facet normal -1 -0 0
    outer loop
      vertex -27 18 44
      vertex -27 0 4
      vertex -27 0 44
    endloop
  endfacet
  facet normal 0 1 0
    outer loop
      vertex -4 4 44
      vertex -13.5 4 25.9
      vertex -23 4 44
    endloop
  endfacet
  facet normal 0 1 0
    outer loop
      vertex -4 4 44
      vertex -12.55 4 25.6454
      vertex -13.5 4 25.9
    endloop
  endfacet
  facet normal 0 1 0
    outer loop
      vertex -4 4 44
      vertex -11.8546 4 24.95
      vertex -12.55 4 25.6454
    endloop
  endfacet
  facet normal 0 1 0
    outer loop
      vertex -4 4 44
      vertex -11.6 4 24
      vertex -11.8546 4 24.95
    endloop
  endfacet
  facet normal 0 1 -0
    outer loop
      vertex -4 4 4
      vertex -11.6 4 24
      vertex -4 4 44
    endloop
  endfacet
  facet normal 0 1 0
    outer loop
      vertex -12.55 4 22.3546
      vertex -4 4 4
      vertex -13.5 4 22.1
    endloop
  endfacet
  facet normal 0 1 0
    outer loop
      vertex -11.8546 4 23.05
      vertex -4 4 4
      vertex -12.55 4 22.3546
    endloop
  endfacet
  facet normal 0 1 0
    outer loop
      vertex -11.6 4 24
      vertex -4 4 4
      vertex -11.8546 4 23.05
    endloop
  endfacet
  facet normal 0 1 -0
    outer loop
      vertex -14.45 4 25.6454
      vertex -23 4 44
      vertex -13.5 4 25.9
    endloop
  endfacet
  facet normal 0 1 -0
    outer loop
      vertex -15.1454 4 24.95
      vertex -23 4 44
      vertex -14.45 4 25.6454
    endloop
  endfacet
  facet normal 0 1 -0
    outer loop
      vertex -15.4 4 24
      vertex -23 4 44
      vertex -15.1454 4 24.95
    endloop
  endfacet
  facet normal 0 1 0
    outer loop
      vertex -23 4 4
      vertex -15.4 4 24
      vertex -15.1454 4 23.05
    endloop
  endfacet
  facet normal 0 1 0
    outer loop
      vertex -23 4 4
      vertex -13.5 4 22.1
      vertex -4 4 4
    endloop
  endfacet
  facet normal 0 1 0
    outer loop
      vertex -13.5 4 22.1
      vertex -23 4 4
      vertex -14.45 4 22.3546
    endloop
  endfacet
  facet normal 0 1 0
    outer loop
      vertex -15.4 4 24
      vertex -23 4 4
      vertex -23 4 44
    endloop
  endfacet
  facet normal 0 1 0
    outer loop
      vertex -14.45 4 22.3546
      vertex -23 4 4
      vertex -15.1454 4 23.05
    endloop
  endfacet
  facet normal 1 -0 0
    outer loop
      vertex -23 4 44
      vertex -23 22 4
      vertex -23 22 44
    endloop
  endfacet
  facet normal 1 0 0
    outer loop
      vertex -23 22 4
      vertex -23 4 44
      vertex -23 4 4
    endloop
  endfacet
  facet normal 0 1 -0
    outer loop
      vertex -23 22 4
      vertex -45.5 22 44
      vertex -23 22 44
    endloop
  endfacet
  facet normal 0 1 0
    outer loop
      vertex -45.5 22 44
      vertex -23 22 4
      vertex -45.5 22 4
    endloop
  endfacet
  facet normal -1 0 0
    outer loop
      vertex -45.5 18 4
      vertex -45.5 22 44
      vertex -45.5 22 4
    endloop
  endfacet
  facet normal -1 -0 0
    outer loop
      vertex -45.5 22 44
      vertex -45.5 18 4
      vertex -45.5 18 44
    endloop
  endfacet
  facet normal 0 -1 0
    outer loop
      vertex -45.5 18 4
      vertex -27 18 44
      vertex -45.5 18 44
    endloop
  endfacet
  facet normal 0 -1 -0
    outer loop
      vertex -27 18 44
      vertex -45.5 18 4
      vertex -27 18 4
    endloop
  endfacet
  facet normal 1 -0 0
    outer loop
      vertex -23 41 44
      vertex -23 59 4
      vertex -23 59 44
    endloop
  endfacet
  facet normal 1 0 0
    outer loop
      vertex -23 59 4
      vertex -23 41 44
      vertex -23 41 4
    endloop
  endfacet
  facet normal 0 0 1
    outer loop
      vertex -27 45 44
      vertex -23 59 44
      vertex -27 59 44
    endloop
  endfacet
  facet normal 0 0 1
    outer loop
      vertex -23 59 44
      vertex -27 45 44
      vertex -23 41 44
    endloop
  endfacet
  facet normal 0 0 1
    outer loop
      vertex -45.5 41 44
      vertex -27 45 44
      vertex -45.5 45 44
    endloop
  endfacet
  facet normal 0 0 1
    outer loop
      vertex -27 45 44
      vertex -45.5 41 44
      vertex -23 41 44
    endloop
  endfacet
  facet normal 0 -1 0
    outer loop
      vertex -45.5 41 4
      vertex -23 41 44
      vertex -45.5 41 44
    endloop
  endfacet
  facet normal 0 -1 -0
    outer loop
      vertex -23 41 44
      vertex -45.5 41 4
      vertex -23 41 4
    endloop
  endfacet
  facet normal -1 0 0
    outer loop
      vertex -45.5 41 4
      vertex -45.5 45 44
      vertex -45.5 45 4
    endloop
  endfacet
  facet normal -1 -0 0
    outer loop
      vertex -45.5 45 44
      vertex -45.5 41 4
      vertex -45.5 41 44
    endloop
  endfacet
  facet normal 0.965926 0 -0.258819
    outer loop
      vertex -15.1454 3 24.95
      vertex -15.4 4 24
      vertex -15.1454 4 24.95
    endloop
  endfacet
  facet normal 0.965926 0 -0.258819
    outer loop
      vertex -15.4 4 24
      vertex -15.1454 3 24.95
      vertex -15.4 3 24
    endloop
  endfacet
  facet normal -0.965926 0 -0.258819
    outer loop
      vertex -11.6 3 24
      vertex -11.8546 4 24.95
      vertex -11.6 4 24
    endloop
  endfacet
  facet normal -0.965926 -0 -0.258819
    outer loop
      vertex -11.8546 4 24.95
      vertex -11.6 3 24
      vertex -11.8546 3 24.95
    endloop
  endfacet
  facet normal 0.25882 0 -0.965926
    outer loop
      vertex -14.45 3 25.6454
      vertex -13.5 4 25.9
      vertex -13.5 3 25.9
    endloop
  endfacet
  facet normal 0.25882 0 -0.965926
    outer loop
      vertex -13.5 4 25.9
      vertex -14.45 3 25.6454
      vertex -14.45 4 25.6454
    endloop
  endfacet
  facet normal 0.707107 0 -0.707107
    outer loop
      vertex -14.45 3 25.6454
      vertex -15.1454 4 24.95
      vertex -14.45 4 25.6454
    endloop
  endfacet
  facet normal 0.707107 0 -0.707107
    outer loop
      vertex -15.1454 4 24.95
      vertex -14.45 3 25.6454
      vertex -15.1454 3 24.95
    endloop
  endfacet
  facet normal -0.25882 0 -0.965926
    outer loop
      vertex -13.5 3 25.9
      vertex -12.55 4 25.6454
      vertex -12.55 3 25.6454
    endloop
  endfacet
  facet normal -0.25882 0 -0.965926
    outer loop
      vertex -12.55 4 25.6454
      vertex -13.5 3 25.9
      vertex -13.5 4 25.9
    endloop
  endfacet
  facet normal -0.965926 0 0.258819
    outer loop
      vertex -11.8546 3 23.05
      vertex -11.6 4 24
      vertex -11.8546 4 23.05
    endloop
  endfacet
  facet normal -0.965926 0 0.258819
    outer loop
      vertex -11.6 4 24
      vertex -11.8546 3 23.05
      vertex -11.6 3 24
    endloop
  endfacet
  facet normal -0.707107 0 -0.707107
    outer loop
      vertex -11.8546 3 24.95
      vertex -12.55 4 25.6454
      vertex -11.8546 4 24.95
    endloop
  endfacet
  facet normal -0.707107 -0 -0.707107
    outer loop
      vertex -12.55 4 25.6454
      vertex -11.8546 3 24.95
      vertex -12.55 3 25.6454
    endloop
  endfacet
  facet normal -0.707107 0 0.707107
    outer loop
      vertex -12.55 3 22.3546
      vertex -11.8546 4 23.05
      vertex -12.55 4 22.3546
    endloop
  endfacet
  facet normal -0.707107 0 0.707107
    outer loop
      vertex -11.8546 4 23.05
      vertex -12.55 3 22.3546
      vertex -11.8546 3 23.05
    endloop
  endfacet
  facet normal 0.707107 -0 0.707107
    outer loop
      vertex -15.1454 3 23.05
      vertex -14.45 4 22.3546
      vertex -15.1454 4 23.05
    endloop
  endfacet
  facet normal 0.707107 0 0.707107
    outer loop
      vertex -14.45 4 22.3546
      vertex -15.1454 3 23.05
      vertex -14.45 3 22.3546
    endloop
  endfacet
  facet normal 0.258818 0 0.965926
    outer loop
      vertex -14.45 4 22.3546
      vertex -13.5 3 22.1
      vertex -13.5 4 22.1
    endloop
  endfacet
  facet normal 0.258818 0 0.965926
    outer loop
      vertex -13.5 3 22.1
      vertex -14.45 4 22.3546
      vertex -14.45 3 22.3546
    endloop
  endfacet
  facet normal 0.965926 -0 0.258819
    outer loop
      vertex -15.4 3 24
      vertex -15.1454 4 23.05
      vertex -15.4 4 24
    endloop
  endfacet
  facet normal 0.965926 0 0.258819
    outer loop
      vertex -15.1454 4 23.05
      vertex -15.4 3 24
      vertex -15.1454 3 23.05
    endloop
  endfacet
  facet normal -0.258818 0 0.965926
    outer loop
      vertex -13.5 4 22.1
      vertex -12.55 3 22.3546
      vertex -12.55 4 22.3546
    endloop
  endfacet
  facet normal -0.258818 0 0.965926
    outer loop
      vertex -12.55 3 22.3546
      vertex -13.5 4 22.1
      vertex -13.5 3 22.1
    endloop
  endfacet
  facet normal 0.80018 -0.560126 -0.214408
    outer loop
      vertex -15.1454 3 24.95
      vertex -17.5 0 24
      vertex -15.4 3 24
    endloop
  endfacet
  facet normal -0.80018 -0.560126 0.214408
    outer loop
      vertex -11.6 3 24
      vertex -11.8546 3 23.05
      vertex -9.5 0 24
    endloop
  endfacet
  facet normal 0.80018 -0.560126 0.214408
    outer loop
      vertex -15.1454 3 23.05
      vertex -17.5 0 24
      vertex -16.9641 0 22
    endloop
  endfacet
  facet normal 0.585772 -0.560126 -0.585772
    outer loop
      vertex -15.5 2.12108e-016 27.4641
      vertex -16.9641 1.22461e-016 26
      vertex -15.1454 3 24.95
    endloop
  endfacet
  facet normal 0.585773 -0.560126 0.585773
    outer loop
      vertex -16.9641 0 22
      vertex -14.45 3 22.3546
      vertex -15.1454 3 23.05
    endloop
  endfacet
  facet normal 0.585773 -0.560126 0.585773
    outer loop
      vertex -14.45 3 22.3546
      vertex -16.9641 0 22
      vertex -15.5 0 20.5359
    endloop
  endfacet
  facet normal -0.214408 -0.560126 0.80018
    outer loop
      vertex -12.55 3 22.3546
      vertex -13.5 0 20
      vertex -11.5 0 20.5359
    endloop
  endfacet
  facet normal -0.585773 -0.560126 0.585773
    outer loop
      vertex -11.8546 3 23.05
      vertex -12.55 3 22.3546
      vertex -11.5 0 20.5359
    endloop
  endfacet
  facet normal -0.80018 -0.560126 -0.214408
    outer loop
      vertex -10.0359 1.22461e-016 26
      vertex -11.8546 3 24.95
      vertex -9.5 0 24
    endloop
  endfacet
  facet normal 0.214409 -0.560126 -0.80018
    outer loop
      vertex -13.5 2.44921e-016 28
      vertex -14.45 3 25.6454
      vertex -13.5 3 25.9
    endloop
  endfacet
  facet normal 0.80018 -0.560126 -0.214408
    outer loop
      vertex -16.9641 1.22461e-016 26
      vertex -17.5 0 24
      vertex -15.1454 3 24.95
    endloop
  endfacet
  facet normal 0.214408 -0.560126 0.80018
    outer loop
      vertex -14.45 3 22.3546
      vertex -15.5 0 20.5359
      vertex -13.5 0 20
    endloop
  endfacet
  facet normal 0.214407 -0.560126 0.80018
    outer loop
      vertex -13.5 3 22.1
      vertex -14.45 3 22.3546
      vertex -13.5 0 20
    endloop
  endfacet
  facet normal -0.585772 -0.560126 -0.585773
    outer loop
      vertex -11.5 2.12108e-016 27.4641
      vertex -11.8546 3 24.95
      vertex -10.0359 1.22461e-016 26
    endloop
  endfacet
  facet normal -0.585773 -0.560126 -0.585773
    outer loop
      vertex -11.8546 3 24.95
      vertex -11.5 2.12108e-016 27.4641
      vertex -12.55 3 25.6454
    endloop
  endfacet
  facet normal -0.214409 -0.560126 -0.80018
    outer loop
      vertex -12.55 3 25.6454
      vertex -13.5 2.44921e-016 28
      vertex -13.5 3 25.9
    endloop
  endfacet
  facet normal -0.80018 -0.560126 -0.214408
    outer loop
      vertex -9.5 0 24
      vertex -11.8546 3 24.95
      vertex -11.6 3 24
    endloop
  endfacet
  facet normal 0.214408 -0.560126 -0.80018
    outer loop
      vertex -13.5 2.44921e-016 28
      vertex -15.5 2.12108e-016 27.4641
      vertex -14.45 3 25.6454
    endloop
  endfacet
  facet normal 0.585772 -0.560126 -0.585772
    outer loop
      vertex -14.45 3 25.6454
      vertex -15.5 2.12108e-016 27.4641
      vertex -15.1454 3 24.95
    endloop
  endfacet
  facet normal 0.80018 -0.560126 0.214408
    outer loop
      vertex -15.4 3 24
      vertex -17.5 0 24
      vertex -15.1454 3 23.05
    endloop
  endfacet
  facet normal -0.585772 -0.560126 0.585773
    outer loop
      vertex -10.0359 0 22
      vertex -11.8546 3 23.05
      vertex -11.5 0 20.5359
    endloop
  endfacet
  facet normal -0.80018 -0.560126 0.214408
    outer loop
      vertex -9.5 0 24
      vertex -11.8546 3 23.05
      vertex -10.0359 0 22
    endloop
  endfacet
  facet normal -0.214408 -0.560126 -0.80018
    outer loop
      vertex -11.5 2.12108e-016 27.4641
      vertex -13.5 2.44921e-016 28
      vertex -12.55 3 25.6454
    endloop
  endfacet
  facet normal -0.214407 -0.560126 0.80018
    outer loop
      vertex -13.5 3 22.1
      vertex -13.5 0 20
      vertex -12.55 3 22.3546
    endloop
  endfacet
  facet normal 0.965926 0 -0.25882
    outer loop
      vertex -16.9641 0 26
      vertex -17.5 0 24
      vertex -16.9641 1.22461e-016 26
    endloop
  endfacet
  facet normal -0.965926 0 -0.258819
    outer loop
      vertex -9.5 0 24
      vertex -10.0359 0 26
      vertex -10.0359 1.22461e-016 26
    endloop
  endfacet
  facet normal 0.25882 0 -0.965926
    outer loop
      vertex -15.5 0 27.4641
      vertex -13.5 2.44921e-016 28
      vertex -13.5 0 28
    endloop
  endfacet
  facet normal 0.25882 0 -0.965926
    outer loop
      vertex -13.5 2.44921e-016 28
      vertex -15.5 0 27.4641
      vertex -15.5 2.12108e-016 27.4641
    endloop
  endfacet
  facet normal 0.707107 0 -0.707107
    outer loop
      vertex -15.5 0 27.4641
      vertex -16.9641 1.22461e-016 26
      vertex -15.5 2.12108e-016 27.4641
    endloop
  endfacet
  facet normal 0.707107 0 -0.707107
    outer loop
      vertex -16.9641 1.22461e-016 26
      vertex -15.5 0 27.4641
      vertex -16.9641 0 26
    endloop
  endfacet
  facet normal -0.25882 0 -0.965926
    outer loop
      vertex -13.5 0 28
      vertex -11.5 2.12108e-016 27.4641
      vertex -11.5 0 27.4641
    endloop
  endfacet
  facet normal -0.25882 0 -0.965926
    outer loop
      vertex -11.5 2.12108e-016 27.4641
      vertex -13.5 0 28
      vertex -13.5 2.44921e-016 28
    endloop
  endfacet
  facet normal -0.707106 0 -0.707107
    outer loop
      vertex -11.5 0 27.4641
      vertex -10.0359 1.22461e-016 26
      vertex -10.0359 0 26
    endloop
  endfacet
  facet normal -0.707106 0 -0.707107
    outer loop
      vertex -10.0359 1.22461e-016 26
      vertex -11.5 0 27.4641
      vertex -11.5 2.12108e-016 27.4641
    endloop
  endfacet
  facet normal 0 -0.25882 -0.965926
    outer loop
      vertex -4 31.5 25.9
      vertex -3 32.45 25.6454
      vertex -3 31.5 25.9
    endloop
  endfacet
  facet normal -0 -0.25882 -0.965926
    outer loop
      vertex -3 32.45 25.6454
      vertex -4 31.5 25.9
      vertex -4 32.45 25.6454
    endloop
  endfacet
  facet normal 0 -0.258818 0.965926
    outer loop
      vertex -4 32.45 22.3546
      vertex -3 31.5 22.1
      vertex -3 32.45 22.3546
    endloop
  endfacet
  facet normal 0 -0.258818 0.965926
    outer loop
      vertex -3 31.5 22.1
      vertex -4 32.45 22.3546
      vertex -4 31.5 22.1
    endloop
  endfacet
  facet normal 0 -0.965925 -0.258822
    outer loop
      vertex -4 33.4 24
      vertex -3 33.1454 24.95
      vertex -4 33.1454 24.95
    endloop
  endfacet
  facet normal 0 -0.965925 -0.258822
    outer loop
      vertex -3 33.1454 24.95
      vertex -4 33.4 24
      vertex -3 33.4 24
    endloop
  endfacet
  facet normal 0 -0.707108 -0.707106
    outer loop
      vertex -4 33.1454 24.95
      vertex -3 32.45 25.6454
      vertex -4 32.45 25.6454
    endloop
  endfacet
  facet normal 0 -0.707108 -0.707106
    outer loop
      vertex -3 32.45 25.6454
      vertex -4 33.1454 24.95
      vertex -3 33.1454 24.95
    endloop
  endfacet
  facet normal 0 -0.965925 0.258822
    outer loop
      vertex -4 33.1454 23.05
      vertex -3 33.4 24
      vertex -4 33.4 24
    endloop
  endfacet
  facet normal 0 -0.965925 0.258822
    outer loop
      vertex -3 33.4 24
      vertex -4 33.1454 23.05
      vertex -3 33.1454 23.05
    endloop
  endfacet
  facet normal -0 0.258818 0.965926
    outer loop
      vertex -4 31.5 22.1
      vertex -3 30.55 22.3546
      vertex -3 31.5 22.1
    endloop
  endfacet
  facet normal 0 0.258818 0.965926
    outer loop
      vertex -3 30.55 22.3546
      vertex -4 31.5 22.1
      vertex -4 30.55 22.3546
    endloop
  endfacet
  facet normal 0 -0.707108 0.707106
    outer loop
      vertex -4 32.45 22.3546
      vertex -3 33.1454 23.05
      vertex -4 33.1454 23.05
    endloop
  endfacet
  facet normal 0 -0.707108 0.707106
    outer loop
      vertex -3 33.1454 23.05
      vertex -4 32.45 22.3546
      vertex -3 32.45 22.3546
    endloop
  endfacet
  facet normal 0 0.707108 0.707106
    outer loop
      vertex -3 30.55 22.3546
      vertex -4 29.8546 23.05
      vertex -3 29.8546 23.05
    endloop
  endfacet
  facet normal 0 0.707108 0.707106
    outer loop
      vertex -4 29.8546 23.05
      vertex -3 30.55 22.3546
      vertex -4 30.55 22.3546
    endloop
  endfacet
  facet normal 0 0.707108 -0.707106
    outer loop
      vertex -3 29.8546 24.95
      vertex -4 30.55 25.6454
      vertex -3 30.55 25.6454
    endloop
  endfacet
  facet normal 0 0.707108 -0.707106
    outer loop
      vertex -4 30.55 25.6454
      vertex -3 29.8546 24.95
      vertex -4 29.8546 24.95
    endloop
  endfacet
  facet normal 0 0.965925 -0.25882
    outer loop
      vertex -3 29.6 24
      vertex -4 29.8546 24.95
      vertex -3 29.8546 24.95
    endloop
  endfacet
  facet normal 0 0.965925 -0.25882
    outer loop
      vertex -4 29.8546 24.95
      vertex -3 29.6 24
      vertex -4 29.6 24
    endloop
  endfacet
  facet normal 0 0.25882 -0.965926
    outer loop
      vertex -4 30.55 25.6454
      vertex -3 31.5 25.9
      vertex -3 30.55 25.6454
    endloop
  endfacet
  facet normal 0 0.25882 -0.965926
    outer loop
      vertex -3 31.5 25.9
      vertex -4 30.55 25.6454
      vertex -4 31.5 25.9
    endloop
  endfacet
  facet normal 0 0.965926 0.25882
    outer loop
      vertex -3 29.8546 23.05
      vertex -4 29.6 24
      vertex -3 29.6 24
    endloop
  endfacet
  facet normal 0 0.965926 0.25882
    outer loop
      vertex -4 29.6 24
      vertex -3 29.8546 23.05
      vertex -4 29.8546 23.05
    endloop
  endfacet
  facet normal 0.560126 -0.214408 -0.80018
    outer loop
      vertex -2.44921e-016 31.5 28
      vertex -3 31.5 25.9
      vertex -3 32.45 25.6454
    endloop
  endfacet
  facet normal 0.560126 0.214407 0.80018
    outer loop
      vertex -3 31.5 22.1
      vertex -3 30.55 22.3546
      vertex 0 31.5 20
    endloop
  endfacet
  facet normal 0.560126 0.214408 -0.80018
    outer loop
      vertex -2.12108e-016 29.5 27.4641
      vertex -3 30.55 25.6454
      vertex -2.44921e-016 31.5 28
    endloop
  endfacet
  facet normal 0.560126 -0.585773 -0.585773
    outer loop
      vertex -2.12108e-016 33.5 27.4641
      vertex -3 32.45 25.6454
      vertex -1.22461e-016 34.9641 26
    endloop
  endfacet
  facet normal 0.560126 0.585773 -0.585773
    outer loop
      vertex -1.22461e-016 28.0359 26
      vertex -3 30.55 25.6454
      vertex -2.12108e-016 29.5 27.4641
    endloop
  endfacet
  facet normal 0.560126 0.585773 -0.585772
    outer loop
      vertex -3 30.55 25.6454
      vertex -1.22461e-016 28.0359 26
      vertex -3 29.8546 24.95
    endloop
  endfacet
  facet normal 0.560126 0.80018 0.214408
    outer loop
      vertex 0 28.0359 22
      vertex -3 29.8546 23.05
      vertex 0 27.5 24
    endloop
  endfacet
  facet normal 0.560126 0.585773 0.585772
    outer loop
      vertex -3 30.55 22.3546
      vertex -3 29.8546 23.05
      vertex 0 28.0359 22
    endloop
  endfacet
  facet normal 0.560126 -0.214408 0.80018
    outer loop
      vertex 0 33.5 20.5359
      vertex -3 32.45 22.3546
      vertex 0 31.5 20
    endloop
  endfacet
  facet normal 0.560125 -0.80018 -0.21441
    outer loop
      vertex 0 35.5 24
      vertex -3 33.1454 24.95
      vertex -3 33.4 24
    endloop
  endfacet
  facet normal 0.560126 -0.214408 -0.80018
    outer loop
      vertex -2.44921e-016 31.5 28
      vertex -3 32.45 25.6454
      vertex -2.12108e-016 33.5 27.4641
    endloop
  endfacet
  facet normal 0.560126 0.80018 -0.214408
    outer loop
      vertex 0 27.5 24
      vertex -3 29.8546 24.95
      vertex -1.22461e-016 28.0359 26
    endloop
  endfacet
  facet normal 0.560126 0.80018 -0.214409
    outer loop
      vertex -3 29.6 24
      vertex -3 29.8546 24.95
      vertex 0 27.5 24
    endloop
  endfacet
  facet normal 0.560126 -0.585773 0.585772
    outer loop
      vertex -3 32.45 22.3546
      vertex 0 34.9641 22
      vertex -3 33.1454 23.05
    endloop
  endfacet
  facet normal 0.560126 -0.585773 0.585773
    outer loop
      vertex 0 34.9641 22
      vertex -3 32.45 22.3546
      vertex 0 33.5 20.5359
    endloop
  endfacet
  facet normal 0.560125 -0.80018 0.21441
    outer loop
      vertex 0 35.5 24
      vertex -3 33.4 24
      vertex -3 33.1454 23.05
    endloop
  endfacet
  facet normal 0.560126 -0.214407 0.80018
    outer loop
      vertex 0 31.5 20
      vertex -3 32.45 22.3546
      vertex -3 31.5 22.1
    endloop
  endfacet
  facet normal 0.560126 -0.80018 -0.214408
    outer loop
      vertex -1.22461e-016 34.9641 26
      vertex -3 33.1454 24.95
      vertex 0 35.5 24
    endloop
  endfacet
  facet normal 0.560126 -0.585773 -0.585772
    outer loop
      vertex -1.22461e-016 34.9641 26
      vertex -3 32.45 25.6454
      vertex -3 33.1454 24.95
    endloop
  endfacet
  facet normal 0.560126 0.214408 -0.80018
    outer loop
      vertex -3 30.55 25.6454
      vertex -3 31.5 25.9
      vertex -2.44921e-016 31.5 28
    endloop
  endfacet
  facet normal 0.560126 0.585773 0.585773
    outer loop
      vertex 0 29.5 20.5359
      vertex -3 30.55 22.3546
      vertex 0 28.0359 22
    endloop
  endfacet
  facet normal 0.560126 0.214408 0.80018
    outer loop
      vertex 0 31.5 20
      vertex -3 30.55 22.3546
      vertex 0 29.5 20.5359
    endloop
  endfacet
  facet normal 0.560126 -0.80018 0.214408
    outer loop
      vertex 0 35.5 24
      vertex -3 33.1454 23.05
      vertex 0 34.9641 22
    endloop
  endfacet
  facet normal 0.560126 0.80018 0.214408
    outer loop
      vertex -3 29.8546 23.05
      vertex -3 29.6 24
      vertex 0 27.5 24
    endloop
  endfacet
  facet normal 0 -0.25882 -0.965926
    outer loop
      vertex 0 31.5 28
      vertex -2.12108e-016 33.5 27.4641
      vertex 0 33.5 27.4641
    endloop
  endfacet
  facet normal 0 -0.25882 -0.965926
    outer loop
      vertex -2.12108e-016 33.5 27.4641
      vertex 0 31.5 28
      vertex -2.44921e-016 31.5 28
    endloop
  endfacet
  facet normal -0 -0.965926 -0.25882
    outer loop
      vertex 0 34.9641 26
      vertex -1.22461e-016 34.9641 26
      vertex 0 35.5 24
    endloop
  endfacet
  facet normal 0 -0.707107 -0.707107
    outer loop
      vertex -1.22461e-016 34.9641 26
      vertex 0 33.5 27.4641
      vertex -2.12108e-016 33.5 27.4641
    endloop
  endfacet
  facet normal 0 -0.707107 -0.707107
    outer loop
      vertex 0 33.5 27.4641
      vertex -1.22461e-016 34.9641 26
      vertex 0 34.9641 26
    endloop
  endfacet
  facet normal 0 0.25882 -0.965926
    outer loop
      vertex -2.12108e-016 29.5 27.4641
      vertex 0 31.5 28
      vertex 0 29.5 27.4641
    endloop
  endfacet
  facet normal 0 0.25882 -0.965926
    outer loop
      vertex 0 31.5 28
      vertex -2.12108e-016 29.5 27.4641
      vertex -2.44921e-016 31.5 28
    endloop
  endfacet
  facet normal 0 0.707107 -0.707107
    outer loop
      vertex 0 28.0359 26
      vertex -2.12108e-016 29.5 27.4641
      vertex 0 29.5 27.4641
    endloop
  endfacet
  facet normal 0 0.707107 -0.707107
    outer loop
      vertex -2.12108e-016 29.5 27.4641
      vertex 0 28.0359 26
      vertex -1.22461e-016 28.0359 26
    endloop
  endfacet
  facet normal 0 0.965926 -0.25882
    outer loop
      vertex 0 27.5 24
      vertex -1.22461e-016 28.0359 26
      vertex 0 28.0359 26
    endloop
  endfacet
endsolid OpenSCAD_Model
