solid OpenSCAD_Model
  facet normal 0.979547 0.194844 0.0502332
    outer loop
      vertex 5 0 0
      vertex 4.15537 1.66811 10
      vertex 4.48718 0 10
    endloop
  endfacet
  facet normal 0.979547 0.194844 0.0502332
    outer loop
      vertex 4.15537 1.66811 10
      vertex 5 0 0
      vertex 4.6194 1.91342 0
    endloop
  endfacet
  facet normal 0.83042 0.554869 0.0502332
    outer loop
      vertex 3.62254 2.5 10
      vertex 3.53553 3.53553 0
      vertex 2.5 2.5 28.5571
    endloop
  endfacet
  facet normal 0.83042 0.554869 0.0502332
    outer loop
      vertex 3.62254 2.5 10
      vertex 4.6194 1.91342 0
      vertex 3.53553 3.53553 0
    endloop
  endfacet
  facet normal 0.83042 0.554868 0.0502332
    outer loop
      vertex 4.6194 1.91342 0
      vertex 3.62254 2.5 10
      vertex 4.11782 1.75876 10
    endloop
  endfacet
  facet normal -0.83042 -0.554868 0.0502332
    outer loop
      vertex -4.6194 -1.91342 0
      vertex -3.62254 -2.5 10
      vertex -4.11782 -1.75876 10
    endloop
  endfacet
  facet normal -0.83042 -0.554869 0.0502332
    outer loop
      vertex -3.62254 -2.5 10
      vertex -3.53553 -3.53553 0
      vertex -2.5 -2.5 28.5571
    endloop
  endfacet
  facet normal -0.83042 -0.554869 0.0502332
    outer loop
      vertex -3.53553 -3.53553 0
      vertex -3.62254 -2.5 10
      vertex -4.6194 -1.91342 0
    endloop
  endfacet
  facet normal -0.554869 0.83042 0.0502332
    outer loop
      vertex -1.91342 4.6194 0
      vertex -2.5 2.5 28.5571
      vertex -1.25992 2.5 42.2548
    endloop
  endfacet
  facet normal -0.554869 0.83042 0.0502332
    outer loop
      vertex -2.5 2.5 28.5571
      vertex -1.91342 4.6194 0
      vertex -3.53553 3.53553 0
    endloop
  endfacet
  facet normal 0.554867 0.830421 0.0502332
    outer loop
      vertex 1.91342 4.6194 0
      vertex 1.03553 2.5 44.7334
      vertex 1.25992 2.5 42.2548
    endloop
  endfacet
  facet normal -0.979547 -0.194844 0.0502332
    outer loop
      vertex -5 0 0
      vertex -4.15537 -1.66811 10
      vertex -4.48718 0 10
    endloop
  endfacet
  facet normal -0.979547 -0.194844 0.0502332
    outer loop
      vertex -4.15537 -1.66811 10
      vertex -5 0 0
      vertex -4.6194 -1.91342 0
    endloop
  endfacet
  facet normal 0 0 -1
    outer loop
      vertex 3 0 0
      vertex 5 0 0
      vertex 4.6194 -1.91342 0
    endloop
  endfacet
  facet normal 0 0 -1
    outer loop
      vertex 2.42705 -1.76336 0
      vertex 4.6194 -1.91342 0
      vertex 3.53553 -3.53553 0
    endloop
  endfacet
  facet normal 0 0 -1
    outer loop
      vertex 5 0 0
      vertex 3 0 0
      vertex 4.6194 1.91342 0
    endloop
  endfacet
  facet normal 0 0 -1
    outer loop
      vertex 2.42705 1.76336 0
      vertex 4.6194 1.91342 0
      vertex 3 0 0
    endloop
  endfacet
  facet normal 0 0 -1
    outer loop
      vertex 4.6194 -1.91342 0
      vertex 2.42705 -1.76336 0
      vertex 3 0 0
    endloop
  endfacet
  facet normal 0 0 -1
    outer loop
      vertex 0.927051 -2.85317 0
      vertex 3.53553 -3.53553 0
      vertex 1.91342 -4.6194 0
    endloop
  endfacet
  facet normal 0 0 -1
    outer loop
      vertex 3.53553 -3.53553 0
      vertex 0.927051 -2.85317 0
      vertex 2.42705 -1.76336 0
    endloop
  endfacet
  facet normal 0 0 -1
    outer loop
      vertex 0 -5 0
      vertex 0.927051 -2.85317 0
      vertex 1.91342 -4.6194 0
    endloop
  endfacet
  facet normal 0 0 -1
    outer loop
      vertex 0 -5 0
      vertex -0.927051 -2.85317 0
      vertex 0.927051 -2.85317 0
    endloop
  endfacet
  facet normal 0 0 -1
    outer loop
      vertex -1.91342 -4.6194 0
      vertex -0.927051 -2.85317 0
      vertex 0 -5 0
    endloop
  endfacet
  facet normal 0 0 -1
    outer loop
      vertex -3.53553 -3.53553 0
      vertex -0.927051 -2.85317 0
      vertex -1.91342 -4.6194 0
    endloop
  endfacet
  facet normal -0 0 -1
    outer loop
      vertex -0.927051 -2.85317 0
      vertex -3.53553 -3.53553 0
      vertex -2.42705 -1.76336 0
    endloop
  endfacet
  facet normal 0 0 -1
    outer loop
      vertex -4.6194 -1.91342 0
      vertex -2.42705 -1.76336 0
      vertex -3.53553 -3.53553 0
    endloop
  endfacet
  facet normal -0 0 -1
    outer loop
      vertex 4.6194 1.91342 0
      vertex 2.42705 1.76336 0
      vertex 3.53553 3.53553 0
    endloop
  endfacet
  facet normal 0 0 -1
    outer loop
      vertex 0.927051 2.85317 0
      vertex 3.53553 3.53553 0
      vertex 2.42705 1.76336 0
    endloop
  endfacet
  facet normal -0 0 -1
    outer loop
      vertex 3.53553 3.53553 0
      vertex 0.927051 2.85317 0
      vertex 1.91342 4.6194 0
    endloop
  endfacet
  facet normal 0 0 -1
    outer loop
      vertex 0.927051 2.85317 0
      vertex 0 5 0
      vertex 1.91342 4.6194 0
    endloop
  endfacet
  facet normal 0 0 -1
    outer loop
      vertex -0.927051 2.85317 0
      vertex 0 5 0
      vertex 0.927051 2.85317 0
    endloop
  endfacet
  facet normal 0 0 -1
    outer loop
      vertex -0.927051 2.85317 0
      vertex -1.91342 4.6194 0
      vertex 0 5 0
    endloop
  endfacet
  facet normal 0 0 -1
    outer loop
      vertex -3.53553 3.53553 0
      vertex -0.927051 2.85317 0
      vertex -2.42705 1.76336 0
    endloop
  endfacet
  facet normal 0 0 -1
    outer loop
      vertex -4.6194 1.91342 0
      vertex -2.42705 1.76336 0
      vertex -3 0 0
    endloop
  endfacet
  facet normal 0 0 -1
    outer loop
      vertex -0.927051 2.85317 0
      vertex -3.53553 3.53553 0
      vertex -1.91342 4.6194 0
    endloop
  endfacet
  facet normal -0 0 -1
    outer loop
      vertex -2.42705 -1.76336 0
      vertex -4.6194 -1.91342 0
      vertex -3 0 0
    endloop
  endfacet
  facet normal 0 0 -1
    outer loop
      vertex -5 0 0
      vertex -3 0 0
      vertex -4.6194 -1.91342 0
    endloop
  endfacet
  facet normal 0 0 -1
    outer loop
      vertex -2.42705 1.76336 0
      vertex -4.6194 1.91342 0
      vertex -3.53553 3.53553 0
    endloop
  endfacet
  facet normal 0 0 -1
    outer loop
      vertex -3 0 0
      vertex -5 0 0
      vertex -4.6194 1.91342 0
    endloop
  endfacet
  facet normal 0.83042 -0.554868 0.0502332
    outer loop
      vertex 3.62254 -2.5 10
      vertex 4.6194 -1.91342 0
      vertex 4.11782 -1.75876 10
    endloop
  endfacet
  facet normal 0.83042 -0.554869 0.0502332
    outer loop
      vertex 4.6194 -1.91342 0
      vertex 3.62254 -2.5 10
      vertex 3.53553 -3.53553 0
    endloop
  endfacet
  facet normal 0.83042 -0.554869 0.0502332
    outer loop
      vertex 2.5 -2.5 28.5571
      vertex 3.53553 -3.53553 0
      vertex 3.62254 -2.5 10
    endloop
  endfacet
  facet normal 0.979547 -0.194844 0.0502332
    outer loop
      vertex 4.15537 -1.66811 10
      vertex 5 0 0
      vertex 4.48718 0 10
    endloop
  endfacet
  facet normal 0.979547 -0.194844 0.0502332
    outer loop
      vertex 5 0 0
      vertex 4.15537 -1.66811 10
      vertex 4.6194 -1.91342 0
    endloop
  endfacet
  facet normal 0.830419 0.554871 0.0502332
    outer loop
      vertex 4.6194 1.91342 0
      vertex 4.11782 1.75876 10
      vertex 4.14561 1.71717 10
    endloop
  endfacet
  facet normal 0.554869 0.83042 0.0502332
    outer loop
      vertex 1.91342 4.6194 0
      vertex 2.5 2.5 28.5571
      vertex 3.53553 3.53553 0
    endloop
  endfacet
  facet normal 0.554869 0.83042 0.0502332
    outer loop
      vertex 2.5 2.5 28.5571
      vertex 1.91342 4.6194 0
      vertex 1.25992 2.5 42.2548
    endloop
  endfacet
  facet normal 0.194847 0.979546 0.0502332
    outer loop
      vertex 1.91342 4.6194 0
      vertex 0.792984 2.5 45.6742
      vertex 1.03553 2.5 44.7334
    endloop
  endfacet
  facet normal 0.194844 0.979547 0.0502332
    outer loop
      vertex 0 5 0
      vertex 0.792984 2.5 45.6742
      vertex 1.91342 4.6194 0
    endloop
  endfacet
  facet normal 0.194844 0.979547 0.0502332
    outer loop
      vertex 0.792984 2.5 45.6742
      vertex 0 5 0
      vertex 0 2.5 48.75
    endloop
  endfacet
  facet normal -0.83042 0.554869 0.0502332
    outer loop
      vertex -4.6194 1.91342 0
      vertex -3.62254 2.5 10
      vertex -3.53553 3.53553 0
    endloop
  endfacet
  facet normal -0.83042 0.554868 0.0502332
    outer loop
      vertex -3.62254 2.5 10
      vertex -4.6194 1.91342 0
      vertex -4.11782 1.75876 10
    endloop
  endfacet
  facet normal -0.83042 0.554869 0.0502332
    outer loop
      vertex -3.53553 3.53553 0
      vertex -3.62254 2.5 10
      vertex -2.5 2.5 28.5571
    endloop
  endfacet
  facet normal 0.194844 -0.979547 0.0502332
    outer loop
      vertex 0 -5 0
      vertex 0.792984 -2.5 45.6742
      vertex 0 -2.5 48.75
    endloop
  endfacet
  facet normal 0.194844 -0.979547 0.0502332
    outer loop
      vertex 0.792984 -2.5 45.6742
      vertex 0 -5 0
      vertex 1.91342 -4.6194 0
    endloop
  endfacet
  facet normal -0.830419 -0.554871 0.0502332
    outer loop
      vertex -4.14561 -1.71717 10
      vertex -4.6194 -1.91342 0
      vertex -4.11782 -1.75876 10
    endloop
  endfacet
  facet normal 0.554869 -0.83042 0.0502332
    outer loop
      vertex 1.91342 -4.6194 0
      vertex 2.5 -2.5 28.5571
      vertex 1.25992 -2.5 42.2548
    endloop
  endfacet
  facet normal 0.554869 -0.83042 0.0502332
    outer loop
      vertex 2.5 -2.5 28.5571
      vertex 1.91342 -4.6194 0
      vertex 3.53553 -3.53553 0
    endloop
  endfacet
  facet normal 0.554868 -0.830421 0.0502332
    outer loop
      vertex 1.25992 -2.5 42.2548
      vertex 1.03553 -2.5 44.7334
      vertex 1.91342 -4.6194 0
    endloop
  endfacet
  facet normal 0.830419 -0.554871 0.0502332
    outer loop
      vertex 4.14561 -1.71717 10
      vertex 4.11782 -1.75876 10
      vertex 4.6194 -1.91342 0
    endloop
  endfacet
  facet normal 0.979547 -0.194843 0.0502332
    outer loop
      vertex 4.15537 -1.66811 10
      vertex 4.14561 -1.71717 10
      vertex 4.6194 -1.91342 0
    endloop
  endfacet
  facet normal 0.979547 0.194843 0.0502332
    outer loop
      vertex 4.6194 1.91342 0
      vertex 4.14561 1.71717 10
      vertex 4.15537 1.66811 10
    endloop
  endfacet
  facet normal -0.194844 0.979547 0.0502332
    outer loop
      vertex 0 5 0
      vertex -0.792984 2.5 45.6742
      vertex 0 2.5 48.75
    endloop
  endfacet
  facet normal -0.194844 0.979547 0.0502332
    outer loop
      vertex -0.792984 2.5 45.6742
      vertex 0 5 0
      vertex -1.91342 4.6194 0
    endloop
  endfacet
  facet normal -0.830419 0.554871 0.0502332
    outer loop
      vertex -4.11782 1.75876 10
      vertex -4.6194 1.91342 0
      vertex -4.14561 1.71717 10
    endloop
  endfacet
  facet normal -0.979547 0.194844 0.0502332
    outer loop
      vertex -5 0 0
      vertex -4.15537 1.66811 10
      vertex -4.6194 1.91342 0
    endloop
  endfacet
  facet normal -0.979547 0.194844 0.0502332
    outer loop
      vertex -4.15537 1.66811 10
      vertex -5 0 0
      vertex -4.48718 0 10
    endloop
  endfacet
  facet normal -0.554869 -0.83042 0.0502332
    outer loop
      vertex -1.91342 -4.6194 0
      vertex -2.5 -2.5 28.5571
      vertex -3.53553 -3.53553 0
    endloop
  endfacet
  facet normal -0.554869 -0.83042 0.0502332
    outer loop
      vertex -2.5 -2.5 28.5571
      vertex -1.91342 -4.6194 0
      vertex -1.25992 -2.5 42.2548
    endloop
  endfacet
  facet normal 0.194846 -0.979547 0.0502332
    outer loop
      vertex 1.03553 -2.5 44.7334
      vertex 0.792984 -2.5 45.6742
      vertex 1.91342 -4.6194 0
    endloop
  endfacet
  facet normal -0.194847 0.979546 0.0502332
    outer loop
      vertex -0.792984 2.5 45.6742
      vertex -1.91342 4.6194 0
      vertex -1.03553 2.5 44.7334
    endloop
  endfacet
  facet normal -0.554867 0.830421 0.0502332
    outer loop
      vertex -1.03553 2.5 44.7334
      vertex -1.91342 4.6194 0
      vertex -1.25992 2.5 42.2548
    endloop
  endfacet
  facet normal -0.979547 -0.194843 0.0502332
    outer loop
      vertex -4.15537 -1.66811 10
      vertex -4.6194 -1.91342 0
      vertex -4.14561 -1.71717 10
    endloop
  endfacet
  facet normal -0.979547 0.194843 0.0502332
    outer loop
      vertex -4.14561 1.71717 10
      vertex -4.6194 1.91342 0
      vertex -4.15537 1.66811 10
    endloop
  endfacet
  facet normal -0.554868 -0.830421 0.0502332
    outer loop
      vertex -1.25992 -2.5 42.2548
      vertex -1.91342 -4.6194 0
      vertex -1.03553 -2.5 44.7334
    endloop
  endfacet
  facet normal -0.194844 -0.979547 0.0502332
    outer loop
      vertex 0 -5 0
      vertex -0.792984 -2.5 45.6742
      vertex -1.91342 -4.6194 0
    endloop
  endfacet
  facet normal -0.194844 -0.979547 0.0502332
    outer loop
      vertex -0.792984 -2.5 45.6742
      vertex 0 -5 0
      vertex 0 -2.5 48.75
    endloop
  endfacet
  facet normal -0.194846 -0.979547 0.0502332
    outer loop
      vertex -1.03553 -2.5 44.7334
      vertex -1.91342 -4.6194 0
      vertex -0.792984 -2.5 45.6742
    endloop
  endfacet
  facet normal -0.951056 -0.309017 0
    outer loop
      vertex 3 0 0
      vertex 2.42705 1.76336 10
      vertex 2.42705 1.76336 0
    endloop
  endfacet
  facet normal -0.951056 -0.309017 0
    outer loop
      vertex 2.42705 1.76336 10
      vertex 3 0 0
      vertex 3 0 10
    endloop
  endfacet
  facet normal 0.951056 -0.309017 0
    outer loop
      vertex -3 0 10
      vertex -2.42705 1.76336 0
      vertex -2.42705 1.76336 10
    endloop
  endfacet
  facet normal 0.951056 -0.309017 0
    outer loop
      vertex -2.42705 1.76336 0
      vertex -3 0 10
      vertex -3 0 0
    endloop
  endfacet
  facet normal 0 -1 0
    outer loop
      vertex -0.927051 2.85317 0
      vertex 0.927051 2.85317 10
      vertex -0.927051 2.85317 10
    endloop
  endfacet
  facet normal 0 -1 -0
    outer loop
      vertex 0.927051 2.85317 10
      vertex -0.927051 2.85317 0
      vertex 0.927051 2.85317 0
    endloop
  endfacet
  facet normal -0.587785 -0.809017 0
    outer loop
      vertex 0.927051 2.85317 0
      vertex 1.41315 2.5 10
      vertex 0.927051 2.85317 10
    endloop
  endfacet
  facet normal -0.587785 -0.809017 2.78134e-009
    outer loop
      vertex 2.42705 1.76336 0
      vertex 1.41315 2.5 10
      vertex 0.927051 2.85317 0
    endloop
  endfacet
  facet normal -0.587785 -0.809017 0
    outer loop
      vertex 1.41315 2.5 10
      vertex 2.42705 1.76336 0
      vertex 2.42705 1.76336 10
    endloop
  endfacet
  facet normal 0 0 -1
    outer loop
      vertex 1.41315 -2.5 10
      vertex 3 0 10
      vertex 2.42705 -1.76336 10
    endloop
  endfacet
  facet normal 0 0 -1
    outer loop
      vertex 1.41315 2.5 10
      vertex 3 0 10
      vertex 1.41315 -2.5 10
    endloop
  endfacet
  facet normal 0 0 -1
    outer loop
      vertex 3 0 10
      vertex 1.41315 2.5 10
      vertex 2.42705 1.76336 10
    endloop
  endfacet
  facet normal 0 0 -1
    outer loop
      vertex 1.41315 -2.5 10
      vertex -1.41315 2.5 10
      vertex 1.41315 2.5 10
    endloop
  endfacet
  facet normal 0 0 -1
    outer loop
      vertex -1.41315 -2.5 10
      vertex -1.41315 2.5 10
      vertex 1.41315 -2.5 10
    endloop
  endfacet
  facet normal 0 0 -1
    outer loop
      vertex -3 0 10
      vertex -1.41315 -2.5 10
      vertex -2.42705 -1.76336 10
    endloop
  endfacet
  facet normal 0 0 -1
    outer loop
      vertex -1.41315 -2.5 10
      vertex -3 0 10
      vertex -1.41315 2.5 10
    endloop
  endfacet
  facet normal 0 0 -1
    outer loop
      vertex -1.41315 2.5 10
      vertex -3 0 10
      vertex -2.42705 1.76336 10
    endloop
  endfacet
  facet normal 0 0 -1
    outer loop
      vertex 1.41315 2.5 10
      vertex -0.927051 2.85317 10
      vertex 0.927051 2.85317 10
    endloop
  endfacet
  facet normal 0 -0 -1
    outer loop
      vertex -0.927051 2.85317 10
      vertex 1.41315 2.5 10
      vertex -1.41315 2.5 10
    endloop
  endfacet
  facet normal 0 0 -1
    outer loop
      vertex -0.927051 -2.85317 10
      vertex 1.41315 -2.5 10
      vertex 0.927051 -2.85317 10
    endloop
  endfacet
  facet normal -0 0 -1
    outer loop
      vertex 1.41315 -2.5 10
      vertex -0.927051 -2.85317 10
      vertex -1.41315 -2.5 10
    endloop
  endfacet
  facet normal 0 0 -1
    outer loop
      vertex 10 -2.5 10
      vertex 4.48718 0 10
      vertex 10 2.5 10
    endloop
  endfacet
  facet normal 0 0 -1
    outer loop
      vertex 10 -2.5 10
      vertex 4.15537 -1.66811 10
      vertex 4.48718 0 10
    endloop
  endfacet
  facet normal 0 0 -1
    outer loop
      vertex 10 -2.5 10
      vertex 4.14561 -1.71717 10
      vertex 4.15537 -1.66811 10
    endloop
  endfacet
  facet normal 0 0 -1
    outer loop
      vertex 10 -2.5 10
      vertex 4.11782 -1.75876 10
      vertex 4.14561 -1.71717 10
    endloop
  endfacet
  facet normal 0 -0 -1
    outer loop
      vertex 4.11782 -1.75876 10
      vertex 10 -2.5 10
      vertex 3.62254 -2.5 10
    endloop
  endfacet
  facet normal 0 0 -1
    outer loop
      vertex 4.15537 1.66811 10
      vertex 10 2.5 10
      vertex 4.48718 0 10
    endloop
  endfacet
  facet normal 0 0 -1
    outer loop
      vertex 4.14561 1.71717 10
      vertex 10 2.5 10
      vertex 4.15537 1.66811 10
    endloop
  endfacet
  facet normal 0 0 -1
    outer loop
      vertex 4.11782 1.75876 10
      vertex 10 2.5 10
      vertex 4.14561 1.71717 10
    endloop
  endfacet
  facet normal -0 0 -1
    outer loop
      vertex 10 2.5 10
      vertex 4.11782 1.75876 10
      vertex 3.62254 2.5 10
    endloop
  endfacet
  facet normal 0 0 -1
    outer loop
      vertex -10 -2.5 10
      vertex -4.11782 -1.75876 10
      vertex -3.62254 -2.5 10
    endloop
  endfacet
  facet normal 0 0 -1
    outer loop
      vertex -10 -2.5 10
      vertex -4.15537 -1.66811 10
      vertex -4.14561 -1.71717 10
    endloop
  endfacet
  facet normal -0 0 -1
    outer loop
      vertex -4.15537 -1.66811 10
      vertex -10 -2.5 10
      vertex -4.48718 0 10
    endloop
  endfacet
  facet normal -0 0 -1
    outer loop
      vertex -4.11782 -1.75876 10
      vertex -10 -2.5 10
      vertex -4.14561 -1.71717 10
    endloop
  endfacet
  facet normal 0 0 -1
    outer loop
      vertex -10 2.5 10
      vertex -4.11782 1.75876 10
      vertex -4.14561 1.71717 10
    endloop
  endfacet
  facet normal 0 0 -1
    outer loop
      vertex -10 2.5 10
      vertex -4.15537 1.66811 10
      vertex -4.48718 0 10
    endloop
  endfacet
  facet normal 0 0 -1
    outer loop
      vertex -10 2.5 10
      vertex -4.48718 0 10
      vertex -10 -2.5 10
    endloop
  endfacet
  facet normal 0 0 -1
    outer loop
      vertex -4.15537 1.66811 10
      vertex -10 2.5 10
      vertex -4.14561 1.71717 10
    endloop
  endfacet
  facet normal 0 0 -1
    outer loop
      vertex -4.11782 1.75876 10
      vertex -10 2.5 10
      vertex -3.62254 2.5 10
    endloop
  endfacet
  facet normal 0.587785 -0.809017 0
    outer loop
      vertex -2.42705 1.76336 0
      vertex -1.41315 2.5 10
      vertex -2.42705 1.76336 10
    endloop
  endfacet
  facet normal 0.587785 -0.809017 2.78134e-009
    outer loop
      vertex -0.927051 2.85317 0
      vertex -1.41315 2.5 10
      vertex -2.42705 1.76336 0
    endloop
  endfacet
  facet normal 0.587785 -0.809017 0
    outer loop
      vertex -1.41315 2.5 10
      vertex -0.927051 2.85317 0
      vertex -0.927051 2.85317 10
    endloop
  endfacet
  facet normal -0.951056 0.309017 0
    outer loop
      vertex 2.42705 -1.76336 0
      vertex 3 0 10
      vertex 3 0 0
    endloop
  endfacet
  facet normal -0.951056 0.309017 0
    outer loop
      vertex 3 0 10
      vertex 2.42705 -1.76336 0
      vertex 2.42705 -1.76336 10
    endloop
  endfacet
  facet normal 0.951056 0.309017 0
    outer loop
      vertex -2.42705 -1.76336 10
      vertex -3 0 0
      vertex -3 0 10
    endloop
  endfacet
  facet normal 0.951056 0.309017 0
    outer loop
      vertex -3 0 0
      vertex -2.42705 -1.76336 10
      vertex -2.42705 -1.76336 0
    endloop
  endfacet
  facet normal 0 1 -0
    outer loop
      vertex 0.927051 -2.85317 0
      vertex -0.927051 -2.85317 10
      vertex 0.927051 -2.85317 10
    endloop
  endfacet
  facet normal 0 1 0
    outer loop
      vertex -0.927051 -2.85317 10
      vertex 0.927051 -2.85317 0
      vertex -0.927051 -2.85317 0
    endloop
  endfacet
  facet normal -0.587785 0.809017 0
    outer loop
      vertex 2.42705 -1.76336 0
      vertex 1.41315 -2.5 10
      vertex 2.42705 -1.76336 10
    endloop
  endfacet
  facet normal -0.587785 0.809017 2.7039e-009
    outer loop
      vertex 0.927051 -2.85317 0
      vertex 1.41315 -2.5 10
      vertex 2.42705 -1.76336 0
    endloop
  endfacet
  facet normal -0.587785 0.809017 0
    outer loop
      vertex 1.41315 -2.5 10
      vertex 0.927051 -2.85317 0
      vertex 0.927051 -2.85317 10
    endloop
  endfacet
  facet normal 0.587785 0.809017 -0
    outer loop
      vertex -0.927051 -2.85317 0
      vertex -1.41315 -2.5 10
      vertex -0.927051 -2.85317 10
    endloop
  endfacet
  facet normal 0.587785 0.809017 2.7039e-009
    outer loop
      vertex -2.42705 -1.76336 0
      vertex -1.41315 -2.5 10
      vertex -0.927051 -2.85317 0
    endloop
  endfacet
  facet normal 0.587785 0.809017 0
    outer loop
      vertex -1.41315 -2.5 10
      vertex -2.42705 -1.76336 0
      vertex -2.42705 -1.76336 10
    endloop
  endfacet
  facet normal 0 1 0
    outer loop
      vertex 0 2.5 48.75
      vertex 0 2.5 80
      vertex 20 2.5 54
    endloop
  endfacet
  facet normal 0 1 0
    outer loop
      vertex 0 2.5 80
      vertex 0 2.5 48.75
      vertex -20 2.5 54
    endloop
  endfacet
  facet normal 0 1 0
    outer loop
      vertex 20 2.5 54
      vertex 0.792984 2.5 45.6742
      vertex 0 2.5 48.75
    endloop
  endfacet
  facet normal 0 1 0
    outer loop
      vertex 20 2.5 54
      vertex 1.03553 2.5 44.7334
      vertex 0.792984 2.5 45.6742
    endloop
  endfacet
  facet normal 0 1 0
    outer loop
      vertex 20 2.5 54
      vertex 1.25992 2.5 42.2548
      vertex 1.03553 2.5 44.7334
    endloop
  endfacet
  facet normal 0 1 0
    outer loop
      vertex 20 2.5 54
      vertex 2.5 2.5 28.5571
      vertex 1.25992 2.5 42.2548
    endloop
  endfacet
  facet normal 0 1 0
    outer loop
      vertex 22 2.5 20
      vertex 2.5 2.5 28.5571
      vertex 20 2.5 54
    endloop
  endfacet
  facet normal 0 1 -0
    outer loop
      vertex 10 2.5 10
      vertex 2.5 2.5 28.5571
      vertex 22 2.5 20
    endloop
  endfacet
  facet normal 0 1 0
    outer loop
      vertex 2.5 2.5 28.5571
      vertex 10 2.5 10
      vertex 3.62254 2.5 10
    endloop
  endfacet
  facet normal 0 1 -0
    outer loop
      vertex -0.792984 2.5 45.6742
      vertex -20 2.5 54
      vertex 0 2.5 48.75
    endloop
  endfacet
  facet normal 0 1 -0
    outer loop
      vertex -1.03553 2.5 44.7334
      vertex -20 2.5 54
      vertex -0.792984 2.5 45.6742
    endloop
  endfacet
  facet normal 0 1 -0
    outer loop
      vertex -1.25992 2.5 42.2548
      vertex -20 2.5 54
      vertex -1.03553 2.5 44.7334
    endloop
  endfacet
  facet normal 0 1 -0
    outer loop
      vertex -2.5 2.5 28.5571
      vertex -20 2.5 54
      vertex -1.25992 2.5 42.2548
    endloop
  endfacet
  facet normal 0 1 0
    outer loop
      vertex -2.5 2.5 28.5571
      vertex -22 2.5 20
      vertex -20 2.5 54
    endloop
  endfacet
  facet normal 0 1 0
    outer loop
      vertex -10 2.5 10
      vertex -2.5 2.5 28.5571
      vertex -3.62254 2.5 10
    endloop
  endfacet
  facet normal 0 1 0
    outer loop
      vertex -2.5 2.5 28.5571
      vertex -10 2.5 10
      vertex -22 2.5 20
    endloop
  endfacet
  facet normal -0.792624 0 0.609711
    outer loop
      vertex -20 -2.5 54
      vertex 0 2.5 80
      vertex -20 2.5 54
    endloop
  endfacet
  facet normal -0.792624 0 0.609711
    outer loop
      vertex 0 2.5 80
      vertex -20 -2.5 54
      vertex 0 -2.5 80
    endloop
  endfacet
  facet normal 0.998274 -0 0.058722
    outer loop
      vertex 20 -2.5 54
      vertex 22 2.5 20
      vertex 20 2.5 54
    endloop
  endfacet
  facet normal 0.998274 0 0.058722
    outer loop
      vertex 22 2.5 20
      vertex 20 -2.5 54
      vertex 22 -2.5 20
    endloop
  endfacet
  facet normal 0 -1 0
    outer loop
      vertex 0 -2.5 48.75
      vertex 0 -2.5 80
      vertex -20 -2.5 54
    endloop
  endfacet
  facet normal 0 -1 0
    outer loop
      vertex 0 -2.5 80
      vertex 0 -2.5 48.75
      vertex 20 -2.5 54
    endloop
  endfacet
  facet normal 0 -1 0
    outer loop
      vertex -20 -2.5 54
      vertex -0.792984 -2.5 45.6742
      vertex 0 -2.5 48.75
    endloop
  endfacet
  facet normal 0 -1 0
    outer loop
      vertex -20 -2.5 54
      vertex -1.03553 -2.5 44.7334
      vertex -0.792984 -2.5 45.6742
    endloop
  endfacet
  facet normal 0 -1 0
    outer loop
      vertex -20 -2.5 54
      vertex -1.25992 -2.5 42.2548
      vertex -1.03553 -2.5 44.7334
    endloop
  endfacet
  facet normal 0 -1 0
    outer loop
      vertex -20 -2.5 54
      vertex -2.5 -2.5 28.5571
      vertex -1.25992 -2.5 42.2548
    endloop
  endfacet
  facet normal 0 -1 0
    outer loop
      vertex -22 -2.5 20
      vertex -2.5 -2.5 28.5571
      vertex -20 -2.5 54
    endloop
  endfacet
  facet normal 0 -1 0
    outer loop
      vertex -10 -2.5 10
      vertex -2.5 -2.5 28.5571
      vertex -22 -2.5 20
    endloop
  endfacet
  facet normal 0 -1 0
    outer loop
      vertex -2.5 -2.5 28.5571
      vertex -10 -2.5 10
      vertex -3.62254 -2.5 10
    endloop
  endfacet
  facet normal 0 -1 0
    outer loop
      vertex 0.792984 -2.5 45.6742
      vertex 20 -2.5 54
      vertex 0 -2.5 48.75
    endloop
  endfacet
  facet normal 0 -1 0
    outer loop
      vertex 1.03553 -2.5 44.7334
      vertex 20 -2.5 54
      vertex 0.792984 -2.5 45.6742
    endloop
  endfacet
  facet normal 0 -1 0
    outer loop
      vertex 1.25992 -2.5 42.2548
      vertex 20 -2.5 54
      vertex 1.03553 -2.5 44.7334
    endloop
  endfacet
  facet normal 0 -1 0
    outer loop
      vertex 2.5 -2.5 28.5571
      vertex 20 -2.5 54
      vertex 1.25992 -2.5 42.2548
    endloop
  endfacet
  facet normal 0 -1 0
    outer loop
      vertex 2.5 -2.5 28.5571
      vertex 22 -2.5 20
      vertex 20 -2.5 54
    endloop
  endfacet
  facet normal 0 -1 0
    outer loop
      vertex 10 -2.5 10
      vertex 2.5 -2.5 28.5571
      vertex 3.62254 -2.5 10
    endloop
  endfacet
  facet normal 0 -1 0
    outer loop
      vertex 2.5 -2.5 28.5571
      vertex 10 -2.5 10
      vertex 22 -2.5 20
    endloop
  endfacet
  facet normal -0.998274 0 0.058722
    outer loop
      vertex -22 -2.5 20
      vertex -20 2.5 54
      vertex -22 2.5 20
    endloop
  endfacet
  facet normal -0.998274 0 0.058722
    outer loop
      vertex -20 2.5 54
      vertex -22 -2.5 20
      vertex -20 -2.5 54
    endloop
  endfacet
  facet normal 0.792624 -0 0.609711
    outer loop
      vertex 0 -2.5 80
      vertex 20 2.5 54
      vertex 0 2.5 80
    endloop
  endfacet
  facet normal 0.792624 0 0.609711
    outer loop
      vertex 20 2.5 54
      vertex 0 -2.5 80
      vertex 20 -2.5 54
    endloop
  endfacet
  facet normal 0.640184 0 -0.768221
    outer loop
      vertex 10 -2.5 10
      vertex 22 2.5 20
      vertex 22 -2.5 20
    endloop
  endfacet
  facet normal 0.640184 0 -0.768221
    outer loop
      vertex 22 2.5 20
      vertex 10 -2.5 10
      vertex 10 2.5 10
    endloop
  endfacet
  facet normal -0.640184 0 -0.768221
    outer loop
      vertex -22 -2.5 20
      vertex -10 2.5 10
      vertex -10 -2.5 10
    endloop
  endfacet
  facet normal -0.640184 0 -0.768221
    outer loop
      vertex -10 2.5 10
      vertex -22 -2.5 20
      vertex -22 2.5 20
    endloop
  endfacet
endsolid OpenSCAD_Model
