solid OpenSCAD_Model
  facet normal -1 0 0
    outer loop
      vertex 0 0 0
      vertex 0 0 25
      vertex 0 5 0
    endloop
  endfacet
  facet normal -1 0 0
    outer loop
      vertex 0 21 20
      vertex 0 0 25
      vertex 0 26 25
    endloop
  endfacet
  facet normal -1 0 0
    outer loop
      vertex 0 21 0
      vertex 0 26 25
      vertex 0 26 0
    endloop
  endfacet
  facet normal -1 0 0
    outer loop
      vertex 0 5 20
      vertex 0 0 25
      vertex 0 21 20
    endloop
  endfacet
  facet normal -1 0 0
    outer loop
      vertex 0 5 0
      vertex 0 0 25
      vertex 0 5 20
    endloop
  endfacet
  facet normal -1 0 0
    outer loop
      vertex 0 21 20
      vertex 0 26 25
      vertex 0 21 0
    endloop
  endfacet
  facet normal 0 -1 0
    outer loop
      vertex 0 0 25
      vertex 0 0 0
      vertex 30 0 0
    endloop
  endfacet
  facet normal 0 -1 0
    outer loop
      vertex 30 0 25
      vertex 0 0 25
      vertex 30 0 0
    endloop
  endfacet
  facet normal 0 0 -1
    outer loop
      vertex 0 0 0
      vertex 0 5 0
      vertex 30 0 0
    endloop
  endfacet
  facet normal 0 0 -1
    outer loop
      vertex 30 0 0
      vertex 0 5 0
      vertex 30 5 0
    endloop
  endfacet
  facet normal 0 1 0
    outer loop
      vertex 30 5 20
      vertex 30 5 0
      vertex 0 5 20
    endloop
  endfacet
  facet normal 0 1 0
    outer loop
      vertex 0 5 20
      vertex 30 5 0
      vertex 0 5 0
    endloop
  endfacet
  facet normal 0 0 -1
    outer loop
      vertex 30 21 20
      vertex 30 5 20
      vertex 0 21 20
    endloop
  endfacet
  facet normal 0 0 -1
    outer loop
      vertex 0 21 20
      vertex 30 5 20
      vertex 0 5 20
    endloop
  endfacet
  facet normal 0 -1 0
    outer loop
      vertex 30 21 0
      vertex 30 21 20
      vertex 0 21 20
    endloop
  endfacet
  facet normal 0 -1 0
    outer loop
      vertex 0 21 0
      vertex 30 21 0
      vertex 0 21 20
    endloop
  endfacet
  facet normal 0 0 -1
    outer loop
      vertex 0 21 0
      vertex 0 26 0
      vertex 30 21 0
    endloop
  endfacet
  facet normal 0 0 -1
    outer loop
      vertex 30 21 0
      vertex 0 26 0
      vertex 30 26 0
    endloop
  endfacet
  facet normal 0 1 0
    outer loop
      vertex 0 26 0
      vertex 0 26 25
      vertex 30 26 0
    endloop
  endfacet
  facet normal 0 1 0
    outer loop
      vertex 30 26 0
      vertex 0 26 25
      vertex 30 26 25
    endloop
  endfacet
  facet normal 0 0 1
    outer loop
      vertex 0 26 25
      vertex 0 0 25
      vertex 30 0 25
    endloop
  endfacet
  facet normal 0 0 1
    outer loop
      vertex 30 26 25
      vertex 0 26 25
      vertex 30 0 25
    endloop
  endfacet
  facet normal 1 0 0
    outer loop
      vertex 30 0 25
      vertex 30 0 0
      vertex 30 5 0
    endloop
  endfacet
  facet normal 1 0 0
    outer loop
      vertex 30 21 20
      vertex 30 0 25
      vertex 30 5 20
    endloop
  endfacet
  facet normal 1 0 0
    outer loop
      vertex 30 5 20
      vertex 30 0 25
      vertex 30 5 0
    endloop
  endfacet
  facet normal 1 0 0
    outer loop
      vertex 30 26 25
      vertex 30 0 25
      vertex 30 21 20
    endloop
  endfacet
  facet normal 1 0 0
    outer loop
      vertex 30 26 0
      vertex 30 21 20
      vertex 30 21 0
    endloop
  endfacet
  facet normal 1 0 0
    outer loop
      vertex 30 26 25
      vertex 30 21 20
      vertex 30 26 0
    endloop
  endfacet
endsolid OpenSCAD_Model
