solid OpenSCAD_Model
  facet normal -1 0 0
    outer loop
      vertex -24 -5 -3
      vertex -24 -5 29
      vertex -24 5 -3
    endloop
  endfacet
  facet normal -1 0 0
    outer loop
      vertex -24 5 -3
      vertex -24 -5 29
      vertex -24 5 29
    endloop
  endfacet
  facet normal 0 -1 0
    outer loop
      vertex -24 -5 29
      vertex -24 -5 -3
      vertex -15 -5 -3
    endloop
  endfacet
  facet normal 0 -1 0
    outer loop
      vertex -14 -5 0
      vertex -24 -5 29
      vertex -15 -5 0
    endloop
  endfacet
  facet normal 0 -1 0
    outer loop
      vertex -15 -5 0
      vertex -24 -5 29
      vertex -15 -5 -3
    endloop
  endfacet
  facet normal 0 -1 0
    outer loop
      vertex -14 -5 29
      vertex -24 -5 29
      vertex -14 -5 0
    endloop
  endfacet
  facet normal 0 0 -1
    outer loop
      vertex -24 -5 -3
      vertex -24 5 -3
      vertex -15 -5 -3
    endloop
  endfacet
  facet normal 0 0 -1
    outer loop
      vertex -15 -5 -3
      vertex -24 5 -3
      vertex -15 5 -3
    endloop
  endfacet
  facet normal 0 0 -1
    outer loop
      vertex -15 5 -3
      vertex -15 15 -3
      vertex 15 15 -3
    endloop
  endfacet
  facet normal 0 0 -1
    outer loop
      vertex -15 5 -3
      vertex 15 15 -3
      vertex -15 -5 -3
    endloop
  endfacet
  facet normal 0 0 -1
    outer loop
      vertex -15 -5 -3
      vertex 15 15 -3
      vertex 15 -15 -3
    endloop
  endfacet
  facet normal 0 0 -1
    outer loop
      vertex -15 -5 -3
      vertex 15 -15 -3
      vertex -15 -15 -3
    endloop
  endfacet
  facet normal 0 1 0
    outer loop
      vertex -24 5 -3
      vertex -24 5 29
      vertex -15 5 -3
    endloop
  endfacet
  facet normal 0 1 0
    outer loop
      vertex -15 5 0
      vertex -24 5 29
      vertex -14 5 29
    endloop
  endfacet
  facet normal 0 1 0
    outer loop
      vertex -15 5 -3
      vertex -24 5 29
      vertex -15 5 0
    endloop
  endfacet
  facet normal 0 1 0
    outer loop
      vertex -15 5 0
      vertex -14 5 29
      vertex -14 5 0
    endloop
  endfacet
  facet normal 0 0 1
    outer loop
      vertex -19 -2.5 29
      vertex -24 -5 29
      vertex -14 -5 29
    endloop
  endfacet
  facet normal 0 0 1
    outer loop
      vertex -19 -2.5 29
      vertex -19 2.5 29
      vertex -24 5 29
    endloop
  endfacet
  facet normal 0 0 1
    outer loop
      vertex -24 5 29
      vertex -24 -5 29
      vertex -19 -2.5 29
    endloop
  endfacet
  facet normal 0 0 1
    outer loop
      vertex -14 2.5 29
      vertex -24 5 29
      vertex -19 2.5 29
    endloop
  endfacet
  facet normal 0 0 1
    outer loop
      vertex -14 5 29
      vertex -24 5 29
      vertex -14 2.5 29
    endloop
  endfacet
  facet normal 0 0 1
    outer loop
      vertex -14 -2.5 29
      vertex -19 -2.5 29
      vertex -14 -5 29
    endloop
  endfacet
  facet normal 1 0 0
    outer loop
      vertex -14 -5 29
      vertex -14 -5 0
      vertex -14 5 0
    endloop
  endfacet
  facet normal 1 0 0
    outer loop
      vertex -14 -2.5 29
      vertex -14 -5 29
      vertex -14 5 0
    endloop
  endfacet
  facet normal 1 0 0
    outer loop
      vertex -14 2.5 29
      vertex -14 -2.5 29
      vertex -14 5 0
    endloop
  endfacet
  facet normal 1 0 0
    outer loop
      vertex -14 5 29
      vertex -14 2.5 29
      vertex -14 5 0
    endloop
  endfacet
  facet normal 1 0 0
    outer loop
      vertex -14 2.5 67
      vertex -14 -2.5 29
      vertex -14 2.5 29
    endloop
  endfacet
  facet normal 1 0 0
    outer loop
      vertex -14 -2.5 67
      vertex -14 -2.5 29
      vertex -14 2.5 67
    endloop
  endfacet
  facet normal 0 0 1
    outer loop
      vertex -15 -5 0
      vertex -15 -15 0
      vertex 15 -15 0
    endloop
  endfacet
  facet normal 0 0 1
    outer loop
      vertex -14 -5 0
      vertex -15 -5 0
      vertex 15 -15 0
    endloop
  endfacet
  facet normal 0 0 1
    outer loop
      vertex -15 15 0
      vertex -15 5 0
      vertex 15 15 0
    endloop
  endfacet
  facet normal 0 0 1
    outer loop
      vertex -15 5 0
      vertex -14 5 0
      vertex 15 15 0
    endloop
  endfacet
  facet normal 0 0 1
    outer loop
      vertex 15 15 0
      vertex -14 -5 0
      vertex 15 -15 0
    endloop
  endfacet
  facet normal 0 0 1
    outer loop
      vertex -14 5 0
      vertex -14 -5 0
      vertex 15 15 0
    endloop
  endfacet
  facet normal -1 0 0
    outer loop
      vertex -15 -15 -3
      vertex -15 -15 0
      vertex -15 -5 -3
    endloop
  endfacet
  facet normal -1 0 0
    outer loop
      vertex -15 -5 -3
      vertex -15 -15 0
      vertex -15 -5 0
    endloop
  endfacet
  facet normal 0 -1 0
    outer loop
      vertex -15 -15 0
      vertex -15 -15 -3
      vertex 15 -15 -3
    endloop
  endfacet
  facet normal 0 -1 0
    outer loop
      vertex 15 -15 0
      vertex -15 -15 0
      vertex 15 -15 -3
    endloop
  endfacet
  facet normal 1 0 0
    outer loop
      vertex 15 -15 0
      vertex 15 -15 -3
      vertex 15 15 -3
    endloop
  endfacet
  facet normal 1 0 0
    outer loop
      vertex 15 15 0
      vertex 15 -15 0
      vertex 15 15 -3
    endloop
  endfacet
  facet normal 0 1 0
    outer loop
      vertex -15 15 -3
      vertex -15 15 0
      vertex 15 15 -3
    endloop
  endfacet
  facet normal 0 1 0
    outer loop
      vertex 15 15 -3
      vertex -15 15 0
      vertex 15 15 0
    endloop
  endfacet
  facet normal -1 0 0
    outer loop
      vertex -15 5 -3
      vertex -15 5 0
      vertex -15 15 -3
    endloop
  endfacet
  facet normal -1 0 0
    outer loop
      vertex -15 15 -3
      vertex -15 5 0
      vertex -15 15 0
    endloop
  endfacet
  facet normal 0 1 0
    outer loop
      vertex -19 2.5 29
      vertex -19 2.5 67
      vertex -14 2.5 29
    endloop
  endfacet
  facet normal 0 1 0
    outer loop
      vertex -14 2.5 29
      vertex -19 2.5 67
      vertex -14 2.5 67
    endloop
  endfacet
  facet normal -1 0 0
    outer loop
      vertex -19 -2.5 29
      vertex -19 -2.5 67
      vertex -19 2.5 29
    endloop
  endfacet
  facet normal -1 0 0
    outer loop
      vertex -19 2.5 29
      vertex -19 -2.5 67
      vertex -19 2.5 67
    endloop
  endfacet
  facet normal 0 -1 0
    outer loop
      vertex -19 -2.5 67
      vertex -19 -2.5 29
      vertex -14 -2.5 29
    endloop
  endfacet
  facet normal 0 -1 0
    outer loop
      vertex -14 -2.5 67
      vertex -19 -2.5 67
      vertex -14 -2.5 29
    endloop
  endfacet
  facet normal 0 0 1
    outer loop
      vertex -16.4488 -1.76541 67
      vertex -19 -2.5 67
      vertex -14 -2.5 67
    endloop
  endfacet
  facet normal 0 0 1
    outer loop
      vertex -16.4488 -1.76541 67
      vertex -16.8 -1.8 67
      vertex -19 -2.5 67
    endloop
  endfacet
  facet normal 0 0 1
    outer loop
      vertex -19 2.5 67
      vertex -19 -2.5 67
      vertex -18.5654 -0.351163 67
    endloop
  endfacet
  facet normal 0 0 1
    outer loop
      vertex -19 2.5 67
      vertex -18.5654 -0.351163 67
      vertex -18.6 0 67
    endloop
  endfacet
  facet normal 0 0 1
    outer loop
      vertex -19 2.5 67
      vertex -18.6 0 67
      vertex -18.5654 0.351163 67
    endloop
  endfacet
  facet normal 0 0 1
    outer loop
      vertex -15.8 -1.49665 67
      vertex -16.1112 -1.66298 67
      vertex -14 -2.5 67
    endloop
  endfacet
  facet normal 0 0 1
    outer loop
      vertex -19 2.5 67
      vertex -18.5654 0.351163 67
      vertex -18.463 0.68883 67
    endloop
  endfacet
  facet normal 0 0 1
    outer loop
      vertex -19 2.5 67
      vertex -18.463 0.68883 67
      vertex -18.2966 1.00003 67
    endloop
  endfacet
  facet normal 0 0 1
    outer loop
      vertex -17.1512 1.76541 67
      vertex -16.8 1.8 67
      vertex -14 2.5 67
    endloop
  endfacet
  facet normal 0 0 1
    outer loop
      vertex -19 2.5 67
      vertex -18.2966 1.00003 67
      vertex -18.0728 1.27279 67
    endloop
  endfacet
  facet normal 0 0 1
    outer loop
      vertex -17.4888 1.66298 67
      vertex -19 2.5 67
      vertex -17.8 1.49665 67
    endloop
  endfacet
  facet normal 0 0 1
    outer loop
      vertex -17.1512 1.76541 67
      vertex -19 2.5 67
      vertex -17.4888 1.66298 67
    endloop
  endfacet
  facet normal 0 0 1
    outer loop
      vertex -16.8 1.8 67
      vertex -16.4488 1.76541 67
      vertex -14 2.5 67
    endloop
  endfacet
  facet normal 0 0 1
    outer loop
      vertex -14 2.5 67
      vertex -19 2.5 67
      vertex -17.1512 1.76541 67
    endloop
  endfacet
  facet normal 0 0 1
    outer loop
      vertex -15.0346 0.351163 67
      vertex -15 0 67
      vertex -14 -2.5 67
    endloop
  endfacet
  facet normal 0 0 1
    outer loop
      vertex -14 2.5 67
      vertex -16.4488 1.76541 67
      vertex -16.1112 1.66298 67
    endloop
  endfacet
  facet normal 0 0 1
    outer loop
      vertex -14 2.5 67
      vertex -16.1112 1.66298 67
      vertex -15.8 1.49665 67
    endloop
  endfacet
  facet normal 0 0 1
    outer loop
      vertex -15.0346 -0.351163 67
      vertex -15.137 -0.68883 67
      vertex -14 -2.5 67
    endloop
  endfacet
  facet normal 0 0 1
    outer loop
      vertex -14 2.5 67
      vertex -15.8 1.49665 67
      vertex -15.5272 1.27279 67
    endloop
  endfacet
  facet normal 0 0 1
    outer loop
      vertex -14 2.5 67
      vertex -15.5272 1.27279 67
      vertex -15.3034 1.00003 67
    endloop
  endfacet
  facet normal 0 0 1
    outer loop
      vertex -14 2.5 67
      vertex -15.137 0.68883 67
      vertex -14 -2.5 67
    endloop
  endfacet
  facet normal 0 0 1
    outer loop
      vertex -14 2.5 67
      vertex -15.3034 1.00003 67
      vertex -15.137 0.68883 67
    endloop
  endfacet
  facet normal 0 0 1
    outer loop
      vertex -15.137 0.68883 67
      vertex -15.0346 0.351163 67
      vertex -14 -2.5 67
    endloop
  endfacet
  facet normal 0 0 1
    outer loop
      vertex -15.137 -0.68883 67
      vertex -15.3034 -1.00003 67
      vertex -14 -2.5 67
    endloop
  endfacet
  facet normal 0 0 1
    outer loop
      vertex -16.1112 -1.66298 67
      vertex -16.4488 -1.76541 67
      vertex -14 -2.5 67
    endloop
  endfacet
  facet normal 0 0 1
    outer loop
      vertex -17.1512 -1.76541 67
      vertex -19 -2.5 67
      vertex -16.8 -1.8 67
    endloop
  endfacet
  facet normal 0 0 1
    outer loop
      vertex -17.4888 -1.66298 67
      vertex -19 -2.5 67
      vertex -17.1512 -1.76541 67
    endloop
  endfacet
  facet normal 0 0 1
    outer loop
      vertex -17.8 -1.49665 67
      vertex -19 -2.5 67
      vertex -17.4888 -1.66298 67
    endloop
  endfacet
  facet normal 0 0 1
    outer loop
      vertex -18.0728 -1.27279 67
      vertex -19 -2.5 67
      vertex -17.8 -1.49665 67
    endloop
  endfacet
  facet normal 0 0 1
    outer loop
      vertex -18.2966 -1.00003 67
      vertex -19 -2.5 67
      vertex -18.0728 -1.27279 67
    endloop
  endfacet
  facet normal 0 0 1
    outer loop
      vertex -18.463 -0.68883 67
      vertex -19 -2.5 67
      vertex -18.2966 -1.00003 67
    endloop
  endfacet
  facet normal 0 0 1
    outer loop
      vertex -18.5654 -0.351163 67
      vertex -19 -2.5 67
      vertex -18.463 -0.68883 67
    endloop
  endfacet
  facet normal 0 0 1
    outer loop
      vertex -15.5272 -1.27279 67
      vertex -15.8 -1.49665 67
      vertex -14 -2.5 67
    endloop
  endfacet
  facet normal 0 0 1
    outer loop
      vertex -18.0728 1.27279 67
      vertex -17.8 1.49665 67
      vertex -19 2.5 67
    endloop
  endfacet
  facet normal 0 0 1
    outer loop
      vertex -15 0 67
      vertex -15.0346 -0.351163 67
      vertex -14 -2.5 67
    endloop
  endfacet
  facet normal 0 0 1
    outer loop
      vertex -15.3034 -1.00003 67
      vertex -15.5272 -1.27279 67
      vertex -14 -2.5 67
    endloop
  endfacet
  facet normal 0.995185 0.0980156 0
    outer loop
      vertex -18.6 0 67
      vertex -18.5654 -0.351163 67
      vertex -18.5654 -0.351163 59
    endloop
  endfacet
  facet normal 0.995185 0.0980156 0
    outer loop
      vertex -18.6 0 59
      vertex -18.6 0 67
      vertex -18.5654 -0.351163 59
    endloop
  endfacet
  facet normal 0.95694 0.290287 0
    outer loop
      vertex -18.5654 -0.351163 67
      vertex -18.463 -0.68883 67
      vertex -18.463 -0.68883 59
    endloop
  endfacet
  facet normal 0.95694 0.290287 0
    outer loop
      vertex -18.5654 -0.351163 59
      vertex -18.5654 -0.351163 67
      vertex -18.463 -0.68883 59
    endloop
  endfacet
  facet normal 0.881921 0.471397 0
    outer loop
      vertex -18.463 -0.68883 67
      vertex -18.2966 -1.00003 67
      vertex -18.2966 -1.00003 59
    endloop
  endfacet
  facet normal 0.881921 0.471397 0
    outer loop
      vertex -18.463 -0.68883 59
      vertex -18.463 -0.68883 67
      vertex -18.2966 -1.00003 59
    endloop
  endfacet
  facet normal 0.773011 0.634393 0
    outer loop
      vertex -18.2966 -1.00003 67
      vertex -18.0728 -1.27279 67
      vertex -18.0728 -1.27279 59
    endloop
  endfacet
  facet normal 0.773011 0.634393 0
    outer loop
      vertex -18.2966 -1.00003 59
      vertex -18.2966 -1.00003 67
      vertex -18.0728 -1.27279 59
    endloop
  endfacet
  facet normal 0.634393 0.773011 0
    outer loop
      vertex -17.8 -1.49665 67
      vertex -17.8 -1.49665 59
      vertex -18.0728 -1.27279 67
    endloop
  endfacet
  facet normal 0.634393 0.773011 0
    outer loop
      vertex -18.0728 -1.27279 67
      vertex -17.8 -1.49665 59
      vertex -18.0728 -1.27279 59
    endloop
  endfacet
  facet normal 0.471397 0.881921 0
    outer loop
      vertex -17.4888 -1.66298 67
      vertex -17.4888 -1.66298 59
      vertex -17.8 -1.49665 67
    endloop
  endfacet
  facet normal 0.471397 0.881921 0
    outer loop
      vertex -17.8 -1.49665 67
      vertex -17.4888 -1.66298 59
      vertex -17.8 -1.49665 59
    endloop
  endfacet
  facet normal 0.290287 0.95694 0
    outer loop
      vertex -17.1512 -1.76541 67
      vertex -17.1512 -1.76541 59
      vertex -17.4888 -1.66298 67
    endloop
  endfacet
  facet normal 0.290287 0.95694 0
    outer loop
      vertex -17.4888 -1.66298 67
      vertex -17.1512 -1.76541 59
      vertex -17.4888 -1.66298 59
    endloop
  endfacet
  facet normal 0.0980156 0.995185 0
    outer loop
      vertex -16.8 -1.8 67
      vertex -16.8 -1.8 59
      vertex -17.1512 -1.76541 67
    endloop
  endfacet
  facet normal 0.0980156 0.995185 0
    outer loop
      vertex -17.1512 -1.76541 67
      vertex -16.8 -1.8 59
      vertex -17.1512 -1.76541 59
    endloop
  endfacet
  facet normal -0.0980156 0.995185 0
    outer loop
      vertex -16.4488 -1.76541 67
      vertex -16.4488 -1.76541 59
      vertex -16.8 -1.8 67
    endloop
  endfacet
  facet normal -0.0980156 0.995185 0
    outer loop
      vertex -16.8 -1.8 67
      vertex -16.4488 -1.76541 59
      vertex -16.8 -1.8 59
    endloop
  endfacet
  facet normal -0.290287 0.95694 0
    outer loop
      vertex -16.1112 -1.66298 67
      vertex -16.1112 -1.66298 59
      vertex -16.4488 -1.76541 67
    endloop
  endfacet
  facet normal -0.290287 0.95694 0
    outer loop
      vertex -16.4488 -1.76541 67
      vertex -16.1112 -1.66298 59
      vertex -16.4488 -1.76541 59
    endloop
  endfacet
  facet normal -0.471397 0.881921 0
    outer loop
      vertex -15.8 -1.49665 67
      vertex -15.8 -1.49665 59
      vertex -16.1112 -1.66298 67
    endloop
  endfacet
  facet normal -0.471397 0.881921 0
    outer loop
      vertex -16.1112 -1.66298 67
      vertex -15.8 -1.49665 59
      vertex -16.1112 -1.66298 59
    endloop
  endfacet
  facet normal -0.634393 0.773011 0
    outer loop
      vertex -15.5272 -1.27279 67
      vertex -15.5272 -1.27279 59
      vertex -15.8 -1.49665 67
    endloop
  endfacet
  facet normal -0.634393 0.773011 0
    outer loop
      vertex -15.8 -1.49665 67
      vertex -15.5272 -1.27279 59
      vertex -15.8 -1.49665 59
    endloop
  endfacet
  facet normal -0.773011 0.634393 0
    outer loop
      vertex -15.3034 -1.00003 67
      vertex -15.3034 -1.00003 59
      vertex -15.5272 -1.27279 67
    endloop
  endfacet
  facet normal -0.773011 0.634393 0
    outer loop
      vertex -15.5272 -1.27279 67
      vertex -15.3034 -1.00003 59
      vertex -15.5272 -1.27279 59
    endloop
  endfacet
  facet normal -0.881921 0.471397 0
    outer loop
      vertex -15.137 -0.68883 67
      vertex -15.137 -0.68883 59
      vertex -15.3034 -1.00003 67
    endloop
  endfacet
  facet normal -0.881921 0.471397 0
    outer loop
      vertex -15.3034 -1.00003 67
      vertex -15.137 -0.68883 59
      vertex -15.3034 -1.00003 59
    endloop
  endfacet
  facet normal -0.95694 0.290287 0
    outer loop
      vertex -15.0346 -0.351163 67
      vertex -15.0346 -0.351163 59
      vertex -15.137 -0.68883 67
    endloop
  endfacet
  facet normal -0.95694 0.290287 0
    outer loop
      vertex -15.137 -0.68883 67
      vertex -15.0346 -0.351163 59
      vertex -15.137 -0.68883 59
    endloop
  endfacet
  facet normal -0.995185 0.0980156 0
    outer loop
      vertex -15 0 67
      vertex -15 0 59
      vertex -15.0346 -0.351163 67
    endloop
  endfacet
  facet normal -0.995185 0.0980156 0
    outer loop
      vertex -15.0346 -0.351163 67
      vertex -15 0 59
      vertex -15.0346 -0.351163 59
    endloop
  endfacet
  facet normal -0.995185 -0.0980156 0
    outer loop
      vertex -15 0 67
      vertex -15.0346 0.351163 67
      vertex -15 0 59
    endloop
  endfacet
  facet normal -0.995185 -0.0980156 0
    outer loop
      vertex -15 0 59
      vertex -15.0346 0.351163 67
      vertex -15.0346 0.351163 59
    endloop
  endfacet
  facet normal -0.95694 -0.290287 0
    outer loop
      vertex -15.0346 0.351163 67
      vertex -15.137 0.68883 67
      vertex -15.0346 0.351163 59
    endloop
  endfacet
  facet normal -0.95694 -0.290287 0
    outer loop
      vertex -15.0346 0.351163 59
      vertex -15.137 0.68883 67
      vertex -15.137 0.68883 59
    endloop
  endfacet
  facet normal -0.881921 -0.471397 0
    outer loop
      vertex -15.137 0.68883 67
      vertex -15.3034 1.00003 67
      vertex -15.137 0.68883 59
    endloop
  endfacet
  facet normal -0.881921 -0.471397 0
    outer loop
      vertex -15.137 0.68883 59
      vertex -15.3034 1.00003 67
      vertex -15.3034 1.00003 59
    endloop
  endfacet
  facet normal -0.773011 -0.634393 0
    outer loop
      vertex -15.3034 1.00003 67
      vertex -15.5272 1.27279 67
      vertex -15.3034 1.00003 59
    endloop
  endfacet
  facet normal -0.773011 -0.634393 0
    outer loop
      vertex -15.3034 1.00003 59
      vertex -15.5272 1.27279 67
      vertex -15.5272 1.27279 59
    endloop
  endfacet
  facet normal -0.634393 -0.773011 0
    outer loop
      vertex -15.5272 1.27279 59
      vertex -15.5272 1.27279 67
      vertex -15.8 1.49665 67
    endloop
  endfacet
  facet normal -0.634393 -0.773011 0
    outer loop
      vertex -15.8 1.49665 59
      vertex -15.5272 1.27279 59
      vertex -15.8 1.49665 67
    endloop
  endfacet
  facet normal -0.471397 -0.881921 0
    outer loop
      vertex -15.8 1.49665 59
      vertex -15.8 1.49665 67
      vertex -16.1112 1.66298 67
    endloop
  endfacet
  facet normal -0.471397 -0.881921 0
    outer loop
      vertex -16.1112 1.66298 59
      vertex -15.8 1.49665 59
      vertex -16.1112 1.66298 67
    endloop
  endfacet
  facet normal -0.290287 -0.95694 0
    outer loop
      vertex -16.1112 1.66298 59
      vertex -16.1112 1.66298 67
      vertex -16.4488 1.76541 67
    endloop
  endfacet
  facet normal -0.290287 -0.95694 0
    outer loop
      vertex -16.4488 1.76541 59
      vertex -16.1112 1.66298 59
      vertex -16.4488 1.76541 67
    endloop
  endfacet
  facet normal -0.0980156 -0.995185 0
    outer loop
      vertex -16.4488 1.76541 59
      vertex -16.4488 1.76541 67
      vertex -16.8 1.8 67
    endloop
  endfacet
  facet normal -0.0980156 -0.995185 0
    outer loop
      vertex -16.8 1.8 59
      vertex -16.4488 1.76541 59
      vertex -16.8 1.8 67
    endloop
  endfacet
  facet normal 0.0980156 -0.995185 0
    outer loop
      vertex -16.8 1.8 59
      vertex -16.8 1.8 67
      vertex -17.1512 1.76541 67
    endloop
  endfacet
  facet normal 0.0980156 -0.995185 0
    outer loop
      vertex -17.1512 1.76541 59
      vertex -16.8 1.8 59
      vertex -17.1512 1.76541 67
    endloop
  endfacet
  facet normal 0.290287 -0.95694 0
    outer loop
      vertex -17.1512 1.76541 59
      vertex -17.1512 1.76541 67
      vertex -17.4888 1.66298 67
    endloop
  endfacet
  facet normal 0.290287 -0.95694 0
    outer loop
      vertex -17.4888 1.66298 59
      vertex -17.1512 1.76541 59
      vertex -17.4888 1.66298 67
    endloop
  endfacet
  facet normal 0.471397 -0.881921 0
    outer loop
      vertex -17.4888 1.66298 59
      vertex -17.4888 1.66298 67
      vertex -17.8 1.49665 67
    endloop
  endfacet
  facet normal 0.471397 -0.881921 0
    outer loop
      vertex -17.8 1.49665 59
      vertex -17.4888 1.66298 59
      vertex -17.8 1.49665 67
    endloop
  endfacet
  facet normal 0.634393 -0.773011 0
    outer loop
      vertex -17.8 1.49665 59
      vertex -17.8 1.49665 67
      vertex -18.0728 1.27279 67
    endloop
  endfacet
  facet normal 0.634393 -0.773011 0
    outer loop
      vertex -18.0728 1.27279 59
      vertex -17.8 1.49665 59
      vertex -18.0728 1.27279 67
    endloop
  endfacet
  facet normal 0.773011 -0.634393 0
    outer loop
      vertex -18.0728 1.27279 59
      vertex -18.0728 1.27279 67
      vertex -18.2966 1.00003 67
    endloop
  endfacet
  facet normal 0.773011 -0.634393 0
    outer loop
      vertex -18.2966 1.00003 59
      vertex -18.0728 1.27279 59
      vertex -18.2966 1.00003 67
    endloop
  endfacet
  facet normal 0.881921 -0.471397 0
    outer loop
      vertex -18.2966 1.00003 59
      vertex -18.2966 1.00003 67
      vertex -18.463 0.68883 67
    endloop
  endfacet
  facet normal 0.881921 -0.471397 0
    outer loop
      vertex -18.463 0.68883 59
      vertex -18.2966 1.00003 59
      vertex -18.463 0.68883 67
    endloop
  endfacet
  facet normal 0.95694 -0.290287 0
    outer loop
      vertex -18.463 0.68883 59
      vertex -18.463 0.68883 67
      vertex -18.5654 0.351163 67
    endloop
  endfacet
  facet normal 0.95694 -0.290287 0
    outer loop
      vertex -18.5654 0.351163 59
      vertex -18.463 0.68883 59
      vertex -18.5654 0.351163 67
    endloop
  endfacet
  facet normal 0.995185 -0.0980156 0
    outer loop
      vertex -18.5654 0.351163 59
      vertex -18.5654 0.351163 67
      vertex -18.6 0 67
    endloop
  endfacet
  facet normal 0.995185 -0.0980156 0
    outer loop
      vertex -18.6 0 59
      vertex -18.5654 0.351163 59
      vertex -18.6 0 67
    endloop
  endfacet
  facet normal 0 0 1
    outer loop
      vertex -18.5654 -0.351163 59
      vertex -18.463 -0.68883 59
      vertex -18.2966 -1.00003 59
    endloop
  endfacet
  facet normal 0 0 1
    outer loop
      vertex -17.8 -1.49665 59
      vertex -18.5654 -0.351163 59
      vertex -18.0728 -1.27279 59
    endloop
  endfacet
  facet normal 0 0 1
    outer loop
      vertex -18.0728 -1.27279 59
      vertex -18.5654 -0.351163 59
      vertex -18.2966 -1.00003 59
    endloop
  endfacet
  facet normal 0 0 1
    outer loop
      vertex -17.4888 -1.66298 59
      vertex -18.5654 -0.351163 59
      vertex -17.8 -1.49665 59
    endloop
  endfacet
  facet normal 0 0 1
    outer loop
      vertex -17.1512 -1.76541 59
      vertex -18.5654 -0.351163 59
      vertex -17.4888 -1.66298 59
    endloop
  endfacet
  facet normal 0 0 1
    outer loop
      vertex -16.8 -1.8 59
      vertex -18.5654 -0.351163 59
      vertex -17.1512 -1.76541 59
    endloop
  endfacet
  facet normal 0 0 1
    outer loop
      vertex -16.4488 -1.76541 59
      vertex -18.5654 -0.351163 59
      vertex -16.8 -1.8 59
    endloop
  endfacet
  facet normal 0 0 1
    outer loop
      vertex -16.1112 -1.66298 59
      vertex -18.5654 -0.351163 59
      vertex -16.4488 -1.76541 59
    endloop
  endfacet
  facet normal 0 0 1
    outer loop
      vertex -15.8 -1.49665 59
      vertex -18.5654 -0.351163 59
      vertex -16.1112 -1.66298 59
    endloop
  endfacet
  facet normal 0 0 1
    outer loop
      vertex -15.5272 -1.27279 59
      vertex -18.5654 -0.351163 59
      vertex -15.8 -1.49665 59
    endloop
  endfacet
  facet normal 0 0 1
    outer loop
      vertex -15.3034 -1.00003 59
      vertex -18.5654 -0.351163 59
      vertex -15.5272 -1.27279 59
    endloop
  endfacet
  facet normal 0 0 1
    outer loop
      vertex -15.137 -0.68883 59
      vertex -18.5654 -0.351163 59
      vertex -15.3034 -1.00003 59
    endloop
  endfacet
  facet normal 0 0 1
    outer loop
      vertex -15.0346 -0.351163 59
      vertex -18.5654 -0.351163 59
      vertex -15.137 -0.68883 59
    endloop
  endfacet
  facet normal 0 0 1
    outer loop
      vertex -15 0 59
      vertex -18.5654 -0.351163 59
      vertex -15.0346 -0.351163 59
    endloop
  endfacet
  facet normal 0 0 1
    outer loop
      vertex -15.0346 0.351163 59
      vertex -18.5654 -0.351163 59
      vertex -15 0 59
    endloop
  endfacet
  facet normal 0 0 1
    outer loop
      vertex -15.137 0.68883 59
      vertex -18.5654 -0.351163 59
      vertex -15.0346 0.351163 59
    endloop
  endfacet
  facet normal 0 0 1
    outer loop
      vertex -15.3034 1.00003 59
      vertex -18.5654 -0.351163 59
      vertex -15.137 0.68883 59
    endloop
  endfacet
  facet normal 0 0 1
    outer loop
      vertex -15.5272 1.27279 59
      vertex -18.5654 -0.351163 59
      vertex -15.3034 1.00003 59
    endloop
  endfacet
  facet normal 0 0 1
    outer loop
      vertex -15.8 1.49665 59
      vertex -18.5654 -0.351163 59
      vertex -15.5272 1.27279 59
    endloop
  endfacet
  facet normal 0 0 1
    outer loop
      vertex -16.1112 1.66298 59
      vertex -18.5654 -0.351163 59
      vertex -15.8 1.49665 59
    endloop
  endfacet
  facet normal 0 0 1
    outer loop
      vertex -16.4488 1.76541 59
      vertex -18.5654 -0.351163 59
      vertex -16.1112 1.66298 59
    endloop
  endfacet
  facet normal 0 0 1
    outer loop
      vertex -16.8 1.8 59
      vertex -18.5654 -0.351163 59
      vertex -16.4488 1.76541 59
    endloop
  endfacet
  facet normal 0 0 1
    outer loop
      vertex -17.1512 1.76541 59
      vertex -18.5654 -0.351163 59
      vertex -16.8 1.8 59
    endloop
  endfacet
  facet normal 0 0 1
    outer loop
      vertex -17.4888 1.66298 59
      vertex -18.5654 -0.351163 59
      vertex -17.1512 1.76541 59
    endloop
  endfacet
  facet normal 0 0 1
    outer loop
      vertex -17.8 1.49665 59
      vertex -18.5654 -0.351163 59
      vertex -17.4888 1.66298 59
    endloop
  endfacet
  facet normal 0 0 1
    outer loop
      vertex -18.0728 1.27279 59
      vertex -18.5654 -0.351163 59
      vertex -17.8 1.49665 59
    endloop
  endfacet
  facet normal 0 0 1
    outer loop
      vertex -18.2966 1.00003 59
      vertex -18.5654 -0.351163 59
      vertex -18.0728 1.27279 59
    endloop
  endfacet
  facet normal 0 0 1
    outer loop
      vertex -18.463 0.68883 59
      vertex -18.5654 -0.351163 59
      vertex -18.2966 1.00003 59
    endloop
  endfacet
  facet normal 0 0 1
    outer loop
      vertex -18.5654 0.351163 59
      vertex -18.5654 -0.351163 59
      vertex -18.463 0.68883 59
    endloop
  endfacet
  facet normal 0 0 1
    outer loop
      vertex -18.6 0 59
      vertex -18.5654 -0.351163 59
      vertex -18.5654 0.351163 59
    endloop
  endfacet
endsolid OpenSCAD_Model
