solid OpenSCAD_Model
  facet normal 0.994522 0.104529 0
    outer loop
      vertex 9.2924 1.97516 100
      vertex 9.40004 0.951056 56.2565
      vertex 9.2924 1.97516 0
    endloop
  endfacet
  facet normal 0.994522 0.104529 -0
    outer loop
      vertex 9.5 0 58
      vertex 9.2924 1.97516 100
      vertex 9.5 0 100
    endloop
  endfacet
  facet normal 0.994522 0.104529 8.62376e-009
    outer loop
      vertex 9.2924 1.97516 100
      vertex 9.5 0 58
      vertex 9.40004 0.951056 56.2565
    endloop
  endfacet
  facet normal 0.994522 0.104529 0
    outer loop
      vertex 9.2924 1.97516 0
      vertex 9.40004 0.951056 56.2565
      vertex 9.40004 0.951056 0
    endloop
  endfacet
  facet normal -0.994522 0.104529 0
    outer loop
      vertex -9.40004 0.951056 56.2565
      vertex -9.2924 1.97516 0
      vertex -9.40004 0.951056 0
    endloop
  endfacet
  facet normal -0.994522 0.104529 0
    outer loop
      vertex -9.2924 1.97516 0
      vertex -9.40004 0.951056 56.2565
      vertex -9.2924 1.97516 100
    endloop
  endfacet
  facet normal -0.994522 0.104529 8.62376e-009
    outer loop
      vertex -9.5 0 58
      vertex -9.2924 1.97516 100
      vertex -9.40004 0.951056 56.2565
    endloop
  endfacet
  facet normal -0.994522 0.104529 0
    outer loop
      vertex -9.2924 1.97516 100
      vertex -9.5 0 58
      vertex -9.5 0 100
    endloop
  endfacet
  facet normal 0 1 0
    outer loop
      vertex 0.99302 9.44796 100
      vertex 0 9.44796 58.0901
      vertex -0.99302 9.44796 100
    endloop
  endfacet
  facet normal 0 1 0
    outer loop
      vertex 0.99302 9.44796 100
      vertex 0.0716296 9.44796 58
      vertex 0 9.44796 58.0901
    endloop
  endfacet
  facet normal 0 1 0
    outer loop
      vertex 0.99302 9.44796 100
      vertex 0.951056 9.44796 56.1151
      vertex 0.0716296 9.44796 58
    endloop
  endfacet
  facet normal 0 1 -0
    outer loop
      vertex 0.99302 9.44796 0
      vertex 0.951056 9.44796 56.1151
      vertex 0.99302 9.44796 100
    endloop
  endfacet
  facet normal 0 1 0
    outer loop
      vertex 0.951056 9.44796 56.1151
      vertex 0.99302 9.44796 0
      vertex 0.951056 9.44796 0
    endloop
  endfacet
  facet normal 0 1 -0
    outer loop
      vertex -0.0716296 9.44796 58
      vertex -0.99302 9.44796 100
      vertex 0 9.44796 58.0901
    endloop
  endfacet
  facet normal 0 1 -0
    outer loop
      vertex -0.951056 9.44796 56.1151
      vertex -0.99302 9.44796 100
      vertex -0.0716296 9.44796 58
    endloop
  endfacet
  facet normal 0 1 0
    outer loop
      vertex -0.99302 9.44796 0
      vertex -0.951056 9.44796 56.1151
      vertex -0.951056 9.44796 0
    endloop
  endfacet
  facet normal 0 1 0
    outer loop
      vertex -0.951056 9.44796 56.1151
      vertex -0.99302 9.44796 0
      vertex -0.99302 9.44796 100
    endloop
  endfacet
  facet normal 0 -1 0
    outer loop
      vertex -0.99302 -9.44796 100
      vertex 0 -9.44796 58.0901
      vertex 0.99302 -9.44796 100
    endloop
  endfacet
  facet normal 0 -1 0
    outer loop
      vertex -0.99302 -9.44796 100
      vertex -0.0716296 -9.44796 58
      vertex 0 -9.44796 58.0901
    endloop
  endfacet
  facet normal 0 -1 0
    outer loop
      vertex -0.99302 -9.44796 100
      vertex -0.951056 -9.44796 56.1151
      vertex -0.0716296 -9.44796 58
    endloop
  endfacet
  facet normal 0 -1 0
    outer loop
      vertex -0.99302 -9.44796 0
      vertex -0.951056 -9.44796 56.1151
      vertex -0.99302 -9.44796 100
    endloop
  endfacet
  facet normal 0 -1 -0
    outer loop
      vertex -0.951056 -9.44796 56.1151
      vertex -0.99302 -9.44796 0
      vertex -0.951056 -9.44796 0
    endloop
  endfacet
  facet normal 0 -1 0
    outer loop
      vertex 0.0716296 -9.44796 58
      vertex 0.99302 -9.44796 100
      vertex 0 -9.44796 58.0901
    endloop
  endfacet
  facet normal 0 -1 0
    outer loop
      vertex 0.951056 -9.44796 56.1151
      vertex 0.99302 -9.44796 100
      vertex 0.0716296 -9.44796 58
    endloop
  endfacet
  facet normal 0 -1 0
    outer loop
      vertex 0.99302 -9.44796 0
      vertex 0.951056 -9.44796 56.1151
      vertex 0.951056 -9.44796 0
    endloop
  endfacet
  facet normal 0 -1 0
    outer loop
      vertex 0.951056 -9.44796 56.1151
      vertex 0.99302 -9.44796 0
      vertex 0.99302 -9.44796 100
    endloop
  endfacet
  facet normal 0.743145 0.669131 0
    outer loop
      vertex 7.68566 5.58396 100
      vertex 6.35674 7.05988 0
      vertex 6.35674 7.05988 100
    endloop
  endfacet
  facet normal 0.743145 0.669131 0
    outer loop
      vertex 6.35674 7.05988 0
      vertex 7.68566 5.58396 100
      vertex 7.68566 5.58396 0
    endloop
  endfacet
  facet normal -0.743145 0.669131 0
    outer loop
      vertex -7.68566 5.58396 0
      vertex -6.35674 7.05988 100
      vertex -6.35674 7.05988 0
    endloop
  endfacet
  facet normal -0.743145 0.669131 0
    outer loop
      vertex -6.35674 7.05988 100
      vertex -7.68566 5.58396 0
      vertex -7.68566 5.58396 100
    endloop
  endfacet
  facet normal -0.866026 0.5 0
    outer loop
      vertex -8.67868 3.864 0
      vertex -7.68566 5.58396 100
      vertex -7.68566 5.58396 0
    endloop
  endfacet
  facet normal -0.866026 0.5 0
    outer loop
      vertex -7.68566 5.58396 100
      vertex -8.67868 3.864 0
      vertex -8.67868 3.864 100
    endloop
  endfacet
  facet normal -0.406737 0.913545 0
    outer loop
      vertex -2.93566 9.03504 0
      vertex -4.75 8.22724 100
      vertex -2.93566 9.03504 100
    endloop
  endfacet
  facet normal -0.406737 0.913545 0
    outer loop
      vertex -4.75 8.22724 100
      vertex -2.93566 9.03504 0
      vertex -4.75 8.22724 0
    endloop
  endfacet
  facet normal 0.866026 0.5 0
    outer loop
      vertex 8.67868 3.864 100
      vertex 7.68566 5.58396 0
      vertex 7.68566 5.58396 100
    endloop
  endfacet
  facet normal 0.866026 0.5 0
    outer loop
      vertex 7.68566 5.58396 0
      vertex 8.67868 3.864 100
      vertex 8.67868 3.864 0
    endloop
  endfacet
  facet normal 0.951057 0.309017 0
    outer loop
      vertex 9.2924 1.97516 100
      vertex 8.67868 3.864 0
      vertex 8.67868 3.864 100
    endloop
  endfacet
  facet normal 0.951057 0.309017 0
    outer loop
      vertex 8.67868 3.864 0
      vertex 9.2924 1.97516 100
      vertex 9.2924 1.97516 0
    endloop
  endfacet
  facet normal 0.406737 0.913545 -0
    outer loop
      vertex 4.75 8.22724 0
      vertex 2.93566 9.03504 100
      vertex 4.75 8.22724 100
    endloop
  endfacet
  facet normal 0.406737 0.913545 0
    outer loop
      vertex 2.93566 9.03504 100
      vertex 4.75 8.22724 0
      vertex 2.93566 9.03504 0
    endloop
  endfacet
  facet normal 0.207912 0.978148 -0
    outer loop
      vertex 2.93566 9.03504 0
      vertex 0.99302 9.44796 100
      vertex 2.93566 9.03504 100
    endloop
  endfacet
  facet normal 0.207912 0.978148 0
    outer loop
      vertex 0.99302 9.44796 100
      vertex 2.93566 9.03504 0
      vertex 0.99302 9.44796 0
    endloop
  endfacet
  facet normal 0.587785 0.809017 -0
    outer loop
      vertex 6.35674 7.05988 0
      vertex 4.75 8.22724 100
      vertex 6.35674 7.05988 100
    endloop
  endfacet
  facet normal 0.587785 0.809017 0
    outer loop
      vertex 4.75 8.22724 100
      vertex 6.35674 7.05988 0
      vertex 4.75 8.22724 0
    endloop
  endfacet
  facet normal -0.951057 0.309017 0
    outer loop
      vertex -9.2924 1.97516 0
      vertex -8.67868 3.864 100
      vertex -8.67868 3.864 0
    endloop
  endfacet
  facet normal -0.951057 0.309017 0
    outer loop
      vertex -8.67868 3.864 100
      vertex -9.2924 1.97516 0
      vertex -9.2924 1.97516 100
    endloop
  endfacet
  facet normal 0 0 1
    outer loop
      vertex 6.75 0 100
      vertex 9.5 0 100
      vertex 9.2924 1.97516 100
    endloop
  endfacet
  facet normal 0 0 1
    outer loop
      vertex 6.47658 1.90169 100
      vertex 9.2924 1.97516 100
      vertex 8.67868 3.864 100
    endloop
  endfacet
  facet normal 0 0 1
    outer loop
      vertex 9.5 0 100
      vertex 6.75 0 100
      vertex 9.2924 -1.97516 100
    endloop
  endfacet
  facet normal 0 0 1
    outer loop
      vertex 5.67846 3.64933 100
      vertex 8.67868 3.864 100
      vertex 7.68566 5.58396 100
    endloop
  endfacet
  facet normal -0 0 1
    outer loop
      vertex 6.47658 -1.90169 100
      vertex 9.2924 -1.97516 100
      vertex 6.75 0 100
    endloop
  endfacet
  facet normal 0 0 1
    outer loop
      vertex 9.2924 -1.97516 100
      vertex 6.47658 -1.90169 100
      vertex 8.67868 -3.864 100
    endloop
  endfacet
  facet normal 0 0 1
    outer loop
      vertex 9.2924 1.97516 100
      vertex 6.47658 1.90169 100
      vertex 6.75 0 100
    endloop
  endfacet
  facet normal 0 0 1
    outer loop
      vertex 4.42031 5.10131 100
      vertex 7.68566 5.58396 100
      vertex 6.35674 7.05988 100
    endloop
  endfacet
  facet normal 0 0 1
    outer loop
      vertex 8.67868 3.864 100
      vertex 5.67846 3.64933 100
      vertex 6.47658 1.90169 100
    endloop
  endfacet
  facet normal 0 0 1
    outer loop
      vertex 4.42031 5.10131 100
      vertex 6.35674 7.05988 100
      vertex 4.75 8.22724 100
    endloop
  endfacet
  facet normal 0 0 1
    outer loop
      vertex 7.68566 5.58396 100
      vertex 4.42031 5.10131 100
      vertex 5.67846 3.64933 100
    endloop
  endfacet
  facet normal 0 0 1
    outer loop
      vertex 2.80405 6.14002 100
      vertex 4.75 8.22724 100
      vertex 2.93566 9.03504 100
    endloop
  endfacet
  facet normal 0 0 1
    outer loop
      vertex 4.75 8.22724 100
      vertex 2.80405 6.14002 100
      vertex 4.42031 5.10131 100
    endloop
  endfacet
  facet normal 0 0 1
    outer loop
      vertex 0.960625 6.68129 100
      vertex 2.93566 9.03504 100
      vertex 0.99302 9.44796 100
    endloop
  endfacet
  facet normal 0 0 1
    outer loop
      vertex 2.93566 9.03504 100
      vertex 0.960625 6.68129 100
      vertex 2.80405 6.14002 100
    endloop
  endfacet
  facet normal 0 0 1
    outer loop
      vertex 0.99302 9.44796 100
      vertex -0.960625 6.68129 100
      vertex 0.960625 6.68129 100
    endloop
  endfacet
  facet normal -0 0 1
    outer loop
      vertex -0.99302 9.44796 100
      vertex -0.960625 6.68129 100
      vertex 0.99302 9.44796 100
    endloop
  endfacet
  facet normal -0 0 1
    outer loop
      vertex -2.93566 9.03504 100
      vertex -0.960625 6.68129 100
      vertex -0.99302 9.44796 100
    endloop
  endfacet
  facet normal 0 0 1
    outer loop
      vertex -0.960625 6.68129 100
      vertex -2.93566 9.03504 100
      vertex -2.80405 6.14002 100
    endloop
  endfacet
  facet normal -0 0 1
    outer loop
      vertex -4.75 8.22724 100
      vertex -2.80405 6.14002 100
      vertex -2.93566 9.03504 100
    endloop
  endfacet
  facet normal 0 0 1
    outer loop
      vertex -2.80405 6.14002 100
      vertex -4.75 8.22724 100
      vertex -4.42031 5.10131 100
    endloop
  endfacet
  facet normal -0 0 1
    outer loop
      vertex -6.35674 7.05988 100
      vertex -4.42031 5.10131 100
      vertex -4.75 8.22724 100
    endloop
  endfacet
  facet normal -0 0 1
    outer loop
      vertex -7.68566 5.58396 100
      vertex -4.42031 5.10131 100
      vertex -6.35674 7.05988 100
    endloop
  endfacet
  facet normal 0 0 1
    outer loop
      vertex -4.42031 5.10131 100
      vertex -7.68566 5.58396 100
      vertex -5.67846 3.64933 100
    endloop
  endfacet
  facet normal -0 0 1
    outer loop
      vertex -8.67868 3.864 100
      vertex -5.67846 3.64933 100
      vertex -7.68566 5.58396 100
    endloop
  endfacet
  facet normal 0 0 1
    outer loop
      vertex -5.67846 3.64933 100
      vertex -8.67868 3.864 100
      vertex -6.47658 1.90169 100
    endloop
  endfacet
  facet normal -0 0 1
    outer loop
      vertex 5.67846 -3.64933 100
      vertex 8.67868 -3.864 100
      vertex 6.47658 -1.90169 100
    endloop
  endfacet
  facet normal 0 0 1
    outer loop
      vertex 8.67868 -3.864 100
      vertex 5.67846 -3.64933 100
      vertex 7.68566 -5.58396 100
    endloop
  endfacet
  facet normal -0 0 1
    outer loop
      vertex 4.42031 -5.10131 100
      vertex 7.68566 -5.58396 100
      vertex 5.67846 -3.64933 100
    endloop
  endfacet
  facet normal 0 0 1
    outer loop
      vertex 7.68566 -5.58396 100
      vertex 4.42031 -5.10131 100
      vertex 6.35674 -7.05988 100
    endloop
  endfacet
  facet normal 0 0 1
    outer loop
      vertex 6.35674 -7.05988 100
      vertex 4.42031 -5.10131 100
      vertex 4.75 -8.22724 100
    endloop
  endfacet
  facet normal -0 0 1
    outer loop
      vertex 2.80405 -6.14002 100
      vertex 4.75 -8.22724 100
      vertex 4.42031 -5.10131 100
    endloop
  endfacet
  facet normal 0 0 1
    outer loop
      vertex 4.75 -8.22724 100
      vertex 2.80405 -6.14002 100
      vertex 2.93566 -9.03504 100
    endloop
  endfacet
  facet normal -0 0 1
    outer loop
      vertex 0.960625 -6.68129 100
      vertex 2.93566 -9.03504 100
      vertex 2.80405 -6.14002 100
    endloop
  endfacet
  facet normal 0 0 1
    outer loop
      vertex 2.93566 -9.03504 100
      vertex 0.960625 -6.68129 100
      vertex 0.99302 -9.44796 100
    endloop
  endfacet
  facet normal -0 0 1
    outer loop
      vertex -0.960625 -6.68129 100
      vertex 0.99302 -9.44796 100
      vertex 0.960625 -6.68129 100
    endloop
  endfacet
  facet normal 0 0 1
    outer loop
      vertex -0.960625 -6.68129 100
      vertex -0.99302 -9.44796 100
      vertex 0.99302 -9.44796 100
    endloop
  endfacet
  facet normal 0 0 1
    outer loop
      vertex -2.93566 -9.03504 100
      vertex -0.960625 -6.68129 100
      vertex -2.80405 -6.14002 100
    endloop
  endfacet
  facet normal 0 0 1
    outer loop
      vertex -0.960625 -6.68129 100
      vertex -2.93566 -9.03504 100
      vertex -0.99302 -9.44796 100
    endloop
  endfacet
  facet normal 0 0 1
    outer loop
      vertex -4.75 -8.22724 100
      vertex -2.80405 -6.14002 100
      vertex -4.42031 -5.10131 100
    endloop
  endfacet
  facet normal 0 0 1
    outer loop
      vertex -2.80405 -6.14002 100
      vertex -4.75 -8.22724 100
      vertex -2.93566 -9.03504 100
    endloop
  endfacet
  facet normal 0 0 1
    outer loop
      vertex -7.68566 -5.58396 100
      vertex -4.42031 -5.10131 100
      vertex -5.67846 -3.64933 100
    endloop
  endfacet
  facet normal 0 0 1
    outer loop
      vertex -4.42031 -5.10131 100
      vertex -6.35674 -7.05988 100
      vertex -4.75 -8.22724 100
    endloop
  endfacet
  facet normal 0 0 1
    outer loop
      vertex -8.67868 -3.864 100
      vertex -5.67846 -3.64933 100
      vertex -6.47658 -1.90169 100
    endloop
  endfacet
  facet normal 0 0 1
    outer loop
      vertex -9.2924 -1.97516 100
      vertex -6.47658 -1.90169 100
      vertex -6.75 0 100
    endloop
  endfacet
  facet normal -0 0 1
    outer loop
      vertex -9.2924 1.97516 100
      vertex -6.47658 1.90169 100
      vertex -8.67868 3.864 100
    endloop
  endfacet
  facet normal 0 0 1
    outer loop
      vertex -4.42031 -5.10131 100
      vertex -7.68566 -5.58396 100
      vertex -6.35674 -7.05988 100
    endloop
  endfacet
  facet normal 0 0 1
    outer loop
      vertex -6.47658 1.90169 100
      vertex -9.2924 1.97516 100
      vertex -6.75 0 100
    endloop
  endfacet
  facet normal 0 0 1
    outer loop
      vertex -5.67846 -3.64933 100
      vertex -8.67868 -3.864 100
      vertex -7.68566 -5.58396 100
    endloop
  endfacet
  facet normal 0 0 1
    outer loop
      vertex -9.5 0 100
      vertex -6.75 0 100
      vertex -9.2924 1.97516 100
    endloop
  endfacet
  facet normal 0 0 1
    outer loop
      vertex -6.47658 -1.90169 100
      vertex -9.2924 -1.97516 100
      vertex -8.67868 -3.864 100
    endloop
  endfacet
  facet normal 0 0 1
    outer loop
      vertex -6.75 0 100
      vertex -9.5 0 100
      vertex -9.2924 -1.97516 100
    endloop
  endfacet
  facet normal -0.587785 0.809017 0
    outer loop
      vertex -4.75 8.22724 0
      vertex -6.35674 7.05988 100
      vertex -4.75 8.22724 100
    endloop
  endfacet
  facet normal -0.587785 0.809017 0
    outer loop
      vertex -6.35674 7.05988 100
      vertex -4.75 8.22724 0
      vertex -6.35674 7.05988 0
    endloop
  endfacet
  facet normal -0.207912 0.978148 0
    outer loop
      vertex -0.99302 9.44796 0
      vertex -2.93566 9.03504 100
      vertex -0.99302 9.44796 100
    endloop
  endfacet
  facet normal -0.207912 0.978148 0
    outer loop
      vertex -2.93566 9.03504 100
      vertex -0.99302 9.44796 0
      vertex -2.93566 9.03504 0
    endloop
  endfacet
  facet normal 0.994522 -0.104529 0
    outer loop
      vertex 9.2924 -1.97516 100
      vertex 9.5 0 58
      vertex 9.5 0 100
    endloop
  endfacet
  facet normal 0.994522 -0.104529 8.62376e-009
    outer loop
      vertex 9.5 0 58
      vertex 9.2924 -1.97516 100
      vertex 9.40004 -0.951056 56.2565
    endloop
  endfacet
  facet normal 0.994522 -0.104529 0
    outer loop
      vertex 9.2924 -1.97516 0
      vertex 9.40004 -0.951056 56.2565
      vertex 9.2924 -1.97516 100
    endloop
  endfacet
  facet normal 0.994522 -0.104529 0
    outer loop
      vertex 9.40004 -0.951056 56.2565
      vertex 9.2924 -1.97516 0
      vertex 9.40004 -0.951056 0
    endloop
  endfacet
  facet normal 0 0 -1
    outer loop
      vertex -9.40004 -0.951056 0
      vertex -28.47 -0.951056 0
      vertex -9.5 0 0
    endloop
  endfacet
  facet normal 0 0 -1
    outer loop
      vertex -28.47 0.951056 0
      vertex -9.5 0 0
      vertex -28.47 -0.951056 0
    endloop
  endfacet
  facet normal 0 0 -1
    outer loop
      vertex -9.5 0 0
      vertex -28.47 0.951056 0
      vertex -9.40004 0.951056 0
    endloop
  endfacet
  facet normal 0 -0 -1
    outer loop
      vertex -28.47 0.951056 0
      vertex -28.47 -0.951056 0
      vertex -29.161 0 0
    endloop
  endfacet
  facet normal 0 0 -1
    outer loop
      vertex -0.951056 -28.47 0
      vertex 0.951056 -28.47 0
      vertex 0 -29.161 0
    endloop
  endfacet
  facet normal 0 0 -1
    outer loop
      vertex 0.951056 -28.47 0
      vertex -0.951056 -28.47 0
      vertex 0.951056 -9.44796 0
    endloop
  endfacet
  facet normal -0 0 -1
    outer loop
      vertex 0.951056 -9.44796 0
      vertex -0.951056 -28.47 0
      vertex -0.951056 -9.44796 0
    endloop
  endfacet
  facet normal 0 0 -1
    outer loop
      vertex -0.951056 28.47 0
      vertex 0.951056 28.47 0
      vertex 0.951056 9.44796 0
    endloop
  endfacet
  facet normal 0 0 -1
    outer loop
      vertex -0.951056 28.47 0
      vertex 0.951056 9.44796 0
      vertex -0.951056 9.44796 0
    endloop
  endfacet
  facet normal 0 0 -1
    outer loop
      vertex 0.951056 28.47 0
      vertex -0.951056 28.47 0
      vertex 0 29.161 0
    endloop
  endfacet
  facet normal 0 0 -1
    outer loop
      vertex 28.47 -0.951056 0
      vertex 28.47 0.951056 0
      vertex 29.161 0 0
    endloop
  endfacet
  facet normal 0 0 -1
    outer loop
      vertex 28.47 -0.951056 0
      vertex 9.5 0 0
      vertex 28.47 0.951056 0
    endloop
  endfacet
  facet normal 0 -0 -1
    outer loop
      vertex 9.5 0 0
      vertex 28.47 -0.951056 0
      vertex 9.40004 -0.951056 0
    endloop
  endfacet
  facet normal -0 0 -1
    outer loop
      vertex 28.47 0.951056 0
      vertex 9.5 0 0
      vertex 9.40004 0.951056 0
    endloop
  endfacet
  facet normal 0 0 -1
    outer loop
      vertex 7.05 0 0
      vertex 9.5 0 0
      vertex 9.40004 -0.951056 0
    endloop
  endfacet
  facet normal 0 0 -1
    outer loop
      vertex 6.78857 -1.90207 0
      vertex 9.40004 -0.951056 0
      vertex 9.2924 -1.97516 0
    endloop
  endfacet
  facet normal 0 0 -1
    outer loop
      vertex 9.5 0 0
      vertex 7.05 0 0
      vertex 9.40004 0.951056 0
    endloop
  endfacet
  facet normal 0 0 -1
    outer loop
      vertex 6.78857 -1.90207 0
      vertex 9.2924 -1.97516 0
      vertex 8.67868 -3.864 0
    endloop
  endfacet
  facet normal 0 0 -1
    outer loop
      vertex 6.78857 1.90207 0
      vertex 9.40004 0.951056 0
      vertex 7.05 0 0
    endloop
  endfacet
  facet normal 0 0 -1
    outer loop
      vertex 6.02366 -3.66307 0
      vertex 8.67868 -3.864 0
      vertex 7.68566 -5.58396 0
    endloop
  endfacet
  facet normal 0 0 -1
    outer loop
      vertex 9.40004 0.951056 0
      vertex 6.78857 1.90207 0
      vertex 9.2924 1.97516 0
    endloop
  endfacet
  facet normal -0 0 -1
    outer loop
      vertex 9.2924 1.97516 0
      vertex 6.78857 1.90207 0
      vertex 8.67868 3.864 0
    endloop
  endfacet
  facet normal -0 0 -1
    outer loop
      vertex 9.40004 -0.951056 0
      vertex 6.78857 -1.90207 0
      vertex 7.05 0 0
    endloop
  endfacet
  facet normal 0 0 -1
    outer loop
      vertex 4.812 -5.15239 0
      vertex 7.68566 -5.58396 0
      vertex 6.35674 -7.05988 0
    endloop
  endfacet
  facet normal 0 0 -1
    outer loop
      vertex 8.67868 -3.864 0
      vertex 6.02366 -3.66307 0
      vertex 6.78857 -1.90207 0
    endloop
  endfacet
  facet normal 0 0 -1
    outer loop
      vertex 7.68566 -5.58396 0
      vertex 4.812 -5.15239 0
      vertex 6.02366 -3.66307 0
    endloop
  endfacet
  facet normal 0 0 -1
    outer loop
      vertex 4.75 -8.22724 0
      vertex 4.812 -5.15239 0
      vertex 6.35674 -7.05988 0
    endloop
  endfacet
  facet normal 0 0 -1
    outer loop
      vertex 4.75 -8.22724 0
      vertex 3.24346 -6.25959 0
      vertex 4.812 -5.15239 0
    endloop
  endfacet
  facet normal 0 0 -1
    outer loop
      vertex 2.93566 -9.03504 0
      vertex 3.24346 -6.25959 0
      vertex 4.75 -8.22724 0
    endloop
  endfacet
  facet normal 0 0 -1
    outer loop
      vertex 2.93566 -9.03504 0
      vertex 1.43436 -6.90254 0
      vertex 3.24346 -6.25959 0
    endloop
  endfacet
  facet normal 0 0 -1
    outer loop
      vertex 0.99302 -9.44796 0
      vertex 1.43436 -6.90254 0
      vertex 2.93566 -9.03504 0
    endloop
  endfacet
  facet normal 0 0 -1
    outer loop
      vertex 0.951056 -9.44796 0
      vertex 1.43436 -6.90254 0
      vertex 0.99302 -9.44796 0
    endloop
  endfacet
  facet normal 0 0 -1
    outer loop
      vertex 0.951056 -9.44796 0
      vertex -0.481109 -7.03356 0
      vertex 1.43436 -6.90254 0
    endloop
  endfacet
  facet normal 0 0 -1
    outer loop
      vertex -0.951056 -9.44796 0
      vertex -0.481109 -7.03356 0
      vertex 0.951056 -9.44796 0
    endloop
  endfacet
  facet normal 0 0 -1
    outer loop
      vertex -0.99302 -9.44796 0
      vertex -0.481109 -7.03356 0
      vertex -0.951056 -9.44796 0
    endloop
  endfacet
  facet normal 0 0 -1
    outer loop
      vertex -0.99302 -9.44796 0
      vertex -2.3609 -6.64294 0
      vertex -0.481109 -7.03356 0
    endloop
  endfacet
  facet normal 0 0 -1
    outer loop
      vertex -2.93566 -9.03504 0
      vertex -2.3609 -6.64294 0
      vertex -0.99302 -9.44796 0
    endloop
  endfacet
  facet normal 0 0 -1
    outer loop
      vertex -4.75 -8.22724 0
      vertex -2.3609 -6.64294 0
      vertex -2.93566 -9.03504 0
    endloop
  endfacet
  facet normal -0 0 -1
    outer loop
      vertex -2.3609 -6.64294 0
      vertex -4.75 -8.22724 0
      vertex -4.0656 -5.75964 0
    endloop
  endfacet
  facet normal 0 0 -1
    outer loop
      vertex -6.35674 -7.05988 0
      vertex -4.0656 -5.75964 0
      vertex -4.75 -8.22724 0
    endloop
  endfacet
  facet normal -0 0 -1
    outer loop
      vertex -4.0656 -5.75964 0
      vertex -6.35674 -7.05988 0
      vertex -5.46876 -4.44917 0
    endloop
  endfacet
  facet normal 0 0 -1
    outer loop
      vertex -7.68566 -5.58396 0
      vertex -5.46876 -4.44917 0
      vertex -6.35674 -7.05988 0
    endloop
  endfacet
  facet normal -0 0 -1
    outer loop
      vertex -5.46876 -4.44917 0
      vertex -7.68566 -5.58396 0
      vertex -6.46634 -2.80873 0
    endloop
  endfacet
  facet normal 0 0 -1
    outer loop
      vertex -9.2924 -1.97516 0
      vertex -6.46634 -2.80873 0
      vertex -8.67868 -3.864 0
    endloop
  endfacet
  facet normal 0 0 -1
    outer loop
      vertex -8.67868 -3.864 0
      vertex -6.46634 -2.80873 0
      vertex -7.68566 -5.58396 0
    endloop
  endfacet
  facet normal 0 0 -1
    outer loop
      vertex 6.02366 3.66307 0
      vertex 8.67868 3.864 0
      vertex 6.78857 1.90207 0
    endloop
  endfacet
  facet normal -0 0 -1
    outer loop
      vertex 8.67868 3.864 0
      vertex 6.02366 3.66307 0
      vertex 7.68566 5.58396 0
    endloop
  endfacet
  facet normal 0 0 -1
    outer loop
      vertex 4.812 5.15239 0
      vertex 7.68566 5.58396 0
      vertex 6.02366 3.66307 0
    endloop
  endfacet
  facet normal -0 0 -1
    outer loop
      vertex 7.68566 5.58396 0
      vertex 4.812 5.15239 0
      vertex 6.35674 7.05988 0
    endloop
  endfacet
  facet normal 0 0 -1
    outer loop
      vertex 4.812 5.15239 0
      vertex 4.75 8.22724 0
      vertex 6.35674 7.05988 0
    endloop
  endfacet
  facet normal 0 0 -1
    outer loop
      vertex 3.24346 6.25959 0
      vertex 4.75 8.22724 0
      vertex 4.812 5.15239 0
    endloop
  endfacet
  facet normal 0 0 -1
    outer loop
      vertex 3.24346 6.25959 0
      vertex 2.93566 9.03504 0
      vertex 4.75 8.22724 0
    endloop
  endfacet
  facet normal 0 0 -1
    outer loop
      vertex 1.43436 6.90254 0
      vertex 2.93566 9.03504 0
      vertex 3.24346 6.25959 0
    endloop
  endfacet
  facet normal 0 0 -1
    outer loop
      vertex 1.43436 6.90254 0
      vertex 0.99302 9.44796 0
      vertex 2.93566 9.03504 0
    endloop
  endfacet
  facet normal 0 0 -1
    outer loop
      vertex 1.43436 6.90254 0
      vertex 0.951056 9.44796 0
      vertex 0.99302 9.44796 0
    endloop
  endfacet
  facet normal 0 0 -1
    outer loop
      vertex -0.481109 7.03356 0
      vertex 0.951056 9.44796 0
      vertex 1.43436 6.90254 0
    endloop
  endfacet
  facet normal 0 0 -1
    outer loop
      vertex -0.481109 7.03356 0
      vertex -0.951056 9.44796 0
      vertex 0.951056 9.44796 0
    endloop
  endfacet
  facet normal 0 0 -1
    outer loop
      vertex -0.481109 7.03356 0
      vertex -0.99302 9.44796 0
      vertex -0.951056 9.44796 0
    endloop
  endfacet
  facet normal 0 0 -1
    outer loop
      vertex -2.3609 6.64294 0
      vertex -0.99302 9.44796 0
      vertex -0.481109 7.03356 0
    endloop
  endfacet
  facet normal 0 0 -1
    outer loop
      vertex -2.3609 6.64294 0
      vertex -2.93566 9.03504 0
      vertex -0.99302 9.44796 0
    endloop
  endfacet
  facet normal 0 0 -1
    outer loop
      vertex -4.75 8.22724 0
      vertex -2.3609 6.64294 0
      vertex -4.0656 5.75964 0
    endloop
  endfacet
  facet normal 0 0 -1
    outer loop
      vertex -2.3609 6.64294 0
      vertex -4.75 8.22724 0
      vertex -2.93566 9.03504 0
    endloop
  endfacet
  facet normal 0 0 -1
    outer loop
      vertex -6.35674 7.05988 0
      vertex -4.0656 5.75964 0
      vertex -5.46876 4.44917 0
    endloop
  endfacet
  facet normal 0 0 -1
    outer loop
      vertex -4.0656 5.75964 0
      vertex -6.35674 7.05988 0
      vertex -4.75 8.22724 0
    endloop
  endfacet
  facet normal 0 0 -1
    outer loop
      vertex -7.68566 5.58396 0
      vertex -5.46876 4.44917 0
      vertex -6.46634 2.80873 0
    endloop
  endfacet
  facet normal 0 0 -1
    outer loop
      vertex -9.2924 1.97516 0
      vertex -6.46634 2.80873 0
      vertex -6.98434 0.959974 0
    endloop
  endfacet
  facet normal 0 0 -1
    outer loop
      vertex -6.46634 -2.80873 0
      vertex -9.2924 -1.97516 0
      vertex -6.98434 -0.959974 0
    endloop
  endfacet
  facet normal 0 0 -1
    outer loop
      vertex -6.98434 -0.959974 0
      vertex -9.5 0 0
      vertex -6.98434 0.959974 0
    endloop
  endfacet
  facet normal 0 0 -1
    outer loop
      vertex -9.40004 -0.951056 0
      vertex -6.98434 -0.959974 0
      vertex -9.2924 -1.97516 0
    endloop
  endfacet
  facet normal 0 -0 -1
    outer loop
      vertex -9.2924 1.97516 0
      vertex -6.98434 0.959974 0
      vertex -9.40004 0.951056 0
    endloop
  endfacet
  facet normal 0 0 -1
    outer loop
      vertex -9.5 0 0
      vertex -6.98434 -0.959974 0
      vertex -9.40004 -0.951056 0
    endloop
  endfacet
  facet normal 0 0 -1
    outer loop
      vertex -5.46876 4.44917 0
      vertex -7.68566 5.58396 0
      vertex -6.35674 7.05988 0
    endloop
  endfacet
  facet normal 0 0 -1
    outer loop
      vertex -6.46634 2.80873 0
      vertex -8.67868 3.864 0
      vertex -7.68566 5.58396 0
    endloop
  endfacet
  facet normal -0 0 -1
    outer loop
      vertex -6.46634 2.80873 0
      vertex -9.2924 1.97516 0
      vertex -8.67868 3.864 0
    endloop
  endfacet
  facet normal 0 0 -1
    outer loop
      vertex -6.98434 0.959974 0
      vertex -9.5 0 0
      vertex -9.40004 0.951056 0
    endloop
  endfacet
  facet normal 0.743145 -0.669131 0
    outer loop
      vertex 6.35674 -7.05988 100
      vertex 7.68566 -5.58396 0
      vertex 7.68566 -5.58396 100
    endloop
  endfacet
  facet normal 0.743145 -0.669131 0
    outer loop
      vertex 7.68566 -5.58396 0
      vertex 6.35674 -7.05988 100
      vertex 6.35674 -7.05988 0
    endloop
  endfacet
  facet normal 0.951057 -0.309017 0
    outer loop
      vertex 8.67868 -3.864 100
      vertex 9.2924 -1.97516 0
      vertex 9.2924 -1.97516 100
    endloop
  endfacet
  facet normal 0.951057 -0.309017 0
    outer loop
      vertex 9.2924 -1.97516 0
      vertex 8.67868 -3.864 100
      vertex 8.67868 -3.864 0
    endloop
  endfacet
  facet normal 0.866026 -0.5 0
    outer loop
      vertex 7.68566 -5.58396 100
      vertex 8.67868 -3.864 0
      vertex 8.67868 -3.864 100
    endloop
  endfacet
  facet normal 0.866026 -0.5 0
    outer loop
      vertex 8.67868 -3.864 0
      vertex 7.68566 -5.58396 100
      vertex 7.68566 -5.58396 0
    endloop
  endfacet
  facet normal -0.406737 -0.913545 0
    outer loop
      vertex -4.75 -8.22724 0
      vertex -2.93566 -9.03504 100
      vertex -4.75 -8.22724 100
    endloop
  endfacet
  facet normal -0.406737 -0.913545 -0
    outer loop
      vertex -2.93566 -9.03504 100
      vertex -4.75 -8.22724 0
      vertex -2.93566 -9.03504 0
    endloop
  endfacet
  facet normal -0.866026 -0.5 0
    outer loop
      vertex -7.68566 -5.58396 0
      vertex -8.67868 -3.864 100
      vertex -8.67868 -3.864 0
    endloop
  endfacet
  facet normal -0.866026 -0.5 0
    outer loop
      vertex -8.67868 -3.864 100
      vertex -7.68566 -5.58396 0
      vertex -7.68566 -5.58396 100
    endloop
  endfacet
  facet normal -0.994522 -0.104529 0
    outer loop
      vertex -9.40004 -0.951056 0
      vertex -9.2924 -1.97516 0
      vertex -9.40004 -0.951056 56.2565
    endloop
  endfacet
  facet normal -0.994522 -0.104529 8.62376e-009
    outer loop
      vertex -9.2924 -1.97516 100
      vertex -9.5 0 58
      vertex -9.40004 -0.951056 56.2565
    endloop
  endfacet
  facet normal -0.994522 -0.104529 0
    outer loop
      vertex -9.5 0 58
      vertex -9.2924 -1.97516 100
      vertex -9.5 0 100
    endloop
  endfacet
  facet normal -0.994522 -0.104529 -0
    outer loop
      vertex -9.2924 -1.97516 100
      vertex -9.40004 -0.951056 56.2565
      vertex -9.2924 -1.97516 0
    endloop
  endfacet
  facet normal 0.207912 -0.978148 0
    outer loop
      vertex 0.99302 -9.44796 0
      vertex 2.93566 -9.03504 100
      vertex 0.99302 -9.44796 100
    endloop
  endfacet
  facet normal 0.207912 -0.978148 0
    outer loop
      vertex 2.93566 -9.03504 100
      vertex 0.99302 -9.44796 0
      vertex 2.93566 -9.03504 0
    endloop
  endfacet
  facet normal 0.587785 -0.809017 0
    outer loop
      vertex 4.75 -8.22724 0
      vertex 6.35674 -7.05988 100
      vertex 4.75 -8.22724 100
    endloop
  endfacet
  facet normal 0.587785 -0.809017 0
    outer loop
      vertex 6.35674 -7.05988 100
      vertex 4.75 -8.22724 0
      vertex 6.35674 -7.05988 0
    endloop
  endfacet
  facet normal -0.587785 -0.809017 0
    outer loop
      vertex -6.35674 -7.05988 0
      vertex -4.75 -8.22724 100
      vertex -6.35674 -7.05988 100
    endloop
  endfacet
  facet normal -0.587785 -0.809017 -0
    outer loop
      vertex -4.75 -8.22724 100
      vertex -6.35674 -7.05988 0
      vertex -4.75 -8.22724 0
    endloop
  endfacet
  facet normal -0.207912 -0.978148 0
    outer loop
      vertex -2.93566 -9.03504 0
      vertex -0.99302 -9.44796 100
      vertex -2.93566 -9.03504 100
    endloop
  endfacet
  facet normal -0.207912 -0.978148 -0
    outer loop
      vertex -0.99302 -9.44796 100
      vertex -2.93566 -9.03504 0
      vertex -0.99302 -9.44796 0
    endloop
  endfacet
  facet normal -0.743145 -0.669131 0
    outer loop
      vertex -6.35674 -7.05988 0
      vertex -7.68566 -5.58396 100
      vertex -7.68566 -5.58396 0
    endloop
  endfacet
  facet normal -0.743145 -0.669131 0
    outer loop
      vertex -7.68566 -5.58396 100
      vertex -6.35674 -7.05988 0
      vertex -6.35674 -7.05988 100
    endloop
  endfacet
  facet normal -0.951057 -0.309017 0
    outer loop
      vertex -8.67868 -3.864 0
      vertex -9.2924 -1.97516 100
      vertex -9.2924 -1.97516 0
    endloop
  endfacet
  facet normal -0.951057 -0.309017 0
    outer loop
      vertex -9.2924 -1.97516 100
      vertex -8.67868 -3.864 0
      vertex -8.67868 -3.864 100
    endloop
  endfacet
  facet normal 0.406737 -0.913545 0
    outer loop
      vertex 2.93566 -9.03504 0
      vertex 4.75 -8.22724 100
      vertex 2.93566 -9.03504 100
    endloop
  endfacet
  facet normal 0.406737 -0.913545 0
    outer loop
      vertex 4.75 -8.22724 100
      vertex 2.93566 -9.03504 0
      vertex 4.75 -8.22724 0
    endloop
  endfacet
  facet normal 1 -0 0
    outer loop
      vertex -6.98434 -0.959974 45.9
      vertex -6.98434 0.959974 0
      vertex -6.98434 0.959974 45.9
    endloop
  endfacet
  facet normal 1 0 0
    outer loop
      vertex -6.98434 0.959974 0
      vertex -6.98434 -0.959974 45.9
      vertex -6.98434 -0.959974 0
    endloop
  endfacet
  facet normal -0.990686 0.136166 0
    outer loop
      vertex 6.78857 -1.90207 0
      vertex 7.05 0 45.9
      vertex 7.05 0 0
    endloop
  endfacet
  facet normal -0.990686 0.136166 0
    outer loop
      vertex 7.05 0 45.9
      vertex 6.78857 -1.90207 0
      vertex 6.78857 -1.90207 45.9
    endloop
  endfacet
  facet normal -0.775712 -0.631088 0
    outer loop
      vertex 6.02366 3.66307 0
      vertex 4.812 5.15239 45.9
      vertex 4.812 5.15239 0
    endloop
  endfacet
  facet normal -0.775712 -0.631088 0
    outer loop
      vertex 4.812 5.15239 45.9
      vertex 6.02366 3.66307 0
      vertex 6.02366 3.66307 45.9
    endloop
  endfacet
  facet normal -0.917211 -0.398402 0
    outer loop
      vertex 6.78857 1.90207 0
      vertex 6.02366 3.66307 45.9
      vertex 6.02366 3.66307 0
    endloop
  endfacet
  facet normal -0.917211 -0.398402 0
    outer loop
      vertex 6.02366 3.66307 45.9
      vertex 6.78857 1.90207 0
      vertex 6.78857 1.90207 45.9
    endloop
  endfacet
  facet normal -0.33488 -0.942261 0
    outer loop
      vertex 1.43436 6.90254 0
      vertex 3.24346 6.25959 45.9
      vertex 1.43436 6.90254 45.9
    endloop
  endfacet
  facet normal -0.33488 -0.942261 -0
    outer loop
      vertex 3.24346 6.25959 45.9
      vertex 1.43436 6.90254 0
      vertex 3.24346 6.25959 0
    endloop
  endfacet
  facet normal -0.57668 -0.81697 0
    outer loop
      vertex 3.24346 6.25959 0
      vertex 4.812 5.15239 45.9
      vertex 3.24346 6.25959 45.9
    endloop
  endfacet
  facet normal -0.57668 -0.81697 -0
    outer loop
      vertex 4.812 5.15239 45.9
      vertex 3.24346 6.25959 0
      vertex 4.812 5.15239 0
    endloop
  endfacet
  facet normal 0.460065 -0.887885 0
    outer loop
      vertex -4.0656 5.75964 0
      vertex -2.3609 6.64294 45.9
      vertex -4.0656 5.75964 45.9
    endloop
  endfacet
  facet normal 0.460065 -0.887885 0
    outer loop
      vertex -2.3609 6.64294 45.9
      vertex -4.0656 5.75964 0
      vertex -2.3609 6.64294 0
    endloop
  endfacet
  facet normal 0.962917 -0.269797 0
    outer loop
      vertex -6.98434 0.959974 45.9
      vertex -6.46634 2.80873 0
      vertex -6.46634 2.80873 45.9
    endloop
  endfacet
  facet normal 0.962917 -0.269797 0
    outer loop
      vertex -6.46634 2.80873 0
      vertex -6.98434 0.959974 45.9
      vertex -6.98434 0.959974 0
    endloop
  endfacet
  facet normal 0.682553 -0.730836 0
    outer loop
      vertex -5.46876 4.44917 0
      vertex -4.0656 5.75964 45.9
      vertex -5.46876 4.44917 45.9
    endloop
  endfacet
  facet normal 0.682553 -0.730836 0
    outer loop
      vertex -4.0656 5.75964 45.9
      vertex -5.46876 4.44917 0
      vertex -4.0656 5.75964 0
    endloop
  endfacet
  facet normal -0.0682427 -0.997669 0
    outer loop
      vertex -0.481109 7.03356 0
      vertex 1.43436 6.90254 45.9
      vertex -0.481109 7.03356 45.9
    endloop
  endfacet
  facet normal -0.0682427 -0.997669 -0
    outer loop
      vertex 1.43436 6.90254 45.9
      vertex -0.481109 7.03356 0
      vertex 1.43436 6.90254 0
    endloop
  endfacet
  facet normal 0 0 -1
    outer loop
      vertex 6.78857 -1.90207 45.9
      vertex 6.78857 1.90207 45.9
      vertex 7.05 0 45.9
    endloop
  endfacet
  facet normal 0 0 -1
    outer loop
      vertex 6.02366 -3.66307 45.9
      vertex 6.78857 1.90207 45.9
      vertex 6.78857 -1.90207 45.9
    endloop
  endfacet
  facet normal 0 0 -1
    outer loop
      vertex 6.02366 -3.66307 45.9
      vertex 6.02366 3.66307 45.9
      vertex 6.78857 1.90207 45.9
    endloop
  endfacet
  facet normal 0 0 -1
    outer loop
      vertex 4.812 -5.15239 45.9
      vertex 6.02366 3.66307 45.9
      vertex 6.02366 -3.66307 45.9
    endloop
  endfacet
  facet normal 0 0 -1
    outer loop
      vertex 4.812 -5.15239 45.9
      vertex 4.812 5.15239 45.9
      vertex 6.02366 3.66307 45.9
    endloop
  endfacet
  facet normal 0 0 -1
    outer loop
      vertex 3.24346 -6.25959 45.9
      vertex 4.812 5.15239 45.9
      vertex 4.812 -5.15239 45.9
    endloop
  endfacet
  facet normal 0 0 -1
    outer loop
      vertex 3.24346 -6.25959 45.9
      vertex 3.24346 6.25959 45.9
      vertex 4.812 5.15239 45.9
    endloop
  endfacet
  facet normal 0 0 -1
    outer loop
      vertex 1.43436 -6.90254 45.9
      vertex 3.24346 6.25959 45.9
      vertex 3.24346 -6.25959 45.9
    endloop
  endfacet
  facet normal 0 0 -1
    outer loop
      vertex 1.43436 -6.90254 45.9
      vertex 1.43436 6.90254 45.9
      vertex 3.24346 6.25959 45.9
    endloop
  endfacet
  facet normal 0 0 -1
    outer loop
      vertex -0.481109 -7.03356 45.9
      vertex 1.43436 6.90254 45.9
      vertex 1.43436 -6.90254 45.9
    endloop
  endfacet
  facet normal 0 0 -1
    outer loop
      vertex -0.481109 -7.03356 45.9
      vertex -0.481109 7.03356 45.9
      vertex 1.43436 6.90254 45.9
    endloop
  endfacet
  facet normal 0 0 -1
    outer loop
      vertex -2.3609 -6.64294 45.9
      vertex -0.481109 7.03356 45.9
      vertex -0.481109 -7.03356 45.9
    endloop
  endfacet
  facet normal 0 0 -1
    outer loop
      vertex -2.3609 -6.64294 45.9
      vertex -2.3609 6.64294 45.9
      vertex -0.481109 7.03356 45.9
    endloop
  endfacet
  facet normal 0 0 -1
    outer loop
      vertex -4.0656 -5.75964 45.9
      vertex -2.3609 6.64294 45.9
      vertex -2.3609 -6.64294 45.9
    endloop
  endfacet
  facet normal 0 0 -1
    outer loop
      vertex -4.0656 -5.75964 45.9
      vertex -4.0656 5.75964 45.9
      vertex -2.3609 6.64294 45.9
    endloop
  endfacet
  facet normal 0 0 -1
    outer loop
      vertex -5.46876 -4.44917 45.9
      vertex -4.0656 5.75964 45.9
      vertex -4.0656 -5.75964 45.9
    endloop
  endfacet
  facet normal 0 0 -1
    outer loop
      vertex -5.46876 -4.44917 45.9
      vertex -5.46876 4.44917 45.9
      vertex -4.0656 5.75964 45.9
    endloop
  endfacet
  facet normal 0 0 -1
    outer loop
      vertex -6.46634 -2.80873 45.9
      vertex -5.46876 4.44917 45.9
      vertex -5.46876 -4.44917 45.9
    endloop
  endfacet
  facet normal 0 0 -1
    outer loop
      vertex -6.46634 -2.80873 45.9
      vertex -6.46634 2.80873 45.9
      vertex -5.46876 4.44917 45.9
    endloop
  endfacet
  facet normal 0 0 -1
    outer loop
      vertex -6.98434 -0.959974 45.9
      vertex -6.46634 2.80873 45.9
      vertex -6.46634 -2.80873 45.9
    endloop
  endfacet
  facet normal 0 0 -1
    outer loop
      vertex -6.46634 2.80873 45.9
      vertex -6.98434 -0.959974 45.9
      vertex -6.98434 0.959974 45.9
    endloop
  endfacet
  facet normal 0.854419 -0.519584 0
    outer loop
      vertex -6.46634 2.80873 45.9
      vertex -5.46876 4.44917 0
      vertex -5.46876 4.44917 45.9
    endloop
  endfacet
  facet normal 0.854419 -0.519584 0
    outer loop
      vertex -5.46876 4.44917 0
      vertex -6.46634 2.80873 45.9
      vertex -6.46634 2.80873 0
    endloop
  endfacet
  facet normal 0.203456 -0.979084 0
    outer loop
      vertex -2.3609 6.64294 0
      vertex -0.481109 7.03356 45.9
      vertex -2.3609 6.64294 45.9
    endloop
  endfacet
  facet normal 0.203456 -0.979084 0
    outer loop
      vertex -0.481109 7.03356 45.9
      vertex -2.3609 6.64294 0
      vertex -0.481109 7.03356 0
    endloop
  endfacet
  facet normal -0.990686 -0.136166 0
    outer loop
      vertex 7.05 0 0
      vertex 6.78857 1.90207 45.9
      vertex 6.78857 1.90207 0
    endloop
  endfacet
  facet normal -0.990686 -0.136166 0
    outer loop
      vertex 6.78857 1.90207 45.9
      vertex 7.05 0 0
      vertex 7.05 0 45.9
    endloop
  endfacet
  facet normal 0.962917 0.269797 0
    outer loop
      vertex -6.46634 -2.80873 45.9
      vertex -6.98434 -0.959974 0
      vertex -6.98434 -0.959974 45.9
    endloop
  endfacet
  facet normal 0.962917 0.269797 0
    outer loop
      vertex -6.98434 -0.959974 0
      vertex -6.46634 -2.80873 45.9
      vertex -6.46634 -2.80873 0
    endloop
  endfacet
  facet normal -0.775712 0.631088 0
    outer loop
      vertex 4.812 -5.15239 0
      vertex 6.02366 -3.66307 45.9
      vertex 6.02366 -3.66307 0
    endloop
  endfacet
  facet normal -0.775712 0.631088 0
    outer loop
      vertex 6.02366 -3.66307 45.9
      vertex 4.812 -5.15239 0
      vertex 4.812 -5.15239 45.9
    endloop
  endfacet
  facet normal 0.682553 0.730836 -0
    outer loop
      vertex -4.0656 -5.75964 0
      vertex -5.46876 -4.44917 45.9
      vertex -4.0656 -5.75964 45.9
    endloop
  endfacet
  facet normal 0.682553 0.730836 0
    outer loop
      vertex -5.46876 -4.44917 45.9
      vertex -4.0656 -5.75964 0
      vertex -5.46876 -4.44917 0
    endloop
  endfacet
  facet normal -0.0682427 0.997669 0
    outer loop
      vertex 1.43436 -6.90254 0
      vertex -0.481109 -7.03356 45.9
      vertex 1.43436 -6.90254 45.9
    endloop
  endfacet
  facet normal -0.0682427 0.997669 0
    outer loop
      vertex -0.481109 -7.03356 45.9
      vertex 1.43436 -6.90254 0
      vertex -0.481109 -7.03356 0
    endloop
  endfacet
  facet normal -0.917211 0.398402 0
    outer loop
      vertex 6.02366 -3.66307 0
      vertex 6.78857 -1.90207 45.9
      vertex 6.78857 -1.90207 0
    endloop
  endfacet
  facet normal -0.917211 0.398402 0
    outer loop
      vertex 6.78857 -1.90207 45.9
      vertex 6.02366 -3.66307 0
      vertex 6.02366 -3.66307 45.9
    endloop
  endfacet
  facet normal -0.33488 0.942261 0
    outer loop
      vertex 3.24346 -6.25959 0
      vertex 1.43436 -6.90254 45.9
      vertex 3.24346 -6.25959 45.9
    endloop
  endfacet
  facet normal -0.33488 0.942261 0
    outer loop
      vertex 1.43436 -6.90254 45.9
      vertex 3.24346 -6.25959 0
      vertex 1.43436 -6.90254 0
    endloop
  endfacet
  facet normal -0.57668 0.81697 0
    outer loop
      vertex 4.812 -5.15239 0
      vertex 3.24346 -6.25959 45.9
      vertex 4.812 -5.15239 45.9
    endloop
  endfacet
  facet normal -0.57668 0.81697 0
    outer loop
      vertex 3.24346 -6.25959 45.9
      vertex 4.812 -5.15239 0
      vertex 3.24346 -6.25959 0
    endloop
  endfacet
  facet normal 0.854419 0.519584 0
    outer loop
      vertex -5.46876 -4.44917 45.9
      vertex -6.46634 -2.80873 0
      vertex -6.46634 -2.80873 45.9
    endloop
  endfacet
  facet normal 0.854419 0.519584 0
    outer loop
      vertex -6.46634 -2.80873 0
      vertex -5.46876 -4.44917 45.9
      vertex -5.46876 -4.44917 0
    endloop
  endfacet
  facet normal 0.460065 0.887885 -0
    outer loop
      vertex -2.3609 -6.64294 0
      vertex -4.0656 -5.75964 45.9
      vertex -2.3609 -6.64294 45.9
    endloop
  endfacet
  facet normal 0.460065 0.887885 0
    outer loop
      vertex -4.0656 -5.75964 45.9
      vertex -2.3609 -6.64294 0
      vertex -4.0656 -5.75964 0
    endloop
  endfacet
  facet normal 0.203456 0.979084 -0
    outer loop
      vertex -0.481109 -7.03356 0
      vertex -2.3609 -6.64294 45.9
      vertex -0.481109 -7.03356 45.9
    endloop
  endfacet
  facet normal 0.203456 0.979084 0
    outer loop
      vertex -2.3609 -6.64294 45.9
      vertex -0.481109 -7.03356 0
      vertex -2.3609 -6.64294 0
    endloop
  endfacet
  facet normal 0 1 0
    outer loop
      vertex 28.47 0.951056 0
      vertex 9.40004 0.951056 0
      vertex 9.40004 0.951056 56.2565
    endloop
  endfacet
  facet normal 0 -1 0
    outer loop
      vertex 9.40004 -0.951056 56.2565
      vertex 9.40004 -0.951056 0
      vertex 28.47 -0.951056 0
    endloop
  endfacet
  facet normal 0.780209 -0.566856 0.264478
    outer loop
      vertex 9.40004 -0.951056 56.2565
      vertex 29.161 0 0
      vertex 9.5 0 58
    endloop
  endfacet
  facet normal 0.780209 -0.566855 0.264478
    outer loop
      vertex 29.161 0 0
      vertex 9.40004 -0.951056 56.2565
      vertex 28.47 -0.951056 0
    endloop
  endfacet
  facet normal 0.780209 0.566856 0.264478
    outer loop
      vertex 29.161 0 0
      vertex 9.40004 0.951056 56.2565
      vertex 9.5 0 58
    endloop
  endfacet
  facet normal 0.780209 0.566855 0.264478
    outer loop
      vertex 9.40004 0.951056 56.2565
      vertex 29.161 0 0
      vertex 28.47 0.951056 0
    endloop
  endfacet
  facet normal 0 1 -0
    outer loop
      vertex -9.40004 0.951056 0
      vertex -28.47 0.951056 0
      vertex -9.40004 0.951056 56.2565
    endloop
  endfacet
  facet normal 0 -1 -0
    outer loop
      vertex -9.40004 -0.951056 56.2565
      vertex -28.47 -0.951056 0
      vertex -9.40004 -0.951056 0
    endloop
  endfacet
  facet normal -0.780209 0.566855 0.264478
    outer loop
      vertex -29.161 0 0
      vertex -9.40004 0.951056 56.2565
      vertex -28.47 0.951056 0
    endloop
  endfacet
  facet normal -0.780209 0.566856 0.264478
    outer loop
      vertex -9.40004 0.951056 56.2565
      vertex -29.161 0 0
      vertex -9.5 0 58
    endloop
  endfacet
  facet normal -0.780209 -0.566855 0.264478
    outer loop
      vertex -9.40004 -0.951056 56.2565
      vertex -29.161 0 0
      vertex -28.47 -0.951056 0
    endloop
  endfacet
  facet normal -0.780209 -0.566856 0.264478
    outer loop
      vertex -29.161 0 0
      vertex -9.40004 -0.951056 56.2565
      vertex -9.5 0 58
    endloop
  endfacet
  facet normal -1 0 0
    outer loop
      vertex -0.951056 28.47 0
      vertex -0.951056 9.44796 0
      vertex -0.951056 9.44796 56.1151
    endloop
  endfacet
  facet normal 1 0 0
    outer loop
      vertex 0.951056 9.44796 56.1151
      vertex 0.951056 9.44796 0
      vertex 0.951056 28.47 0
    endloop
  endfacet
  facet normal 0.566856 0.780209 0.264477
    outer loop
      vertex 0.951056 9.44796 56.1151
      vertex 0 9.5 58
      vertex 0.0716296 9.44796 58
    endloop
  endfacet
  facet normal 0.566855 0.780209 0.264478
    outer loop
      vertex 0 29.161 0
      vertex 0.951056 9.44796 56.1151
      vertex 0.951056 28.47 0
    endloop
  endfacet
  facet normal 0.566856 0.780209 0.264478
    outer loop
      vertex 0.951056 9.44796 56.1151
      vertex 0 29.161 0
      vertex 0 9.5 58
    endloop
  endfacet
  facet normal -0.566856 0.780209 0.264477
    outer loop
      vertex 0 9.5 58
      vertex -0.951056 9.44796 56.1151
      vertex -0.0716296 9.44796 58
    endloop
  endfacet
  facet normal -0.566856 0.780209 0.264478
    outer loop
      vertex 0 29.161 0
      vertex -0.951056 9.44796 56.1151
      vertex 0 9.5 58
    endloop
  endfacet
  facet normal -0.566855 0.780209 0.264478
    outer loop
      vertex -0.951056 9.44796 56.1151
      vertex 0 29.161 0
      vertex -0.951056 28.47 0
    endloop
  endfacet
  facet normal 0.532554 0.732997 0.423205
    outer loop
      vertex 0 9.5 58
      vertex 0 9.44796 58.0901
      vertex 0.0716296 9.44796 58
    endloop
  endfacet
  facet normal -0.532554 0.732997 0.423205
    outer loop
      vertex 0 9.5 58
      vertex -0.0716296 9.44796 58
      vertex 0 9.44796 58.0901
    endloop
  endfacet
  facet normal 1 0 0
    outer loop
      vertex 0.951056 -9.44796 56.1151
      vertex 0.951056 -28.47 0
      vertex 0.951056 -9.44796 0
    endloop
  endfacet
  facet normal -1 0 0
    outer loop
      vertex -0.951056 -9.44796 0
      vertex -0.951056 -28.47 0
      vertex -0.951056 -9.44796 56.1151
    endloop
  endfacet
  facet normal -0.566856 -0.780209 0.264477
    outer loop
      vertex -0.951056 -9.44796 56.1151
      vertex 0 -9.5 58
      vertex -0.0716296 -9.44796 58
    endloop
  endfacet
  facet normal -0.566855 -0.780209 0.264478
    outer loop
      vertex 0 -29.161 0
      vertex -0.951056 -9.44796 56.1151
      vertex -0.951056 -28.47 0
    endloop
  endfacet
  facet normal -0.566856 -0.780209 0.264478
    outer loop
      vertex -0.951056 -9.44796 56.1151
      vertex 0 -29.161 0
      vertex 0 -9.5 58
    endloop
  endfacet
  facet normal 0.566856 -0.780209 0.264477
    outer loop
      vertex 0 -9.5 58
      vertex 0.951056 -9.44796 56.1151
      vertex 0.0716296 -9.44796 58
    endloop
  endfacet
  facet normal 0.566856 -0.780209 0.264478
    outer loop
      vertex 0 -29.161 0
      vertex 0.951056 -9.44796 56.1151
      vertex 0 -9.5 58
    endloop
  endfacet
  facet normal 0.566855 -0.780209 0.264478
    outer loop
      vertex 0.951056 -9.44796 56.1151
      vertex 0 -29.161 0
      vertex 0.951056 -28.47 0
    endloop
  endfacet
  facet normal -0.532554 -0.732997 0.423205
    outer loop
      vertex 0 -9.44796 58.0901
      vertex -0.0716296 -9.44796 58
      vertex 0 -9.5 58
    endloop
  endfacet
  facet normal 0.532554 -0.732997 0.423205
    outer loop
      vertex 0 -9.44796 58.0901
      vertex 0 -9.5 58
      vertex 0.0716296 -9.44796 58
    endloop
  endfacet
  facet normal 0.989821 0.142315 0
    outer loop
      vertex 6.75 0 129.9
      vertex 6.47658 1.90169 100
      vertex 6.47658 1.90169 129.9
    endloop
  endfacet
  facet normal 0.989821 0.142315 0
    outer loop
      vertex 6.47658 1.90169 100
      vertex 6.75 0 129.9
      vertex 6.75 0 100
    endloop
  endfacet
  facet normal -0.989821 0.142315 0
    outer loop
      vertex -6.75 0 100
      vertex -6.47658 1.90169 129.9
      vertex -6.47658 1.90169 100
    endloop
  endfacet
  facet normal -0.989821 0.142315 0
    outer loop
      vertex -6.47658 1.90169 129.9
      vertex -6.75 0 100
      vertex -6.75 0 129.9
    endloop
  endfacet
  facet normal 0 1 -0
    outer loop
      vertex 0.960625 6.68129 100
      vertex -0.960625 6.68129 129.9
      vertex 0.960625 6.68129 129.9
    endloop
  endfacet
  facet normal 0 1 0
    outer loop
      vertex -0.960625 6.68129 129.9
      vertex 0.960625 6.68129 100
      vertex -0.960625 6.68129 100
    endloop
  endfacet
  facet normal 0 -1 0
    outer loop
      vertex -0.960625 -6.68129 100
      vertex 0.960625 -6.68129 129.9
      vertex -0.960625 -6.68129 129.9
    endloop
  endfacet
  facet normal 0 -1 -0
    outer loop
      vertex 0.960625 -6.68129 129.9
      vertex -0.960625 -6.68129 100
      vertex 0.960625 -6.68129 100
    endloop
  endfacet
  facet normal 0.281733 -0.959493 0
    outer loop
      vertex 0.960625 -6.68129 100
      vertex 2.80405 -6.14002 129.9
      vertex 0.960625 -6.68129 129.9
    endloop
  endfacet
  facet normal 0.281733 -0.959493 0
    outer loop
      vertex 2.80405 -6.14002 129.9
      vertex 0.960625 -6.68129 100
      vertex 2.80405 -6.14002 100
    endloop
  endfacet
  facet normal 0.540641 0.841253 -0
    outer loop
      vertex 4.42031 5.10131 100
      vertex 2.80405 6.14002 129.9
      vertex 4.42031 5.10131 129.9
    endloop
  endfacet
  facet normal 0.540641 0.841253 0
    outer loop
      vertex 2.80405 6.14002 129.9
      vertex 4.42031 5.10131 100
      vertex 2.80405 6.14002 100
    endloop
  endfacet
  facet normal 0.909632 0.415415 0
    outer loop
      vertex 6.47658 1.90169 129.9
      vertex 5.67846 3.64933 100
      vertex 5.67846 3.64933 129.9
    endloop
  endfacet
  facet normal 0.909632 0.415415 0
    outer loop
      vertex 5.67846 3.64933 100
      vertex 6.47658 1.90169 129.9
      vertex 6.47658 1.90169 100
    endloop
  endfacet
  facet normal 0.281733 0.959493 -0
    outer loop
      vertex 2.80405 6.14002 100
      vertex 0.960625 6.68129 129.9
      vertex 2.80405 6.14002 129.9
    endloop
  endfacet
  facet normal 0.281733 0.959493 0
    outer loop
      vertex 0.960625 6.68129 129.9
      vertex 2.80405 6.14002 100
      vertex 0.960625 6.68129 100
    endloop
  endfacet
  facet normal -0.755749 0.654861 0
    outer loop
      vertex -5.67846 3.64933 100
      vertex -4.42031 5.10131 129.9
      vertex -4.42031 5.10131 100
    endloop
  endfacet
  facet normal -0.755749 0.654861 0
    outer loop
      vertex -4.42031 5.10131 129.9
      vertex -5.67846 3.64933 100
      vertex -5.67846 3.64933 129.9
    endloop
  endfacet
  facet normal -0.909632 0.415415 0
    outer loop
      vertex -6.47658 1.90169 100
      vertex -5.67846 3.64933 129.9
      vertex -5.67846 3.64933 100
    endloop
  endfacet
  facet normal -0.909632 0.415415 0
    outer loop
      vertex -5.67846 3.64933 129.9
      vertex -6.47658 1.90169 100
      vertex -6.47658 1.90169 129.9
    endloop
  endfacet
  facet normal 0 0 1
    outer loop
      vertex 6.47658 1.90169 129.9
      vertex 6.47658 -1.90169 129.9
      vertex 6.75 0 129.9
    endloop
  endfacet
  facet normal 0 0 1
    outer loop
      vertex 5.67846 3.64933 129.9
      vertex 6.47658 -1.90169 129.9
      vertex 6.47658 1.90169 129.9
    endloop
  endfacet
  facet normal 0 0 1
    outer loop
      vertex 5.67846 3.64933 129.9
      vertex 5.67846 -3.64933 129.9
      vertex 6.47658 -1.90169 129.9
    endloop
  endfacet
  facet normal 0 0 1
    outer loop
      vertex 4.42031 5.10131 129.9
      vertex 5.67846 -3.64933 129.9
      vertex 5.67846 3.64933 129.9
    endloop
  endfacet
  facet normal 0 0 1
    outer loop
      vertex 4.42031 5.10131 129.9
      vertex 4.42031 -5.10131 129.9
      vertex 5.67846 -3.64933 129.9
    endloop
  endfacet
  facet normal 0 0 1
    outer loop
      vertex 2.80405 6.14002 129.9
      vertex 4.42031 -5.10131 129.9
      vertex 4.42031 5.10131 129.9
    endloop
  endfacet
  facet normal 0 0 1
    outer loop
      vertex 2.80405 6.14002 129.9
      vertex 2.80405 -6.14002 129.9
      vertex 4.42031 -5.10131 129.9
    endloop
  endfacet
  facet normal 0 0 1
    outer loop
      vertex 0.960625 6.68129 129.9
      vertex 2.80405 -6.14002 129.9
      vertex 2.80405 6.14002 129.9
    endloop
  endfacet
  facet normal 0 0 1
    outer loop
      vertex 0.960625 6.68129 129.9
      vertex 0.960625 -6.68129 129.9
      vertex 2.80405 -6.14002 129.9
    endloop
  endfacet
  facet normal -0 0 1
    outer loop
      vertex -0.960625 6.68129 129.9
      vertex 0.960625 -6.68129 129.9
      vertex 0.960625 6.68129 129.9
    endloop
  endfacet
  facet normal 0 0 1
    outer loop
      vertex -0.960625 6.68129 129.9
      vertex -0.960625 -6.68129 129.9
      vertex 0.960625 -6.68129 129.9
    endloop
  endfacet
  facet normal -0 0 1
    outer loop
      vertex -2.80405 6.14002 129.9
      vertex -0.960625 -6.68129 129.9
      vertex -0.960625 6.68129 129.9
    endloop
  endfacet
  facet normal 0 0 1
    outer loop
      vertex -2.80405 6.14002 129.9
      vertex -2.80405 -6.14002 129.9
      vertex -0.960625 -6.68129 129.9
    endloop
  endfacet
  facet normal -0 0 1
    outer loop
      vertex -4.42031 5.10131 129.9
      vertex -2.80405 -6.14002 129.9
      vertex -2.80405 6.14002 129.9
    endloop
  endfacet
  facet normal 0 0 1
    outer loop
      vertex -4.42031 5.10131 129.9
      vertex -4.42031 -5.10131 129.9
      vertex -2.80405 -6.14002 129.9
    endloop
  endfacet
  facet normal -0 0 1
    outer loop
      vertex -5.67846 3.64933 129.9
      vertex -4.42031 -5.10131 129.9
      vertex -4.42031 5.10131 129.9
    endloop
  endfacet
  facet normal 0 0 1
    outer loop
      vertex -5.67846 3.64933 129.9
      vertex -5.67846 -3.64933 129.9
      vertex -4.42031 -5.10131 129.9
    endloop
  endfacet
  facet normal -0 0 1
    outer loop
      vertex -6.47658 1.90169 129.9
      vertex -5.67846 -3.64933 129.9
      vertex -5.67846 3.64933 129.9
    endloop
  endfacet
  facet normal 0 0 1
    outer loop
      vertex -6.47658 1.90169 129.9
      vertex -6.47658 -1.90169 129.9
      vertex -5.67846 -3.64933 129.9
    endloop
  endfacet
  facet normal 0 -0 1
    outer loop
      vertex -6.47658 -1.90169 129.9
      vertex -6.47658 1.90169 129.9
      vertex -6.75 0 129.9
    endloop
  endfacet
  facet normal -0.281733 0.959493 0
    outer loop
      vertex -0.960625 6.68129 100
      vertex -2.80405 6.14002 129.9
      vertex -0.960625 6.68129 129.9
    endloop
  endfacet
  facet normal -0.281733 0.959493 0
    outer loop
      vertex -2.80405 6.14002 129.9
      vertex -0.960625 6.68129 100
      vertex -2.80405 6.14002 100
    endloop
  endfacet
  facet normal -0.755749 -0.654861 0
    outer loop
      vertex -4.42031 -5.10131 100
      vertex -5.67846 -3.64933 129.9
      vertex -5.67846 -3.64933 100
    endloop
  endfacet
  facet normal -0.755749 -0.654861 0
    outer loop
      vertex -5.67846 -3.64933 129.9
      vertex -4.42031 -5.10131 100
      vertex -4.42031 -5.10131 129.9
    endloop
  endfacet
  facet normal 0.755749 0.654861 0
    outer loop
      vertex 5.67846 3.64933 129.9
      vertex 4.42031 5.10131 100
      vertex 4.42031 5.10131 129.9
    endloop
  endfacet
  facet normal 0.755749 0.654861 0
    outer loop
      vertex 4.42031 5.10131 100
      vertex 5.67846 3.64933 129.9
      vertex 5.67846 3.64933 100
    endloop
  endfacet
  facet normal -0.540641 0.841253 0
    outer loop
      vertex -2.80405 6.14002 100
      vertex -4.42031 5.10131 129.9
      vertex -2.80405 6.14002 129.9
    endloop
  endfacet
  facet normal -0.540641 0.841253 0
    outer loop
      vertex -4.42031 5.10131 129.9
      vertex -2.80405 6.14002 100
      vertex -4.42031 5.10131 100
    endloop
  endfacet
  facet normal -0.989821 -0.142315 0
    outer loop
      vertex -6.47658 -1.90169 100
      vertex -6.75 0 129.9
      vertex -6.75 0 100
    endloop
  endfacet
  facet normal -0.989821 -0.142315 0
    outer loop
      vertex -6.75 0 129.9
      vertex -6.47658 -1.90169 100
      vertex -6.47658 -1.90169 129.9
    endloop
  endfacet
  facet normal 0.909632 -0.415415 0
    outer loop
      vertex 5.67846 -3.64933 129.9
      vertex 6.47658 -1.90169 100
      vertex 6.47658 -1.90169 129.9
    endloop
  endfacet
  facet normal 0.909632 -0.415415 0
    outer loop
      vertex 6.47658 -1.90169 100
      vertex 5.67846 -3.64933 129.9
      vertex 5.67846 -3.64933 100
    endloop
  endfacet
  facet normal 0.540641 -0.841253 0
    outer loop
      vertex 2.80405 -6.14002 100
      vertex 4.42031 -5.10131 129.9
      vertex 2.80405 -6.14002 129.9
    endloop
  endfacet
  facet normal 0.540641 -0.841253 0
    outer loop
      vertex 4.42031 -5.10131 129.9
      vertex 2.80405 -6.14002 100
      vertex 4.42031 -5.10131 100
    endloop
  endfacet
  facet normal 0.989821 -0.142315 0
    outer loop
      vertex 6.47658 -1.90169 129.9
      vertex 6.75 0 100
      vertex 6.75 0 129.9
    endloop
  endfacet
  facet normal 0.989821 -0.142315 0
    outer loop
      vertex 6.75 0 100
      vertex 6.47658 -1.90169 129.9
      vertex 6.47658 -1.90169 100
    endloop
  endfacet
  facet normal -0.281733 -0.959493 0
    outer loop
      vertex -2.80405 -6.14002 100
      vertex -0.960625 -6.68129 129.9
      vertex -2.80405 -6.14002 129.9
    endloop
  endfacet
  facet normal -0.281733 -0.959493 -0
    outer loop
      vertex -0.960625 -6.68129 129.9
      vertex -2.80405 -6.14002 100
      vertex -0.960625 -6.68129 100
    endloop
  endfacet
  facet normal -0.909632 -0.415415 0
    outer loop
      vertex -5.67846 -3.64933 100
      vertex -6.47658 -1.90169 129.9
      vertex -6.47658 -1.90169 100
    endloop
  endfacet
  facet normal -0.909632 -0.415415 0
    outer loop
      vertex -6.47658 -1.90169 129.9
      vertex -5.67846 -3.64933 100
      vertex -5.67846 -3.64933 129.9
    endloop
  endfacet
  facet normal 0.755749 -0.654861 0
    outer loop
      vertex 4.42031 -5.10131 129.9
      vertex 5.67846 -3.64933 100
      vertex 5.67846 -3.64933 129.9
    endloop
  endfacet
  facet normal 0.755749 -0.654861 0
    outer loop
      vertex 5.67846 -3.64933 100
      vertex 4.42031 -5.10131 129.9
      vertex 4.42031 -5.10131 100
    endloop
  endfacet
  facet normal -0.540641 -0.841253 0
    outer loop
      vertex -4.42031 -5.10131 100
      vertex -2.80405 -6.14002 129.9
      vertex -4.42031 -5.10131 129.9
    endloop
  endfacet
  facet normal -0.540641 -0.841253 -0
    outer loop
      vertex -2.80405 -6.14002 129.9
      vertex -4.42031 -5.10131 100
      vertex -2.80405 -6.14002 100
    endloop
  endfacet
endsolid OpenSCAD_Model
