  0
SECTION
  2
HEADER
  9
$ACADVER
  1
AC1014
  9
$HANDSEED
  5
FFFF
  9
$MEASUREMENT
 70
     1
  0
ENDSEC
  0
SECTION
  2
TABLES
  0
TABLE
  2
VPORT
  5
8
330
0
100
AcDbSymbolTable
 70
     4
  0
VPORT
  5
2E
330
8
100
AcDbSymbolTableRecord
100
AcDbViewportTableRecord
  2
*ACTIVE
 70
     0
 10
0.0
 20
0.0
 11
1.0
 21
1.0
 12
210.0
 22
148.5
 13
0.0
 23
0.0
 14
10.0
 24
10.0
 15
10.0
 25
10.0
 16
0.0
 26
0.0
 36
1.0
 17
0.0
 27
0.0
 37
0.0
 40
341.0
 41
1.24
 42
50.0
 43
0.0
 44
0.0
 50
0.0
 51
0.0
 71
     0
 72
   100
 73
     1
 74
     3
 75
     0
 76
     0
 77
     0
 78
     0
  0
ENDTAB
  0
TABLE
  2
LTYPE
  5
5
330
0
100
AcDbSymbolTable
 70
     1
  0
LTYPE
  5
14
330
5
100
AcDbSymbolTableRecord
100
AcDbLinetypeTableRecord
  2
BYBLOCK
 70
     0
  3

 72
    65
 73
     0
 40
0.0
  0
LTYPE
  5
15
330
5
100
AcDbSymbolTableRecord
100
AcDbLinetypeTableRecord
  2
BYLAYER
 70
     0
  3

 72
    65
 73
     0
 40
0.0
  0
LTYPE
  5
16
330
5
100
AcDbSymbolTableRecord
100
AcDbLinetypeTableRecord
  2
CONTINUOUS
 70
     0
  3
Solid line
 72
    65
 73
     0
 40
0.0
  0
ENDTAB
  0
TABLE
  2
LAYER
  5
2
100
AcDbSymbolTable
 70
2
  0
LAYER
  5
50
100
AcDbSymbolTableRecord
100
AcDbLayerTableRecord
  2
0
 70
0
  6
CONTINUOUS
  0
LAYER
  5
51
100
AcDbSymbolTableRecord
100
AcDbLayerTableRecord
  2
Layer_1
 70
0
  6
CONTINUOUS
  0
ENDTAB
  0
TABLE
  2
STYLE
  5
3
330
0
100
AcDbSymbolTable
 70
     1
  0
STYLE
  5
11
330
3
100
AcDbSymbolTableRecord
100
AcDbTextStyleTableRecord
  2
STANDARD
 70
     0
 40
0.0
 41
1.0
 50
0.0
 71
     0
 42
2.5
  3
txt
  4

  0
ENDTAB
  0
TABLE
  2
VIEW
  5
6
330
0
100
AcDbSymbolTable
 70
     0
  0
ENDTAB
  0
TABLE
  2
UCS
  5
7
330
0
100
AcDbSymbolTable
 70
     0
  0
ENDTAB
  0
TABLE
  2
APPID
  5
9
330
0
100
AcDbSymbolTable
 70
     2
  0
APPID
  5
12
330
9
100
AcDbSymbolTableRecord
100
AcDbRegAppTableRecord
  2
ACAD
 70
     0
  0
ENDTAB
  0
TABLE
  2
DIMSTYLE
  5
A
330
0
100
AcDbSymbolTable
 70
     1
  0
DIMSTYLE
105
27
330
A
100
AcDbSymbolTableRecord
100
AcDbDimStyleTableRecord
  2
ISO-25
 70
     0
  3

  4

  5

  6

  7

 40
1.0
 41
2.5
 42
0.625
 43
3.75
 44
1.25
 45
0.0
 46
0.0
 47
0.0
 48
0.0
140
2.5
141
2.5
142
0.0
143
0.03937007874016
144
1.0
145
0.0
146
1.0
147
0.625
 71
     0
 72
     0
 73
     0
 74
     0
 75
     0
 76
     0
 77
     1
 78
     8
170
     0
171
     3
172
     1
173
     0
174
     0
175
     0
176
     0
177
     0
178
     0
270
     2
271
     2
272
     2
273
     2
274
     3
340
11
275
     0
280
     0
281
     0
282
     0
283
     0
284
     8
285
     0
286
     0
287
     3
288
     0
  0
ENDTAB
  0
TABLE
  2
BLOCK_RECORD
  5
1
330
0
100
AcDbSymbolTable
 70
     1
  0
BLOCK_RECORD
  5
1F
330
1
100
AcDbSymbolTableRecord
100
AcDbBlockTableRecord
  2
*MODEL_SPACE
  0
BLOCK_RECORD
  5
1B
330
1
100
AcDbSymbolTableRecord
100
AcDbBlockTableRecord
  2
*PAPER_SPACE
  0
ENDTAB
  0
ENDSEC
  0
SECTION
  2
BLOCKS
  0
BLOCK
  5
20
330
1F
100
AcDbEntity
  8
0
100
AcDbBlockBegin
  2
*MODEL_SPACE
 70
     0
 10
0.0
 20
0.0
 30
0.0
  3
*MODEL_SPACE
  1

  0
ENDBLK
  5
21
330
1F
100
AcDbEntity
  8
0
100
AcDbBlockEnd
  0
BLOCK
  5
1C
330
1B
100
AcDbEntity
 67
     1
  8
0
100
AcDbBlockBegin
  2
*PAPER_SPACE
  1

  0
ENDBLK
  5
1D
330
1B
100
AcDbEntity
 67
     1
  8
0
100
AcDbBlockEnd
  0
ENDSEC
  0
SECTION
  2
ENTITIES
  0
LWPOLYLINE
  5
100
100
AcDbEntity
  8
Layer_1
 62
7
100
AcDbPolyline
 90
53
 70
0
 10
3.598951
 20
44.482116
 30
0.0
 10
3.598951
 20
50.208676
 30
0.0
 10
3.598951
 20
55.935236
 30
0.0
 10
3.598951
 20
61.661804
 30
0.0
 10
3.598951
 20
67.388364
 30
0.0
 10
5.329420
 20
67.388364
 30
0.0
 10
7.059888
 20
67.388364
 30
0.0
 10
8.790357
 20
67.388364
 30
0.0
 10
10.520826
 20
67.388364
 30
0.0
 10
11.559888
 20
63.482116
 30
0.0
 10
12.598950
 20
59.575860
 30
0.0
 10
13.638014
 20
55.669612
 30
0.0
 10
14.677076
 20
51.763364
 30
0.0
 10
15.704420
 20
55.669612
 30
0.0
 10
16.731763
 20
59.575860
 30
0.0
 10
17.759107
 20
63.482116
 30
0.0
 10
18.786451
 20
67.388364
 30
0.0
 10
20.520826
 20
67.388364
 30
0.0
 10
22.255201
 20
67.388364
 30
0.0
 10
23.989576
 20
67.388364
 30
0.0
 10
25.723951
 20
67.388364
 30
0.0
 10
25.723951
 20
61.661804
 30
0.0
 10
25.723951
 20
55.935236
 30
0.0
 10
25.723951
 20
50.208676
 30
0.0
 10
25.723951
 20
44.482116
 30
0.0
 10
24.649732
 20
44.482116
 30
0.0
 10
23.575514
 20
44.482116
 30
0.0
 10
22.501294
 20
44.482116
 30
0.0
 10
21.427076
 20
44.482116
 30
0.0
 10
21.427076
 20
48.989924
 30
0.0
 10
21.427076
 20
53.497740
 30
0.0
 10
21.427076
 20
58.005548
 30
0.0
 10
21.427076
 20
62.513364
 30
0.0
 10
20.290357
 20
58.005548
 30
0.0
 10
19.153638
 20
53.497740
 30
0.0
 10
18.016919
 20
48.989924
 30
0.0
 10
16.880201
 20
44.482116
 30
0.0
 10
15.766919
 20
44.482116
 30
0.0
 10
14.653638
 20
44.482116
 30
0.0
 10
13.540357
 20
44.482116
 30
0.0
 10
12.427076
 20
44.482116
 30
0.0
 10
11.294263
 20
48.989924
 30
0.0
 10
10.161450
 20
53.497740
 30
0.0
 10
9.028638
 20
58.005548
 30
0.0
 10
7.895826
 20
62.513364
 30
0.0
 10
7.895826
 20
58.005548
 30
0.0
 10
7.895826
 20
53.497740
 30
0.0
 10
7.895826
 20
48.989924
 30
0.0
 10
7.895826
 20
44.482116
 30
0.0
 10
6.821607
 20
44.482116
 30
0.0
 10
5.747388
 20
44.482116
 30
0.0
 10
4.673170
 20
44.482116
 30
0.0
 10
3.598951
 20
44.482116
 30
0.0
  0
LWPOLYLINE
  5
101
100
AcDbEntity
  8
Layer_1
 62
7
100
AcDbPolyline
 90
17
 70
0
 10
30.208326
 20
44.482116
 30
0.0
 10
30.208326
 20
50.208676
 30
0.0
 10
30.208326
 20
55.935236
 30
0.0
 10
30.208326
 20
61.661804
 30
0.0
 10
30.208326
 20
67.388364
 30
0.0
 10
31.364576
 20
67.388364
 30
0.0
 10
32.520826
 20
67.388364
 30
0.0
 10
33.677076
 20
67.388364
 30
0.0
 10
34.833326
 20
67.388364
 30
0.0
 10
34.833326
 20
61.661804
 30
0.0
 10
34.833326
 20
55.935236
 30
0.0
 10
34.833326
 20
50.208676
 30
0.0
 10
34.833326
 20
44.482116
 30
0.0
 10
33.677076
 20
44.482116
 30
0.0
 10
32.520826
 20
44.482116
 30
0.0
 10
31.364576
 20
44.482116
 30
0.0
 10
30.208326
 20
44.482116
 30
0.0
  0
LWPOLYLINE
  5
102
100
AcDbEntity
  8
Layer_1
 62
7
100
AcDbPolyline
 90
45
 70
0
 10
39.208326
 20
67.388364
 30
0.0
 10
41.321607
 20
67.388364
 30
0.0
 10
43.434888
 20
67.388364
 30
0.0
 10
45.548170
 20
67.388364
 30
0.0
 10
47.661451
 20
67.388364
 30
0.0
 10
49.006170
 20
67.361004
 30
0.0
 10
50.180972
 20
67.278972
 30
0.0
 10
51.185857
 20
67.142260
 30
0.0
 10
52.020826
 20
66.950868
 30
0.0
 10
52.992496
 20
66.596364
 30
0.0
 10
53.891906
 20
66.126628
 30
0.0
 10
54.719058
 20
65.541676
 30
0.0
 10
55.473951
 20
64.841492
 30
0.0
 10
56.149721
 20
64.041188
 30
0.0
 10
56.739561
 20
63.155932
 30
0.0
 10
57.243471
 20
62.185716
 30
0.0
 10
57.661451
 20
61.130556
 30
0.0
 10
57.989564
 20
59.968924
 30
0.0
 10
58.223935
 20
58.679372
 30
0.0
 10
58.364564
 20
57.261892
 30
0.0
 10
58.411452
 20
55.716492
 30
0.0
 10
58.367492
 20
54.351252
 30
0.0
 10
58.235652
 20
53.083676
 30
0.0
 10
58.015930
 20
51.913756
 30
0.0
 10
57.708324
 20
50.841492
 30
0.0
 10
57.232727
 20
49.651060
 30
0.0
 10
56.665341
 20
48.579772
 30
0.0
 10
56.006165
 20
47.627620
 30
0.0
 10
55.255199
 20
46.794620
 30
0.0
 10
54.600893
 20
46.240908
 30
0.0
 10
53.841124
 20
45.751644
 30
0.0
 10
52.975893
 20
45.326844
 30
0.0
 10
52.005199
 20
44.966492
 30
0.0
 10
51.175114
 20
44.754580
 30
0.0
 10
50.216127
 20
44.603212
 30
0.0
 10
49.128239
 20
44.512388
 30
0.0
 10
47.911450
 20
44.482148
 30
0.0
 10
45.735668
 20
44.482148
 30
0.0
 10
43.559886
 20
44.482148
 30
0.0
 10
41.384106
 20
44.482148
 30
0.0
 10
39.208324
 20
44.482148
 30
0.0
 10
39.208324
 20
50.208708
 30
0.0
 10
39.208324
 20
55.935276
 30
0.0
 10
39.208324
 20
61.661836
 30
0.0
 10
39.208326
 20
67.388364
 30
0.0
  0
LWPOLYLINE
  5
103
100
AcDbEntity
  8
Layer_1
 62
7
100
AcDbPolyline
 90
45
 70
0
 10
43.833326
 20
63.513364
 30
0.0
 10
43.833326
 20
59.720396
 30
0.0
 10
43.833326
 20
55.927428
 30
0.0
 10
43.833326
 20
52.134460
 30
0.0
 10
43.833326
 20
48.341492
 30
0.0
 10
44.696607
 20
48.341492
 30
0.0
 10
45.559888
 20
48.341492
 30
0.0
 10
46.423170
 20
48.341492
 30
0.0
 10
47.286451
 20
48.341492
 30
0.0
 10
48.187811
 20
48.355172
 30
0.0
 10
48.954410
 20
48.396212
 30
0.0
 10
49.586249
 20
48.464612
 30
0.0
 10
50.083326
 20
48.560332
 30
0.0
 10
50.621892
 20
48.725372
 30
0.0
 10
51.112612
 20
48.939236
 30
0.0
 10
51.555486
 20
49.201924
 30
0.0
 10
51.950514
 20
49.513452
 30
0.0
 10
52.304509
 20
49.903588
 30
0.0
 10
52.624330
 20
50.402124
 30
0.0
 10
52.909978
 20
51.009060
 30
0.0
 10
53.161451
 20
51.724396
 30
0.0
 10
53.366520
 20
52.563748
 30
0.0
 10
53.513001
 20
53.542748
 30
0.0
 10
53.600894
 20
54.661396
 30
0.0
 10
53.630198
 20
55.919708
 30
0.0
 10
53.600894
 20
57.170676
 30
0.0
 10
53.513001
 20
58.267348
 30
0.0
 10
53.366520
 20
59.209732
 30
0.0
 10
53.161451
 20
59.997828
 30
0.0
 10
52.903630
 20
60.669700
 30
0.0
 10
52.598939
 20
61.263444
 30
0.0
 10
52.247380
 20
61.779076
 30
0.0
 10
51.848951
 20
62.216580
 30
0.0
 10
51.398748
 20
62.582780
 30
0.0
 10
50.891910
 20
62.884540
 30
0.0
 10
50.328435
 20
63.121844
 30
0.0
 10
49.708326
 20
63.294708
 30
0.0
 10
49.107734
 20
63.390396
 30
0.0
 10
48.274724
 20
63.458716
 30
0.0
 10
47.209296
 20
63.499756
 30
0.0
 10
45.911451
 20
63.513436
 30
0.0
 10
45.391920
 20
63.513436
 30
0.0
 10
44.872388
 20
63.513436
 30
0.0
 10
44.352857
 20
63.513436
 30
0.0
 10
43.833326
 20
63.513364
 30
0.0
  0
LWPOLYLINE
  5
104
100
AcDbEntity
  8
Layer_1
 62
7
100
AcDbPolyline
 90
25
 70
0
 10
62.473951
 20
44.482116
 30
0.0
 10
62.473951
 20
50.161804
 30
0.0
 10
62.473951
 20
55.841492
 30
0.0
 10
62.473951
 20
61.521180
 30
0.0
 10
62.473951
 20
67.200868
 30
0.0
 10
63.630200
 20
67.200868
 30
0.0
 10
64.786452
 20
67.200868
 30
0.0
 10
65.942700
 20
67.200868
 30
0.0
 10
67.098948
 20
67.200868
 30
0.0
 10
67.098948
 20
62.486028
 30
0.0
 10
67.098948
 20
57.771180
 30
0.0
 10
67.098948
 20
53.056340
 30
0.0
 10
67.098948
 20
48.341492
 30
0.0
 10
69.973948
 20
48.341492
 30
0.0
 10
72.848948
 20
48.341492
 30
0.0
 10
75.723948
 20
48.341492
 30
0.0
 10
78.598948
 20
48.341492
 30
0.0
 10
78.598948
 20
47.376652
 30
0.0
 10
78.598948
 20
46.411804
 30
0.0
 10
78.598948
 20
45.446964
 30
0.0
 10
78.598948
 20
44.482116
 30
0.0
 10
74.567700
 20
44.482116
 30
0.0
 10
70.536452
 20
44.482116
 30
0.0
 10
66.505204
 20
44.482116
 30
0.0
 10
62.473951
 20
44.482116
 30
0.0
  0
LWPOLYLINE
  5
105
100
AcDbEntity
  8
Layer_1
 62
7
100
AcDbPolyline
 90
17
 70
0
 10
81.770828
 20
44.482116
 30
0.0
 10
81.770828
 20
50.208676
 30
0.0
 10
81.770828
 20
55.935236
 30
0.0
 10
81.770828
 20
61.661804
 30
0.0
 10
81.770828
 20
67.388364
 30
0.0
 10
82.927076
 20
67.388364
 30
0.0
 10
84.083324
 20
67.388364
 30
0.0
 10
85.239580
 20
67.388364
 30
0.0
 10
86.395828
 20
67.388364
 30
0.0
 10
86.395828
 20
61.661804
 30
0.0
 10
86.395828
 20
55.935236
 30
0.0
 10
86.395828
 20
50.208676
 30
0.0
 10
86.395828
 20
44.482116
 30
0.0
 10
85.239580
 20
44.482116
 30
0.0
 10
84.083324
 20
44.482116
 30
0.0
 10
82.927076
 20
44.482116
 30
0.0
 10
81.770828
 20
44.482116
 30
0.0
  0
LWPOLYLINE
  5
106
100
AcDbEntity
  8
Layer_1
 62
7
100
AcDbPolyline
 90
41
 70
0
 10
90.817700
 20
44.482116
 30
0.0
 10
90.817700
 20
50.208676
 30
0.0
 10
90.817700
 20
55.935236
 30
0.0
 10
90.817700
 20
61.661804
 30
0.0
 10
90.817700
 20
67.388364
 30
0.0
 10
94.743484
 20
67.388364
 30
0.0
 10
98.669260
 20
67.388364
 30
0.0
 10
102.595044
 20
67.388364
 30
0.0
 10
106.520828
 20
67.388364
 30
0.0
 10
106.520828
 20
66.419612
 30
0.0
 10
106.520828
 20
65.450860
 30
0.0
 10
106.520828
 20
64.482116
 30
0.0
 10
106.520828
 20
63.513364
 30
0.0
 10
103.751300
 20
63.513364
 30
0.0
 10
100.981764
 20
63.513364
 30
0.0
 10
98.212228
 20
63.513364
 30
0.0
 10
95.442700
 20
63.513364
 30
0.0
 10
95.442700
 20
62.157892
 30
0.0
 10
95.442700
 20
60.802428
 30
0.0
 10
95.442700
 20
59.446956
 30
0.0
 10
95.442700
 20
58.091492
 30
0.0
 10
97.833324
 20
58.091492
 30
0.0
 10
100.223956
 20
58.091492
 30
0.0
 10
102.614580
 20
58.091492
 30
0.0
 10
105.005204
 20
58.091492
 30
0.0
 10
105.005204
 20
57.122740
 30
0.0
 10
105.005204
 20
56.153988
 30
0.0
 10
105.005204
 20
55.185244
 30
0.0
 10
105.005204
 20
54.216492
 30
0.0
 10
102.614580
 20
54.216492
 30
0.0
 10
100.223956
 20
54.216492
 30
0.0
 10
97.833324
 20
54.216492
 30
0.0
 10
95.442700
 20
54.216492
 30
0.0
 10
95.442700
 20
51.782900
 30
0.0
 10
95.442700
 20
49.349300
 30
0.0
 10
95.442700
 20
46.915708
 30
0.0
 10
95.442700
 20
44.482116
 30
0.0
 10
94.286452
 20
44.482116
 30
0.0
 10
93.130196
 20
44.482116
 30
0.0
 10
91.973948
 20
44.482116
 30
0.0
 10
90.817700
 20
44.482116
 30
0.0
  0
LWPOLYLINE
  5
107
100
AcDbEntity
  8
Layer_1
 62
7
100
AcDbPolyline
 90
49
 70
0
 10
110.348948
 20
44.482116
 30
0.0
 10
110.348948
 20
50.208676
 30
0.0
 10
110.348948
 20
55.935236
 30
0.0
 10
110.348948
 20
61.661804
 30
0.0
 10
110.348948
 20
67.388364
 30
0.0
 10
114.595044
 20
67.388364
 30
0.0
 10
118.841140
 20
67.388364
 30
0.0
 10
123.087228
 20
67.388364
 30
0.0
 10
127.333324
 20
67.388364
 30
0.0
 10
127.333324
 20
66.419612
 30
0.0
 10
127.333324
 20
65.450860
 30
0.0
 10
127.333324
 20
64.482116
 30
0.0
 10
127.333324
 20
63.513364
 30
0.0
 10
124.243484
 20
63.513364
 30
0.0
 10
121.153636
 20
63.513364
 30
0.0
 10
118.063796
 20
63.513364
 30
0.0
 10
114.973948
 20
63.513364
 30
0.0
 10
114.973948
 20
62.243836
 30
0.0
 10
114.973948
 20
60.974300
 30
0.0
 10
114.973948
 20
59.704772
 30
0.0
 10
114.973948
 20
58.435244
 30
0.0
 10
117.848948
 20
58.435244
 30
0.0
 10
120.723948
 20
58.435244
 30
0.0
 10
123.598948
 20
58.435244
 30
0.0
 10
126.473948
 20
58.435244
 30
0.0
 10
126.473948
 20
57.470396
 30
0.0
 10
126.473948
 20
56.505556
 30
0.0
 10
126.473948
 20
55.540708
 30
0.0
 10
126.473948
 20
54.575868
 30
0.0
 10
123.598948
 20
54.575868
 30
0.0
 10
120.723948
 20
54.575868
 30
0.0
 10
117.848948
 20
54.575868
 30
0.0
 10
114.973948
 20
54.575868
 30
0.0
 10
114.973948
 20
53.017276
 30
0.0
 10
114.973948
 20
51.458676
 30
0.0
 10
114.973948
 20
49.900084
 30
0.0
 10
114.973948
 20
48.341492
 30
0.0
 10
118.173172
 20
48.341492
 30
0.0
 10
121.372388
 20
48.341492
 30
0.0
 10
124.571612
 20
48.341492
 30
0.0
 10
127.770828
 20
48.341492
 30
0.0
 10
127.770828
 20
47.376644
 30
0.0
 10
127.770828
 20
46.411804
 30
0.0
 10
127.770828
 20
45.446956
 30
0.0
 10
127.770828
 20
44.482116
 30
0.0
 10
123.415356
 20
44.482116
 30
0.0
 10
119.059892
 20
44.482116
 30
0.0
 10
114.704420
 20
44.482116
 30
0.0
 10
110.348948
 20
44.482116
 30
0.0
  0
LWPOLYLINE
  5
108
100
AcDbEntity
  8
Layer_1
 62
7
100
AcDbPolyline
 90
73
 70
0
 10
28.973951
 20
12.903988
 30
0.0
 10
30.095045
 20
12.548524
 30
0.0
 10
31.216138
 20
12.193052
 30
0.0
 10
32.337232
 20
11.837588
 30
0.0
 10
33.458326
 20
11.482116
 30
0.0
 10
32.857240
 20
9.727724
 30
0.0
 10
32.085264
 20
8.214540
 30
0.0
 10
31.142397
 20
6.942564
 30
0.0
 10
30.028638
 20
5.911804
 30
0.0
 10
28.748848
 20
5.115412
 30
0.0
 10
27.307927
 20
4.546564
 30
0.0
 10
25.705878
 20
4.205260
 30
0.0
 10
23.942701
 20
4.091492
 30
0.0
 10
21.763009
 20
4.286316
 30
0.0
 10
19.786446
 20
4.870788
 30
0.0
 10
18.013010
 20
5.844908
 30
0.0
 10
16.442701
 20
7.208676
 30
0.0
 10
15.157545
 20
8.910332
 30
0.0
 10
14.239576
 20
10.898124
 30
0.0
 10
13.688794
 20
13.172052
 30
0.0
 10
13.505201
 20
15.732116
 30
0.0
 10
13.689771
 20
18.431820
 30
0.0
 10
14.243482
 20
20.812188
 30
0.0
 10
15.166333
 20
22.873220
 30
0.0
 10
16.458326
 20
24.614932
 30
0.0
 10
18.051089
 20
25.999204
 30
0.0
 10
19.876283
 20
26.987964
 30
0.0
 10
21.933905
 20
27.581228
 30
0.0
 10
24.223951
 20
27.778988
 30
0.0
 10
26.226872
 20
27.623708
 30
0.0
 10
28.032533
 20
27.157884
 30
0.0
 10
29.640934
 20
26.381516
 30
0.0
 10
31.052076
 20
25.294620
 30
0.0
 10
31.784486
 20
24.480156
 30
0.0
 10
32.419248
 20
23.505540
 30
0.0
 10
32.956361
 20
22.370780
 30
0.0
 10
33.395826
 20
21.075868
 30
0.0
 10
32.251294
 20
20.802428
 30
0.0
 10
31.106763
 20
20.528996
 30
0.0
 10
29.962232
 20
20.255556
 30
0.0
 10
28.817701
 20
19.982116
 30
0.0
 10
28.559391
 20
20.825860
 30
0.0
 10
28.190735
 20
21.575852
 30
0.0
 10
27.711735
 20
22.232108
 30
0.0
 10
27.122389
 20
22.794620
 30
0.0
 10
26.443182
 20
23.245780
 30
0.0
 10
25.694644
 20
23.568036
 30
0.0
 10
24.876775
 20
23.761404
 30
0.0
 10
23.989576
 20
23.825884
 30
0.0
 10
22.776191
 20
23.711612
 30
0.0
 10
21.682928
 20
23.368836
 30
0.0
 10
20.709786
 20
22.797548
 30
0.0
 10
19.856763
 20
21.997756
 30
0.0
 10
19.162909
 20
20.942084
 30
0.0
 10
18.667302
 20
19.603220
 30
0.0
 10
18.369942
 20
17.981148
 30
0.0
 10
18.270826
 20
16.075884
 30
0.0
 10
18.368483
 20
14.060252
 30
0.0
 10
18.661450
 20
12.357124
 30
0.0
 10
19.149730
 20
10.966500
 30
0.0
 10
19.833326
 20
9.888380
 30
0.0
 10
20.673170
 20
9.081740
 30
0.0
 10
21.630198
 20
8.505572
 30
0.0
 10
22.704416
 20
8.159868
 30
0.0
 10
23.895826
 20
8.044636
 30
0.0
 10
24.785466
 20
8.117916
 30
0.0
 10
25.610659
 20
8.337636
 30
0.0
 10
26.371404
 20
8.703852
 30
0.0
 10
27.067701
 20
9.216548
 30
0.0
 10
27.684883
 20
9.886460
 30
0.0
 10
28.208317
 20
10.724356
 30
0.0
 10
28.638006
 20
11.730212
 30
0.0
 10
28.973951
 20
12.903988
 30
0.0
  0
LWPOLYLINE
  5
109
100
AcDbEntity
  8
Layer_1
 62
7
100
AcDbPolyline
 90
73
 70
0
 10
37.458326
 20
4.482116
 30
0.0
 10
37.458326
 20
10.208676
 30
0.0
 10
37.458326
 20
15.935236
 30
0.0
 10
37.458326
 20
21.661804
 30
0.0
 10
37.458326
 20
27.388364
 30
0.0
 10
39.891919
 20
27.388364
 30
0.0
 10
42.325513
 20
27.388364
 30
0.0
 10
44.759107
 20
27.388364
 30
0.0
 10
47.192701
 20
27.388364
 30
0.0
 10
48.903142
 20
27.349804
 30
0.0
 10
50.362611
 20
27.234076
 30
0.0
 10
51.571110
 20
27.041212
 30
0.0
 10
52.528638
 20
26.771204
 30
0.0
 10
53.319155
 20
26.402540
 30
0.0
 10
54.026671
 20
25.913764
 30
0.0
 10
54.651186
 20
25.304884
 30
0.0
 10
55.192701
 20
24.575892
 30
0.0
 10
55.630190
 20
23.758500
 30
0.0
 10
55.942686
 20
22.884468
 30
0.0
 10
56.130189
 20
21.953812
 30
0.0
 10
56.192701
 20
20.966516
 30
0.0
 10
56.097962
 20
19.733596
 30
0.0
 10
55.813779
 20
18.612988
 30
0.0
 10
55.340150
 20
17.604692
 30
0.0
 10
54.677076
 20
16.708700
 30
0.0
 10
53.825509
 20
15.946484
 30
0.0
 10
52.786442
 20
15.339548
 30
0.0
 10
51.559881
 20
14.887892
 30
0.0
 10
50.145826
 20
14.591516
 30
0.0
 10
50.863102
 20
14.143268
 30
0.0
 10
51.514954
 20
13.673540
 30
0.0
 10
52.101383
 20
13.182332
 30
0.0
 10
52.622389
 20
12.669644
 30
0.0
 10
53.153140
 20
12.044636
 30
0.0
 10
53.768859
 20
11.216508
 30
0.0
 10
54.469546
 20
10.185260
 30
0.0
 10
55.255201
 20
8.950892
 30
0.0
 10
55.954420
 20
7.833700
 30
0.0
 10
56.653638
 20
6.716516
 30
0.0
 10
57.352857
 20
5.599324
 30
0.0
 10
58.052076
 20
4.482140
 30
0.0
 10
56.669263
 20
4.482140
 30
0.0
 10
55.286450
 20
4.482140
 30
0.0
 10
53.903638
 20
4.482140
 30
0.0
 10
52.520826
 20
4.482140
 30
0.0
 10
51.684888
 20
5.728236
 30
0.0
 10
50.848950
 20
6.974324
 30
0.0
 10
50.013014
 20
8.220420
 30
0.0
 10
49.177076
 20
9.466516
 30
0.0
 10
48.356757
 20
10.678916
 30
0.0
 10
47.677066
 20
11.644244
 30
0.0
 10
47.138006
 20
12.362508
 30
0.0
 10
46.739576
 20
12.833700
 30
0.0
 10
46.406562
 20
13.154012
 30
0.0
 10
46.063786
 20
13.419636
 30
0.0
 10
45.711250
 20
13.630572
 30
0.0
 10
45.348951
 20
13.786828
 30
0.0
 10
44.928047
 20
13.899612
 30
0.0
 10
44.399725
 20
13.980180
 30
0.0
 10
43.763985
 20
14.028500
 30
0.0
 10
43.020826
 20
14.044580
 30
0.0
 10
42.786450
 20
14.044580
 30
0.0
 10
42.552076
 20
14.044580
 30
0.0
 10
42.317701
 20
14.044580
 30
0.0
 10
42.083326
 20
14.044580
 30
0.0
 10
42.083326
 20
11.653956
 30
0.0
 10
42.083326
 20
9.263324
 30
0.0
 10
42.083326
 20
6.872700
 30
0.0
 10
42.083326
 20
4.482076
 30
0.0
 10
40.927076
 20
4.482076
 30
0.0
 10
39.770826
 20
4.482076
 30
0.0
 10
38.614576
 20
4.482076
 30
0.0
 10
37.458326
 20
4.482116
 30
0.0
  0
LWPOLYLINE
  5
10a
100
AcDbEntity
  8
Layer_1
 62
7
100
AcDbPolyline
 90
37
 70
0
 10
42.083326
 20
17.700868
 30
0.0
 10
42.938794
 20
17.700868
 30
0.0
 10
43.794263
 20
17.700868
 30
0.0
 10
44.649732
 20
17.700868
 30
0.0
 10
45.505201
 20
17.700868
 30
0.0
 10
47.013006
 20
17.718468
 30
0.0
 10
48.208316
 20
17.771188
 30
0.0
 10
49.091131
 20
17.859076
 30
0.0
 10
49.661451
 20
17.982132
 30
0.0
 10
50.053044
 20
18.148140
 30
0.0
 10
50.399721
 20
18.364932
 30
0.0
 10
50.701481
 20
18.632516
 30
0.0
 10
50.958326
 20
18.950884
 30
0.0
 10
51.163394
 20
19.316108
 30
0.0
 10
51.309876
 20
19.724308
 30
0.0
 10
51.397770
 20
20.175484
 30
0.0
 10
51.427074
 20
20.669636
 30
0.0
 10
51.388490
 20
21.219916
 30
0.0
 10
51.272765
 20
21.714540
 30
0.0
 10
51.079897
 20
22.153508
 30
0.0
 10
50.809886
 20
22.536820
 30
0.0
 10
50.469546
 20
22.859564
 30
0.0
 10
50.065734
 20
23.116884
 30
0.0
 10
49.598452
 20
23.308780
 30
0.0
 10
49.067698
 20
23.435260
 30
0.0
 10
48.645816
 20
23.469420
 30
0.0
 10
47.942689
 20
23.493820
 30
0.0
 10
46.958317
 20
23.508460
 30
0.0
 10
45.692698
 20
23.513260
 30
0.0
 10
44.790354
 20
23.513260
 30
0.0
 10
43.888010
 20
23.513260
 30
0.0
 10
42.985667
 20
23.513260
 30
0.0
 10
42.083323
 20
23.513260
 30
0.0
 10
42.083323
 20
22.060124
 30
0.0
 10
42.083323
 20
20.606996
 30
0.0
 10
42.083323
 20
19.153860
 30
0.0
 10
42.083326
 20
17.700868
 30
0.0
  0
LWPOLYLINE
  5
10b
100
AcDbEntity
  8
Layer_1
 62
7
100
AcDbPolyline
 90
17
 70
0
 10
60.427076
 20
4.482116
 30
0.0
 10
60.427076
 20
10.208676
 30
0.0
 10
60.427076
 20
15.935236
 30
0.0
 10
60.427076
 20
21.661804
 30
0.0
 10
60.427076
 20
27.388364
 30
0.0
 10
61.583326
 20
27.388364
 30
0.0
 10
62.739576
 20
27.388364
 30
0.0
 10
63.895828
 20
27.388364
 30
0.0
 10
65.052076
 20
27.388364
 30
0.0
 10
65.052076
 20
21.661804
 30
0.0
 10
65.052076
 20
15.935236
 30
0.0
 10
65.052076
 20
10.208676
 30
0.0
 10
65.052076
 20
4.482116
 30
0.0
 10
63.895828
 20
4.482116
 30
0.0
 10
62.739576
 20
4.482116
 30
0.0
 10
61.583326
 20
4.482116
 30
0.0
 10
60.427076
 20
4.482116
 30
0.0
  0
LWPOLYLINE
  5
10c
100
AcDbEntity
  8
Layer_1
 62
7
100
AcDbPolyline
 90
121
 70
0
 10
68.270828
 20
11.935244
 30
0.0
 10
69.395828
 20
12.044620
 30
0.0
 10
70.520828
 20
12.153996
 30
0.0
 10
71.645828
 20
12.263364
 30
0.0
 10
72.770828
 20
12.372740
 30
0.0
 10
73.026196
 20
11.315116
 30
0.0
 10
73.386052
 20
10.407892
 30
0.0
 10
73.850412
 20
9.651060
 30
0.0
 10
74.419260
 20
9.044620
 30
0.0
 10
75.094548
 20
8.579772
 30
0.0
 10
75.878244
 20
8.247740
 30
0.0
 10
76.770332
 20
8.048524
 30
0.0
 10
77.770828
 20
7.982124
 30
0.0
 10
78.819156
 20
8.041164
 30
0.0
 10
79.729796
 20
8.218412
 30
0.0
 10
80.502748
 20
8.513820
 30
0.0
 10
81.138012
 20
8.927396
 30
0.0
 10
81.633612
 20
9.420068
 30
0.0
 10
81.987612
 20
9.952788
 30
0.0
 10
82.200020
 20
10.525540
 30
0.0
 10
82.270820
 20
11.138332
 30
0.0
 10
82.241060
 20
11.529444
 30
0.0
 10
82.151700
 20
11.890284
 30
0.0
 10
82.002772
 20
12.220852
 30
0.0
 10
81.794284
 20
12.521148
 30
0.0
 10
81.511564
 20
12.797020
 30
0.0
 10
81.139980
 20
13.054340
 30
0.0
 10
80.679532
 20
13.293116
 30
0.0
 10
80.130228
 20
13.513332
 30
0.0
 10
79.594084
 20
13.681300
 30
0.0
 10
78.798188
 20
13.903956
 30
0.0
 10
77.742524
 20
14.181300
 30
0.0
 10
76.427100
 20
14.513332
 30
0.0
 10
74.706396
 20
15.000636
 30
0.0
 10
73.263036
 20
15.540668
 30
0.0
 10
72.097020
 20
16.133444
 30
0.0
 10
71.208348
 20
16.778956
 30
0.0
 10
70.285500
 20
17.776020
 30
0.0
 10
69.626316
 20
18.876604
 30
0.0
 10
69.230812
 20
20.080708
 30
0.0
 10
69.098972
 20
21.388332
 30
0.0
 10
69.160972
 20
22.249164
 30
0.0
 10
69.347012
 20
23.081684
 30
0.0
 10
69.657068
 20
23.885884
 30
0.0
 10
70.091156
 20
24.661772
 30
0.0
 10
70.641932
 20
25.378076
 30
0.0
 10
71.302084
 20
26.003556
 30
0.0
 10
72.071620
 20
26.538228
 30
0.0
 10
72.950532
 20
26.982084
 30
0.0
 10
73.932460
 20
27.330700
 30
0.0
 10
75.011068
 20
27.579724
 30
0.0
 10
76.186364
 20
27.729140
 30
0.0
 10
77.458340
 20
27.778980
 30
0.0
 10
79.481284
 20
27.660804
 30
0.0
 10
81.237628
 20
27.306316
 30
0.0
 10
82.727380
 20
26.715492
 30
0.0
 10
83.950532
 20
25.888356
 30
0.0
 10
84.910972
 20
24.863932
 30
0.0
 10
85.612628
 20
23.681308
 30
0.0
 10
86.055500
 20
22.340492
 30
0.0
 10
86.239588
 20
20.841484
 30
0.0
 10
85.083340
 20
20.790684
 30
0.0
 10
83.927092
 20
20.739884
 30
0.0
 10
82.770844
 20
20.689084
 30
0.0
 10
81.614596
 20
20.638284
 30
0.0
 10
81.423668
 20
21.459076
 30
0.0
 10
81.147780
 20
22.155852
 30
0.0
 10
80.786948
 20
22.728612
 30
0.0
 10
80.341156
 20
23.177348
 30
0.0
 10
79.791828
 20
23.515716
 30
0.0
 10
79.120444
 20
23.757412
 30
0.0
 10
78.326988
 20
23.902436
 30
0.0
 10
77.411468
 20
23.950756
 30
0.0
 10
76.458340
 20
23.898996
 30
0.0
 10
75.614588
 20
23.743716
 30
0.0
 10
74.880212
 20
23.484932
 30
0.0
 10
74.255220
 20
23.122636
 30
0.0
 10
73.933924
 20
22.834540
 30
0.0
 10
73.704428
 20
22.501532
 30
0.0
 10
73.566740
 20
22.123604
 30
0.0
 10
73.520820
 20
21.700764
 30
0.0
 10
73.563780
 20
21.309148
 30
0.0
 10
73.692684
 20
20.946844
 30
0.0
 10
73.907524
 20
20.613844
 30
0.0
 10
74.208308
 20
20.310140
 30
0.0
 10
74.802052
 20
19.939036
 30
0.0
 10
75.708300
 20
19.560124
 30
0.0
 10
76.927052
 20
19.173412
 30
0.0
 10
78.458308
 20
18.778884
 30
0.0
 10
80.035940
 20
18.377020
 30
0.0
 10
81.393844
 20
17.968332
 30
0.0
 10
82.532036
 20
17.552804
 30
0.0
 10
83.450500
 20
17.130452
 30
0.0
 10
84.215140
 20
16.665604
 30
0.0
 10
84.891892
 20
16.122628
 30
0.0
 10
85.480764
 20
15.501540
 30
0.0
 10
85.981748
 20
14.802324
 30
0.0
 10
86.381636
 20
14.020580
 30
0.0
 10
86.667276
 20
13.151924
 30
0.0
 10
86.838668
 20
12.196364
 30
0.0
 10
86.895788
 20
11.153884
 30
0.0
 10
86.827388
 20
10.185132
 30
0.0
 10
86.622308
 20
9.247636
 30
0.0
 10
86.280516
 20
8.341388
 30
0.0
 10
85.802012
 20
7.466388
 30
0.0
 10
85.198484
 20
6.662188
 30
0.0
 10
84.481684
 20
5.968340
 30
0.0
 10
83.651612
 20
5.384844
 30
0.0
 10
82.708260
 20
4.911700
 30
0.0
 10
81.646732
 20
4.545972
 30
0.0
 10
80.462164
 20
4.284748
 30
0.0
 10
79.154548
 20
4.128012
 30
0.0
 10
77.723884
 20
4.075772
 30
0.0
 10
75.677980
 20
4.201260
 30
0.0
 10
73.884036
 20
4.577724
 30
0.0
 10
72.342052
 20
5.205164
 30
0.0
 10
71.052012
 20
6.083580
 30
0.0
 10
70.005132
 20
7.202236
 30
0.0
 10
69.192636
 20
8.550380
 30
0.0
 10
68.614508
 20
10.128020
 30
0.0
 10
68.270828
 20
11.935244
 30
0.0
  0
LWPOLYLINE
  5
10d
100
AcDbEntity
  8
Layer_1
 62
7
100
AcDbPolyline
 90
17
 70
0
 10
90.677076
 20
4.482116
 30
0.0
 10
90.677076
 20
10.208676
 30
0.0
 10
90.677076
 20
15.935236
 30
0.0
 10
90.677076
 20
21.661804
 30
0.0
 10
90.677076
 20
27.388364
 30
0.0
 10
91.833324
 20
27.388364
 30
0.0
 10
92.989572
 20
27.388364
 30
0.0
 10
94.145828
 20
27.388364
 30
0.0
 10
95.302076
 20
27.388364
 30
0.0
 10
95.302076
 20
21.661804
 30
0.0
 10
95.302076
 20
15.935236
 30
0.0
 10
95.302076
 20
10.208676
 30
0.0
 10
95.302076
 20
4.482116
 30
0.0
 10
94.145828
 20
4.482116
 30
0.0
 10
92.989572
 20
4.482116
 30
0.0
 10
91.833324
 20
4.482116
 30
0.0
 10
90.677076
 20
4.482116
 30
0.0
  0
LWPOLYLINE
  5
10e
100
AcDbEntity
  8
Layer_1
 62
7
100
AcDbPolyline
 90
121
 70
0
 10
98.520828
 20
11.935244
 30
0.0
 10
99.645828
 20
12.044620
 30
0.0
 10
100.770828
 20
12.153996
 30
0.0
 10
101.895828
 20
12.263364
 30
0.0
 10
103.020828
 20
12.372740
 30
0.0
 10
103.276196
 20
11.315116
 30
0.0
 10
103.636052
 20
10.407892
 30
0.0
 10
104.100412
 20
9.651060
 30
0.0
 10
104.669260
 20
9.044620
 30
0.0
 10
105.344548
 20
8.579772
 30
0.0
 10
106.128244
 20
8.247740
 30
0.0
 10
107.020332
 20
8.048524
 30
0.0
 10
108.020828
 20
7.982124
 30
0.0
 10
109.069156
 20
8.041164
 30
0.0
 10
109.979796
 20
8.218412
 30
0.0
 10
110.752748
 20
8.513820
 30
0.0
 10
111.388012
 20
8.927396
 30
0.0
 10
111.883612
 20
9.420068
 30
0.0
 10
112.237612
 20
9.952788
 30
0.0
 10
112.450020
 20
10.525540
 30
0.0
 10
112.520820
 20
11.138332
 30
0.0
 10
112.491060
 20
11.529444
 30
0.0
 10
112.401700
 20
11.890284
 30
0.0
 10
112.252772
 20
12.220852
 30
0.0
 10
112.044284
 20
12.521148
 30
0.0
 10
111.761564
 20
12.797020
 30
0.0
 10
111.389980
 20
13.054340
 30
0.0
 10
110.929532
 20
13.293116
 30
0.0
 10
110.380228
 20
13.513332
 30
0.0
 10
109.844084
 20
13.681300
 30
0.0
 10
109.048188
 20
13.903956
 30
0.0
 10
107.992524
 20
14.181300
 30
0.0
 10
106.677100
 20
14.513332
 30
0.0
 10
104.956396
 20
15.000636
 30
0.0
 10
103.513036
 20
15.540668
 30
0.0
 10
102.347020
 20
16.133444
 30
0.0
 10
101.458348
 20
16.778956
 30
0.0
 10
100.535500
 20
17.776020
 30
0.0
 10
99.876316
 20
18.876604
 30
0.0
 10
99.480812
 20
20.080708
 30
0.0
 10
99.348972
 20
21.388332
 30
0.0
 10
99.410972
 20
22.249164
 30
0.0
 10
99.597012
 20
23.081684
 30
0.0
 10
99.907068
 20
23.885884
 30
0.0
 10
100.341156
 20
24.661772
 30
0.0
 10
100.891932
 20
25.378076
 30
0.0
 10
101.552084
 20
26.003556
 30
0.0
 10
102.321620
 20
26.538228
 30
0.0
 10
103.200532
 20
26.982084
 30
0.0
 10
104.182460
 20
27.330700
 30
0.0
 10
105.261068
 20
27.579724
 30
0.0
 10
106.436364
 20
27.729140
 30
0.0
 10
107.708340
 20
27.778980
 30
0.0
 10
109.731284
 20
27.660804
 30
0.0
 10
111.487628
 20
27.306316
 30
0.0
 10
112.977380
 20
26.715492
 30
0.0
 10
114.200532
 20
25.888356
 30
0.0
 10
115.160972
 20
24.863932
 30
0.0
 10
115.862628
 20
23.681308
 30
0.0
 10
116.305500
 20
22.340492
 30
0.0
 10
116.489588
 20
20.841484
 30
0.0
 10
115.333340
 20
20.790684
 30
0.0
 10
114.177092
 20
20.739884
 30
0.0
 10
113.020836
 20
20.689084
 30
0.0
 10
111.864588
 20
20.638284
 30
0.0
 10
111.673660
 20
21.459076
 30
0.0
 10
111.397780
 20
22.155852
 30
0.0
 10
111.036948
 20
22.728612
 30
0.0
 10
110.591156
 20
23.177348
 30
0.0
 10
110.041828
 20
23.515716
 30
0.0
 10
109.370444
 20
23.757412
 30
0.0
 10
108.576988
 20
23.902436
 30
0.0
 10
107.661468
 20
23.950756
 30
0.0
 10
106.708340
 20
23.898996
 30
0.0
 10
105.864588
 20
23.743716
 30
0.0
 10
105.130212
 20
23.484932
 30
0.0
 10
104.505220
 20
23.122636
 30
0.0
 10
104.183924
 20
22.834540
 30
0.0
 10
103.954428
 20
22.501532
 30
0.0
 10
103.816740
 20
22.123604
 30
0.0
 10
103.770820
 20
21.700764
 30
0.0
 10
103.813780
 20
21.309148
 30
0.0
 10
103.942684
 20
20.946844
 30
0.0
 10
104.157524
 20
20.613844
 30
0.0
 10
104.458308
 20
20.310140
 30
0.0
 10
105.052052
 20
19.939036
 30
0.0
 10
105.958300
 20
19.560124
 30
0.0
 10
107.177052
 20
19.173412
 30
0.0
 10
108.708308
 20
18.778884
 30
0.0
 10
110.285940
 20
18.377020
 30
0.0
 10
111.643844
 20
17.968332
 30
0.0
 10
112.782036
 20
17.552804
 30
0.0
 10
113.700500
 20
17.130452
 30
0.0
 10
114.465140
 20
16.665604
 30
0.0
 10
115.141892
 20
16.122628
 30
0.0
 10
115.730764
 20
15.501540
 30
0.0
 10
116.231748
 20
14.802324
 30
0.0
 10
116.631636
 20
14.020580
 30
0.0
 10
116.917276
 20
13.151924
 30
0.0
 10
117.088668
 20
12.196364
 30
0.0
 10
117.145788
 20
11.153884
 30
0.0
 10
117.077388
 20
10.185132
 30
0.0
 10
116.872308
 20
9.247636
 30
0.0
 10
116.530516
 20
8.341388
 30
0.0
 10
116.052012
 20
7.466388
 30
0.0
 10
115.448484
 20
6.662188
 30
0.0
 10
114.731684
 20
5.968340
 30
0.0
 10
113.901612
 20
5.384844
 30
0.0
 10
112.958260
 20
4.911700
 30
0.0
 10
111.896732
 20
4.545972
 30
0.0
 10
110.712164
 20
4.284748
 30
0.0
 10
109.404548
 20
4.128012
 30
0.0
 10
107.973884
 20
4.075772
 30
0.0
 10
105.927980
 20
4.201260
 30
0.0
 10
104.134036
 20
4.577724
 30
0.0
 10
102.592052
 20
5.205164
 30
0.0
 10
101.302012
 20
6.083580
 30
0.0
 10
100.255132
 20
7.202236
 30
0.0
 10
99.442636
 20
8.550380
 30
0.0
 10
98.864508
 20
10.128020
 30
0.0
 10
98.520828
 20
11.935244
 30
0.0
  0
ENDSEC
  0
SECTION
  2
OBJECTS
  0
DICTIONARY
  5
C
330
0
100
AcDbDictionary
  3
ACAD_GROUP
350
D
  3
ACAD_MLINESTYLE
350
17
  0
DICTIONARY
  5
D
330
C
100
AcDbDictionary
  0
DICTIONARY
  5
1A
330
C
100
AcDbDictionary
  0
DICTIONARY
  5
17
330
C
100
AcDbDictionary
  3
STANDARD
350
18
  0
DICTIONARY
  5
19
330
C
100
AcDbDictionary
  0
ENDSEC
  0
EOF
