  0
SECTION
  2
HEADER
  9
$ACADVER
  1
AC1014
  9
$HANDSEED
  5
FFFF
  9
$MEASUREMENT
 70
     1
  0
ENDSEC
  0
SECTION
  2
TABLES
  0
TABLE
  2
VPORT
  5
8
330
0
100
AcDbSymbolTable
 70
     4
  0
VPORT
  5
2E
330
8
100
AcDbSymbolTableRecord
100
AcDbViewportTableRecord
  2
*ACTIVE
 70
     0
 10
0.0
 20
0.0
 11
1.0
 21
1.0
 12
210.0
 22
148.5
 13
0.0
 23
0.0
 14
10.0
 24
10.0
 15
10.0
 25
10.0
 16
0.0
 26
0.0
 36
1.0
 17
0.0
 27
0.0
 37
0.0
 40
341.0
 41
1.24
 42
50.0
 43
0.0
 44
0.0
 50
0.0
 51
0.0
 71
     0
 72
   100
 73
     1
 74
     3
 75
     0
 76
     0
 77
     0
 78
     0
  0
ENDTAB
  0
TABLE
  2
LTYPE
  5
5
330
0
100
AcDbSymbolTable
 70
     1
  0
LTYPE
  5
14
330
5
100
AcDbSymbolTableRecord
100
AcDbLinetypeTableRecord
  2
BYBLOCK
 70
     0
  3

 72
    65
 73
     0
 40
0.0
  0
LTYPE
  5
15
330
5
100
AcDbSymbolTableRecord
100
AcDbLinetypeTableRecord
  2
BYLAYER
 70
     0
  3

 72
    65
 73
     0
 40
0.0
  0
LTYPE
  5
16
330
5
100
AcDbSymbolTableRecord
100
AcDbLinetypeTableRecord
  2
CONTINUOUS
 70
     0
  3
Solid line
 72
    65
 73
     0
 40
0.0
  0
ENDTAB
  0
TABLE
  2
LAYER
  5
2
100
AcDbSymbolTable
 70
2
  0
LAYER
  5
50
100
AcDbSymbolTableRecord
100
AcDbLayerTableRecord
  2
0
 70
0
  6
CONTINUOUS
  0
LAYER
  5
51
100
AcDbSymbolTableRecord
100
AcDbLayerTableRecord
  2
Layer_1
 70
0
  6
CONTINUOUS
  0
ENDTAB
  0
TABLE
  2
STYLE
  5
3
330
0
100
AcDbSymbolTable
 70
     1
  0
STYLE
  5
11
330
3
100
AcDbSymbolTableRecord
100
AcDbTextStyleTableRecord
  2
STANDARD
 70
     0
 40
0.0
 41
1.0
 50
0.0
 71
     0
 42
2.5
  3
txt
  4

  0
ENDTAB
  0
TABLE
  2
VIEW
  5
6
330
0
100
AcDbSymbolTable
 70
     0
  0
ENDTAB
  0
TABLE
  2
UCS
  5
7
330
0
100
AcDbSymbolTable
 70
     0
  0
ENDTAB
  0
TABLE
  2
APPID
  5
9
330
0
100
AcDbSymbolTable
 70
     2
  0
APPID
  5
12
330
9
100
AcDbSymbolTableRecord
100
AcDbRegAppTableRecord
  2
ACAD
 70
     0
  0
ENDTAB
  0
TABLE
  2
DIMSTYLE
  5
A
330
0
100
AcDbSymbolTable
 70
     1
  0
DIMSTYLE
105
27
330
A
100
AcDbSymbolTableRecord
100
AcDbDimStyleTableRecord
  2
ISO-25
 70
     0
  3

  4

  5

  6

  7

 40
1.0
 41
2.5
 42
0.625
 43
3.75
 44
1.25
 45
0.0
 46
0.0
 47
0.0
 48
0.0
140
2.5
141
2.5
142
0.0
143
0.03937007874016
144
1.0
145
0.0
146
1.0
147
0.625
 71
     0
 72
     0
 73
     0
 74
     0
 75
     0
 76
     0
 77
     1
 78
     8
170
     0
171
     3
172
     1
173
     0
174
     0
175
     0
176
     0
177
     0
178
     0
270
     2
271
     2
272
     2
273
     2
274
     3
340
11
275
     0
280
     0
281
     0
282
     0
283
     0
284
     8
285
     0
286
     0
287
     3
288
     0
  0
ENDTAB
  0
TABLE
  2
BLOCK_RECORD
  5
1
330
0
100
AcDbSymbolTable
 70
     1
  0
BLOCK_RECORD
  5
1F
330
1
100
AcDbSymbolTableRecord
100
AcDbBlockTableRecord
  2
*MODEL_SPACE
  0
BLOCK_RECORD
  5
1B
330
1
100
AcDbSymbolTableRecord
100
AcDbBlockTableRecord
  2
*PAPER_SPACE
  0
ENDTAB
  0
ENDSEC
  0
SECTION
  2
BLOCKS
  0
BLOCK
  5
20
330
1F
100
AcDbEntity
  8
0
100
AcDbBlockBegin
  2
*MODEL_SPACE
 70
     0
 10
0.0
 20
0.0
 30
0.0
  3
*MODEL_SPACE
  1

  0
ENDBLK
  5
21
330
1F
100
AcDbEntity
  8
0
100
AcDbBlockEnd
  0
BLOCK
  5
1C
330
1B
100
AcDbEntity
 67
     1
  8
0
100
AcDbBlockBegin
  2
*PAPER_SPACE
  1

  0
ENDBLK
  5
1D
330
1B
100
AcDbEntity
 67
     1
  8
0
100
AcDbBlockEnd
  0
ENDSEC
  0
SECTION
  2
ENTITIES
  0
LWPOLYLINE
  5
100
100
AcDbEntity
  8
Layer_1
 62
7
100
AcDbPolyline
 90
39
 70
0
 10
35.931250
 20
60.076412
 30
0.0
 10
32.892187
 20
71.529532
 30
0.0
 10
29.853125
 20
82.982660
 30
0.0
 10
31.407812
 20
82.982660
 30
0.0
 10
32.962500
 20
82.982660
 30
0.0
 10
34.704687
 20
75.474844
 30
0.0
 10
36.446875
 20
67.967036
 30
0.0
 10
36.970307
 20
65.615476
 30
0.0
 10
37.415625
 20
63.279540
 30
0.0
 10
38.110931
 20
66.174068
 30
0.0
 10
38.446875
 20
67.513916
 30
0.0
 10
40.626562
 20
75.248284
 30
0.0
 10
42.806250
 20
82.982660
 30
0.0
 10
44.634374
 20
82.982660
 30
0.0
 10
46.462500
 20
82.982660
 30
0.0
 10
48.103125
 20
77.185788
 30
0.0
 10
49.743750
 20
71.388916
 30
0.0
 10
50.806234
 20
67.205316
 30
0.0
 10
51.525000
 20
63.279540
 30
0.0
 10
52.028889
 20
65.611564
 30
0.0
 10
52.665625
 20
68.263916
 30
0.0
 10
54.462500
 20
75.623284
 30
0.0
 10
56.259375
 20
82.982660
 30
0.0
 10
57.782812
 20
82.982660
 30
0.0
 10
59.306250
 20
82.982660
 30
0.0
 10
56.165625
 20
71.529532
 30
0.0
 10
53.025000
 20
60.076412
 30
0.0
 10
51.564062
 20
60.076412
 30
0.0
 10
50.103125
 20
60.076412
 30
0.0
 10
47.689062
 20
68.802972
 30
0.0
 10
45.275000
 20
77.529540
 30
0.0
 10
44.790614
 20
79.295148
 30
0.0
 10
44.556250
 20
80.217036
 30
0.0
 10
44.208582
 20
78.756084
 30
0.0
 10
43.884375
 20
77.529540
 30
0.0
 10
41.454687
 20
68.802972
 30
0.0
 10
39.025000
 20
60.076412
 30
0.0
 10
37.478125
 20
60.076412
 30
0.0
 10
35.931250
 20
60.076412
 30
0.0
  0
LWPOLYLINE
  5
101
100
AcDbEntity
  8
Layer_1
 62
7
100
AcDbPolyline
 90
9
 70
0
 10
62.634375
 20
60.076412
 30
0.0
 10
62.634375
 20
71.529532
 30
0.0
 10
62.634375
 20
82.982660
 30
0.0
 10
64.150000
 20
82.982660
 30
0.0
 10
65.665625
 20
82.982660
 30
0.0
 10
65.665625
 20
71.529532
 30
0.0
 10
65.665625
 20
60.076412
 30
0.0
 10
64.150000
 20
60.076412
 30
0.0
 10
62.634375
 20
60.076412
 30
0.0
  0
LWPOLYLINE
  5
102
100
AcDbEntity
  8
Layer_1
 62
7
100
AcDbPolyline
 90
13
 70
0
 10
70.868750
 20
60.076412
 30
0.0
 10
70.868750
 20
71.529532
 30
0.0
 10
70.868750
 20
82.982660
 30
0.0
 10
72.384374
 20
82.982660
 30
0.0
 10
73.900000
 20
82.982660
 30
0.0
 10
73.900000
 20
72.881100
 30
0.0
 10
73.900000
 20
62.779540
 30
0.0
 10
79.540624
 20
62.779540
 30
0.0
 10
85.181248
 20
62.779540
 30
0.0
 10
85.181248
 20
61.427972
 30
0.0
 10
85.181248
 20
60.076412
 30
0.0
 10
78.024999
 20
60.076412
 30
0.0
 10
70.868750
 20
60.076412
 30
0.0
  0
LWPOLYLINE
  5
103
100
AcDbEntity
  8
Layer_1
 62
7
100
AcDbPolyline
 90
25
 70
0
 10
88.806248
 20
60.076412
 30
0.0
 10
88.806248
 20
71.529532
 30
0.0
 10
88.806248
 20
82.982660
 30
0.0
 10
92.751560
 20
82.982660
 30
0.0
 10
96.696872
 20
82.982660
 30
0.0
 10
99.052336
 20
82.900612
 30
0.0
 10
100.775000
 20
82.654540
 30
0.0
 10
102.599208
 20
82.017804
 30
0.0
 10
104.134376
 20
81.013916
 30
0.0
 10
105.718344
 20
79.269756
 30
0.0
 10
106.845312
 20
77.099852
 30
0.0
 10
107.519128
 20
74.547100
 30
0.0
 10
107.743752
 20
71.654540
 30
0.0
 10
107.591392
 20
69.193596
 30
0.0
 10
107.134376
 20
67.029540
 30
0.0
 10
106.439048
 20
65.187740
 30
0.0
 10
105.571872
 20
63.693604
 30
0.0
 10
104.573816
 20
62.513908
 30
0.0
 10
103.485936
 20
61.615476
 30
0.0
 10
102.235928
 20
60.949460
 30
0.0
 10
100.751560
 20
60.467036
 30
0.0
 10
99.030848
 20
60.174068
 30
0.0
 10
97.071872
 20
60.076412
 30
0.0
 10
92.939064
 20
60.076412
 30
0.0
 10
88.806248
 20
60.076412
 30
0.0
  0
LWPOLYLINE
  5
104
100
AcDbEntity
  8
Layer_1
 62
7
100
AcDbPolyline
 90
21
 70
0
 10
91.837504
 20
62.779540
 30
0.0
 10
94.282816
 20
62.779540
 30
0.0
 10
96.728128
 20
62.779540
 30
0.0
 10
98.749600
 20
62.885004
 30
0.0
 10
100.282816
 20
63.201412
 30
0.0
 10
101.441008
 20
63.709220
 30
0.0
 10
102.337504
 20
64.388916
 30
0.0
 10
103.296472
 20
65.652580
 30
0.0
 10
104.017184
 20
67.287348
 30
0.0
 10
104.468344
 20
69.301012
 30
0.0
 10
104.618752
 20
71.701412
 30
0.0
 10
104.323816
 20
74.879140
 30
0.0
 10
103.439064
 20
77.224852
 30
0.0
 10
102.132408
 20
78.836164
 30
0.0
 10
100.571872
 20
79.810788
 30
0.0
 10
98.982024
 20
80.162332
 30
0.0
 10
96.650000
 20
80.279540
 30
0.0
 10
94.243752
 20
80.279540
 30
0.0
 10
91.837504
 20
80.279540
 30
0.0
 10
91.837504
 20
71.529540
 30
0.0
 10
91.837504
 20
62.779540
 30
0.0
  0
LWPOLYLINE
  5
105
100
AcDbEntity
  8
Layer_1
 62
7
100
AcDbPolyline
 90
13
 70
0
 10
111.806248
 20
60.076412
 30
0.0
 10
111.806248
 20
71.529532
 30
0.0
 10
111.806248
 20
82.982660
 30
0.0
 10
113.321872
 20
82.982660
 30
0.0
 10
114.837496
 20
82.982660
 30
0.0
 10
114.837496
 20
72.881100
 30
0.0
 10
114.837496
 20
62.779540
 30
0.0
 10
120.478128
 20
62.779540
 30
0.0
 10
126.118752
 20
62.779540
 30
0.0
 10
126.118752
 20
61.427972
 30
0.0
 10
126.118752
 20
60.076412
 30
0.0
 10
118.962496
 20
60.076412
 30
0.0
 10
111.806248
 20
60.076412
 30
0.0
  0
LWPOLYLINE
  5
106
100
AcDbEntity
  8
Layer_1
 62
7
100
AcDbPolyline
 90
9
 70
0
 10
130.259376
 20
60.076412
 30
0.0
 10
130.259376
 20
71.529532
 30
0.0
 10
130.259376
 20
82.982660
 30
0.0
 10
131.775000
 20
82.982660
 30
0.0
 10
133.290624
 20
82.982660
 30
0.0
 10
133.290624
 20
71.529532
 30
0.0
 10
133.290624
 20
60.076412
 30
0.0
 10
131.775000
 20
60.076412
 30
0.0
 10
130.259376
 20
60.076412
 30
0.0
  0
LWPOLYLINE
  5
107
100
AcDbEntity
  8
Layer_1
 62
7
100
AcDbPolyline
 90
21
 70
0
 10
138.775000
 20
60.076412
 30
0.0
 10
138.775000
 20
71.529532
 30
0.0
 10
138.775000
 20
82.982660
 30
0.0
 10
146.501560
 20
82.982660
 30
0.0
 10
154.228128
 20
82.982660
 30
0.0
 10
154.228128
 20
81.631100
 30
0.0
 10
154.228128
 20
80.279540
 30
0.0
 10
148.017184
 20
80.279540
 30
0.0
 10
141.806248
 20
80.279540
 30
0.0
 10
141.806248
 20
76.732660
 30
0.0
 10
141.806248
 20
73.185788
 30
0.0
 10
147.181248
 20
73.185788
 30
0.0
 10
152.556248
 20
73.185788
 30
0.0
 10
152.556248
 20
71.834220
 30
0.0
 10
152.556248
 20
70.482660
 30
0.0
 10
147.181248
 20
70.482660
 30
0.0
 10
141.806248
 20
70.482660
 30
0.0
 10
141.806248
 20
65.279532
 30
0.0
 10
141.806248
 20
60.076412
 30
0.0
 10
140.290624
 20
60.076412
 30
0.0
 10
138.775000
 20
60.076412
 30
0.0
  0
LWPOLYLINE
  5
108
100
AcDbEntity
  8
Layer_1
 62
7
100
AcDbPolyline
 90
25
 70
0
 10
158.243752
 20
60.076412
 30
0.0
 10
158.243752
 20
71.529532
 30
0.0
 10
158.243752
 20
82.982660
 30
0.0
 10
166.525000
 20
82.982660
 30
0.0
 10
174.806248
 20
82.982660
 30
0.0
 10
174.806248
 20
81.631100
 30
0.0
 10
174.806248
 20
80.279540
 30
0.0
 10
168.040624
 20
80.279540
 30
0.0
 10
161.275000
 20
80.279540
 30
0.0
 10
161.275000
 20
76.771724
 30
0.0
 10
161.275000
 20
73.263916
 30
0.0
 10
167.610936
 20
73.263916
 30
0.0
 10
173.946872
 20
73.263916
 30
0.0
 10
173.946872
 20
71.920164
 30
0.0
 10
173.946872
 20
70.576412
 30
0.0
 10
167.610936
 20
70.576412
 30
0.0
 10
161.275000
 20
70.576412
 30
0.0
 10
161.275000
 20
66.677972
 30
0.0
 10
161.275000
 20
62.779540
 30
0.0
 10
168.306248
 20
62.779540
 30
0.0
 10
175.337496
 20
62.779540
 30
0.0
 10
175.337496
 20
61.427972
 30
0.0
 10
175.337496
 20
60.076412
 30
0.0
 10
166.790624
 20
60.076412
 30
0.0
 10
158.243752
 20
60.076412
 30
0.0
  0
LWPOLYLINE
  5
109
100
AcDbEntity
  8
Layer_1
 62
7
100
AcDbPolyline
 90
45
 70
0
 10
36.712500
 20
28.107684
 30
0.0
 10
38.228125
 20
27.724884
 30
0.0
 10
39.743750
 20
27.342004
 30
0.0
 10
38.409750
 20
24.051044
 30
0.0
 10
36.314062
 20
21.646724
 30
0.0
 10
33.562103
 20
20.176004
 30
0.0
 10
30.259375
 20
19.685764
 30
0.0
 10
26.901946
 20
20.062724
 30
0.0
 10
24.235938
 20
21.193604
 30
0.0
 10
22.192967
 20
23.039284
 30
0.0
 10
20.704687
 20
25.560804
 30
0.0
 10
19.796485
 20
28.525684
 30
0.0
 10
19.493750
 20
31.701444
 30
0.0
 10
19.835546
 20
35.051044
 30
0.0
 10
20.860938
 20
37.943604
 30
0.0
 10
22.517184
 20
40.287284
 30
0.0
 10
24.751562
 20
41.990476
 30
0.0
 10
27.401946
 20
43.027564
 30
0.0
 10
30.306250
 20
43.373284
 30
0.0
 10
33.470301
 20
42.935772
 30
0.0
 10
36.087500
 20
41.623284
 30
0.0
 10
38.075766
 20
39.517844
 30
0.0
 10
39.353125
 20
36.701444
 30
0.0
 10
37.860937
 20
36.349924
 30
0.0
 10
36.368750
 20
35.998324
 30
0.0
 10
35.392174
 20
38.158484
 30
0.0
 10
34.056250
 20
39.638884
 30
0.0
 10
32.345302
 20
40.494324
 30
0.0
 10
30.243750
 20
40.779524
 30
0.0
 10
27.819914
 20
40.463124
 30
0.0
 10
25.829687
 20
39.513924
 30
0.0
 10
24.319917
 20
38.031524
 30
0.0
 10
23.337500
 20
36.115444
 30
0.0
 10
22.798434
 20
33.949444
 30
0.0
 10
22.618750
 20
31.717044
 30
0.0
 10
22.831641
 20
28.980724
 30
0.0
 10
23.470313
 20
26.615444
 30
0.0
 10
24.558202
 20
24.711204
 30
0.0
 10
26.118750
 20
23.357684
 30
0.0
 10
27.989837
 20
22.549044
 30
0.0
 10
30.009375
 20
22.279524
 30
0.0
 10
32.360926
 20
22.646724
 30
0.0
 10
34.321875
 20
23.748324
 30
0.0
 10
35.802330
 20
25.572484
 30
0.0
 10
36.712500
 20
28.107684
 30
0.0
  0
LWPOLYLINE
  5
10a
100
AcDbEntity
  8
Layer_1
 62
7
100
AcDbPolyline
 90
39
 70
0
 10
43.540625
 20
20.076404
 30
0.0
 10
43.540625
 20
31.529524
 30
0.0
 10
43.540625
 20
42.982660
 30
0.0
 10
48.618750
 20
42.982660
 30
0.0
 10
53.696875
 20
42.982660
 30
0.0
 10
56.392176
 20
42.828348
 30
0.0
 10
58.353125
 20
42.365476
 30
0.0
 10
59.786705
 20
41.511924
 30
0.0
 10
60.900000
 20
40.185764
 30
0.0
 10
61.614828
 20
38.541204
 30
0.0
 10
61.853125
 20
36.732644
 30
0.0
 10
61.458578
 20
34.486564
 30
0.0
 10
60.275000
 20
32.623284
 30
0.0
 10
58.267174
 20
31.256084
 30
0.0
 10
55.400000
 20
30.498324
 30
0.0
 10
56.458582
 20
29.924084
 30
0.0
 10
57.228125
 20
29.357684
 30
0.0
 10
58.521081
 20
27.986564
 30
0.0
 10
59.743750
 20
26.310804
 30
0.0
 10
61.735937
 20
23.193604
 30
0.0
 10
63.728125
 20
20.076404
 30
0.0
 10
61.821874
 20
20.076404
 30
0.0
 10
59.915625
 20
20.076404
 30
0.0
 10
58.400000
 20
22.459204
 30
0.0
 10
56.884375
 20
24.842004
 30
0.0
 10
55.673426
 20
26.662324
 30
0.0
 10
54.696875
 20
27.998324
 30
0.0
 10
53.882412
 20
28.928004
 30
0.0
 10
53.157813
 20
29.529524
 30
0.0
 10
52.472257
 20
29.900644
 30
0.0
 10
51.775000
 20
30.138884
 30
0.0
 10
51.095305
 20
30.220884
 30
0.0
 10
50.087500
 20
30.248084
 30
0.0
 10
48.329687
 20
30.248084
 30
0.0
 10
46.571875
 20
30.248084
 30
0.0
 10
46.571875
 20
25.162164
 30
0.0
 10
46.571875
 20
20.076164
 30
0.0
 10
45.056250
 20
20.076164
 30
0.0
 10
43.540625
 20
20.076404
 30
0.0
  0
LWPOLYLINE
  5
10b
100
AcDbEntity
  8
Layer_1
 62
7
100
AcDbPolyline
 90
17
 70
0
 10
46.571875
 20
32.873284
 30
0.0
 10
49.829687
 20
32.873284
 30
0.0
 10
53.087500
 20
32.873284
 30
0.0
 10
54.939052
 20
32.980724
 30
0.0
 10
56.337500
 20
33.302964
 30
0.0
 10
57.368738
 20
33.861604
 30
0.0
 10
58.118750
 20
34.678004
 30
0.0
 10
58.575768
 20
35.664324
 30
0.0
 10
58.728125
 20
36.732644
 30
0.0
 10
58.433190
 20
38.213124
 30
0.0
 10
57.548438
 20
39.404564
 30
0.0
 10
56.026942
 20
40.189684
 30
0.0
 10
53.821875
 20
40.451444
 30
0.0
 10
50.196875
 20
40.451444
 30
0.0
 10
46.571875
 20
40.451444
 30
0.0
 10
46.571875
 20
36.662404
 30
0.0
 10
46.571875
 20
32.873284
 30
0.0
  0
LWPOLYLINE
  5
10c
100
AcDbEntity
  8
Layer_1
 62
7
100
AcDbPolyline
 90
23
 70
0
 10
65.696875
 20
31.232644
 30
0.0
 10
66.462498
 20
36.316644
 30
0.0
 10
68.759375
 20
40.162324
 30
0.0
 10
72.267185
 20
42.582252
 30
0.0
 10
76.665625
 20
43.388916
 30
0.0
 10
79.681238
 20
43.009988
 30
0.0
 10
82.384376
 20
41.873284
 30
0.0
 10
84.628504
 20
40.058804
 30
0.0
 10
86.267184
 20
37.646724
 30
0.0
 10
87.269128
 20
34.754164
 30
0.0
 10
87.603128
 20
31.498324
 30
0.0
 10
87.251544
 20
28.197524
 30
0.0
 10
86.196872
 20
25.263924
 30
0.0
 10
84.497640
 20
22.847924
 30
0.0
 10
82.212504
 20
21.099844
 30
0.0
 10
79.532806
 20
20.039284
 30
0.0
 10
76.650000
 20
19.685764
 30
0.0
 10
73.587493
 20
20.076404
 30
0.0
 10
70.868750
 20
21.248324
 30
0.0
 10
68.630466
 20
23.095924
 30
0.0
 10
67.009375
 20
25.513924
 30
0.0
 10
66.025002
 20
28.295204
 30
0.0
 10
65.696875
 20
31.232644
 30
0.0
  0
LWPOLYLINE
  5
10d
100
AcDbEntity
  8
Layer_1
 62
7
100
AcDbPolyline
 90
19
 70
0
 10
68.821875
 20
31.185444
 30
0.0
 10
69.378512
 20
27.484324
 30
0.0
 10
71.048438
 20
24.662004
 30
0.0
 10
73.558196
 20
22.874964
 30
0.0
 10
76.634375
 20
22.279204
 30
0.0
 10
79.753505
 20
22.880724
 30
0.0
 10
82.267184
 20
24.685444
 30
0.0
 10
83.925384
 20
27.595604
 30
0.0
 10
84.478128
 20
31.513604
 30
0.0
 10
84.241784
 20
34.132724
 30
0.0
 10
83.532816
 20
36.396404
 30
0.0
 10
82.368736
 20
38.247924
 30
0.0
 10
80.767184
 20
39.630804
 30
0.0
 10
78.835535
 20
40.492084
 30
0.0
 10
76.681250
 20
40.779204
 30
0.0
 10
73.687102
 20
40.226484
 30
0.0
 10
71.142187
 20
38.568244
 30
0.0
 10
69.401954
 20
35.617124
 30
0.0
 10
68.821875
 20
31.185444
 30
0.0
  0
LWPOLYLINE
  5
10e
100
AcDbEntity
  8
Layer_1
 62
7
100
AcDbPolyline
 90
71
 70
0
 10
90.462504
 20
27.435764
 30
0.0
 10
91.892192
 20
27.560804
 30
0.0
 10
93.321872
 20
27.685764
 30
0.0
 10
93.659760
 20
26.121284
 30
0.0
 10
94.267184
 20
24.865444
 30
0.0
 10
95.214448
 20
23.869364
 30
0.0
 10
96.571872
 20
23.084244
 30
0.0
 10
98.232024
 20
22.574484
 30
0.0
 10
100.087504
 20
22.404564
 30
0.0
 10
101.720304
 20
22.533444
 30
0.0
 10
103.150000
 20
22.920164
 30
0.0
 10
104.308192
 20
23.531524
 30
0.0
 10
105.126560
 20
24.334244
 30
0.0
 10
105.612880
 20
25.273684
 30
0.0
 10
105.775000
 20
26.295124
 30
0.0
 10
105.618736
 20
27.304964
 30
0.0
 10
105.150000
 20
28.178004
 30
0.0
 10
104.321864
 20
28.918244
 30
0.0
 10
103.087496
 20
29.529524
 30
0.0
 10
101.607024
 20
29.988564
 30
0.0
 10
99.009376
 20
30.646724
 30
0.0
 10
96.325776
 20
31.383044
 30
0.0
 10
94.587504
 20
32.076404
 30
0.0
 10
93.155856
 20
33.039284
 30
0.0
 10
92.142184
 20
34.209204
 30
0.0
 10
91.538672
 20
35.558804
 30
0.0
 10
91.337504
 20
37.060804
 30
0.0
 10
91.583592
 20
38.738564
 30
0.0
 10
92.321872
 20
40.302964
 30
0.0
 10
93.532808
 20
41.629124
 30
0.0
 10
95.196872
 20
42.592036
 30
0.0
 10
97.192968
 20
43.177964
 30
0.0
 10
99.400000
 20
43.373284
 30
0.0
 10
101.796472
 20
43.168196
 30
0.0
 10
103.892184
 20
42.552972
 30
0.0
 10
105.612880
 20
41.539284
 30
0.0
 10
106.884376
 20
40.138884
 30
0.0
 10
107.689048
 20
38.439684
 30
0.0
 10
108.009376
 20
36.529524
 30
0.0
 10
106.556256
 20
36.420164
 30
0.0
 10
105.103128
 20
36.310804
 30
0.0
 10
104.589440
 20
38.217044
 30
0.0
 10
103.517184
 20
39.592004
 30
0.0
 10
101.843352
 20
40.424084
 30
0.0
 10
99.525000
 20
40.701444
 30
0.0
 10
97.148040
 20
40.449444
 30
0.0
 10
95.517184
 20
39.693604
 30
0.0
 10
94.573824
 20
38.582244
 30
0.0
 10
94.259376
 20
37.263924
 30
0.0
 10
94.482032
 20
36.138884
 30
0.0
 10
95.150000
 20
35.232644
 30
0.0
 10
96.730072
 20
34.426004
 30
0.0
 10
99.720312
 20
33.599844
 30
0.0
 10
102.835536
 20
32.816644
 30
0.0
 10
104.790624
 20
32.138884
 30
0.0
 10
106.528896
 20
31.094004
 30
0.0
 10
107.743752
 20
29.802964
 30
0.0
 10
108.458576
 20
28.281444
 30
0.0
 10
108.696872
 20
26.545124
 30
0.0
 10
108.435144
 20
24.769764
 30
0.0
 10
107.650000
 20
23.099844
 30
0.0
 10
106.374592
 20
21.662324
 30
0.0
 10
104.642184
 20
20.584244
 30
0.0
 10
102.558192
 20
19.910404
 30
0.0
 10
100.228128
 20
19.685764
 30
0.0
 10
97.370696
 20
19.912324
 30
0.0
 10
95.017184
 20
20.592004
 30
0.0
 10
93.142184
 20
21.726804
 30
0.0
 10
91.720312
 20
23.318564
 30
0.0
 10
90.808200
 20
25.258084
 30
0.0
 10
90.462504
 20
27.435764
 30
0.0
  0
LWPOLYLINE
  5
10f
100
AcDbEntity
  8
Layer_1
 62
7
100
AcDbPolyline
 90
71
 70
0
 10
111.837496
 20
27.435764
 30
0.0
 10
113.267184
 20
27.560804
 30
0.0
 10
114.696872
 20
27.685764
 30
0.0
 10
115.034760
 20
26.121284
 30
0.0
 10
115.642184
 20
24.865444
 30
0.0
 10
116.589448
 20
23.869364
 30
0.0
 10
117.946872
 20
23.084244
 30
0.0
 10
119.607024
 20
22.574484
 30
0.0
 10
121.462496
 20
22.404564
 30
0.0
 10
123.095304
 20
22.533444
 30
0.0
 10
124.525000
 20
22.920164
 30
0.0
 10
125.683192
 20
23.531524
 30
0.0
 10
126.501560
 20
24.334244
 30
0.0
 10
126.987880
 20
25.273684
 30
0.0
 10
127.150000
 20
26.295124
 30
0.0
 10
126.993736
 20
27.304964
 30
0.0
 10
126.525000
 20
28.178004
 30
0.0
 10
125.696864
 20
28.918244
 30
0.0
 10
124.462496
 20
29.529524
 30
0.0
 10
122.982024
 20
29.988564
 30
0.0
 10
120.384376
 20
30.646724
 30
0.0
 10
117.700776
 20
31.383044
 30
0.0
 10
115.962496
 20
32.076404
 30
0.0
 10
114.530856
 20
33.039284
 30
0.0
 10
113.517184
 20
34.209204
 30
0.0
 10
112.913672
 20
35.558804
 30
0.0
 10
112.712496
 20
37.060804
 30
0.0
 10
112.958592
 20
38.738564
 30
0.0
 10
113.696872
 20
40.302964
 30
0.0
 10
114.907808
 20
41.629124
 30
0.0
 10
116.571872
 20
42.592036
 30
0.0
 10
118.567968
 20
43.177964
 30
0.0
 10
120.775000
 20
43.373284
 30
0.0
 10
123.171472
 20
43.168196
 30
0.0
 10
125.267184
 20
42.552972
 30
0.0
 10
126.987880
 20
41.539284
 30
0.0
 10
128.259376
 20
40.138884
 30
0.0
 10
129.064048
 20
38.439684
 30
0.0
 10
129.384376
 20
36.529524
 30
0.0
 10
127.931248
 20
36.420164
 30
0.0
 10
126.478128
 20
36.310804
 30
0.0
 10
125.964440
 20
38.217044
 30
0.0
 10
124.892184
 20
39.592004
 30
0.0
 10
123.218352
 20
40.424084
 30
0.0
 10
120.900000
 20
40.701444
 30
0.0
 10
118.523040
 20
40.449444
 30
0.0
 10
116.892184
 20
39.693604
 30
0.0
 10
115.948824
 20
38.582244
 30
0.0
 10
115.634376
 20
37.263924
 30
0.0
 10
115.857024
 20
36.138884
 30
0.0
 10
116.525000
 20
35.232644
 30
0.0
 10
118.105072
 20
34.426004
 30
0.0
 10
121.095312
 20
33.599844
 30
0.0
 10
124.210536
 20
32.816644
 30
0.0
 10
126.165624
 20
32.138884
 30
0.0
 10
127.903896
 20
31.094004
 30
0.0
 10
129.118752
 20
29.802964
 30
0.0
 10
129.833576
 20
28.281444
 30
0.0
 10
130.071872
 20
26.545124
 30
0.0
 10
129.810144
 20
24.769764
 30
0.0
 10
129.025000
 20
23.099844
 30
0.0
 10
127.749592
 20
21.662324
 30
0.0
 10
126.017184
 20
20.584244
 30
0.0
 10
123.933192
 20
19.910404
 30
0.0
 10
121.603128
 20
19.685764
 30
0.0
 10
118.745696
 20
19.912324
 30
0.0
 10
116.392184
 20
20.592004
 30
0.0
 10
114.517184
 20
21.726804
 30
0.0
 10
113.095312
 20
23.318564
 30
0.0
 10
112.183200
 20
25.258084
 30
0.0
 10
111.837496
 20
27.435764
 30
0.0
  0
LWPOLYLINE
  5
110
100
AcDbEntity
  8
Layer_1
 62
7
100
AcDbPolyline
 90
9
 70
0
 10
134.759376
 20
20.076404
 30
0.0
 10
134.759376
 20
31.529524
 30
0.0
 10
134.759376
 20
42.982660
 30
0.0
 10
136.275000
 20
42.982660
 30
0.0
 10
137.790624
 20
42.982660
 30
0.0
 10
137.790624
 20
31.529524
 30
0.0
 10
137.790624
 20
20.076404
 30
0.0
 10
136.275000
 20
20.076404
 30
0.0
 10
134.759376
 20
20.076404
 30
0.0
  0
LWPOLYLINE
  5
111
100
AcDbEntity
  8
Layer_1
 62
7
100
AcDbPolyline
 90
21
 70
0
 10
143.087496
 20
20.076404
 30
0.0
 10
143.087496
 20
31.529524
 30
0.0
 10
143.087496
 20
42.982660
 30
0.0
 10
144.642184
 20
42.982660
 30
0.0
 10
146.196872
 20
42.982660
 30
0.0
 10
152.212496
 20
33.990484
 30
0.0
 10
158.228128
 20
24.998324
 30
0.0
 10
158.228128
 20
33.990484
 30
0.0
 10
158.228128
 20
42.982660
 30
0.0
 10
159.681256
 20
42.982660
 30
0.0
 10
161.134376
 20
42.982660
 30
0.0
 10
161.134376
 20
31.529524
 30
0.0
 10
161.134376
 20
20.076404
 30
0.0
 10
159.579688
 20
20.076404
 30
0.0
 10
158.025000
 20
20.076404
 30
0.0
 10
152.009376
 20
29.076404
 30
0.0
 10
145.993752
 20
38.076404
 30
0.0
 10
145.993752
 20
29.076404
 30
0.0
 10
145.993752
 20
20.076404
 30
0.0
 10
144.540624
 20
20.076404
 30
0.0
 10
143.087496
 20
20.076404
 30
0.0
  0
LWPOLYLINE
  5
112
100
AcDbEntity
  8
Layer_1
 62
7
100
AcDbPolyline
 90
59
 70
0
 10
176.962496
 20
29.060804
 30
0.0
 10
176.962496
 20
30.404564
 30
0.0
 10
176.962496
 20
31.748324
 30
0.0
 10
181.814064
 20
31.756324
 30
0.0
 10
186.665624
 20
31.764324
 30
0.0
 10
186.665624
 20
27.514324
 30
0.0
 10
186.665624
 20
23.264324
 30
0.0
 10
184.396080
 20
21.703764
 30
0.0
 10
182.056248
 20
20.584644
 30
0.0
 10
179.649992
 20
19.910804
 30
0.0
 10
177.181248
 20
19.686164
 30
0.0
 10
173.960536
 20
20.047524
 30
0.0
 10
171.048440
 20
21.131524
 30
0.0
 10
168.628512
 20
22.899044
 30
0.0
 10
166.884376
 20
25.311204
 30
0.0
 10
165.829688
 20
28.205684
 30
0.0
 10
165.478128
 20
31.420564
 30
0.0
 10
165.827736
 20
34.652964
 30
0.0
 10
166.876560
 20
37.662724
 30
0.0
 10
168.581632
 20
40.188164
 30
0.0
 10
170.900000
 20
41.967436
 30
0.0
 10
173.724208
 20
43.022116
 30
0.0
 10
176.946872
 20
43.373684
 30
0.0
 10
179.312096
 20
43.172500
 30
0.0
 10
181.439064
 20
42.569004
 30
0.0
 10
183.230064
 20
41.606084
 30
0.0
 10
184.587496
 20
40.326804
 30
0.0
 10
185.591384
 20
38.670564
 30
0.0
 10
186.321872
 20
36.576804
 30
0.0
 10
184.954680
 20
36.201844
 30
0.0
 10
183.587496
 20
35.826804
 30
0.0
 10
183.009360
 20
37.389284
 30
0.0
 10
182.306248
 20
38.576804
 30
0.0
 10
181.376552
 20
39.477204
 30
0.0
 10
180.118752
 20
40.178404
 30
0.0
 10
178.618736
 20
40.629524
 30
0.0
 10
176.962496
 20
40.779924
 30
0.0
 10
175.024992
 20
40.621684
 30
0.0
 10
173.368752
 20
40.147124
 30
0.0
 10
171.999608
 20
39.414724
 30
0.0
 10
170.923440
 20
38.483044
 30
0.0
 10
170.097264
 20
37.400964
 30
0.0
 10
169.478128
 20
36.217444
 30
0.0
 10
168.821872
 20
34.002564
 30
0.0
 10
168.603128
 20
31.608084
 30
0.0
 10
168.866800
 20
28.795604
 30
0.0
 10
169.657816
 20
26.483044
 30
0.0
 10
170.952720
 20
24.686164
 30
0.0
 10
172.728128
 20
23.420564
 30
0.0
 10
174.806240
 20
22.670564
 30
0.0
 10
177.009376
 20
22.420564
 30
0.0
 10
178.954680
 20
22.610004
 30
0.0
 10
180.853128
 20
23.178404
 30
0.0
 10
182.501544
 20
23.961604
 30
0.0
 10
183.696872
 20
24.795524
 30
0.0
 10
183.696872
 20
26.928324
 30
0.0
 10
183.696872
 20
29.061204
 30
0.0
 10
180.329680
 20
29.061364
 30
0.0
 10
176.962496
 20
29.060804
 30
0.0
  0
ENDSEC
  0
SECTION
  2
OBJECTS
  0
DICTIONARY
  5
C
330
0
100
AcDbDictionary
  3
ACAD_GROUP
350
D
  3
ACAD_MLINESTYLE
350
17
  0
DICTIONARY
  5
D
330
C
100
AcDbDictionary
  0
DICTIONARY
  5
1A
330
C
100
AcDbDictionary
  0
DICTIONARY
  5
17
330
C
100
AcDbDictionary
  3
STANDARD
350
18
  0
DICTIONARY
  5
19
330
C
100
AcDbDictionary
  0
ENDSEC
  0
EOF
