<?xml version="1.0" encoding="UTF-8" standalone="no"?>
<svg
   xmlns:dc="http://purl.org/dc/elements/1.1/"
   xmlns:cc="http://creativecommons.org/ns#"
   xmlns:rdf="http://www.w3.org/1999/02/22-rdf-syntax-ns#"
   xmlns:svg="http://www.w3.org/2000/svg"
   xmlns="http://www.w3.org/2000/svg"
   xmlns:sodipodi="http://sodipodi.sourceforge.net/DTD/sodipodi-0.dtd"
   xmlns:inkscape="http://www.inkscape.org/namespaces/inkscape"
   width="744.094488189"
   height="1052.36220472"
   id="svg2985"
   version="1.1"
   inkscape:version="0.48.4 r9939"
   sodipodi:docname="midlife.dxf">
  <metadata
     id="metadata3009">
    <rdf:RDF>
      <cc:Work
         rdf:about="">
        <dc:format>image/svg+xml</dc:format>
        <dc:type
           rdf:resource="http://purl.org/dc/dcmitype/StillImage" />
        <dc:title></dc:title>
      </cc:Work>
    </rdf:RDF>
  </metadata>
  <sodipodi:namedview
     pagecolor="#ffffff"
     bordercolor="#666666"
     borderopacity="1"
     objecttolerance="10"
     gridtolerance="10"
     guidetolerance="10"
     inkscape:pageopacity="0"
     inkscape:pageshadow="2"
     inkscape:window-width="947"
     inkscape:window-height="839"
     id="namedview3007"
     showgrid="false"
     inkscape:zoom="2.2579563"
     inkscape:cx="178.42194"
     inkscape:cy="121.20118"
     inkscape:window-x="1306"
     inkscape:window-y="159"
     inkscape:window-maximized="0"
     inkscape:current-layer="g3005" />
  <desc
     id="desc2987">C:\transfer\midlife.dxf - scale = 1.000000</desc>
  <defs
     id="defs2989">
    <marker
       refY="0.0"
       refX="0.0"
       style="overflow:visible"
       id="DistanceX"
       orient="auto">
      <path
         style="stroke:#000000; stroke-width:0.5"
         d="M 3,-3 L -3,3 M 0,-5 L  0,5"
         id="path2992" />
    </marker>
    <pattern
       height="8"
       width="8"
       patternUnits="userSpaceOnUse"
       y="0"
       x="0"
       id="Hatch">
      <path
         linecap="square"
         stroke="#000000"
         stroke-width="0.25"
         d="M8 4 l-4,4"
         id="path2995" />
      <path
         linecap="square"
         stroke="#000000"
         stroke-width="0.25"
         d="M6 2 l-4,4"
         id="path2997" />
      <path
         linecap="square"
         stroke="#000000"
         stroke-width="0.25"
         d="M4 0 l-4,4"
         id="path2999" />
    </pattern>
    <symbol
       id="*MODEL_SPACE" />
    <symbol
       id="*PAPER_SPACE" />
  </defs>
  <g
     inkscape:label="0"
     inkscape:groupmode="layer"
     id="g3003" />
  <g
     inkscape:label="Layer_1"
     inkscape:groupmode="layer"
     id="g3005">
    <g
       transform="translate(-20.372405,130.64912)"
       style="font-size:40px;font-style:normal;font-weight:normal;text-align:center;line-height:125%;letter-spacing:0px;word-spacing:0px;text-anchor:middle;fill:#000000;fill-opacity:1;stroke:none;font-family:Sans"
       id="flowRoot3098" />
    <g
       style="font-size:40px;font-style:normal;font-weight:normal;line-height:125%;letter-spacing:0px;word-spacing:0px;fill:#000000;fill-opacity:1;stroke:none;font-family:Sans"
       id="flowRoot3135" />
    <g
       style="font-size:40px;font-style:normal;font-weight:normal;text-align:center;line-height:125%;letter-spacing:0px;word-spacing:0px;text-anchor:middle;fill:#000000;fill-opacity:1;stroke:none;font-family:Sans"
       id="flowRoot3147">
      <path
         d="m 44.914062,977.26669 -3.798828,-14.3164 -3.798828,-14.31641 1.943359,0 1.94336,0 2.177734,9.38477 2.177735,9.38476 0.65429,2.93945 0.556647,2.91992 0.869133,-3.61816 0.41993,-1.67481 2.724609,-9.66796 2.724609,-9.66797 2.285156,0 2.285157,0 2.050781,7.24609 2.050781,7.24609 1.328106,5.2295 0.898457,4.90722 0.629861,-2.91503 0.79592,-3.31544 2.246094,-9.19921 2.246094,-9.19922 1.904296,0 1.904297,0 -3.925781,14.31641 -3.925781,14.3164 -1.826172,0 -1.826172,0 -3.017578,-10.9082 -3.017578,-10.90821 -0.605483,-2.20701 -0.292955,-1.15236 -0.434584,1.82619 -0.405259,1.53318 -3.03711,10.90821 -3.037109,10.9082 -1.933594,0 z"
         id="path3159"
         inkscape:connector-curvature="0"
         sodipodi:nodetypes="ccccccccccccccccccccccccccccccccccccccc" />
      <path
         d="m 78.292969,977.26669 0,-14.3164 0,-14.31641 1.894531,0 1.894531,0 0,14.31641 0,14.3164 -1.894531,0 z"
         id="path3161"
         inkscape:connector-curvature="0"
         sodipodi:nodetypes="ccccccccc" />
      <path
         d="m 88.585937,977.26669 0,-14.3164 0,-14.31641 1.894531,0 1.894532,0 0,12.62695 0,12.62695 7.05078,0 7.05078,0 0,1.68946 0,1.68945 -8.945311,0 z"
         id="path3163"
         inkscape:connector-curvature="0"
         sodipodi:nodetypes="ccccccccccccc" />
      <path
         d="m 111.00781,977.26669 0,-14.3164 0,-14.31641 4.93164,0 4.93164,0 2.94433,0.10256 2.15333,0.30759 2.28026,0.79592 1.91896,1.25486 1.97996,2.1802 1.40871,2.71238 0.84227,3.19094 0.28078,3.6157 -0.19045,3.07618 -0.57127,2.70507 -0.86916,2.30225 -1.08397,1.86767 -1.24757,1.47462 -1.35985,1.12304 -1.56251,0.83252 -1.85546,0.60303 -2.15089,0.36621 -2.44872,0.12207 -5.16601,0 z m 3.78907,-3.37891 3.05664,0 3.05664,0 2.52684,-0.13183 1.91652,-0.39551 1.44774,-0.63476 1.12062,-0.84962 1.19871,-1.57958 0.90089,-2.04346 0.56395,-2.51708 0.18801,-3.0005 -0.36867,-3.97216 -1.10594,-2.93214 -1.63332,-2.01414 -1.95067,-1.21828 -1.98731,-0.43943 -2.91503,-0.14651 -3.00781,0 -3.00781,0 0,10.9375 z"
         id="path3165"
         inkscape:connector-curvature="0"
         sodipodi:nodetypes="cccccccccccccccccccccccccccccccccccccccccccccc" />
      <path
         d="m 139.75781,977.26669 0,-14.3164 0,-14.31641 1.89453,0 1.89453,0 0,12.62695 0,12.62695 7.05079,0 7.05078,0 0,1.68946 0,1.68945 -8.94532,0 z"
         id="path3167"
         inkscape:connector-curvature="0"
         sodipodi:nodetypes="ccccccccccccc" />
      <path
         d="m 162.82422,977.26669 0,-14.3164 0,-14.31641 1.89453,0 1.89453,0 0,14.31641 0,14.3164 -1.89453,0 z"
         id="path3169"
         inkscape:connector-curvature="0"
         sodipodi:nodetypes="ccccccccc" />
      <path
         d="m 173.46875,977.26669 0,-14.3164 0,-14.31641 9.6582,0 9.65821,0 0,1.68945 0,1.68945 -7.76368,0 -7.76367,0 0,4.4336 0,4.43359 6.71875,0 6.71875,0 0,1.68946 0,1.68945 -6.71875,0 -6.71875,0 0,6.50391 0,6.5039 -1.89453,0 z"
         id="path3171"
         inkscape:connector-curvature="0"
         sodipodi:nodetypes="ccccccccccccccccccccc" />
      <path
         d="m 197.80469,977.26669 0,-14.3164 0,-14.31641 10.35156,0 10.35156,0 0,1.68945 0,1.68945 -8.45703,0 -8.45703,0 0,4.38477 0,4.38476 7.91992,0 7.91992,0 0,1.67969 0,1.67969 -7.91992,0 -7.91992,0 0,4.87305 0,4.87304 8.78906,0 8.78906,0 0,1.68946 0,1.68945 -10.68359,0 z"
         id="path3173"
         inkscape:connector-curvature="0"
         sodipodi:nodetypes="ccccccccccccccccccccccccc" />
      <path
         d="m 45.890625,1017.2276 1.894531,0.4785 1.894531,0.4786 -1.6675,4.1137 -2.619609,3.0054 -3.439949,1.8384 -4.12841,0.6128 -4.196786,-0.4712 -3.332511,-1.4136 -2.553713,-2.3071 -1.86035,-3.1519 -1.135253,-3.7061 -0.378419,-3.9697 0.427246,-4.187 1.281739,-3.6157 2.070308,-2.9296 2.792973,-2.12899 3.31298,-1.29636 3.630379,-0.43215 3.955064,0.54689 3.271499,1.64061 2.485332,2.6318 1.596699,3.5205 -1.865235,0.4394 -1.865234,0.4395 -1.220719,-2.7002 -1.669906,-1.8505 -2.138685,-1.0693 -2.62694,-0.3565 -3.029794,0.3955 -2.487784,1.1865 -1.887213,1.853 -1.228021,2.3951 -0.673833,2.7075 -0.224605,2.7905 0.266114,3.4204 0.79834,2.9566 1.359862,2.3803 1.950684,1.6919 2.338859,1.0108 2.524423,0.3369 2.939439,-0.459 2.451186,-1.377 1.850569,-2.2802 z"
         id="path3175"
         inkscape:connector-curvature="0"
         sodipodi:nodetypes="ccccccccccccccccccccccccccccccccccccccccccccc" />
      <path
         d="m 54.425781,1027.2667 0,-14.3164 0,-14.31642 6.347656,0 6.347657,0 3.369126,0.19289 2.451186,0.57859 1.791975,1.06694 1.391619,1.6577 0.893535,2.0557 0.297871,2.2607 -0.493183,2.8076 -1.479473,2.3291 -2.509782,1.709 -3.583968,0.9472 1.323228,0.7178 0.961928,0.708 1.616195,1.7139 1.528336,2.0947 2.490234,3.8965 2.490235,3.8965 -2.382813,0 -2.382812,0 L 73,1024.2882 l -1.894531,-2.9785 -1.513686,-2.2754 -1.220689,-1.67 -1.018079,-1.1621 -0.905749,-0.7519 -0.856945,-0.4639 -0.871571,-0.2978 -0.849619,-0.1025 -1.259756,-0.034 -2.197266,0 -2.197265,0 0,6.3574 0,6.3575 -1.894532,0 z m 3.789063,-15.9961 4.072265,0 4.072266,0 2.31444,-0.1343 1.74806,-0.4028 1.289047,-0.6983 0.937515,-1.0205 0.571273,-1.2329 0.190446,-1.3354 -0.368669,-1.8506 -1.10594,-1.4893 -1.90187,-0.9814 -2.756333,-0.3272 -4.53125,0 -4.53125,0 0,4.7363 z"
         id="path3177"
         inkscape:connector-curvature="0"
         sodipodi:nodetypes="cccccccccccccccccccccccccccccccccccccccccccccccccccccccc" />
      <path
         d="m 82.121094,1013.3214 0.957029,-6.355 2.871096,-4.8071 4.384762,-3.02491 5.49805,-1.00833 3.769516,0.47366 3.378923,1.42088 2.80516,2.2681 2.04835,3.0151 1.25243,3.6157 0.4175,4.0698 -0.43948,4.126 -1.31834,3.667 -2.12404,3.02 -2.85642,2.1851 -3.349623,1.3257 -3.603507,0.4419 -3.828134,-0.4883 -3.398429,-1.4649 -2.797855,-2.3095 -2.026363,-3.0225 -1.230467,-3.4766 z m 3.90625,0.059 0.695796,4.6264 2.087407,3.5279 3.137198,2.2338 3.845224,0.7447 3.898912,-0.7519 3.142099,-2.2559 2.07275,-3.6377 0.69093,-4.8975 -0.29543,-3.2739 -0.88621,-2.8296 -1.4551,-2.3144 -2.00194,-1.7286 -2.414561,-1.0766 -2.692857,-0.3589 -3.742684,0.6909 -3.181144,2.0728 -2.175292,3.6889 z"
         id="path3179"
         inkscape:connector-curvature="0"
         sodipodi:nodetypes="cccccccccccccccccccccccccccccccccccccccccc" />
      <path
         d="m 113.07813,1018.0675 1.78711,-0.1563 1.7871,-0.1562 0.42236,1.9556 0.75928,1.5698 1.18408,1.2451 1.69678,0.9814 2.07519,0.6372 2.31935,0.2124 2.041,-0.1611 1.78712,-0.4834 1.44774,-0.7642 1.02296,-1.0034 0.6079,-1.1743 0.20265,-1.2768 -0.19533,-1.2623 -0.58592,-1.0913 -1.03517,-0.9253 -1.54296,-0.7641 -1.85059,-0.5738 -3.24706,-0.8227 -3.3545,-0.9204 -2.17284,-0.8667 -1.78956,-1.2036 -1.26709,-1.4624 -0.75439,-1.687 -0.25146,-1.8775 0.30761,-2.0972 0.92285,-1.9555 1.51367,-1.6577 2.08008,-1.20364 2.49512,-0.73241 2.75879,-0.24415 2.99559,0.25636 2.61964,0.76903 2.15087,1.26711 1.58937,1.7505 1.00584,2.124 0.40041,2.3877 -1.8164,0.1367 -1.81641,0.1367 -0.64211,-2.3828 -1.34032,-1.7187 -2.09229,-1.0401 -2.89794,-0.3467 -2.9712,0.315 -2.03857,0.9448 -1.1792,1.3892 -0.39306,1.6479 0.27832,1.4063 0.83496,1.1328 1.97509,1.0083 3.7378,1.0327 3.89403,0.979 2.44386,0.8472 2.17284,1.3061 1.51857,1.6138 0.89353,1.9019 0.29787,2.1704 -0.32716,2.2192 -0.98143,2.0874 -1.59426,1.7969 -2.16551,1.3476 -2.60499,0.8423 -2.91258,0.2808 -3.57179,-0.2832 -2.94189,-0.8496 -2.34375,-1.4185 -1.77734,-1.9897 -1.14014,-2.4244 z"
         id="path3181"
         inkscape:connector-curvature="0"
         sodipodi:nodetypes="ccccccccccccccccccccccccccccccccccccccccccccccccccccccccccccccccccccccc" />
      <path
         d="m 139.79687,1018.0675 1.78711,-0.1563 1.78711,-0.1562 0.42236,1.9556 0.75928,1.5698 1.18408,1.2451 1.69678,0.9814 2.07519,0.6372 2.31934,0.2124 2.04101,-0.1611 1.78712,-0.4834 1.44774,-0.7642 1.02296,-1.0034 0.6079,-1.1743 0.20265,-1.2768 -0.19533,-1.2623 -0.58592,-1.0913 -1.03517,-0.9253 -1.54296,-0.7641 -1.85059,-0.5738 -3.24706,-0.8227 -3.3545,-0.9204 -2.17285,-0.8667 -1.78955,-1.2036 -1.26709,-1.4624 -0.75439,-1.687 -0.25147,-1.8775 0.30762,-2.0972 0.92285,-1.9555 1.51367,-1.6577 2.08008,-1.20364 2.49512,-0.73241 2.75879,-0.24415 2.99559,0.25636 2.61964,0.76903 2.15087,1.26711 1.58937,1.7505 1.00584,2.124 0.40041,2.3877 -1.81641,0.1367 -1.8164,0.1367 -0.64211,-2.3828 -1.34032,-1.7187 -2.09229,-1.0401 -2.89794,-0.3467 -2.9712,0.315 -2.03857,0.9448 -1.1792,1.3892 -0.39306,1.6479 0.27831,1.4063 0.83497,1.1328 1.97509,1.0083 3.7378,1.0327 3.89403,0.979 2.44386,0.8472 2.17284,1.3061 1.51857,1.6138 0.89353,1.9019 0.29787,2.1704 -0.32716,2.2192 -0.98143,2.0874 -1.59426,1.7969 -2.16551,1.3476 -2.60499,0.8423 -2.91258,0.2808 -3.57179,-0.2832 -2.94189,-0.8496 -2.34375,-1.4185 -1.77734,-1.9897 -1.14014,-2.4244 z"
         id="path3183"
         inkscape:connector-curvature="0"
         sodipodi:nodetypes="ccccccccccccccccccccccccccccccccccccccccccccccccccccccccccccccccccccccc" />
      <path
         d="m 168.44922,1027.2667 0,-14.3164 0,-14.31642 1.89453,0 1.89453,0 0,14.31642 0,14.3164 -1.89453,0 z"
         id="path3185"
         inkscape:connector-curvature="0"
         sodipodi:nodetypes="ccccccccc" />
      <path
         d="m 178.85937,1027.2667 0,-14.3164 0,-14.31642 1.94336,0 1.94336,0 7.51953,11.24022 7.51954,11.2402 0,-11.2402 0,-11.24022 1.81641,0 1.8164,0 0,14.31642 0,14.3164 -1.94336,0 -1.94336,0 -7.51953,-11.25 -7.51953,-11.25 0,11.25 0,11.25 -1.81641,0 z"
         id="path3187"
         inkscape:connector-curvature="0"
         sodipodi:nodetypes="ccccccccccccccccccccc" />
      <path
         d="m 221.20312,1016.0362 0,-1.6797 0,-1.6797 6.06446,-0.01 6.06445,-0.01 0,5.3125 0,5.3125 -2.83693,1.9507 -2.92479,1.3989 -3.00782,0.8423 -3.08593,0.2808 -4.02589,-0.4517 -3.64012,-1.355 -3.02491,-2.2094 -2.18017,-3.0152 -1.31836,-3.6181 -0.43945,-4.0186 0.43701,-4.0405 1.31103,-3.7622 2.13134,-3.1568 2.89796,-2.22409 3.53026,-1.31835 4.02833,-0.43946 2.95653,0.25148 2.65871,0.75437 2.23875,1.20365 1.69679,1.5991 1.25486,2.0703 0.91311,2.6172 -1.70899,0.4687 -1.70898,0.4688 -0.72267,-1.9531 -0.87889,-1.4844 -1.16212,-1.1255 -1.57225,-0.8765 -1.87502,-0.5639 -2.0703,-0.188 -2.42188,0.1978 -2.0703,0.5932 -1.71143,0.9155 -1.34521,1.1646 -1.03272,1.3526 -0.77392,1.4794 -0.82032,2.7686 -0.27343,2.9931 0.32959,3.5156 0.98877,2.8907 1.61863,2.2461 2.21926,1.582 2.59764,0.9375 2.75392,0.3125 2.43163,-0.2368 2.37306,-0.7105 2.06052,-0.979 1.49416,-1.0424 0,-2.666 0,-2.6661 -4.20899,-2e-4 z"
         id="path3189"
         inkscape:connector-curvature="0"
         sodipodi:nodetypes="ccccccccccccccccccccccccccccccccccccccccccccccccccccccccccc" />
    </g>
  </g>
</svg>
