solid OpenSCAD_Model
  facet normal 0.994522 0.104529 0
    outer loop
      vertex 16 0 20
      vertex 15.6504 3.32659 -19
      vertex 15.6504 3.32659 20
    endloop
  endfacet
  facet normal 0.994522 0.104529 0
    outer loop
      vertex 15.6504 3.32659 -19
      vertex 16 0 20
      vertex 16 0 -19
    endloop
  endfacet
  facet normal -0.994522 0.104529 0
    outer loop
      vertex -16 0 -19
      vertex -15.6504 3.32659 20
      vertex -15.6504 3.32659 -19
    endloop
  endfacet
  facet normal -0.994522 0.104529 0
    outer loop
      vertex -15.6504 3.32659 20
      vertex -16 0 -19
      vertex -16 0 20
    endloop
  endfacet
  facet normal 0 1 -0
    outer loop
      vertex 1.67245 15.9123 -19
      vertex -1.67245 15.9123 20
      vertex 1.67245 15.9123 20
    endloop
  endfacet
  facet normal 0 1 0
    outer loop
      vertex -1.67245 15.9123 20
      vertex 1.67245 15.9123 -19
      vertex -1.67245 15.9123 -19
    endloop
  endfacet
  facet normal 0.587785 0.809017 -0
    outer loop
      vertex 10.7061 11.8903 -19
      vertex 8 13.8564 20
      vertex 10.7061 11.8903 20
    endloop
  endfacet
  facet normal 0.587785 0.809017 0
    outer loop
      vertex 8 13.8564 20
      vertex 10.7061 11.8903 -19
      vertex 8 13.8564 -19
    endloop
  endfacet
  facet normal -0.587785 0.809017 0
    outer loop
      vertex -8 13.8564 -19
      vertex -10.7061 11.8903 20
      vertex -8 13.8564 20
    endloop
  endfacet
  facet normal -0.587785 0.809017 0
    outer loop
      vertex -10.7061 11.8903 20
      vertex -8 13.8564 -19
      vertex -10.7061 11.8903 -19
    endloop
  endfacet
  facet normal -0.406737 0.913545 0
    outer loop
      vertex -4.94427 15.2169 -19
      vertex -8 13.8564 20
      vertex -4.94427 15.2169 20
    endloop
  endfacet
  facet normal -0.406737 0.913545 0
    outer loop
      vertex -8 13.8564 20
      vertex -4.94427 15.2169 -19
      vertex -8 13.8564 -19
    endloop
  endfacet
  facet normal 0.866025 0.5 0
    outer loop
      vertex 14.6167 6.50779 20
      vertex 12.9443 9.40456 -19
      vertex 12.9443 9.40456 20
    endloop
  endfacet
  facet normal 0.866025 0.5 0
    outer loop
      vertex 12.9443 9.40456 -19
      vertex 14.6167 6.50779 20
      vertex 14.6167 6.50779 -19
    endloop
  endfacet
  facet normal 0.951057 0.309017 0
    outer loop
      vertex 15.6504 3.32659 20
      vertex 14.6167 6.50779 -19
      vertex 14.6167 6.50779 20
    endloop
  endfacet
  facet normal 0.951057 0.309017 0
    outer loop
      vertex 14.6167 6.50779 -19
      vertex 15.6504 3.32659 20
      vertex 15.6504 3.32659 -19
    endloop
  endfacet
  facet normal 0.743145 0.669131 0
    outer loop
      vertex 12.9443 9.40456 20
      vertex 10.7061 11.8903 -19
      vertex 10.7061 11.8903 20
    endloop
  endfacet
  facet normal 0.743145 0.669131 0
    outer loop
      vertex 10.7061 11.8903 -19
      vertex 12.9443 9.40456 20
      vertex 12.9443 9.40456 -19
    endloop
  endfacet
  facet normal 0.207912 0.978148 -0
    outer loop
      vertex 4.94427 15.2169 -19
      vertex 1.67245 15.9123 20
      vertex 4.94427 15.2169 20
    endloop
  endfacet
  facet normal 0.207912 0.978148 0
    outer loop
      vertex 1.67245 15.9123 20
      vertex 4.94427 15.2169 -19
      vertex 1.67245 15.9123 -19
    endloop
  endfacet
  facet normal 0.406736 0.913546 -0
    outer loop
      vertex 8 13.8564 -19
      vertex 4.94427 15.2169 20
      vertex 8 13.8564 20
    endloop
  endfacet
  facet normal 0.406736 0.913546 0
    outer loop
      vertex 4.94427 15.2169 20
      vertex 8 13.8564 -19
      vertex 4.94427 15.2169 -19
    endloop
  endfacet
  facet normal -0.866025 0.5 0
    outer loop
      vertex -14.6167 6.50779 -19
      vertex -12.9443 9.40456 20
      vertex -12.9443 9.40456 -19
    endloop
  endfacet
  facet normal -0.866025 0.5 0
    outer loop
      vertex -12.9443 9.40456 20
      vertex -14.6167 6.50779 -19
      vertex -14.6167 6.50779 20
    endloop
  endfacet
  facet normal -0.743145 0.669131 0
    outer loop
      vertex -12.9443 9.40456 -19
      vertex -10.7061 11.8903 20
      vertex -10.7061 11.8903 -19
    endloop
  endfacet
  facet normal -0.743145 0.669131 0
    outer loop
      vertex -10.7061 11.8903 20
      vertex -12.9443 9.40456 -19
      vertex -12.9443 9.40456 20
    endloop
  endfacet
  facet normal -0.951057 0.309017 0
    outer loop
      vertex -15.6504 3.32659 -19
      vertex -14.6167 6.50779 20
      vertex -14.6167 6.50779 -19
    endloop
  endfacet
  facet normal -0.951057 0.309017 0
    outer loop
      vertex -14.6167 6.50779 20
      vertex -15.6504 3.32659 -19
      vertex -15.6504 3.32659 20
    endloop
  endfacet
  facet normal 0 0 1
    outer loop
      vertex 13.5 0 20
      vertex 16 0 20
      vertex 15.6504 3.32659 20
    endloop
  endfacet
  facet normal 0 0 1
    outer loop
      vertex 13.205 2.80681 20
      vertex 15.6504 3.32659 20
      vertex 14.6167 6.50779 20
    endloop
  endfacet
  facet normal 0 0 1
    outer loop
      vertex 16 0 20
      vertex 13.5 0 20
      vertex 15.6504 -3.32659 20
    endloop
  endfacet
  facet normal -0 0 1
    outer loop
      vertex 13.205 -2.80681 20
      vertex 15.6504 -3.32659 20
      vertex 13.5 0 20
    endloop
  endfacet
  facet normal 0 0 1
    outer loop
      vertex 15.6504 3.32659 20
      vertex 13.205 2.80681 20
      vertex 13.5 0 20
    endloop
  endfacet
  facet normal 0 0 1
    outer loop
      vertex 12.3329 5.49094 20
      vertex 14.6167 6.50779 20
      vertex 12.9443 9.40456 20
    endloop
  endfacet
  facet normal 0 0 1
    outer loop
      vertex 14.6167 6.50779 20
      vertex 12.3329 5.49094 20
      vertex 13.205 2.80681 20
    endloop
  endfacet
  facet normal 0 0 1
    outer loop
      vertex 12.9443 9.40456 20
      vertex 10.9217 7.9351 20
      vertex 12.3329 5.49094 20
    endloop
  endfacet
  facet normal 0 0 1
    outer loop
      vertex 10.7061 11.8903 20
      vertex 10.9217 7.9351 20
      vertex 12.9443 9.40456 20
    endloop
  endfacet
  facet normal 0 0 1
    outer loop
      vertex 10.7061 11.8903 20
      vertex 9.03326 10.0325 20
      vertex 10.9217 7.9351 20
    endloop
  endfacet
  facet normal 0 0 1
    outer loop
      vertex 8 13.8564 20
      vertex 9.03326 10.0325 20
      vertex 10.7061 11.8903 20
    endloop
  endfacet
  facet normal 0 0 1
    outer loop
      vertex 8 13.8564 20
      vertex 6.75 11.6913 20
      vertex 9.03326 10.0325 20
    endloop
  endfacet
  facet normal 0 0 1
    outer loop
      vertex 4.94427 15.2169 20
      vertex 6.75 11.6913 20
      vertex 8 13.8564 20
    endloop
  endfacet
  facet normal 0 0 1
    outer loop
      vertex 4.94427 15.2169 20
      vertex 4.17173 12.8393 20
      vertex 6.75 11.6913 20
    endloop
  endfacet
  facet normal 0 0 1
    outer loop
      vertex 1.67245 15.9123 20
      vertex 4.17173 12.8393 20
      vertex 4.94427 15.2169 20
    endloop
  endfacet
  facet normal 0 0 1
    outer loop
      vertex 1.67245 15.9123 20
      vertex 1.41113 13.426 20
      vertex 4.17173 12.8393 20
    endloop
  endfacet
  facet normal 0 0 1
    outer loop
      vertex 1.67245 15.9123 20
      vertex -1.41113 13.426 20
      vertex 1.41113 13.426 20
    endloop
  endfacet
  facet normal -0 0 1
    outer loop
      vertex -1.67245 15.9123 20
      vertex -1.41113 13.426 20
      vertex 1.67245 15.9123 20
    endloop
  endfacet
  facet normal 0 0 1
    outer loop
      vertex -1.67245 15.9123 20
      vertex -4.17173 12.8393 20
      vertex -1.41113 13.426 20
    endloop
  endfacet
  facet normal -0 0 1
    outer loop
      vertex -4.94427 15.2169 20
      vertex -4.17173 12.8393 20
      vertex -1.67245 15.9123 20
    endloop
  endfacet
  facet normal 0 0 1
    outer loop
      vertex -4.94427 15.2169 20
      vertex -6.75 11.6913 20
      vertex -4.17173 12.8393 20
    endloop
  endfacet
  facet normal -0 0 1
    outer loop
      vertex -8 13.8564 20
      vertex -6.75 11.6913 20
      vertex -4.94427 15.2169 20
    endloop
  endfacet
  facet normal 0 0 1
    outer loop
      vertex -8 13.8564 20
      vertex -9.03326 10.0325 20
      vertex -6.75 11.6913 20
    endloop
  endfacet
  facet normal -0 0 1
    outer loop
      vertex -10.7061 11.8903 20
      vertex -9.03326 10.0325 20
      vertex -8 13.8564 20
    endloop
  endfacet
  facet normal 0 0 1
    outer loop
      vertex -10.7061 11.8903 20
      vertex -10.9217 7.9351 20
      vertex -9.03326 10.0325 20
    endloop
  endfacet
  facet normal -0 0 1
    outer loop
      vertex -12.9443 9.40456 20
      vertex -10.9217 7.9351 20
      vertex -10.7061 11.8903 20
    endloop
  endfacet
  facet normal 0 0 1
    outer loop
      vertex -10.9217 7.9351 20
      vertex -12.9443 9.40456 20
      vertex -12.3329 5.49094 20
    endloop
  endfacet
  facet normal -0 0 1
    outer loop
      vertex -14.6167 6.50779 20
      vertex -12.3329 5.49094 20
      vertex -12.9443 9.40456 20
    endloop
  endfacet
  facet normal 0 0 1
    outer loop
      vertex -12.3329 5.49094 20
      vertex -14.6167 6.50779 20
      vertex -13.205 2.80681 20
    endloop
  endfacet
  facet normal -0 0 1
    outer loop
      vertex -15.6504 3.32659 20
      vertex -13.205 2.80681 20
      vertex -14.6167 6.50779 20
    endloop
  endfacet
  facet normal 0 0 1
    outer loop
      vertex 15.6504 -3.32659 20
      vertex 13.205 -2.80681 20
      vertex 14.6167 -6.50779 20
    endloop
  endfacet
  facet normal -0 0 1
    outer loop
      vertex 12.3329 -5.49094 20
      vertex 14.6167 -6.50779 20
      vertex 13.205 -2.80681 20
    endloop
  endfacet
  facet normal 0 0 1
    outer loop
      vertex 14.6167 -6.50779 20
      vertex 12.3329 -5.49094 20
      vertex 12.9443 -9.40456 20
    endloop
  endfacet
  facet normal -0 0 1
    outer loop
      vertex 10.9217 -7.9351 20
      vertex 12.9443 -9.40456 20
      vertex 12.3329 -5.49094 20
    endloop
  endfacet
  facet normal 0 0 1
    outer loop
      vertex 10.9217 -7.9351 20
      vertex 10.7061 -11.8903 20
      vertex 12.9443 -9.40456 20
    endloop
  endfacet
  facet normal -0 0 1
    outer loop
      vertex 9.03326 -10.0325 20
      vertex 10.7061 -11.8903 20
      vertex 10.9217 -7.9351 20
    endloop
  endfacet
  facet normal 0 0 1
    outer loop
      vertex 9.03326 -10.0325 20
      vertex 8 -13.8564 20
      vertex 10.7061 -11.8903 20
    endloop
  endfacet
  facet normal -0 0 1
    outer loop
      vertex 6.75 -11.6913 20
      vertex 8 -13.8564 20
      vertex 9.03326 -10.0325 20
    endloop
  endfacet
  facet normal 0 0 1
    outer loop
      vertex 6.75 -11.6913 20
      vertex 4.94427 -15.2169 20
      vertex 8 -13.8564 20
    endloop
  endfacet
  facet normal -0 0 1
    outer loop
      vertex 4.17173 -12.8393 20
      vertex 4.94427 -15.2169 20
      vertex 6.75 -11.6913 20
    endloop
  endfacet
  facet normal 0 0 1
    outer loop
      vertex 4.17173 -12.8393 20
      vertex 1.67245 -15.9123 20
      vertex 4.94427 -15.2169 20
    endloop
  endfacet
  facet normal -0 0 1
    outer loop
      vertex 1.41113 -13.426 20
      vertex 1.67245 -15.9123 20
      vertex 4.17173 -12.8393 20
    endloop
  endfacet
  facet normal -0 0 1
    outer loop
      vertex -1.41113 -13.426 20
      vertex 1.67245 -15.9123 20
      vertex 1.41113 -13.426 20
    endloop
  endfacet
  facet normal 0 0 1
    outer loop
      vertex -1.41113 -13.426 20
      vertex -1.67245 -15.9123 20
      vertex 1.67245 -15.9123 20
    endloop
  endfacet
  facet normal 0 0 1
    outer loop
      vertex -4.17173 -12.8393 20
      vertex -1.67245 -15.9123 20
      vertex -1.41113 -13.426 20
    endloop
  endfacet
  facet normal 0 0 1
    outer loop
      vertex -4.17173 -12.8393 20
      vertex -4.94427 -15.2169 20
      vertex -1.67245 -15.9123 20
    endloop
  endfacet
  facet normal 0 0 1
    outer loop
      vertex -6.75 -11.6913 20
      vertex -4.94427 -15.2169 20
      vertex -4.17173 -12.8393 20
    endloop
  endfacet
  facet normal 0 0 1
    outer loop
      vertex -6.75 -11.6913 20
      vertex -8 -13.8564 20
      vertex -4.94427 -15.2169 20
    endloop
  endfacet
  facet normal 0 0 1
    outer loop
      vertex -9.03326 -10.0325 20
      vertex -8 -13.8564 20
      vertex -6.75 -11.6913 20
    endloop
  endfacet
  facet normal 0 0 1
    outer loop
      vertex -9.03326 -10.0325 20
      vertex -10.7061 -11.8903 20
      vertex -8 -13.8564 20
    endloop
  endfacet
  facet normal 0 0 1
    outer loop
      vertex -10.9217 -7.9351 20
      vertex -10.7061 -11.8903 20
      vertex -9.03326 -10.0325 20
    endloop
  endfacet
  facet normal 0 0 1
    outer loop
      vertex -12.9443 -9.40456 20
      vertex -10.9217 -7.9351 20
      vertex -12.3329 -5.49094 20
    endloop
  endfacet
  facet normal 0 0 1
    outer loop
      vertex -10.9217 -7.9351 20
      vertex -12.9443 -9.40456 20
      vertex -10.7061 -11.8903 20
    endloop
  endfacet
  facet normal 0 0 1
    outer loop
      vertex -14.6167 -6.50779 20
      vertex -12.3329 -5.49094 20
      vertex -13.205 -2.80681 20
    endloop
  endfacet
  facet normal 0 0 1
    outer loop
      vertex -15.6504 -3.32659 20
      vertex -13.205 -2.80681 20
      vertex -13.5 0 20
    endloop
  endfacet
  facet normal 0 0 1
    outer loop
      vertex -13.205 2.80681 20
      vertex -15.6504 3.32659 20
      vertex -13.5 0 20
    endloop
  endfacet
  facet normal 0 0 1
    outer loop
      vertex -12.3329 -5.49094 20
      vertex -14.6167 -6.50779 20
      vertex -12.9443 -9.40456 20
    endloop
  endfacet
  facet normal 0 0 1
    outer loop
      vertex -16 0 20
      vertex -13.5 0 20
      vertex -15.6504 3.32659 20
    endloop
  endfacet
  facet normal 0 0 1
    outer loop
      vertex -13.205 -2.80681 20
      vertex -15.6504 -3.32659 20
      vertex -14.6167 -6.50779 20
    endloop
  endfacet
  facet normal 0 0 1
    outer loop
      vertex -13.5 0 20
      vertex -16 0 20
      vertex -15.6504 -3.32659 20
    endloop
  endfacet
  facet normal -0.207912 0.978148 0
    outer loop
      vertex -1.67245 15.9123 -19
      vertex -4.94427 15.2169 20
      vertex -1.67245 15.9123 20
    endloop
  endfacet
  facet normal -0.207912 0.978148 0
    outer loop
      vertex -4.94427 15.2169 20
      vertex -1.67245 15.9123 -19
      vertex -4.94427 15.2169 -19
    endloop
  endfacet
  facet normal 0.994522 -0.104529 0
    outer loop
      vertex 15.6504 -3.32659 20
      vertex 16 0 -19
      vertex 16 0 20
    endloop
  endfacet
  facet normal 0.994522 -0.104529 0
    outer loop
      vertex 16 0 -19
      vertex 15.6504 -3.32659 20
      vertex 15.6504 -3.32659 -19
    endloop
  endfacet
  facet normal -0.207912 -0.978148 0
    outer loop
      vertex -4.94427 -15.2169 -19
      vertex -1.67245 -15.9123 20
      vertex -4.94427 -15.2169 20
    endloop
  endfacet
  facet normal -0.207912 -0.978148 -0
    outer loop
      vertex -1.67245 -15.9123 20
      vertex -4.94427 -15.2169 -19
      vertex -1.67245 -15.9123 -19
    endloop
  endfacet
  facet normal 0.743145 -0.669131 0
    outer loop
      vertex 10.7061 -11.8903 20
      vertex 12.9443 -9.40456 -19
      vertex 12.9443 -9.40456 20
    endloop
  endfacet
  facet normal 0.743145 -0.669131 0
    outer loop
      vertex 12.9443 -9.40456 -19
      vertex 10.7061 -11.8903 20
      vertex 10.7061 -11.8903 -19
    endloop
  endfacet
  facet normal 0.951057 -0.309017 0
    outer loop
      vertex 14.6167 -6.50779 20
      vertex 15.6504 -3.32659 -19
      vertex 15.6504 -3.32659 20
    endloop
  endfacet
  facet normal 0.951057 -0.309017 0
    outer loop
      vertex 15.6504 -3.32659 -19
      vertex 14.6167 -6.50779 20
      vertex 14.6167 -6.50779 -19
    endloop
  endfacet
  facet normal 0.866025 -0.5 0
    outer loop
      vertex 12.9443 -9.40456 20
      vertex 14.6167 -6.50779 -19
      vertex 14.6167 -6.50779 20
    endloop
  endfacet
  facet normal 0.866025 -0.5 0
    outer loop
      vertex 14.6167 -6.50779 -19
      vertex 12.9443 -9.40456 20
      vertex 12.9443 -9.40456 -19
    endloop
  endfacet
  facet normal -0.866025 -0.5 0
    outer loop
      vertex -12.9443 -9.40456 -19
      vertex -14.6167 -6.50779 20
      vertex -14.6167 -6.50779 -19
    endloop
  endfacet
  facet normal -0.866025 -0.5 0
    outer loop
      vertex -14.6167 -6.50779 20
      vertex -12.9443 -9.40456 -19
      vertex -12.9443 -9.40456 20
    endloop
  endfacet
  facet normal -0.994522 -0.104529 0
    outer loop
      vertex -15.6504 -3.32659 -19
      vertex -16 0 20
      vertex -16 0 -19
    endloop
  endfacet
  facet normal -0.994522 -0.104529 0
    outer loop
      vertex -16 0 20
      vertex -15.6504 -3.32659 -19
      vertex -15.6504 -3.32659 20
    endloop
  endfacet
  facet normal -0.951057 -0.309017 0
    outer loop
      vertex -14.6167 -6.50779 -19
      vertex -15.6504 -3.32659 20
      vertex -15.6504 -3.32659 -19
    endloop
  endfacet
  facet normal -0.951057 -0.309017 0
    outer loop
      vertex -15.6504 -3.32659 20
      vertex -14.6167 -6.50779 -19
      vertex -14.6167 -6.50779 20
    endloop
  endfacet
  facet normal 0.207912 -0.978148 0
    outer loop
      vertex 1.67245 -15.9123 -19
      vertex 4.94427 -15.2169 20
      vertex 1.67245 -15.9123 20
    endloop
  endfacet
  facet normal 0.207912 -0.978148 0
    outer loop
      vertex 4.94427 -15.2169 20
      vertex 1.67245 -15.9123 -19
      vertex 4.94427 -15.2169 -19
    endloop
  endfacet
  facet normal 0.587785 -0.809017 0
    outer loop
      vertex 8 -13.8564 -19
      vertex 10.7061 -11.8903 20
      vertex 8 -13.8564 20
    endloop
  endfacet
  facet normal 0.587785 -0.809017 0
    outer loop
      vertex 10.7061 -11.8903 20
      vertex 8 -13.8564 -19
      vertex 10.7061 -11.8903 -19
    endloop
  endfacet
  facet normal 0 -1 0
    outer loop
      vertex -1.67245 -15.9123 -19
      vertex 1.67245 -15.9123 20
      vertex -1.67245 -15.9123 20
    endloop
  endfacet
  facet normal 0 -1 -0
    outer loop
      vertex 1.67245 -15.9123 20
      vertex -1.67245 -15.9123 -19
      vertex 1.67245 -15.9123 -19
    endloop
  endfacet
  facet normal -0.587785 -0.809017 0
    outer loop
      vertex -10.7061 -11.8903 -19
      vertex -8 -13.8564 20
      vertex -10.7061 -11.8903 20
    endloop
  endfacet
  facet normal -0.587785 -0.809017 -0
    outer loop
      vertex -8 -13.8564 20
      vertex -10.7061 -11.8903 -19
      vertex -8 -13.8564 -19
    endloop
  endfacet
  facet normal -0.406736 -0.913546 0
    outer loop
      vertex -8 -13.8564 -19
      vertex -4.94427 -15.2169 20
      vertex -8 -13.8564 20
    endloop
  endfacet
  facet normal -0.406736 -0.913546 -0
    outer loop
      vertex -4.94427 -15.2169 20
      vertex -8 -13.8564 -19
      vertex -4.94427 -15.2169 -19
    endloop
  endfacet
  facet normal -0.743145 -0.669131 0
    outer loop
      vertex -10.7061 -11.8903 -19
      vertex -12.9443 -9.40456 20
      vertex -12.9443 -9.40456 -19
    endloop
  endfacet
  facet normal -0.743145 -0.669131 0
    outer loop
      vertex -12.9443 -9.40456 20
      vertex -10.7061 -11.8903 -19
      vertex -10.7061 -11.8903 20
    endloop
  endfacet
  facet normal 0.406736 -0.913546 0
    outer loop
      vertex 4.94427 -15.2169 -19
      vertex 8 -13.8564 20
      vertex 4.94427 -15.2169 20
    endloop
  endfacet
  facet normal 0.406736 -0.913546 0
    outer loop
      vertex 8 -13.8564 20
      vertex 4.94427 -15.2169 -19
      vertex 8 -13.8564 -19
    endloop
  endfacet
  facet normal -0.994522 -0.104529 0
    outer loop
      vertex 13.5 0 1
      vertex 13.205 2.80681 20
      vertex 13.205 2.80681 1
    endloop
  endfacet
  facet normal -0.994522 -0.104529 0
    outer loop
      vertex 13.205 2.80681 20
      vertex 13.5 0 1
      vertex 13.5 0 20
    endloop
  endfacet
  facet normal 0.994522 -0.104529 0
    outer loop
      vertex -13.5 0 20
      vertex -13.205 2.80681 1
      vertex -13.205 2.80681 20
    endloop
  endfacet
  facet normal 0.994522 -0.104529 0
    outer loop
      vertex -13.205 2.80681 1
      vertex -13.5 0 20
      vertex -13.5 0 1
    endloop
  endfacet
  facet normal 0 -1 0
    outer loop
      vertex -1.41113 13.426 1
      vertex 1.41113 13.426 20
      vertex -1.41113 13.426 20
    endloop
  endfacet
  facet normal 0 -1 -0
    outer loop
      vertex 1.41113 13.426 20
      vertex -1.41113 13.426 1
      vertex 1.41113 13.426 1
    endloop
  endfacet
  facet normal -0.587785 -0.809017 0
    outer loop
      vertex 6.75 11.6913 1
      vertex 9.03326 10.0325 20
      vertex 6.75 11.6913 20
    endloop
  endfacet
  facet normal -0.587785 -0.809017 -0
    outer loop
      vertex 9.03326 10.0325 20
      vertex 6.75 11.6913 1
      vertex 9.03326 10.0325 1
    endloop
  endfacet
  facet normal -0.406737 -0.913545 0
    outer loop
      vertex 4.17173 12.8393 1
      vertex 6.75 11.6913 20
      vertex 4.17173 12.8393 20
    endloop
  endfacet
  facet normal -0.406737 -0.913545 -0
    outer loop
      vertex 6.75 11.6913 20
      vertex 4.17173 12.8393 1
      vertex 6.75 11.6913 1
    endloop
  endfacet
  facet normal 0.743145 -0.669131 0
    outer loop
      vertex -10.9217 7.9351 20
      vertex -9.03326 10.0325 1
      vertex -9.03326 10.0325 20
    endloop
  endfacet
  facet normal 0.743145 -0.669131 0
    outer loop
      vertex -9.03326 10.0325 1
      vertex -10.9217 7.9351 20
      vertex -10.9217 7.9351 1
    endloop
  endfacet
  facet normal 0.406737 -0.913545 0
    outer loop
      vertex -6.75 11.6913 1
      vertex -4.17173 12.8393 20
      vertex -6.75 11.6913 20
    endloop
  endfacet
  facet normal 0.406737 -0.913545 0
    outer loop
      vertex -4.17173 12.8393 20
      vertex -6.75 11.6913 1
      vertex -4.17173 12.8393 1
    endloop
  endfacet
  facet normal -0.866026 -0.5 0
    outer loop
      vertex 12.3329 5.49094 1
      vertex 10.9217 7.9351 20
      vertex 10.9217 7.9351 1
    endloop
  endfacet
  facet normal -0.866026 -0.5 0
    outer loop
      vertex 10.9217 7.9351 20
      vertex 12.3329 5.49094 1
      vertex 12.3329 5.49094 20
    endloop
  endfacet
  facet normal -0.951056 -0.309017 0
    outer loop
      vertex 13.205 2.80681 1
      vertex 12.3329 5.49094 20
      vertex 12.3329 5.49094 1
    endloop
  endfacet
  facet normal -0.951056 -0.309017 0
    outer loop
      vertex 12.3329 5.49094 20
      vertex 13.205 2.80681 1
      vertex 13.205 2.80681 20
    endloop
  endfacet
  facet normal -0.743145 -0.669131 0
    outer loop
      vertex 10.9217 7.9351 1
      vertex 9.03326 10.0325 20
      vertex 9.03326 10.0325 1
    endloop
  endfacet
  facet normal -0.743145 -0.669131 0
    outer loop
      vertex 9.03326 10.0325 20
      vertex 10.9217 7.9351 1
      vertex 10.9217 7.9351 20
    endloop
  endfacet
  facet normal -0.207912 -0.978148 0
    outer loop
      vertex 1.41113 13.426 1
      vertex 4.17173 12.8393 20
      vertex 1.41113 13.426 20
    endloop
  endfacet
  facet normal -0.207912 -0.978148 -0
    outer loop
      vertex 4.17173 12.8393 20
      vertex 1.41113 13.426 1
      vertex 4.17173 12.8393 1
    endloop
  endfacet
  facet normal 0.866026 -0.5 0
    outer loop
      vertex -12.3329 5.49094 20
      vertex -10.9217 7.9351 1
      vertex -10.9217 7.9351 20
    endloop
  endfacet
  facet normal 0.866026 -0.5 0
    outer loop
      vertex -10.9217 7.9351 1
      vertex -12.3329 5.49094 20
      vertex -12.3329 5.49094 1
    endloop
  endfacet
  facet normal 0.951056 -0.309017 0
    outer loop
      vertex -13.205 2.80681 20
      vertex -12.3329 5.49094 1
      vertex -12.3329 5.49094 20
    endloop
  endfacet
  facet normal 0.951056 -0.309017 0
    outer loop
      vertex -12.3329 5.49094 1
      vertex -13.205 2.80681 20
      vertex -13.205 2.80681 1
    endloop
  endfacet
  facet normal 0.587785 -0.809017 0
    outer loop
      vertex -9.03326 10.0325 1
      vertex -6.75 11.6913 20
      vertex -9.03326 10.0325 20
    endloop
  endfacet
  facet normal 0.587785 -0.809017 0
    outer loop
      vertex -6.75 11.6913 20
      vertex -9.03326 10.0325 1
      vertex -6.75 11.6913 1
    endloop
  endfacet
  facet normal 0.207912 -0.978148 0
    outer loop
      vertex -4.17173 12.8393 1
      vertex -1.41113 13.426 20
      vertex -4.17173 12.8393 20
    endloop
  endfacet
  facet normal 0.207912 -0.978148 0
    outer loop
      vertex -1.41113 13.426 20
      vertex -4.17173 12.8393 1
      vertex -1.41113 13.426 1
    endloop
  endfacet
  facet normal -0.994522 0.104529 0
    outer loop
      vertex 13.205 -2.80681 1
      vertex 13.5 0 20
      vertex 13.5 0 1
    endloop
  endfacet
  facet normal -0.994522 0.104529 0
    outer loop
      vertex 13.5 0 20
      vertex 13.205 -2.80681 1
      vertex 13.205 -2.80681 20
    endloop
  endfacet
  facet normal 0.207912 0.978148 -0
    outer loop
      vertex -1.41113 -13.426 1
      vertex -4.17173 -12.8393 20
      vertex -1.41113 -13.426 20
    endloop
  endfacet
  facet normal 0.207912 0.978148 0
    outer loop
      vertex -4.17173 -12.8393 20
      vertex -1.41113 -13.426 1
      vertex -4.17173 -12.8393 1
    endloop
  endfacet
  facet normal 0.994522 0.104529 0
    outer loop
      vertex -13.205 -2.80681 20
      vertex -13.5 0 1
      vertex -13.5 0 20
    endloop
  endfacet
  facet normal 0.994522 0.104529 0
    outer loop
      vertex -13.5 0 1
      vertex -13.205 -2.80681 20
      vertex -13.205 -2.80681 1
    endloop
  endfacet
  facet normal -0.207912 0.978148 0
    outer loop
      vertex 4.17173 -12.8393 1
      vertex 1.41113 -13.426 20
      vertex 4.17173 -12.8393 20
    endloop
  endfacet
  facet normal -0.207912 0.978148 0
    outer loop
      vertex 1.41113 -13.426 20
      vertex 4.17173 -12.8393 1
      vertex 1.41113 -13.426 1
    endloop
  endfacet
  facet normal -0.743145 0.669131 0
    outer loop
      vertex 9.03326 -10.0325 1
      vertex 10.9217 -7.9351 20
      vertex 10.9217 -7.9351 1
    endloop
  endfacet
  facet normal -0.743145 0.669131 0
    outer loop
      vertex 10.9217 -7.9351 20
      vertex 9.03326 -10.0325 1
      vertex 9.03326 -10.0325 20
    endloop
  endfacet
  facet normal -0.951056 0.309017 0
    outer loop
      vertex 12.3329 -5.49094 1
      vertex 13.205 -2.80681 20
      vertex 13.205 -2.80681 1
    endloop
  endfacet
  facet normal -0.951056 0.309017 0
    outer loop
      vertex 13.205 -2.80681 20
      vertex 12.3329 -5.49094 1
      vertex 12.3329 -5.49094 20
    endloop
  endfacet
  facet normal -0.866026 0.5 0
    outer loop
      vertex 10.9217 -7.9351 1
      vertex 12.3329 -5.49094 20
      vertex 12.3329 -5.49094 1
    endloop
  endfacet
  facet normal -0.866026 0.5 0
    outer loop
      vertex 12.3329 -5.49094 20
      vertex 10.9217 -7.9351 1
      vertex 10.9217 -7.9351 20
    endloop
  endfacet
  facet normal 0.866026 0.5 0
    outer loop
      vertex -10.9217 -7.9351 20
      vertex -12.3329 -5.49094 1
      vertex -12.3329 -5.49094 20
    endloop
  endfacet
  facet normal 0.866026 0.5 0
    outer loop
      vertex -12.3329 -5.49094 1
      vertex -10.9217 -7.9351 20
      vertex -10.9217 -7.9351 1
    endloop
  endfacet
  facet normal 0.951056 0.309017 0
    outer loop
      vertex -12.3329 -5.49094 20
      vertex -13.205 -2.80681 1
      vertex -13.205 -2.80681 20
    endloop
  endfacet
  facet normal 0.951056 0.309017 0
    outer loop
      vertex -13.205 -2.80681 1
      vertex -12.3329 -5.49094 20
      vertex -12.3329 -5.49094 1
    endloop
  endfacet
  facet normal -0.587785 0.809017 0
    outer loop
      vertex 9.03326 -10.0325 1
      vertex 6.75 -11.6913 20
      vertex 9.03326 -10.0325 20
    endloop
  endfacet
  facet normal -0.587785 0.809017 0
    outer loop
      vertex 6.75 -11.6913 20
      vertex 9.03326 -10.0325 1
      vertex 6.75 -11.6913 1
    endloop
  endfacet
  facet normal -0.406737 0.913545 0
    outer loop
      vertex 6.75 -11.6913 1
      vertex 4.17173 -12.8393 20
      vertex 6.75 -11.6913 20
    endloop
  endfacet
  facet normal -0.406737 0.913545 0
    outer loop
      vertex 4.17173 -12.8393 20
      vertex 6.75 -11.6913 1
      vertex 4.17173 -12.8393 1
    endloop
  endfacet
  facet normal 0 1 -0
    outer loop
      vertex 1.41113 -13.426 1
      vertex -1.41113 -13.426 20
      vertex 1.41113 -13.426 20
    endloop
  endfacet
  facet normal 0 1 0
    outer loop
      vertex -1.41113 -13.426 20
      vertex 1.41113 -13.426 1
      vertex -1.41113 -13.426 1
    endloop
  endfacet
  facet normal 0.406737 0.913545 -0
    outer loop
      vertex -4.17173 -12.8393 1
      vertex -6.75 -11.6913 20
      vertex -4.17173 -12.8393 20
    endloop
  endfacet
  facet normal 0.406737 0.913545 0
    outer loop
      vertex -6.75 -11.6913 20
      vertex -4.17173 -12.8393 1
      vertex -6.75 -11.6913 1
    endloop
  endfacet
  facet normal 0.743145 0.669131 0
    outer loop
      vertex -9.03326 -10.0325 20
      vertex -10.9217 -7.9351 1
      vertex -10.9217 -7.9351 20
    endloop
  endfacet
  facet normal 0.743145 0.669131 0
    outer loop
      vertex -10.9217 -7.9351 1
      vertex -9.03326 -10.0325 20
      vertex -9.03326 -10.0325 1
    endloop
  endfacet
  facet normal 0.587785 0.809017 -0
    outer loop
      vertex -6.75 -11.6913 1
      vertex -9.03326 -10.0325 20
      vertex -6.75 -11.6913 20
    endloop
  endfacet
  facet normal 0.587785 0.809017 0
    outer loop
      vertex -9.03326 -10.0325 20
      vertex -6.75 -11.6913 1
      vertex -9.03326 -10.0325 1
    endloop
  endfacet
  facet normal 0 0 1
    outer loop
      vertex 7.4 0 1
      vertex 13.5 0 1
      vertex 13.205 2.80681 1
    endloop
  endfacet
  facet normal 0 0 1
    outer loop
      vertex 7.14785 1.91526 1
      vertex 13.205 2.80681 1
      vertex 12.3329 5.49094 1
    endloop
  endfacet
  facet normal 0 0 1
    outer loop
      vertex 13.5 0 1
      vertex 7.4 0 1
      vertex 13.205 -2.80681 1
    endloop
  endfacet
  facet normal 0 0 1
    outer loop
      vertex 6.40859 3.7 1
      vertex 12.3329 5.49094 1
      vertex 10.9217 7.9351 1
    endloop
  endfacet
  facet normal -0 0 1
    outer loop
      vertex 7.14785 -1.91526 1
      vertex 13.205 -2.80681 1
      vertex 7.4 0 1
    endloop
  endfacet
  facet normal 0 0 1
    outer loop
      vertex 5.23259 5.23259 1
      vertex 10.9217 7.9351 1
      vertex 9.03326 10.0325 1
    endloop
  endfacet
  facet normal 0 0 1
    outer loop
      vertex 13.205 -2.80681 1
      vertex 7.14785 -1.91526 1
      vertex 12.3329 -5.49094 1
    endloop
  endfacet
  facet normal -0 0 1
    outer loop
      vertex 6.40859 -3.7 1
      vertex 12.3329 -5.49094 1
      vertex 7.14785 -1.91526 1
    endloop
  endfacet
  facet normal 0 0 1
    outer loop
      vertex 13.205 2.80681 1
      vertex 7.14785 1.91526 1
      vertex 7.4 0 1
    endloop
  endfacet
  facet normal 0 0 1
    outer loop
      vertex 3.7 6.40859 1
      vertex 9.03326 10.0325 1
      vertex 6.75 11.6913 1
    endloop
  endfacet
  facet normal 0 0 1
    outer loop
      vertex 12.3329 5.49094 1
      vertex 6.40859 3.7 1
      vertex 7.14785 1.91526 1
    endloop
  endfacet
  facet normal 0 0 1
    outer loop
      vertex 10.9217 7.9351 1
      vertex 5.23259 5.23259 1
      vertex 6.40859 3.7 1
    endloop
  endfacet
  facet normal 0 0 1
    outer loop
      vertex 3.7 6.40859 1
      vertex 6.75 11.6913 1
      vertex 4.17173 12.8393 1
    endloop
  endfacet
  facet normal 0 0 1
    outer loop
      vertex 9.03326 10.0325 1
      vertex 3.7 6.40859 1
      vertex 5.23259 5.23259 1
    endloop
  endfacet
  facet normal 0 0 1
    outer loop
      vertex 4.17173 12.8393 1
      vertex 1.91526 7.14785 1
      vertex 3.7 6.40859 1
    endloop
  endfacet
  facet normal 0 0 1
    outer loop
      vertex 1.41113 13.426 1
      vertex 1.91526 7.14785 1
      vertex 4.17173 12.8393 1
    endloop
  endfacet
  facet normal 0 0 1
    outer loop
      vertex 1.41113 13.426 1
      vertex 0 7.4 1
      vertex 1.91526 7.14785 1
    endloop
  endfacet
  facet normal -0 0 1
    outer loop
      vertex -1.41113 13.426 1
      vertex 0 7.4 1
      vertex 1.41113 13.426 1
    endloop
  endfacet
  facet normal 0 0 1
    outer loop
      vertex -1.41113 13.426 1
      vertex -1.91526 7.14785 1
      vertex 0 7.4 1
    endloop
  endfacet
  facet normal -0 0 1
    outer loop
      vertex -4.17173 12.8393 1
      vertex -1.91526 7.14785 1
      vertex -1.41113 13.426 1
    endloop
  endfacet
  facet normal 0 0 1
    outer loop
      vertex -1.91526 7.14785 1
      vertex -4.17173 12.8393 1
      vertex -3.7 6.40859 1
    endloop
  endfacet
  facet normal -0 0 1
    outer loop
      vertex -6.75 11.6913 1
      vertex -3.7 6.40859 1
      vertex -4.17173 12.8393 1
    endloop
  endfacet
  facet normal -0 0 1
    outer loop
      vertex -9.03326 10.0325 1
      vertex -3.7 6.40859 1
      vertex -6.75 11.6913 1
    endloop
  endfacet
  facet normal 0 0 1
    outer loop
      vertex -3.7 6.40859 1
      vertex -9.03326 10.0325 1
      vertex -5.23259 5.23259 1
    endloop
  endfacet
  facet normal -0 0 1
    outer loop
      vertex -10.9217 7.9351 1
      vertex -5.23259 5.23259 1
      vertex -9.03326 10.0325 1
    endloop
  endfacet
  facet normal 0 0 1
    outer loop
      vertex -5.23259 5.23259 1
      vertex -10.9217 7.9351 1
      vertex -6.40859 3.7 1
    endloop
  endfacet
  facet normal -0 0 1
    outer loop
      vertex -12.3329 5.49094 1
      vertex -6.40859 3.7 1
      vertex -10.9217 7.9351 1
    endloop
  endfacet
  facet normal 0 0 1
    outer loop
      vertex 12.3329 -5.49094 1
      vertex 6.40859 -3.7 1
      vertex 10.9217 -7.9351 1
    endloop
  endfacet
  facet normal -0 0 1
    outer loop
      vertex 5.23259 -5.23259 1
      vertex 10.9217 -7.9351 1
      vertex 6.40859 -3.7 1
    endloop
  endfacet
  facet normal 0 0 1
    outer loop
      vertex 10.9217 -7.9351 1
      vertex 5.23259 -5.23259 1
      vertex 9.03326 -10.0325 1
    endloop
  endfacet
  facet normal -0 0 1
    outer loop
      vertex 3.7 -6.40859 1
      vertex 9.03326 -10.0325 1
      vertex 5.23259 -5.23259 1
    endloop
  endfacet
  facet normal 0 0 1
    outer loop
      vertex 9.03326 -10.0325 1
      vertex 3.7 -6.40859 1
      vertex 6.75 -11.6913 1
    endloop
  endfacet
  facet normal 0 0 1
    outer loop
      vertex 6.75 -11.6913 1
      vertex 3.7 -6.40859 1
      vertex 4.17173 -12.8393 1
    endloop
  endfacet
  facet normal -0 0 1
    outer loop
      vertex 1.91526 -7.14785 1
      vertex 4.17173 -12.8393 1
      vertex 3.7 -6.40859 1
    endloop
  endfacet
  facet normal 0 0 1
    outer loop
      vertex 1.91526 -7.14785 1
      vertex 1.41113 -13.426 1
      vertex 4.17173 -12.8393 1
    endloop
  endfacet
  facet normal -0 0 1
    outer loop
      vertex 0 -7.4 1
      vertex 1.41113 -13.426 1
      vertex 1.91526 -7.14785 1
    endloop
  endfacet
  facet normal 0 0 1
    outer loop
      vertex 0 -7.4 1
      vertex -1.41113 -13.426 1
      vertex 1.41113 -13.426 1
    endloop
  endfacet
  facet normal 0 0 1
    outer loop
      vertex -1.91526 -7.14785 1
      vertex -1.41113 -13.426 1
      vertex 0 -7.4 1
    endloop
  endfacet
  facet normal 0 0 1
    outer loop
      vertex -4.17173 -12.8393 1
      vertex -1.91526 -7.14785 1
      vertex -3.7 -6.40859 1
    endloop
  endfacet
  facet normal 0 0 1
    outer loop
      vertex -1.91526 -7.14785 1
      vertex -4.17173 -12.8393 1
      vertex -1.41113 -13.426 1
    endloop
  endfacet
  facet normal 0 0 1
    outer loop
      vertex -9.03326 -10.0325 1
      vertex -3.7 -6.40859 1
      vertex -5.23259 -5.23259 1
    endloop
  endfacet
  facet normal 0 0 1
    outer loop
      vertex -10.9217 -7.9351 1
      vertex -5.23259 -5.23259 1
      vertex -6.40859 -3.7 1
    endloop
  endfacet
  facet normal 0 0 1
    outer loop
      vertex -3.7 -6.40859 1
      vertex -6.75 -11.6913 1
      vertex -4.17173 -12.8393 1
    endloop
  endfacet
  facet normal 0 0 1
    outer loop
      vertex -12.3329 -5.49094 1
      vertex -6.40859 -3.7 1
      vertex -7.14785 -1.91526 1
    endloop
  endfacet
  facet normal 0 0 1
    outer loop
      vertex -13.205 -2.80681 1
      vertex -7.14785 -1.91526 1
      vertex -7.4 0 1
    endloop
  endfacet
  facet normal 0 0 1
    outer loop
      vertex -6.40859 3.7 1
      vertex -12.3329 5.49094 1
      vertex -7.14785 1.91526 1
    endloop
  endfacet
  facet normal 0 0 1
    outer loop
      vertex -3.7 -6.40859 1
      vertex -9.03326 -10.0325 1
      vertex -6.75 -11.6913 1
    endloop
  endfacet
  facet normal -0 0 1
    outer loop
      vertex -13.205 2.80681 1
      vertex -7.14785 1.91526 1
      vertex -12.3329 5.49094 1
    endloop
  endfacet
  facet normal 0 0 1
    outer loop
      vertex -5.23259 -5.23259 1
      vertex -10.9217 -7.9351 1
      vertex -9.03326 -10.0325 1
    endloop
  endfacet
  facet normal 0 0 1
    outer loop
      vertex -7.14785 1.91526 1
      vertex -13.205 2.80681 1
      vertex -7.4 0 1
    endloop
  endfacet
  facet normal 0 0 1
    outer loop
      vertex -6.40859 -3.7 1
      vertex -12.3329 -5.49094 1
      vertex -10.9217 -7.9351 1
    endloop
  endfacet
  facet normal 0 0 1
    outer loop
      vertex -13.5 0 1
      vertex -7.4 0 1
      vertex -13.205 2.80681 1
    endloop
  endfacet
  facet normal 0 0 1
    outer loop
      vertex -7.14785 -1.91526 1
      vertex -13.205 -2.80681 1
      vertex -12.3329 -5.49094 1
    endloop
  endfacet
  facet normal 0 0 1
    outer loop
      vertex -7.4 0 1
      vertex -13.5 0 1
      vertex -13.205 -2.80681 1
    endloop
  endfacet
  facet normal 0 0 -1
    outer loop
      vertex 7.4 0 -19
      vertex 16 0 -19
      vertex 15.6504 -3.32659 -19
    endloop
  endfacet
  facet normal 0 0 -1
    outer loop
      vertex 7.14785 -1.91526 -19
      vertex 15.6504 -3.32659 -19
      vertex 14.6167 -6.50779 -19
    endloop
  endfacet
  facet normal 0 0 -1
    outer loop
      vertex 16 0 -19
      vertex 7.4 0 -19
      vertex 15.6504 3.32659 -19
    endloop
  endfacet
  facet normal 0 0 -1
    outer loop
      vertex 6.40859 -3.7 -19
      vertex 14.6167 -6.50779 -19
      vertex 12.9443 -9.40456 -19
    endloop
  endfacet
  facet normal 0 0 -1
    outer loop
      vertex 7.14785 1.91526 -19
      vertex 15.6504 3.32659 -19
      vertex 7.4 0 -19
    endloop
  endfacet
  facet normal 0 0 -1
    outer loop
      vertex 5.23259 -5.23259 -19
      vertex 12.9443 -9.40456 -19
      vertex 10.7061 -11.8903 -19
    endloop
  endfacet
  facet normal -0 0 -1
    outer loop
      vertex 15.6504 3.32659 -19
      vertex 7.14785 1.91526 -19
      vertex 14.6167 6.50779 -19
    endloop
  endfacet
  facet normal 0 0 -1
    outer loop
      vertex 3.7 -6.40859 -19
      vertex 10.7061 -11.8903 -19
      vertex 8 -13.8564 -19
    endloop
  endfacet
  facet normal 0 0 -1
    outer loop
      vertex 6.40859 3.7 -19
      vertex 14.6167 6.50779 -19
      vertex 7.14785 1.91526 -19
    endloop
  endfacet
  facet normal -0 0 -1
    outer loop
      vertex 14.6167 6.50779 -19
      vertex 6.40859 3.7 -19
      vertex 12.9443 9.40456 -19
    endloop
  endfacet
  facet normal 0 0 -1
    outer loop
      vertex 15.6504 -3.32659 -19
      vertex 7.14785 -1.91526 -19
      vertex 7.4 0 -19
    endloop
  endfacet
  facet normal 0 0 -1
    outer loop
      vertex 14.6167 -6.50779 -19
      vertex 6.40859 -3.7 -19
      vertex 7.14785 -1.91526 -19
    endloop
  endfacet
  facet normal 0 0 -1
    outer loop
      vertex 12.9443 -9.40456 -19
      vertex 5.23259 -5.23259 -19
      vertex 6.40859 -3.7 -19
    endloop
  endfacet
  facet normal 0 0 -1
    outer loop
      vertex 3.7 -6.40859 -19
      vertex 8 -13.8564 -19
      vertex 4.94427 -15.2169 -19
    endloop
  endfacet
  facet normal 0 0 -1
    outer loop
      vertex 10.7061 -11.8903 -19
      vertex 3.7 -6.40859 -19
      vertex 5.23259 -5.23259 -19
    endloop
  endfacet
  facet normal 0 0 -1
    outer loop
      vertex 4.94427 -15.2169 -19
      vertex 1.91526 -7.14785 -19
      vertex 3.7 -6.40859 -19
    endloop
  endfacet
  facet normal 0 0 -1
    outer loop
      vertex 1.67245 -15.9123 -19
      vertex 1.91526 -7.14785 -19
      vertex 4.94427 -15.2169 -19
    endloop
  endfacet
  facet normal 0 0 -1
    outer loop
      vertex 1.67245 -15.9123 -19
      vertex 0 -7.4 -19
      vertex 1.91526 -7.14785 -19
    endloop
  endfacet
  facet normal 0 0 -1
    outer loop
      vertex -1.67245 -15.9123 -19
      vertex 0 -7.4 -19
      vertex 1.67245 -15.9123 -19
    endloop
  endfacet
  facet normal 0 0 -1
    outer loop
      vertex -1.67245 -15.9123 -19
      vertex -1.91526 -7.14785 -19
      vertex 0 -7.4 -19
    endloop
  endfacet
  facet normal 0 0 -1
    outer loop
      vertex -4.94427 -15.2169 -19
      vertex -1.91526 -7.14785 -19
      vertex -1.67245 -15.9123 -19
    endloop
  endfacet
  facet normal -0 0 -1
    outer loop
      vertex -1.91526 -7.14785 -19
      vertex -4.94427 -15.2169 -19
      vertex -3.7 -6.40859 -19
    endloop
  endfacet
  facet normal 0 0 -1
    outer loop
      vertex -8 -13.8564 -19
      vertex -3.7 -6.40859 -19
      vertex -4.94427 -15.2169 -19
    endloop
  endfacet
  facet normal 0 0 -1
    outer loop
      vertex -10.7061 -11.8903 -19
      vertex -3.7 -6.40859 -19
      vertex -8 -13.8564 -19
    endloop
  endfacet
  facet normal -0 0 -1
    outer loop
      vertex -3.7 -6.40859 -19
      vertex -10.7061 -11.8903 -19
      vertex -5.23259 -5.23259 -19
    endloop
  endfacet
  facet normal 0 0 -1
    outer loop
      vertex -12.9443 -9.40456 -19
      vertex -5.23259 -5.23259 -19
      vertex -10.7061 -11.8903 -19
    endloop
  endfacet
  facet normal -0 0 -1
    outer loop
      vertex -5.23259 -5.23259 -19
      vertex -12.9443 -9.40456 -19
      vertex -6.40859 -3.7 -19
    endloop
  endfacet
  facet normal 0 0 -1
    outer loop
      vertex -14.6167 -6.50779 -19
      vertex -6.40859 -3.7 -19
      vertex -12.9443 -9.40456 -19
    endloop
  endfacet
  facet normal -0 0 -1
    outer loop
      vertex -6.40859 -3.7 -19
      vertex -14.6167 -6.50779 -19
      vertex -7.14785 -1.91526 -19
    endloop
  endfacet
  facet normal 0 0 -1
    outer loop
      vertex -7.4 0 -19
      vertex -10.7061 11.8903 -19
      vertex -8 13.8564 -19
    endloop
  endfacet
  facet normal 0 0 -1
    outer loop
      vertex -15.6504 -3.32659 -19
      vertex -7.14785 -1.91526 -19
      vertex -14.6167 -6.50779 -19
    endloop
  endfacet
  facet normal 0 0 -1
    outer loop
      vertex -7.4 0 -19
      vertex -12.9443 9.40456 -19
      vertex -10.7061 11.8903 -19
    endloop
  endfacet
  facet normal -0 0 -1
    outer loop
      vertex -7.14785 -1.91526 -19
      vertex -15.6504 -3.32659 -19
      vertex -7.4 0 -19
    endloop
  endfacet
  facet normal 0 0 -1
    outer loop
      vertex -7.4 0 -19
      vertex -14.6167 6.50779 -19
      vertex -12.9443 9.40456 -19
    endloop
  endfacet
  facet normal 0 0 -1
    outer loop
      vertex -16 0 -19
      vertex -7.4 0 -19
      vertex -15.6504 -3.32659 -19
    endloop
  endfacet
  facet normal 0 0 -1
    outer loop
      vertex -7.4 0 -19
      vertex -15.6504 3.32659 -19
      vertex -14.6167 6.50779 -19
    endloop
  endfacet
  facet normal 0 0 -1
    outer loop
      vertex -7.4 0 -19
      vertex -16 0 -19
      vertex -15.6504 3.32659 -19
    endloop
  endfacet
  facet normal 0 0 -1
    outer loop
      vertex 5.23259 5.23259 -19
      vertex 12.9443 9.40456 -19
      vertex 6.40859 3.7 -19
    endloop
  endfacet
  facet normal -0 0 -1
    outer loop
      vertex 12.9443 9.40456 -19
      vertex 5.23259 5.23259 -19
      vertex 10.7061 11.8903 -19
    endloop
  endfacet
  facet normal 0 0 -1
    outer loop
      vertex 3.7 6.40859 -19
      vertex 10.7061 11.8903 -19
      vertex 5.23259 5.23259 -19
    endloop
  endfacet
  facet normal -0 0 -1
    outer loop
      vertex 10.7061 11.8903 -19
      vertex 3.7 6.40859 -19
      vertex 8 13.8564 -19
    endloop
  endfacet
  facet normal -0 0 -1
    outer loop
      vertex 8 13.8564 -19
      vertex 3.7 6.40859 -19
      vertex 4.94427 15.2169 -19
    endloop
  endfacet
  facet normal 0 0 -1
    outer loop
      vertex 1.91526 7.14785 -19
      vertex 4.94427 15.2169 -19
      vertex 3.7 6.40859 -19
    endloop
  endfacet
  facet normal 0 0 -1
    outer loop
      vertex 1.91526 7.14785 -19
      vertex 1.67245 15.9123 -19
      vertex 4.94427 15.2169 -19
    endloop
  endfacet
  facet normal 0 0 -1
    outer loop
      vertex 0 7.4 -19
      vertex 1.67245 15.9123 -19
      vertex 1.91526 7.14785 -19
    endloop
  endfacet
  facet normal 0 0 -1
    outer loop
      vertex 0 7.4 -19
      vertex -1.67245 15.9123 -19
      vertex 1.67245 15.9123 -19
    endloop
  endfacet
  facet normal 0 0 -1
    outer loop
      vertex -1.91526 7.14785 -19
      vertex -1.67245 15.9123 -19
      vertex 0 7.4 -19
    endloop
  endfacet
  facet normal 0 0 -1
    outer loop
      vertex -4.94427 15.2169 -19
      vertex -1.91526 7.14785 -19
      vertex -3.7 6.40859 -19
    endloop
  endfacet
  facet normal 0 0 -1
    outer loop
      vertex -1.91526 7.14785 -19
      vertex -4.94427 15.2169 -19
      vertex -1.67245 15.9123 -19
    endloop
  endfacet
  facet normal 0 0 -1
    outer loop
      vertex -8 13.8564 -19
      vertex -3.7 6.40859 -19
      vertex -5.23259 5.23259 -19
    endloop
  endfacet
  facet normal 0 0 -1
    outer loop
      vertex -8 13.8564 -19
      vertex -5.23259 5.23259 -19
      vertex -6.40859 3.7 -19
    endloop
  endfacet
  facet normal 0 0 -1
    outer loop
      vertex -8 13.8564 -19
      vertex -6.40859 3.7 -19
      vertex -7.14785 1.91526 -19
    endloop
  endfacet
  facet normal 0 0 -1
    outer loop
      vertex -3.7 6.40859 -19
      vertex -8 13.8564 -19
      vertex -4.94427 15.2169 -19
    endloop
  endfacet
  facet normal 0 0 -1
    outer loop
      vertex -8 13.8564 -19
      vertex -7.14785 1.91526 -19
      vertex -7.4 0 -19
    endloop
  endfacet
  facet normal 0.991445 -0.130526 0
    outer loop
      vertex -7.4 0 1
      vertex -7.14785 1.91526 -19
      vertex -7.14785 1.91526 1
    endloop
  endfacet
  facet normal 0.991445 -0.130526 0
    outer loop
      vertex -7.14785 1.91526 -19
      vertex -7.4 0 1
      vertex -7.4 0 -19
    endloop
  endfacet
  facet normal 0.991445 0.130526 0
    outer loop
      vertex -7.14785 -1.91526 1
      vertex -7.4 0 -19
      vertex -7.4 0 1
    endloop
  endfacet
  facet normal 0.991445 0.130526 0
    outer loop
      vertex -7.4 0 -19
      vertex -7.14785 -1.91526 1
      vertex -7.14785 -1.91526 -19
    endloop
  endfacet
  facet normal -0.793353 -0.608761 0
    outer loop
      vertex 6.40859 3.7 -19
      vertex 5.23259 5.23259 1
      vertex 5.23259 5.23259 -19
    endloop
  endfacet
  facet normal -0.793353 -0.608761 0
    outer loop
      vertex 5.23259 5.23259 1
      vertex 6.40859 3.7 -19
      vertex 6.40859 3.7 1
    endloop
  endfacet
  facet normal -0.923879 -0.382684 0
    outer loop
      vertex 7.14785 1.91526 -19
      vertex 6.40859 3.7 1
      vertex 6.40859 3.7 -19
    endloop
  endfacet
  facet normal -0.923879 -0.382684 0
    outer loop
      vertex 6.40859 3.7 1
      vertex 7.14785 1.91526 -19
      vertex 7.14785 1.91526 1
    endloop
  endfacet
  facet normal 0.382684 -0.923879 0
    outer loop
      vertex -3.7 6.40859 -19
      vertex -1.91526 7.14785 1
      vertex -3.7 6.40859 1
    endloop
  endfacet
  facet normal 0.382684 -0.923879 0
    outer loop
      vertex -1.91526 7.14785 1
      vertex -3.7 6.40859 -19
      vertex -1.91526 7.14785 -19
    endloop
  endfacet
  facet normal -0.991445 0.130526 0
    outer loop
      vertex 7.14785 -1.91526 -19
      vertex 7.4 0 1
      vertex 7.4 0 -19
    endloop
  endfacet
  facet normal -0.991445 0.130526 0
    outer loop
      vertex 7.4 0 1
      vertex 7.14785 -1.91526 -19
      vertex 7.14785 -1.91526 1
    endloop
  endfacet
  facet normal -0.608761 -0.793353 0
    outer loop
      vertex 3.7 6.40859 -19
      vertex 5.23259 5.23259 1
      vertex 3.7 6.40859 1
    endloop
  endfacet
  facet normal -0.608761 -0.793353 -0
    outer loop
      vertex 5.23259 5.23259 1
      vertex 3.7 6.40859 -19
      vertex 5.23259 5.23259 -19
    endloop
  endfacet
  facet normal 0.130526 -0.991445 0
    outer loop
      vertex -1.91526 7.14785 -19
      vertex 0 7.4 1
      vertex -1.91526 7.14785 1
    endloop
  endfacet
  facet normal 0.130526 -0.991445 0
    outer loop
      vertex 0 7.4 1
      vertex -1.91526 7.14785 -19
      vertex 0 7.4 -19
    endloop
  endfacet
  facet normal -0.382684 -0.923879 0
    outer loop
      vertex 1.91526 7.14785 -19
      vertex 3.7 6.40859 1
      vertex 1.91526 7.14785 1
    endloop
  endfacet
  facet normal -0.382684 -0.923879 -0
    outer loop
      vertex 3.7 6.40859 1
      vertex 1.91526 7.14785 -19
      vertex 3.7 6.40859 -19
    endloop
  endfacet
  facet normal 0.923879 -0.382684 0
    outer loop
      vertex -7.14785 1.91526 1
      vertex -6.40859 3.7 -19
      vertex -6.40859 3.7 1
    endloop
  endfacet
  facet normal 0.923879 -0.382684 0
    outer loop
      vertex -6.40859 3.7 -19
      vertex -7.14785 1.91526 1
      vertex -7.14785 1.91526 -19
    endloop
  endfacet
  facet normal 0.608761 -0.793353 0
    outer loop
      vertex -5.23259 5.23259 -19
      vertex -3.7 6.40859 1
      vertex -5.23259 5.23259 1
    endloop
  endfacet
  facet normal 0.608761 -0.793353 0
    outer loop
      vertex -3.7 6.40859 1
      vertex -5.23259 5.23259 -19
      vertex -3.7 6.40859 -19
    endloop
  endfacet
  facet normal 0.793353 -0.608761 0
    outer loop
      vertex -6.40859 3.7 1
      vertex -5.23259 5.23259 -19
      vertex -5.23259 5.23259 1
    endloop
  endfacet
  facet normal 0.793353 -0.608761 0
    outer loop
      vertex -5.23259 5.23259 -19
      vertex -6.40859 3.7 1
      vertex -6.40859 3.7 -19
    endloop
  endfacet
  facet normal -0.991445 -0.130526 0
    outer loop
      vertex 7.4 0 -19
      vertex 7.14785 1.91526 1
      vertex 7.14785 1.91526 -19
    endloop
  endfacet
  facet normal -0.991445 -0.130526 0
    outer loop
      vertex 7.14785 1.91526 1
      vertex 7.4 0 -19
      vertex 7.4 0 1
    endloop
  endfacet
  facet normal -0.382684 0.923879 0
    outer loop
      vertex 3.7 -6.40859 -19
      vertex 1.91526 -7.14785 1
      vertex 3.7 -6.40859 1
    endloop
  endfacet
  facet normal -0.382684 0.923879 0
    outer loop
      vertex 1.91526 -7.14785 1
      vertex 3.7 -6.40859 -19
      vertex 1.91526 -7.14785 -19
    endloop
  endfacet
  facet normal -0.608761 0.793353 0
    outer loop
      vertex 5.23259 -5.23259 -19
      vertex 3.7 -6.40859 1
      vertex 5.23259 -5.23259 1
    endloop
  endfacet
  facet normal -0.608761 0.793353 0
    outer loop
      vertex 3.7 -6.40859 1
      vertex 5.23259 -5.23259 -19
      vertex 3.7 -6.40859 -19
    endloop
  endfacet
  facet normal -0.130526 -0.991445 0
    outer loop
      vertex 0 7.4 -19
      vertex 1.91526 7.14785 1
      vertex 0 7.4 1
    endloop
  endfacet
  facet normal -0.130526 -0.991445 -0
    outer loop
      vertex 1.91526 7.14785 1
      vertex 0 7.4 -19
      vertex 1.91526 7.14785 -19
    endloop
  endfacet
  facet normal -0.923879 0.382684 0
    outer loop
      vertex 6.40859 -3.7 -19
      vertex 7.14785 -1.91526 1
      vertex 7.14785 -1.91526 -19
    endloop
  endfacet
  facet normal -0.923879 0.382684 0
    outer loop
      vertex 7.14785 -1.91526 1
      vertex 6.40859 -3.7 -19
      vertex 6.40859 -3.7 1
    endloop
  endfacet
  facet normal -0.130526 0.991445 0
    outer loop
      vertex 1.91526 -7.14785 -19
      vertex 0 -7.4 1
      vertex 1.91526 -7.14785 1
    endloop
  endfacet
  facet normal -0.130526 0.991445 0
    outer loop
      vertex 0 -7.4 1
      vertex 1.91526 -7.14785 -19
      vertex 0 -7.4 -19
    endloop
  endfacet
  facet normal 0.130526 0.991445 -0
    outer loop
      vertex 0 -7.4 -19
      vertex -1.91526 -7.14785 1
      vertex 0 -7.4 1
    endloop
  endfacet
  facet normal 0.130526 0.991445 0
    outer loop
      vertex -1.91526 -7.14785 1
      vertex 0 -7.4 -19
      vertex -1.91526 -7.14785 -19
    endloop
  endfacet
  facet normal 0.793353 0.608761 0
    outer loop
      vertex -5.23259 -5.23259 1
      vertex -6.40859 -3.7 -19
      vertex -6.40859 -3.7 1
    endloop
  endfacet
  facet normal 0.793353 0.608761 0
    outer loop
      vertex -6.40859 -3.7 -19
      vertex -5.23259 -5.23259 1
      vertex -5.23259 -5.23259 -19
    endloop
  endfacet
  facet normal 0.923879 0.382684 0
    outer loop
      vertex -6.40859 -3.7 1
      vertex -7.14785 -1.91526 -19
      vertex -7.14785 -1.91526 1
    endloop
  endfacet
  facet normal 0.923879 0.382684 0
    outer loop
      vertex -7.14785 -1.91526 -19
      vertex -6.40859 -3.7 1
      vertex -6.40859 -3.7 -19
    endloop
  endfacet
  facet normal 0.608761 0.793353 -0
    outer loop
      vertex -3.7 -6.40859 -19
      vertex -5.23259 -5.23259 1
      vertex -3.7 -6.40859 1
    endloop
  endfacet
  facet normal 0.608761 0.793353 0
    outer loop
      vertex -5.23259 -5.23259 1
      vertex -3.7 -6.40859 -19
      vertex -5.23259 -5.23259 -19
    endloop
  endfacet
  facet normal -0.793353 0.608761 0
    outer loop
      vertex 5.23259 -5.23259 -19
      vertex 6.40859 -3.7 1
      vertex 6.40859 -3.7 -19
    endloop
  endfacet
  facet normal -0.793353 0.608761 0
    outer loop
      vertex 6.40859 -3.7 1
      vertex 5.23259 -5.23259 -19
      vertex 5.23259 -5.23259 1
    endloop
  endfacet
  facet normal 0.382684 0.923879 -0
    outer loop
      vertex -1.91526 -7.14785 -19
      vertex -3.7 -6.40859 1
      vertex -1.91526 -7.14785 1
    endloop
  endfacet
  facet normal 0.382684 0.923879 0
    outer loop
      vertex -3.7 -6.40859 1
      vertex -1.91526 -7.14785 -19
      vertex -3.7 -6.40859 -19
    endloop
  endfacet
endsolid OpenSCAD_Model
