solid OpenSCAD_Model
  facet normal 0 -1 0
    outer loop
      vertex -0.964293 -7.94167 110
      vertex -0.809016 -7.94167 60
      vertex 0.964293 -7.94167 110
    endloop
  endfacet
  facet normal 0 -1 0
    outer loop
      vertex -0.964293 -7.94167 110
      vertex -0.809016 -7.94167 50
      vertex -0.809016 -7.94167 60
    endloop
  endfacet
  facet normal 0 -1 -0
    outer loop
      vertex -0.809016 -7.94167 50
      vertex -0.964293 -7.94167 0
      vertex 0.957621 -7.94167 50
    endloop
  endfacet
  facet normal 0 -1 0
    outer loop
      vertex -0.964293 -7.94167 0
      vertex -0.809016 -7.94167 50
      vertex -0.964293 -7.94167 110
    endloop
  endfacet
  facet normal 0 -1 0
    outer loop
      vertex 0.957621 -7.94167 60
      vertex 0.964293 -7.94167 110
      vertex -0.809016 -7.94167 60
    endloop
  endfacet
  facet normal 0 -1 0
    outer loop
      vertex 0.957621 -7.94167 50
      vertex 0.964293 -7.94167 110
      vertex 0.957621 -7.94167 60
    endloop
  endfacet
  facet normal 0 -1 0
    outer loop
      vertex 0.957621 -7.94167 50
      vertex 0.964293 -7.94167 0
      vertex 0.964293 -7.94167 110
    endloop
  endfacet
  facet normal 0 -1 0
    outer loop
      vertex 0.964293 -7.94167 0
      vertex 0.957621 -7.94167 50
      vertex -0.964293 -7.94167 0
    endloop
  endfacet
  facet normal 0 0 1
    outer loop
      vertex -25 71 110
      vertex -25.3059 73.9108 110
      vertex -25.236 71 110
    endloop
  endfacet
  facet normal -0 0 1
    outer loop
      vertex -6.21166 0 110
      vertex -5.91817 -0.987567 110
      vertex -5.91817 0 110
    endloop
  endfacet
  facet normal 0 0 1
    outer loop
      vertex -5.91817 -0.987567 110
      vertex -6.21166 0 110
      vertex -7.35371 -3.0057 110
    endloop
  endfacet
  facet normal 0 0 1
    outer loop
      vertex -5.91817 -0.987567 110
      vertex -7.08365 -3.71778 110
      vertex -5.98809 -5.30498 110
    endloop
  endfacet
  facet normal 0 0 1
    outer loop
      vertex -5.91817 -0.987567 110
      vertex -7.35371 -3.0057 110
      vertex -7.08365 -3.71778 110
    endloop
  endfacet
  facet normal 0 0 1
    outer loop
      vertex -6.21166 0 110
      vertex -7.46859 -3.03648 110
      vertex -7.35371 -3.0057 110
    endloop
  endfacet
  facet normal 0 0 1
    outer loop
      vertex -25.236 71 110
      vertex -7.46859 -3.03648 110
      vertex -6.21166 0 110
    endloop
  endfacet
  facet normal -0 0 1
    outer loop
      vertex -27.5572 74.4029 110
      vertex -25.3059 73.9108 110
      vertex -26.2104 76.6943 110
    endloop
  endfacet
  facet normal 0 0 1
    outer loop
      vertex -25.3059 73.9108 110
      vertex -27.5572 74.4029 110
      vertex -25.236 71 110
    endloop
  endfacet
  facet normal -0 0 1
    outer loop
      vertex -28.1741 74.2376 110
      vertex -25.236 71 110
      vertex -27.5572 74.4029 110
    endloop
  endfacet
  facet normal 0 0 1
    outer loop
      vertex -25.236 71 110
      vertex -28.1741 74.2376 110
      vertex -7.46859 -3.03648 110
    endloop
  endfacet
  facet normal -0 0 1
    outer loop
      vertex 6 0 110
      vertex 8 -1 110
      vertex 8 79 110
    endloop
  endfacet
  facet normal 0 0 1
    outer loop
      vertex 8 -1 110
      vertex 6 0 110
      vertex 7.87858 -1 110
    endloop
  endfacet
  facet normal 0 0 1
    outer loop
      vertex 5.6749 -1.9482 110
      vertex 7.87858 -1 110
      vertex 6 0 110
    endloop
  endfacet
  facet normal 0 0 1
    outer loop
      vertex 6 0 110
      vertex 8 79 110
      vertex 6 79 110
    endloop
  endfacet
  facet normal 0 0 1
    outer loop
      vertex 7.87858 -1 110
      vertex 5.6749 -1.9482 110
      vertex 7.76753 -1.91453 110
    endloop
  endfacet
  facet normal 0 0 1
    outer loop
      vertex 7.76753 -1.91453 110
      vertex 5.6749 -1.9482 110
      vertex 7.08365 -3.71778 110
    endloop
  endfacet
  facet normal -0 0 1
    outer loop
      vertex 4.73484 -3.68528 110
      vertex 7.08365 -3.71778 110
      vertex 5.6749 -1.9482 110
    endloop
  endfacet
  facet normal 0 0 1
    outer loop
      vertex 7.08365 -3.71778 110
      vertex 4.73484 -3.68528 110
      vertex 5.98809 -5.30498 110
    endloop
  endfacet
  facet normal -0 0 1
    outer loop
      vertex 3.28169 -5.023 110
      vertex 5.98809 -5.30498 110
      vertex 4.73484 -3.68528 110
    endloop
  endfacet
  facet normal 0 0 1
    outer loop
      vertex 5.98809 -5.30498 110
      vertex 3.28169 -5.023 110
      vertex 4.54452 -6.58387 110
    endloop
  endfacet
  facet normal 0 0 1
    outer loop
      vertex 3.28169 -5.023 110
      vertex 2.83684 -7.48013 110
      vertex 4.54452 -6.58387 110
    endloop
  endfacet
  facet normal -0 0 1
    outer loop
      vertex 1.47291 -5.8164 110
      vertex 2.83684 -7.48013 110
      vertex 3.28169 -5.023 110
    endloop
  endfacet
  facet normal 0 0 1
    outer loop
      vertex 1.47291 -5.8164 110
      vertex 0.964293 -7.94167 110
      vertex 2.83684 -7.48013 110
    endloop
  endfacet
  facet normal -0 0 1
    outer loop
      vertex -0.495476 -5.97951 110
      vertex 0.964293 -7.94167 110
      vertex 1.47291 -5.8164 110
    endloop
  endfacet
  facet normal 0 0 1
    outer loop
      vertex -0.495476 -5.97951 110
      vertex -0.964293 -7.94167 110
      vertex 0.964293 -7.94167 110
    endloop
  endfacet
  facet normal 0 0 1
    outer loop
      vertex -2.83684 -7.48013 110
      vertex -0.495476 -5.97951 110
      vertex -2.41017 -5.49464 110
    endloop
  endfacet
  facet normal 0 0 1
    outer loop
      vertex -0.495476 -5.97951 110
      vertex -2.83684 -7.48013 110
      vertex -0.964293 -7.94167 110
    endloop
  endfacet
  facet normal 0 0 1
    outer loop
      vertex -4.54452 -6.58387 110
      vertex -2.41017 -5.49464 110
      vertex -4.06369 -4.41434 110
    endloop
  endfacet
  facet normal 0 0 1
    outer loop
      vertex -2.41017 -5.49464 110
      vertex -4.54452 -6.58387 110
      vertex -2.83684 -7.48013 110
    endloop
  endfacet
  facet normal 0 0 1
    outer loop
      vertex -5.98809 -5.30498 110
      vertex -4.06369 -4.41434 110
      vertex -5.27684 -2.85568 110
    endloop
  endfacet
  facet normal 0 0 1
    outer loop
      vertex -5.98809 -5.30498 110
      vertex -5.27684 -2.85568 110
      vertex -5.91817 -0.987567 110
    endloop
  endfacet
  facet normal 0 0 1
    outer loop
      vertex -4.06369 -4.41434 110
      vertex -5.98809 -5.30498 110
      vertex -4.54452 -6.58387 110
    endloop
  endfacet
  facet normal -0 0 1
    outer loop
      vertex -64.3458 5 110
      vertex -63.9182 4.01243 110
      vertex -63.9182 5 110
    endloop
  endfacet
  facet normal 0 0 1
    outer loop
      vertex -63.9182 4.01243 110
      vertex -64.3458 5 110
      vertex -65.6018 2.6486 110
    endloop
  endfacet
  facet normal 0 0 1
    outer loop
      vertex -63.9182 4.01243 110
      vertex -65.0836 1.28222 110
      vertex -63.9881 -0.304981 110
    endloop
  endfacet
  facet normal 0 0 1
    outer loop
      vertex -63.9182 4.01243 110
      vertex -65.6018 2.6486 110
      vertex -65.0836 1.28222 110
    endloop
  endfacet
  facet normal 0 0 1
    outer loop
      vertex -64.3458 5 110
      vertex -65.9512 2.587 110
      vertex -65.6018 2.6486 110
    endloop
  endfacet
  facet normal -0 0 1
    outer loop
      vertex -78.1065 71.5235 110
      vertex -64.3458 5 110
      vertex -76.1369 71.8708 110
    endloop
  endfacet
  facet normal 0 0 1
    outer loop
      vertex -64.3458 5 110
      vertex -78.1065 71.5235 110
      vertex -65.9512 2.587 110
    endloop
  endfacet
  facet normal 0 0 1
    outer loop
      vertex -50.5 74.2267 110
      vertex -52.6941 73.9108 110
      vertex -52.5 71 110
    endloop
  endfacet
  facet normal 0 0 1
    outer loop
      vertex -52.5 71 110
      vertex -52.6941 73.9108 110
      vertex -53 71 110
    endloop
  endfacet
  facet normal -0 0 1
    outer loop
      vertex -52.5 74.508 110
      vertex -50.5 74.2267 110
      vertex -52.3402 75 110
    endloop
  endfacet
  facet normal 0 0 1
    outer loop
      vertex -52.5 74.508 110
      vertex -52.3402 75 110
      vertex -52.5 75 110
    endloop
  endfacet
  facet normal 0 0 1
    outer loop
      vertex -52.6941 73.9108 110
      vertex -50.5 74.2267 110
      vertex -52.5 74.508 110
    endloop
  endfacet
  facet normal 0 0 1
    outer loop
      vertex -50.5 74.2267 110
      vertex -52.5 71 110
      vertex -52 5 110
    endloop
  endfacet
  facet normal 0 0 1
    outer loop
      vertex -52 5 110
      vertex -52.5 71 110
      vertex -52.5 5 110
    endloop
  endfacet
  facet normal 0 0 1
    outer loop
      vertex -28.0375 75.8808 110
      vertex -26.2104 76.6943 110
      vertex -27.6738 79.229 110
    endloop
  endfacet
  facet normal 0 0 1
    outer loop
      vertex -26.2104 76.6943 110
      vertex -28.0375 75.8808 110
      vertex -27.5572 74.4029 110
    endloop
  endfacet
  facet normal 0 0 1
    outer loop
      vertex -27.6738 79.229 110
      vertex -29.2918 78.0534 110
      vertex -28.0375 75.8808 110
    endloop
  endfacet
  facet normal 0 0 1
    outer loop
      vertex -29.6322 81.404 110
      vertex -29.2918 78.0534 110
      vertex -27.6738 79.229 110
    endloop
  endfacet
  facet normal 0 0 1
    outer loop
      vertex -29.6322 81.404 110
      vertex -30.9704 79.9177 110
      vertex -29.2918 78.0534 110
    endloop
  endfacet
  facet normal 0 0 1
    outer loop
      vertex -32 83.1244 110
      vertex -30.9704 79.9177 110
      vertex -29.6322 81.404 110
    endloop
  endfacet
  facet normal 0 0 1
    outer loop
      vertex -32 83.1244 110
      vertex -33 81.3923 110
      vertex -30.9704 79.9177 110
    endloop
  endfacet
  facet normal 0 0 1
    outer loop
      vertex -34.6738 84.3148 110
      vertex -33 81.3923 110
      vertex -32 83.1244 110
    endloop
  endfacet
  facet normal 0 0 1
    outer loop
      vertex -34.6738 84.3148 110
      vertex -35.2918 82.4127 110
      vertex -33 81.3923 110
    endloop
  endfacet
  facet normal 0 0 1
    outer loop
      vertex -37.5366 84.9233 110
      vertex -35.2918 82.4127 110
      vertex -34.6738 84.3148 110
    endloop
  endfacet
  facet normal 0 0 1
    outer loop
      vertex -37.5366 84.9233 110
      vertex -37.7457 82.9343 110
      vertex -35.2918 82.4127 110
    endloop
  endfacet
  facet normal 0 0 1
    outer loop
      vertex -37.5366 84.9233 110
      vertex -40.2543 82.9343 110
      vertex -37.7457 82.9343 110
    endloop
  endfacet
  facet normal -0 0 1
    outer loop
      vertex -40.4634 84.9233 110
      vertex -40.2543 82.9343 110
      vertex -37.5366 84.9233 110
    endloop
  endfacet
  facet normal 0 0 1
    outer loop
      vertex -40.4634 84.9233 110
      vertex -42.7082 82.4127 110
      vertex -40.2543 82.9343 110
    endloop
  endfacet
  facet normal -0 0 1
    outer loop
      vertex -43.3262 84.3148 110
      vertex -42.7082 82.4127 110
      vertex -40.4634 84.9233 110
    endloop
  endfacet
  facet normal 0 0 1
    outer loop
      vertex -43.3262 84.3148 110
      vertex -45 81.3923 110
      vertex -42.7082 82.4127 110
    endloop
  endfacet
  facet normal -0 0 1
    outer loop
      vertex -46 83.1244 110
      vertex -45 81.3923 110
      vertex -43.3262 84.3148 110
    endloop
  endfacet
  facet normal 0 0 1
    outer loop
      vertex -46 83.1244 110
      vertex -47.0296 79.9177 110
      vertex -45 81.3923 110
    endloop
  endfacet
  facet normal -0 0 1
    outer loop
      vertex -48.3678 81.404 110
      vertex -47.0296 79.9177 110
      vertex -46 83.1244 110
    endloop
  endfacet
  facet normal 0 0 1
    outer loop
      vertex -48.3678 81.404 110
      vertex -48.7082 78.0534 110
      vertex -47.0296 79.9177 110
    endloop
  endfacet
  facet normal -0 0 1
    outer loop
      vertex -50.3262 79.229 110
      vertex -48.7082 78.0534 110
      vertex -48.3678 81.404 110
    endloop
  endfacet
  facet normal 0 0 1
    outer loop
      vertex -48.7082 78.0534 110
      vertex -50.3262 79.229 110
      vertex -49.9625 75.8808 110
    endloop
  endfacet
  facet normal -0 0 1
    outer loop
      vertex -51.7896 76.6943 110
      vertex -49.9625 75.8808 110
      vertex -50.3262 79.229 110
    endloop
  endfacet
  facet normal 0 0 1
    outer loop
      vertex -52 5 110
      vertex -50.5 5 110
      vertex -50.5 74.2267 110
    endloop
  endfacet
  facet normal 0 0 1
    outer loop
      vertex -52.3402 75 110
      vertex -49.9625 75.8808 110
      vertex -51.7896 76.6943 110
    endloop
  endfacet
  facet normal 0 0 1
    outer loop
      vertex -49.9625 75.8808 110
      vertex -52.3402 75 110
      vertex -50.5 74.2267 110
    endloop
  endfacet
  facet normal 0 0 1
    outer loop
      vertex -52.3251 3.0518 110
      vertex -50.5 5 110
      vertex -52 5 110
    endloop
  endfacet
  facet normal 0 0 1
    outer loop
      vertex -50.5 5 110
      vertex -52.3251 3.0518 110
      vertex -50.9164 1.28222 110
    endloop
  endfacet
  facet normal -0 0 1
    outer loop
      vertex -53.2652 1.31472 110
      vertex -50.9164 1.28222 110
      vertex -52.3251 3.0518 110
    endloop
  endfacet
  facet normal 0 0 1
    outer loop
      vertex -50.9164 1.28222 110
      vertex -53.2652 1.31472 110
      vertex -52.0119 -0.304981 110
    endloop
  endfacet
  facet normal -0 0 1
    outer loop
      vertex -54.7183 -0.0229988 110
      vertex -52.0119 -0.304981 110
      vertex -53.2652 1.31472 110
    endloop
  endfacet
  facet normal 0 0 1
    outer loop
      vertex -52.0119 -0.304981 110
      vertex -54.7183 -0.0229988 110
      vertex -53.4555 -1.58387 110
    endloop
  endfacet
  facet normal 0 0 1
    outer loop
      vertex -54.7183 -0.0229988 110
      vertex -55.1632 -2.48013 110
      vertex -53.4555 -1.58387 110
    endloop
  endfacet
  facet normal -0 0 1
    outer loop
      vertex -56.5271 -0.816401 110
      vertex -55.1632 -2.48013 110
      vertex -54.7183 -0.0229988 110
    endloop
  endfacet
  facet normal 0 0 1
    outer loop
      vertex -56.5271 -0.816401 110
      vertex -57.0357 -2.94167 110
      vertex -55.1632 -2.48013 110
    endloop
  endfacet
  facet normal -0 0 1
    outer loop
      vertex -58.4955 -0.979506 110
      vertex -57.0357 -2.94167 110
      vertex -56.5271 -0.816401 110
    endloop
  endfacet
  facet normal 0 0 1
    outer loop
      vertex -58.4955 -0.979506 110
      vertex -58.9643 -2.94167 110
      vertex -57.0357 -2.94167 110
    endloop
  endfacet
  facet normal 0 0 1
    outer loop
      vertex -60.8368 -2.48013 110
      vertex -58.4955 -0.979506 110
      vertex -60.4102 -0.494639 110
    endloop
  endfacet
  facet normal 0 0 1
    outer loop
      vertex -58.4955 -0.979506 110
      vertex -60.8368 -2.48013 110
      vertex -58.9643 -2.94167 110
    endloop
  endfacet
  facet normal 0 0 1
    outer loop
      vertex -62.5445 -1.58387 110
      vertex -60.4102 -0.494639 110
      vertex -62.0637 0.585657 110
    endloop
  endfacet
  facet normal 0 0 1
    outer loop
      vertex -60.4102 -0.494639 110
      vertex -62.5445 -1.58387 110
      vertex -60.8368 -2.48013 110
    endloop
  endfacet
  facet normal 0 0 1
    outer loop
      vertex -63.9881 -0.304981 110
      vertex -62.0637 0.585657 110
      vertex -63.2768 2.14432 110
    endloop
  endfacet
  facet normal 0 0 1
    outer loop
      vertex -63.9881 -0.304981 110
      vertex -63.2768 2.14432 110
      vertex -63.9182 4.01243 110
    endloop
  endfacet
  facet normal 0 0 1
    outer loop
      vertex -62.0637 0.585657 110
      vertex -63.9881 -0.304981 110
      vertex -62.5445 -1.58387 110
    endloop
  endfacet
  facet normal -0 0 1
    outer loop
      vertex -50.5 5 110
      vertex -50.2325 3.08547 110
      vertex -50 5 110
    endloop
  endfacet
  facet normal 0 0 1
    outer loop
      vertex -50.2325 3.08547 110
      vertex -50.5 5 110
      vertex -50.9164 1.28222 110
    endloop
  endfacet
  facet normal 0 0 -1
    outer loop
      vertex -50.2325 3.08547 0
      vertex -50.5 5 0
      vertex -50 5 0
    endloop
  endfacet
  facet normal 0 -0 -1
    outer loop
      vertex -52 5 0
      vertex -50.2325 3.08547 0
      vertex -52.3251 3.0518 0
    endloop
  endfacet
  facet normal 0 0 -1
    outer loop
      vertex -52.3251 3.0518 0
      vertex -50.2325 3.08547 0
      vertex -50.9164 1.28222 0
    endloop
  endfacet
  facet normal 0 0 -1
    outer loop
      vertex 4.73484 -3.68528 0
      vertex 7.08365 -3.71778 0
      vertex 5.98809 -5.30498 0
    endloop
  endfacet
  facet normal 0 0 -1
    outer loop
      vertex 7.08365 -3.71778 0
      vertex 5.6749 -1.9482 0
      vertex 6 0 0
    endloop
  endfacet
  facet normal 0 0 -1
    outer loop
      vertex 7.08365 -3.71778 0
      vertex 4.73484 -3.68528 0
      vertex 5.6749 -1.9482 0
    endloop
  endfacet
  facet normal 0 0 -1
    outer loop
      vertex 3.28169 -5.023 0
      vertex 5.98809 -5.30498 0
      vertex 4.54452 -6.58387 0
    endloop
  endfacet
  facet normal 0 0 -1
    outer loop
      vertex 5.98809 -5.30498 0
      vertex 3.28169 -5.023 0
      vertex 4.73484 -3.68528 0
    endloop
  endfacet
  facet normal 0 0 -1
    outer loop
      vertex 2.83684 -7.48013 0
      vertex 3.28169 -5.023 0
      vertex 4.54452 -6.58387 0
    endloop
  endfacet
  facet normal 0 0 -1
    outer loop
      vertex 2.83684 -7.48013 0
      vertex 1.47291 -5.8164 0
      vertex 3.28169 -5.023 0
    endloop
  endfacet
  facet normal 0 0 -1
    outer loop
      vertex 0.964293 -7.94167 0
      vertex 1.47291 -5.8164 0
      vertex 2.83684 -7.48013 0
    endloop
  endfacet
  facet normal 0 0 -1
    outer loop
      vertex 0.964293 -7.94167 0
      vertex -0.495476 -5.97951 0
      vertex 1.47291 -5.8164 0
    endloop
  endfacet
  facet normal 0 0 -1
    outer loop
      vertex -0.964293 -7.94167 0
      vertex -0.495476 -5.97951 0
      vertex 0.964293 -7.94167 0
    endloop
  endfacet
  facet normal 0 0 -1
    outer loop
      vertex -2.83684 -7.48013 0
      vertex -0.495476 -5.97951 0
      vertex -0.964293 -7.94167 0
    endloop
  endfacet
  facet normal -0 0 -1
    outer loop
      vertex -0.495476 -5.97951 0
      vertex -2.83684 -7.48013 0
      vertex -2.41017 -5.49464 0
    endloop
  endfacet
  facet normal 0 0 -1
    outer loop
      vertex -4.54452 -6.58387 0
      vertex -2.41017 -5.49464 0
      vertex -2.83684 -7.48013 0
    endloop
  endfacet
  facet normal -0 0 -1
    outer loop
      vertex -2.41017 -5.49464 0
      vertex -4.54452 -6.58387 0
      vertex -4.06369 -4.41434 0
    endloop
  endfacet
  facet normal 0 0 -1
    outer loop
      vertex -5.98809 -5.30498 0
      vertex -4.06369 -4.41434 0
      vertex -4.54452 -6.58387 0
    endloop
  endfacet
  facet normal -0 0 -1
    outer loop
      vertex -4.06369 -4.41434 0
      vertex -5.98809 -5.30498 0
      vertex -5.27684 -2.85568 0
    endloop
  endfacet
  facet normal 0 0 -1
    outer loop
      vertex -7.08365 -3.71778 0
      vertex -5.27684 -2.85568 0
      vertex -5.98809 -5.30498 0
    endloop
  endfacet
  facet normal 0 0 -1
    outer loop
      vertex -7.35371 -3.0057 0
      vertex -5.27684 -2.85568 0
      vertex -7.08365 -3.71778 0
    endloop
  endfacet
  facet normal -0 0 -1
    outer loop
      vertex -5.27684 -2.85568 0
      vertex -7.35371 -3.0057 0
      vertex -5.91817 -0.987567 0
    endloop
  endfacet
  facet normal 0 -0 -1
    outer loop
      vertex -6.21166 0 0
      vertex -5.91817 -0.987567 0
      vertex -7.35371 -3.0057 0
    endloop
  endfacet
  facet normal 0 0 -1
    outer loop
      vertex -5.91817 -0.987567 0
      vertex -6.21166 0 0
      vertex -5.91817 0 0
    endloop
  endfacet
  facet normal 0 0 -1
    outer loop
      vertex -7.46859 -3.03648 0
      vertex -6.21166 0 0
      vertex -7.35371 -3.0057 0
    endloop
  endfacet
  facet normal 0 0 -1
    outer loop
      vertex -7.46859 -3.03648 0
      vertex -25.236 71 0
      vertex -6.21166 0 0
    endloop
  endfacet
  facet normal 0 0 -1
    outer loop
      vertex -27.5572 74.4029 0
      vertex -25.3059 73.9108 0
      vertex -25.236 71 0
    endloop
  endfacet
  facet normal 0 0 -1
    outer loop
      vertex -25.3059 73.9108 0
      vertex -27.5572 74.4029 0
      vertex -26.2104 76.6943 0
    endloop
  endfacet
  facet normal 0 0 -1
    outer loop
      vertex -28.1741 74.2376 0
      vertex -25.236 71 0
      vertex -7.46859 -3.03648 0
    endloop
  endfacet
  facet normal 0 0 -1
    outer loop
      vertex -25.236 71 0
      vertex -28.1741 74.2376 0
      vertex -27.5572 74.4029 0
    endloop
  endfacet
  facet normal 0 0 -1
    outer loop
      vertex 6 0 0
      vertex 8 -1 0
      vertex 7.87858 -1 0
    endloop
  endfacet
  facet normal 0 0 -1
    outer loop
      vertex 6 0 0
      vertex 7.87858 -1 0
      vertex 7.76753 -1.91453 0
    endloop
  endfacet
  facet normal 0 0 -1
    outer loop
      vertex 6 0 0
      vertex 7.76753 -1.91453 0
      vertex 7.08365 -3.71778 0
    endloop
  endfacet
  facet normal 0 0 -1
    outer loop
      vertex 8 -1 0
      vertex 6 0 0
      vertex 8 79 0
    endloop
  endfacet
  facet normal -0 0 -1
    outer loop
      vertex 8 79 0
      vertex 6 0 0
      vertex 6 79 0
    endloop
  endfacet
  facet normal 0 0 -1
    outer loop
      vertex -25 71 0
      vertex -25.236 71 0
      vertex -25.3059 73.9108 0
    endloop
  endfacet
  facet normal 0 0 -1
    outer loop
      vertex -28.0375 75.8808 0
      vertex -26.2104 76.6943 0
      vertex -27.5572 74.4029 0
    endloop
  endfacet
  facet normal -0 0 -1
    outer loop
      vertex -26.2104 76.6943 0
      vertex -28.0375 75.8808 0
      vertex -27.6738 79.229 0
    endloop
  endfacet
  facet normal 0 0 -1
    outer loop
      vertex -29.2918 78.0534 0
      vertex -27.6738 79.229 0
      vertex -28.0375 75.8808 0
    endloop
  endfacet
  facet normal 0 0 -1
    outer loop
      vertex -29.2918 78.0534 0
      vertex -29.6322 81.404 0
      vertex -27.6738 79.229 0
    endloop
  endfacet
  facet normal 0 0 -1
    outer loop
      vertex -30.9704 79.9177 0
      vertex -29.6322 81.404 0
      vertex -29.2918 78.0534 0
    endloop
  endfacet
  facet normal 0 0 -1
    outer loop
      vertex -30.9704 79.9177 0
      vertex -32 83.1244 0
      vertex -29.6322 81.404 0
    endloop
  endfacet
  facet normal 0 0 -1
    outer loop
      vertex -33 81.3923 0
      vertex -32 83.1244 0
      vertex -30.9704 79.9177 0
    endloop
  endfacet
  facet normal 0 0 -1
    outer loop
      vertex -33 81.3923 0
      vertex -34.6738 84.3148 0
      vertex -32 83.1244 0
    endloop
  endfacet
  facet normal 0 0 -1
    outer loop
      vertex -35.2918 82.4127 0
      vertex -34.6738 84.3148 0
      vertex -33 81.3923 0
    endloop
  endfacet
  facet normal 0 0 -1
    outer loop
      vertex -35.2918 82.4127 0
      vertex -37.5366 84.9233 0
      vertex -34.6738 84.3148 0
    endloop
  endfacet
  facet normal 0 0 -1
    outer loop
      vertex -37.7457 82.9343 0
      vertex -37.5366 84.9233 0
      vertex -35.2918 82.4127 0
    endloop
  endfacet
  facet normal 0 0 -1
    outer loop
      vertex -40.2543 82.9343 0
      vertex -37.5366 84.9233 0
      vertex -37.7457 82.9343 0
    endloop
  endfacet
  facet normal 0 0 -1
    outer loop
      vertex -40.2543 82.9343 0
      vertex -40.4634 84.9233 0
      vertex -37.5366 84.9233 0
    endloop
  endfacet
  facet normal 0 0 -1
    outer loop
      vertex -42.7082 82.4127 0
      vertex -40.4634 84.9233 0
      vertex -40.2543 82.9343 0
    endloop
  endfacet
  facet normal 0 0 -1
    outer loop
      vertex -42.7082 82.4127 0
      vertex -43.3262 84.3148 0
      vertex -40.4634 84.9233 0
    endloop
  endfacet
  facet normal 0 0 -1
    outer loop
      vertex -45 81.3923 0
      vertex -43.3262 84.3148 0
      vertex -42.7082 82.4127 0
    endloop
  endfacet
  facet normal 0 0 -1
    outer loop
      vertex -45 81.3923 0
      vertex -46 83.1244 0
      vertex -43.3262 84.3148 0
    endloop
  endfacet
  facet normal 0 0 -1
    outer loop
      vertex -47.0296 79.9177 0
      vertex -46 83.1244 0
      vertex -45 81.3923 0
    endloop
  endfacet
  facet normal 0 0 -1
    outer loop
      vertex -47.0296 79.9177 0
      vertex -48.3678 81.404 0
      vertex -46 83.1244 0
    endloop
  endfacet
  facet normal 0 0 -1
    outer loop
      vertex -48.7082 78.0534 0
      vertex -48.3678 81.404 0
      vertex -47.0296 79.9177 0
    endloop
  endfacet
  facet normal 0 0 -1
    outer loop
      vertex -50.3262 79.229 0
      vertex -48.7082 78.0534 0
      vertex -49.9625 75.8808 0
    endloop
  endfacet
  facet normal 0 0 -1
    outer loop
      vertex -48.7082 78.0534 0
      vertex -50.3262 79.229 0
      vertex -48.3678 81.404 0
    endloop
  endfacet
  facet normal 0 0 -1
    outer loop
      vertex -52.3402 75 0
      vertex -49.9625 75.8808 0
      vertex -50.5 74.2267 0
    endloop
  endfacet
  facet normal 0 0 -1
    outer loop
      vertex -49.9625 75.8808 0
      vertex -51.7896 76.6943 0
      vertex -50.3262 79.229 0
    endloop
  endfacet
  facet normal 0 0 -1
    outer loop
      vertex -52.5 71 0
      vertex -50.5 5 0
      vertex -52 5 0
    endloop
  endfacet
  facet normal 0 0 -1
    outer loop
      vertex -50.5 5 0
      vertex -52.5 71 0
      vertex -50.5 74.2267 0
    endloop
  endfacet
  facet normal 0 0 -1
    outer loop
      vertex -53.2652 1.31472 0
      vertex -50.9164 1.28222 0
      vertex -52.0119 -0.304981 0
    endloop
  endfacet
  facet normal 0 0 -1
    outer loop
      vertex -50.2325 3.08547 0
      vertex -52 5 0
      vertex -50.5 5 0
    endloop
  endfacet
  facet normal 0 0 -1
    outer loop
      vertex -50.9164 1.28222 0
      vertex -53.2652 1.31472 0
      vertex -52.3251 3.0518 0
    endloop
  endfacet
  facet normal 0 0 -1
    outer loop
      vertex -54.7183 -0.0229988 0
      vertex -52.0119 -0.304981 0
      vertex -53.4555 -1.58387 0
    endloop
  endfacet
  facet normal 0 0 -1
    outer loop
      vertex -52.0119 -0.304981 0
      vertex -54.7183 -0.0229988 0
      vertex -53.2652 1.31472 0
    endloop
  endfacet
  facet normal 0 0 -1
    outer loop
      vertex -55.1632 -2.48013 0
      vertex -54.7183 -0.0229988 0
      vertex -53.4555 -1.58387 0
    endloop
  endfacet
  facet normal 0 0 -1
    outer loop
      vertex -55.1632 -2.48013 0
      vertex -56.5271 -0.816401 0
      vertex -54.7183 -0.0229988 0
    endloop
  endfacet
  facet normal 0 0 -1
    outer loop
      vertex -57.0357 -2.94167 0
      vertex -56.5271 -0.816401 0
      vertex -55.1632 -2.48013 0
    endloop
  endfacet
  facet normal 0 0 -1
    outer loop
      vertex -57.0357 -2.94167 0
      vertex -58.4955 -0.979506 0
      vertex -56.5271 -0.816401 0
    endloop
  endfacet
  facet normal 0 0 -1
    outer loop
      vertex -58.9643 -2.94167 0
      vertex -58.4955 -0.979506 0
      vertex -57.0357 -2.94167 0
    endloop
  endfacet
  facet normal 0 0 -1
    outer loop
      vertex -60.8368 -2.48013 0
      vertex -58.4955 -0.979506 0
      vertex -58.9643 -2.94167 0
    endloop
  endfacet
  facet normal -0 0 -1
    outer loop
      vertex -58.4955 -0.979506 0
      vertex -60.8368 -2.48013 0
      vertex -60.4102 -0.494639 0
    endloop
  endfacet
  facet normal 0 0 -1
    outer loop
      vertex -62.5445 -1.58387 0
      vertex -60.4102 -0.494639 0
      vertex -60.8368 -2.48013 0
    endloop
  endfacet
  facet normal -0 0 -1
    outer loop
      vertex -60.4102 -0.494639 0
      vertex -62.5445 -1.58387 0
      vertex -62.0637 0.585657 0
    endloop
  endfacet
  facet normal 0 0 -1
    outer loop
      vertex -63.9881 -0.304981 0
      vertex -62.0637 0.585657 0
      vertex -62.5445 -1.58387 0
    endloop
  endfacet
  facet normal -0 0 -1
    outer loop
      vertex -62.0637 0.585657 0
      vertex -63.9881 -0.304981 0
      vertex -63.2768 2.14432 0
    endloop
  endfacet
  facet normal 0 0 -1
    outer loop
      vertex -65.0836 1.28222 0
      vertex -63.2768 2.14432 0
      vertex -63.9881 -0.304981 0
    endloop
  endfacet
  facet normal 0 0 -1
    outer loop
      vertex -65.6018 2.6486 0
      vertex -63.2768 2.14432 0
      vertex -65.0836 1.28222 0
    endloop
  endfacet
  facet normal 0 0 -1
    outer loop
      vertex -63.2768 2.14432 0
      vertex -65.6018 2.6486 0
      vertex -63.9182 4.01243 0
    endloop
  endfacet
  facet normal 0 -0 -1
    outer loop
      vertex -64.3458 5 0
      vertex -63.9182 4.01243 0
      vertex -65.6018 2.6486 0
    endloop
  endfacet
  facet normal 0 0 -1
    outer loop
      vertex -63.9182 4.01243 0
      vertex -64.3458 5 0
      vertex -63.9182 5 0
    endloop
  endfacet
  facet normal 0 0 -1
    outer loop
      vertex -65.9512 2.587 0
      vertex -64.3458 5 0
      vertex -65.6018 2.6486 0
    endloop
  endfacet
  facet normal 0 0 -1
    outer loop
      vertex -78.1065 71.5235 0
      vertex -64.3458 5 0
      vertex -65.9512 2.587 0
    endloop
  endfacet
  facet normal 0 0 -1
    outer loop
      vertex -64.3458 5 0
      vertex -78.1065 71.5235 0
      vertex -76.1369 71.8708 0
    endloop
  endfacet
  facet normal -0 0 -1
    outer loop
      vertex -50.5 74.2267 0
      vertex -52.6941 73.9108 0
      vertex -52.5 74.508 0
    endloop
  endfacet
  facet normal 0 -0 -1
    outer loop
      vertex -52.6941 73.9108 0
      vertex -52.5 71 0
      vertex -53 71 0
    endloop
  endfacet
  facet normal 0 0 -1
    outer loop
      vertex -52.6941 73.9108 0
      vertex -50.5 74.2267 0
      vertex -52.5 71 0
    endloop
  endfacet
  facet normal 0 0 -1
    outer loop
      vertex -52.5 71 0
      vertex -52 5 0
      vertex -52.5 5 0
    endloop
  endfacet
  facet normal -0 0 -1
    outer loop
      vertex -49.9625 75.8808 0
      vertex -52.3402 75 0
      vertex -51.7896 76.6943 0
    endloop
  endfacet
  facet normal 0 0 -1
    outer loop
      vertex -50.5 74.2267 0
      vertex -52.5 74.508 0
      vertex -52.3402 75 0
    endloop
  endfacet
  facet normal -0 0 -1
    outer loop
      vertex -52.3402 75 0
      vertex -52.5 74.508 0
      vertex -52.5 75 0
    endloop
  endfacet
  facet normal 0.935016 -0.354605 0
    outer loop
      vertex 7.08365 -3.71778 110
      vertex 7.76753 -1.91453 0
      vertex 7.76753 -1.91453 110
    endloop
  endfacet
  facet normal 0.935016 -0.354605 0
    outer loop
      vertex 7.76753 -1.91453 0
      vertex 7.08365 -3.71778 110
      vertex 7.08365 -3.71778 0
    endloop
  endfacet
  facet normal 0.992709 -0.120537 0
    outer loop
      vertex 7.76753 -1.91453 110
      vertex 7.87858 -1 0
      vertex 7.87858 -1 110
    endloop
  endfacet
  facet normal 0.992709 -0.120537 0
    outer loop
      vertex 7.87858 -1 0
      vertex 7.76753 -1.91453 110
      vertex 7.76753 -1.91453 0
    endloop
  endfacet
  facet normal 0.663123 -0.748511 0
    outer loop
      vertex 4.54452 -6.58387 0
      vertex 5.98809 -5.30498 110
      vertex 4.54452 -6.58387 110
    endloop
  endfacet
  facet normal 0.663123 -0.748511 0
    outer loop
      vertex 5.98809 -5.30498 110
      vertex 4.54452 -6.58387 0
      vertex 5.98809 -5.30498 0
    endloop
  endfacet
  facet normal 0.822984 -0.568065 0
    outer loop
      vertex 5.98809 -5.30498 110
      vertex 7.08365 -3.71778 0
      vertex 7.08365 -3.71778 110
    endloop
  endfacet
  facet normal 0.822984 -0.568065 0
    outer loop
      vertex 7.08365 -3.71778 0
      vertex 5.98809 -5.30498 110
      vertex 5.98809 -5.30498 0
    endloop
  endfacet
  facet normal -0.663123 -0.748511 0
    outer loop
      vertex -5.98809 -5.30498 0
      vertex -4.54452 -6.58387 110
      vertex -5.98809 -5.30498 110
    endloop
  endfacet
  facet normal -0.663123 -0.748511 -0
    outer loop
      vertex -4.54452 -6.58387 110
      vertex -5.98809 -5.30498 0
      vertex -4.54452 -6.58387 0
    endloop
  endfacet
  facet normal -0.935016 -0.354605 0
    outer loop
      vertex -7.08365 -3.71778 0
      vertex -7.35371 -3.0057 110
      vertex -7.35371 -3.0057 0
    endloop
  endfacet
  facet normal -0.935016 -0.354605 0
    outer loop
      vertex -7.35371 -3.0057 110
      vertex -7.08365 -3.71778 0
      vertex -7.08365 -3.71778 110
    endloop
  endfacet
  facet normal -0.822984 -0.568065 0
    outer loop
      vertex -5.98809 -5.30498 0
      vertex -7.08365 -3.71778 110
      vertex -7.08365 -3.71778 0
    endloop
  endfacet
  facet normal -0.822984 -0.568065 0
    outer loop
      vertex -7.08365 -3.71778 110
      vertex -5.98809 -5.30498 0
      vertex -5.98809 -5.30498 110
    endloop
  endfacet
  facet normal 0.239316 -0.970942 0
    outer loop
      vertex 0.964293 -7.94167 0
      vertex 2.83684 -7.48013 110
      vertex 0.964293 -7.94167 110
    endloop
  endfacet
  facet normal 0.239316 -0.970942 0
    outer loop
      vertex 2.83684 -7.48013 110
      vertex 0.964293 -7.94167 0
      vertex 2.83684 -7.48013 0
    endloop
  endfacet
  facet normal 0.464723 -0.885456 0
    outer loop
      vertex 2.83684 -7.48013 0
      vertex 4.54452 -6.58387 110
      vertex 2.83684 -7.48013 110
    endloop
  endfacet
  facet normal 0.464723 -0.885456 0
    outer loop
      vertex 4.54452 -6.58387 110
      vertex 2.83684 -7.48013 0
      vertex 4.54452 -6.58387 0
    endloop
  endfacet
  facet normal -0.464723 -0.885456 0
    outer loop
      vertex -4.54452 -6.58387 0
      vertex -2.83684 -7.48013 110
      vertex -4.54452 -6.58387 110
    endloop
  endfacet
  facet normal -0.464723 -0.885456 -0
    outer loop
      vertex -2.83684 -7.48013 110
      vertex -4.54452 -6.58387 0
      vertex -2.83684 -7.48013 0
    endloop
  endfacet
  facet normal -0.239316 -0.970942 0
    outer loop
      vertex -2.83684 -7.48013 0
      vertex -0.964293 -7.94167 110
      vertex -2.83684 -7.48013 110
    endloop
  endfacet
  facet normal -0.239316 -0.970942 -0
    outer loop
      vertex -0.964293 -7.94167 110
      vertex -2.83684 -7.48013 0
      vertex -0.964293 -7.94167 0
    endloop
  endfacet
  facet normal 1 -0 0
    outer loop
      vertex -5.91817 -0.987567 110
      vertex -5.91817 0 0
      vertex -5.91817 0 110
    endloop
  endfacet
  facet normal 1 0 0
    outer loop
      vertex -5.91817 0 0
      vertex -5.91817 -0.987567 110
      vertex -5.91817 -0.987567 0
    endloop
  endfacet
  facet normal -0.0825792 0.996585 0
    outer loop
      vertex 1.47291 -5.8164 0
      vertex -0.495476 -5.97951 110
      vertex 1.47291 -5.8164 110
    endloop
  endfacet
  facet normal -0.0825792 0.996585 0
    outer loop
      vertex -0.495476 -5.97951 110
      vertex 1.47291 -5.8164 0
      vertex -0.495476 -5.97951 0
    endloop
  endfacet
  facet normal -0.401695 0.915773 0
    outer loop
      vertex 3.28169 -5.023 0
      vertex 1.47291 -5.8164 110
      vertex 3.28169 -5.023 110
    endloop
  endfacet
  facet normal -0.401695 0.915773 0
    outer loop
      vertex 1.47291 -5.8164 110
      vertex 3.28169 -5.023 0
      vertex 1.47291 -5.8164 0
    endloop
  endfacet
  facet normal -0.986361 0.164595 0
    outer loop
      vertex 5.6749 -1.9482 0
      vertex 6 0 110
      vertex 6 0 0
    endloop
  endfacet
  facet normal -0.986361 0.164595 0
    outer loop
      vertex 6 0 110
      vertex 5.6749 -1.9482 0
      vertex 5.6749 -1.9482 110
    endloop
  endfacet
  facet normal 0.546948 0.837166 -0
    outer loop
      vertex -2.41017 -5.49464 0
      vertex -4.06369 -4.41434 110
      vertex -2.41017 -5.49464 110
    endloop
  endfacet
  facet normal 0.546948 0.837166 0
    outer loop
      vertex -4.06369 -4.41434 110
      vertex -2.41017 -5.49464 0
      vertex -4.06369 -4.41434 0
    endloop
  endfacet
  facet normal 0.945817 0.324699 0
    outer loop
      vertex -5.27684 -2.85568 110
      vertex -5.91817 -0.987567 0
      vertex -5.91817 -0.987567 110
    endloop
  endfacet
  facet normal 0.945817 0.324699 0
    outer loop
      vertex -5.91817 -0.987567 0
      vertex -5.27684 -2.85568 110
      vertex -5.27684 -2.85568 0
    endloop
  endfacet
  facet normal 0.245486 0.9694 -0
    outer loop
      vertex -0.495476 -5.97951 0
      vertex -2.41017 -5.49464 110
      vertex -0.495476 -5.97951 110
    endloop
  endfacet
  facet normal 0.245486 0.9694 0
    outer loop
      vertex -2.41017 -5.49464 110
      vertex -0.495476 -5.97951 0
      vertex -2.41017 -5.49464 0
    endloop
  endfacet
  facet normal 0.78914 0.614213 0
    outer loop
      vertex -4.06369 -4.41434 110
      vertex -5.27684 -2.85568 0
      vertex -5.27684 -2.85568 110
    endloop
  endfacet
  facet normal 0.78914 0.614213 0
    outer loop
      vertex -5.27684 -2.85568 0
      vertex -4.06369 -4.41434 110
      vertex -4.06369 -4.41434 0
    endloop
  endfacet
  facet normal -0.677282 0.735724 0
    outer loop
      vertex 4.73484 -3.68528 0
      vertex 3.28169 -5.023 110
      vertex 4.73484 -3.68528 110
    endloop
  endfacet
  facet normal -0.677282 0.735724 0
    outer loop
      vertex 3.28169 -5.023 110
      vertex 4.73484 -3.68528 0
      vertex 3.28169 -5.023 0
    endloop
  endfacet
  facet normal -0.879474 0.475947 0
    outer loop
      vertex 4.73484 -3.68528 0
      vertex 5.6749 -1.9482 110
      vertex 5.6749 -1.9482 0
    endloop
  endfacet
  facet normal -0.879474 0.475947 0
    outer loop
      vertex 5.6749 -1.9482 110
      vertex 4.73484 -3.68528 0
      vertex 4.73484 -3.68528 110
    endloop
  endfacet
  facet normal 0 1 -0
    outer loop
      vertex -5.91817 0 0
      vertex -6.21166 0 110
      vertex -5.91817 0 110
    endloop
  endfacet
  facet normal 0 1 0
    outer loop
      vertex -6.21166 0 110
      vertex -5.91817 0 0
      vertex -6.21166 0 0
    endloop
  endfacet
  facet normal 0.994522 0.104529 0
    outer loop
      vertex -25 71 110
      vertex -25.3059 73.9108 0
      vertex -25.3059 73.9108 110
    endloop
  endfacet
  facet normal 0.994522 0.104529 0
    outer loop
      vertex -25.3059 73.9108 0
      vertex -25 71 110
      vertex -25 71 0
    endloop
  endfacet
  facet normal -0.994522 0.104529 0
    outer loop
      vertex -53 71 0
      vertex -52.6941 73.9108 110
      vertex -52.6941 73.9108 0
    endloop
  endfacet
  facet normal -0.994522 0.104529 0
    outer loop
      vertex -52.6941 73.9108 110
      vertex -53 71 0
      vertex -53 71 110
    endloop
  endfacet
  facet normal 0 1 -0
    outer loop
      vertex -37.5366 84.9233 0
      vertex -40.4634 84.9233 110
      vertex -37.5366 84.9233 110
    endloop
  endfacet
  facet normal 0 1 0
    outer loop
      vertex -40.4634 84.9233 110
      vertex -37.5366 84.9233 0
      vertex -40.4634 84.9233 0
    endloop
  endfacet
  facet normal 0.587786 0.809017 -0
    outer loop
      vertex -29.6322 81.404 0
      vertex -32 83.1244 110
      vertex -29.6322 81.404 110
    endloop
  endfacet
  facet normal 0.587786 0.809017 0
    outer loop
      vertex -32 83.1244 110
      vertex -29.6322 81.404 0
      vertex -32 83.1244 0
    endloop
  endfacet
  facet normal -0.743145 0.66913 0
    outer loop
      vertex -50.3262 79.229 0
      vertex -48.3678 81.404 110
      vertex -48.3678 81.404 0
    endloop
  endfacet
  facet normal -0.743145 0.66913 0
    outer loop
      vertex -48.3678 81.404 110
      vertex -50.3262 79.229 0
      vertex -50.3262 79.229 110
    endloop
  endfacet
  facet normal -0.406735 0.913546 0
    outer loop
      vertex -43.3262 84.3148 0
      vertex -46 83.1244 110
      vertex -43.3262 84.3148 110
    endloop
  endfacet
  facet normal -0.406735 0.913546 0
    outer loop
      vertex -46 83.1244 110
      vertex -43.3262 84.3148 0
      vertex -46 83.1244 0
    endloop
  endfacet
  facet normal 0.866026 0.499999 0
    outer loop
      vertex -26.2104 76.6943 110
      vertex -27.6738 79.229 0
      vertex -27.6738 79.229 110
    endloop
  endfacet
  facet normal 0.866026 0.499999 0
    outer loop
      vertex -27.6738 79.229 0
      vertex -26.2104 76.6943 110
      vertex -26.2104 76.6943 0
    endloop
  endfacet
  facet normal 0.951056 0.309017 0
    outer loop
      vertex -25.3059 73.9108 110
      vertex -26.2104 76.6943 0
      vertex -26.2104 76.6943 110
    endloop
  endfacet
  facet normal 0.951056 0.309017 0
    outer loop
      vertex -26.2104 76.6943 0
      vertex -25.3059 73.9108 110
      vertex -25.3059 73.9108 0
    endloop
  endfacet
  facet normal 0.743145 0.66913 0
    outer loop
      vertex -27.6738 79.229 110
      vertex -29.6322 81.404 0
      vertex -29.6322 81.404 110
    endloop
  endfacet
  facet normal 0.743145 0.66913 0
    outer loop
      vertex -29.6322 81.404 0
      vertex -27.6738 79.229 110
      vertex -27.6738 79.229 0
    endloop
  endfacet
  facet normal 0.207913 0.978147 -0
    outer loop
      vertex -34.6738 84.3148 0
      vertex -37.5366 84.9233 110
      vertex -34.6738 84.3148 110
    endloop
  endfacet
  facet normal 0.207913 0.978147 0
    outer loop
      vertex -37.5366 84.9233 110
      vertex -34.6738 84.3148 0
      vertex -37.5366 84.9233 0
    endloop
  endfacet
  facet normal 0.406735 0.913546 -0
    outer loop
      vertex -32 83.1244 0
      vertex -34.6738 84.3148 110
      vertex -32 83.1244 110
    endloop
  endfacet
  facet normal 0.406735 0.913546 0
    outer loop
      vertex -34.6738 84.3148 110
      vertex -32 83.1244 0
      vertex -34.6738 84.3148 0
    endloop
  endfacet
  facet normal -0.866026 0.499999 0
    outer loop
      vertex -51.7896 76.6943 0
      vertex -50.3262 79.229 110
      vertex -50.3262 79.229 0
    endloop
  endfacet
  facet normal -0.866026 0.499999 0
    outer loop
      vertex -50.3262 79.229 110
      vertex -51.7896 76.6943 0
      vertex -51.7896 76.6943 110
    endloop
  endfacet
  facet normal -0.951056 0.309019 0
    outer loop
      vertex -52.6941 73.9108 0
      vertex -52.5 74.508 110
      vertex -52.5 74.508 0
    endloop
  endfacet
  facet normal -0.951056 0.309019 0
    outer loop
      vertex -52.5 74.508 110
      vertex -52.6941 73.9108 0
      vertex -52.6941 73.9108 110
    endloop
  endfacet
  facet normal -0.951056 0.309018 0
    outer loop
      vertex -52.3402 75 0
      vertex -51.7896 76.6943 110
      vertex -51.7896 76.6943 0
    endloop
  endfacet
  facet normal -0.951056 0.309018 0
    outer loop
      vertex -51.7896 76.6943 110
      vertex -52.3402 75 0
      vertex -52.3402 75 110
    endloop
  endfacet
  facet normal -0.587786 0.809017 0
    outer loop
      vertex -46 83.1244 0
      vertex -48.3678 81.404 110
      vertex -46 83.1244 110
    endloop
  endfacet
  facet normal -0.587786 0.809017 0
    outer loop
      vertex -48.3678 81.404 110
      vertex -46 83.1244 0
      vertex -48.3678 81.404 0
    endloop
  endfacet
  facet normal -0.207913 0.978147 0
    outer loop
      vertex -40.4634 84.9233 0
      vertex -43.3262 84.3148 110
      vertex -40.4634 84.9233 110
    endloop
  endfacet
  facet normal -0.207913 0.978147 0
    outer loop
      vertex -43.3262 84.3148 110
      vertex -40.4634 84.9233 0
      vertex -43.3262 84.3148 0
    endloop
  endfacet
  facet normal 0 -1 0
    outer loop
      vertex -40.2543 82.9343 0
      vertex -37.7457 82.9343 110
      vertex -40.2543 82.9343 110
    endloop
  endfacet
  facet normal 0 -1 -0
    outer loop
      vertex -37.7457 82.9343 110
      vertex -40.2543 82.9343 0
      vertex -37.7457 82.9343 0
    endloop
  endfacet
  facet normal -0.587784 -0.809018 0
    outer loop
      vertex -33 81.3923 0
      vertex -30.9704 79.9177 110
      vertex -33 81.3923 110
    endloop
  endfacet
  facet normal -0.587784 -0.809018 -0
    outer loop
      vertex -30.9704 79.9177 110
      vertex -33 81.3923 0
      vertex -30.9704 79.9177 0
    endloop
  endfacet
  facet normal -0.406735 -0.913546 0
    outer loop
      vertex -35.2918 82.4127 0
      vertex -33 81.3923 110
      vertex -35.2918 82.4127 110
    endloop
  endfacet
  facet normal -0.406735 -0.913546 -0
    outer loop
      vertex -33 81.3923 110
      vertex -35.2918 82.4127 0
      vertex -33 81.3923 0
    endloop
  endfacet
  facet normal 0.743146 -0.669129 0
    outer loop
      vertex -48.7082 78.0534 110
      vertex -47.0296 79.9177 0
      vertex -47.0296 79.9177 110
    endloop
  endfacet
  facet normal 0.743146 -0.669129 0
    outer loop
      vertex -47.0296 79.9177 0
      vertex -48.7082 78.0534 110
      vertex -48.7082 78.0534 0
    endloop
  endfacet
  facet normal 0.866025 -0.500001 0
    outer loop
      vertex -49.9625 75.8808 110
      vertex -48.7082 78.0534 0
      vertex -48.7082 78.0534 110
    endloop
  endfacet
  facet normal 0.866025 -0.500001 0
    outer loop
      vertex -48.7082 78.0534 0
      vertex -49.9625 75.8808 110
      vertex -49.9625 75.8808 0
    endloop
  endfacet
  facet normal 0.406735 -0.913546 0
    outer loop
      vertex -45 81.3923 0
      vertex -42.7082 82.4127 110
      vertex -45 81.3923 110
    endloop
  endfacet
  facet normal 0.406735 -0.913546 0
    outer loop
      vertex -42.7082 82.4127 110
      vertex -45 81.3923 0
      vertex -42.7082 82.4127 0
    endloop
  endfacet
  facet normal -0.866025 -0.5 0
    outer loop
      vertex -28.0375 75.8808 0
      vertex -29.2918 78.0534 110
      vertex -29.2918 78.0534 0
    endloop
  endfacet
  facet normal -0.866025 -0.5 0
    outer loop
      vertex -29.2918 78.0534 110
      vertex -28.0375 75.8808 0
      vertex -28.0375 75.8808 110
    endloop
  endfacet
  facet normal -0.951056 -0.309018 0
    outer loop
      vertex -27.5572 74.4029 0
      vertex -28.0375 75.8808 110
      vertex -28.0375 75.8808 0
    endloop
  endfacet
  facet normal -0.951056 -0.309018 0
    outer loop
      vertex -28.0375 75.8808 110
      vertex -27.5572 74.4029 0
      vertex -27.5572 74.4029 110
    endloop
  endfacet
  facet normal -0.743146 -0.669129 0
    outer loop
      vertex -29.2918 78.0534 0
      vertex -30.9704 79.9177 110
      vertex -30.9704 79.9177 0
    endloop
  endfacet
  facet normal -0.743146 -0.669129 0
    outer loop
      vertex -30.9704 79.9177 110
      vertex -29.2918 78.0534 0
      vertex -29.2918 78.0534 110
    endloop
  endfacet
  facet normal -0.207914 -0.978147 0
    outer loop
      vertex -37.7457 82.9343 0
      vertex -35.2918 82.4127 110
      vertex -37.7457 82.9343 110
    endloop
  endfacet
  facet normal -0.207914 -0.978147 -0
    outer loop
      vertex -35.2918 82.4127 110
      vertex -37.7457 82.9343 0
      vertex -35.2918 82.4127 0
    endloop
  endfacet
  facet normal 0.951057 -0.309016 0
    outer loop
      vertex -50.5 74.2267 110
      vertex -49.9625 75.8808 0
      vertex -49.9625 75.8808 110
    endloop
  endfacet
  facet normal 0.951057 -0.309016 0
    outer loop
      vertex -49.9625 75.8808 0
      vertex -50.5 74.2267 110
      vertex -50.5 74.2267 0
    endloop
  endfacet
  facet normal 0.587784 -0.809018 0
    outer loop
      vertex -47.0296 79.9177 0
      vertex -45 81.3923 110
      vertex -47.0296 79.9177 110
    endloop
  endfacet
  facet normal 0.587784 -0.809018 0
    outer loop
      vertex -45 81.3923 110
      vertex -47.0296 79.9177 0
      vertex -45 81.3923 0
    endloop
  endfacet
  facet normal 0.207914 -0.978147 0
    outer loop
      vertex -42.7082 82.4127 0
      vertex -40.2543 82.9343 110
      vertex -42.7082 82.4127 110
    endloop
  endfacet
  facet normal 0.207914 -0.978147 0
    outer loop
      vertex -40.2543 82.9343 110
      vertex -42.7082 82.4127 0
      vertex -40.2543 82.9343 0
    endloop
  endfacet
  facet normal 0 -1 0
    outer loop
      vertex -25.236 71 0
      vertex -25 71 110
      vertex -25.236 71 110
    endloop
  endfacet
  facet normal 0 -1 -0
    outer loop
      vertex -25 71 110
      vertex -25.236 71 0
      vertex -25 71 0
    endloop
  endfacet
  facet normal 0 -1 0
    outer loop
      vertex -53 71 0
      vertex -52.5 71 110
      vertex -53 71 110
    endloop
  endfacet
  facet normal 0 -1 -0
    outer loop
      vertex -52.5 71 110
      vertex -53 71 0
      vertex -52.5 71 0
    endloop
  endfacet
  facet normal 0 -1 0
    outer loop
      vertex -58.9643 -2.94167 110
      vertex -57.809 -2.94167 60
      vertex -57.0357 -2.94167 110
    endloop
  endfacet
  facet normal 0 -1 0
    outer loop
      vertex -58.9643 -2.94167 55.809
      vertex -57.809 -2.94167 60
      vertex -58.9643 -2.94167 110
    endloop
  endfacet
  facet normal 0 -1 -0
    outer loop
      vertex -57.809 -2.94167 60
      vertex -58.9643 -2.94167 55.809
      vertex -57.809 -2.94167 55.809
    endloop
  endfacet
  facet normal 0 -1 -0
    outer loop
      vertex -57.0357 -2.94167 110
      vertex -57.809 -2.94167 60
      vertex -57.0357 -2.94167 60
    endloop
  endfacet
  facet normal 0 -1 0
    outer loop
      vertex -58.9643 -2.94167 54.3209
      vertex -57.809 -2.94167 50
      vertex -57.809 -2.94167 54.3209
    endloop
  endfacet
  facet normal 0 -1 0
    outer loop
      vertex -58.9643 -2.94167 0
      vertex -57.809 -2.94167 50
      vertex -58.9643 -2.94167 54.3209
    endloop
  endfacet
  facet normal 0 -1 0
    outer loop
      vertex -57.0357 -2.94167 0
      vertex -57.809 -2.94167 50
      vertex -58.9643 -2.94167 0
    endloop
  endfacet
  facet normal 0 -1 0
    outer loop
      vertex -57.809 -2.94167 50
      vertex -57.0357 -2.94167 0
      vertex -57.0357 -2.94167 50
    endloop
  endfacet
  facet normal 0.935017 -0.354604 0
    outer loop
      vertex -50.9164 1.28222 110
      vertex -50.2325 3.08547 0
      vertex -50.2325 3.08547 110
    endloop
  endfacet
  facet normal 0.935017 -0.354604 0
    outer loop
      vertex -50.2325 3.08547 0
      vertex -50.9164 1.28222 110
      vertex -50.9164 1.28222 0
    endloop
  endfacet
  facet normal 0.992709 -0.120538 0
    outer loop
      vertex -50.2325 3.08547 110
      vertex -50 5 0
      vertex -50 5 110
    endloop
  endfacet
  facet normal 0.992709 -0.120538 0
    outer loop
      vertex -50 5 0
      vertex -50.2325 3.08547 110
      vertex -50.2325 3.08547 0
    endloop
  endfacet
  facet normal 0.663122 -0.748511 0
    outer loop
      vertex -53.4555 -1.58387 54.7985
      vertex -52.0119 -0.304981 110
      vertex -53.4555 -1.58387 110
    endloop
  endfacet
  facet normal 0.663132 -0.748503 -4.35663e-007
    outer loop
      vertex -53.4161 -1.54894 54.691
      vertex -52.0119 -0.304981 110
      vertex -53.4555 -1.58387 54.7985
    endloop
  endfacet
  facet normal 0.663122 -0.748511 0
    outer loop
      vertex -52.0119 -0.304981 0
      vertex -53.4555 -1.58387 54.6656
      vertex -53.4555 -1.58387 0
    endloop
  endfacet
  facet normal 0.663132 -0.748502 4.63427e-007
    outer loop
      vertex -53.4555 -1.58387 54.6656
      vertex -52.0119 -0.304981 0
      vertex -53.4161 -1.54894 54.691
    endloop
  endfacet
  facet normal 0.663122 -0.748511 0
    outer loop
      vertex -53.4161 -1.54894 54.691
      vertex -52.0119 -0.304981 0
      vertex -52.0119 -0.304981 110
    endloop
  endfacet
  facet normal 0.822984 -0.568065 0
    outer loop
      vertex -52.0119 -0.304981 110
      vertex -50.9164 1.28222 0
      vertex -50.9164 1.28222 110
    endloop
  endfacet
  facet normal 0.822984 -0.568065 0
    outer loop
      vertex -50.9164 1.28222 0
      vertex -52.0119 -0.304981 110
      vertex -52.0119 -0.304981 0
    endloop
  endfacet
  facet normal -0.663122 -0.748511 0
    outer loop
      vertex -63.9881 -0.304981 0
      vertex -62.5445 -1.58387 110
      vertex -63.9881 -0.304981 110
    endloop
  endfacet
  facet normal -0.663122 -0.748511 -0
    outer loop
      vertex -62.5445 -1.58387 110
      vertex -63.9881 -0.304981 0
      vertex -62.5445 -1.58387 0
    endloop
  endfacet
  facet normal -0.935017 -0.354603 0
    outer loop
      vertex -65.0836 1.28222 0
      vertex -65.6018 2.6486 110
      vertex -65.6018 2.6486 0
    endloop
  endfacet
  facet normal -0.935017 -0.354603 0
    outer loop
      vertex -65.6018 2.6486 110
      vertex -65.0836 1.28222 0
      vertex -65.0836 1.28222 110
    endloop
  endfacet
  facet normal -0.822984 -0.568065 0
    outer loop
      vertex -63.9881 -0.304981 0
      vertex -65.0836 1.28222 110
      vertex -65.0836 1.28222 0
    endloop
  endfacet
  facet normal -0.822984 -0.568065 0
    outer loop
      vertex -65.0836 1.28222 110
      vertex -63.9881 -0.304981 0
      vertex -63.9881 -0.304981 110
    endloop
  endfacet
  facet normal 0.239316 -0.970942 0
    outer loop
      vertex -57.0357 -2.94167 50
      vertex -57.0357 -2.94167 0
      vertex -56.1932 -2.73402 50
    endloop
  endfacet
  facet normal 0.239315 -0.970942 0
    outer loop
      vertex -56.1932 -2.73402 54.17
      vertex -56.1932 -2.73402 50
      vertex -55.2438 -2.5 54
    endloop
  endfacet
  facet normal 0.239324 -0.97094 -2.2458e-006
    outer loop
      vertex -56.1932 -2.73402 50
      vertex -55.1632 -2.48013 54.0144
      vertex -55.2438 -2.5 54
    endloop
  endfacet
  facet normal 0.239316 -0.970942 5.94475e-009
    outer loop
      vertex -55.1632 -2.48013 0
      vertex -56.1932 -2.73402 50
      vertex -57.0357 -2.94167 0
    endloop
  endfacet
  facet normal 0.239316 -0.970942 0
    outer loop
      vertex -56.1932 -2.73402 50
      vertex -55.1632 -2.48013 0
      vertex -55.1632 -2.48013 54.0144
    endloop
  endfacet
  facet normal 0.239316 -0.970942 0
    outer loop
      vertex -56.1932 -2.73402 60
      vertex -57.0357 -2.94167 110
      vertex -57.0357 -2.94167 60
    endloop
  endfacet
  facet normal 0.239316 -0.970942 -5.94475e-009
    outer loop
      vertex -57.0357 -2.94167 110
      vertex -56.1932 -2.73402 60
      vertex -55.1632 -2.48013 110
    endloop
  endfacet
  facet normal 0.239316 -0.970942 0
    outer loop
      vertex -55.1632 -2.48013 55.809
      vertex -56.1932 -2.73402 60
      vertex -56.1932 -2.73402 55.809
    endloop
  endfacet
  facet normal 0.239316 -0.970942 0
    outer loop
      vertex -56.1932 -2.73402 60
      vertex -55.1632 -2.48013 55.809
      vertex -55.1632 -2.48013 110
    endloop
  endfacet
  facet normal 0.464723 -0.885456 0
    outer loop
      vertex -54.0811 -1.91221 55.809
      vertex -55.1632 -2.48013 110
      vertex -55.1632 -2.48013 55.809
    endloop
  endfacet
  facet normal 0.464723 -0.885456 2.63119e-009
    outer loop
      vertex -55.1632 -2.48013 110
      vertex -54.0811 -1.91221 55.809
      vertex -53.4555 -1.58387 110
    endloop
  endfacet
  facet normal 0.464723 -0.885456 0
    outer loop
      vertex -53.4555 -1.58387 110
      vertex -54.0811 -1.91221 55.809
      vertex -53.4555 -1.58387 54.7985
    endloop
  endfacet
  facet normal 0.464723 -0.885456 0
    outer loop
      vertex -53.4555 -1.58387 0
      vertex -55.1632 -2.48013 54.0144
      vertex -55.1632 -2.48013 0
    endloop
  endfacet
  facet normal 0.464723 -0.885456 0
    outer loop
      vertex -55.1632 -2.48013 54.0144
      vertex -53.4555 -1.58387 0
      vertex -53.4555 -1.58387 54.6656
    endloop
  endfacet
  facet normal -0.464723 -0.885456 2.63119e-009
    outer loop
      vertex -62.5445 -1.58387 110
      vertex -61.9189 -1.91221 55.809
      vertex -60.8368 -2.48013 110
    endloop
  endfacet
  facet normal -0.464723 -0.885456 -2.57118e-009
    outer loop
      vertex -62.5445 -1.58387 110
      vertex -62 -1.86966 55.678
      vertex -61.9189 -1.91221 55.809
    endloop
  endfacet
  facet normal -0.464723 -0.885456 0
    outer loop
      vertex -62.5445 -1.58387 110
      vertex -62 -1.86966 54.458
      vertex -62 -1.86966 55.678
    endloop
  endfacet
  facet normal -0.464723 -0.885456 0
    outer loop
      vertex -62.5445 -1.58387 0
      vertex -62 -1.86966 54.458
      vertex -62.5445 -1.58387 110
    endloop
  endfacet
  facet normal -0.464723 -0.885456 -2.83897e-009
    outer loop
      vertex -62.5445 -1.58387 0
      vertex -60.8368 -2.48013 54.0144
      vertex -62 -1.86966 54.458
    endloop
  endfacet
  facet normal -0.464723 -0.885456 -0
    outer loop
      vertex -60.8368 -2.48013 54.0144
      vertex -62.5445 -1.58387 0
      vertex -60.8368 -2.48013 0
    endloop
  endfacet
  facet normal -0.464723 -0.885456 -0
    outer loop
      vertex -60.8368 -2.48013 110
      vertex -61.9189 -1.91221 55.809
      vertex -60.8368 -2.48013 55.809
    endloop
  endfacet
  facet normal -0.239316 -0.970942 0
    outer loop
      vertex -60.8368 -2.48013 55.809
      vertex -58.9643 -2.94167 110
      vertex -60.8368 -2.48013 110
    endloop
  endfacet
  facet normal -0.239316 -0.970942 -0
    outer loop
      vertex -58.9643 -2.94167 110
      vertex -60.8368 -2.48013 55.809
      vertex -58.9643 -2.94167 55.809
    endloop
  endfacet
  facet normal -0.239324 -0.97094 -0
    outer loop
      vertex -60.8368 -2.48013 54.0144
      vertex -60.8368 -2.48013 0
      vertex -60.7562 -2.5 54
    endloop
  endfacet
  facet normal -0.239316 -0.970942 -1.2035e-008
    outer loop
      vertex -58.9643 -2.94167 0
      vertex -60.7562 -2.5 54
      vertex -60.8368 -2.48013 0
    endloop
  endfacet
  facet normal -0.239316 -0.970942 0
    outer loop
      vertex -60.7562 -2.5 54
      vertex -58.9643 -2.94167 0
      vertex -58.9643 -2.94167 54.3209
    endloop
  endfacet
  facet normal 1 -0 0
    outer loop
      vertex -63.9182 4.01243 110
      vertex -63.9182 5 0
      vertex -63.9182 5 110
    endloop
  endfacet
  facet normal 1 0 0
    outer loop
      vertex -63.9182 5 0
      vertex -63.9182 4.01243 110
      vertex -63.9182 4.01243 0
    endloop
  endfacet
  facet normal -0.0825792 0.996585 0
    outer loop
      vertex -56.5271 -0.816401 0
      vertex -58.4955 -0.979506 110
      vertex -56.5271 -0.816401 110
    endloop
  endfacet
  facet normal -0.0825792 0.996585 0
    outer loop
      vertex -58.4955 -0.979506 110
      vertex -56.5271 -0.816401 0
      vertex -58.4955 -0.979506 0
    endloop
  endfacet
  facet normal -0.401695 0.915773 0
    outer loop
      vertex -54.7183 -0.0229988 0
      vertex -56.5271 -0.816401 110
      vertex -54.7183 -0.0229988 110
    endloop
  endfacet
  facet normal -0.401695 0.915773 0
    outer loop
      vertex -56.5271 -0.816401 110
      vertex -54.7183 -0.0229988 0
      vertex -56.5271 -0.816401 0
    endloop
  endfacet
  facet normal -0.986361 0.164594 0
    outer loop
      vertex -52.3251 3.0518 0
      vertex -52 5 110
      vertex -52 5 0
    endloop
  endfacet
  facet normal -0.986361 0.164594 0
    outer loop
      vertex -52 5 110
      vertex -52.3251 3.0518 0
      vertex -52.3251 3.0518 110
    endloop
  endfacet
  facet normal 0.546948 0.837167 -0
    outer loop
      vertex -60.4102 -0.494639 0
      vertex -62.0637 0.585657 110
      vertex -60.4102 -0.494639 110
    endloop
  endfacet
  facet normal 0.546948 0.837167 0
    outer loop
      vertex -62.0637 0.585657 110
      vertex -60.4102 -0.494639 0
      vertex -62.0637 0.585657 0
    endloop
  endfacet
  facet normal 0.945817 0.3247 0
    outer loop
      vertex -63.2768 2.14432 110
      vertex -63.9182 4.01243 0
      vertex -63.9182 4.01243 110
    endloop
  endfacet
  facet normal 0.945817 0.3247 0
    outer loop
      vertex -63.9182 4.01243 0
      vertex -63.2768 2.14432 110
      vertex -63.2768 2.14432 0
    endloop
  endfacet
  facet normal 0.245486 0.9694 -0
    outer loop
      vertex -58.4955 -0.979506 0
      vertex -60.4102 -0.494639 110
      vertex -58.4955 -0.979506 110
    endloop
  endfacet
  facet normal 0.245486 0.9694 0
    outer loop
      vertex -60.4102 -0.494639 110
      vertex -58.4955 -0.979506 0
      vertex -60.4102 -0.494639 0
    endloop
  endfacet
  facet normal 0.789141 0.614212 0
    outer loop
      vertex -62.0637 0.585657 110
      vertex -63.2768 2.14432 0
      vertex -63.2768 2.14432 110
    endloop
  endfacet
  facet normal 0.789141 0.614212 0
    outer loop
      vertex -63.2768 2.14432 0
      vertex -62.0637 0.585657 110
      vertex -62.0637 0.585657 0
    endloop
  endfacet
  facet normal -0.677282 0.735723 0
    outer loop
      vertex -53.2652 1.31472 0
      vertex -54.7183 -0.0229988 110
      vertex -53.2652 1.31472 110
    endloop
  endfacet
  facet normal -0.677282 0.735723 0
    outer loop
      vertex -54.7183 -0.0229988 110
      vertex -53.2652 1.31472 0
      vertex -54.7183 -0.0229988 0
    endloop
  endfacet
  facet normal -0.879473 0.475949 0
    outer loop
      vertex -53.2652 1.31472 0
      vertex -52.3251 3.0518 110
      vertex -52.3251 3.0518 0
    endloop
  endfacet
  facet normal -0.879473 0.475949 0
    outer loop
      vertex -52.3251 3.0518 110
      vertex -53.2652 1.31472 0
      vertex -53.2652 1.31472 110
    endloop
  endfacet
  facet normal 0 1 -0
    outer loop
      vertex -50 5 0
      vertex -50.5 5 110
      vertex -50 5 110
    endloop
  endfacet
  facet normal 0 1 0
    outer loop
      vertex -50.5 5 110
      vertex -50 5 0
      vertex -50.5 5 0
    endloop
  endfacet
  facet normal 0 -1 0
    outer loop
      vertex -52.5 5 0
      vertex -52 5 110
      vertex -52.5 5 110
    endloop
  endfacet
  facet normal 0 -1 -0
    outer loop
      vertex -52 5 110
      vertex -52.5 5 0
      vertex -52 5 0
    endloop
  endfacet
  facet normal 0 1 -0
    outer loop
      vertex -63.9182 5 0
      vertex -64.3458 5 110
      vertex -63.9182 5 110
    endloop
  endfacet
  facet normal 0 1 0
    outer loop
      vertex -64.3458 5 110
      vertex -63.9182 5 0
      vertex -64.3458 5 0
    endloop
  endfacet
  facet normal -1 0 0
    outer loop
      vertex 6 0 0
      vertex 6 79 110
      vertex 6 79 0
    endloop
  endfacet
  facet normal -1 -0 0
    outer loop
      vertex 6 79 110
      vertex 6 0 0
      vertex 6 0 110
    endloop
  endfacet
  facet normal 1 -0 0
    outer loop
      vertex 8 -1 110
      vertex 8 79 0
      vertex 8 79 110
    endloop
  endfacet
  facet normal 1 0 0
    outer loop
      vertex 8 79 0
      vertex 8 -1 110
      vertex 8 -1 0
    endloop
  endfacet
  facet normal 0 1 -0
    outer loop
      vertex 8 79 0
      vertex 6 79 110
      vertex 8 79 110
    endloop
  endfacet
  facet normal 0 1 0
    outer loop
      vertex 6 79 110
      vertex 8 79 0
      vertex 6 79 0
    endloop
  endfacet
  facet normal 0 -1 0
    outer loop
      vertex 7.87858 -1 0
      vertex 8 -1 110
      vertex 7.87858 -1 110
    endloop
  endfacet
  facet normal 0 -1 -0
    outer loop
      vertex 8 -1 110
      vertex 7.87858 -1 0
      vertex 8 -1 0
    endloop
  endfacet
  facet normal 0.965926 0.258819 0
    outer loop
      vertex -6.21166 0 110
      vertex -25.236 71 0
      vertex -25.236 71 110
    endloop
  endfacet
  facet normal 0.965926 0.258819 0
    outer loop
      vertex -25.236 71 0
      vertex -6.21166 0 110
      vertex -6.21166 0 0
    endloop
  endfacet
  facet normal -0.965926 -0.258819 0
    outer loop
      vertex -7.46859 -3.03648 0
      vertex -28.1741 74.2376 110
      vertex -28.1741 74.2376 0
    endloop
  endfacet
  facet normal -0.965926 -0.258819 0
    outer loop
      vertex -28.1741 74.2376 110
      vertex -7.46859 -3.03648 0
      vertex -7.46859 -3.03648 110
    endloop
  endfacet
  facet normal 0.25882 -0.965926 0
    outer loop
      vertex -7.46859 -3.03648 0
      vertex -7.35371 -3.0057 110
      vertex -7.46859 -3.03648 110
    endloop
  endfacet
  facet normal 0.25882 -0.965926 0
    outer loop
      vertex -7.35371 -3.0057 110
      vertex -7.46859 -3.03648 0
      vertex -7.35371 -3.0057 0
    endloop
  endfacet
  facet normal -0.258819 0.965926 0
    outer loop
      vertex -27.5572 74.4029 0
      vertex -28.1741 74.2376 110
      vertex -27.5572 74.4029 110
    endloop
  endfacet
  facet normal -0.258819 0.965926 0
    outer loop
      vertex -28.1741 74.2376 110
      vertex -27.5572 74.4029 0
      vertex -28.1741 74.2376 0
    endloop
  endfacet
  facet normal -1 0 0
    outer loop
      vertex -52.5 5 0
      vertex -52.5 71 110
      vertex -52.5 71 0
    endloop
  endfacet
  facet normal -1 -0 0
    outer loop
      vertex -52.5 71 110
      vertex -52.5 5 0
      vertex -52.5 5 110
    endloop
  endfacet
  facet normal -1 0 0
    outer loop
      vertex -52.5 74.508 0
      vertex -52.5 75 110
      vertex -52.5 75 0
    endloop
  endfacet
  facet normal -1 -0 0
    outer loop
      vertex -52.5 75 110
      vertex -52.5 74.508 0
      vertex -52.5 74.508 110
    endloop
  endfacet
  facet normal 1 -0 0
    outer loop
      vertex -50.5 5 110
      vertex -50.5 74.2267 0
      vertex -50.5 74.2267 110
    endloop
  endfacet
  facet normal 1 0 0
    outer loop
      vertex -50.5 74.2267 0
      vertex -50.5 5 110
      vertex -50.5 5 0
    endloop
  endfacet
  facet normal 0 1 -0
    outer loop
      vertex -52.3402 75 0
      vertex -52.5 75 110
      vertex -52.3402 75 110
    endloop
  endfacet
  facet normal 0 1 0
    outer loop
      vertex -52.5 75 110
      vertex -52.3402 75 0
      vertex -52.5 75 0
    endloop
  endfacet
  facet normal 0.984808 0.173648 0
    outer loop
      vertex -64.3458 5 110
      vertex -76.1369 71.8708 0
      vertex -76.1369 71.8708 110
    endloop
  endfacet
  facet normal 0.984808 0.173648 0
    outer loop
      vertex -76.1369 71.8708 0
      vertex -64.3458 5 110
      vertex -64.3458 5 0
    endloop
  endfacet
  facet normal -0.173649 0.984808 0
    outer loop
      vertex -76.1369 71.8708 0
      vertex -78.1065 71.5235 110
      vertex -76.1369 71.8708 110
    endloop
  endfacet
  facet normal -0.173649 0.984808 0
    outer loop
      vertex -78.1065 71.5235 110
      vertex -76.1369 71.8708 0
      vertex -78.1065 71.5235 0
    endloop
  endfacet
  facet normal -0.984808 -0.173648 0
    outer loop
      vertex -65.9512 2.587 0
      vertex -78.1065 71.5235 110
      vertex -78.1065 71.5235 0
    endloop
  endfacet
  facet normal -0.984808 -0.173648 0
    outer loop
      vertex -78.1065 71.5235 110
      vertex -65.9512 2.587 0
      vertex -65.9512 2.587 110
    endloop
  endfacet
  facet normal 0.173647 -0.984808 0
    outer loop
      vertex -65.9512 2.587 0
      vertex -65.6018 2.6486 110
      vertex -65.9512 2.587 110
    endloop
  endfacet
  facet normal 0.173647 -0.984808 0
    outer loop
      vertex -65.6018 2.6486 110
      vertex -65.9512 2.587 0
      vertex -65.6018 2.6486 0
    endloop
  endfacet
  facet normal -0.809017 -0.587785 0
    outer loop
      vertex 0.957621 -7.94167 50
      vertex 0.309016 -7.04894 60
      vertex 0.309016 -7.04894 50
    endloop
  endfacet
  facet normal -0.809017 -0.587785 0
    outer loop
      vertex 0.309016 -7.04894 60
      vertex 0.957621 -7.94167 50
      vertex 0.957621 -7.94167 60
    endloop
  endfacet
  facet normal 1 -0 0
    outer loop
      vertex -0.809016 -7.94167 60
      vertex -0.809016 -7.41221 50
      vertex -0.809016 -7.41221 60
    endloop
  endfacet
  facet normal 1 0 0
    outer loop
      vertex -0.809016 -7.41221 50
      vertex -0.809016 -7.94167 60
      vertex -0.809016 -7.94167 50
    endloop
  endfacet
  facet normal 0.309018 -0.951056 0
    outer loop
      vertex -0.809016 -7.41221 50
      vertex 0.309016 -7.04894 60
      vertex -0.809016 -7.41221 60
    endloop
  endfacet
  facet normal 0.309018 -0.951056 0
    outer loop
      vertex 0.309016 -7.04894 60
      vertex -0.809016 -7.41221 50
      vertex 0.309016 -7.04894 50
    endloop
  endfacet
  facet normal 0 0 -1
    outer loop
      vertex -0.809016 -7.94167 60
      vertex 0.309016 -7.04894 60
      vertex 0.957621 -7.94167 60
    endloop
  endfacet
  facet normal 0 0 -1
    outer loop
      vertex 0.309016 -7.04894 60
      vertex -0.809016 -7.94167 60
      vertex -0.809016 -7.41221 60
    endloop
  endfacet
  facet normal 0 0 1
    outer loop
      vertex -0.809016 -7.94167 50
      vertex 0.309016 -7.04894 50
      vertex -0.809016 -7.41221 50
    endloop
  endfacet
  facet normal 0 0 1
    outer loop
      vertex 0.309016 -7.04894 50
      vertex -0.809016 -7.94167 50
      vertex 0.957621 -7.94167 50
    endloop
  endfacet
  facet normal -0.809016 -0.587786 0
    outer loop
      vertex -56.691 -2.04894 50
      vertex -56.3633 -2.5 54
      vertex -56.691 -2.04894 54.3277
    endloop
  endfacet
  facet normal -0.809018 -0.587784 3.07082e-007
    outer loop
      vertex -56.1932 -2.73402 50
      vertex -56.3633 -2.5 54
      vertex -56.691 -2.04894 50
    endloop
  endfacet
  facet normal -0.80902 -0.587781 0
    outer loop
      vertex -56.3633 -2.5 54
      vertex -56.1932 -2.73402 50
      vertex -56.1932 -2.73402 54.17
    endloop
  endfacet
  facet normal -0.809018 -0.587784 0
    outer loop
      vertex -56.1932 -2.73402 55.809
      vertex -56.691 -2.04894 60
      vertex -56.691 -2.04894 55.809
    endloop
  endfacet
  facet normal -0.809018 -0.587784 0
    outer loop
      vertex -56.691 -2.04894 60
      vertex -56.1932 -2.73402 55.809
      vertex -56.1932 -2.73402 60
    endloop
  endfacet
  facet normal 1 -0 0
    outer loop
      vertex -57.809 -2.5 54
      vertex -57.809 -2.41221 50
      vertex -57.809 -2.41221 54.0638
    endloop
  endfacet
  facet normal 1 0 0
    outer loop
      vertex -57.809 -2.94167 50
      vertex -57.809 -2.5 54
      vertex -57.809 -2.94167 54.3209
    endloop
  endfacet
  facet normal 1 0 0
    outer loop
      vertex -57.809 -2.5 54
      vertex -57.809 -2.94167 50
      vertex -57.809 -2.41221 50
    endloop
  endfacet
  facet normal 1 -0 0
    outer loop
      vertex -57.809 -2.94167 60
      vertex -57.809 -2.41221 55.809
      vertex -57.809 -2.41221 60
    endloop
  endfacet
  facet normal 1 0 0
    outer loop
      vertex -57.809 -2.41221 55.809
      vertex -57.809 -2.94167 60
      vertex -57.809 -2.94167 55.809
    endloop
  endfacet
  facet normal 0.309017 -0.951056 0
    outer loop
      vertex -56.691 -2.04894 50
      vertex -57.809 -2.41221 54.0638
      vertex -57.809 -2.41221 50
    endloop
  endfacet
  facet normal 0.309017 -0.951056 0
    outer loop
      vertex -57.809 -2.41221 54.0638
      vertex -56.691 -2.04894 50
      vertex -56.691 -2.04894 54.3277
    endloop
  endfacet
  facet normal 0.309017 -0.951056 0
    outer loop
      vertex -57.809 -2.41221 55.809
      vertex -56.691 -2.04894 60
      vertex -57.809 -2.41221 60
    endloop
  endfacet
  facet normal 0.309017 -0.951056 0
    outer loop
      vertex -56.691 -2.04894 60
      vertex -57.809 -2.41221 55.809
      vertex -56.691 -2.04894 55.809
    endloop
  endfacet
  facet normal 0 0 -1
    outer loop
      vertex -57.0357 -2.94167 60
      vertex -56.691 -2.04894 60
      vertex -56.1932 -2.73402 60
    endloop
  endfacet
  facet normal 0 0 -1
    outer loop
      vertex -57.809 -2.41221 60
      vertex -57.0357 -2.94167 60
      vertex -57.809 -2.94167 60
    endloop
  endfacet
  facet normal 0 0 -1
    outer loop
      vertex -57.0357 -2.94167 60
      vertex -57.809 -2.41221 60
      vertex -56.691 -2.04894 60
    endloop
  endfacet
  facet normal 0 0 1
    outer loop
      vertex -56.691 -2.04894 50
      vertex -57.0357 -2.94167 50
      vertex -56.1932 -2.73402 50
    endloop
  endfacet
  facet normal -0 0 1
    outer loop
      vertex -57.809 -2.41221 50
      vertex -57.0357 -2.94167 50
      vertex -56.691 -2.04894 50
    endloop
  endfacet
  facet normal 0 0 1
    outer loop
      vertex -57.0357 -2.94167 50
      vertex -57.809 -2.41221 50
      vertex -57.809 -2.94167 50
    endloop
  endfacet
  facet normal -6.16627e-006 -0.587757 0.809037
    outer loop
      vertex -56.691 -2.04894 54.3277
      vertex -53.4555 -1.58387 54.6656
      vertex -53.4161 -1.54894 54.691
    endloop
  endfacet
  facet normal -2.0633e-007 -0.587784 0.809018
    outer loop
      vertex -53.4555 -1.58387 54.6656
      vertex -56.691 -2.04894 54.3277
      vertex -55.1632 -2.48013 54.0144
    endloop
  endfacet
  facet normal -9.25576e-006 -0.587805 0.809002
    outer loop
      vertex -55.1632 -2.48013 54.0144
      vertex -56.691 -2.04894 54.3277
      vertex -55.2438 -2.5 54
    endloop
  endfacet
  facet normal 0 -0.587786 0.809016
    outer loop
      vertex -55.2438 -2.5 54
      vertex -56.691 -2.04894 54.3277
      vertex -56.3633 -2.5 54
    endloop
  endfacet
  facet normal 0 -0.587795 0.80901
    outer loop
      vertex -57.809 -2.41221 54.0638
      vertex -60.7562 -2.5 54
      vertex -57.809 -2.5 54
    endloop
  endfacet
  facet normal 2.45854e-009 -0.587784 0.809018
    outer loop
      vertex -62 -1.54894 54.691
      vertex -57.809 -2.41221 54.0638
      vertex -56.691 -2.04894 54.3277
    endloop
  endfacet
  facet normal 0 -0.587784 0.809018
    outer loop
      vertex -62 -1.54894 54.691
      vertex -56.691 -2.04894 54.3277
      vertex -53.4161 -1.54894 54.691
    endloop
  endfacet
  facet normal -4.64367e-007 -0.587785 0.809017
    outer loop
      vertex -57.809 -2.41221 54.0638
      vertex -62 -1.54894 54.691
      vertex -60.7562 -2.5 54
    endloop
  endfacet
  facet normal 2.51198e-005 -0.587763 0.809033
    outer loop
      vertex -60.7562 -2.5 54
      vertex -62 -1.54894 54.691
      vertex -60.8368 -2.48013 54.0144
    endloop
  endfacet
  facet normal -4.94088e-006 -0.587788 0.809015
    outer loop
      vertex -60.8368 -2.48013 54.0144
      vertex -62 -1.54894 54.691
      vertex -62 -1.86966 54.458
    endloop
  endfacet
  facet normal 0 0 -1
    outer loop
      vertex -57.809 -2.94167 55.809
      vertex -58.9643 -2.94167 55.809
      vertex -57.809 -2.41221 55.809
    endloop
  endfacet
  facet normal 0 0 -1
    outer loop
      vertex -56.691 -2.04894 55.809
      vertex -55.1632 -2.48013 55.809
      vertex -56.1932 -2.73402 55.809
    endloop
  endfacet
  facet normal 0 0 -1
    outer loop
      vertex -55.1632 -2.48013 55.809
      vertex -56.691 -2.04894 55.809
      vertex -54.0811 -1.91221 55.809
    endloop
  endfacet
  facet normal 0 0 -1
    outer loop
      vertex -60.8368 -2.48013 55.809
      vertex -57.809 -2.41221 55.809
      vertex -58.9643 -2.94167 55.809
    endloop
  endfacet
  facet normal 0 0 -1
    outer loop
      vertex -61.9189 -1.91221 55.809
      vertex -57.809 -2.41221 55.809
      vertex -60.8368 -2.48013 55.809
    endloop
  endfacet
  facet normal 0 0 -1
    outer loop
      vertex -56.691 -2.04894 55.809
      vertex -61.9189 -1.91221 55.809
      vertex -54.0811 -1.91221 55.809
    endloop
  endfacet
  facet normal 0 0 -1
    outer loop
      vertex -57.809 -2.41221 55.809
      vertex -61.9189 -1.91221 55.809
      vertex -56.691 -2.04894 55.809
    endloop
  endfacet
  facet normal -3.97799e-006 -0.951057 -0.309017
    outer loop
      vertex -62 -1.54894 54.691
      vertex -61.9189 -1.91221 55.809
      vertex -62 -1.86966 55.678
    endloop
  endfacet
  facet normal 0 -0.951056 -0.309017
    outer loop
      vertex -61.9189 -1.91221 55.809
      vertex -62 -1.54894 54.691
      vertex -54.0811 -1.91221 55.809
    endloop
  endfacet
  facet normal -0 -0.951056 -0.309017
    outer loop
      vertex -53.4161 -1.54894 54.691
      vertex -54.0811 -1.91221 55.809
      vertex -62 -1.54894 54.691
    endloop
  endfacet
  facet normal -6.95487e-007 -0.951056 -0.309018
    outer loop
      vertex -54.0811 -1.91221 55.809
      vertex -53.4161 -1.54894 54.691
      vertex -53.4555 -1.58387 54.7985
    endloop
  endfacet
  facet normal 1 0 0
    outer loop
      vertex -62 -1.54894 54.691
      vertex -62 -1.86966 55.678
      vertex -62 -1.86966 54.458
    endloop
  endfacet
  facet normal 0 0.587785 0.809017
    outer loop
      vertex -57.809 -2.5 54
      vertex -58.9643 -2.94167 54.3209
      vertex -57.809 -2.94167 54.3209
    endloop
  endfacet
  facet normal 0 0.587785 0.809017
    outer loop
      vertex -58.9643 -2.94167 54.3209
      vertex -57.809 -2.5 54
      vertex -60.7562 -2.5 54
    endloop
  endfacet
  facet normal 0 0.587789 0.809014
    outer loop
      vertex -56.1932 -2.73402 54.17
      vertex -55.2438 -2.5 54
      vertex -56.3633 -2.5 54
    endloop
  endfacet
endsolid OpenSCAD_Model
