  0
SECTION
  2
HEADER
  9
$ACADVER
  1
AC1014
  9
$HANDSEED
  5
FFFF
  9
$MEASUREMENT
 70
     1
  0
ENDSEC
  0
SECTION
  2
TABLES
  0
TABLE
  2
VPORT
  5
8
330
0
100
AcDbSymbolTable
 70
     4
  0
VPORT
  5
2E
330
8
100
AcDbSymbolTableRecord
100
AcDbViewportTableRecord
  2
*ACTIVE
 70
     0
 10
0.0
 20
0.0
 11
1.0
 21
1.0
 12
210.0
 22
148.5
 13
0.0
 23
0.0
 14
10.0
 24
10.0
 15
10.0
 25
10.0
 16
0.0
 26
0.0
 36
1.0
 17
0.0
 27
0.0
 37
0.0
 40
341.0
 41
1.24
 42
50.0
 43
0.0
 44
0.0
 50
0.0
 51
0.0
 71
     0
 72
   100
 73
     1
 74
     3
 75
     0
 76
     0
 77
     0
 78
     0
  0
ENDTAB
  0
TABLE
  2
LTYPE
  5
5
330
0
100
AcDbSymbolTable
 70
     1
  0
LTYPE
  5
14
330
5
100
AcDbSymbolTableRecord
100
AcDbLinetypeTableRecord
  2
BYBLOCK
 70
     0
  3

 72
    65
 73
     0
 40
0.0
  0
LTYPE
  5
15
330
5
100
AcDbSymbolTableRecord
100
AcDbLinetypeTableRecord
  2
BYLAYER
 70
     0
  3

 72
    65
 73
     0
 40
0.0
  0
LTYPE
  5
16
330
5
100
AcDbSymbolTableRecord
100
AcDbLinetypeTableRecord
  2
CONTINUOUS
 70
     0
  3
Solid line
 72
    65
 73
     0
 40
0.0
  0
ENDTAB
  0
TABLE
  2
LAYER
  5
2
100
AcDbSymbolTable
 70
13
  0
LAYER
  5
50
100
AcDbSymbolTableRecord
100
AcDbLayerTableRecord
  2
0
 70
0
  6
CONTINUOUS
  0
LAYER
  5
51
100
AcDbSymbolTableRecord
100
AcDbLayerTableRecord
  2
Artifact
 70
0
  6
CONTINUOUS
  0
LAYER
  5
52
100
AcDbSymbolTableRecord
100
AcDbLayerTableRecord
  2
black
 70
0
  6
CONTINUOUS
  0
LAYER
  5
53
100
AcDbSymbolTableRecord
100
AcDbLayerTableRecord
  2
blue
 70
0
  6
CONTINUOUS
  0
LAYER
  5
54
100
AcDbSymbolTableRecord
100
AcDbLayerTableRecord
  2
green
 70
0
  6
CONTINUOUS
  0
LAYER
  5
55
100
AcDbSymbolTableRecord
100
AcDbLayerTableRecord
  2
phyrexian
 70
0
  6
CONTINUOUS
  0
LAYER
  5
56
100
AcDbSymbolTableRecord
100
AcDbLayerTableRecord
  2
plainswalker
 70
0
  6
CONTINUOUS
  0
LAYER
  5
57
100
AcDbSymbolTableRecord
100
AcDbLayerTableRecord
  2
snow
 70
0
  6
CONTINUOUS
  0
LAYER
  5
58
100
AcDbSymbolTableRecord
100
AcDbLayerTableRecord
  2
kbw
 70
0
  6
CONTINUOUS
  0
LAYER
  5
59
100
AcDbSymbolTableRecord
100
AcDbLayerTableRecord
  2
red
 70
0
  6
CONTINUOUS
  0
LAYER
  5
5a
100
AcDbSymbolTableRecord
100
AcDbLayerTableRecord
  2
tap
 70
0
  6
CONTINUOUS
  0
LAYER
  5
5b
100
AcDbSymbolTableRecord
100
AcDbLayerTableRecord
  2
untap
 70
0
  6
CONTINUOUS
  0
LAYER
  5
5c
100
AcDbSymbolTableRecord
100
AcDbLayerTableRecord
  2
white
 70
0
  6
CONTINUOUS
  0
ENDTAB
  0
TABLE
  2
STYLE
  5
3
330
0
100
AcDbSymbolTable
 70
     1
  0
STYLE
  5
11
330
3
100
AcDbSymbolTableRecord
100
AcDbTextStyleTableRecord
  2
STANDARD
 70
     0
 40
0.0
 41
1.0
 50
0.0
 71
     0
 42
2.5
  3
txt
  4

  0
ENDTAB
  0
TABLE
  2
VIEW
  5
6
330
0
100
AcDbSymbolTable
 70
     0
  0
ENDTAB
  0
TABLE
  2
UCS
  5
7
330
0
100
AcDbSymbolTable
 70
     0
  0
ENDTAB
  0
TABLE
  2
APPID
  5
9
330
0
100
AcDbSymbolTable
 70
     2
  0
APPID
  5
12
330
9
100
AcDbSymbolTableRecord
100
AcDbRegAppTableRecord
  2
ACAD
 70
     0
  0
ENDTAB
  0
TABLE
  2
DIMSTYLE
  5
A
330
0
100
AcDbSymbolTable
 70
     1
  0
DIMSTYLE
105
27
330
A
100
AcDbSymbolTableRecord
100
AcDbDimStyleTableRecord
  2
ISO-25
 70
     0
  3

  4

  5

  6

  7

 40
1.0
 41
2.5
 42
0.625
 43
3.75
 44
1.25
 45
0.0
 46
0.0
 47
0.0
 48
0.0
140
2.5
141
2.5
142
0.0
143
0.03937007874016
144
1.0
145
0.0
146
1.0
147
0.625
 71
     0
 72
     0
 73
     0
 74
     0
 75
     0
 76
     0
 77
     1
 78
     8
170
     0
171
     3
172
     1
173
     0
174
     0
175
     0
176
     0
177
     0
178
     0
270
     2
271
     2
272
     2
273
     2
274
     3
340
11
275
     0
280
     0
281
     0
282
     0
283
     0
284
     8
285
     0
286
     0
287
     3
288
     0
  0
ENDTAB
  0
TABLE
  2
BLOCK_RECORD
  5
1
330
0
100
AcDbSymbolTable
 70
     1
  0
BLOCK_RECORD
  5
1F
330
1
100
AcDbSymbolTableRecord
100
AcDbBlockTableRecord
  2
*MODEL_SPACE
  0
BLOCK_RECORD
  5
1B
330
1
100
AcDbSymbolTableRecord
100
AcDbBlockTableRecord
  2
*PAPER_SPACE
  0
ENDTAB
  0
ENDSEC
  0
SECTION
  2
BLOCKS
  0
BLOCK
  5
20
330
1F
100
AcDbEntity
  8
0
100
AcDbBlockBegin
  2
*MODEL_SPACE
 70
     0
 10
0.0
 20
0.0
 30
0.0
  3
*MODEL_SPACE
  1

  0
ENDBLK
  5
21
330
1F
100
AcDbEntity
  8
0
100
AcDbBlockEnd
  0
BLOCK
  5
1C
330
1B
100
AcDbEntity
 67
     1
  8
0
100
AcDbBlockBegin
  2
*PAPER_SPACE
  1

  0
ENDBLK
  5
1D
330
1B
100
AcDbEntity
 67
     1
  8
0
100
AcDbBlockEnd
  0
ENDSEC
  0
SECTION
  2
ENTITIES
  0
LWPOLYLINE
  5
100
100
AcDbEntity
  8
Artifact
 62
7
100
AcDbPolyline
 90
118
 70
0
 10
-6.525826
 20
-11.560895
 30
0.0
 10
-6.613726
 20
-11.124833
 30
0.0
 10
-6.639823
 20
-10.881501
 30
0.0
 10
-6.465522
 20
-10.732403
 30
0.0
 10
-5.888933
 20
-10.602383
 30
0.0
 10
-4.708164
 20
-10.416399
 30
0.0
 10
-3.883603
 20
-10.210546
 30
0.0
 10
-3.068025
 20
-9.865501
 30
0.0
 10
-2.333086
 20
-9.417953
 30
0.0
 10
-1.750445
 20
-8.904478
 30
0.0
 10
-1.411120
 20
-8.490656
 30
0.0
 10
-1.208620
 20
-8.082421
 30
0.0
 10
-1.088630
 20
-7.515493
 30
0.0
 10
-0.996833
 20
-6.625618
 30
0.0
 10
-0.843720
 20
-3.764732
 30
0.0
 10
-0.829015
 20
-2.501759
 30
0.0
 10
-1.530944
 20
-2.135576
 30
0.0
 10
-2.232874
 20
-1.769420
 30
0.0
 10
-2.998405
 20
-1.343660
 30
0.0
 10
-3.647556
 20
-0.918408
 30
0.0
 10
-4.197049
 20
-0.473879
 30
0.0
 10
-4.663606
 20
0.009737
 30
0.0
 10
-5.063948
 20
0.552168
 30
0.0
 10
-5.414800
 20
1.173254
 30
0.0
 10
-5.732881
 20
1.892808
 30
0.0
 10
-6.034914
 20
2.730585
 30
0.0
 10
-6.500709
 20
4.152928
 30
0.0
 10
-6.816847
 20
5.161873
 30
0.0
 10
-6.996714
 20
5.801924
 30
0.0
 10
-7.053696
 20
6.117562
 30
0.0
 10
-7.116713
 20
6.332192
 30
0.0
 10
-7.285322
 20
6.487442
 30
0.0
 10
-7.528868
 20
6.621498
 30
0.0
 10
-7.816686
 20
6.772571
 30
0.0
 10
-8.039071
 20
6.903889
 30
0.0
 10
-8.418185
 20
7.180890
 30
0.0
 10
-8.781742
 20
7.577328
 30
0.0
 10
-8.957455
 20
8.066984
 30
0.0
 10
-8.839574
 20
8.519950
 30
0.0
 10
-8.548940
 20
8.843716
 30
0.0
 10
-8.178266
 20
9.105392
 30
0.0
 10
-7.820271
 20
9.372092
 30
0.0
 10
-7.542093
 20
9.787156
 30
0.0
 10
-7.378595
 20
10.209925
 30
0.0
 10
-7.311408
 20
10.624989
 30
0.0
 10
-7.322161
 20
11.016827
 30
0.0
 10
-7.437225
 20
12.007596
 30
0.0
 10
-7.526933
 20
12.599642
 30
0.0
 10
-7.510225
 20
12.920049
 30
0.0
 10
-7.331635
 20
13.310926
 30
0.0
 10
-7.148568
 20
13.582424
 30
0.0
 10
-6.873278
 20
13.826744
 30
0.0
 10
7.560762
 20
13.826744
 30
0.0
 10
7.718376
 20
13.817148
 30
0.0
 10
7.866532
 20
13.784608
 30
0.0
 10
8.007763
 20
13.714674
 30
0.0
 10
8.144599
 20
13.593064
 30
0.0
 10
8.230078
 20
13.474531
 30
0.0
 10
8.273906
 20
13.332375
 30
0.0
 10
8.283395
 20
13.160671
 30
0.0
 10
8.265877
 20
12.953323
 30
0.0
 10
8.228644
 20
12.704374
 30
0.0
 10
8.179020
 20
12.407787
 30
0.0
 10
8.124317
 20
12.057578
 30
0.0
 10
8.071847
 20
11.647678
 30
0.0
 10
8.033830
 20
11.134796
 30
0.0
 10
8.033769
 20
10.705253
 30
0.0
 10
8.059118
 20
10.365204
 30
0.0
 10
8.097343
 20
10.120828
 30
0.0
 10
8.251993
 20
9.754418
 30
0.0
 10
8.494750
 20
9.479252
 30
0.0
 10
8.758018
 20
9.262308
 30
0.0
 10
8.974204
 20
9.070594
 30
0.0
 10
9.157534
 20
8.905353
 30
0.0
 10
9.367031
 20
8.715671
 30
0.0
 10
9.541027
 20
8.458793
 30
0.0
 10
9.617855
 20
8.091904
 30
0.0
 10
9.450177
 20
7.571740
 30
0.0
 10
9.115776
 20
7.188736
 30
0.0
 10
8.752993
 20
6.937389
 30
0.0
 10
8.500164
 20
6.812308
 30
0.0
 10
8.246136
 20
6.647293
 30
0.0
 10
7.992893
 20
6.353697
 30
0.0
 10
7.759785
 20
5.920796
 30
0.0
 10
7.566160
 20
5.338008
 30
0.0
 10
7.429641
 20
4.817533
 30
0.0
 10
7.289504
 20
4.319693
 30
0.0
 10
7.145958
 20
3.844431
 30
0.0
 10
6.999216
 20
3.391718
 30
0.0
 10
6.384504
 20
1.804755
 30
0.0
 10
5.735539
 20
0.573080
 30
0.0
 10
5.065837
 20
-0.307171
 30
0.0
 10
4.226931
 20
-0.979932
 30
0.0
 10
3.140336
 20
-1.625402
 30
0.0
 10
1.647628
 20
-2.477488
 30
0.0
 10
1.588170
 20
-5.659205
 30
0.0
 10
1.663247
 20
-6.359370
 30
0.0
 10
1.725198
 20
-6.998716
 30
0.0
 10
1.767598
 20
-7.506631
 30
0.0
 10
1.784018
 20
-7.812363
 30
0.0
 10
1.841442
 20
-8.055610
 30
0.0
 10
2.008088
 20
-8.352846
 30
0.0
 10
2.280102
 20
-8.698399
 30
0.0
 10
2.653631
 20
-9.086652
 30
0.0
 10
3.422782
 20
-9.681605
 30
0.0
 10
4.327505
 20
-10.136491
 30
0.0
 10
5.309288
 20
-10.428139
 30
0.0
 10
6.309619
 20
-10.533436
 30
0.0
 10
6.805556
 20
-10.570379
 30
0.0
 10
7.127557
 20
-10.682055
 30
0.0
 10
7.290198
 20
-10.877719
 30
0.0
 10
7.308054
 20
-11.166630
 30
0.0
 10
7.145328
 20
-11.369463
 30
0.0
 10
6.334263
 20
-11.480066
 30
0.0
 10
4.275999
 20
-11.532531
 30
0.0
 10
0.371673
 20
-11.560866
 30
0.0
 10
-6.525835
 20
-11.560866
 30
0.0
 10
-6.525826
 20
-11.560895
 30
0.0
  0
LWPOLYLINE
  5
101
100
AcDbEntity
  8
black
 62
7
100
AcDbPolyline
 90
291
 70
0
 10
-4.752196
 20
-10.592705
 30
0.0
 10
-4.892048
 20
-10.413412
 30
0.0
 10
-4.997953
 20
-10.205149
 30
0.0
 10
-5.071995
 20
-9.940159
 30
0.0
 10
-5.116251
 20
-9.590656
 30
0.0
 10
-5.132810
 20
-9.128883
 30
0.0
 10
-5.123727
 20
-8.527055
 30
0.0
 10
-5.091115
 20
-7.757443
 30
0.0
 10
-5.037050
 20
-6.792262
 30
0.0
 10
-4.991711
 20
-5.955034
 30
0.0
 10
-4.963926
 20
-5.243504
 30
0.0
 10
-4.954053
 20
-4.648643
 30
0.0
 10
-4.962515
 20
-4.161398
 30
0.0
 10
-4.989595
 20
-3.772686
 30
0.0
 10
-5.035649
 20
-3.473450
 30
0.0
 10
-5.101107
 20
-3.254665
 30
0.0
 10
-5.186322
 20
-3.107276
 30
0.0
 10
-5.288230
 20
-3.017404
 30
0.0
 10
-5.446435
 20
-2.921072
 30
0.0
 10
-5.652969
 20
-2.821298
 30
0.0
 10
-5.899855
 20
-2.721074
 30
0.0
 10
-6.179111
 20
-2.623416
 30
0.0
 10
-6.482761
 20
-2.531343
 30
0.0
 10
-6.802825
 20
-2.447818
 30
0.0
 10
-7.131330
 20
-2.375830
 30
0.0
 10
-8.309042
 20
-2.126354
 30
0.0
 10
-9.242226
 20
-1.879502
 30
0.0
 10
-9.963567
 20
-1.610901
 30
0.0
 10
-10.505749
 20
-1.296179
 30
0.0
 10
-10.901458
 20
-0.910908
 30
0.0
 10
-11.183379
 20
-0.430687
 30
0.0
 10
-11.384197
 20
0.168856
 30
0.0
 10
-11.536602
 20
0.912122
 30
0.0
 10
-11.610133
 20
1.944326
 30
0.0
 10
-11.519001
 20
3.095175
 30
0.0
 10
-11.280371
 20
4.315361
 30
0.0
 10
-10.911399
 20
5.555406
 30
0.0
 10
-10.429228
 20
6.765973
 30
0.0
 10
-9.851019
 20
7.897668
 30
0.0
 10
-9.193923
 20
8.901100
 30
0.0
 10
-8.475094
 20
9.726875
 30
0.0
 10
-8.172609
 20
10.015730
 30
0.0
 10
-7.934636
 20
10.230030
 30
0.0
 10
-7.751414
 20
10.373385
 30
0.0
 10
-7.613173
 20
10.449294
 30
0.0
 10
-7.510153
 20
10.461424
 30
0.0
 10
-7.432588
 20
10.413188
 30
0.0
 10
-7.370710
 20
10.308224
 30
0.0
 10
-7.314758
 20
10.150059
 30
0.0
 10
-7.148771
 20
9.655310
 30
0.0
 10
-6.975213
 20
9.239292
 30
0.0
 10
-6.787319
 20
8.894302
 30
0.0
 10
-6.578328
 20
8.612669
 30
0.0
 10
-6.341476
 20
8.386662
 30
0.0
 10
-6.070006
 20
8.208582
 30
0.0
 10
-5.757151
 20
8.070727
 30
0.0
 10
-5.396153
 20
7.965425
 30
0.0
 10
-4.922400
 20
7.865878
 30
0.0
 10
-4.568987
 20
7.821167
 30
0.0
 10
-4.334817
 20
7.833297
 30
0.0
 10
-4.218785
 20
7.904185
 30
0.0
 10
-4.219913
 20
8.035749
 30
0.0
 10
-4.336803
 20
8.229936
 30
0.0
 10
-4.568541
 20
8.488749
 30
0.0
 10
-4.914056
 20
8.814021
 30
0.0
 10
-5.139128
 20
9.029167
 30
0.0
 10
-5.333313
 20
9.246090
 30
0.0
 10
-5.498662
 20
9.468740
 30
0.0
 10
-5.637228
 20
9.700924
 30
0.0
 10
-5.751058
 20
9.946591
 30
0.0
 10
-5.842211
 20
10.209579
 30
0.0
 10
-5.912732
 20
10.493807
 30
0.0
 10
-5.964675
 20
10.803113
 30
0.0
 10
-5.984675
 20
10.952280
 30
0.0
 10
-6.004675
 20
11.101446
 30
0.0
 10
-6.024674
 20
11.250613
 30
0.0
 10
-6.044674
 20
11.399779
 30
0.0
 10
-6.064674
 20
11.548917
 30
0.0
 10
-6.084674
 20
11.698084
 30
0.0
 10
-6.104674
 20
11.847250
 30
0.0
 10
-6.124673
 20
11.996416
 30
0.0
 10
-5.952636
 20
12.071705
 30
0.0
 10
-5.780601
 20
12.146993
 30
0.0
 10
-5.608563
 20
12.222253
 30
0.0
 10
-5.436525
 20
12.297542
 30
0.0
 10
-5.264488
 20
12.372830
 30
0.0
 10
-5.092452
 20
12.448119
 30
0.0
 10
-4.920414
 20
12.523407
 30
0.0
 10
-4.748377
 20
12.598696
 30
0.0
 10
-3.621967
 20
12.982782
 30
0.0
 10
-2.325833
 20
13.241228
 30
0.0
 10
-0.916545
 20
13.375811
 30
0.0
 10
0.549316
 20
13.388505
 30
0.0
 10
2.015181
 20
13.280918
 30
0.0
 10
3.424476
 20
13.054996
 30
0.0
 10
4.720625
 20
12.712573
 30
0.0
 10
5.847057
 20
12.255483
 30
0.0
 10
6.353831
 20
11.985838
 30
0.0
 10
6.724394
 20
11.746207
 30
0.0
 10
6.961270
 20
11.522768
 30
0.0
 10
7.066975
 20
11.301698
 30
0.0
 10
7.044042
 20
11.069204
 30
0.0
 10
6.894974
 20
10.811463
 30
0.0
 10
6.622297
 20
10.514653
 30
0.0
 10
6.228535
 20
10.164981
 30
0.0
 10
5.808220
 20
9.786226
 30
0.0
 10
5.541294
 20
9.487837
 30
0.0
 10
5.424777
 20
9.272296
 30
0.0
 10
5.455682
 20
9.142114
 30
0.0
 10
5.631034
 20
9.099773
 30
0.0
 10
5.947852
 20
9.147755
 30
0.0
 10
6.403148
 20
9.288572
 30
0.0
 10
6.993946
 20
9.524733
 30
0.0
 10
7.268790
 20
9.636834
 30
0.0
 10
7.541453
 20
9.735169
 30
0.0
 10
7.804805
 20
9.818045
 30
0.0
 10
8.051716
 20
9.883771
 30
0.0
 10
8.275057
 20
9.930597
 30
0.0
 10
8.467695
 20
9.956831
 30
0.0
 10
8.622500
 20
9.960780
 30
0.0
 10
8.732347
 20
9.940752
 30
0.0
 10
9.042720
 20
9.725860
 30
0.0
 10
9.420667
 20
9.314383
 30
0.0
 10
9.841528
 20
8.746969
 30
0.0
 10
10.280640
 20
8.064352
 30
0.0
 10
10.713352
 20
7.307293
 30
0.0
 10
11.115007
 20
6.516440
 30
0.0
 10
11.460944
 20
5.732555
 30
0.0
 10
11.726511
 20
4.996342
 30
0.0
 10
11.929820
 20
4.260778
 30
0.0
 10
12.086639
 20
3.519882
 30
0.0
 10
12.196204
 20
2.787844
 30
0.0
 10
12.257755
 20
2.078796
 30
0.0
 10
12.270533
 20
1.406898
 30
0.0
 10
12.233777
 20
0.786255
 30
0.0
 10
12.146718
 20
0.231084
 30
0.0
 10
12.008592
 20
-0.244567
 30
0.0
 10
11.824778
 20
-0.594916
 30
0.0
 10
11.551372
 20
-0.929215
 30
0.0
 10
11.199026
 20
-1.241088
 30
0.0
 10
10.778383
 20
-1.524273
 30
0.0
 10
10.300081
 20
-1.772479
 30
0.0
 10
9.774783
 20
-1.979445
 30
0.0
 10
9.213115
 20
-2.138823
 30
0.0
 10
8.625730
 20
-2.244350
 30
0.0
 10
8.350029
 20
-2.285591
 30
0.0
 10
8.056362
 20
-2.340118
 30
0.0
 10
7.753760
 20
-2.405618
 30
0.0
 10
7.451265
 20
-2.479750
 30
0.0
 10
7.157902
 20
-2.560144
 30
0.0
 10
6.882711
 20
-2.644488
 30
0.0
 10
6.634725
 20
-2.730411
 30
0.0
 10
6.422981
 20
-2.815572
 30
0.0
 10
6.307458
 20
-2.866488
 30
0.0
 10
6.191937
 20
-2.917405
 30
0.0
 10
6.076415
 20
-2.968321
 30
0.0
 10
5.960889
 20
-3.019237
 30
0.0
 10
5.845368
 20
-3.070125
 30
0.0
 10
5.729845
 20
-3.121042
 30
0.0
 10
5.614323
 20
-3.171958
 30
0.0
 10
5.498801
 20
-3.222874
 30
0.0
 10
5.502919
 20
-3.685239
 30
0.0
 10
5.507066
 20
-4.147605
 30
0.0
 10
5.511212
 20
-4.609941
 30
0.0
 10
5.515331
 20
-5.072307
 30
0.0
 10
5.519477
 20
-5.534672
 30
0.0
 10
5.523624
 20
-5.997037
 30
0.0
 10
5.527742
 20
-6.459402
 30
0.0
 10
5.531889
 20
-6.921767
 30
0.0
 10
5.533299
 20
-7.688868
 30
0.0
 10
5.523765
 20
-8.406548
 30
0.0
 10
5.504273
 20
-9.060957
 30
0.0
 10
5.475723
 20
-9.638187
 30
0.0
 10
5.438868
 20
-10.124416
 30
0.0
 10
5.394595
 20
-10.505795
 30
0.0
 10
5.343763
 20
-10.768416
 30
0.0
 10
5.287217
 20
-10.898457
 30
0.0
 10
5.220729
 20
-10.952222
 30
0.0
 10
5.138047
 20
-10.998484
 30
0.0
 10
5.042449
 20
-11.036453
 30
0.0
 10
4.937231
 20
-11.065451
 30
0.0
 10
4.825677
 20
-11.084633
 30
0.0
 10
4.711061
 20
-11.093660
 30
0.0
 10
4.596681
 20
-11.090839
 30
0.0
 10
4.485836
 20
-11.076452
 30
0.0
 10
4.350546
 20
-11.036989
 30
0.0
 10
4.235785
 20
-10.971630
 30
0.0
 10
4.139919
 20
-10.877160
 30
0.0
 10
4.061321
 20
-10.750250
 30
0.0
 10
3.998363
 20
-10.587487
 30
0.0
 10
3.949416
 20
-10.385627
 30
0.0
 10
3.912851
 20
-10.141285
 30
0.0
 10
3.887041
 20
-9.851133
 30
0.0
 10
3.869044
 20
-9.611981
 30
0.0
 10
3.846674
 20
-9.363859
 30
0.0
 10
3.820807
 20
-9.113932
 30
0.0
 10
3.792320
 20
-8.869449
 30
0.0
 10
3.762123
 20
-8.637632
 30
0.0
 10
3.731096
 20
-8.425730
 30
0.0
 10
3.700134
 20
-8.240908
 30
0.0
 10
3.670124
 20
-8.090444
 30
0.0
 10
3.573196
 20
-7.810560
 30
0.0
 10
3.436701
 20
-7.613129
 30
0.0
 10
3.276829
 20
-7.497530
 30
0.0
 10
3.109740
 20
-7.463201
 30
0.0
 10
2.951623
 20
-7.509519
 30
0.0
 10
2.818654
 20
-7.635893
 30
0.0
 10
2.727009
 20
-7.841730
 30
0.0
 10
2.692866
 20
-8.126438
 30
0.0
 10
2.673825
 20
-8.378396
 30
0.0
 10
2.617553
 20
-8.609621
 30
0.0
 10
2.525280
 20
-8.818590
 30
0.0
 10
2.398263
 20
-9.003863
 30
0.0
 10
2.237731
 20
-9.163861
 30
0.0
 10
2.044912
 20
-9.297175
 30
0.0
 10
1.821064
 20
-9.402251
 30
0.0
 10
1.567424
 20
-9.477681
 30
0.0
 10
1.461668
 20
-9.485297
 30
0.0
 10
1.367906
 20
-9.457371
 30
0.0
 10
1.285170
 20
-9.392068
 30
0.0
 10
1.212581
 20
-9.287499
 30
0.0
 10
1.149126
 20
-9.142056
 30
0.0
 10
1.093877
 20
-8.953962
 30
0.0
 10
1.045889
 20
-8.721440
 30
0.0
 10
1.004222
 20
-8.442768
 30
0.0
 10
0.900437
 20
-7.888189
 30
0.0
 10
0.761234
 20
-7.513383
 30
0.0
 10
0.596150
 20
-7.315219
 30
0.0
 10
0.414710
 20
-7.290678
 30
0.0
 10
0.226444
 20
-7.436431
 30
0.0
 10
0.040877
 20
-7.749517
 30
0.0
 10
-0.132458
 20
-8.226719
 30
0.0
 10
-0.284033
 20
-8.864993
 30
0.0
 10
-0.438348
 20
-9.518893
 30
0.0
 10
-0.616332
 20
-10.015165
 30
0.0
 10
-0.811193
 20
-10.350818
 30
0.0
 10
-1.016143
 20
-10.522974
 30
0.0
 10
-1.224383
 20
-10.528616
 30
0.0
 10
-1.429120
 20
-10.364978
 30
0.0
 10
-1.623578
 20
-10.028987
 30
0.0
 10
-1.800916
 20
-9.517821
 30
0.0
 10
-1.860913
 20
-9.295369
 30
0.0
 10
-1.916949
 20
-9.075315
 30
0.0
 10
-1.967792
 20
-8.863328
 30
0.0
 10
-2.012209
 20
-8.665164
 30
0.0
 10
-2.048973
 20
-8.486491
 30
0.0
 10
-2.076843
 20
-8.333065
 30
0.0
 10
-2.094614
 20
-8.210556
 30
0.0
 10
-2.101018
 20
-8.124746
 30
0.0
 10
-2.109565
 20
-8.053999
 30
0.0
 10
-2.133457
 20
-7.974818
 30
0.0
 10
-2.171034
 20
-7.889826
 30
0.0
 10
-2.220642
 20
-7.801759
 30
0.0
 10
-2.280609
 20
-7.713212
 30
0.0
 10
-2.349269
 20
-7.626951
 30
0.0
 10
-2.424975
 20
-7.545569
 30
0.0
 10
-2.506049
 20
-7.471832
 30
0.0
 10
-2.619571
 20
-7.386558
 30
0.0
 10
-2.719849
 20
-7.332962
 30
0.0
 10
-2.810356
 20
-7.312370
 30
0.0
 10
-2.894584
 20
-7.326192
 30
0.0
 10
-2.975991
 20
-7.375585
 30
0.0
 10
-3.058061
 20
-7.461988
 30
0.0
 10
-3.144280
 20
-7.586697
 30
0.0
 10
-3.238104
 20
-7.751040
 30
0.0
 10
-3.301263
 20
-7.889261
 30
0.0
 10
-3.354684
 20
-8.047031
 30
0.0
 10
-3.397589
 20
-8.218793
 30
0.0
 10
-3.429194
 20
-8.399073
 30
0.0
 10
-3.448742
 20
-8.582315
 30
0.0
 10
-3.455428
 20
-8.763047
 30
0.0
 10
-3.448516
 20
-8.935739
 30
0.0
 10
-3.427191
 20
-9.094892
 30
0.0
 10
-3.393099
 20
-9.411560
 30
0.0
 10
-3.401646
 20
-9.749046
 30
0.0
 10
-3.447059
 20
-10.087858
 30
0.0
 10
-3.523611
 20
-10.408617
 30
0.0
 10
-3.625573
 20
-10.691858
 30
0.0
 10
-3.747202
 20
-10.918259
 30
0.0
 10
-3.882761
 20
-11.068300
 30
0.0
 10
-4.026512
 20
-11.122658
 30
0.0
 10
-4.085600
 20
-11.111657
 30
0.0
 10
-4.159678
 20
-11.080627
 30
0.0
 10
-4.245745
 20
-11.031545
 30
0.0
 10
-4.340890
 20
-10.966609
 30
0.0
 10
-4.442071
 20
-10.887963
 30
0.0
 10
-4.546335
 20
-10.797837
 30
0.0
 10
-4.650703
 20
-10.698346
 30
0.0
 10
-4.752206
 20
-10.591746
 30
0.0
 10
-4.752195
 20
-10.591633
 30
0.0
 10
-4.752198
 20
-10.591633
 30
0.0
  0
LWPOLYLINE
  5
102
100
AcDbEntity
  8
black
 62
7
100
AcDbPolyline
 90
73
 70
0
 10
2.352741
 20
-4.206024
 30
0.0
 10
2.341261
 20
-3.627243
 30
0.0
 10
2.255173
 20
-2.975345
 30
0.0
 10
2.109612
 20
-2.296593
 30
0.0
 10
1.919696
 20
-1.637360
 30
0.0
 10
1.700558
 20
-1.043967
 30
0.0
 10
1.467339
 20
-0.562759
 30
0.0
 10
1.235152
 20
-0.240025
 30
0.0
 10
1.019146
 20
-0.122170
 30
0.0
 10
0.967327
 20
-0.149533
 30
0.0
 10
0.910788
 20
-0.227896
 30
0.0
 10
0.851357
 20
-0.351816
 30
0.0
 10
0.790852
 20
-0.515763
 30
0.0
 10
0.731098
 20
-0.714266
 30
0.0
 10
0.673916
 20
-0.941824
 30
0.0
 10
0.621138
 20
-1.192908
 30
0.0
 10
0.574577
 20
-1.462073
 30
0.0
 10
0.515940
 20
-1.819164
 30
0.0
 10
0.462401
 20
-2.095015
 30
0.0
 10
0.412015
 20
-2.293066
 30
0.0
 10
0.362836
 20
-2.416789
 30
0.0
 10
0.312916
 20
-2.469652
 30
0.0
 10
0.260309
 20
-2.454983
 30
0.0
 10
0.203068
 20
-2.376535
 30
0.0
 10
0.139247
 20
-2.237665
 30
0.0
 10
0.093118
 20
-2.105621
 30
0.0
 10
0.049301
 20
-1.946271
 30
0.0
 10
0.008814
 20
-1.765681
 30
0.0
 10
-0.027332
 20
-1.569914
 30
0.0
 10
-0.058122
 20
-1.365064
 30
0.0
 10
-0.082523
 20
-1.157196
 30
0.0
 10
-0.099560
 20
-0.952402
 30
0.0
 10
-0.108192
 20
-0.756720
 30
0.0
 10
-0.119335
 20
-0.543069
 30
0.0
 10
-0.142860
 20
-0.357401
 30
0.0
 10
-0.178700
 20
-0.199885
 30
0.0
 10
-0.226789
 20
-0.070718
 30
0.0
 10
-0.287059
 20
0.030014
 30
0.0
 10
-0.359431
 20
0.102172
 30
0.0
 10
-0.443844
 20
0.145556
 30
0.0
 10
-0.540230
 20
0.159943
 30
0.0
 10
-0.852526
 20
-0.048095
 30
0.0
 10
-1.150080
 20
-0.602561
 30
0.0
 10
-1.413720
 20
-1.398999
 30
0.0
 10
-1.624276
 20
-2.332981
 30
0.0
 10
-1.762577
 20
-3.299996
 30
0.0
 10
-1.809454
 20
-4.195615
 30
0.0
 10
-1.745739
 20
-4.915383
 30
0.0
 10
-1.552263
 20
-5.354814
 30
0.0
 10
-1.462108
 20
-5.408636
 30
0.0
 10
-1.307893
 20
-5.458876
 30
0.0
 10
-1.098010
 20
-5.504376
 30
0.0
 10
-0.840845
 20
-5.544065
 30
0.0
 10
-0.544791
 20
-5.576872
 30
0.0
 10
-0.218230
 20
-5.601695
 30
0.0
 10
0.130446
 20
-5.617492
 30
0.0
 10
0.492851
 20
-5.622851
 30
0.0
 10
0.714957
 20
-5.622851
 30
0.0
 10
0.937062
 20
-5.622851
 30
0.0
 10
1.159167
 20
-5.622851
 30
0.0
 10
1.381272
 20
-5.622851
 30
0.0
 10
1.603377
 20
-5.622851
 30
0.0
 10
1.825480
 20
-5.622851
 30
0.0
 10
2.047585
 20
-5.622851
 30
0.0
 10
2.269689
 20
-5.622851
 30
0.0
 10
2.280070
 20
-5.445759
 30
0.0
 10
2.290451
 20
-5.268666
 30
0.0
 10
2.300831
 20
-5.091573
 30
0.0
 10
2.311212
 20
-4.914452
 30
0.0
 10
2.321593
 20
-4.737359
 30
0.0
 10
2.331974
 20
-4.560266
 30
0.0
 10
2.342355
 20
-4.383174
 30
0.0
 10
2.352741
 20
-4.206024
 30
0.0
  0
LWPOLYLINE
  5
103
100
AcDbEntity
  8
black
 62
7
100
AcDbPolyline
 90
34
 70
0
 10
-2.447462
 20
-0.247219
 30
0.0
 10
-1.972882
 20
0.298249
 30
0.0
 10
-1.803203
 20
1.001768
 30
0.0
 10
-1.906384
 20
1.803876
 30
0.0
 10
-2.250375
 20
2.645194
 30
0.0
 10
-2.803134
 20
3.466314
 30
0.0
 10
-3.532616
 20
4.207831
 30
0.0
 10
-4.406774
 20
4.810335
 30
0.0
 10
-5.393566
 20
5.214422
 30
0.0
 10
-5.870504
 20
5.308695
 30
0.0
 10
-6.340595
 20
5.327030
 30
0.0
 10
-6.802323
 20
5.269852
 30
0.0
 10
-7.254169
 20
5.137779
 30
0.0
 10
-7.694619
 20
4.931406
 30
0.0
 10
-8.122158
 20
4.651296
 30
0.0
 10
-8.535271
 20
4.298041
 30
0.0
 10
-8.932438
 20
3.872206
 30
0.0
 10
-9.407612
 20
3.205527
 30
0.0
 10
-9.726061
 20
2.536563
 30
0.0
 10
-9.890003
 20
1.885652
 30
0.0
 10
-9.901653
 20
1.273246
 30
0.0
 10
-9.763231
 20
0.719712
 30
0.0
 10
-9.476957
 20
0.245442
 30
0.0
 10
-9.045042
 20
-0.129166
 30
0.0
 10
-8.469709
 20
-0.383719
 30
0.0
 10
-7.803303
 20
-0.524790
 30
0.0
 10
-6.986194
 20
-0.617822
 30
0.0
 10
-6.081393
 20
-0.664253
 30
0.0
 10
-5.151913
 20
-0.664253
 30
0.0
 10
-4.260767
 20
-0.621714
 30
0.0
 10
-3.470969
 20
-0.536863
 30
0.0
 10
-2.845531
 20
-0.411110
 30
0.0
 10
-2.447462
 20
-0.245893
 30
0.0
 10
-2.447462
 20
-0.245893
 30
0.0
  0
LWPOLYLINE
  5
104
100
AcDbEntity
  8
black
 62
7
100
AcDbPolyline
 90
34
 70
0
 10
9.602929
 20
-0.281802
 30
0.0
 10
10.161896
 20
0.057489
 30
0.0
 10
10.546742
 20
0.517823
 30
0.0
 10
10.759165
 20
1.073418
 30
0.0
 10
10.800886
 20
1.698433
 30
0.0
 10
10.673601
 20
2.367115
 30
0.0
 10
10.379019
 20
3.053653
 30
0.0
 10
9.918844
 20
3.732236
 30
0.0
 10
9.294785
 20
4.377081
 30
0.0
 10
8.590261
 20
4.864919
 30
0.0
 10
7.831625
 20
5.154479
 30
0.0
 10
7.040141
 20
5.250698
 30
0.0
 10
6.237071
 20
5.158428
 30
0.0
 10
5.443679
 20
4.882606
 30
0.0
 10
4.681235
 20
4.428139
 30
0.0
 10
3.970999
 20
3.799936
 30
0.0
 10
3.334234
 20
3.002849
 30
0.0
 10
3.071059
 20
2.537494
 30
0.0
 10
2.875768
 20
2.037696
 30
0.0
 10
2.749378
 20
1.526728
 30
0.0
 10
2.692904
 20
1.027861
 30
0.0
 10
2.707347
 20
0.564311
 30
0.0
 10
2.793755
 20
0.159378
 30
0.0
 10
2.953121
 20
-0.163693
 30
0.0
 10
3.186467
 20
-0.381660
 30
0.0
 10
3.633569
 20
-0.523436
 30
0.0
 10
4.350338
 20
-0.618499
 30
0.0
 10
5.252657
 20
-0.668202
 30
0.0
 10
6.256387
 20
-0.673844
 30
0.0
 10
7.277410
 20
-0.636721
 30
0.0
 10
8.231590
 20
-0.558132
 30
0.0
 10
9.034801
 20
-0.439403
 30
0.0
 10
9.602917
 20
-0.281830
 30
0.0
 10
9.602929
 20
-0.281802
 30
0.0
  0
LWPOLYLINE
  5
105
100
AcDbEntity
  8
blue
 62
7
100
AcDbPolyline
 90
79
 70
0
 10
-2.184627
 20
-9.714124
 30
0.0
 10
-2.819403
 20
-9.440079
 30
0.0
 10
-3.414418
 20
-9.095681
 30
0.0
 10
-3.967508
 20
-8.686094
 30
0.0
 10
-4.476501
 20
-8.216480
 30
0.0
 10
-4.939236
 20
-7.691999
 30
0.0
 10
-5.353545
 20
-7.117844
 30
0.0
 10
-5.717260
 20
-6.499119
 30
0.0
 10
-6.028210
 20
-5.841044
 30
0.0
 10
-6.284234
 20
-5.148752
 30
0.0
 10
-6.483161
 20
-4.427376
 30
0.0
 10
-6.622830
 20
-3.682136
 30
0.0
 10
-6.701067
 20
-2.918166
 30
0.0
 10
-6.715708
 20
-2.140600
 30
0.0
 10
-6.664585
 20
-1.354627
 30
0.0
 10
-6.356380
 20
0.221860
 30
0.0
 10
-5.929044
 20
1.489182
 30
0.0
 10
-5.363573
 20
2.805474
 30
0.0
 10
-4.670819
 20
4.153558
 30
0.0
 10
-3.861635
 20
5.516337
 30
0.0
 10
-2.946886
 20
6.876578
 30
0.0
 10
-1.937426
 20
8.217214
 30
0.0
 10
-0.835213
 20
9.513788
 30
0.0
 10
0.322200
 20
10.770927
 30
0.0
 10
0.701203
 20
11.155635
 30
0.0
 10
1.080207
 20
11.540314
 30
0.0
 10
1.459211
 20
11.925021
 30
0.0
 10
1.838217
 20
12.309728
 30
0.0
 10
1.876521
 20
11.678197
 30
0.0
 10
1.914823
 20
11.046665
 30
0.0
 10
1.953127
 20
10.415162
 30
0.0
 10
1.970841
 20
10.099284
 30
0.0
 10
1.991405
 20
9.783631
 30
0.0
 10
2.064234
 20
8.863724
 30
0.0
 10
2.163176
 20
8.011603
 30
0.0
 10
2.314229
 20
7.300100
 30
0.0
 10
2.537536
 20
6.633393
 30
0.0
 10
2.854707
 20
5.957800
 30
0.0
 10
3.287354
 20
5.219669
 30
0.0
 10
3.857080
 20
4.365347
 30
0.0
 10
4.585496
 20
3.341125
 30
0.0
 10
5.334224
 20
2.277525
 30
0.0
 10
5.946273
 20
1.339734
 30
0.0
 10
6.432858
 20
0.501914
 30
0.0
 10
6.805187
 20
-0.261802
 30
0.0
 10
7.074466
 20
-0.977226
 30
0.0
 10
7.251903
 20
-1.670195
 30
0.0
 10
7.348717
 20
-2.366606
 30
0.0
 10
7.376107
 20
-3.092213
 30
0.0
 10
7.289747
 20
-4.209522
 30
0.0
 10
7.047789
 20
-5.270951
 30
0.0
 10
6.659565
 20
-6.262930
 30
0.0
 10
6.134405
 20
-7.171835
 30
0.0
 10
5.481627
 20
-7.984014
 30
0.0
 10
4.710570
 20
-8.685841
 30
0.0
 10
3.830564
 20
-9.263663
 30
0.0
 10
2.850933
 20
-9.703884
 30
0.0
 10
1.706302
 20
-9.957027
 30
0.0
 10
0.321157
 20
-10.043881
 30
0.0
 10
-0.384580
 20
-10.024699
 30
0.0
 10
-1.057998
 20
-9.963290
 30
0.0
 10
-1.668303
 20
-9.859708
 30
0.0
 10
-2.184653
 20
-9.714039
 30
0.0
 10
-2.184653
 20
-9.714039
 30
0.0
 10
-2.184653
 20
-9.714068
 30
0.0
 10
-2.184653
 20
-9.714068
 30
0.0
 10
-2.184653
 20
-9.714068
 30
0.0
 10
-2.184653
 20
-9.714068
 30
0.0
 10
-2.184653
 20
-9.714096
 30
0.0
 10
-2.184653
 20
-9.714096
 30
0.0
 10
-2.184653
 20
-9.714096
 30
0.0
 10
-2.184653
 20
-9.714096
 30
0.0
 10
-2.184653
 20
-9.714096
 30
0.0
 10
-2.184653
 20
-9.714096
 30
0.0
 10
-2.184653
 20
-9.714096
 30
0.0
 10
-2.184653
 20
-9.714096
 30
0.0
 10
-2.184653
 20
-9.714124
 30
0.0
 10
-2.184653
 20
-9.714124
 30
0.0
 10
-2.184627
 20
-9.714124
 30
0.0
  0
LWPOLYLINE
  5
106
100
AcDbEntity
  8
blue
 62
7
100
AcDbPolyline
 90
26
 70
0
 10
5.646362
 20
-3.884786
 30
0.0
 10
5.876010
 20
-3.587751
 30
0.0
 10
6.054219
 20
-3.219941
 30
0.0
 10
6.169541
 20
-2.811623
 30
0.0
 10
6.210531
 20
-2.393094
 30
0.0
 10
6.036194
 20
-1.448053
 30
0.0
 10
5.846585
 20
-0.887579
 30
0.0
 10
5.613849
 20
-0.324341
 30
0.0
 10
5.356864
 20
0.199745
 30
0.0
 10
5.094490
 20
0.642787
 30
0.0
 10
4.845616
 20
0.962869
 30
0.0
 10
4.629110
 20
1.118100
 30
0.0
 10
4.485811
 20
1.007100
 30
0.0
 10
4.302961
 20
0.645185
 30
0.0
 10
4.098661
 20
0.095938
 30
0.0
 10
3.891010
 20
-0.577117
 30
0.0
 10
3.698112
 20
-1.310396
 30
0.0
 10
3.538068
 20
-2.040347
 30
0.0
 10
3.428977
 20
-2.703415
 30
0.0
 10
3.388947
 20
-3.236076
 30
0.0
 10
3.500808
 20
-3.678864
 30
0.0
 10
3.798466
 20
-4.060327
 30
0.0
 10
4.226476
 20
-4.330734
 30
0.0
 10
4.729585
 20
-4.440380
 30
0.0
 10
5.144338
 20
-4.280749
 30
0.0
 10
5.646362
 20
-3.884786
 30
0.0
  0
LWPOLYLINE
  5
107
100
AcDbEntity
  8
green
 62
7
100
AcDbPolyline
 90
165
 70
0
 10
-0.686343
 20
-11.082856
 30
0.0
 10
-0.841030
 20
-10.888922
 30
0.0
 10
-0.995717
 20
-10.694989
 30
0.0
 10
-1.150403
 20
-10.501056
 30
0.0
 10
-1.305091
 20
-10.307123
 30
0.0
 10
-1.422497
 20
-10.470168
 30
0.0
 10
-1.539904
 20
-10.633184
 30
0.0
 10
-1.657313
 20
-10.796229
 30
0.0
 10
-1.774719
 20
-10.959274
 30
0.0
 10
-1.892126
 20
-11.122319
 30
0.0
 10
-2.009536
 20
-11.285364
 30
0.0
 10
-2.126941
 20
-11.448381
 30
0.0
 10
-2.244348
 20
-11.611426
 30
0.0
 10
-2.402188
 20
-11.413487
 30
0.0
 10
-2.560029
 20
-11.215520
 30
0.0
 10
-2.717868
 20
-11.017581
 30
0.0
 10
-2.875708
 20
-10.819642
 30
0.0
 10
-3.266581
 20
-10.405034
 30
0.0
 10
-3.715335
 20
-10.142667
 30
0.0
 10
-4.349837
 20
-9.982725
 30
0.0
 10
-5.297949
 20
-9.875364
 30
0.0
 10
-5.745669
 20
-9.837254
 30
0.0
 10
-6.193391
 20
-9.799144
 30
0.0
 10
-6.641111
 20
-9.761035
 30
0.0
 10
-7.088830
 20
-9.722925
 30
0.0
 10
-6.842006
 20
-9.605945
 30
0.0
 10
-6.595181
 20
-9.488936
 30
0.0
 10
-6.348357
 20
-9.371955
 30
0.0
 10
-6.101533
 20
-9.254975
 30
0.0
 10
-5.634547
 20
-9.059885
 30
0.0
 10
-5.092894
 20
-8.874583
 30
0.0
 10
-4.543746
 20
-8.720029
 30
0.0
 10
-4.054283
 20
-8.617125
 30
0.0
 10
-3.125581
 20
-8.313714
 30
0.0
 10
-2.524642
 20
-7.747486
 30
0.0
 10
-2.244944
 20
-6.908058
 30
0.0
 10
-2.279959
 20
-5.785022
 30
0.0
 10
-2.661018
 20
-4.621535
 30
0.0
 10
-3.377920
 20
-3.593562
 30
0.0
 10
-4.328560
 20
-2.811933
 30
0.0
 10
-5.410826
 20
-2.387424
 30
0.0
 10
-5.956056
 20
-2.318454
 30
0.0
 10
-6.375688
 20
-2.368299
 30
0.0
 10
-6.756689
 20
-2.563586
 30
0.0
 10
-7.186019
 20
-2.930917
 30
0.0
 10
-8.491220
 20
-3.851585
 30
0.0
 10
-9.764082
 20
-4.124586
 30
0.0
 10
-10.940108
 20
-3.752545
 30
0.0
 10
-11.954791
 20
-2.738083
 30
0.0
 10
-12.390805
 20
-1.948697
 30
0.0
 10
-12.558958
 20
-1.214544
 30
0.0
 10
-12.461859
 20
-0.481687
 30
0.0
 10
-12.102116
 20
0.303834
 30
0.0
 10
-11.871797
 20
0.740586
 30
0.0
 10
-11.775546
 20
1.076690
 30
0.0
 10
-11.807318
 20
1.371271
 30
0.0
 10
-11.961074
 20
1.683426
 30
0.0
 10
-12.285175
 20
2.489963
 30
0.0
 10
-12.288137
 20
3.322620
 30
0.0
 10
-11.977451
 20
4.141202
 30
0.0
 10
-11.360611
 20
4.905511
 30
0.0
 10
-10.564517
 20
5.739099
 30
0.0
 10
-10.078093
 20
6.501434
 30
0.0
 10
-9.834933
 20
7.338041
 30
0.0
 10
-9.768635
 20
8.394476
 30
0.0
 10
-9.736982
 20
9.123101
 30
0.0
 10
-9.620301
 20
9.664450
 30
0.0
 10
-9.385995
 20
10.110257
 30
0.0
 10
-9.001481
 20
10.552142
 30
0.0
 10
-8.567433
 20
10.937301
 30
0.0
 10
-8.165048
 20
11.153745
 30
0.0
 10
-7.704858
 20
11.232023
 30
0.0
 10
-7.097409
 20
11.202771
 30
0.0
 10
-6.618448
 20
11.140769
 30
0.0
 10
-6.154794
 20
11.058118
 30
0.0
 10
-5.759351
 20
10.965594
 30
0.0
 10
-5.485028
 20
10.874001
 30
0.0
 10
-5.222721
 20
10.829545
 30
0.0
 10
-4.956371
 20
10.953972
 30
0.0
 10
-4.654876
 20
11.271430
 30
0.0
 10
-4.287133
 20
11.806178
 30
0.0
 10
-3.612623
 20
12.716861
 30
0.0
 10
-2.884934
 20
13.363315
 30
0.0
 10
-2.049513
 20
13.782775
 30
0.0
 10
-1.051793
 20
14.012420
 30
0.0
 10
-0.045915
 20
14.075522
 30
0.0
 10
0.805797
 20
13.951800
 30
0.0
 10
1.584935
 20
13.618404
 30
0.0
 10
2.373094
 20
13.052429
 30
0.0
 10
2.893848
 20
12.668935
 30
0.0
 10
3.415144
 20
12.434889
 30
0.0
 10
4.050381
 20
12.315652
 30
0.0
 10
4.912966
 20
12.276583
 30
0.0
 10
6.167069
 20
12.152776
 30
0.0
 10
7.153627
 20
11.783894
 30
0.0
 10
7.942355
 20
11.129739
 30
0.0
 10
8.602975
 20
10.150143
 30
0.0
 10
8.862177
 20
9.729470
 30
0.0
 10
9.186140
 20
9.295878
 30
0.0
 10
9.533525
 20
8.900480
 30
0.0
 10
9.862980
 20
8.594277
 30
0.0
 10
10.158258
 20
8.304209
 30
0.0
 10
10.412575
 20
7.952675
 30
0.0
 10
10.598804
 20
7.584047
 30
0.0
 10
10.689813
 20
7.242668
 30
0.0
 10
10.790923
 20
6.879314
 30
0.0
 10
11.004659
 20
6.450799
 30
0.0
 10
11.299686
 20
6.010662
 30
0.0
 10
11.644675
 20
5.612387
 30
0.0
 10
12.273990
 20
4.866470
 30
0.0
 10
12.642720
 20
4.105970
 30
0.0
 10
12.779203
 20
3.239659
 30
0.0
 10
12.711782
 20
2.176256
 30
0.0
 10
12.671684
 20
1.618828
 30
0.0
 10
12.704615
 20
1.096492
 30
0.0
 10
12.809804
 20
0.614917
 30
0.0
 10
12.986474
 20
0.179604
 30
0.0
 10
13.219358
 20
-0.570770
 30
0.0
 10
13.140673
 20
-1.266729
 30
0.0
 10
12.766704
 20
-1.861815
 30
0.0
 10
12.113744
 20
-2.309568
 30
0.0
 10
11.723437
 20
-2.444405
 30
0.0
 10
11.358571
 20
-2.450047
 30
0.0
 10
10.943097
 20
-2.313913
 30
0.0
 10
10.400955
 20
-2.023224
 30
0.0
 10
9.410807
 20
-1.608362
 30
0.0
 10
8.267297
 20
-1.442158
 30
0.0
 10
6.968960
 20
-1.524611
 30
0.0
 10
5.514324
 20
-1.855666
 30
0.0
 10
4.411659
 20
-2.298313
 30
0.0
 10
3.680376
 20
-2.929422
 30
0.0
 10
3.221250
 20
-3.880809
 30
0.0
 10
2.935055
 20
-5.284434
 30
0.0
 10
2.905343
 20
-7.096434
 30
0.0
 10
3.417082
 20
-8.352304
 30
0.0
 10
4.495099
 20
-9.083044
 30
0.0
 10
6.164234
 20
-9.319741
 30
0.0
 10
6.841723
 20
-9.356751
 30
0.0
 10
7.185488
 20
-9.501686
 30
0.0
 10
7.240774
 20
-9.805379
 30
0.0
 10
7.052824
 20
-10.318745
 30
0.0
 10
6.842082
 20
-10.670363
 30
0.0
 10
6.561302
 20
-10.880488
 30
0.0
 10
6.134615
 20
-10.982546
 30
0.0
 10
5.486153
 20
-11.009909
 30
0.0
 10
4.953727
 20
-11.042546
 30
0.0
 10
4.459700
 20
-11.132785
 30
0.0
 10
4.049030
 20
-11.268975
 30
0.0
 10
3.766657
 20
-11.439552
 30
0.0
 10
3.492240
 20
-11.651285
 30
0.0
 10
3.253475
 20
-11.704486
 30
0.0
 10
2.972541
 20
-11.589960
 30
0.0
 10
2.571614
 20
-11.298510
 30
0.0
 10
1.940946
 20
-10.893408
 30
0.0
 10
1.412054
 20
-10.757668
 30
0.0
 10
0.970797
 20
-10.891320
 30
0.0
 10
0.603038
 20
-11.294278
 30
0.0
 10
0.313080
 20
-11.699521
 30
0.0
 10
0.064391
 20
-11.809675
 30
0.0
 10
-0.237322
 20
-11.609226
 30
0.0
 10
-0.686344
 20
-11.082715
 30
0.0
 10
-0.686344
 20
-11.082687
 30
0.0
 10
-0.686344
 20
-11.082687
 30
0.0
 10
-0.686344
 20
-11.082658
 30
0.0
 10
-0.686344
 20
-11.082856
 30
0.0
  0
LWPOLYLINE
  5
108
100
AcDbEntity
  8
green
 62
7
100
AcDbPolyline
 90
17
 70
0
 10
-2.281121
 20
-0.881007
 30
0.0
 10
-2.750366
 20
-0.288572
 30
0.0
 10
-3.422546
 20
0.186966
 30
0.0
 10
-4.167977
 20
0.475652
 30
0.0
 10
-4.856986
 20
0.507584
 30
0.0
 10
-5.235975
 20
0.334356
 30
0.0
 10
-5.455243
 20
0.064457
 30
0.0
 10
-5.463197
 20
-0.184370
 30
0.0
 10
-5.208260
 20
-0.294327
 30
0.0
 10
-4.963541
 20
-0.359996
 30
0.0
 10
-4.575257
 20
-0.538669
 30
0.0
 10
-4.096787
 20
-0.802897
 30
0.0
 10
-3.581508
 20
-1.125236
 30
0.0
 10
-2.686494
 20
-1.649716
 30
0.0
 10
-2.171269
 20
-1.783819
 30
0.0
 10
-2.036065
 20
-1.527545
 30
0.0
 10
-2.281121
 20
-0.881007
 30
0.0
  0
LWPOLYLINE
  5
109
100
AcDbEntity
  8
green
 62
7
100
AcDbPolyline
 90
13
 70
0
 10
5.352262
 20
-0.157995
 30
0.0
 10
5.914076
 20
0.166205
 30
0.0
 10
6.150206
 20
0.488853
 30
0.0
 10
6.043900
 20
0.736355
 30
0.0
 10
5.578413
 20
0.835197
 30
0.0
 10
5.076058
 20
0.700953
 30
0.0
 10
4.479356
 20
0.380448
 30
0.0
 10
3.980436
 20
-0.002849
 30
0.0
 10
3.771433
 20
-0.325554
 30
0.0
 10
3.857684
 20
-0.516920
 30
0.0
 10
4.133174
 20
-0.554550
 30
0.0
 10
4.622997
 20
-0.435792
 30
0.0
 10
5.352262
 20
-0.157995
 30
0.0
  0
LWPOLYLINE
  5
10a
100
AcDbEntity
  8
green
 62
7
100
AcDbPolyline
 90
17
 70
0
 10
4.202902
 20
3.390095
 30
0.0
 10
4.406982
 20
3.826339
 30
0.0
 10
4.469430
 20
4.127747
 30
0.0
 10
4.387447
 20
4.372653
 30
0.0
 10
4.158229
 20
4.639392
 30
0.0
 10
3.644857
 20
4.986497
 30
0.0
 10
3.198858
 20
4.978317
 30
0.0
 10
2.866424
 20
4.635697
 30
0.0
 10
2.693740
 20
3.979483
 30
0.0
 10
2.670497
 20
3.583097
 30
0.0
 10
2.674022
 20
3.199660
 30
0.0
 10
2.702375
 20
2.872921
 30
0.0
 10
2.753579
 20
2.646633
 30
0.0
 10
3.004679
 20
2.393433
 30
0.0
 10
3.380648
 20
2.458933
 30
0.0
 10
3.805408
 20
2.804149
 30
0.0
 10
4.202902
 20
3.390067
 30
0.0
  0
LWPOLYLINE
  5
10b
100
AcDbEntity
  8
green
 62
7
100
AcDbPolyline
 90
13
 70
0
 10
-3.062406
 20
2.860171
 30
0.0
 10
-3.314798
 20
3.270435
 30
0.0
 10
-3.696340
 20
3.516300
 30
0.0
 10
-4.126144
 20
3.568119
 30
0.0
 10
-4.523317
 20
3.396160
 30
0.0
 10
-4.683386
 20
3.233482
 30
0.0
 10
-4.791246
 20
3.062651
 30
0.0
 10
-4.837413
 20
2.904007
 30
0.0
 10
-4.812392
 20
2.777830
 30
0.0
 10
-4.420074
 20
2.573037
 30
0.0
 10
-3.799160
 20
2.527847
 30
0.0
 10
-3.247362
 20
2.628212
 30
0.0
 10
-3.062406
 20
2.860171
 30
0.0
  0
LWPOLYLINE
  5
10c
100
AcDbEntity
  8
green
 62
7
100
AcDbPolyline
 90
13
 70
0
 10
-0.311159
 20
4.232569
 30
0.0
 10
-0.288057
 20
4.540521
 30
0.0
 10
-0.458586
 20
4.909291
 30
0.0
 10
-0.742250
 20
5.218710
 30
0.0
 10
-1.058548
 20
5.348553
 30
0.0
 10
-1.228538
 20
5.196340
 30
0.0
 10
-1.300038
 20
4.840744
 30
0.0
 10
-1.265663
 20
4.433470
 30
0.0
 10
-1.118037
 20
4.126195
 30
0.0
 10
-0.905876
 20
3.980047
 30
0.0
 10
-0.690149
 20
3.950456
 30
0.0
 10
-0.486644
 20
4.035336
 30
0.0
 10
-0.311159
 20
4.232569
 30
0.0
  0
LWPOLYLINE
  5
10d
100
AcDbEntity
  8
phyrexian
 62
7
100
AcDbPolyline
 90
51
 70
0
 10
8.136896
 20
1.153386
 30
0.0
 10
7.794352
 20
3.382687
 30
0.0
 10
6.734675
 20
5.367669
 30
0.0
 10
6.090769
 20
6.148691
 30
0.0
 10
5.426746
 20
6.909336
 30
0.0
 10
3.546367
 20
7.947321
 30
0.0
 10
1.503804
 20
8.693545
 30
0.0
 10
1.335444
 20
9.692555
 30
0.0
 10
1.333186
 20
10.696222
 30
0.0
 10
1.390599
 20
11.031361
 30
0.0
 10
1.324999
 20
11.359106
 30
0.0
 10
1.168460
 20
12.553244
 30
0.0
 10
1.218569
 20
13.771965
 30
0.0
 10
1.143617
 20
14.429034
 30
0.0
 10
0.801884
 20
14.965844
 30
0.0
 10
0.527021
 20
13.690092
 30
0.0
 10
0.126605
 20
12.448230
 30
0.0
 10
-0.013456
 20
11.469426
 30
0.0
 10
-0.272296
 20
10.518366
 30
0.0
 10
-0.339804
 20
9.660664
 30
0.0
 10
-0.824206
 20
8.924488
 30
0.0
 10
-2.146463
 20
8.419423
 30
0.0
 10
-3.386992
 20
7.764470
 30
0.0
 10
-4.194780
 20
7.140279
 30
0.0
 10
-5.048935
 20
6.577923
 30
0.0
 10
-5.696406
 20
5.751012
 30
0.0
 10
-6.162637
 20
4.816348
 30
0.0
 10
-6.946181
 20
3.222978
 30
0.0
 10
-7.476497
 20
1.508534
 30
0.0
 10
-7.187098
 20
-0.969320
 30
0.0
 10
-6.107306
 20
-3.203476
 30
0.0
 10
-5.097883
 20
-4.236522
 30
0.0
 10
-4.089092
 20
-5.269371
 30
0.0
 10
-2.986188
 20
-5.868331
 30
0.0
 10
-1.865922
 20
-6.434469
 30
0.0
 10
-1.134464
 20
-6.577358
 30
0.0
 10
-0.404699
 20
-6.733992
 30
0.0
 10
0.166795
 20
-9.755660
 30
0.0
 10
1.032810
 20
-12.700000
 30
0.0
 10
1.271887
 20
-11.498608
 30
0.0
 10
1.484501
 20
-10.291092
 30
0.0
 10
1.482526
 20
-8.518793
 30
0.0
 10
1.517461
 20
-6.762242
 30
0.0
 10
2.528262
 20
-6.440706
 30
0.0
 10
3.583950
 20
-6.171099
 30
0.0
 10
5.310717
 20
-5.064845
 30
0.0
 10
6.799713
 20
-3.675493
 30
0.0
 10
7.400285
 20
-2.799362
 30
0.0
 10
7.766898
 20
-1.829477
 30
0.0
 10
8.038407
 20
-0.342477
 30
0.0
 10
8.136896
 20
1.153386
 30
0.0
  0
LWPOLYLINE
  5
10e
100
AcDbEntity
  8
phyrexian
 62
7
100
AcDbPolyline
 90
25
 70
0
 10
-0.437624
 20
-5.038175
 30
0.0
 10
-1.647626
 20
-4.598811
 30
0.0
 10
-2.756214
 20
-3.945354
 30
0.0
 10
-3.651269
 20
-2.971038
 30
0.0
 10
-4.538701
 20
-1.987860
 30
0.0
 10
-5.109809
 20
-0.567069
 30
0.0
 10
-5.371790
 20
0.969320
 30
0.0
 10
-5.194925
 20
2.000250
 30
0.0
 10
-5.050242
 20
3.037501
 30
0.0
 10
-4.471687
 20
3.823603
 30
0.0
 10
-4.039017
 20
4.694372
 30
0.0
 10
-3.146113
 20
5.644811
 30
0.0
 10
-2.170426
 20
6.523736
 30
0.0
 10
-1.356073
 20
6.865987
 30
0.0
 10
-0.437341
 20
6.839740
 30
0.0
 10
-0.492956
 20
5.983930
 30
0.0
 10
-0.399512
 20
5.134300
 30
0.0
 10
-0.268626
 20
4.621248
 30
0.0
 10
-0.228998
 20
4.096540
 30
0.0
 10
-0.213642
 20
2.953314
 30
0.0
 10
-0.262021
 20
1.816636
 30
0.0
 10
-0.391459
 20
-0.554313
 30
0.0
 10
-0.186362
 20
-2.935168
 30
0.0
 10
-0.273773
 20
-3.990538
 30
0.0
 10
-0.437624
 20
-5.038175
 30
0.0
  0
LWPOLYLINE
  5
10f
100
AcDbEntity
  8
phyrexian
 62
7
100
AcDbPolyline
 90
21
 70
0
 10
5.907798
 20
-2.054211
 30
0.0
 10
5.126159
 20
-2.700415
 30
0.0
 10
4.397453
 20
-3.405011
 30
0.0
 10
3.120789
 20
-4.258056
 30
0.0
 10
1.724286
 20
-4.892802
 30
0.0
 10
1.818718
 20
-3.813415
 30
0.0
 10
1.675164
 20
-2.745288
 30
0.0
 10
1.542798
 20
-0.337933
 30
0.0
 10
1.916255
 20
2.082744
 30
0.0
 10
1.821188
 20
3.529274
 30
0.0
 10
1.475855
 20
4.919670
 30
0.0
 10
1.592344
 20
5.888821
 30
0.0
 10
1.895364
 20
6.829185
 30
0.0
 10
2.853904
 20
6.362700
 30
0.0
 10
3.729232
 20
5.750758
 30
0.0
 10
4.838454
 20
5.037215
 30
0.0
 10
5.560841
 20
4.000754
 30
0.0
 10
5.958438
 20
3.204662
 30
0.0
 10
6.284677
 20
2.397788
 30
0.0
 10
6.283266
 20
0.146614
 30
0.0
 10
5.907798
 20
-2.054211
 30
0.0
  0
LWPOLYLINE
  5
110
100
AcDbEntity
  8
plainswalker
 62
7
100
AcDbPolyline
 90
116
 70
0
 10
0.137861
 20
-11.403556
 30
0.0
 10
0.093952
 20
-11.127627
 30
0.0
 10
0.075690
 20
-10.691848
 30
0.0
 10
0.030726
 20
-9.940064
 30
0.0
 10
-0.082833
 20
-8.925306
 30
0.0
 10
-0.155333
 20
-8.396817
 30
0.0
 10
-0.232981
 20
-7.895646
 30
0.0
 10
-0.311778
 20
-7.452783
 30
0.0
 10
-0.387719
 20
-7.099215
 30
0.0
 10
-0.514503
 20
-6.616474
 30
0.0
 10
-0.656070
 20
-6.141043
 30
0.0
 10
-0.811133
 20
-5.676279
 30
0.0
 10
-0.978401
 20
-5.225457
 30
0.0
 10
-1.156584
 20
-4.791879
 30
0.0
 10
-1.344394
 20
-4.378819
 30
0.0
 10
-1.540541
 20
-3.989606
 30
0.0
 10
-1.743735
 20
-3.627572
 30
0.0
 10
-2.153760
 20
-2.990116
 30
0.0
 10
-2.612096
 20
-2.373574
 30
0.0
 10
-3.110741
 20
-1.785733
 30
0.0
 10
-3.641693
 20
-1.234412
 30
0.0
 10
-4.196951
 20
-0.727400
 30
0.0
 10
-4.768512
 20
-0.272486
 30
0.0
 10
-5.348376
 20
0.122569
 30
0.0
 10
-5.928540
 20
0.449890
 30
0.0
 10
-6.172358
 20
0.576044
 30
0.0
 10
-6.373419
 20
0.687917
 30
0.0
 10
-6.534517
 20
0.787795
 30
0.0
 10
-6.658453
 20
0.877937
 30
0.0
 10
-6.838505
 20
1.186462
 30
0.0
 10
-6.807854
 20
1.619871
 30
0.0
 10
-6.751207
 20
2.518015
 30
0.0
 10
-6.518109
 20
5.838839
 30
0.0
 10
-6.318139
 20
8.183174
 30
0.0
 10
-6.236978
 20
8.522490
 30
0.0
 10
-6.094273
 20
8.592622
 30
0.0
 10
-5.817663
 20
7.939476
 30
0.0
 10
-5.617890
 20
6.205389
 30
0.0
 10
-5.493443
 20
5.166078
 30
0.0
 10
-5.291763
 20
4.105628
 30
0.0
 10
-4.949687
 20
2.800350
 30
0.0
 10
-4.652434
 20
2.722428
 30
0.0
 10
-4.264378
 20
2.896560
 30
0.0
 10
-4.094957
 20
3.212507
 30
0.0
 10
-3.513253
 20
6.458289
 30
0.0
 10
-3.144340
 20
10.097544
 30
0.0
 10
-2.998176
 20
11.228917
 30
0.0
 10
-2.747849
 20
11.383546
 30
0.0
 10
-2.632784
 20
11.035397
 30
0.0
 10
-2.547893
 20
10.275852
 30
0.0
 10
-2.260476
 20
6.803446
 30
0.0
 10
-1.906562
 20
4.284895
 30
0.0
 10
-1.826631
 20
3.836755
 30
0.0
 10
-1.746698
 20
3.388642
 30
0.0
 10
-1.545899
 20
3.388642
 30
0.0
 10
-1.345100
 20
3.388642
 30
0.0
 10
-0.874006
 20
3.612840
 30
0.0
 10
-0.554738
 20
5.129897
 30
0.0
 10
-0.197355
 20
8.180832
 30
0.0
 10
0.040723
 20
11.960916
 30
0.0
 10
0.163814
 20
13.701720
 30
0.0
 10
0.436203
 20
13.826716
 30
0.0
 10
0.632532
 20
13.157623
 30
0.0
 10
0.899917
 20
9.548453
 30
0.0
 10
1.234385
 20
5.791115
 30
0.0
 10
1.554967
 20
3.628757
 30
0.0
 10
1.925373
 20
3.441502
 30
0.0
 10
2.343239
 20
3.464362
 30
0.0
 10
2.781518
 20
5.551057
 30
0.0
 10
3.212740
 20
9.022165
 30
0.0
 10
3.357027
 20
10.505355
 30
0.0
 10
3.471887
 20
11.266622
 30
0.0
 10
3.700639
 20
11.271702
 30
0.0
 10
3.863774
 20
9.731728
 30
0.0
 10
4.122676
 20
6.925874
 30
0.0
 10
4.527373
 20
3.952042
 30
0.0
 10
4.814889
 20
2.951960
 30
0.0
 10
5.308138
 20
2.671770
 30
0.0
 10
5.874344
 20
3.588992
 30
0.0
 10
6.372415
 20
6.154222
 30
0.0
 10
6.623355
 20
7.874988
 30
0.0
 10
6.780474
 20
8.253956
 30
0.0
 10
6.871656
 20
8.146119
 30
0.0
 10
6.954133
 20
7.886869
 30
0.0
 10
7.212829
 20
5.720475
 30
0.0
 10
7.411025
 20
2.586426
 30
0.0
 10
7.498905
 20
1.573615
 30
0.0
 10
7.417933
 20
0.940618
 30
0.0
 10
7.310787
 20
0.845114
 30
0.0
 10
7.080046
 20
0.693843
 30
0.0
 10
6.759426
 20
0.501481
 30
0.0
 10
6.382642
 20
0.282843
 30
0.0
 10
5.983408
 20
0.052578
 30
0.0
 10
5.595437
 20
-0.174554
 30
0.0
 10
5.252445
 20
-0.383850
 30
0.0
 10
4.988147
 20
-0.560578
 30
0.0
 10
4.595553
 20
-0.879912
 30
0.0
 10
4.187782
 20
-1.273358
 30
0.0
 10
3.776160
 20
-1.726128
 30
0.0
 10
3.372010
 20
-2.223601
 30
0.0
 10
2.986652
 20
-2.751046
 30
0.0
 10
2.631413
 20
-3.293731
 30
0.0
 10
2.317616
 20
-3.837009
 30
0.0
 10
2.056583
 20
-4.366147
 30
0.0
 10
1.798261
 20
-4.987064
 30
0.0
 10
1.563134
 20
-5.639590
 30
0.0
 10
1.352016
 20
-6.320282
 30
0.0
 10
1.165724
 20
-7.025838
 30
0.0
 10
1.005069
 20
-7.752842
 30
0.0
 10
0.870871
 20
-8.497993
 30
0.0
 10
0.763941
 20
-9.257820
 30
0.0
 10
0.685095
 20
-10.029105
 30
0.0
 10
0.597137
 20
-10.970937
 30
0.0
 10
0.535211
 20
-11.437451
 30
0.0
 10
0.341255
 20
-11.560838
 30
0.0
 10
0.137861
 20
-11.403556
 30
0.0
  0
LWPOLYLINE
  5
111
100
AcDbEntity
  8
snow
 62
7
100
AcDbPolyline
 90
49
 70
0
 10
0.330200
 20
13.541129
 30
0.0
 10
-2.153027
 20
10.034463
 30
0.0
 10
-2.755984
 20
11.073768
 30
0.0
 10
-3.858759
 20
11.089649
 30
0.0
 10
-6.016707
 20
12.128954
 30
0.0
 10
-6.191247
 20
9.732996
 30
0.0
 10
-6.730734
 20
8.773025
 30
0.0
 10
-6.135712
 20
7.741653
 30
0.0
 10
-10.411940
 20
7.337039
 30
0.0
 10
-8.626873
 20
3.433691
 30
0.0
 10
-9.816918
 20
3.433691
 30
0.0
 10
-10.380206
 20
2.481655
 30
0.0
 10
-12.363614
 20
1.132937
 30
0.0
 10
-10.380206
 20
-0.215780
 30
0.0
 10
-9.816918
 20
-1.167816
 30
0.0
 10
-8.626873
 20
-1.167816
 30
0.0
 10
-10.411940
 20
-5.071164
 30
0.0
 10
-6.135712
 20
-5.475778
 30
0.0
 10
-6.730734
 20
-6.507151
 30
0.0
 10
-6.191247
 20
-7.467122
 30
0.0
 10
-6.016707
 20
-9.863079
 30
0.0
 10
-3.858759
 20
-8.823772
 30
0.0
 10
-2.755984
 20
-8.807919
 30
0.0
 10
-2.153027
 20
-7.768614
 30
0.0
 10
0.330200
 20
-11.275280
 30
0.0
 10
2.821361
 20
-7.768614
 30
0.0
 10
3.416383
 20
-8.807919
 30
0.0
 10
4.519159
 20
-8.823772
 30
0.0
 10
6.677107
 20
-9.863079
 30
0.0
 10
6.859581
 20
-7.475054
 30
0.0
 10
7.399068
 20
-6.507151
 30
0.0
 10
6.804045
 20
-5.475778
 30
0.0
 10
11.080274
 20
-5.071164
 30
0.0
 10
9.287272
 20
-1.167816
 30
0.0
 10
10.485251
 20
-1.167816
 30
0.0
 10
11.048539
 20
-0.215780
 30
0.0
 10
13.024014
 20
1.132937
 30
0.0
 10
11.048539
 20
2.481655
 30
0.0
 10
10.485251
 20
3.433691
 30
0.0
 10
9.287272
 20
3.433691
 30
0.0
 10
11.080274
 20
7.337039
 30
0.0
 10
6.804045
 20
7.741653
 30
0.0
 10
7.399068
 20
8.773025
 30
0.0
 10
6.859581
 20
9.732996
 30
0.0
 10
6.677107
 20
12.128954
 30
0.0
 10
4.519159
 20
11.089649
 30
0.0
 10
3.416383
 20
11.073768
 30
0.0
 10
2.821361
 20
10.034463
 30
0.0
 10
0.330200
 20
13.541129
 30
0.0
  0
LWPOLYLINE
  5
112
100
AcDbEntity
  8
snow
 62
7
100
AcDbPolyline
 90
5
 70
0
 10
0.330200
 20
11.264178
 30
0.0
 10
2.123201
 20
8.138323
 30
0.0
 10
0.330200
 20
5.020407
 30
0.0
 10
-1.454868
 20
8.138323
 30
0.0
 10
0.330200
 20
11.264178
 30
0.0
  0
LWPOLYLINE
  5
113
100
AcDbEntity
  8
snow
 62
7
100
AcDbPolyline
 90
43
 70
0
 10
-4.390312
 20
10.343876
 30
0.0
 10
-3.501745
 20
9.828189
 30
0.0
 10
-3.501745
 20
8.804751
 30
0.0
 10
0.330200
 20
2.624449
 30
0.0
 10
4.170079
 20
8.804751
 30
0.0
 10
4.170079
 20
9.828189
 30
0.0
 10
5.058646
 20
10.343876
 30
0.0
 10
5.947213
 20
9.828189
 30
0.0
 10
5.947213
 20
8.804751
 30
0.0
 10
5.058646
 20
8.289064
 30
0.0
 10
1.623382
 20
1.878688
 30
0.0
 10
8.890591
 20
1.648614
 30
0.0
 10
9.779158
 20
2.156363
 30
0.0
 10
10.675658
 20
1.648614
 30
0.0
 10
10.675658
 20
0.617241
 30
0.0
 10
9.779158
 20
0.101554
 30
0.0
 10
8.890591
 20
0.617241
 30
0.0
 10
1.623382
 20
0.387164
 30
0.0
 10
5.058646
 20
-6.023212
 30
0.0
 10
5.947213
 20
-6.538899
 30
0.0
 10
5.947213
 20
-7.562337
 30
0.0
 10
5.058646
 20
-8.078024
 30
0.0
 10
4.170079
 20
-7.562337
 30
0.0
 10
4.170079
 20
-6.538899
 30
0.0
 10
0.330200
 20
-0.358597
 30
0.0
 10
-3.501745
 20
-6.538899
 30
0.0
 10
-3.501745
 20
-7.562337
 30
0.0
 10
-4.390312
 20
-8.078024
 30
0.0
 10
-5.278879
 20
-7.562337
 30
0.0
 10
-5.278879
 20
-6.538899
 30
0.0
 10
-4.390312
 20
-6.023212
 30
0.0
 10
-0.962982
 20
0.387164
 30
0.0
 10
-8.230191
 20
0.617241
 30
0.0
 10
-9.118758
 20
0.101554
 30
0.0
 10
-10.007325
 20
0.617241
 30
0.0
 10
-10.007325
 20
1.648614
 30
0.0
 10
-9.118758
 20
2.156363
 30
0.0
 10
-8.230191
 20
1.648614
 30
0.0
 10
-0.962982
 20
1.878688
 30
0.0
 10
-4.390312
 20
8.289064
 30
0.0
 10
-5.278879
 20
8.804751
 30
0.0
 10
-5.278879
 20
9.828189
 30
0.0
 10
-4.390312
 20
10.343876
 30
0.0
  0
LWPOLYLINE
  5
114
100
AcDbEntity
  8
snow
 62
7
100
AcDbPolyline
 90
5
 70
0
 10
-8.436465
 20
6.194584
 30
0.0
 10
-4.842529
 20
6.186658
 30
0.0
 10
-3.033661
 20
3.076673
 30
0.0
 10
-6.635531
 20
3.084600
 30
0.0
 10
-8.436465
 20
6.194584
 30
0.0
  0
LWPOLYLINE
  5
115
100
AcDbEntity
  8
snow
 62
7
100
AcDbPolyline
 90
5
 70
0
 10
9.104799
 20
6.194584
 30
0.0
 10
7.295930
 20
3.084600
 30
0.0
 10
3.701994
 20
3.076673
 30
0.0
 10
5.510863
 20
6.186658
 30
0.0
 10
9.104799
 20
6.194584
 30
0.0
  0
LWPOLYLINE
  5
116
100
AcDbEntity
  8
snow
 62
7
100
AcDbPolyline
 90
6
 70
0
 10
-3.033661
 20
-0.810813
 30
0.0
 10
-4.842529
 20
-3.920800
 30
0.0
 10
-8.436465
 20
-3.928727
 30
0.0
 10
-6.635531
 20
-0.818745
 30
0.0
 10
-3.033661
 20
-0.810818
 30
0.0
 10
-3.033661
 20
-0.810813
 30
0.0
  0
LWPOLYLINE
  5
117
100
AcDbEntity
  8
snow
 62
7
100
AcDbPolyline
 90
6
 70
0
 10
3.701994
 20
-0.810813
 30
0.0
 10
7.295930
 20
-0.818739
 30
0.0
 10
9.104799
 20
-3.928721
 30
0.0
 10
5.510863
 20
-3.920794
 30
0.0
 10
3.701994
 20
-0.810807
 30
0.0
 10
3.701994
 20
-0.810813
 30
0.0
  0
LWPOLYLINE
  5
118
100
AcDbEntity
  8
snow
 62
7
100
AcDbPolyline
 90
5
 70
0
 10
0.330200
 20
-2.754555
 30
0.0
 10
2.123201
 20
-5.872471
 30
0.0
 10
0.330200
 20
-8.998326
 30
0.0
 10
-1.454868
 20
-5.872471
 30
0.0
 10
0.330200
 20
-2.754555
 30
0.0
  0
LWPOLYLINE
  5
119
100
AcDbEntity
  8
kbw
 62
7
100
AcDbPolyline
 90
139
 70
0
 10
-0.282222
 20
12.696388
 30
0.0
 10
-1.084792
 20
12.661110
 30
0.0
 10
-1.869722
 20
12.564082
 30
0.0
 10
-2.654653
 20
12.422971
 30
0.0
 10
-3.421944
 20
12.246582
 30
0.0
 10
-4.189236
 20
12.008471
 30
0.0
 10
-4.930069
 20
11.726249
 30
0.0
 10
-5.653264
 20
11.391110
 30
0.0
 10
-6.350000
 20
11.011860
 30
0.0
 10
-8.422569
 20
9.530193
 30
0.0
 10
-10.098264
 20
7.731026
 30
0.0
 10
-11.377083
 20
5.667304
 30
0.0
 10
-12.241389
 20
3.427137
 30
0.0
 10
-12.655903
 20
1.063526
 30
0.0
 10
-12.629444
 20
-1.361807
 30
0.0
 10
-12.126736
 20
-3.778335
 30
0.0
 10
-11.130139
 20
-6.097863
 30
0.0
 10
-9.771944
 20
-5.321752
 30
0.0
 10
-8.422569
 20
-4.527973
 30
0.0
 10
-7.064375
 20
-3.751862
 30
0.0
 10
-6.596944
 20
-3.478474
 30
0.0
 10
-6.350000
 20
-3.901807
 30
0.0
 10
0.000000
 20
-0.294640
 30
0.0
 10
6.226528
 20
-3.901807
 30
0.0
 10
6.473472
 20
-3.460835
 30
0.0
 10
0.255764
 20
0.137499
 30
0.0
 10
0.255764
 20
10.412137
 30
0.0
 10
-0.255764
 20
10.412137
 30
0.0
 10
-0.255764
 20
0.137499
 30
0.0
 10
-4.189236
 20
-2.093807
 30
0.0
 10
-4.277431
 20
-1.899807
 30
0.0
 10
-4.392083
 20
-1.626390
 30
0.0
 10
-4.489097
 20
-1.335363
 30
0.0
 10
-4.559653
 20
-1.044307
 30
0.0
 10
-4.621389
 20
-0.735640
 30
0.0
 10
-4.647847
 20
-0.418140
 30
0.0
 10
-4.656667
 20
-0.100640
 30
0.0
 10
-4.639028
 20
0.357971
 30
0.0
 10
-4.568472
 20
0.790138
 30
0.0
 10
-4.471458
 20
1.213471
 30
0.0
 10
-4.321528
 20
1.619165
 30
0.0
 10
-4.127500
 20
2.007221
 30
0.0
 10
-3.898194
 20
2.377638
 30
0.0
 10
-3.615972
 20
2.730415
 30
0.0
 10
-3.307292
 20
3.065554
 30
0.0
 10
-2.954514
 20
3.374249
 30
0.0
 10
-2.592917
 20
3.647638
 30
0.0
 10
-2.213681
 20
3.868138
 30
0.0
 10
-1.834444
 20
4.062137
 30
0.0
 10
-1.419931
 20
4.203248
 30
0.0
 10
-0.996597
 20
4.309082
 30
0.0
 10
-0.564444
 20
4.370832
 30
0.0
 10
-0.282222
 20
4.379637
 30
0.0
 10
-0.282222
 20
4.864721
 30
0.0
 10
-0.282222
 20
4.917638
 30
0.0
 10
-0.617361
 20
4.899999
 30
0.0
 10
-1.111250
 20
4.829443
 30
0.0
 10
-1.578681
 20
4.723610
 30
0.0
 10
-2.037292
 20
4.556026
 30
0.0
 10
-2.469444
 20
4.344360
 30
0.0
 10
-2.883958
 20
4.088610
 30
0.0
 10
-3.289653
 20
3.788749
 30
0.0
 10
-3.677708
 20
3.444804
 30
0.0
 10
-4.030486
 20
3.065554
 30
0.0
 10
-4.330347
 20
2.677499
 30
0.0
 10
-4.586111
 20
2.254165
 30
0.0
 10
-4.797778
 20
1.822027
 30
0.0
 10
-4.965347
 20
1.363416
 30
0.0
 10
-5.088819
 20
0.904804
 30
0.0
 10
-5.159375
 20
0.410916
 30
0.0
 10
-5.194653
 20
-0.100640
 30
0.0
 10
-5.185833
 20
-0.453418
 30
0.0
 10
-5.150556
 20
-0.797362
 30
0.0
 10
-5.097639
 20
-1.141307
 30
0.0
 10
-5.018264
 20
-1.467640
 30
0.0
 10
-4.912431
 20
-1.793974
 30
0.0
 10
-4.780139
 20
-2.102640
 30
0.0
 10
-4.656667
 20
-2.358418
 30
0.0
 10
-5.221111
 20
-2.675918
 30
0.0
 10
-5.688542
 20
-1.829252
 30
0.0
 10
-6.693958
 20
-1.458807
 30
0.0
 10
-6.958542
 20
-1.626390
 30
0.0
 10
-7.390694
 20
-2.129084
 30
0.0
 10
-7.884583
 20
-2.631807
 30
0.0
 10
-8.343194
 20
-2.799362
 30
0.0
 10
-9.216319
 20
-2.384862
 30
0.0
 10
-10.309931
 20
-1.141307
 30
0.0
 10
-11.033125
 20
-0.118251
 30
0.0
 10
-12.056181
 20
1.301665
 30
0.0
 10
-11.332986
 20
0.922415
 30
0.0
 10
-10.600972
 20
0.543193
 30
0.0
 10
-9.745486
 20
0.208054
 30
0.0
 10
-9.075208
 20
0.102221
 30
0.0
 10
-8.634236
 20
0.296249
 30
0.0
 10
-8.202083
 20
0.878332
 30
0.0
 10
-7.708194
 20
1.460415
 30
0.0
 10
-7.064375
 20
1.654443
 30
0.0
 10
-6.702778
 20
1.557415
 30
0.0
 10
-5.803194
 20
1.275193
 30
0.0
 10
-5.344583
 20
2.077776
 30
0.0
 10
-5.194653
 20
2.642221
 30
0.0
 10
-5.309306
 20
3.056749
 30
0.0
 10
-5.662083
 20
3.515360
 30
0.0
 10
-6.103056
 20
3.885748
 30
0.0
 10
-6.499931
 20
4.009249
 30
0.0
 10
-6.693958
 20
3.982776
 30
0.0
 10
-6.985000
 20
3.912221
 30
0.0
 10
-7.276042
 20
3.841665
 30
0.0
 10
-7.487708
 20
3.815193
 30
0.0
 10
-7.919861
 20
4.176804
 30
0.0
 10
-8.060972
 20
5.252776
 30
0.0
 10
-7.875764
 20
6.522776
 30
0.0
 10
-7.328958
 20
9.600748
 30
0.0
 10
-7.240764
 20
8.921665
 30
0.0
 10
-6.905625
 20
7.828054
 30
0.0
 10
-6.323542
 20
6.637415
 30
0.0
 10
-5.644444
 20
6.231749
 30
0.0
 10
-5.450417
 20
6.284637
 30
0.0
 10
-5.132917
 20
6.425748
 30
0.0
 10
-4.780139
 20
6.566860
 30
0.0
 10
-4.524375
 20
6.610971
 30
0.0
 10
-3.854097
 20
6.408138
 30
0.0
 10
-3.316111
 20
5.781943
 30
0.0
 10
-3.086806
 20
5.358610
 30
0.0
 10
-2.839861
 20
4.926471
 30
0.0
 10
-2.222500
 20
5.041110
 30
0.0
 10
-1.728611
 20
5.411526
 30
0.0
 10
-1.402292
 20
5.923054
 30
0.0
 10
-1.287639
 20
6.549249
 30
0.0
 10
-1.428750
 20
7.175415
 30
0.0
 10
-1.869722
 20
7.616388
 30
0.0
 10
-2.310694
 20
7.942693
 30
0.0
 10
-2.460625
 20
8.172027
 30
0.0
 10
-1.940278
 20
9.071582
 30
0.0
 10
-0.370417
 20
10.429804
 30
0.0
 10
-0.282222
 20
10.491526
 30
0.0
 10
-0.282222
 20
11.135360
 30
0.0
 10
-0.282222
 20
12.696388
 30
0.0
 10
-0.282222
 20
12.696388
 30
0.0
  0
LWPOLYLINE
  5
11a
100
AcDbEntity
  8
kbw
 62
7
100
AcDbPolyline
 90
49
 70
0
 10
0.273403
 20
12.696388
 30
0.0
 10
0.273403
 20
11.135360
 30
0.0
 10
0.273403
 20
10.482693
 30
0.0
 10
1.781528
 20
10.350415
 30
0.0
 10
3.421944
 20
9.971193
 30
0.0
 10
4.877153
 20
9.336193
 30
0.0
 10
6.155972
 20
8.471860
 30
0.0
 10
5.088819
 20
7.519360
 30
0.0
 10
3.439583
 20
6.513971
 30
0.0
 10
4.374444
 20
6.646249
 30
0.0
 10
5.653264
 20
7.104860
 30
0.0
 10
6.693958
 20
7.589915
 30
0.0
 10
6.923264
 20
7.739860
 30
0.0
 10
7.267222
 20
7.492915
 30
0.0
 10
7.902222
 20
6.734443
 30
0.0
 10
8.413750
 20
6.011249
 30
0.0
 10
8.810625
 20
5.376249
 30
0.0
 10
9.278056
 20
4.450193
 30
0.0
 10
9.657292
 20
3.497693
 30
0.0
 10
9.957153
 20
2.509915
 30
0.0
 10
10.168819
 20
1.486860
 30
0.0
 10
10.204097
 20
0.446193
 30
0.0
 10
10.133542
 20
-0.541584
 30
0.0
 10
9.824861
 20
-1.573474
 30
0.0
 10
9.348611
 20
-2.190835
 30
0.0
 10
8.687153
 20
-2.658251
 30
0.0
 10
7.769931
 20
-2.914029
 30
0.0
 10
6.138333
 20
-3.213890
 30
0.0
 10
7.055556
 20
-3.743057
 30
0.0
 10
8.413750
 20
-4.519168
 30
0.0
 10
9.763125
 20
-5.312918
 30
0.0
 10
11.121319
 20
-6.089029
 30
0.0
 10
11.491736
 20
-5.383474
 30
0.0
 10
11.800417
 20
-4.651474
 30
0.0
 10
12.073819
 20
-3.901807
 30
0.0
 10
12.294306
 20
-3.143335
 30
0.0
 10
12.470694
 20
-2.376029
 30
0.0
 10
12.594167
 20
-1.582307
 30
0.0
 10
12.664722
 20
-0.797362
 30
0.0
 10
12.700000
 20
0.005193
 30
0.0
 10
12.444236
 20
2.536388
 30
0.0
 10
11.721042
 20
4.891193
 30
0.0
 10
10.583333
 20
7.025471
 30
0.0
 10
9.075208
 20
8.886388
 30
0.0
 10
7.231944
 20
10.438610
 30
0.0
 10
5.115278
 20
11.620415
 30
0.0
 10
2.786944
 20
12.396526
 30
0.0
 10
0.273403
 20
12.696388
 30
0.0
 10
0.273403
 20
12.696388
 30
0.0
  0
LWPOLYLINE
  5
11b
100
AcDbEntity
  8
kbw
 62
7
100
AcDbPolyline
 90
19
 70
0
 10
5.556250
 20
3.383054
 30
0.0
 10
4.277431
 20
3.074360
 30
0.0
 10
3.077986
 20
2.165971
 30
0.0
 10
2.213681
 20
0.922415
 30
0.0
 10
1.931458
 20
-0.382863
 30
0.0
 10
1.993194
 20
-0.823807
 30
0.0
 10
2.989792
 20
-1.397085
 30
0.0
 10
3.130903
 20
-1.485279
 30
0.0
 10
4.815417
 20
-1.485279
 30
0.0
 10
6.641042
 20
-1.485279
 30
0.0
 10
7.531806
 20
-1.370640
 30
0.0
 10
8.175625
 20
-1.070751
 30
0.0
 10
8.554861
 20
-0.576862
 30
0.0
 10
8.687153
 20
0.111026
 30
0.0
 10
8.449028
 20
1.310471
 30
0.0
 10
7.743472
 20
2.386471
 30
0.0
 10
6.720417
 20
3.127304
 30
0.0
 10
5.556250
 20
3.383054
 30
0.0
 10
5.556250
 20
3.383054
 30
0.0
  0
LWPOLYLINE
  5
11c
100
AcDbEntity
  8
kbw
 62
7
100
AcDbPolyline
 90
14
 70
0
 10
3.139722
 20
-2.129084
 30
0.0
 10
3.095625
 20
-2.305473
 30
0.0
 10
2.998611
 20
-2.605363
 30
0.0
 10
2.786944
 20
-3.257973
 30
0.0
 10
2.584097
 20
-3.901807
 30
0.0
 10
2.866319
 20
-4.748474
 30
0.0
 10
3.721806
 20
-5.039529
 30
0.0
 10
4.603750
 20
-4.642640
 30
0.0
 10
4.903611
 20
-3.452029
 30
0.0
 10
4.894792
 20
-3.231529
 30
0.0
 10
4.885972
 20
-3.134529
 30
0.0
 10
4.065764
 20
-2.658251
 30
0.0
 10
3.139722
 20
-2.129084
 30
0.0
 10
3.139722
 20
-2.129084
 30
0.0
  0
LWPOLYLINE
  5
11d
100
AcDbEntity
  8
kbw
 62
7
100
AcDbPolyline
 90
42
 70
0
 10
6.270625
 20
-3.937085
 30
0.0
 10
6.155972
 20
-5.233529
 30
0.0
 10
5.812014
 20
-6.415363
 30
0.0
 10
5.256389
 20
-7.491307
 30
0.0
 10
4.453819
 20
-8.461474
 30
0.0
 10
3.501319
 20
-9.264029
 30
0.0
 10
2.442986
 20
-9.837307
 30
0.0
 10
1.270000
 20
-10.190085
 30
0.0
 10
0.000000
 20
-10.295918
 30
0.0
 10
-1.411111
 20
-10.172418
 30
0.0
 10
-2.654653
 20
-9.793196
 30
0.0
 10
-3.765903
 20
-9.158196
 30
0.0
 10
-4.709583
 20
-8.267418
 30
0.0
 10
-5.379861
 20
-7.314918
 30
0.0
 10
-5.882569
 20
-6.256584
 30
0.0
 10
-6.191250
 20
-5.083612
 30
0.0
 10
-6.323542
 20
-3.963529
 30
0.0
 10
-6.782153
 20
-4.228140
 30
0.0
 10
-8.140347
 20
-5.004252
 30
0.0
 10
-9.489722
 20
-5.789168
 30
0.0
 10
-10.847917
 20
-6.574084
 30
0.0
 10
-10.415764
 20
-7.244362
 30
0.0
 10
-9.939514
 20
-7.888196
 30
0.0
 10
-9.427986
 20
-8.496752
 30
0.0
 10
-8.881181
 20
-9.070001
 30
0.0
 10
-8.299097
 20
-9.607973
 30
0.0
 10
-7.681736
 20
-10.110696
 30
0.0
 10
-7.037917
 20
-10.578140
 30
0.0
 10
-6.350000
 20
-10.992640
 30
0.0
 10
-4.039306
 20
-12.042140
 30
0.0
 10
-1.631597
 20
-12.597779
 30
0.0
 10
0.784931
 20
-12.677140
 30
0.0
 10
3.157361
 20
-12.297918
 30
0.0
 10
5.415139
 20
-11.477696
 30
0.0
 10
7.496528
 20
-10.242973
 30
0.0
 10
9.330972
 20
-8.593751
 30
0.0
 10
10.847917
 20
-6.574084
 30
0.0
 10
9.489722
 20
-5.789168
 30
0.0
 10
8.131528
 20
-5.004252
 30
0.0
 10
6.773333
 20
-4.228140
 30
0.0
 10
6.270625
 20
-3.937085
 30
0.0
 10
6.270625
 20
-3.937085
 30
0.0
  0
LWPOLYLINE
  5
11e
100
AcDbEntity
  8
red
 62
7
100
AcDbPolyline
 90
321
 70
0
 10
-6.314475
 20
-10.994112
 30
0.0
 10
-6.794047
 20
-10.815298
 30
0.0
 10
-7.266923
 20
-10.570900
 30
0.0
 10
-7.727657
 20
-10.265797
 30
0.0
 10
-8.170809
 20
-9.904870
 30
0.0
 10
-8.590936
 20
-9.492998
 30
0.0
 10
-8.982590
 20
-9.035033
 30
0.0
 10
-9.340332
 20
-8.535884
 30
0.0
 10
-9.658719
 20
-8.000374
 30
0.0
 10
-10.161226
 20
-6.915815
 30
0.0
 10
-10.488093
 20
-5.859633
 30
0.0
 10
-10.639626
 20
-4.834424
 30
0.0
 10
-10.616129
 20
-3.842868
 30
0.0
 10
-10.417895
 20
-2.887645
 30
0.0
 10
-10.045229
 20
-1.971349
 30
0.0
 10
-9.498433
 20
-1.096632
 30
0.0
 10
-8.777814
 20
-0.266203
 30
0.0
 10
-8.137961
 20
0.320590
 30
0.0
 10
-7.502085
 20
0.787666
 30
0.0
 10
-6.850540
 20
1.140300
 30
0.0
 10
-6.163683
 20
1.383767
 30
0.0
 10
-5.421871
 20
1.523343
 30
0.0
 10
-4.605461
 20
1.564302
 30
0.0
 10
-3.694807
 20
1.511862
 30
0.0
 10
-2.670264
 20
1.371356
 30
0.0
 10
-2.410685
 20
1.327717
 30
0.0
 10
-2.151104
 20
1.284107
 30
0.0
 10
-1.891526
 20
1.240497
 30
0.0
 10
-1.631947
 20
1.196886
 30
0.0
 10
-1.372366
 20
1.153248
 30
0.0
 10
-1.112787
 20
1.109637
 30
0.0
 10
-0.853209
 20
1.066027
 30
0.0
 10
-0.593629
 20
1.022417
 30
0.0
 10
-0.346198
 20
1.149355
 30
0.0
 10
-0.098768
 20
1.276293
 30
0.0
 10
0.148662
 20
1.403259
 30
0.0
 10
0.396096
 20
1.530198
 30
0.0
 10
0.643526
 20
1.657136
 30
0.0
 10
0.890958
 20
1.784102
 30
0.0
 10
1.138388
 20
1.911040
 30
0.0
 10
1.385818
 20
2.038007
 30
0.0
 10
1.633249
 20
2.164945
 30
0.0
 10
1.880680
 20
2.291883
 30
0.0
 10
2.128111
 20
2.418849
 30
0.0
 10
2.375541
 20
2.545787
 30
0.0
 10
2.622972
 20
2.672725
 30
0.0
 10
2.870402
 20
2.799692
 30
0.0
 10
3.117833
 20
2.926630
 30
0.0
 10
3.365264
 20
3.053568
 30
0.0
 10
3.365264
 20
2.962173
 30
0.0
 10
3.365264
 20
2.870749
 30
0.0
 10
3.365264
 20
2.779354
 30
0.0
 10
3.365264
 20
2.687930
 30
0.0
 10
3.365264
 20
2.596534
 30
0.0
 10
3.365264
 20
2.505111
 30
0.0
 10
3.365264
 20
2.413715
 30
0.0
 10
3.365264
 20
2.322292
 30
0.0
 10
3.316843
 20
1.832000
 30
0.0
 10
3.177976
 20
1.307999
 30
0.0
 10
2.958241
 20
0.766284
 30
0.0
 10
2.667217
 20
0.222791
 30
0.0
 10
2.314487
 20
-0.306484
 30
0.0
 10
1.909630
 20
-0.805605
 30
0.0
 10
1.462232
 20
-1.258605
 30
0.0
 10
0.981870
 20
-1.649490
 30
0.0
 10
0.453838
 20
-2.056425
 30
0.0
 10
0.042638
 20
-2.436140
 30
0.0
 10
-0.252682
 20
-2.791115
 30
0.0
 10
-0.433069
 20
-3.123806
 30
0.0
 10
-0.499481
 20
-3.436751
 30
0.0
 10
-0.452863
 20
-3.732404
 30
0.0
 10
-0.294166
 20
-4.013276
 30
0.0
 10
-0.024338
 20
-4.281820
 30
0.0
 10
0.290427
 20
-4.501367
 30
0.0
 10
0.611107
 20
-4.655385
 30
0.0
 10
0.937137
 20
-4.743875
 30
0.0
 10
1.267947
 20
-4.766724
 30
0.0
 10
1.602971
 20
-4.724186
 30
0.0
 10
1.941639
 20
-4.616175
 30
0.0
 10
2.283387
 20
-4.442721
 30
0.0
 10
2.627646
 20
-4.203796
 30
0.0
 10
3.000765
 20
-3.875111
 30
0.0
 10
3.323382
 20
-3.515311
 30
0.0
 10
3.595958
 20
-3.123383
 30
0.0
 10
3.818952
 20
-2.698309
 30
0.0
 10
3.992818
 20
-2.239075
 30
0.0
 10
4.118015
 20
-1.744637
 30
0.0
 10
4.195001
 20
-1.214008
 30
0.0
 10
4.224240
 20
-0.646143
 30
0.0
 10
4.234706
 20
-0.356893
 30
0.0
 10
4.259755
 20
-0.053680
 30
0.0
 10
4.297751
 20
0.254526
 30
0.0
 10
4.347051
 20
0.558641
 30
0.0
 10
4.406016
 20
0.849696
 30
0.0
 10
4.472999
 20
1.118608
 30
0.0
 10
4.546361
 20
1.356405
 30
0.0
 10
4.624459
 20
1.554034
 30
0.0
 10
4.672896
 20
1.659816
 30
0.0
 10
4.721333
 20
1.765597
 30
0.0
 10
4.769769
 20
1.871379
 30
0.0
 10
4.818206
 20
1.977161
 30
0.0
 10
4.866640
 20
2.082943
 30
0.0
 10
4.915077
 20
2.188724
 30
0.0
 10
4.963514
 20
2.294506
 30
0.0
 10
5.011950
 20
2.400288
 30
0.0
 10
5.014799
 20
2.272363
 30
0.0
 10
5.017677
 20
2.144465
 30
0.0
 10
5.020554
 20
2.016568
 30
0.0
 10
5.023431
 20
1.888643
 30
0.0
 10
5.026309
 20
1.760745
 30
0.0
 10
5.029158
 20
1.632820
 30
0.0
 10
5.032035
 20
1.504923
 30
0.0
 10
5.034912
 20
1.376997
 30
0.0
 10
5.101013
 20
0.733026
 30
0.0
 10
5.254363
 20
0.279772
 30
0.0
 10
5.477216
 20
0.016136
 30
0.0
 10
5.751819
 20
-0.059068
 30
0.0
 10
6.060428
 20
0.053089
 30
0.0
 10
6.385288
 20
0.351478
 30
0.0
 10
6.708656
 20
0.834943
 30
0.0
 10
7.012783
 20
1.502384
 30
0.0
 10
7.183492
 20
1.995017
 30
0.0
 10
7.282358
 20
2.405930
 30
0.0
 10
7.303599
 20
2.749876
 30
0.0
 10
7.241444
 20
3.041608
 30
0.0
 10
7.090117
 20
3.295964
 30
0.0
 10
6.843846
 20
3.527640
 30
0.0
 10
6.496851
 20
3.751474
 30
0.0
 10
6.043360
 20
3.982191
 30
0.0
 10
5.547796
 20
4.247294
 30
0.0
 10
5.065826
 20
4.564640
 30
0.0
 10
4.613625
 20
4.918036
 30
0.0
 10
4.207372
 20
5.291290
 30
0.0
 10
3.863236
 20
5.668268
 30
0.0
 10
3.597400
 20
6.032778
 30
0.0
 10
3.426036
 20
6.368628
 30
0.0
 10
3.365320
 20
6.659711
 30
0.0
 10
3.370482
 20
6.774181
 30
0.0
 10
3.388846
 20
6.855450
 30
0.0
 10
3.424836
 20
6.903348
 30
0.0
 10
3.482828
 20
6.917734
 30
0.0
 10
3.567208
 20
6.898553
 30
0.0
 10
3.682358
 20
6.845464
 30
0.0
 10
3.832670
 20
6.758385
 30
0.0
 10
4.022526
 20
6.637173
 30
0.0
 10
4.158404
 20
6.554550
 30
0.0
 10
4.292626
 20
6.484904
 30
0.0
 10
4.421716
 20
6.429248
 30
0.0
 10
4.542211
 20
6.388600
 30
0.0
 10
4.650636
 20
6.364058
 30
0.0
 10
4.743518
 20
6.356442
 30
0.0
 10
4.817391
 20
6.366597
 30
0.0
 10
4.868781
 20
6.395765
 30
0.0
 10
4.981465
 20
6.598979
 30
0.0
 10
5.045273
 20
6.911359
 30
0.0
 10
5.063326
 20
7.301482
 30
0.0
 10
5.038785
 20
7.737980
 30
0.0
 10
4.974757
 20
8.189401
 30
0.0
 10
4.874380
 20
8.624404
 30
0.0
 10
4.740790
 20
9.011508
 30
0.0
 10
4.577122
 20
9.319404
 30
0.0
 10
4.192080
 20
9.832093
 30
0.0
 10
3.820153
 20
10.220806
 30
0.0
 10
3.445341
 20
10.489266
 30
0.0
 10
3.051627
 20
10.641197
 30
0.0
 10
2.623005
 20
10.680294
 30
0.0
 10
2.143467
 20
10.610308
 30
0.0
 10
1.597001
 20
10.434936
 30
0.0
 10
0.967597
 20
10.157901
 30
0.0
 10
0.523479
 20
9.962416
 30
0.0
 10
0.091760
 20
9.807636
 30
0.0
 10
-0.313133
 20
9.695451
 30
0.0
 10
-0.676769
 20
9.627807
 30
0.0
 10
-0.984715
 20
9.606651
 30
0.0
 10
-1.222544
 20
9.633731
 30
0.0
 10
-1.375825
 20
9.711079
 30
0.0
 10
-1.430124
 20
9.840584
 30
0.0
 10
-1.413566
 20
9.893475
 30
0.0
 10
-1.366144
 20
9.949215
 30
0.0
 10
-1.291177
 20
10.006139
 30
0.0
 10
-1.191985
 20
10.062528
 30
0.0
 10
-1.071893
 20
10.116745
 30
0.0
 10
-0.934227
 20
10.167125
 30
0.0
 10
-0.782313
 20
10.211948
 30
0.0
 10
-0.619475
 20
10.249550
 30
0.0
 10
-0.259427
 20
10.355191
 30
0.0
 10
0.028797
 20
10.507827
 30
0.0
 10
0.241285
 20
10.697698
 30
0.0
 10
0.374132
 20
10.915129
 30
0.0
 10
0.423435
 20
11.150388
 30
0.0
 10
0.385287
 20
11.393799
 30
0.0
 10
0.255776
 20
11.635602
 30
0.0
 10
0.030996
 20
11.866122
 30
0.0
 10
-0.111510
 20
11.962538
 30
0.0
 10
-0.307130
 20
12.066486
 30
0.0
 10
-0.547106
 20
12.174722
 30
0.0
 10
-0.822666
 20
12.283946
 30
0.0
 10
-1.125055
 20
12.390912
 30
0.0
 10
-1.445506
 20
12.492322
 30
0.0
 10
-1.775255
 20
12.584902
 30
0.0
 10
-2.105541
 20
12.665381
 30
0.0
 10
-2.853574
 20
12.859568
 30
0.0
 10
-3.330273
 20
13.040581
 30
0.0
 10
-3.545136
 20
13.201398
 30
0.0
 10
-3.507664
 20
13.335050
 30
0.0
 10
-3.227365
 20
13.434597
 30
0.0
 10
-2.713734
 20
13.493045
 30
0.0
 10
-1.976277
 20
13.503483
 30
0.0
 10
-1.024491
 20
13.458829
 30
0.0
 10
0.619879
 20
13.263513
 30
0.0
 10
2.115346
 20
12.917734
 30
0.0
 10
3.468407
 20
12.417287
 30
0.0
 10
4.685558
 20
11.757999
 30
0.0
 10
5.773294
 20
10.935693
 30
0.0
 10
6.738112
 20
9.946196
 30
0.0
 10
7.586506
 20
8.785333
 30
0.0
 10
8.324974
 20
7.448928
 30
0.0
 10
8.531911
 20
7.029807
 30
0.0
 10
8.735320
 20
6.638809
 30
0.0
 10
8.930006
 20
6.284510
 30
0.0
 10
9.110777
 20
5.975430
 30
0.0
 10
9.272443
 20
5.720115
 30
0.0
 10
9.409810
 20
5.527169
 30
0.0
 10
9.517687
 20
5.405139
 30
0.0
 10
9.590880
 20
5.362545
 30
0.0
 10
9.643590
 20
5.389625
 30
0.0
 10
9.692766
 20
5.467565
 30
0.0
 10
9.737327
 20
5.590751
 30
0.0
 10
9.776201
 20
5.753768
 30
0.0
 10
9.808308
 20
5.951115
 30
0.0
 10
9.832567
 20
6.177346
 30
0.0
 10
9.847912
 20
6.426992
 30
0.0
 10
9.853272
 20
6.694577
 30
0.0
 10
9.855529
 20
7.095222
 30
0.0
 10
9.864330
 20
7.396009
 30
0.0
 10
9.882976
 20
7.603511
 30
0.0
 10
9.914651
 20
7.724271
 30
0.0
 10
9.962595
 20
7.764778
 30
0.0
 10
10.030032
 20
7.731605
 30
0.0
 10
10.120192
 20
7.631268
 30
0.0
 10
10.236298
 20
7.470310
 30
0.0
 10
10.619909
 20
6.769273
 30
0.0
 10
10.921747
 20
5.926037
 30
0.0
 10
11.138152
 20
4.985679
 30
0.0
 10
11.265462
 20
3.993192
 30
0.0
 10
11.300026
 20
2.993597
 30
0.0
 10
11.238176
 20
2.031942
 30
0.0
 10
11.076259
 20
1.153276
 30
0.0
 10
10.810614
 20
0.402592
 30
0.0
 10
10.676971
 20
0.158307
 30
0.0
 10
10.481340
 20
-0.146909
 30
0.0
 10
10.233074
 20
-0.500841
 30
0.0
 10
9.941531
 20
-0.891274
 30
0.0
 10
9.616065
 20
-1.306024
 30
0.0
 10
9.266034
 20
-1.732874
 30
0.0
 10
8.900790
 20
-2.159584
 30
0.0
 10
8.529691
 20
-2.573995
 30
0.0
 10
7.751741
 20
-3.463859
 30
0.0
 10
7.229199
 20
-4.159480
 30
0.0
 10
6.961940
 20
-4.660632
 30
0.0
 10
6.949839
 20
-4.967089
 30
0.0
 10
7.192787
 20
-5.078625
 30
0.0
 10
7.690656
 20
-4.995072
 30
0.0
 10
8.443325
 20
-4.716146
 30
0.0
 10
9.450675
 20
-4.241680
 30
0.0
 10
9.784536
 20
-4.076463
 30
0.0
 10
10.100088
 20
-3.926422
 30
0.0
 10
10.390133
 20
-3.794547
 30
0.0
 10
10.647471
 20
-3.683829
 30
0.0
 10
10.864904
 20
-3.597257
 30
0.0
 10
11.035233
 20
-3.537822
 30
0.0
 10
11.151262
 20
-3.508513
 30
0.0
 10
11.205790
 20
-3.512462
 30
0.0
 10
11.234441
 20
-3.629499
 30
0.0
 10
11.184105
 20
-3.827720
 30
0.0
 10
11.064307
 20
-4.091667
 30
0.0
 10
10.884565
 20
-4.405966
 30
0.0
 10
10.654407
 20
-4.755215
 30
0.0
 10
10.383349
 20
-5.123956
 30
0.0
 10
10.080915
 20
-5.496788
 30
0.0
 10
9.756627
 20
-5.858307
 30
0.0
 10
9.335082
 20
-6.238840
 30
0.0
 10
8.832229
 20
-6.580896
 30
0.0
 10
8.258929
 20
-6.880695
 30
0.0
 10
7.626029
 20
-7.134459
 30
0.0
 10
6.944383
 20
-7.338434
 30
0.0
 10
6.224850
 20
-7.488786
 30
0.0
 10
5.478276
 20
-7.581761
 30
0.0
 10
4.715519
 20
-7.613608
 30
0.0
 10
4.058796
 20
-7.643340
 30
0.0
 10
3.435474
 20
-7.727429
 30
0.0
 10
2.864208
 20
-7.858317
 30
0.0
 10
2.363654
 20
-8.028385
 30
0.0
 10
1.952473
 20
-8.229991
 30
0.0
 10
1.649322
 20
-8.455575
 30
0.0
 10
1.472859
 20
-8.697519
 30
0.0
 10
1.441736
 20
-8.948179
 30
0.0
 10
1.486421
 20
-9.075935
 30
0.0
 10
1.571820
 20
-9.193621
 30
0.0
 10
1.700543
 20
-9.302591
 30
0.0
 10
1.875205
 20
-9.404085
 30
0.0
 10
2.098415
 20
-9.499401
 30
0.0
 10
2.372782
 20
-9.589866
 30
0.0
 10
2.700917
 20
-9.676720
 30
0.0
 10
3.085433
 20
-9.761289
 30
0.0
 10
3.572097
 20
-9.861739
 30
0.0
 10
3.932395
 20
-9.943177
 30
0.0
 10
4.174401
 20
-10.011723
 30
0.0
 10
4.306177
 20
-10.073528
 30
0.0
 10
4.335788
 20
-10.134741
 30
0.0
 10
4.271303
 20
-10.201510
 30
0.0
 10
4.120788
 20
-10.279986
 30
0.0
 10
3.892308
 20
-10.376346
 30
0.0
 10
2.986491
 20
-10.644411
 30
0.0
 10
1.755753
 20
-10.871207
 30
0.0
 10
0.309691
 20
-11.050077
 30
0.0
 10
-1.242092
 20
-11.174449
 30
0.0
 10
-2.789992
 20
-11.237636
 30
0.0
 10
-4.224410
 20
-11.233122
 30
0.0
 10
-5.435745
 20
-11.154082
 30
0.0
 10
-6.314475
 20
-10.993830
 30
0.0
  0
LWPOLYLINE
  5
11f
100
AcDbEntity
  8
red
 62
7
100
AcDbPolyline
 90
41
 70
0
 10
-1.059126
 20
6.225555
 30
0.0
 10
-1.189051
 20
6.283833
 30
0.0
 10
-1.322116
 20
6.360335
 30
0.0
 10
-1.454563
 20
6.451843
 30
0.0
 10
-1.582630
 20
6.555086
 30
0.0
 10
-1.702558
 20
6.666792
 30
0.0
 10
-1.810585
 20
6.783688
 30
0.0
 10
-1.902954
 20
6.902558
 30
0.0
 10
-1.975901
 20
7.020103
 30
0.0
 10
-2.107725
 20
7.275869
 30
0.0
 10
-2.198308
 20
7.476544
 30
0.0
 10
-2.246976
 20
7.625570
 30
0.0
 10
-2.253041
 20
7.726302
 30
0.0
 10
-2.215839
 20
7.782211
 30
0.0
 10
-2.134692
 20
7.796598
 30
0.0
 10
-2.008922
 20
7.772903
 30
0.0
 10
-1.837852
 20
7.714652
 30
0.0
 10
-1.730358
 20
7.691239
 30
0.0
 10
-1.592587
 20
7.688418
 30
0.0
 10
-1.430230
 20
7.707318
 30
0.0
 10
-1.248986
 20
7.745004
 30
0.0
 10
-1.054553
 20
7.800237
 30
0.0
 10
-0.852623
 20
7.871576
 30
0.0
 10
-0.648895
 20
7.957640
 30
0.0
 10
-0.449064
 20
8.056990
 30
0.0
 10
-0.173264
 20
8.200374
 30
0.0
 10
0.056133
 20
8.305789
 30
0.0
 10
0.248086
 20
8.374138
 30
0.0
 10
0.411543
 20
8.406183
 30
0.0
 10
0.555463
 20
8.402798
 30
0.0
 10
0.688798
 20
8.364801
 30
0.0
 10
0.820504
 20
8.293010
 30
0.0
 10
0.959532
 20
8.188301
 30
0.0
 10
1.247247
 20
7.820236
 30
0.0
 10
1.311794
 20
7.420184
 30
0.0
 10
1.187606
 20
7.021626
 30
0.0
 10
0.909124
 20
6.658132
 30
0.0
 10
0.510775
 20
6.363128
 30
0.0
 10
0.026994
 20
6.170153
 30
0.0
 10
-0.507783
 20
6.112721
 30
0.0
 10
-1.059126
 20
6.224370
 30
0.0
  0
LWPOLYLINE
  5
120
100
AcDbEntity
  8
red
 62
7
100
AcDbPolyline
 90
49
 70
0
 10
-9.769049
 20
9.559740
 30
0.0
 10
-9.493008
 20
10.018100
 30
0.0
 10
-9.159771
 20
10.446502
 30
0.0
 10
-8.782268
 20
10.835356
 30
0.0
 10
-8.373437
 20
11.175042
 30
0.0
 10
-7.946208
 20
11.455942
 30
0.0
 10
-7.513524
 20
11.668465
 30
0.0
 10
-7.088312
 20
11.803019
 30
0.0
 10
-6.683512
 20
11.850015
 30
0.0
 10
-6.086686
 20
11.798196
 30
0.0
 10
-5.628388
 20
11.655968
 30
0.0
 10
-5.314662
 20
11.443220
 30
0.0
 10
-5.151558
 20
11.179809
 30
0.0
 10
-5.145098
 20
10.885651
 30
0.0
 10
-5.301359
 20
10.580577
 30
0.0
 10
-5.626368
 20
10.284501
 30
0.0
 10
-6.126169
 20
10.017253
 30
0.0
 10
-6.340021
 20
9.921091
 30
0.0
 10
-6.553373
 20
9.812460
 30
0.0
 10
-6.760564
 20
9.695056
 30
0.0
 10
-6.955941
 20
9.572631
 30
0.0
 10
-7.133838
 20
9.448909
 30
0.0
 10
-7.288598
 20
9.327641
 30
0.0
 10
-7.414563
 20
9.212550
 30
0.0
 10
-7.506068
 20
9.107333
 30
0.0
 10
-7.608412
 20
8.976050
 30
0.0
 10
-7.700753
 20
8.879380
 30
0.0
 10
-7.787518
 20
8.816644
 30
0.0
 10
-7.873137
 20
8.787195
 30
0.0
 10
-7.962036
 20
8.790298
 30
0.0
 10
-8.058641
 20
8.825417
 30
0.0
 10
-8.167379
 20
8.891792
 30
0.0
 10
-8.292681
 20
8.988801
 30
0.0
 10
-8.410972
 20
9.077234
 30
0.0
 10
-8.526064
 20
9.142227
 30
0.0
 10
-8.640504
 20
9.183947
 30
0.0
 10
-8.756832
 20
9.202564
 30
0.0
 10
-8.877598
 20
9.198333
 30
0.0
 10
-9.005346
 20
9.170971
 30
0.0
 10
-9.142617
 20
9.121098
 30
0.0
 10
-9.291958
 20
9.048715
 30
0.0
 10
-9.577104
 20
8.902765
 30
0.0
 10
-9.792156
 20
8.810721
 30
0.0
 10
-9.939943
 20
8.775573
 30
0.0
 10
-10.023303
 20
8.800396
 30
0.0
 10
-10.045052
 20
8.888181
 30
0.0
 10
-10.008040
 20
9.041974
 30
0.0
 10
-9.915090
 20
9.264792
 30
0.0
 10
-9.769049
 20
9.559740
 30
0.0
  0
LWPOLYLINE
  5
121
100
AcDbEntity
  8
tap
 62
7
100
AcDbPolyline
 90
33
 70
0
 10
0.330199
 20
13.826736
 30
0.0
 10
-2.228048
 20
13.568843
 30
0.0
 10
-4.610806
 20
12.829194
 30
0.0
 10
-6.767034
 20
11.658833
 30
0.0
 10
-8.645685
 20
10.108805
 30
0.0
 10
-10.195712
 20
8.230154
 30
0.0
 10
-11.366073
 20
6.073927
 30
0.0
 10
-12.105722
 20
3.691168
 30
0.0
 10
-12.363615
 20
1.132922
 30
0.0
 10
-12.105722
 20
-1.425325
 30
0.0
 10
-11.366073
 20
-3.808083
 30
0.0
 10
-10.195712
 20
-5.964311
 30
0.0
 10
-8.645685
 20
-7.842959
 30
0.0
 10
-6.767034
 20
-9.392989
 30
0.0
 10
-4.610806
 20
-10.563350
 30
0.0
 10
-2.228048
 20
-11.302999
 30
0.0
 10
0.330199
 20
-11.560892
 30
0.0
 10
2.888445
 20
-11.302999
 30
0.0
 10
5.271204
 20
-10.563350
 30
0.0
 10
7.427431
 20
-9.392989
 30
0.0
 10
9.306082
 20
-7.842959
 30
0.0
 10
10.856110
 20
-5.964311
 30
0.0
 10
12.026471
 20
-3.808083
 30
0.0
 10
12.766120
 20
-1.425325
 30
0.0
 10
13.024013
 20
1.132922
 30
0.0
 10
12.766120
 20
3.691168
 30
0.0
 10
12.026471
 20
6.073927
 30
0.0
 10
10.856110
 20
8.230154
 30
0.0
 10
9.306082
 20
10.108805
 30
0.0
 10
7.427431
 20
11.658833
 30
0.0
 10
5.271204
 20
12.829194
 30
0.0
 10
2.888445
 20
13.568843
 30
0.0
 10
0.330199
 20
13.826736
 30
0.0
  0
LWPOLYLINE
  5
122
100
AcDbEntity
  8
tap
 62
7
100
AcDbPolyline
 90
32
 70
0
 10
8.113092
 20
7.360826
 30
0.0
 10
9.303137
 20
-1.136098
 30
0.0
 10
0.163591
 20
-1.136098
 30
0.0
 10
3.511584
 20
1.243993
 30
0.0
 10
2.541760
 20
1.892116
 30
0.0
 10
1.498345
 20
2.355844
 30
0.0
 10
0.382576
 20
2.634543
 30
0.0
 10
-0.804312
 20
2.727583
 30
0.0
 10
-2.470376
 20
2.259498
 30
0.0
 10
-2.922591
 20
0.569635
 30
0.0
 10
-2.705516
 20
-1.147271
 30
0.0
 10
-2.054145
 20
-2.919610
 30
0.0
 10
-0.968263
 20
-4.748261
 30
0.0
 10
0.552340
 20
-6.634104
 30
0.0
 10
-2.089561
 20
-9.307740
 30
0.0
 10
-4.103435
 20
-6.581783
 30
0.0
 10
-5.541328
 20
-4.004107
 30
0.0
 10
-6.403712
 20
-1.575185
 30
0.0
 10
-6.691069
 20
0.704505
 30
0.0
 10
-6.591278
 20
1.955983
 30
0.0
 10
-6.292071
 20
3.072378
 30
0.0
 10
-5.793695
 20
4.054062
 30
0.0
 10
-5.096407
 20
4.901399
 30
0.0
 10
-4.235115
 20
5.584518
 30
0.0
 10
-3.243141
 20
6.073004
 30
0.0
 10
-2.120647
 20
6.366420
 30
0.0
 10
-0.867781
 20
6.464324
 30
0.0
 10
0.778448
 20
6.310480
 30
0.0
 10
2.497760
 20
5.849785
 30
0.0
 10
4.289619
 20
5.083485
 30
0.0
 10
6.153486
 20
4.012832
 30
0.0
 10
8.113092
 20
7.360826
 30
0.0
  0
LWPOLYLINE
  5
123
100
AcDbEntity
  8
untap
 62
7
100
AcDbPolyline
 90
65
 70
0
 10
0.330201
 20
13.826739
 30
0.0
 10
-0.967669
 20
13.761202
 30
0.0
 10
-2.228046
 20
13.568846
 30
0.0
 10
-3.444553
 20
13.256051
 30
0.0
 10
-4.610805
 20
12.829197
 30
0.0
 10
-5.720424
 20
12.294664
 30
0.0
 10
-6.767032
 20
11.658836
 30
0.0
 10
-7.744244
 20
10.928090
 30
0.0
 10
-8.645683
 20
10.108809
 30
0.0
 10
-9.464964
 20
9.207370
 30
0.0
 10
-10.195710
 20
8.230158
 30
0.0
 10
-10.831538
 20
7.183550
 30
0.0
 10
-11.366072
 20
6.073930
 30
0.0
 10
-11.792925
 20
4.907679
 30
0.0
 10
-12.105720
 20
3.691172
 30
0.0
 10
-12.298077
 20
2.430794
 30
0.0
 10
-12.363614
 20
1.132925
 30
0.0
 10
-12.298077
 20
-0.164944
 30
0.0
 10
-12.105720
 20
-1.425321
 30
0.0
 10
-11.792925
 20
-2.641826
 30
0.0
 10
-11.366072
 20
-3.808080
 30
0.0
 10
-10.831538
 20
-4.917700
 30
0.0
 10
-10.195710
 20
-5.964308
 30
0.0
 10
-9.464964
 20
-6.941520
 30
0.0
 10
-8.645683
 20
-7.842955
 30
0.0
 10
-7.744244
 20
-8.662240
 30
0.0
 10
-6.767032
 20
-9.392986
 30
0.0
 10
-5.720424
 20
-10.028813
 30
0.0
 10
-4.610805
 20
-10.563347
 30
0.0
 10
-3.444553
 20
-10.990200
 30
0.0
 10
-2.228046
 20
-11.302996
 30
0.0
 10
-0.967669
 20
-11.495352
 30
0.0
 10
0.330201
 20
-11.560889
 30
0.0
 10
1.628070
 20
-11.495352
 30
0.0
 10
2.888447
 20
-11.302996
 30
0.0
 10
4.104954
 20
-10.990200
 30
0.0
 10
5.271206
 20
-10.563347
 30
0.0
 10
6.380826
 20
-10.028813
 30
0.0
 10
7.427433
 20
-9.392986
 30
0.0
 10
8.404645
 20
-8.662240
 30
0.0
 10
9.306084
 20
-7.842955
 30
0.0
 10
10.125365
 20
-6.941520
 30
0.0
 10
10.856111
 20
-5.964308
 30
0.0
 10
11.491939
 20
-4.917700
 30
0.0
 10
12.026473
 20
-3.808080
 30
0.0
 10
12.453326
 20
-2.641826
 30
0.0
 10
12.766121
 20
-1.425321
 30
0.0
 10
12.958478
 20
-0.164944
 30
0.0
 10
13.024015
 20
1.132925
 30
0.0
 10
12.958478
 20
2.430794
 30
0.0
 10
12.766121
 20
3.691172
 30
0.0
 10
12.453326
 20
4.907679
 30
0.0
 10
12.026473
 20
6.073930
 30
0.0
 10
11.491939
 20
7.183550
 30
0.0
 10
10.856111
 20
8.230158
 30
0.0
 10
10.125365
 20
9.207370
 30
0.0
 10
9.306084
 20
10.108809
 30
0.0
 10
8.404645
 20
10.928090
 30
0.0
 10
7.427433
 20
11.658836
 30
0.0
 10
6.380826
 20
12.294664
 30
0.0
 10
5.271206
 20
12.829197
 30
0.0
 10
4.104954
 20
13.256051
 30
0.0
 10
2.888447
 20
13.568846
 30
0.0
 10
1.628070
 20
13.761202
 30
0.0
 10
0.330201
 20
13.826739
 30
0.0
  0
LWPOLYLINE
  5
124
100
AcDbEntity
  8
untap
 62
7
100
AcDbPolyline
 90
34
 70
0
 10
-0.471095
 20
8.804748
 30
0.0
 10
7.684680
 20
7.662304
 30
0.0
 10
4.471557
 20
5.782035
 30
0.0
 10
5.497009
 20
3.994427
 30
0.0
 10
6.228223
 20
2.275208
 30
0.0
 10
6.666211
 20
0.625491
 30
0.0
 10
6.811981
 20
-0.953622
 30
0.0
 10
6.719093
 20
-2.155904
 30
0.0
 10
6.439990
 20
-3.231716
 30
0.0
 10
5.974000
 20
-4.182006
 30
0.0
 10
5.320458
 20
-5.007707
 30
0.0
 10
4.506434
 20
-5.677300
 30
0.0
 10
3.563699
 20
-6.155832
 30
0.0
 10
2.491768
 20
-6.443099
 30
0.0
 10
1.290172
 20
-6.538900
 30
0.0
 10
-0.896462
 20
-6.263588
 30
0.0
 10
-3.224826
 20
-5.437142
 30
0.0
 10
-5.695618
 20
-4.058800
 30
0.0
 10
-8.309525
 20
-2.127800
 30
0.0
 10
-5.746963
 20
0.410963
 30
0.0
 10
-3.937082
 20
-1.049153
 30
0.0
 10
-2.183333
 20
-2.093050
 30
0.0
 10
-0.483851
 20
-2.719955
 30
0.0
 10
1.163234
 20
-2.929095
 30
0.0
 10
2.157890
 20
-2.818978
 30
0.0
 10
2.789627
 20
-2.492747
 30
0.0
 10
3.124109
 20
-1.876239
 30
0.0
 10
3.233911
 20
-0.890153
 30
0.0
 10
3.145076
 20
0.249148
 30
0.0
 10
2.878676
 20
1.319809
 30
0.0
 10
2.434863
 20
2.320826
 30
0.0
 10
1.813791
 20
3.251204
 30
0.0
 10
-0.471095
 20
0.038084
 30
0.0
 10
-0.471095
 20
8.804748
 30
0.0
  0
LWPOLYLINE
  5
125
100
AcDbEntity
  8
white
 62
7
100
AcDbPolyline
 90
38
 70
0
 10
-0.355557
 20
-10.397926
 30
0.0
 10
-0.208775
 20
-9.748567
 30
0.0
 10
-0.227284
 20
-9.296949
 30
0.0
 10
-0.457245
 20
-8.882200
 30
0.0
 10
-0.944816
 20
-8.343277
 30
0.0
 10
-1.401164
 20
-7.821335
 30
0.0
 10
-1.664630
 20
-7.355839
 30
0.0
 10
-1.778155
 20
-6.834377
 30
0.0
 10
-1.784676
 20
-6.144511
 30
0.0
 10
-1.771841
 20
-5.825670
 30
0.0
 10
-1.759005
 20
-5.506858
 30
0.0
 10
-1.746170
 20
-5.188018
 30
0.0
 10
-1.733335
 20
-4.869206
 30
0.0
 10
-1.224070
 20
-4.869206
 30
0.0
 10
-0.714804
 20
-4.869206
 30
0.0
 10
-0.205539
 20
-4.869206
 30
0.0
 10
0.303726
 20
-4.869206
 30
0.0
 10
1.415757
 20
-4.881053
 30
0.0
 10
1.971856
 20
-4.941560
 30
0.0
 10
2.093072
 20
-5.087455
 30
0.0
 10
1.900455
 20
-5.355661
 30
0.0
 10
1.556513
 20
-5.966120
 30
0.0
 10
1.477751
 20
-6.665324
 30
0.0
 10
1.656217
 20
-7.343399
 30
0.0
 10
2.083962
 20
-7.890587
 30
0.0
 10
2.507140
 20
-8.423586
 30
0.0
 10
2.486117
 20
-9.014610
 30
0.0
 10
2.004363
 20
-9.705774
 30
0.0
 10
1.045348
 20
-10.539250
 30
0.0
 10
0.525984
 20
-10.923562
 30
0.0
 10
0.070132
 20
-11.238284
 30
0.0
 10
-0.273005
 20
-11.450920
 30
0.0
 10
-0.454219
 20
-11.529029
 30
0.0
 10
-0.509321
 20
-11.439749
 30
0.0
 10
-0.509085
 20
-11.196733
 30
0.0
 10
-0.456750
 20
-10.837047
 30
0.0
 10
-0.355554
 20
-10.397813
 30
0.0
 10
-0.355557
 20
-10.397869
 30
0.0
  0
LWPOLYLINE
  5
126
100
AcDbEntity
  8
white
 62
7
100
AcDbPolyline
 90
45
 70
0
 10
8.051251
 20
-7.566444
 30
0.0
 10
7.664420
 20
-6.874772
 30
0.0
 10
7.173061
 20
-6.447667
 30
0.0
 10
6.551153
 20
-6.270969
 30
0.0
 10
5.772677
 20
-6.330602
 30
0.0
 10
5.270319
 20
-6.390743
 30
0.0
 10
4.866886
 20
-6.308966
 30
0.0
 10
4.463568
 20
-6.042509
 30
0.0
 10
3.961565
 20
-5.548804
 30
0.0
 10
3.735266
 20
-5.308045
 30
0.0
 10
3.508969
 20
-5.067285
 30
0.0
 10
3.282671
 20
-4.826554
 30
0.0
 10
3.056372
 20
-4.585795
 30
0.0
 10
3.374411
 20
-4.297843
 30
0.0
 10
3.692451
 20
-4.009891
 30
0.0
 10
4.010489
 20
-3.721939
 30
0.0
 10
4.328529
 20
-3.433987
 30
0.0
 10
4.646567
 20
-3.146034
 30
0.0
 10
4.964607
 20
-2.858110
 30
0.0
 10
5.282645
 20
-2.570130
 30
0.0
 10
5.600685
 20
-2.282206
 30
0.0
 10
5.794663
 20
-2.499270
 30
0.0
 10
5.988640
 20
-2.716391
 30
0.0
 10
6.182618
 20
-2.933484
 30
0.0
 10
6.376596
 20
-3.150604
 30
0.0
 10
6.787857
 20
-3.554888
 30
0.0
 10
7.190457
 20
-3.824589
 30
0.0
 10
7.616180
 20
-3.975815
 30
0.0
 10
8.096809
 20
-4.024728
 30
0.0
 10
8.332885
 20
-4.024728
 30
0.0
 10
8.568961
 20
-4.024728
 30
0.0
 10
8.805036
 20
-4.024728
 30
0.0
 10
9.041112
 20
-4.024728
 30
0.0
 10
9.024644
 20
-4.514456
 30
0.0
 10
9.008175
 20
-5.004183
 30
0.0
 10
8.991707
 20
-5.493939
 30
0.0
 10
8.975239
 20
-5.983666
 30
0.0
 10
8.871704
 20
-7.364725
 30
0.0
 10
8.679428
 20
-8.094337
 30
0.0
 10
8.404061
 20
-8.162884
 30
0.0
 10
8.051249
 20
-7.560745
 30
0.0
 10
8.051249
 20
-7.560745
 30
0.0
 10
8.051249
 20
-7.560745
 30
0.0
 10
8.051249
 20
-7.560774
 30
0.0
 10
8.051253
 20
-7.566415
 30
0.0
  0
LWPOLYLINE
  5
127
100
AcDbEntity
  8
white
 62
7
100
AcDbPolyline
 90
50
 70
0
 10
-8.033832
 20
-7.639898
 30
0.0
 10
-8.391461
 20
-7.574568
 30
0.0
 10
-8.684327
 20
-7.481198
 30
0.0
 10
-8.882210
 20
-7.372256
 30
0.0
 10
-8.954888
 20
-7.260184
 30
0.0
 10
-8.935791
 20
-7.157110
 30
0.0
 10
-8.883794
 20
-7.072711
 30
0.0
 10
-8.806840
 20
-7.015645
 30
0.0
 10
-8.712869
 20
-6.994771
 30
0.0
 10
-8.559727
 20
-6.939933
 30
0.0
 10
-8.321664
 20
-6.790626
 30
0.0
 10
-8.031227
 20
-6.569641
 30
0.0
 10
-7.720963
 20
-6.299798
 30
0.0
 10
-7.363509
 20
-5.912609
 30
0.0
 10
-7.132433
 20
-5.511005
 30
0.0
 10
-7.008151
 20
-5.047286
 30
0.0
 10
-6.971076
 20
-4.473779
 30
0.0
 10
-6.939826
 20
-3.949271
 30
0.0
 10
-6.844595
 20
-3.528513
 30
0.0
 10
-6.683155
 20
-3.205047
 30
0.0
 10
-6.453286
 20
-2.972355
 30
0.0
 10
-6.228782
 20
-2.786010
 30
0.0
 10
-6.000274
 20
-2.552302
 30
0.0
 10
-5.794508
 20
-2.301191
 30
0.0
 10
-5.638227
 20
-2.062406
 30
0.0
 10
-5.461687
 20
-1.780011
 30
0.0
 10
-5.312689
 20
-1.710026
 30
0.0
 10
-5.129107
 20
-1.869121
 30
0.0
 10
-4.848809
 20
-2.273913
 30
0.0
 10
-4.566381
 20
-2.632725
 30
0.0
 10
-4.161203
 20
-3.054470
 30
0.0
 10
-3.687407
 20
-3.486511
 30
0.0
 10
-3.199123
 20
-3.876295
 30
0.0
 10
-2.909739
 20
-4.089100
 30
0.0
 10
-2.620356
 20
-4.301905
 30
0.0
 10
-2.330972
 20
-4.514738
 30
0.0
 10
-2.041588
 20
-4.727543
 30
0.0
 10
-2.289352
 20
-4.727543
 30
0.0
 10
-2.537116
 20
-4.727543
 30
0.0
 10
-2.784880
 20
-4.727543
 30
0.0
 10
-3.032644
 20
-4.727543
 30
0.0
 10
-3.827273
 20
-4.813635
 30
0.0
 10
-4.342477
 20
-5.100966
 30
0.0
 10
-4.620569
 20
-5.633289
 30
0.0
 10
-4.703864
 20
-6.454324
 30
0.0
 10
-4.816275
 20
-7.277758
 30
0.0
 10
-5.281124
 20
-7.704411
 30
0.0
 10
-6.289836
 20
-7.802436
 30
0.0
 10
-8.033832
 20
-7.639955
 30
0.0
 10
-8.033831
 20
-7.639983
 30
0.0
  0
LWPOLYLINE
  5
128
100
AcDbEntity
  8
white
 62
7
100
AcDbPolyline
 90
46
 70
0
 10
-11.198014
 20
-0.294863
 30
0.0
 10
-11.647524
 20
0.233962
 30
0.0
 10
-12.015634
 20
0.701602
 30
0.0
 10
-12.264357
 20
1.057339
 30
0.0
 10
-12.355706
 20
1.250482
 30
0.0
 10
-12.244787
 20
1.326702
 30
0.0
 10
-11.942780
 20
1.364106
 30
0.0
 10
-11.495808
 20
1.360721
 30
0.0
 10
-10.949999
 20
1.314233
 30
0.0
 10
-10.166873
 20
1.240863
 30
0.0
 10
-9.703033
 20
1.283768
 30
0.0
 10
-9.426201
 20
1.486982
 30
0.0
 10
-9.204099
 20
1.894397
 30
0.0
 10
-8.962714
 20
2.361276
 30
0.0
 10
-8.657890
 20
2.607141
 30
0.0
 10
-8.093413
 20
2.710835
 30
0.0
 10
-7.073069
 20
2.751314
 30
0.0
 10
-6.779739
 20
2.759213
 30
0.0
 10
-6.486412
 20
2.767111
 30
0.0
 10
-6.193082
 20
2.775009
 30
0.0
 10
-5.899753
 20
2.782908
 30
0.0
 10
-5.907739
 20
2.464095
 30
0.0
 10
-5.915725
 20
2.145255
 30
0.0
 10
-5.923711
 20
1.826443
 30
0.0
 10
-5.931697
 20
1.507602
 30
0.0
 10
-5.926901
 20
0.948510
 30
0.0
 10
-5.890234
 20
0.368911
 30
0.0
 10
-5.827796
 20
-0.162734
 30
0.0
 10
-5.745693
 20
-0.577963
 30
0.0
 10
-5.691208
 20
-0.780528
 30
0.0
 10
-5.636723
 20
-0.983093
 30
0.0
 10
-5.582236
 20
-1.185658
 30
0.0
 10
-5.527751
 20
-1.388223
 30
0.0
 10
-5.717721
 20
-1.238803
 30
0.0
 10
-5.907692
 20
-1.089354
 30
0.0
 10
-6.097663
 20
-0.939962
 30
0.0
 10
-6.287633
 20
-0.790514
 30
0.0
 10
-6.914224
 20
-0.361971
 30
0.0
 10
-7.400323
 20
-0.233735
 30
0.0
 10
-7.855191
 20
-0.411618
 30
0.0
 10
-8.388086
 20
-0.901289
 30
0.0
 10
-9.041133
 20
-1.441650
 30
0.0
 10
-9.654155
 20
-1.536431
 30
0.0
 10
-10.336625
 20
-1.161935
 30
0.0
 10
-11.198016
 20
-0.294581
 30
0.0
 10
-11.198012
 20
-0.294581
 30
0.0
  0
LWPOLYLINE
  5
129
100
AcDbEntity
  8
white
 62
7
100
AcDbPolyline
 90
77
 70
0
 10
6.348701
 20
0.955901
 30
0.0
 10
6.317846
 20
1.951745
 30
0.0
 10
6.199092
 20
2.702570
 30
0.0
 10
5.953336
 20
3.359432
 30
0.0
 10
5.541476
 20
4.073304
 30
0.0
 10
5.179305
 20
4.605655
 30
0.0
 10
4.789991
 20
5.123732
 30
0.0
 10
4.420280
 20
5.568269
 30
0.0
 10
4.116913
 20
5.879973
 30
0.0
 10
3.962604
 20
6.016643
 30
0.0
 10
3.808293
 20
6.153313
 30
0.0
 10
3.653982
 20
6.289983
 30
0.0
 10
3.499671
 20
6.426681
 30
0.0
 10
3.714112
 20
6.516835
 30
0.0
 10
3.928551
 20
6.607018
 30
0.0
 10
4.142992
 20
6.697172
 30
0.0
 10
4.357431
 20
6.787326
 30
0.0
 10
4.807292
 20
7.013925
 30
0.0
 10
5.067054
 20
7.278605
 30
0.0
 10
5.186444
 20
7.667064
 30
0.0
 10
5.215190
 20
8.264971
 30
0.0
 10
5.307944
 20
9.080478
 30
0.0
 10
5.673978
 20
9.523605
 30
0.0
 10
6.444953
 20
9.661714
 30
0.0
 10
7.752529
 20
9.562081
 30
0.0
 10
8.969196
 20
9.383973
 30
0.0
 10
9.524596
 20
9.197543
 30
0.0
 10
9.473745
 20
8.956192
 30
0.0
 10
8.871660
 20
8.613261
 30
0.0
 10
8.341668
 20
8.326663
 30
0.0
 10
8.052389
 20
8.018401
 30
0.0
 10
7.931707
 20
7.552227
 30
0.0
 10
7.907504
 20
6.791953
 30
0.0
 10
7.876974
 20
6.074357
 30
0.0
 10
7.761146
 20
5.559355
 30
0.0
 10
7.523657
 20
5.152025
 30
0.0
 10
7.128150
 20
4.757473
 30
0.0
 10
6.499744
 20
4.013390
 30
0.0
 10
6.368636
 20
3.323862
 30
0.0
 10
6.728022
 20
2.727252
 30
0.0
 10
7.571097
 20
2.261869
 30
0.0
 10
7.850682
 20
2.230699
 30
0.0
 10
8.157722
 20
2.334872
 30
0.0
 10
8.505141
 20
2.581358
 30
0.0
 10
8.905860
 20
2.977067
 30
0.0
 10
9.365072
 20
3.446061
 30
0.0
 10
9.708351
 20
3.673929
 30
0.0
 10
10.032924
 20
3.697342
 30
0.0
 10
10.436022
 20
3.552802
 30
0.0
 10
11.142952
 20
2.971397
 30
0.0
 10
12.051316
 20
1.962944
 30
0.0
 10
12.797055
 20
0.968313
 30
0.0
 10
13.016106
 20
0.428374
 30
0.0
 10
12.885097
 20
0.420194
 30
0.0
 10
12.597798
 20
0.467471
 30
0.0
 10
12.196609
 20
0.561462
 30
0.0
 10
11.723929
 20
0.693449
 30
0.0
 10
11.052012
 20
0.875338
 30
0.0
 10
10.629177
 20
0.904787
 30
0.0
 10
10.327306
 20
0.761686
 30
0.0
 10
10.018281
 20
0.425892
 30
0.0
 10
9.813052
 20
0.157912
 30
0.0
 10
9.629320
 20
-0.108518
 30
0.0
 10
9.487157
 20
-0.342620
 30
0.0
 10
9.406630
 20
-0.513535
 30
0.0
 10
9.249601
 20
-0.637991
 30
0.0
 10
8.899145
 20
-0.745550
 30
0.0
 10
8.407141
 20
-0.824731
 30
0.0
 10
7.825472
 20
-0.863997
 30
0.0
 10
7.456255
 20
-0.873306
 30
0.0
 10
7.087038
 20
-0.882615
 30
0.0
 10
6.717821
 20
-0.891923
 30
0.0
 10
6.348605
 20
-0.901232
 30
0.0
 10
6.348628
 20
-0.436864
 30
0.0
 10
6.348652
 20
0.027504
 30
0.0
 10
6.348676
 20
0.491872
 30
0.0
 10
6.348701
 20
0.956155
 30
0.0
  0
LWPOLYLINE
  5
12a
100
AcDbEntity
  8
white
 62
7
100
AcDbPolyline
 90
33
 70
0
 10
-5.554069
 20
4.422836
 30
0.0
 10
-5.734146
 20
5.016680
 30
0.0
 10
-6.208648
 20
5.535321
 30
0.0
 10
-6.878974
 20
5.902427
 30
0.0
 10
-7.646527
 20
6.041748
 30
0.0
 10
-8.364597
 20
6.164004
 30
0.0
 10
-8.737870
 20
6.611870
 30
0.0
 10
-8.806390
 20
7.507094
 30
0.0
 10
-8.610194
 20
8.971424
 30
0.0
 10
-8.441804
 20
9.840020
 30
0.0
 10
-8.302731
 20
10.292653
 30
0.0
 10
-8.162763
 20
10.388759
 30
0.0
 10
-7.991682
 20
10.187745
 30
0.0
 10
-7.346262
 20
9.186316
 30
0.0
 10
-6.811501
 20
8.641639
 30
0.0
 10
-6.224671
 20
8.446352
 30
0.0
 10
-5.423048
 20
8.493149
 30
0.0
 10
-4.729738
 20
8.565955
 30
0.0
 10
-4.304618
 20
8.510498
 30
0.0
 10
-4.018780
 20
8.273772
 30
0.0
 10
-3.743319
 20
7.802803
 30
0.0
 10
-3.547244
 20
7.461199
 30
0.0
 10
-3.341990
 20
7.166561
 30
0.0
 10
-3.151905
 20
6.950343
 30
0.0
 10
-3.001336
 20
6.844026
 30
0.0
 10
-2.998292
 20
6.694774
 30
0.0
 10
-3.209885
 20
6.361661
 30
0.0
 10
-3.599114
 20
5.894049
 30
0.0
 10
-4.128980
 20
5.341219
 30
0.0
 10
-4.768370
 20
4.739955
 30
0.0
 10
-5.211942
 20
4.391045
 30
0.0
 10
-5.470306
 20
4.287604
 30
0.0
 10
-5.554069
 20
4.422836
 30
0.0
  0
LWPOLYLINE
  5
12b
100
AcDbEntity
  8
white
 62
7
100
AcDbPolyline
 90
37
 70
0
 10
0.334965
 20
7.154544
 30
0.0
 10
-0.628572
 20
7.253754
 30
0.0
 10
-1.168469
 20
7.365487
 30
0.0
 10
-1.365124
 20
7.518659
 30
0.0
 10
-1.298934
 20
7.742155
 30
0.0
 10
-1.050381
 20
8.419666
 30
0.0
 10
-1.028138
 20
9.183185
 30
0.0
 10
-1.213174
 20
9.863856
 30
0.0
 10
-1.586445
 20
10.292766
 30
0.0
 10
-1.806525
 20
10.440719
 30
0.0
 10
-1.986750
 20
10.619279
 30
0.0
 10
-2.108525
 20
10.805962
 30
0.0
 10
-2.153249
 20
10.978288
 30
0.0
 10
-1.851957
 20
11.496985
 30
0.0
 10
-1.119293
 20
12.282196
 30
0.0
 10
-0.212080
 20
13.085207
 30
0.0
 10
0.612863
 20
13.657247
 30
0.0
 10
0.911193
 20
13.794876
 30
0.0
 10
1.039281
 20
13.746950
 30
0.0
 10
1.016943
 20
13.448617
 30
0.0
 10
0.863994
 20
12.834942
 30
0.0
 10
0.721258
 20
12.200448
 30
0.0
 10
0.735068
 20
11.757745
 30
0.0
 10
0.944398
 20
11.360061
 30
0.0
 10
1.388219
 20
10.860687
 30
0.0
 10
1.790220
 20
10.374006
 30
0.0
 10
2.071533
 20
9.853870
 30
0.0
 10
2.259522
 20
9.233763
 30
0.0
 10
2.381552
 20
8.447254
 30
0.0
 10
2.435664
 20
7.847316
 30
0.0
 10
2.456446
 20
7.363513
 30
0.0
 10
2.443421
 20
7.045293
 30
0.0
 10
2.396111
 20
6.941994
 30
0.0
 10
2.185015
 20
6.974264
 30
0.0
 10
1.726038
 20
7.025096
 30
0.0
 10
1.086812
 20
7.087521
 30
0.0
 10
0.334965
 20
7.154544
 30
0.0
  0
LWPOLYLINE
  5
12c
100
AcDbEntity
  8
white
 62
7
100
AcDbPolyline
 90
65
 70
0
 10
5.274591
 20
1.164672
 30
0.0
 10
5.249105
 20
0.659938
 30
0.0
 10
5.174300
 20
0.169787
 30
0.0
 10
5.052657
 20
-0.303297
 30
0.0
 10
4.886658
 20
-0.756833
 30
0.0
 10
4.678785
 20
-1.188338
 30
0.0
 10
4.431518
 20
-1.595358
 30
0.0
 10
4.147339
 20
-1.975383
 30
0.0
 10
3.828729
 20
-2.325958
 30
0.0
 10
3.478170
 20
-2.644572
 30
0.0
 10
3.098143
 20
-2.928745
 30
0.0
 10
2.691129
 20
-3.175992
 30
0.0
 10
2.259611
 20
-3.383888
 30
0.0
 10
1.806068
 20
-3.549867
 30
0.0
 10
1.332982
 20
-3.671530
 30
0.0
 10
0.842835
 20
-3.746311
 30
0.0
 10
0.338108
 20
-3.771698
 30
0.0
 10
-0.166618
 20
-3.746311
 30
0.0
 10
-0.656765
 20
-3.671530
 30
0.0
 10
-1.129851
 20
-3.549867
 30
0.0
 10
-1.583394
 20
-3.383888
 30
0.0
 10
-2.014913
 20
-3.175992
 30
0.0
 10
-2.421926
 20
-2.928745
 30
0.0
 10
-2.801954
 20
-2.644572
 30
0.0
 10
-3.152513
 20
-2.325958
 30
0.0
 10
-3.471122
 20
-1.975383
 30
0.0
 10
-3.755301
 20
-1.595358
 30
0.0
 10
-4.002568
 20
-1.188338
 30
0.0
 10
-4.210441
 20
-0.756833
 30
0.0
 10
-4.376441
 20
-0.303297
 30
0.0
 10
-4.498083
 20
0.169787
 30
0.0
 10
-4.572888
 20
0.659938
 30
0.0
 10
-4.598374
 20
1.164672
 30
0.0
 10
-4.572888
 20
1.669406
 30
0.0
 10
-4.498083
 20
2.159557
 30
0.0
 10
-4.376441
 20
2.632641
 30
0.0
 10
-4.210441
 20
3.086177
 30
0.0
 10
-4.002568
 20
3.517682
 30
0.0
 10
-3.755301
 20
3.924702
 30
0.0
 10
-3.471122
 20
4.304727
 30
0.0
 10
-3.152513
 20
4.655302
 30
0.0
 10
-2.801954
 20
4.973916
 30
0.0
 10
-2.421926
 20
5.258089
 30
0.0
 10
-2.014913
 20
5.505336
 30
0.0
 10
-1.583394
 20
5.713232
 30
0.0
 10
-1.129851
 20
5.879211
 30
0.0
 10
-0.656765
 20
6.000874
 30
0.0
 10
-0.166618
 20
6.075655
 30
0.0
 10
0.338108
 20
6.101042
 30
0.0
 10
0.842835
 20
6.075655
 30
0.0
 10
1.332982
 20
6.000874
 30
0.0
 10
1.806068
 20
5.879211
 30
0.0
 10
2.259611
 20
5.713232
 30
0.0
 10
2.691129
 20
5.505336
 30
0.0
 10
3.098143
 20
5.258089
 30
0.0
 10
3.478170
 20
4.973916
 30
0.0
 10
3.828729
 20
4.655302
 30
0.0
 10
4.147339
 20
4.304727
 30
0.0
 10
4.431518
 20
3.924702
 30
0.0
 10
4.678785
 20
3.517682
 30
0.0
 10
4.886658
 20
3.086177
 30
0.0
 10
5.052657
 20
2.632641
 30
0.0
 10
5.174300
 20
2.159557
 30
0.0
 10
5.249105
 20
1.669406
 30
0.0
 10
5.274591
 20
1.164672
 30
0.0
  0
ENDSEC
  0
SECTION
  2
OBJECTS
  0
DICTIONARY
  5
C
330
0
100
AcDbDictionary
  3
ACAD_GROUP
350
D
  3
ACAD_MLINESTYLE
350
17
  0
DICTIONARY
  5
D
330
C
100
AcDbDictionary
  0
DICTIONARY
  5
1A
330
C
100
AcDbDictionary
  0
DICTIONARY
  5
17
330
C
100
AcDbDictionary
  3
STANDARD
350
18
  0
DICTIONARY
  5
19
330
C
100
AcDbDictionary
  0
ENDSEC
  0
EOF
